%TF.GenerationSoftware,KiCad,Pcbnew,5.99.0-unknown-47cb7f53fd~143~ubuntu20.04.1*%
%TF.CreationDate,2021-11-23T21:30:27-08:00*%
%TF.ProjectId,acorn-motherboard,61636f72-6e2d-46d6-9f74-686572626f61,rev?*%
%TF.SameCoordinates,Original*%
%TF.FileFunction,Soldermask,Top*%
%TF.FilePolarity,Negative*%
%FSLAX46Y46*%
G04 Gerber Fmt 4.6, Leading zero omitted, Abs format (unit mm)*
G04 Created by KiCad (PCBNEW 5.99.0-unknown-47cb7f53fd~143~ubuntu20.04.1) date 2021-11-23 21:30:27*
%MOMM*%
%LPD*%
G01*
G04 APERTURE LIST*
G04 Aperture macros list*
%AMRoundRect*
0 Rectangle with rounded corners*
0 $1 Rounding radius*
0 $2 $3 $4 $5 $6 $7 $8 $9 X,Y pos of 4 corners*
0 Add a 4 corners polygon primitive as box body*
4,1,4,$2,$3,$4,$5,$6,$7,$8,$9,$2,$3,0*
0 Add four circle primitives for the rounded corners*
1,1,$1+$1,$2,$3*
1,1,$1+$1,$4,$5*
1,1,$1+$1,$6,$7*
1,1,$1+$1,$8,$9*
0 Add four rect primitives between the rounded corners*
20,1,$1+$1,$2,$3,$4,$5,0*
20,1,$1+$1,$4,$5,$6,$7,0*
20,1,$1+$1,$6,$7,$8,$9,0*
20,1,$1+$1,$8,$9,$2,$3,0*%
%AMFreePoly0*
4,1,22,0.500000,-0.750000,0.000000,-0.750000,0.000000,-0.745033,-0.079941,-0.743568,-0.215256,-0.701293,-0.333266,-0.622738,-0.424486,-0.514219,-0.481581,-0.384460,-0.499164,-0.250000,-0.500000,-0.250000,-0.500000,0.250000,-0.499164,0.250000,-0.499963,0.256109,-0.478152,0.396186,-0.417904,0.524511,-0.324060,0.630769,-0.204165,0.706417,-0.067858,0.745374,0.000000,0.744959,0.000000,0.750000,
0.500000,0.750000,0.500000,-0.750000,0.500000,-0.750000,$1*%
%AMFreePoly1*
4,1,20,0.000000,0.744959,0.073905,0.744508,0.209726,0.703889,0.328688,0.626782,0.421226,0.519385,0.479903,0.390333,0.500000,0.250000,0.500000,-0.250000,0.499851,-0.262216,0.476331,-0.402017,0.414519,-0.529596,0.319384,-0.634700,0.198574,-0.708877,0.061801,-0.746166,0.000000,-0.745033,0.000000,-0.750000,-0.500000,-0.750000,-0.500000,0.750000,0.000000,0.750000,0.000000,0.744959,
0.000000,0.744959,$1*%
G04 Aperture macros list end*
%ADD10R,1.600000X3.900000*%
%ADD11RoundRect,0.250000X-0.620000X-0.850000X0.620000X-0.850000X0.620000X0.850000X-0.620000X0.850000X0*%
%ADD12O,1.740000X2.200000*%
%ADD13RoundRect,0.250000X0.850000X-0.620000X0.850000X0.620000X-0.850000X0.620000X-0.850000X-0.620000X0*%
%ADD14O,2.200000X1.740000*%
%ADD15C,3.700000*%
%ADD16R,1.200000X1.200000*%
%ADD17R,1.500000X1.600000*%
%ADD18RoundRect,0.250000X0.625000X-0.375000X0.625000X0.375000X-0.625000X0.375000X-0.625000X-0.375000X0*%
%ADD19RoundRect,0.243750X-0.456250X0.243750X-0.456250X-0.243750X0.456250X-0.243750X0.456250X0.243750X0*%
%ADD20C,3.100000*%
%ADD21R,0.200000X0.700000*%
%ADD22RoundRect,0.243750X0.456250X-0.243750X0.456250X0.243750X-0.456250X0.243750X-0.456250X-0.243750X0*%
%ADD23R,1.400000X1.300000*%
%ADD24R,2.500000X1.800000*%
%ADD25RoundRect,0.243750X0.243750X0.456250X-0.243750X0.456250X-0.243750X-0.456250X0.243750X-0.456250X0*%
%ADD26C,1.270000*%
%ADD27C,1.651000*%
%ADD28C,3.759200*%
%ADD29C,2.082800*%
%ADD30R,0.900000X0.950000*%
%ADD31RoundRect,0.243750X-0.243750X-0.456250X0.243750X-0.456250X0.243750X0.456250X-0.243750X0.456250X0*%
%ADD32RoundRect,0.250000X-0.625000X0.375000X-0.625000X-0.375000X0.625000X-0.375000X0.625000X0.375000X0*%
%ADD33R,3.400000X1.800000*%
%ADD34RoundRect,0.070000X0.650000X0.300000X-0.650000X0.300000X-0.650000X-0.300000X0.650000X-0.300000X0*%
%ADD35R,0.558800X1.320800*%
%ADD36R,2.200000X1.600000*%
%ADD37C,0.700000*%
%ADD38O,1.700000X0.900000*%
%ADD39O,2.400000X0.900000*%
%ADD40R,1.550000X1.300000*%
%ADD41RoundRect,0.100000X-0.225000X-0.100000X0.225000X-0.100000X0.225000X0.100000X-0.225000X0.100000X0*%
%ADD42RoundRect,0.100000X0.225000X0.100000X-0.225000X0.100000X-0.225000X-0.100000X0.225000X-0.100000X0*%
%ADD43R,1.358900X0.279400*%
%ADD44C,1.900000*%
%ADD45C,1.600000*%
%ADD46C,3.300000*%
%ADD47RoundRect,0.250000X-1.750000X-1.000000X1.750000X-1.000000X1.750000X1.000000X-1.750000X1.000000X0*%
%ADD48R,2.000000X2.000000*%
%ADD49C,2.000000*%
%ADD50FreePoly0,0.000000*%
%ADD51FreePoly1,0.000000*%
%ADD52R,1.700000X1.700000*%
%ADD53O,1.700000X1.700000*%
%ADD54RoundRect,0.070000X-0.300000X0.650000X-0.300000X-0.650000X0.300000X-0.650000X0.300000X0.650000X0*%
%ADD55R,1.600000X1.600000*%
%ADD56RoundRect,0.250000X-0.620000X-0.845000X0.620000X-0.845000X0.620000X0.845000X-0.620000X0.845000X0*%
%ADD57O,1.740000X2.190000*%
%ADD58R,1.900000X1.900000*%
%ADD59RoundRect,0.250000X-0.475000X0.250000X-0.475000X-0.250000X0.475000X-0.250000X0.475000X0.250000X0*%
%ADD60R,1.500000X1.000000*%
%ADD61RoundRect,0.250000X-0.450000X0.262500X-0.450000X-0.262500X0.450000X-0.262500X0.450000X0.262500X0*%
%ADD62R,1.250000X1.450000*%
%ADD63RoundRect,0.250000X0.250000X0.475000X-0.250000X0.475000X-0.250000X-0.475000X0.250000X-0.475000X0*%
%ADD64RoundRect,0.070000X0.300000X-0.650000X0.300000X0.650000X-0.300000X0.650000X-0.300000X-0.650000X0*%
%ADD65R,0.558800X1.981200*%
%ADD66RoundRect,0.250000X1.750000X1.000000X-1.750000X1.000000X-1.750000X-1.000000X1.750000X-1.000000X0*%
%ADD67RoundRect,0.250000X0.450000X-0.262500X0.450000X0.262500X-0.450000X0.262500X-0.450000X-0.262500X0*%
%ADD68RoundRect,0.250000X-0.262500X-0.450000X0.262500X-0.450000X0.262500X0.450000X-0.262500X0.450000X0*%
%ADD69O,1.700000X3.400000*%
%ADD70O,1.500000X3.000000*%
G04 APERTURE END LIST*
D10*
X118450000Y-129000000D03*
X115550000Y-129000000D03*
D11*
X121690000Y-49562275D03*
D12*
X124230000Y-49562275D03*
X126770000Y-49562275D03*
X129310000Y-49562275D03*
D13*
X105031061Y-134419725D03*
D14*
X105031061Y-131879725D03*
D11*
X117000000Y-56750000D03*
D12*
X119540000Y-56750000D03*
X122080000Y-56750000D03*
X124620000Y-56750000D03*
D15*
X185871061Y-44200000D03*
D16*
X117700000Y-122500000D03*
D17*
X120950000Y-123500000D03*
D16*
X117700000Y-124500000D03*
D18*
X102200000Y-102200000D03*
X102200000Y-99400000D03*
D19*
X98321061Y-100520225D03*
X98321061Y-102395225D03*
D20*
X187121061Y-85450000D03*
X139121061Y-85450000D03*
X139121061Y-52450000D03*
X187121061Y-52450000D03*
D21*
X155821061Y-87450000D03*
X155821061Y-84370000D03*
X156221061Y-87450000D03*
X156221061Y-84370000D03*
X156621061Y-87450000D03*
X156621061Y-84370000D03*
X157021061Y-87450000D03*
X157021061Y-84370000D03*
X157421061Y-87450000D03*
X157421061Y-84370000D03*
X157821061Y-87450000D03*
X157821061Y-84370000D03*
X158221061Y-87450000D03*
X158221061Y-84370000D03*
X158621061Y-87450000D03*
X158621061Y-84370000D03*
X159021061Y-87450000D03*
X159021061Y-84370000D03*
X159421061Y-87450000D03*
X159421061Y-84370000D03*
X159821061Y-87450000D03*
X159821061Y-84370000D03*
X160221061Y-87450000D03*
X160221061Y-84370000D03*
X160621061Y-87450000D03*
X160621061Y-84370000D03*
X161021061Y-87450000D03*
X161021061Y-84370000D03*
X161421061Y-87450000D03*
X161421061Y-84370000D03*
X161821061Y-87450000D03*
X161821061Y-84370000D03*
X162221061Y-87450000D03*
X162221061Y-84370000D03*
X162621061Y-87450000D03*
X162621061Y-84370000D03*
X163021061Y-87450000D03*
X163021061Y-84370000D03*
X163421061Y-87450000D03*
X163421061Y-84370000D03*
X163821061Y-87450000D03*
X163821061Y-84370000D03*
X164221061Y-87450000D03*
X164221061Y-84370000D03*
X164621061Y-87450000D03*
X164621061Y-84370000D03*
X165021061Y-87450000D03*
X165021061Y-84370000D03*
X165421061Y-87450000D03*
X165421061Y-84370000D03*
X165821061Y-87450000D03*
X165821061Y-84370000D03*
X166221061Y-87450000D03*
X166221061Y-84370000D03*
X166621061Y-87450000D03*
X166621061Y-84370000D03*
X167021061Y-87450000D03*
X167021061Y-84370000D03*
X167421061Y-87450000D03*
X167421061Y-84370000D03*
X167821061Y-87450000D03*
X167821061Y-84370000D03*
X168221061Y-87450000D03*
X168221061Y-84370000D03*
X168621061Y-87450000D03*
X168621061Y-84370000D03*
X169021061Y-87450000D03*
X169021061Y-84370000D03*
X169421061Y-87450000D03*
X169421061Y-84370000D03*
X169821061Y-87450000D03*
X169821061Y-84370000D03*
X170221061Y-87450000D03*
X170221061Y-84370000D03*
X170621061Y-87450000D03*
X170621061Y-84370000D03*
X171021061Y-87450000D03*
X171021061Y-84370000D03*
X171421061Y-87450000D03*
X171421061Y-84370000D03*
X171821061Y-87450000D03*
X171821061Y-84370000D03*
X172221061Y-87450000D03*
X172221061Y-84370000D03*
X172621061Y-87450000D03*
X172621061Y-84370000D03*
X173021061Y-87450000D03*
X173021061Y-84370000D03*
X173421061Y-87450000D03*
X173421061Y-84370000D03*
X173821061Y-87450000D03*
X173821061Y-84370000D03*
X174221061Y-87450000D03*
X174221061Y-84370000D03*
X174621061Y-87450000D03*
X174621061Y-84370000D03*
X175021061Y-87450000D03*
X175021061Y-84370000D03*
X175421061Y-87450000D03*
X175421061Y-84370000D03*
X155821061Y-53530000D03*
X155821061Y-50450000D03*
X156221061Y-53530000D03*
X156221061Y-50450000D03*
X156621061Y-53530000D03*
X156621061Y-50450000D03*
X157021061Y-53530000D03*
X157021061Y-50450000D03*
X157421061Y-53530000D03*
X157421061Y-50450000D03*
X157821061Y-53530000D03*
X157821061Y-50450000D03*
X158221061Y-53530000D03*
X158221061Y-50450000D03*
X158621061Y-53530000D03*
X158621061Y-50450000D03*
X159021061Y-53530000D03*
X159021061Y-50450000D03*
X159421061Y-53530000D03*
X159421061Y-50450000D03*
X159821061Y-53530000D03*
X159821061Y-50450000D03*
X160221061Y-53530000D03*
X160221061Y-50450000D03*
X160621061Y-53530000D03*
X160621061Y-50450000D03*
X161021061Y-53530000D03*
X161021061Y-50450000D03*
X161421061Y-53530000D03*
X161421061Y-50450000D03*
X161821061Y-53530000D03*
X161821061Y-50450000D03*
X162221061Y-53530000D03*
X162221061Y-50450000D03*
X162621061Y-53530000D03*
X162621061Y-50450000D03*
X163021061Y-53530000D03*
X163021061Y-50450000D03*
X163421061Y-53530000D03*
X163421061Y-50450000D03*
X163821061Y-53530000D03*
X163821061Y-50450000D03*
X164221061Y-53530000D03*
X164221061Y-50450000D03*
X164621061Y-53530000D03*
X164621061Y-50450000D03*
X165021061Y-53530000D03*
X165021061Y-50450000D03*
X165421061Y-53530000D03*
X165421061Y-50450000D03*
X165821061Y-53530000D03*
X165821061Y-50450000D03*
X166221061Y-53530000D03*
X166221061Y-50450000D03*
X166621061Y-53530000D03*
X166621061Y-50450000D03*
X167021061Y-53530000D03*
X167021061Y-50450000D03*
X167421061Y-53530000D03*
X167421061Y-50450000D03*
X167821061Y-53530000D03*
X167821061Y-50450000D03*
X168221061Y-53530000D03*
X168221061Y-50450000D03*
X168621061Y-53530000D03*
X168621061Y-50450000D03*
X169021061Y-53530000D03*
X169021061Y-50450000D03*
X169421061Y-53530000D03*
X169421061Y-50450000D03*
X169821061Y-53530000D03*
X169821061Y-50450000D03*
X170221061Y-53530000D03*
X170221061Y-50450000D03*
X170621061Y-53530000D03*
X170621061Y-50450000D03*
X171021061Y-53530000D03*
X171021061Y-50450000D03*
X171421061Y-53530000D03*
X171421061Y-50450000D03*
X171821061Y-53530000D03*
X171821061Y-50450000D03*
X172221061Y-53530000D03*
X172221061Y-50450000D03*
X172621061Y-53530000D03*
X172621061Y-50450000D03*
X173021061Y-53530000D03*
X173021061Y-50450000D03*
X173421061Y-53530000D03*
X173421061Y-50450000D03*
X173821061Y-53530000D03*
X173821061Y-50450000D03*
X174221061Y-53530000D03*
X174221061Y-50450000D03*
X174621061Y-53530000D03*
X174621061Y-50450000D03*
X175021061Y-53530000D03*
X175021061Y-50450000D03*
X175421061Y-53530000D03*
X175421061Y-50450000D03*
D22*
X107571061Y-46637500D03*
X107571061Y-44762500D03*
D23*
X104971061Y-46450000D03*
X104971061Y-43550000D03*
D24*
X117000000Y-51242275D03*
X113000000Y-51242275D03*
D19*
X102571061Y-44062500D03*
X102571061Y-45937500D03*
D25*
X122787500Y-45042275D03*
X120912500Y-45042275D03*
D26*
X107871061Y-67450000D03*
X107871061Y-65420002D03*
X107871061Y-63390000D03*
X107871061Y-61360002D03*
X107871061Y-59330001D03*
X107871061Y-57300003D03*
X110411061Y-68470000D03*
X110411061Y-66440002D03*
X110411061Y-64410001D03*
X110411061Y-60340002D03*
X110411061Y-58310001D03*
X110411061Y-56280003D03*
X100761061Y-67960000D03*
X100761061Y-56790003D03*
X99221061Y-67960000D03*
X99221061Y-56790003D03*
D27*
X112951061Y-68470000D03*
X112951061Y-65930002D03*
X112951061Y-58820001D03*
X112951061Y-56280003D03*
D28*
X92631061Y-68725001D03*
X92631061Y-56025001D03*
D29*
X89461061Y-70440002D03*
X89461061Y-54310001D03*
D30*
X102546061Y-48950000D03*
X105696061Y-48950000D03*
X106146061Y-41200000D03*
X102996061Y-41200000D03*
D31*
X102933561Y-51450000D03*
X104808561Y-51450000D03*
D32*
X168200000Y-41992275D03*
X168200000Y-44792275D03*
D19*
X166800000Y-61954775D03*
X166800000Y-63829775D03*
D31*
X126833561Y-77250000D03*
X128708561Y-77250000D03*
X137062500Y-76750000D03*
X138937500Y-76750000D03*
D33*
X171000000Y-67000000D03*
D34*
X122400000Y-42992275D03*
X122400000Y-41092275D03*
X120300000Y-42042275D03*
D35*
X121710861Y-61755400D03*
X120771061Y-61755400D03*
X119831261Y-61755400D03*
X119831261Y-64244600D03*
X120771061Y-64244600D03*
X121710861Y-64244600D03*
X121710861Y-68755400D03*
X120771061Y-68755400D03*
X119831261Y-68755400D03*
X119831261Y-71244600D03*
X120771061Y-71244600D03*
X121710861Y-71244600D03*
D19*
X100750000Y-79062500D03*
X100750000Y-80937500D03*
D32*
X177400000Y-41992275D03*
X177400000Y-44792275D03*
D36*
X97300000Y-83250000D03*
X93200000Y-83250000D03*
D37*
X90525000Y-76750000D03*
X90525000Y-77600000D03*
X90525000Y-78450000D03*
X90525000Y-79300000D03*
X90525000Y-80150000D03*
X90525000Y-81000000D03*
X90525000Y-81850000D03*
X90525000Y-82700000D03*
X89175000Y-82700000D03*
X89175000Y-81850000D03*
X89175000Y-81000000D03*
X89175000Y-80150000D03*
X89175000Y-79300000D03*
X89175000Y-78450000D03*
X89175000Y-77600000D03*
X89175000Y-76750000D03*
D38*
X86165000Y-75400000D03*
D39*
X89545000Y-75400000D03*
X89545000Y-84050000D03*
D38*
X86165000Y-84050000D03*
D25*
X173737500Y-57792275D03*
X171862500Y-57792275D03*
X101937500Y-83250000D03*
X100062500Y-83250000D03*
D31*
X92562500Y-86250000D03*
X94437500Y-86250000D03*
D19*
X96750000Y-78812500D03*
X96750000Y-80687500D03*
D40*
X94475000Y-112000000D03*
X86525000Y-112000000D03*
X94475000Y-107500000D03*
X86525000Y-107500000D03*
D41*
X98621061Y-105307725D03*
X98621061Y-105957725D03*
X98621061Y-106607725D03*
X100521061Y-106607725D03*
X100521061Y-105307725D03*
D42*
X173735561Y-61556500D03*
X173735561Y-60906500D03*
X173735561Y-60256500D03*
X171835561Y-60256500D03*
X171835561Y-61556500D03*
D43*
X107450938Y-81252513D03*
X107450938Y-80752511D03*
X107450938Y-80252512D03*
X107450938Y-79752513D03*
X107450938Y-79252511D03*
X103044038Y-79252511D03*
X103044038Y-79752513D03*
X103044038Y-80252512D03*
X103044038Y-80752511D03*
X103044038Y-81252513D03*
D44*
X94960000Y-92500000D03*
D45*
X94960000Y-95000000D03*
X94960000Y-97000000D03*
D44*
X94960000Y-99500000D03*
D46*
X92250000Y-89430000D03*
X92250000Y-102570000D03*
D47*
X111117500Y-44700000D03*
X117217500Y-44700000D03*
D15*
X89371061Y-44200000D03*
D11*
X123371061Y-84200000D03*
D12*
X125911061Y-84200000D03*
X128451061Y-84200000D03*
X130991061Y-84200000D03*
D48*
X127221061Y-129807725D03*
D49*
X127221061Y-124707725D03*
X147521061Y-137507725D03*
X147521061Y-127307725D03*
X147521061Y-117107725D03*
X127221061Y-117107725D03*
D50*
X95745061Y-131879725D03*
D51*
X97045061Y-131879725D03*
D15*
X89371061Y-136307725D03*
X185871061Y-136307725D03*
D52*
X110121061Y-125307725D03*
D53*
X110121061Y-127847725D03*
X107581061Y-125307725D03*
X107581061Y-127847725D03*
X105041061Y-125307725D03*
X105041061Y-127847725D03*
X102501061Y-125307725D03*
X102501061Y-127847725D03*
X99961061Y-125307725D03*
X99961061Y-127847725D03*
X97421061Y-125307725D03*
X97421061Y-127847725D03*
X94881061Y-125307725D03*
X94881061Y-127847725D03*
X92341061Y-125307725D03*
X92341061Y-127847725D03*
X89801061Y-125307725D03*
X89801061Y-127847725D03*
X87261061Y-125307725D03*
X87261061Y-127847725D03*
D31*
X169812500Y-127750000D03*
X171687500Y-127750000D03*
D11*
X152500000Y-97500000D03*
D12*
X155040000Y-97500000D03*
X157580000Y-97500000D03*
X160120000Y-97500000D03*
X162660000Y-97500000D03*
D54*
X157162061Y-129686725D03*
X155262061Y-129686725D03*
X156212061Y-131786725D03*
X157162061Y-125368725D03*
X155262061Y-125368725D03*
X156212061Y-127468725D03*
D22*
X159768061Y-131674225D03*
X159768061Y-129799225D03*
X159641061Y-127356225D03*
X159641061Y-125481225D03*
D31*
X173562500Y-129000000D03*
X175437500Y-129000000D03*
X165312500Y-130750000D03*
X167187500Y-130750000D03*
D25*
X177187500Y-113500000D03*
X175312500Y-113500000D03*
D19*
X93250000Y-78812500D03*
X93250000Y-80687500D03*
D11*
X141000000Y-97500000D03*
D12*
X143540000Y-97500000D03*
X146080000Y-97500000D03*
X148620000Y-97500000D03*
D54*
X157162061Y-116986725D03*
X155262061Y-116986725D03*
X156212061Y-119086725D03*
X157162061Y-112668725D03*
X155262061Y-112668725D03*
X156212061Y-114768725D03*
D22*
X159641061Y-118847225D03*
X159641061Y-116972225D03*
X159571061Y-114845225D03*
X159571061Y-112970225D03*
X108250000Y-50937500D03*
X108250000Y-49062500D03*
D54*
X157162061Y-121050725D03*
X155262061Y-121050725D03*
X156212061Y-123150725D03*
D22*
X159641061Y-123038225D03*
X159641061Y-121163225D03*
D11*
X166500000Y-97500000D03*
D12*
X169040000Y-97500000D03*
X171580000Y-97500000D03*
X174120000Y-97500000D03*
X176660000Y-97500000D03*
X179200000Y-97500000D03*
X181740000Y-97500000D03*
X184280000Y-97500000D03*
D19*
X109500000Y-84930832D03*
X109500000Y-86805832D03*
D11*
X109420000Y-91707725D03*
D12*
X111960000Y-91707725D03*
X114500000Y-91707725D03*
X117040000Y-91707725D03*
X119580000Y-91707725D03*
D19*
X111891061Y-84930832D03*
X111891061Y-86805832D03*
X114391061Y-84930832D03*
X114391061Y-86805832D03*
X116891061Y-84930832D03*
X116891061Y-86805832D03*
D55*
X116000000Y-138152651D03*
D45*
X116000000Y-134652651D03*
D22*
X111641061Y-105645225D03*
X111641061Y-103770225D03*
X117141061Y-105645225D03*
X117141061Y-103770225D03*
X114371061Y-105645225D03*
X114371061Y-103770225D03*
D11*
X107420000Y-98957725D03*
D12*
X109960000Y-98957725D03*
X112500000Y-98957725D03*
X115040000Y-98957725D03*
X117580000Y-98957725D03*
D11*
X129690000Y-97500000D03*
D12*
X132230000Y-97500000D03*
X134770000Y-97500000D03*
X137310000Y-97500000D03*
D22*
X109141061Y-105645225D03*
X109141061Y-103770225D03*
D56*
X109310000Y-75112275D03*
D57*
X111850000Y-75112275D03*
X114390000Y-75112275D03*
D58*
X96460000Y-116700000D03*
D44*
X99000000Y-116700000D03*
X101540000Y-116700000D03*
D59*
X173610000Y-90460000D03*
X173610000Y-92360000D03*
D60*
X151950000Y-41192275D03*
X151950000Y-44392275D03*
X156850000Y-44392275D03*
X156850000Y-41192275D03*
X128050000Y-41192275D03*
X128050000Y-44392275D03*
X132950000Y-44392275D03*
X132950000Y-41192275D03*
D61*
X143750000Y-59837500D03*
X143750000Y-61662500D03*
D62*
X94850000Y-47830000D03*
X94850000Y-50370000D03*
X100150000Y-47850000D03*
X100150000Y-50370000D03*
D52*
X103100000Y-73425000D03*
D53*
X103100000Y-75965000D03*
X100560000Y-73425000D03*
X100560000Y-75965000D03*
X98020000Y-73425000D03*
X98020000Y-75965000D03*
X95480000Y-73425000D03*
X95480000Y-75965000D03*
D63*
X100250000Y-95600000D03*
X98350000Y-95600000D03*
D56*
X128460000Y-58770000D03*
D57*
X131000000Y-58770000D03*
X133540000Y-58770000D03*
D62*
X94850000Y-41630000D03*
X94850000Y-44170000D03*
X100150000Y-41650000D03*
X100150000Y-44170000D03*
D64*
X147050000Y-62550000D03*
X148950000Y-62550000D03*
X148000000Y-60450000D03*
D59*
X151800000Y-133450000D03*
X151800000Y-135350000D03*
D63*
X182871061Y-51750000D03*
X180971061Y-51750000D03*
D60*
X143850000Y-41192275D03*
X143850000Y-44392275D03*
X148750000Y-44392275D03*
X148750000Y-41192275D03*
D63*
X100250000Y-97610000D03*
X98350000Y-97610000D03*
D65*
X181505000Y-116235000D03*
X180235000Y-116235000D03*
X178965000Y-116235000D03*
X177695000Y-116235000D03*
X176425000Y-116235000D03*
X175155000Y-116235000D03*
X173885000Y-116235000D03*
X172615000Y-116235000D03*
X171345000Y-116235000D03*
X170075000Y-116235000D03*
X168805000Y-116235000D03*
X167535000Y-116235000D03*
X166265000Y-116235000D03*
X164995000Y-116235000D03*
X164995000Y-125265000D03*
X166265000Y-125265000D03*
X167535000Y-125265000D03*
X168805000Y-125265000D03*
X170075000Y-125265000D03*
X171345000Y-125265000D03*
X172615000Y-125265000D03*
X173885000Y-125265000D03*
X175155000Y-125265000D03*
X176425000Y-125265000D03*
X177695000Y-125265000D03*
X178965000Y-125265000D03*
X180235000Y-125265000D03*
X181505000Y-125265000D03*
D66*
X175950000Y-134600000D03*
X169850000Y-134600000D03*
D67*
X163600000Y-63812500D03*
X163600000Y-61987500D03*
D59*
X171600000Y-90450000D03*
X171600000Y-92350000D03*
D66*
X105050000Y-89900000D03*
X98950000Y-89900000D03*
D58*
X107960000Y-116700000D03*
D44*
X110500000Y-116700000D03*
X113040000Y-116700000D03*
D67*
X159900000Y-63912500D03*
X159900000Y-62087500D03*
D58*
X99660000Y-139000000D03*
D44*
X102200000Y-139000000D03*
X104740000Y-139000000D03*
D67*
X154000000Y-135312500D03*
X154000000Y-133487500D03*
D58*
X107960000Y-110600000D03*
D44*
X110500000Y-110600000D03*
X113040000Y-110600000D03*
D60*
X135950000Y-41192275D03*
X135950000Y-44392275D03*
X140850000Y-44392275D03*
X140850000Y-41192275D03*
D15*
X128689061Y-107591725D03*
D68*
X145887500Y-64792275D03*
X147712500Y-64792275D03*
D18*
X182000000Y-56650000D03*
X182000000Y-53850000D03*
D52*
X135371061Y-108057725D03*
D53*
X135371061Y-105517725D03*
X137911061Y-108057725D03*
X137911061Y-105517725D03*
X140451061Y-108057725D03*
X140451061Y-105517725D03*
X142991061Y-108057725D03*
X142991061Y-105517725D03*
X145531061Y-108057725D03*
X145531061Y-105517725D03*
X148071061Y-108057725D03*
X148071061Y-105517725D03*
X150611061Y-108057725D03*
X150611061Y-105517725D03*
X153151061Y-108057725D03*
X153151061Y-105517725D03*
X155691061Y-108057725D03*
X155691061Y-105517725D03*
X158231061Y-108057725D03*
X158231061Y-105517725D03*
X160771061Y-108057725D03*
X160771061Y-105517725D03*
X163311061Y-108057725D03*
X163311061Y-105517725D03*
X165851061Y-108057725D03*
X165851061Y-105517725D03*
X168391061Y-108057725D03*
X168391061Y-105517725D03*
X170931061Y-108057725D03*
X170931061Y-105517725D03*
X173471061Y-108057725D03*
X173471061Y-105517725D03*
X176011061Y-108057725D03*
X176011061Y-105517725D03*
X178551061Y-108057725D03*
X178551061Y-105517725D03*
X181091061Y-108057725D03*
X181091061Y-105517725D03*
X183631061Y-108057725D03*
X183631061Y-105517725D03*
D69*
X165496061Y-47256750D03*
D70*
X165496061Y-41296750D03*
D69*
X179996061Y-47256750D03*
D70*
X179996061Y-41296750D03*
M02*
