M48
; DRILL file {KiCad 5.99.0-unknown-47cb7f53fd~143~ubuntu20.04.1} date Tue 23 Nov 2021 09:31:12 PM PST
; FORMAT={-:-/ absolute / metric / decimal}
; #@! TF.CreationDate,2021-11-23T21:31:12-08:00
; #@! TF.GenerationSoftware,Kicad,Pcbnew,5.99.0-unknown-47cb7f53fd~143~ubuntu20.04.1
; #@! TF.FileFunction,Plated,1,2,PTH
FMAT,2
METRIC
; #@! TA.AperFunction,Plated,PTH,ViaDrill
T1C0.250
; #@! TA.AperFunction,Plated,PTH,ViaDrill
T2C0.400
; #@! TA.AperFunction,Plated,PTH,ComponentDrill
T3C0.400
; #@! TA.AperFunction,Plated,PTH,ViaDrill
T4C0.600
; #@! TA.AperFunction,Plated,PTH,ComponentDrill
T5C0.600
; #@! TA.AperFunction,Plated,PTH,ViaDrill
T6C0.800
; #@! TA.AperFunction,Plated,PTH,ComponentDrill
T7C0.800
; #@! TA.AperFunction,Plated,PTH,ComponentDrill
T8C0.900
; #@! TA.AperFunction,Plated,PTH,ComponentDrill
T9C0.920
; #@! TA.AperFunction,Plated,PTH,ComponentDrill
T10C1.000
; #@! TA.AperFunction,Plated,PTH,ComponentDrill
T11C1.016
; #@! TA.AperFunction,Plated,PTH,ComponentDrill
T12C1.143
; #@! TA.AperFunction,Plated,PTH,ComponentDrill
T13C1.190
; #@! TA.AperFunction,Plated,PTH,ComponentDrill
T14C1.200
; #@! TA.AperFunction,Plated,PTH,ComponentDrill
T15C1.300
; #@! TA.AperFunction,Plated,PTH,ComponentDrill
T16C1.575
; #@! TA.AperFunction,Plated,PTH,ComponentDrill
T17C2.300
; #@! TA.AperFunction,Plated,PTH,ComponentDrill
T18C3.251
%
G90
G05
T1
X86.8Y-104.6
X87.0Y-115.0
X87.654Y-83.0
X88.0Y-105.3
X88.2Y-122.8
X88.25Y-86.25
X88.6Y-93.6
X88.7Y-105.1
X88.8Y-121.0
X90.6Y-118.3
X91.0Y-86.75
X92.13Y-113.63
X92.7Y-108.0
X93.5Y-81.5
X95.0Y-85.0
X97.5Y-106.75
X98.75Y-85.25
X99.25Y-86.75
X99.3Y-99.9
X99.5Y-84.5
X99.8Y-120.4
X100.0Y-86.0
X100.25Y-78.25
X101.75Y-78.5
X102.1Y-101.0
X102.75Y-82.75
X103.75Y-52.45
X104.2Y-54.0
X104.9Y-81.75
X105.0Y-80.75
X105.495Y-80.255
X105.5Y-104.0
X105.6Y-81.75
X107.34Y-137.7
X107.4Y-86.2
X107.721Y-87.264
X108.0Y-88.8
X109.75Y-79.5
X110.591Y-140.191
X111.25Y-81.25
X116.25Y-97.25
X117.1Y-73.5
X119.2Y-68.755
X120.2Y-70.2
X120.74Y-138.54
X121.0Y-72.8
X121.0Y-76.0
X121.25Y-93.25
X121.3Y-126.5
X121.5Y-87.2
X121.75Y-94.25
X122.0Y-89.25
X122.2Y-68.755
X122.4Y-100.8
X122.5Y-91.0
X123.0Y-86.5
X123.0Y-88.2
X123.5Y-61.5
X124.12Y-139.03
X125.263Y-90.859
X126.5Y-92.5
X126.58Y-137.78
X129.25Y-64.25
X129.85Y-93.75
X130.2Y-87.0
X131.25Y-62.75
X132.5Y-118.25
X132.5Y-118.75
X133.0Y-118.75
X133.2Y-86.0
X133.717Y-131.753
X134.0Y-125.45
X135.75Y-117.0
X136.25Y-117.25
X136.5Y-117.75
X136.8Y-88.8
X138.0Y-62.0
X138.75Y-61.25
X139.5Y-72.0
X140.0Y-91.25
X140.55Y-69.15
X141.05Y-69.65
X142.95Y-66.8
X143.0Y-90.0
X143.4Y-67.25
X143.468Y-82.032
X143.75Y-64.25
X144.0Y-85.4
X144.0Y-88.5
X145.0Y-69.25
X147.0Y-86.0
X147.8Y-131.2
X148.25Y-89.75
X148.4Y-119.8
X148.8Y-52.9
X149.2Y-86.8
X149.561Y-83.061
X150.25Y-91.75
X150.45Y-64.8
X150.5Y-93.75
X150.6Y-124.2
X150.9Y-64.3
X153.239Y-69.1
X153.5Y-83.1
X153.7Y-72.6
X153.75Y-71.0
X154.161Y-68.4
X154.3Y-74.6
X154.5Y-93.25
X156.0Y-80.0
X156.5Y-89.8
X156.6Y-76.8
X156.8Y-82.6
X157.1Y-51.2
X157.2Y-52.65
X157.2Y-92.3
X157.45Y-88.65
X157.54Y-124.13
X158.1Y-52.75
X158.2Y-85.4
X158.25Y-51.25
X158.4Y-86.4
X158.6Y-71.3
X159.0Y-77.5
X159.1Y-92.5
X159.2Y-68.8
X159.2Y-86.6
X159.2Y-88.3
X159.25Y-103.5
X159.3Y-90.0
X159.3Y-91.8
X159.4Y-51.3
X159.45Y-52.55
X159.821Y-86.421
X159.9Y-91.2
X160.0Y-93.7
X160.1Y-72.0
X160.15Y-66.75
X160.2Y-82.6
X160.25Y-77.25
X160.28Y-135.87
X160.3Y-85.7
X160.5Y-51.35
X160.5Y-111.5
X160.55Y-52.55
X160.8Y-100.2
X160.9Y-85.4
X161.0Y-118.75
X161.25Y-123.0
X161.5Y-74.6
X161.5Y-86.7
X161.6Y-83.0
X161.75Y-52.6
X161.75Y-135.92
X161.9Y-117.7
X161.95Y-51.7
X162.0Y-65.75
X162.0Y-133.25
X162.1Y-110.3
X162.2Y-85.5
X162.2Y-104.2
X162.3Y-75.0
X162.5Y-88.5
X162.75Y-80.0
X162.75Y-81.0
X163.0Y-69.5
X163.0Y-133.3
X163.1Y-114.5
X163.2Y-86.2
X163.25Y-83.5
X163.4Y-91.4
X163.5Y-81.5
X163.8Y-83.2
X163.8Y-85.4
X164.0Y-68.0
X164.0Y-77.0
X164.06Y-81.9
X164.221Y-86.621
X164.25Y-51.2
X164.4Y-101.2
X164.5Y-77.6
X164.5Y-123.75
X164.7Y-103.6
X164.7Y-135.4
X164.86Y-82.6
X164.95Y-71.4
X165.0Y-122.4
X165.1Y-78.2
X165.1Y-85.9
X165.25Y-128.75
X165.3Y-76.3
X165.4Y-51.1
X165.5Y-83.2
X165.5Y-112.7
X165.7Y-85.2
X166.0Y-90.8
X166.2Y-92.8
X166.5Y-132.5
X166.75Y-118.0
X166.8Y-72.2
X166.8Y-88.4
X166.8Y-89.6
X166.856Y-85.7
X166.9Y-75.6
X167.2Y-92.6
X167.25Y-110.5
X167.25Y-112.5
X167.3Y-102.2
X167.4Y-86.3
X167.6Y-82.9
X167.745Y-126.991
X167.9Y-127.7
X168.24Y-112.5
X168.4Y-78.3
X168.5Y-69.5
X168.5Y-83.0
X168.6Y-86.4
X168.6Y-91.2
X168.8Y-93.0
X169.1Y-132.2
X169.2Y-131.6
X169.25Y-117.75
X169.4Y-77.6
X169.6Y-72.1
X169.8Y-86.2
X169.8Y-131.3
X169.8Y-131.9
X169.9Y-95.6
X170.0Y-112.5
X170.0Y-114.5
X170.2Y-83.5
X170.25Y-89.5
X170.5Y-118.25
X170.5Y-131.8
X170.75Y-79.75
X170.8Y-113.4
X171.2Y-75.6
X171.3Y-112.9
X171.35Y-52.7
X172.0Y-71.25
X172.6Y-75.9
X172.8Y-111.0
X173.0Y-118.6
X173.4Y-95.3
X173.5Y-130.75
X173.6Y-112.2
X173.7Y-100.2
X174.2Y-121.2
X174.5Y-68.0
X174.5Y-73.5
X174.9Y-52.5
X174.912Y-83.382
X175.0Y-111.6
X175.5Y-83.5
X175.7Y-121.8
X176.0Y-118.25
X176.9Y-110.2
X176.95Y-77.6
X177.0Y-87.98
X177.75Y-118.25
X178.0Y-103.0
X178.0Y-110.8
X178.85Y-63.5
X179.014Y-110.014
X179.05Y-44.5
X180.8Y-89.1
X180.8Y-89.7
X180.8Y-90.3
X181.1Y-111.9
X181.3Y-94.2
X181.4Y-89.7
X181.4Y-90.3
X182.221Y-101.758
X184.25Y-116.25
X184.55Y-100.1
X185.2Y-112.1
T2
X96.2Y-119.1
X96.8Y-133.4
X99.471Y-103.008
X103.5Y-108.1
X103.75Y-117.0
X104.65Y-56.5
X105.571Y-52.4
X106.121Y-121.108
X106.971Y-42.2
X108.95Y-52.15
X109.171Y-48.2
X111.971Y-120.958
X114.75Y-93.5
X118.2Y-61.6
X119.9Y-114.6
X120.27Y-110.29
X121.05Y-109.95
X121.6Y-100.4
X122.5Y-78.975
X122.5Y-79.75
X123.546Y-76.4
X123.6Y-69.2
X123.971Y-59.975
X123.971Y-60.825
X124.16Y-110.07
X124.16Y-111.5
X124.396Y-76.4
X125.6Y-75.8
X125.65Y-112.51
X126.721Y-136.458
X128.4Y-75.4
X128.8Y-101.2
X130.671Y-129.558
X132.0Y-62.25
X134.6Y-87.0
X137.39Y-80.182
X139.75Y-76.75
X140.4Y-47.892
X142.4Y-45.292
X143.9Y-46.592
X146.0Y-46.292
X146.0Y-75.2
X146.75Y-80.202
X148.0Y-61.6
X148.1Y-50.492
X148.4Y-63.2
X149.95Y-67.05
X150.0Y-68.05
X150.55Y-68.7
X151.321Y-74.25
X151.8Y-61.6
X151.9Y-75.0
X152.92Y-123.2
X153.3Y-61.092
X153.65Y-47.992
X155.171Y-87.1
X155.321Y-83.9
X158.1Y-133.3
X158.5Y-47.992
X158.799Y-41.393
X159.021Y-59.901
X159.401Y-40.792
X159.622Y-59.299
X160.299Y-49.193
X160.699Y-40.993
X160.821Y-58.951
X160.901Y-48.592
X161.2Y-61.2
X161.422Y-58.349
X161.9Y-41.0
X162.521Y-58.601
X163.122Y-57.999
X163.6Y-90.6
X163.971Y-58.251
X164.572Y-57.649
X165.471Y-57.851
X166.072Y-57.249
X166.15Y-52.442
X167.1Y-51.342
X167.5Y-54.892
X168.4Y-52.492
X168.6Y-59.4
X169.196Y-52.3
X170.046Y-52.3
X171.1Y-51.692
X171.3Y-44.192
X172.571Y-42.601
X172.571Y-44.099
X173.071Y-51.899
X173.172Y-41.999
X173.172Y-44.701
X173.672Y-52.501
X174.0Y-45.492
X174.25Y-64.992
X174.63Y-88.48
X174.75Y-59.5
X175.5Y-51.592
X175.8Y-61.6
X175.85Y-40.692
X175.9Y-57.092
X176.2Y-54.792
X177.6Y-50.592
X178.3Y-51.492
X178.75Y-123.5
X179.0Y-118.25
X180.0Y-113.25
X180.0Y-123.5
X180.25Y-51.9
X180.25Y-118.0
X180.4Y-102.2
X181.5Y-123.25
X182.0Y-50.45
X182.8Y-50.45
X182.971Y-112.408
T3
X89.175Y-76.75
X89.175Y-77.6
X89.175Y-78.45
X89.175Y-79.3
X89.175Y-80.15
X89.175Y-81.0
X89.175Y-81.85
X89.175Y-82.7
X90.525Y-76.75
X90.525Y-77.6
X90.525Y-78.45
X90.525Y-79.3
X90.525Y-80.15
X90.525Y-81.0
X90.525Y-81.85
X90.525Y-82.7
T4
X88.95Y-59.4
X94.2Y-59.65
X96.5Y-41.75
X96.5Y-48.8
X97.0Y-60.0
X97.1Y-69.3
X97.6Y-98.8
X101.4Y-40.6
X102.371Y-47.4
X103.171Y-43.0
X112.3Y-130.7
X116.2Y-124.8
X134.29Y-84.15
X135.9Y-92.7
X161.1Y-46.892
X172.5Y-114.5
X182.5Y-115.5
T6
X103.3Y-105.8
X103.85Y-68.6
X106.35Y-71.65
X108.03Y-106.04
X113.071Y-84.818
X115.771Y-46.8
X116.4Y-122.7
X116.9Y-48.1
X121.85Y-115.25
X130.5Y-41.392
X138.5Y-41.892
X146.4Y-41.592
X149.09Y-112.2
X149.8Y-131.2
X154.1Y-41.592
X154.371Y-116.708
X154.571Y-111.708
X154.571Y-120.308
X154.771Y-124.708
X154.771Y-129.108
X155.66Y-45.112
X166.75Y-128.25
X167.75Y-123.25
X173.0Y-93.1
T7
X116.0Y-134.653
X116.0Y-138.153
T8
X96.46Y-116.7
X99.0Y-116.7
X99.66Y-139.0
X101.54Y-116.7
X102.2Y-139.0
X104.74Y-139.0
X107.96Y-110.6
X107.96Y-116.7
X110.5Y-110.6
X110.5Y-116.7
X113.04Y-110.6
X113.04Y-116.7
T9
X94.96Y-92.5
X94.96Y-95.0
X94.96Y-97.0
X94.96Y-99.5
T10
X87.261Y-125.308
X87.261Y-127.848
X89.801Y-125.308
X89.801Y-127.848
X92.341Y-125.308
X92.341Y-127.848
X94.881Y-125.308
X94.881Y-127.848
X95.48Y-73.425
X95.48Y-75.965
X97.421Y-125.308
X97.421Y-127.848
X98.02Y-73.425
X98.02Y-75.965
X99.961Y-125.308
X99.961Y-127.848
X100.56Y-73.425
X100.56Y-75.965
X102.501Y-125.308
X102.501Y-127.848
X103.1Y-73.425
X103.1Y-75.965
X105.041Y-125.308
X105.041Y-127.848
X107.581Y-125.308
X107.581Y-127.848
X110.121Y-125.308
X110.121Y-127.848
X135.371Y-105.518
X135.371Y-108.058
X137.911Y-105.518
X137.911Y-108.058
X140.451Y-105.518
X140.451Y-108.058
X142.991Y-105.518
X142.991Y-108.058
X145.531Y-105.518
X145.531Y-108.058
X148.071Y-105.518
X148.071Y-108.058
X150.611Y-105.518
X150.611Y-108.058
X153.151Y-105.518
X153.151Y-108.058
X155.691Y-105.518
X155.691Y-108.058
X158.231Y-105.518
X158.231Y-108.058
X160.771Y-105.518
X160.771Y-108.058
X163.311Y-105.518
X163.311Y-108.058
X165.851Y-105.518
X165.851Y-108.058
X168.391Y-105.518
X168.391Y-108.058
X170.931Y-105.518
X170.931Y-108.058
X173.471Y-105.518
X173.471Y-108.058
X176.011Y-105.518
X176.011Y-108.058
X178.551Y-105.518
X178.551Y-108.058
X181.091Y-105.518
X181.091Y-108.058
X183.631Y-105.518
X183.631Y-108.058
T11
X99.221Y-56.79
X99.221Y-67.96
X100.761Y-56.79
X100.761Y-67.96
X107.871Y-57.3
X107.871Y-59.33
X107.871Y-61.36
X107.871Y-63.39
X107.871Y-65.42
X107.871Y-67.45
X110.411Y-56.28
X110.411Y-58.31
X110.411Y-60.34
X110.411Y-64.41
X110.411Y-66.44
X110.411Y-68.47
T12
X112.951Y-56.28
X112.951Y-58.82
X112.951Y-65.93
X112.951Y-68.47
T13
X109.31Y-75.112
X111.85Y-75.112
X114.39Y-75.112
X128.46Y-58.77
X131.0Y-58.77
X133.54Y-58.77
T14
X105.031Y-131.88
X105.031Y-134.42
X107.42Y-98.958
X109.42Y-91.708
X109.96Y-98.958
X111.96Y-91.708
X112.5Y-98.958
X114.5Y-91.708
X115.04Y-98.958
X117.0Y-56.75
X117.04Y-91.708
X117.58Y-98.958
X119.54Y-56.75
X119.58Y-91.708
X121.69Y-49.562
X122.08Y-56.75
X123.371Y-84.2
X124.23Y-49.562
X124.62Y-56.75
X125.911Y-84.2
X126.77Y-49.562
X128.451Y-84.2
X129.31Y-49.562
X129.69Y-97.5
X130.991Y-84.2
X132.23Y-97.5
X134.77Y-97.5
X137.31Y-97.5
X141.0Y-97.5
X143.54Y-97.5
X146.08Y-97.5
X148.62Y-97.5
X152.5Y-97.5
X155.04Y-97.5
X157.58Y-97.5
X160.12Y-97.5
X162.66Y-97.5
X166.5Y-97.5
X169.04Y-97.5
X171.58Y-97.5
X174.12Y-97.5
X176.66Y-97.5
X179.2Y-97.5
X181.74Y-97.5
X184.28Y-97.5
T15
X127.221Y-117.108
X127.221Y-124.708
X127.221Y-129.808
X147.521Y-117.108
X147.521Y-127.308
X147.521Y-137.508
T16
X89.461Y-54.31
X89.461Y-70.44
T17
X92.25Y-89.43
X92.25Y-102.57
T18
X92.631Y-56.025
X92.631Y-68.725
T5
X86.565Y-75.4G85X85.765Y-75.4
G05
X86.565Y-84.05G85X85.765Y-84.05
G05
X90.295Y-75.4G85X88.795Y-75.4
G05
X90.295Y-84.05G85X88.795Y-84.05
G05
T8
X165.496Y-40.697G85X165.496Y-41.897
G05
X165.496Y-46.357G85X165.496Y-48.157
G05
X179.996Y-40.697G85X179.996Y-41.897
G05
X179.996Y-46.357G85X179.996Y-48.157
G05
T0
M30
