%FSLAX45Y45*%
G04 Gerber Fmt 4.5, Leading zero omitted, Abs format (unit mm)*
G04 Created by KiCad (PCBNEW 5.99.0-unknown-47cb7f53fd~143~ubuntu20.04.1) date 2021-11-23 21:25:01*
%MOMM*%
%LPD*%
G01*
G04 APERTURE LIST*
%TA.AperFunction,Profile*%
%ADD10C,0.150000*%
%TD*%
%ADD11C,0.200000*%
%ADD12C,0.080000*%
%ADD13C,0.089000*%
%ADD14C,0.100000*%
%ADD15C,0.109220*%
%ADD16C,0.119000*%
%ADD17C,0.150000*%
%ADD18C,0.157000*%
%ADD19C,0.170000*%
%ADD20C,0.210820*%
%ADD21C,0.620000*%
G04 APERTURE END LIST*
D10*
X7900000Y-7067500D02*
X7900494Y-9375000D01*
X21750000Y-13249506D02*
X21750000Y-7067500D01*
X21432500Y-6750000D02*
X8217500Y-6750000D01*
X9474506Y-13567500D02*
X21432500Y-13567006D01*
X9150000Y-9950000D02*
G75*
G03*
X8825494Y-9625000I-331737J-6726D01*
G01*
X8825494Y-9625000D02*
X8150494Y-9625000D01*
X9157006Y-13250000D02*
G75*
G03*
X9474506Y-13567500I317500J0D01*
G01*
X8217500Y-6750000D02*
G75*
G03*
X7900000Y-7067500I0J-317500D01*
G01*
X9157006Y-13250000D02*
X9150000Y-9950000D01*
X21432500Y-13567006D02*
G75*
G03*
X21750000Y-13249506I0J317500D01*
G01*
X21750000Y-7067500D02*
G75*
G03*
X21432500Y-6750000I-317500J0D01*
G01*
X7900494Y-9375000D02*
G75*
G03*
X8150494Y-9625000I250000J0D01*
G01*
D11*
D12*
X8910000Y-8510000D02*
X8990000Y-8590000D01*
X8990000Y-8510000D02*
X8910000Y-8590000D01*
X9185000Y-8835000D02*
X9265000Y-8915000D01*
X9265000Y-8835000D02*
X9185000Y-8915000D01*
X9535000Y-7810000D02*
X9615000Y-7890000D01*
X9615000Y-7810000D02*
X9535000Y-7890000D01*
X9865000Y-7586875D02*
X9945000Y-7666875D01*
X9945000Y-7586875D02*
X9865000Y-7666875D01*
X9885000Y-8460000D02*
X9965000Y-8540000D01*
X9965000Y-8460000D02*
X9885000Y-8540000D01*
X9910000Y-7835000D02*
X9990000Y-7915000D01*
X9990000Y-7835000D02*
X9910000Y-7915000D01*
X9935000Y-8110000D02*
X10015000Y-8190000D01*
X10015000Y-8110000D02*
X9935000Y-8190000D01*
X10235000Y-7835000D02*
X10315000Y-7915000D01*
X10315000Y-7835000D02*
X10235000Y-7915000D01*
X10310000Y-8089950D02*
X10390000Y-8169950D01*
X10390000Y-8089950D02*
X10310000Y-8169950D01*
X10310000Y-8985000D02*
X10390000Y-9065000D01*
X10390000Y-8985000D02*
X10310000Y-9065000D01*
X10315000Y-8505000D02*
X10395000Y-8585000D01*
X10395000Y-8505000D02*
X10315000Y-8585000D01*
X10465000Y-8505000D02*
X10545000Y-8585000D01*
X10545000Y-8505000D02*
X10465000Y-8585000D01*
X10610000Y-11185000D02*
X10690000Y-11265000D01*
X10690000Y-11185000D02*
X10610000Y-11265000D01*
X10660000Y-8910000D02*
X10740000Y-8990000D01*
X10740000Y-8910000D02*
X10660000Y-8990000D01*
X10660000Y-9985000D02*
X10740000Y-10065000D01*
X10740000Y-9985000D02*
X10660000Y-10065000D01*
X10785000Y-8635000D02*
X10865000Y-8715000D01*
X10865000Y-8635000D02*
X10785000Y-8715000D01*
X11010000Y-9535000D02*
X11090000Y-9615000D01*
X11090000Y-9535000D02*
X11010000Y-9615000D01*
X11010000Y-10710000D02*
X11090000Y-10790000D01*
X11090000Y-10710000D02*
X11010000Y-10790000D01*
X11110000Y-8635000D02*
X11190000Y-8715000D01*
X11190000Y-8635000D02*
X11110000Y-8715000D01*
X11160000Y-8810000D02*
X11240000Y-8890000D01*
X11240000Y-8810000D02*
X11160000Y-8890000D01*
X11285000Y-10689950D02*
X11365000Y-10769950D01*
X11365000Y-10689950D02*
X11285000Y-10769950D01*
X11360000Y-8910000D02*
X11440000Y-8990000D01*
X11440000Y-8910000D02*
X11360000Y-8990000D01*
X11385000Y-10235000D02*
X11465000Y-10315000D01*
X11465000Y-10235000D02*
X11385000Y-10315000D01*
X11580500Y-8088000D02*
X11660500Y-8168000D01*
X11660500Y-8088000D02*
X11580500Y-8168000D01*
X11710000Y-10360000D02*
X11790000Y-10440000D01*
X11790000Y-10360000D02*
X11710000Y-10440000D01*
X11864950Y-9510000D02*
X11944950Y-9590000D01*
X11944950Y-9510000D02*
X11864950Y-9590000D01*
X12585000Y-9460000D02*
X12665000Y-9540000D01*
X12665000Y-9460000D02*
X12585000Y-9540000D01*
X12860000Y-11360000D02*
X12940000Y-11440000D01*
X12940000Y-11360000D02*
X12860000Y-11440000D01*
X12910000Y-10685000D02*
X12990000Y-10765000D01*
X12990000Y-10685000D02*
X12910000Y-10765000D01*
X12935000Y-10035000D02*
X13015000Y-10115000D01*
X13015000Y-10035000D02*
X12935000Y-10115000D01*
X12962970Y-12605050D02*
X13042970Y-12685050D01*
X13042970Y-12605050D02*
X12962970Y-12685050D01*
X12985000Y-8710000D02*
X13065000Y-8790000D01*
X13065000Y-8710000D02*
X12985000Y-8790000D01*
X13035000Y-9410000D02*
X13115000Y-9490000D01*
X13115000Y-9410000D02*
X13035000Y-9490000D01*
X13360000Y-11660000D02*
X13440000Y-11740000D01*
X13440000Y-11660000D02*
X13360000Y-11740000D01*
X13410000Y-11810000D02*
X13490000Y-11890000D01*
X13490000Y-11810000D02*
X13410000Y-11890000D01*
X13510000Y-11910000D02*
X13590000Y-11990000D01*
X13590000Y-11910000D02*
X13510000Y-11990000D01*
X13739915Y-12605050D02*
X13819915Y-12685050D01*
X13819915Y-12605050D02*
X13739915Y-12685050D01*
X14160000Y-12435000D02*
X14240000Y-12515000D01*
X14240000Y-12435000D02*
X14160000Y-12515000D01*
X14319000Y-8626000D02*
X14399000Y-8706000D01*
X14399000Y-8626000D02*
X14319000Y-8706000D01*
X14785000Y-12560000D02*
X14865000Y-12640000D01*
X14865000Y-12560000D02*
X14785000Y-12640000D01*
X14935000Y-8085000D02*
X15015000Y-8165000D01*
X15015000Y-8085000D02*
X14935000Y-8165000D01*
X15110000Y-9260000D02*
X15190000Y-9340000D01*
X15190000Y-9260000D02*
X15110000Y-9340000D01*
X15135000Y-12535000D02*
X15215000Y-12615000D01*
X15215000Y-12535000D02*
X15135000Y-12615000D01*
X15160000Y-11610000D02*
X15240000Y-11690000D01*
X15240000Y-11610000D02*
X15160000Y-11690000D01*
X15260000Y-11710000D02*
X15340000Y-11790000D01*
X15340000Y-11710000D02*
X15260000Y-11790000D01*
X15360000Y-11810000D02*
X15440000Y-11890000D01*
X15440000Y-11810000D02*
X15360000Y-11890000D01*
X15385000Y-12485000D02*
X15465000Y-12565000D01*
X15465000Y-12485000D02*
X15385000Y-12565000D01*
X15460000Y-8810000D02*
X15540000Y-8890000D01*
X15540000Y-8810000D02*
X15460000Y-8890000D01*
X15510000Y-8410000D02*
X15590000Y-8490000D01*
X15590000Y-8410000D02*
X15510000Y-8490000D01*
X15810000Y-8885000D02*
X15890000Y-8965000D01*
X15890000Y-8885000D02*
X15810000Y-8965000D01*
X16085000Y-12735000D02*
X16165000Y-12815000D01*
X16165000Y-12735000D02*
X16085000Y-12815000D01*
X16685000Y-13035000D02*
X16765000Y-13115000D01*
X16765000Y-13035000D02*
X16685000Y-13115000D01*
X16860000Y-12010000D02*
X16940000Y-12090000D01*
X16940000Y-12010000D02*
X16860000Y-12090000D01*
X17010000Y-9010000D02*
X17090000Y-9090000D01*
X17090000Y-9010000D02*
X17010000Y-9090000D01*
X17917800Y-8469000D02*
X17997800Y-8549000D01*
X17997800Y-8469000D02*
X17917800Y-8549000D01*
X18285000Y-8660000D02*
X18365000Y-8740000D01*
X18365000Y-8660000D02*
X18285000Y-8740000D01*
X18585000Y-8535000D02*
X18665000Y-8615000D01*
X18665000Y-8535000D02*
X18585000Y-8615000D01*
X18910000Y-8560000D02*
X18990000Y-8640000D01*
X18990000Y-8560000D02*
X18910000Y-8640000D01*
X19010000Y-8335000D02*
X19090000Y-8415000D01*
X19090000Y-8335000D02*
X19010000Y-8415000D01*
X19760000Y-8660000D02*
X19840000Y-8740000D01*
X19840000Y-8660000D02*
X19760000Y-8740000D01*
X20160000Y-8635000D02*
X20240000Y-8715000D01*
X20240000Y-8635000D02*
X20160000Y-8715000D01*
X20535000Y-8610000D02*
X20615000Y-8690000D01*
X20615000Y-8610000D02*
X20535000Y-8690000D01*
X20585000Y-8410000D02*
X20665000Y-8490000D01*
X20665000Y-8410000D02*
X20585000Y-8490000D01*
X20660000Y-9910000D02*
X20740000Y-9990000D01*
X20740000Y-9910000D02*
X20660000Y-9990000D01*
X20660000Y-10810000D02*
X20740000Y-10890000D01*
X20740000Y-10810000D02*
X20660000Y-10890000D01*
X20810000Y-9910000D02*
X20890000Y-9990000D01*
X20890000Y-9910000D02*
X20810000Y-9990000D01*
X20810000Y-10810000D02*
X20890000Y-10890000D01*
X20890000Y-10810000D02*
X20810000Y-10890000D01*
X20960000Y-9910000D02*
X21040000Y-9990000D01*
X21040000Y-9910000D02*
X20960000Y-9990000D01*
X20960000Y-10810000D02*
X21040000Y-10890000D01*
X21040000Y-10810000D02*
X20960000Y-10890000D01*
D13*
X11584500Y-9713600D02*
G75*
G03*
X11584500Y-9713600I-44500J0D01*
G01*
X11584500Y-9942600D02*
G75*
G03*
X11584500Y-9942600I-44500J0D01*
G01*
X11584500Y-10856600D02*
G75*
G03*
X11584500Y-10856600I-44500J0D01*
G01*
X11584500Y-11085600D02*
G75*
G03*
X11584500Y-11085600I-44500J0D01*
G01*
X12066500Y-10145200D02*
G75*
G03*
X12066500Y-10145200I-44500J0D01*
G01*
X12066500Y-10348400D02*
G75*
G03*
X12066500Y-10348400I-44500J0D01*
G01*
X12066500Y-10551600D02*
G75*
G03*
X12066500Y-10551600I-44500J0D01*
G01*
X12066500Y-10754800D02*
G75*
G03*
X12066500Y-10754800I-44500J0D01*
G01*
X12244500Y-10043600D02*
G75*
G03*
X12244500Y-10043600I-44500J0D01*
G01*
X12244500Y-10246800D02*
G75*
G03*
X12244500Y-10246800I-44500J0D01*
G01*
X12244500Y-10450000D02*
G75*
G03*
X12244500Y-10450000I-44500J0D01*
G01*
X12244500Y-10653200D02*
G75*
G03*
X12244500Y-10653200I-44500J0D01*
G01*
D14*
X9652000Y-9221000D02*
X9652000Y-9321000D01*
X9602000Y-9271000D02*
X9702000Y-9271000D01*
X9906000Y-9221000D02*
X9906000Y-9321000D01*
X9856000Y-9271000D02*
X9956000Y-9271000D01*
X10160000Y-9221000D02*
X10160000Y-9321000D01*
X10110000Y-9271000D02*
X10210000Y-9271000D01*
X10414000Y-9221000D02*
X10414000Y-9321000D01*
X10364000Y-9271000D02*
X10464000Y-9271000D01*
X10668000Y-9221000D02*
X10668000Y-9321000D01*
X10618000Y-9271000D02*
X10718000Y-9271000D01*
X10922000Y-9221000D02*
X10922000Y-9321000D01*
X10872000Y-9271000D02*
X10972000Y-9271000D01*
X11176000Y-9221000D02*
X11176000Y-9321000D01*
X11126000Y-9271000D02*
X11226000Y-9271000D01*
X11430000Y-9221000D02*
X11430000Y-9321000D01*
X11380000Y-9271000D02*
X11480000Y-9271000D01*
X11684000Y-9221000D02*
X11684000Y-9321000D01*
X11634000Y-9271000D02*
X11734000Y-9271000D01*
X11938000Y-9221000D02*
X11938000Y-9321000D01*
X11888000Y-9271000D02*
X11988000Y-9271000D01*
X12192000Y-9221000D02*
X12192000Y-9321000D01*
X12142000Y-9271000D02*
X12242000Y-9271000D01*
X12446000Y-9221000D02*
X12446000Y-9321000D01*
X12396000Y-9271000D02*
X12496000Y-9271000D01*
X12700000Y-9221000D02*
X12700000Y-9321000D01*
X12650000Y-9271000D02*
X12750000Y-9271000D01*
X12954000Y-9221000D02*
X12954000Y-9321000D01*
X12904000Y-9271000D02*
X13004000Y-9271000D01*
X13208000Y-9221000D02*
X13208000Y-9321000D01*
X13158000Y-9271000D02*
X13258000Y-9271000D01*
X13462000Y-9221000D02*
X13462000Y-9321000D01*
X13412000Y-9271000D02*
X13512000Y-9271000D01*
X13716000Y-9221000D02*
X13716000Y-9321000D01*
X13666000Y-9271000D02*
X13766000Y-9271000D01*
X13970000Y-9221000D02*
X13970000Y-9321000D01*
X13920000Y-9271000D02*
X14020000Y-9271000D01*
X14224000Y-9221000D02*
X14224000Y-9321000D01*
X14174000Y-9271000D02*
X14274000Y-9271000D01*
X14478000Y-9221000D02*
X14478000Y-9321000D01*
X14428000Y-9271000D02*
X14528000Y-9271000D01*
X16375000Y-7550000D02*
X16375000Y-7650000D01*
X16325000Y-7600000D02*
X16425000Y-7600000D01*
X16375000Y-7804000D02*
X16375000Y-7904000D01*
X16325000Y-7854000D02*
X16425000Y-7854000D01*
X17653000Y-9221000D02*
X17653000Y-9321000D01*
X17603000Y-9271000D02*
X17703000Y-9271000D01*
X17907000Y-9221000D02*
X17907000Y-9321000D01*
X17857000Y-9271000D02*
X17957000Y-9271000D01*
X18161000Y-9221000D02*
X18161000Y-9321000D01*
X18111000Y-9271000D02*
X18211000Y-9271000D01*
X18415000Y-9221000D02*
X18415000Y-9321000D01*
X18365000Y-9271000D02*
X18465000Y-9271000D01*
X18669000Y-9221000D02*
X18669000Y-9321000D01*
X18619000Y-9271000D02*
X18719000Y-9271000D01*
X18923000Y-9221000D02*
X18923000Y-9321000D01*
X18873000Y-9271000D02*
X18973000Y-9271000D01*
X19177000Y-9221000D02*
X19177000Y-9321000D01*
X19127000Y-9271000D02*
X19227000Y-9271000D01*
X19431000Y-9221000D02*
X19431000Y-9321000D01*
X19381000Y-9271000D02*
X19481000Y-9271000D01*
X19685000Y-9221000D02*
X19685000Y-9321000D01*
X19635000Y-9271000D02*
X19735000Y-9271000D01*
X19939000Y-9221000D02*
X19939000Y-9321000D01*
X19889000Y-9271000D02*
X19989000Y-9271000D01*
X20193000Y-9221000D02*
X20193000Y-9321000D01*
X20143000Y-9271000D02*
X20243000Y-9271000D01*
X20447000Y-9221000D02*
X20447000Y-9321000D01*
X20397000Y-9271000D02*
X20497000Y-9271000D01*
D15*
X9642136Y-11977265D02*
X9642136Y-11900034D01*
X9564905Y-11900034D01*
X9564905Y-11977265D01*
X9642136Y-11977265D01*
X9642136Y-12993265D02*
X9642136Y-12916034D01*
X9564905Y-12916034D01*
X9564905Y-12993265D01*
X9642136Y-12993265D01*
X19485096Y-11983965D02*
X19485096Y-11906734D01*
X19407865Y-11906734D01*
X19407865Y-11983965D01*
X19485096Y-11983965D01*
X19485096Y-12999965D02*
X19485096Y-12922734D01*
X19407865Y-12922734D01*
X19407865Y-12999965D01*
X19485096Y-12999965D01*
D16*
X9202000Y-7051500D02*
X9261500Y-6992000D01*
X9202000Y-6932500D01*
X9142500Y-6992000D01*
X9202000Y-7051500D01*
X9202000Y-7305500D02*
X9261500Y-7246000D01*
X9202000Y-7186500D01*
X9142500Y-7246000D01*
X9202000Y-7305500D01*
X9202000Y-7559500D02*
X9261500Y-7500000D01*
X9202000Y-7440500D01*
X9142500Y-7500000D01*
X9202000Y-7559500D01*
X9202000Y-7813500D02*
X9261500Y-7754000D01*
X9202000Y-7694500D01*
X9142500Y-7754000D01*
X9202000Y-7813500D01*
X9202000Y-8067500D02*
X9261500Y-8008000D01*
X9202000Y-7948500D01*
X9142500Y-8008000D01*
X9202000Y-8067500D01*
X10373000Y-10459500D02*
X10432500Y-10400000D01*
X10373000Y-10340500D01*
X10313500Y-10400000D01*
X10373000Y-10459500D01*
X10627000Y-10459500D02*
X10686500Y-10400000D01*
X10627000Y-10340500D01*
X10567500Y-10400000D01*
X10627000Y-10459500D01*
X11049000Y-7362000D02*
X11108500Y-7302500D01*
X11049000Y-7243000D01*
X10989500Y-7302500D01*
X11049000Y-7362000D01*
X11049000Y-7616000D02*
X11108500Y-7556500D01*
X11049000Y-7497000D01*
X10989500Y-7556500D01*
X11049000Y-7616000D01*
X11049000Y-7870000D02*
X11108500Y-7810500D01*
X11049000Y-7751000D01*
X10989500Y-7810500D01*
X11049000Y-7870000D01*
X11938000Y-7362000D02*
X11997500Y-7302500D01*
X11938000Y-7243000D01*
X11878500Y-7302500D01*
X11938000Y-7362000D01*
X11938000Y-7616000D02*
X11997500Y-7556500D01*
X11938000Y-7497000D01*
X11878500Y-7556500D01*
X11938000Y-7616000D01*
X11938000Y-7870000D02*
X11997500Y-7810500D01*
X11938000Y-7751000D01*
X11878500Y-7810500D01*
X11938000Y-7870000D01*
X12734000Y-7362000D02*
X12793500Y-7302500D01*
X12734000Y-7243000D01*
X12674500Y-7302500D01*
X12734000Y-7362000D01*
X12734000Y-7616000D02*
X12793500Y-7556500D01*
X12734000Y-7497000D01*
X12674500Y-7556500D01*
X12734000Y-7616000D01*
X12734000Y-7870000D02*
X12793500Y-7810500D01*
X12734000Y-7751000D01*
X12674500Y-7810500D01*
X12734000Y-7870000D01*
X13509000Y-7362000D02*
X13568500Y-7302500D01*
X13509000Y-7243000D01*
X13449500Y-7302500D01*
X13509000Y-7362000D01*
X13509000Y-7616000D02*
X13568500Y-7556500D01*
X13509000Y-7497000D01*
X13449500Y-7556500D01*
X13509000Y-7616000D01*
X13509000Y-7870000D02*
X13568500Y-7810500D01*
X13509000Y-7751000D01*
X13449500Y-7810500D01*
X13509000Y-7870000D01*
X14798000Y-7359500D02*
X14857500Y-7300000D01*
X14798000Y-7240500D01*
X14738500Y-7300000D01*
X14798000Y-7359500D01*
X14798000Y-7613500D02*
X14857500Y-7554000D01*
X14798000Y-7494500D01*
X14738500Y-7554000D01*
X14798000Y-7613500D01*
X17780000Y-7450900D02*
X17839500Y-7391400D01*
X17780000Y-7331900D01*
X17720500Y-7391400D01*
X17780000Y-7450900D01*
X18034000Y-7450900D02*
X18093500Y-7391400D01*
X18034000Y-7331900D01*
X17974500Y-7391400D01*
X18034000Y-7450900D01*
X18288000Y-7450900D02*
X18347500Y-7391400D01*
X18288000Y-7331900D01*
X18228500Y-7391400D01*
X18288000Y-7450900D01*
X18542000Y-7450900D02*
X18601500Y-7391400D01*
X18542000Y-7331900D01*
X18482500Y-7391400D01*
X18542000Y-7450900D01*
X18796000Y-7450900D02*
X18855500Y-7391400D01*
X18796000Y-7331900D01*
X18736500Y-7391400D01*
X18796000Y-7450900D01*
X19431000Y-7450900D02*
X19490500Y-7391400D01*
X19431000Y-7331900D01*
X19371500Y-7391400D01*
X19431000Y-7450900D01*
X19685000Y-7450900D02*
X19744500Y-7391400D01*
X19685000Y-7331900D01*
X19625500Y-7391400D01*
X19685000Y-7450900D01*
X19939000Y-7450900D02*
X19998500Y-7391400D01*
X19939000Y-7331900D01*
X19879500Y-7391400D01*
X19939000Y-7450900D01*
X20193000Y-7450900D02*
X20252500Y-7391400D01*
X20193000Y-7331900D01*
X20133500Y-7391400D01*
X20193000Y-7450900D01*
X20447000Y-7450900D02*
X20506500Y-7391400D01*
X20447000Y-7331900D01*
X20387500Y-7391400D01*
X20447000Y-7450900D01*
D17*
X13030000Y-12007000D02*
X13180000Y-12157000D01*
X13180000Y-12007000D02*
X13030000Y-12157000D01*
X13180000Y-12082000D02*
G75*
G03*
X13180000Y-12082000I-75000J0D01*
G01*
X14120000Y-12007000D02*
X14270000Y-12157000D01*
X14270000Y-12007000D02*
X14120000Y-12157000D01*
X14270000Y-12082000D02*
G75*
G03*
X14270000Y-12082000I-75000J0D01*
G01*
X14880000Y-12007000D02*
X15030000Y-12157000D01*
X15030000Y-12007000D02*
X14880000Y-12157000D01*
X15030000Y-12082000D02*
G75*
G03*
X15030000Y-12082000I-75000J0D01*
G01*
X15970000Y-12007000D02*
X16120000Y-12157000D01*
X16120000Y-12007000D02*
X15970000Y-12157000D01*
X16120000Y-12082000D02*
G75*
G03*
X16120000Y-12082000I-75000J0D01*
G01*
D18*
X12032500Y-9508100D02*
X12189500Y-9665100D01*
X12189500Y-9508100D02*
X12032500Y-9665100D01*
X12111000Y-9508100D02*
X12111000Y-9665100D01*
X12032500Y-9586600D02*
X12189500Y-9586600D01*
X12032500Y-11134100D02*
X12189500Y-11291100D01*
X12189500Y-11134100D02*
X12032500Y-11291100D01*
X12111000Y-11134100D02*
X12111000Y-11291100D01*
X12032500Y-11212600D02*
X12189500Y-11212600D01*
D19*
X14069000Y-13025500D02*
X14239000Y-13195500D01*
X14239000Y-13025500D02*
X14069000Y-13195500D01*
X14214105Y-13170605D02*
X14214105Y-13050395D01*
X14093895Y-13050395D01*
X14093895Y-13170605D01*
X14214105Y-13170605D01*
X14465000Y-13025500D02*
X14635000Y-13195500D01*
X14635000Y-13025500D02*
X14465000Y-13195500D01*
X14610105Y-13170605D02*
X14610105Y-13050395D01*
X14489895Y-13050395D01*
X14489895Y-13170605D01*
X14610105Y-13170605D01*
X14861000Y-13025500D02*
X15031000Y-13195500D01*
X15031000Y-13025500D02*
X14861000Y-13195500D01*
X15006105Y-13170605D02*
X15006105Y-13050395D01*
X14885895Y-13050395D01*
X14885895Y-13170605D01*
X15006105Y-13170605D01*
D20*
X10768110Y-11452240D02*
X10978930Y-11663060D01*
X10978930Y-11452240D02*
X10768110Y-11663060D01*
X10873520Y-11663060D02*
X10978930Y-11557650D01*
X10873520Y-11452240D01*
X10768110Y-11557650D01*
X10873520Y-11663060D01*
X11022110Y-13230240D02*
X11232930Y-13441060D01*
X11232930Y-13230240D02*
X11022110Y-13441060D01*
X11127520Y-13441060D02*
X11232930Y-13335650D01*
X11127520Y-13230240D01*
X11022110Y-13335650D01*
X11127520Y-13441060D01*
X11784110Y-13230240D02*
X11994930Y-13441060D01*
X11994930Y-13230240D02*
X11784110Y-13441060D01*
X11889520Y-13441060D02*
X11994930Y-13335650D01*
X11889520Y-13230240D01*
X11784110Y-13335650D01*
X11889520Y-13441060D01*
X17055070Y-11458940D02*
X17265890Y-11669760D01*
X17265890Y-11458940D02*
X17055070Y-11669760D01*
X17160480Y-11669760D02*
X17265890Y-11564350D01*
X17160480Y-11458940D01*
X17055070Y-11564350D01*
X17160480Y-11669760D01*
X17817070Y-11458940D02*
X18027890Y-11669760D01*
X18027890Y-11458940D02*
X17817070Y-11669760D01*
X17922480Y-11669760D02*
X18027890Y-11564350D01*
X17922480Y-11458940D01*
X17817070Y-11564350D01*
X17922480Y-11669760D01*
X18071070Y-13236940D02*
X18281890Y-13447760D01*
X18281890Y-13236940D02*
X18071070Y-13447760D01*
X18176480Y-13447760D02*
X18281890Y-13342350D01*
X18176480Y-13236940D01*
X18071070Y-13342350D01*
X18176480Y-13447760D01*
D21*
X9775000Y-10311000D02*
X9775000Y-10931000D01*
X9465000Y-10621000D02*
X10085000Y-10621000D01*
X10085000Y-10621000D02*
G75*
G03*
X10085000Y-10621000I-310000J0D01*
G01*
D11*
X8150119Y-13885476D02*
X8150119Y-13685476D01*
X8197738Y-13685476D01*
X8226309Y-13695000D01*
X8245357Y-13714048D01*
X8254881Y-13733095D01*
X8264405Y-13771190D01*
X8264405Y-13799762D01*
X8254881Y-13837857D01*
X8245357Y-13856905D01*
X8226309Y-13875952D01*
X8197738Y-13885476D01*
X8150119Y-13885476D01*
X8350119Y-13885476D02*
X8350119Y-13752143D01*
X8350119Y-13790238D02*
X8359643Y-13771190D01*
X8369167Y-13761667D01*
X8388214Y-13752143D01*
X8407262Y-13752143D01*
X8473929Y-13885476D02*
X8473929Y-13752143D01*
X8473929Y-13685476D02*
X8464405Y-13695000D01*
X8473929Y-13704524D01*
X8483452Y-13695000D01*
X8473929Y-13685476D01*
X8473929Y-13704524D01*
X8597738Y-13885476D02*
X8578690Y-13875952D01*
X8569167Y-13856905D01*
X8569167Y-13685476D01*
X8702500Y-13885476D02*
X8683452Y-13875952D01*
X8673929Y-13856905D01*
X8673929Y-13685476D01*
X8931071Y-13885476D02*
X8931071Y-13685476D01*
X8997738Y-13828333D01*
X9064405Y-13685476D01*
X9064405Y-13885476D01*
X9245357Y-13885476D02*
X9245357Y-13780714D01*
X9235833Y-13761667D01*
X9216786Y-13752143D01*
X9178690Y-13752143D01*
X9159643Y-13761667D01*
X9245357Y-13875952D02*
X9226310Y-13885476D01*
X9178690Y-13885476D01*
X9159643Y-13875952D01*
X9150119Y-13856905D01*
X9150119Y-13837857D01*
X9159643Y-13818809D01*
X9178690Y-13809286D01*
X9226310Y-13809286D01*
X9245357Y-13799762D01*
X9340595Y-13752143D02*
X9340595Y-13952143D01*
X9340595Y-13761667D02*
X9359643Y-13752143D01*
X9397738Y-13752143D01*
X9416786Y-13761667D01*
X9426310Y-13771190D01*
X9435833Y-13790238D01*
X9435833Y-13847381D01*
X9426310Y-13866428D01*
X9416786Y-13875952D01*
X9397738Y-13885476D01*
X9359643Y-13885476D01*
X9340595Y-13875952D01*
X9521548Y-13866428D02*
X9531071Y-13875952D01*
X9521548Y-13885476D01*
X9512024Y-13875952D01*
X9521548Y-13866428D01*
X9521548Y-13885476D01*
X9521548Y-13761667D02*
X9531071Y-13771190D01*
X9521548Y-13780714D01*
X9512024Y-13771190D01*
X9521548Y-13761667D01*
X9521548Y-13780714D01*
D12*
X7812500Y-14175000D02*
X7892500Y-14255000D01*
X7892500Y-14175000D02*
X7812500Y-14255000D01*
D11*
X8188214Y-14105476D02*
X8207262Y-14105476D01*
X8226309Y-14115000D01*
X8235833Y-14124524D01*
X8245357Y-14143571D01*
X8254881Y-14181667D01*
X8254881Y-14229286D01*
X8245357Y-14267381D01*
X8235833Y-14286428D01*
X8226309Y-14295952D01*
X8207262Y-14305476D01*
X8188214Y-14305476D01*
X8169167Y-14295952D01*
X8159643Y-14286428D01*
X8150119Y-14267381D01*
X8140595Y-14229286D01*
X8140595Y-14181667D01*
X8150119Y-14143571D01*
X8159643Y-14124524D01*
X8169167Y-14115000D01*
X8188214Y-14105476D01*
X8340595Y-14286428D02*
X8350119Y-14295952D01*
X8340595Y-14305476D01*
X8331071Y-14295952D01*
X8340595Y-14286428D01*
X8340595Y-14305476D01*
X8464405Y-14191190D02*
X8445357Y-14181667D01*
X8435833Y-14172143D01*
X8426310Y-14153095D01*
X8426310Y-14143571D01*
X8435833Y-14124524D01*
X8445357Y-14115000D01*
X8464405Y-14105476D01*
X8502500Y-14105476D01*
X8521548Y-14115000D01*
X8531071Y-14124524D01*
X8540595Y-14143571D01*
X8540595Y-14153095D01*
X8531071Y-14172143D01*
X8521548Y-14181667D01*
X8502500Y-14191190D01*
X8464405Y-14191190D01*
X8445357Y-14200714D01*
X8435833Y-14210238D01*
X8426310Y-14229286D01*
X8426310Y-14267381D01*
X8435833Y-14286428D01*
X8445357Y-14295952D01*
X8464405Y-14305476D01*
X8502500Y-14305476D01*
X8521548Y-14295952D01*
X8531071Y-14286428D01*
X8540595Y-14267381D01*
X8540595Y-14229286D01*
X8531071Y-14210238D01*
X8521548Y-14200714D01*
X8502500Y-14191190D01*
X8664405Y-14105476D02*
X8683452Y-14105476D01*
X8702500Y-14115000D01*
X8712024Y-14124524D01*
X8721548Y-14143571D01*
X8731071Y-14181667D01*
X8731071Y-14229286D01*
X8721548Y-14267381D01*
X8712024Y-14286428D01*
X8702500Y-14295952D01*
X8683452Y-14305476D01*
X8664405Y-14305476D01*
X8645357Y-14295952D01*
X8635833Y-14286428D01*
X8626310Y-14267381D01*
X8616786Y-14229286D01*
X8616786Y-14181667D01*
X8626310Y-14143571D01*
X8635833Y-14124524D01*
X8645357Y-14115000D01*
X8664405Y-14105476D01*
X8854881Y-14105476D02*
X8873929Y-14105476D01*
X8892976Y-14115000D01*
X8902500Y-14124524D01*
X8912024Y-14143571D01*
X8921548Y-14181667D01*
X8921548Y-14229286D01*
X8912024Y-14267381D01*
X8902500Y-14286428D01*
X8892976Y-14295952D01*
X8873929Y-14305476D01*
X8854881Y-14305476D01*
X8835833Y-14295952D01*
X8826310Y-14286428D01*
X8816786Y-14267381D01*
X8807262Y-14229286D01*
X8807262Y-14181667D01*
X8816786Y-14143571D01*
X8826310Y-14124524D01*
X8835833Y-14115000D01*
X8854881Y-14105476D01*
X9007262Y-14305476D02*
X9007262Y-14172143D01*
X9007262Y-14191190D02*
X9016786Y-14181667D01*
X9035833Y-14172143D01*
X9064405Y-14172143D01*
X9083452Y-14181667D01*
X9092976Y-14200714D01*
X9092976Y-14305476D01*
X9092976Y-14200714D02*
X9102500Y-14181667D01*
X9121548Y-14172143D01*
X9150119Y-14172143D01*
X9169167Y-14181667D01*
X9178690Y-14200714D01*
X9178690Y-14305476D01*
X9273929Y-14305476D02*
X9273929Y-14172143D01*
X9273929Y-14191190D02*
X9283452Y-14181667D01*
X9302500Y-14172143D01*
X9331071Y-14172143D01*
X9350119Y-14181667D01*
X9359643Y-14200714D01*
X9359643Y-14305476D01*
X9359643Y-14200714D02*
X9369167Y-14181667D01*
X9388214Y-14172143D01*
X9416786Y-14172143D01*
X9435833Y-14181667D01*
X9445357Y-14200714D01*
X9445357Y-14305476D01*
X9835833Y-14095952D02*
X9664405Y-14353095D01*
X10092976Y-14105476D02*
X10112024Y-14105476D01*
X10131071Y-14115000D01*
X10140595Y-14124524D01*
X10150119Y-14143571D01*
X10159643Y-14181667D01*
X10159643Y-14229286D01*
X10150119Y-14267381D01*
X10140595Y-14286428D01*
X10131071Y-14295952D01*
X10112024Y-14305476D01*
X10092976Y-14305476D01*
X10073929Y-14295952D01*
X10064405Y-14286428D01*
X10054881Y-14267381D01*
X10045357Y-14229286D01*
X10045357Y-14181667D01*
X10054881Y-14143571D01*
X10064405Y-14124524D01*
X10073929Y-14115000D01*
X10092976Y-14105476D01*
X10245357Y-14286428D02*
X10254881Y-14295952D01*
X10245357Y-14305476D01*
X10235833Y-14295952D01*
X10245357Y-14286428D01*
X10245357Y-14305476D01*
X10378690Y-14105476D02*
X10397738Y-14105476D01*
X10416786Y-14115000D01*
X10426310Y-14124524D01*
X10435833Y-14143571D01*
X10445357Y-14181667D01*
X10445357Y-14229286D01*
X10435833Y-14267381D01*
X10426310Y-14286428D01*
X10416786Y-14295952D01*
X10397738Y-14305476D01*
X10378690Y-14305476D01*
X10359643Y-14295952D01*
X10350119Y-14286428D01*
X10340595Y-14267381D01*
X10331071Y-14229286D01*
X10331071Y-14181667D01*
X10340595Y-14143571D01*
X10350119Y-14124524D01*
X10359643Y-14115000D01*
X10378690Y-14105476D01*
X10512024Y-14105476D02*
X10635833Y-14105476D01*
X10569167Y-14181667D01*
X10597738Y-14181667D01*
X10616786Y-14191190D01*
X10626310Y-14200714D01*
X10635833Y-14219762D01*
X10635833Y-14267381D01*
X10626310Y-14286428D01*
X10616786Y-14295952D01*
X10597738Y-14305476D01*
X10540595Y-14305476D01*
X10521548Y-14295952D01*
X10512024Y-14286428D01*
X10826310Y-14305476D02*
X10712024Y-14305476D01*
X10769167Y-14305476D02*
X10769167Y-14105476D01*
X10750119Y-14134048D01*
X10731071Y-14153095D01*
X10712024Y-14162619D01*
X11007262Y-14105476D02*
X10912024Y-14105476D01*
X10902500Y-14200714D01*
X10912024Y-14191190D01*
X10931071Y-14181667D01*
X10978690Y-14181667D01*
X10997738Y-14191190D01*
X11007262Y-14200714D01*
X11016786Y-14219762D01*
X11016786Y-14267381D01*
X11007262Y-14286428D01*
X10997738Y-14295952D01*
X10978690Y-14305476D01*
X10931071Y-14305476D01*
X10912024Y-14295952D01*
X10902500Y-14286428D01*
X11092976Y-14105476D02*
X11092976Y-14143571D01*
X11169167Y-14105476D02*
X11169167Y-14143571D01*
X11464405Y-14381667D02*
X11454881Y-14372143D01*
X11435833Y-14343571D01*
X11426309Y-14324524D01*
X11416786Y-14295952D01*
X11407262Y-14248333D01*
X11407262Y-14210238D01*
X11416786Y-14162619D01*
X11426309Y-14134048D01*
X11435833Y-14115000D01*
X11454881Y-14086428D01*
X11464405Y-14076905D01*
X11626309Y-14105476D02*
X11588214Y-14105476D01*
X11569167Y-14115000D01*
X11559643Y-14124524D01*
X11540595Y-14153095D01*
X11531071Y-14191190D01*
X11531071Y-14267381D01*
X11540595Y-14286428D01*
X11550119Y-14295952D01*
X11569167Y-14305476D01*
X11607262Y-14305476D01*
X11626309Y-14295952D01*
X11635833Y-14286428D01*
X11645357Y-14267381D01*
X11645357Y-14219762D01*
X11635833Y-14200714D01*
X11626309Y-14191190D01*
X11607262Y-14181667D01*
X11569167Y-14181667D01*
X11550119Y-14191190D01*
X11540595Y-14200714D01*
X11531071Y-14219762D01*
X11740595Y-14305476D02*
X11778690Y-14305476D01*
X11797738Y-14295952D01*
X11807262Y-14286428D01*
X11826309Y-14257857D01*
X11835833Y-14219762D01*
X11835833Y-14143571D01*
X11826309Y-14124524D01*
X11816786Y-14115000D01*
X11797738Y-14105476D01*
X11759643Y-14105476D01*
X11740595Y-14115000D01*
X11731071Y-14124524D01*
X11721548Y-14143571D01*
X11721548Y-14191190D01*
X11731071Y-14210238D01*
X11740595Y-14219762D01*
X11759643Y-14229286D01*
X11797738Y-14229286D01*
X11816786Y-14219762D01*
X11826309Y-14210238D01*
X11835833Y-14191190D01*
X12073928Y-14305476D02*
X12073928Y-14105476D01*
X12159643Y-14305476D02*
X12159643Y-14200714D01*
X12150119Y-14181667D01*
X12131071Y-14172143D01*
X12102500Y-14172143D01*
X12083452Y-14181667D01*
X12073928Y-14191190D01*
X12283452Y-14305476D02*
X12264405Y-14295952D01*
X12254881Y-14286428D01*
X12245357Y-14267381D01*
X12245357Y-14210238D01*
X12254881Y-14191190D01*
X12264405Y-14181667D01*
X12283452Y-14172143D01*
X12312024Y-14172143D01*
X12331071Y-14181667D01*
X12340595Y-14191190D01*
X12350119Y-14210238D01*
X12350119Y-14267381D01*
X12340595Y-14286428D01*
X12331071Y-14295952D01*
X12312024Y-14305476D01*
X12283452Y-14305476D01*
X12464405Y-14305476D02*
X12445357Y-14295952D01*
X12435833Y-14276905D01*
X12435833Y-14105476D01*
X12616786Y-14295952D02*
X12597738Y-14305476D01*
X12559643Y-14305476D01*
X12540595Y-14295952D01*
X12531071Y-14276905D01*
X12531071Y-14200714D01*
X12540595Y-14181667D01*
X12559643Y-14172143D01*
X12597738Y-14172143D01*
X12616786Y-14181667D01*
X12626309Y-14200714D01*
X12626309Y-14219762D01*
X12531071Y-14238809D01*
X12702500Y-14295952D02*
X12721548Y-14305476D01*
X12759643Y-14305476D01*
X12778690Y-14295952D01*
X12788214Y-14276905D01*
X12788214Y-14267381D01*
X12778690Y-14248333D01*
X12759643Y-14238809D01*
X12731071Y-14238809D01*
X12712024Y-14229286D01*
X12702500Y-14210238D01*
X12702500Y-14200714D01*
X12712024Y-14181667D01*
X12731071Y-14172143D01*
X12759643Y-14172143D01*
X12778690Y-14181667D01*
X12854881Y-14381667D02*
X12864405Y-14372143D01*
X12883452Y-14343571D01*
X12892976Y-14324524D01*
X12902500Y-14295952D01*
X12912024Y-14248333D01*
X12912024Y-14210238D01*
X12902500Y-14162619D01*
X12892976Y-14134048D01*
X12883452Y-14115000D01*
X12864405Y-14086428D01*
X12854881Y-14076905D01*
D13*
X7892500Y-14479000D02*
G75*
G03*
X7892500Y-14479000I-44500J0D01*
G01*
D11*
X8188214Y-14369476D02*
X8207262Y-14369476D01*
X8226309Y-14379000D01*
X8235833Y-14388524D01*
X8245357Y-14407571D01*
X8254881Y-14445667D01*
X8254881Y-14493286D01*
X8245357Y-14531381D01*
X8235833Y-14550428D01*
X8226309Y-14559952D01*
X8207262Y-14569476D01*
X8188214Y-14569476D01*
X8169167Y-14559952D01*
X8159643Y-14550428D01*
X8150119Y-14531381D01*
X8140595Y-14493286D01*
X8140595Y-14445667D01*
X8150119Y-14407571D01*
X8159643Y-14388524D01*
X8169167Y-14379000D01*
X8188214Y-14369476D01*
X8340595Y-14550428D02*
X8350119Y-14559952D01*
X8340595Y-14569476D01*
X8331071Y-14559952D01*
X8340595Y-14550428D01*
X8340595Y-14569476D01*
X8464405Y-14455190D02*
X8445357Y-14445667D01*
X8435833Y-14436143D01*
X8426310Y-14417095D01*
X8426310Y-14407571D01*
X8435833Y-14388524D01*
X8445357Y-14379000D01*
X8464405Y-14369476D01*
X8502500Y-14369476D01*
X8521548Y-14379000D01*
X8531071Y-14388524D01*
X8540595Y-14407571D01*
X8540595Y-14417095D01*
X8531071Y-14436143D01*
X8521548Y-14445667D01*
X8502500Y-14455190D01*
X8464405Y-14455190D01*
X8445357Y-14464714D01*
X8435833Y-14474238D01*
X8426310Y-14493286D01*
X8426310Y-14531381D01*
X8435833Y-14550428D01*
X8445357Y-14559952D01*
X8464405Y-14569476D01*
X8502500Y-14569476D01*
X8521548Y-14559952D01*
X8531071Y-14550428D01*
X8540595Y-14531381D01*
X8540595Y-14493286D01*
X8531071Y-14474238D01*
X8521548Y-14464714D01*
X8502500Y-14455190D01*
X8635833Y-14569476D02*
X8673929Y-14569476D01*
X8692976Y-14559952D01*
X8702500Y-14550428D01*
X8721548Y-14521857D01*
X8731071Y-14483762D01*
X8731071Y-14407571D01*
X8721548Y-14388524D01*
X8712024Y-14379000D01*
X8692976Y-14369476D01*
X8654881Y-14369476D01*
X8635833Y-14379000D01*
X8626310Y-14388524D01*
X8616786Y-14407571D01*
X8616786Y-14455190D01*
X8626310Y-14474238D01*
X8635833Y-14483762D01*
X8654881Y-14493286D01*
X8692976Y-14493286D01*
X8712024Y-14483762D01*
X8721548Y-14474238D01*
X8731071Y-14455190D01*
X8854881Y-14369476D02*
X8873929Y-14369476D01*
X8892976Y-14379000D01*
X8902500Y-14388524D01*
X8912024Y-14407571D01*
X8921548Y-14445667D01*
X8921548Y-14493286D01*
X8912024Y-14531381D01*
X8902500Y-14550428D01*
X8892976Y-14559952D01*
X8873929Y-14569476D01*
X8854881Y-14569476D01*
X8835833Y-14559952D01*
X8826310Y-14550428D01*
X8816786Y-14531381D01*
X8807262Y-14493286D01*
X8807262Y-14445667D01*
X8816786Y-14407571D01*
X8826310Y-14388524D01*
X8835833Y-14379000D01*
X8854881Y-14369476D01*
X9007262Y-14569476D02*
X9007262Y-14436143D01*
X9007262Y-14455190D02*
X9016786Y-14445667D01*
X9035833Y-14436143D01*
X9064405Y-14436143D01*
X9083452Y-14445667D01*
X9092976Y-14464714D01*
X9092976Y-14569476D01*
X9092976Y-14464714D02*
X9102500Y-14445667D01*
X9121548Y-14436143D01*
X9150119Y-14436143D01*
X9169167Y-14445667D01*
X9178690Y-14464714D01*
X9178690Y-14569476D01*
X9273929Y-14569476D02*
X9273929Y-14436143D01*
X9273929Y-14455190D02*
X9283452Y-14445667D01*
X9302500Y-14436143D01*
X9331071Y-14436143D01*
X9350119Y-14445667D01*
X9359643Y-14464714D01*
X9359643Y-14569476D01*
X9359643Y-14464714D02*
X9369167Y-14445667D01*
X9388214Y-14436143D01*
X9416786Y-14436143D01*
X9435833Y-14445667D01*
X9445357Y-14464714D01*
X9445357Y-14569476D01*
X9835833Y-14359952D02*
X9664405Y-14617095D01*
X10092976Y-14369476D02*
X10112024Y-14369476D01*
X10131071Y-14379000D01*
X10140595Y-14388524D01*
X10150119Y-14407571D01*
X10159643Y-14445667D01*
X10159643Y-14493286D01*
X10150119Y-14531381D01*
X10140595Y-14550428D01*
X10131071Y-14559952D01*
X10112024Y-14569476D01*
X10092976Y-14569476D01*
X10073929Y-14559952D01*
X10064405Y-14550428D01*
X10054881Y-14531381D01*
X10045357Y-14493286D01*
X10045357Y-14445667D01*
X10054881Y-14407571D01*
X10064405Y-14388524D01*
X10073929Y-14379000D01*
X10092976Y-14369476D01*
X10245357Y-14550428D02*
X10254881Y-14559952D01*
X10245357Y-14569476D01*
X10235833Y-14559952D01*
X10245357Y-14550428D01*
X10245357Y-14569476D01*
X10378690Y-14369476D02*
X10397738Y-14369476D01*
X10416786Y-14379000D01*
X10426310Y-14388524D01*
X10435833Y-14407571D01*
X10445357Y-14445667D01*
X10445357Y-14493286D01*
X10435833Y-14531381D01*
X10426310Y-14550428D01*
X10416786Y-14559952D01*
X10397738Y-14569476D01*
X10378690Y-14569476D01*
X10359643Y-14559952D01*
X10350119Y-14550428D01*
X10340595Y-14531381D01*
X10331071Y-14493286D01*
X10331071Y-14445667D01*
X10340595Y-14407571D01*
X10350119Y-14388524D01*
X10359643Y-14379000D01*
X10378690Y-14369476D01*
X10512024Y-14369476D02*
X10635833Y-14369476D01*
X10569167Y-14445667D01*
X10597738Y-14445667D01*
X10616786Y-14455190D01*
X10626310Y-14464714D01*
X10635833Y-14483762D01*
X10635833Y-14531381D01*
X10626310Y-14550428D01*
X10616786Y-14559952D01*
X10597738Y-14569476D01*
X10540595Y-14569476D01*
X10521548Y-14559952D01*
X10512024Y-14550428D01*
X10816786Y-14369476D02*
X10721548Y-14369476D01*
X10712024Y-14464714D01*
X10721548Y-14455190D01*
X10740595Y-14445667D01*
X10788214Y-14445667D01*
X10807262Y-14455190D01*
X10816786Y-14464714D01*
X10826310Y-14483762D01*
X10826310Y-14531381D01*
X10816786Y-14550428D01*
X10807262Y-14559952D01*
X10788214Y-14569476D01*
X10740595Y-14569476D01*
X10721548Y-14559952D01*
X10712024Y-14550428D01*
X10950119Y-14369476D02*
X10969167Y-14369476D01*
X10988214Y-14379000D01*
X10997738Y-14388524D01*
X11007262Y-14407571D01*
X11016786Y-14445667D01*
X11016786Y-14493286D01*
X11007262Y-14531381D01*
X10997738Y-14550428D01*
X10988214Y-14559952D01*
X10969167Y-14569476D01*
X10950119Y-14569476D01*
X10931071Y-14559952D01*
X10921548Y-14550428D01*
X10912024Y-14531381D01*
X10902500Y-14493286D01*
X10902500Y-14445667D01*
X10912024Y-14407571D01*
X10921548Y-14388524D01*
X10931071Y-14379000D01*
X10950119Y-14369476D01*
X11092976Y-14369476D02*
X11092976Y-14407571D01*
X11169167Y-14369476D02*
X11169167Y-14407571D01*
X11464405Y-14645667D02*
X11454881Y-14636143D01*
X11435833Y-14607571D01*
X11426309Y-14588524D01*
X11416786Y-14559952D01*
X11407262Y-14512333D01*
X11407262Y-14474238D01*
X11416786Y-14426619D01*
X11426309Y-14398048D01*
X11435833Y-14379000D01*
X11454881Y-14350428D01*
X11464405Y-14340905D01*
X11645357Y-14569476D02*
X11531071Y-14569476D01*
X11588214Y-14569476D02*
X11588214Y-14369476D01*
X11569167Y-14398048D01*
X11550119Y-14417095D01*
X11531071Y-14426619D01*
X11721548Y-14388524D02*
X11731071Y-14379000D01*
X11750119Y-14369476D01*
X11797738Y-14369476D01*
X11816786Y-14379000D01*
X11826309Y-14388524D01*
X11835833Y-14407571D01*
X11835833Y-14426619D01*
X11826309Y-14455190D01*
X11712024Y-14569476D01*
X11835833Y-14569476D01*
X12073928Y-14569476D02*
X12073928Y-14369476D01*
X12159643Y-14569476D02*
X12159643Y-14464714D01*
X12150119Y-14445667D01*
X12131071Y-14436143D01*
X12102500Y-14436143D01*
X12083452Y-14445667D01*
X12073928Y-14455190D01*
X12283452Y-14569476D02*
X12264405Y-14559952D01*
X12254881Y-14550428D01*
X12245357Y-14531381D01*
X12245357Y-14474238D01*
X12254881Y-14455190D01*
X12264405Y-14445667D01*
X12283452Y-14436143D01*
X12312024Y-14436143D01*
X12331071Y-14445667D01*
X12340595Y-14455190D01*
X12350119Y-14474238D01*
X12350119Y-14531381D01*
X12340595Y-14550428D01*
X12331071Y-14559952D01*
X12312024Y-14569476D01*
X12283452Y-14569476D01*
X12464405Y-14569476D02*
X12445357Y-14559952D01*
X12435833Y-14540905D01*
X12435833Y-14369476D01*
X12616786Y-14559952D02*
X12597738Y-14569476D01*
X12559643Y-14569476D01*
X12540595Y-14559952D01*
X12531071Y-14540905D01*
X12531071Y-14464714D01*
X12540595Y-14445667D01*
X12559643Y-14436143D01*
X12597738Y-14436143D01*
X12616786Y-14445667D01*
X12626309Y-14464714D01*
X12626309Y-14483762D01*
X12531071Y-14502809D01*
X12702500Y-14559952D02*
X12721548Y-14569476D01*
X12759643Y-14569476D01*
X12778690Y-14559952D01*
X12788214Y-14540905D01*
X12788214Y-14531381D01*
X12778690Y-14512333D01*
X12759643Y-14502809D01*
X12731071Y-14502809D01*
X12712024Y-14493286D01*
X12702500Y-14474238D01*
X12702500Y-14464714D01*
X12712024Y-14445667D01*
X12731071Y-14436143D01*
X12759643Y-14436143D01*
X12778690Y-14445667D01*
X12854881Y-14645667D02*
X12864405Y-14636143D01*
X12883452Y-14607571D01*
X12892976Y-14588524D01*
X12902500Y-14559952D01*
X12912024Y-14512333D01*
X12912024Y-14474238D01*
X12902500Y-14426619D01*
X12892976Y-14398048D01*
X12883452Y-14379000D01*
X12864405Y-14350428D01*
X12854881Y-14340905D01*
D14*
X7842500Y-14693000D02*
X7842500Y-14793000D01*
X7792500Y-14743000D02*
X7892500Y-14743000D01*
D11*
X8254881Y-14833476D02*
X8140595Y-14833476D01*
X8197738Y-14833476D02*
X8197738Y-14633476D01*
X8178690Y-14662048D01*
X8159643Y-14681095D01*
X8140595Y-14690619D01*
X8340595Y-14814428D02*
X8350119Y-14823952D01*
X8340595Y-14833476D01*
X8331071Y-14823952D01*
X8340595Y-14814428D01*
X8340595Y-14833476D01*
X8473929Y-14633476D02*
X8492976Y-14633476D01*
X8512024Y-14643000D01*
X8521548Y-14652524D01*
X8531071Y-14671571D01*
X8540595Y-14709667D01*
X8540595Y-14757286D01*
X8531071Y-14795381D01*
X8521548Y-14814428D01*
X8512024Y-14823952D01*
X8492976Y-14833476D01*
X8473929Y-14833476D01*
X8454881Y-14823952D01*
X8445357Y-14814428D01*
X8435833Y-14795381D01*
X8426310Y-14757286D01*
X8426310Y-14709667D01*
X8435833Y-14671571D01*
X8445357Y-14652524D01*
X8454881Y-14643000D01*
X8473929Y-14633476D01*
X8664405Y-14633476D02*
X8683452Y-14633476D01*
X8702500Y-14643000D01*
X8712024Y-14652524D01*
X8721548Y-14671571D01*
X8731071Y-14709667D01*
X8731071Y-14757286D01*
X8721548Y-14795381D01*
X8712024Y-14814428D01*
X8702500Y-14823952D01*
X8683452Y-14833476D01*
X8664405Y-14833476D01*
X8645357Y-14823952D01*
X8635833Y-14814428D01*
X8626310Y-14795381D01*
X8616786Y-14757286D01*
X8616786Y-14709667D01*
X8626310Y-14671571D01*
X8635833Y-14652524D01*
X8645357Y-14643000D01*
X8664405Y-14633476D01*
X8854881Y-14633476D02*
X8873929Y-14633476D01*
X8892976Y-14643000D01*
X8902500Y-14652524D01*
X8912024Y-14671571D01*
X8921548Y-14709667D01*
X8921548Y-14757286D01*
X8912024Y-14795381D01*
X8902500Y-14814428D01*
X8892976Y-14823952D01*
X8873929Y-14833476D01*
X8854881Y-14833476D01*
X8835833Y-14823952D01*
X8826310Y-14814428D01*
X8816786Y-14795381D01*
X8807262Y-14757286D01*
X8807262Y-14709667D01*
X8816786Y-14671571D01*
X8826310Y-14652524D01*
X8835833Y-14643000D01*
X8854881Y-14633476D01*
X9007262Y-14833476D02*
X9007262Y-14700143D01*
X9007262Y-14719190D02*
X9016786Y-14709667D01*
X9035833Y-14700143D01*
X9064405Y-14700143D01*
X9083452Y-14709667D01*
X9092976Y-14728714D01*
X9092976Y-14833476D01*
X9092976Y-14728714D02*
X9102500Y-14709667D01*
X9121548Y-14700143D01*
X9150119Y-14700143D01*
X9169167Y-14709667D01*
X9178690Y-14728714D01*
X9178690Y-14833476D01*
X9273929Y-14833476D02*
X9273929Y-14700143D01*
X9273929Y-14719190D02*
X9283452Y-14709667D01*
X9302500Y-14700143D01*
X9331071Y-14700143D01*
X9350119Y-14709667D01*
X9359643Y-14728714D01*
X9359643Y-14833476D01*
X9359643Y-14728714D02*
X9369167Y-14709667D01*
X9388214Y-14700143D01*
X9416786Y-14700143D01*
X9435833Y-14709667D01*
X9445357Y-14728714D01*
X9445357Y-14833476D01*
X9835833Y-14623952D02*
X9664405Y-14881095D01*
X10092976Y-14633476D02*
X10112024Y-14633476D01*
X10131071Y-14643000D01*
X10140595Y-14652524D01*
X10150119Y-14671571D01*
X10159643Y-14709667D01*
X10159643Y-14757286D01*
X10150119Y-14795381D01*
X10140595Y-14814428D01*
X10131071Y-14823952D01*
X10112024Y-14833476D01*
X10092976Y-14833476D01*
X10073929Y-14823952D01*
X10064405Y-14814428D01*
X10054881Y-14795381D01*
X10045357Y-14757286D01*
X10045357Y-14709667D01*
X10054881Y-14671571D01*
X10064405Y-14652524D01*
X10073929Y-14643000D01*
X10092976Y-14633476D01*
X10245357Y-14814428D02*
X10254881Y-14823952D01*
X10245357Y-14833476D01*
X10235833Y-14823952D01*
X10245357Y-14814428D01*
X10245357Y-14833476D01*
X10378690Y-14633476D02*
X10397738Y-14633476D01*
X10416786Y-14643000D01*
X10426310Y-14652524D01*
X10435833Y-14671571D01*
X10445357Y-14709667D01*
X10445357Y-14757286D01*
X10435833Y-14795381D01*
X10426310Y-14814428D01*
X10416786Y-14823952D01*
X10397738Y-14833476D01*
X10378690Y-14833476D01*
X10359643Y-14823952D01*
X10350119Y-14814428D01*
X10340595Y-14795381D01*
X10331071Y-14757286D01*
X10331071Y-14709667D01*
X10340595Y-14671571D01*
X10350119Y-14652524D01*
X10359643Y-14643000D01*
X10378690Y-14633476D01*
X10512024Y-14633476D02*
X10635833Y-14633476D01*
X10569167Y-14709667D01*
X10597738Y-14709667D01*
X10616786Y-14719190D01*
X10626310Y-14728714D01*
X10635833Y-14747762D01*
X10635833Y-14795381D01*
X10626310Y-14814428D01*
X10616786Y-14823952D01*
X10597738Y-14833476D01*
X10540595Y-14833476D01*
X10521548Y-14823952D01*
X10512024Y-14814428D01*
X10731071Y-14833476D02*
X10769167Y-14833476D01*
X10788214Y-14823952D01*
X10797738Y-14814428D01*
X10816786Y-14785857D01*
X10826310Y-14747762D01*
X10826310Y-14671571D01*
X10816786Y-14652524D01*
X10807262Y-14643000D01*
X10788214Y-14633476D01*
X10750119Y-14633476D01*
X10731071Y-14643000D01*
X10721548Y-14652524D01*
X10712024Y-14671571D01*
X10712024Y-14719190D01*
X10721548Y-14738238D01*
X10731071Y-14747762D01*
X10750119Y-14757286D01*
X10788214Y-14757286D01*
X10807262Y-14747762D01*
X10816786Y-14738238D01*
X10826310Y-14719190D01*
X10997738Y-14700143D02*
X10997738Y-14833476D01*
X10950119Y-14623952D02*
X10902500Y-14766809D01*
X11026310Y-14766809D01*
X11092976Y-14633476D02*
X11092976Y-14671571D01*
X11169167Y-14633476D02*
X11169167Y-14671571D01*
X11464405Y-14909667D02*
X11454881Y-14900143D01*
X11435833Y-14871571D01*
X11426309Y-14852524D01*
X11416786Y-14823952D01*
X11407262Y-14776333D01*
X11407262Y-14738238D01*
X11416786Y-14690619D01*
X11426309Y-14662048D01*
X11435833Y-14643000D01*
X11454881Y-14614428D01*
X11464405Y-14604905D01*
X11521548Y-14633476D02*
X11645357Y-14633476D01*
X11578690Y-14709667D01*
X11607262Y-14709667D01*
X11626309Y-14719190D01*
X11635833Y-14728714D01*
X11645357Y-14747762D01*
X11645357Y-14795381D01*
X11635833Y-14814428D01*
X11626309Y-14823952D01*
X11607262Y-14833476D01*
X11550119Y-14833476D01*
X11531071Y-14823952D01*
X11521548Y-14814428D01*
X11816786Y-14700143D02*
X11816786Y-14833476D01*
X11769167Y-14623952D02*
X11721548Y-14766809D01*
X11845357Y-14766809D01*
X12073928Y-14833476D02*
X12073928Y-14633476D01*
X12159643Y-14833476D02*
X12159643Y-14728714D01*
X12150119Y-14709667D01*
X12131071Y-14700143D01*
X12102500Y-14700143D01*
X12083452Y-14709667D01*
X12073928Y-14719190D01*
X12283452Y-14833476D02*
X12264405Y-14823952D01*
X12254881Y-14814428D01*
X12245357Y-14795381D01*
X12245357Y-14738238D01*
X12254881Y-14719190D01*
X12264405Y-14709667D01*
X12283452Y-14700143D01*
X12312024Y-14700143D01*
X12331071Y-14709667D01*
X12340595Y-14719190D01*
X12350119Y-14738238D01*
X12350119Y-14795381D01*
X12340595Y-14814428D01*
X12331071Y-14823952D01*
X12312024Y-14833476D01*
X12283452Y-14833476D01*
X12464405Y-14833476D02*
X12445357Y-14823952D01*
X12435833Y-14804905D01*
X12435833Y-14633476D01*
X12616786Y-14823952D02*
X12597738Y-14833476D01*
X12559643Y-14833476D01*
X12540595Y-14823952D01*
X12531071Y-14804905D01*
X12531071Y-14728714D01*
X12540595Y-14709667D01*
X12559643Y-14700143D01*
X12597738Y-14700143D01*
X12616786Y-14709667D01*
X12626309Y-14728714D01*
X12626309Y-14747762D01*
X12531071Y-14766809D01*
X12702500Y-14823952D02*
X12721548Y-14833476D01*
X12759643Y-14833476D01*
X12778690Y-14823952D01*
X12788214Y-14804905D01*
X12788214Y-14795381D01*
X12778690Y-14776333D01*
X12759643Y-14766809D01*
X12731071Y-14766809D01*
X12712024Y-14757286D01*
X12702500Y-14738238D01*
X12702500Y-14728714D01*
X12712024Y-14709667D01*
X12731071Y-14700143D01*
X12759643Y-14700143D01*
X12778690Y-14709667D01*
X12854881Y-14909667D02*
X12864405Y-14900143D01*
X12883452Y-14871571D01*
X12892976Y-14852524D01*
X12902500Y-14823952D01*
X12912024Y-14776333D01*
X12912024Y-14738238D01*
X12902500Y-14690619D01*
X12892976Y-14662048D01*
X12883452Y-14643000D01*
X12864405Y-14614428D01*
X12854881Y-14604905D01*
D15*
X7876505Y-15045615D02*
X7876505Y-14968384D01*
X7799274Y-14968384D01*
X7799274Y-15045615D01*
X7876505Y-15045615D01*
D11*
X8254881Y-15097476D02*
X8140595Y-15097476D01*
X8197738Y-15097476D02*
X8197738Y-14897476D01*
X8178690Y-14926048D01*
X8159643Y-14945095D01*
X8140595Y-14954619D01*
X8340595Y-15078428D02*
X8350119Y-15087952D01*
X8340595Y-15097476D01*
X8331071Y-15087952D01*
X8340595Y-15078428D01*
X8340595Y-15097476D01*
X8473929Y-14897476D02*
X8492976Y-14897476D01*
X8512024Y-14907000D01*
X8521548Y-14916524D01*
X8531071Y-14935571D01*
X8540595Y-14973667D01*
X8540595Y-15021286D01*
X8531071Y-15059381D01*
X8521548Y-15078428D01*
X8512024Y-15087952D01*
X8492976Y-15097476D01*
X8473929Y-15097476D01*
X8454881Y-15087952D01*
X8445357Y-15078428D01*
X8435833Y-15059381D01*
X8426310Y-15021286D01*
X8426310Y-14973667D01*
X8435833Y-14935571D01*
X8445357Y-14916524D01*
X8454881Y-14907000D01*
X8473929Y-14897476D01*
X8635833Y-15097476D02*
X8673929Y-15097476D01*
X8692976Y-15087952D01*
X8702500Y-15078428D01*
X8721548Y-15049857D01*
X8731071Y-15011762D01*
X8731071Y-14935571D01*
X8721548Y-14916524D01*
X8712024Y-14907000D01*
X8692976Y-14897476D01*
X8654881Y-14897476D01*
X8635833Y-14907000D01*
X8626310Y-14916524D01*
X8616786Y-14935571D01*
X8616786Y-14983190D01*
X8626310Y-15002238D01*
X8635833Y-15011762D01*
X8654881Y-15021286D01*
X8692976Y-15021286D01*
X8712024Y-15011762D01*
X8721548Y-15002238D01*
X8731071Y-14983190D01*
X8807262Y-14916524D02*
X8816786Y-14907000D01*
X8835833Y-14897476D01*
X8883452Y-14897476D01*
X8902500Y-14907000D01*
X8912024Y-14916524D01*
X8921548Y-14935571D01*
X8921548Y-14954619D01*
X8912024Y-14983190D01*
X8797738Y-15097476D01*
X8921548Y-15097476D01*
X9007262Y-15097476D02*
X9007262Y-14964143D01*
X9007262Y-14983190D02*
X9016786Y-14973667D01*
X9035833Y-14964143D01*
X9064405Y-14964143D01*
X9083452Y-14973667D01*
X9092976Y-14992714D01*
X9092976Y-15097476D01*
X9092976Y-14992714D02*
X9102500Y-14973667D01*
X9121548Y-14964143D01*
X9150119Y-14964143D01*
X9169167Y-14973667D01*
X9178690Y-14992714D01*
X9178690Y-15097476D01*
X9273929Y-15097476D02*
X9273929Y-14964143D01*
X9273929Y-14983190D02*
X9283452Y-14973667D01*
X9302500Y-14964143D01*
X9331071Y-14964143D01*
X9350119Y-14973667D01*
X9359643Y-14992714D01*
X9359643Y-15097476D01*
X9359643Y-14992714D02*
X9369167Y-14973667D01*
X9388214Y-14964143D01*
X9416786Y-14964143D01*
X9435833Y-14973667D01*
X9445357Y-14992714D01*
X9445357Y-15097476D01*
X9835833Y-14887952D02*
X9664405Y-15145095D01*
X10092976Y-14897476D02*
X10112024Y-14897476D01*
X10131071Y-14907000D01*
X10140595Y-14916524D01*
X10150119Y-14935571D01*
X10159643Y-14973667D01*
X10159643Y-15021286D01*
X10150119Y-15059381D01*
X10140595Y-15078428D01*
X10131071Y-15087952D01*
X10112024Y-15097476D01*
X10092976Y-15097476D01*
X10073929Y-15087952D01*
X10064405Y-15078428D01*
X10054881Y-15059381D01*
X10045357Y-15021286D01*
X10045357Y-14973667D01*
X10054881Y-14935571D01*
X10064405Y-14916524D01*
X10073929Y-14907000D01*
X10092976Y-14897476D01*
X10245357Y-15078428D02*
X10254881Y-15087952D01*
X10245357Y-15097476D01*
X10235833Y-15087952D01*
X10245357Y-15078428D01*
X10245357Y-15097476D01*
X10378690Y-14897476D02*
X10397738Y-14897476D01*
X10416786Y-14907000D01*
X10426310Y-14916524D01*
X10435833Y-14935571D01*
X10445357Y-14973667D01*
X10445357Y-15021286D01*
X10435833Y-15059381D01*
X10426310Y-15078428D01*
X10416786Y-15087952D01*
X10397738Y-15097476D01*
X10378690Y-15097476D01*
X10359643Y-15087952D01*
X10350119Y-15078428D01*
X10340595Y-15059381D01*
X10331071Y-15021286D01*
X10331071Y-14973667D01*
X10340595Y-14935571D01*
X10350119Y-14916524D01*
X10359643Y-14907000D01*
X10378690Y-14897476D01*
X10616786Y-14964143D02*
X10616786Y-15097476D01*
X10569167Y-14887952D02*
X10521548Y-15030809D01*
X10645357Y-15030809D01*
X10702500Y-14897476D02*
X10826310Y-14897476D01*
X10759643Y-14973667D01*
X10788214Y-14973667D01*
X10807262Y-14983190D01*
X10816786Y-14992714D01*
X10826310Y-15011762D01*
X10826310Y-15059381D01*
X10816786Y-15078428D01*
X10807262Y-15087952D01*
X10788214Y-15097476D01*
X10731071Y-15097476D01*
X10712024Y-15087952D01*
X10702500Y-15078428D01*
X10950119Y-14897476D02*
X10969167Y-14897476D01*
X10988214Y-14907000D01*
X10997738Y-14916524D01*
X11007262Y-14935571D01*
X11016786Y-14973667D01*
X11016786Y-15021286D01*
X11007262Y-15059381D01*
X10997738Y-15078428D01*
X10988214Y-15087952D01*
X10969167Y-15097476D01*
X10950119Y-15097476D01*
X10931071Y-15087952D01*
X10921548Y-15078428D01*
X10912024Y-15059381D01*
X10902500Y-15021286D01*
X10902500Y-14973667D01*
X10912024Y-14935571D01*
X10921548Y-14916524D01*
X10931071Y-14907000D01*
X10950119Y-14897476D01*
X11092976Y-14897476D02*
X11092976Y-14935571D01*
X11169167Y-14897476D02*
X11169167Y-14935571D01*
X11464405Y-15173667D02*
X11454881Y-15164143D01*
X11435833Y-15135571D01*
X11426309Y-15116524D01*
X11416786Y-15087952D01*
X11407262Y-15040333D01*
X11407262Y-15002238D01*
X11416786Y-14954619D01*
X11426309Y-14926048D01*
X11435833Y-14907000D01*
X11454881Y-14878428D01*
X11464405Y-14868905D01*
X11626309Y-14964143D02*
X11626309Y-15097476D01*
X11578690Y-14887952D02*
X11531071Y-15030809D01*
X11654881Y-15030809D01*
X11883452Y-15097476D02*
X11883452Y-14897476D01*
X11969167Y-15097476D02*
X11969167Y-14992714D01*
X11959643Y-14973667D01*
X11940595Y-14964143D01*
X11912024Y-14964143D01*
X11892976Y-14973667D01*
X11883452Y-14983190D01*
X12092976Y-15097476D02*
X12073928Y-15087952D01*
X12064405Y-15078428D01*
X12054881Y-15059381D01*
X12054881Y-15002238D01*
X12064405Y-14983190D01*
X12073928Y-14973667D01*
X12092976Y-14964143D01*
X12121548Y-14964143D01*
X12140595Y-14973667D01*
X12150119Y-14983190D01*
X12159643Y-15002238D01*
X12159643Y-15059381D01*
X12150119Y-15078428D01*
X12140595Y-15087952D01*
X12121548Y-15097476D01*
X12092976Y-15097476D01*
X12273928Y-15097476D02*
X12254881Y-15087952D01*
X12245357Y-15068905D01*
X12245357Y-14897476D01*
X12426309Y-15087952D02*
X12407262Y-15097476D01*
X12369167Y-15097476D01*
X12350119Y-15087952D01*
X12340595Y-15068905D01*
X12340595Y-14992714D01*
X12350119Y-14973667D01*
X12369167Y-14964143D01*
X12407262Y-14964143D01*
X12426309Y-14973667D01*
X12435833Y-14992714D01*
X12435833Y-15011762D01*
X12340595Y-15030809D01*
X12512024Y-15087952D02*
X12531071Y-15097476D01*
X12569167Y-15097476D01*
X12588214Y-15087952D01*
X12597738Y-15068905D01*
X12597738Y-15059381D01*
X12588214Y-15040333D01*
X12569167Y-15030809D01*
X12540595Y-15030809D01*
X12521548Y-15021286D01*
X12512024Y-15002238D01*
X12512024Y-14992714D01*
X12521548Y-14973667D01*
X12540595Y-14964143D01*
X12569167Y-14964143D01*
X12588214Y-14973667D01*
X12664405Y-15173667D02*
X12673928Y-15164143D01*
X12692976Y-15135571D01*
X12702500Y-15116524D01*
X12712024Y-15087952D01*
X12721548Y-15040333D01*
X12721548Y-15002238D01*
X12712024Y-14954619D01*
X12702500Y-14926048D01*
X12692976Y-14907000D01*
X12673928Y-14878428D01*
X12664405Y-14868905D01*
D16*
X7833000Y-15330500D02*
X7892500Y-15271000D01*
X7833000Y-15211500D01*
X7773500Y-15271000D01*
X7833000Y-15330500D01*
D11*
X8254881Y-15361476D02*
X8140595Y-15361476D01*
X8197738Y-15361476D02*
X8197738Y-15161476D01*
X8178690Y-15190048D01*
X8159643Y-15209095D01*
X8140595Y-15218619D01*
X8340595Y-15342428D02*
X8350119Y-15351952D01*
X8340595Y-15361476D01*
X8331071Y-15351952D01*
X8340595Y-15342428D01*
X8340595Y-15361476D01*
X8540595Y-15361476D02*
X8426310Y-15361476D01*
X8483452Y-15361476D02*
X8483452Y-15161476D01*
X8464405Y-15190048D01*
X8445357Y-15209095D01*
X8426310Y-15218619D01*
X8635833Y-15361476D02*
X8673929Y-15361476D01*
X8692976Y-15351952D01*
X8702500Y-15342428D01*
X8721548Y-15313857D01*
X8731071Y-15275762D01*
X8731071Y-15199571D01*
X8721548Y-15180524D01*
X8712024Y-15171000D01*
X8692976Y-15161476D01*
X8654881Y-15161476D01*
X8635833Y-15171000D01*
X8626310Y-15180524D01*
X8616786Y-15199571D01*
X8616786Y-15247190D01*
X8626310Y-15266238D01*
X8635833Y-15275762D01*
X8654881Y-15285286D01*
X8692976Y-15285286D01*
X8712024Y-15275762D01*
X8721548Y-15266238D01*
X8731071Y-15247190D01*
X8854881Y-15161476D02*
X8873929Y-15161476D01*
X8892976Y-15171000D01*
X8902500Y-15180524D01*
X8912024Y-15199571D01*
X8921548Y-15237667D01*
X8921548Y-15285286D01*
X8912024Y-15323381D01*
X8902500Y-15342428D01*
X8892976Y-15351952D01*
X8873929Y-15361476D01*
X8854881Y-15361476D01*
X8835833Y-15351952D01*
X8826310Y-15342428D01*
X8816786Y-15323381D01*
X8807262Y-15285286D01*
X8807262Y-15237667D01*
X8816786Y-15199571D01*
X8826310Y-15180524D01*
X8835833Y-15171000D01*
X8854881Y-15161476D01*
X9007262Y-15361476D02*
X9007262Y-15228143D01*
X9007262Y-15247190D02*
X9016786Y-15237667D01*
X9035833Y-15228143D01*
X9064405Y-15228143D01*
X9083452Y-15237667D01*
X9092976Y-15256714D01*
X9092976Y-15361476D01*
X9092976Y-15256714D02*
X9102500Y-15237667D01*
X9121548Y-15228143D01*
X9150119Y-15228143D01*
X9169167Y-15237667D01*
X9178690Y-15256714D01*
X9178690Y-15361476D01*
X9273929Y-15361476D02*
X9273929Y-15228143D01*
X9273929Y-15247190D02*
X9283452Y-15237667D01*
X9302500Y-15228143D01*
X9331071Y-15228143D01*
X9350119Y-15237667D01*
X9359643Y-15256714D01*
X9359643Y-15361476D01*
X9359643Y-15256714D02*
X9369167Y-15237667D01*
X9388214Y-15228143D01*
X9416786Y-15228143D01*
X9435833Y-15237667D01*
X9445357Y-15256714D01*
X9445357Y-15361476D01*
X9835833Y-15151952D02*
X9664405Y-15409095D01*
X10092976Y-15161476D02*
X10112024Y-15161476D01*
X10131071Y-15171000D01*
X10140595Y-15180524D01*
X10150119Y-15199571D01*
X10159643Y-15237667D01*
X10159643Y-15285286D01*
X10150119Y-15323381D01*
X10140595Y-15342428D01*
X10131071Y-15351952D01*
X10112024Y-15361476D01*
X10092976Y-15361476D01*
X10073929Y-15351952D01*
X10064405Y-15342428D01*
X10054881Y-15323381D01*
X10045357Y-15285286D01*
X10045357Y-15237667D01*
X10054881Y-15199571D01*
X10064405Y-15180524D01*
X10073929Y-15171000D01*
X10092976Y-15161476D01*
X10245357Y-15342428D02*
X10254881Y-15351952D01*
X10245357Y-15361476D01*
X10235833Y-15351952D01*
X10245357Y-15342428D01*
X10245357Y-15361476D01*
X10378690Y-15161476D02*
X10397738Y-15161476D01*
X10416786Y-15171000D01*
X10426310Y-15180524D01*
X10435833Y-15199571D01*
X10445357Y-15237667D01*
X10445357Y-15285286D01*
X10435833Y-15323381D01*
X10426310Y-15342428D01*
X10416786Y-15351952D01*
X10397738Y-15361476D01*
X10378690Y-15361476D01*
X10359643Y-15351952D01*
X10350119Y-15342428D01*
X10340595Y-15323381D01*
X10331071Y-15285286D01*
X10331071Y-15237667D01*
X10340595Y-15199571D01*
X10350119Y-15180524D01*
X10359643Y-15171000D01*
X10378690Y-15161476D01*
X10616786Y-15228143D02*
X10616786Y-15361476D01*
X10569167Y-15151952D02*
X10521548Y-15294809D01*
X10645357Y-15294809D01*
X10807262Y-15161476D02*
X10769167Y-15161476D01*
X10750119Y-15171000D01*
X10740595Y-15180524D01*
X10721548Y-15209095D01*
X10712024Y-15247190D01*
X10712024Y-15323381D01*
X10721548Y-15342428D01*
X10731071Y-15351952D01*
X10750119Y-15361476D01*
X10788214Y-15361476D01*
X10807262Y-15351952D01*
X10816786Y-15342428D01*
X10826310Y-15323381D01*
X10826310Y-15275762D01*
X10816786Y-15256714D01*
X10807262Y-15247190D01*
X10788214Y-15237667D01*
X10750119Y-15237667D01*
X10731071Y-15247190D01*
X10721548Y-15256714D01*
X10712024Y-15275762D01*
X10921548Y-15361476D02*
X10959643Y-15361476D01*
X10978690Y-15351952D01*
X10988214Y-15342428D01*
X11007262Y-15313857D01*
X11016786Y-15275762D01*
X11016786Y-15199571D01*
X11007262Y-15180524D01*
X10997738Y-15171000D01*
X10978690Y-15161476D01*
X10940595Y-15161476D01*
X10921548Y-15171000D01*
X10912024Y-15180524D01*
X10902500Y-15199571D01*
X10902500Y-15247190D01*
X10912024Y-15266238D01*
X10921548Y-15275762D01*
X10940595Y-15285286D01*
X10978690Y-15285286D01*
X10997738Y-15275762D01*
X11007262Y-15266238D01*
X11016786Y-15247190D01*
X11092976Y-15161476D02*
X11092976Y-15199571D01*
X11169167Y-15161476D02*
X11169167Y-15199571D01*
X11464405Y-15437667D02*
X11454881Y-15428143D01*
X11435833Y-15399571D01*
X11426309Y-15380524D01*
X11416786Y-15351952D01*
X11407262Y-15304333D01*
X11407262Y-15266238D01*
X11416786Y-15218619D01*
X11426309Y-15190048D01*
X11435833Y-15171000D01*
X11454881Y-15142428D01*
X11464405Y-15132905D01*
X11521548Y-15161476D02*
X11645357Y-15161476D01*
X11578690Y-15237667D01*
X11607262Y-15237667D01*
X11626309Y-15247190D01*
X11635833Y-15256714D01*
X11645357Y-15275762D01*
X11645357Y-15323381D01*
X11635833Y-15342428D01*
X11626309Y-15351952D01*
X11607262Y-15361476D01*
X11550119Y-15361476D01*
X11531071Y-15351952D01*
X11521548Y-15342428D01*
X11835833Y-15361476D02*
X11721548Y-15361476D01*
X11778690Y-15361476D02*
X11778690Y-15161476D01*
X11759643Y-15190048D01*
X11740595Y-15209095D01*
X11721548Y-15218619D01*
X12073928Y-15361476D02*
X12073928Y-15161476D01*
X12159643Y-15361476D02*
X12159643Y-15256714D01*
X12150119Y-15237667D01*
X12131071Y-15228143D01*
X12102500Y-15228143D01*
X12083452Y-15237667D01*
X12073928Y-15247190D01*
X12283452Y-15361476D02*
X12264405Y-15351952D01*
X12254881Y-15342428D01*
X12245357Y-15323381D01*
X12245357Y-15266238D01*
X12254881Y-15247190D01*
X12264405Y-15237667D01*
X12283452Y-15228143D01*
X12312024Y-15228143D01*
X12331071Y-15237667D01*
X12340595Y-15247190D01*
X12350119Y-15266238D01*
X12350119Y-15323381D01*
X12340595Y-15342428D01*
X12331071Y-15351952D01*
X12312024Y-15361476D01*
X12283452Y-15361476D01*
X12464405Y-15361476D02*
X12445357Y-15351952D01*
X12435833Y-15332905D01*
X12435833Y-15161476D01*
X12616786Y-15351952D02*
X12597738Y-15361476D01*
X12559643Y-15361476D01*
X12540595Y-15351952D01*
X12531071Y-15332905D01*
X12531071Y-15256714D01*
X12540595Y-15237667D01*
X12559643Y-15228143D01*
X12597738Y-15228143D01*
X12616786Y-15237667D01*
X12626309Y-15256714D01*
X12626309Y-15275762D01*
X12531071Y-15294809D01*
X12702500Y-15351952D02*
X12721548Y-15361476D01*
X12759643Y-15361476D01*
X12778690Y-15351952D01*
X12788214Y-15332905D01*
X12788214Y-15323381D01*
X12778690Y-15304333D01*
X12759643Y-15294809D01*
X12731071Y-15294809D01*
X12712024Y-15285286D01*
X12702500Y-15266238D01*
X12702500Y-15256714D01*
X12712024Y-15237667D01*
X12731071Y-15228143D01*
X12759643Y-15228143D01*
X12778690Y-15237667D01*
X12854881Y-15437667D02*
X12864405Y-15428143D01*
X12883452Y-15399571D01*
X12892976Y-15380524D01*
X12902500Y-15351952D01*
X12912024Y-15304333D01*
X12912024Y-15266238D01*
X12902500Y-15218619D01*
X12892976Y-15190048D01*
X12883452Y-15171000D01*
X12864405Y-15142428D01*
X12854881Y-15132905D01*
D17*
X7742500Y-15460000D02*
X7892500Y-15610000D01*
X7892500Y-15460000D02*
X7742500Y-15610000D01*
X7892500Y-15535000D02*
G75*
G03*
X7892500Y-15535000I-75000J0D01*
G01*
D11*
X8254881Y-15625476D02*
X8140595Y-15625476D01*
X8197738Y-15625476D02*
X8197738Y-15425476D01*
X8178690Y-15454048D01*
X8159643Y-15473095D01*
X8140595Y-15482619D01*
X8340595Y-15606428D02*
X8350119Y-15615952D01*
X8340595Y-15625476D01*
X8331071Y-15615952D01*
X8340595Y-15606428D01*
X8340595Y-15625476D01*
X8531071Y-15425476D02*
X8435833Y-15425476D01*
X8426310Y-15520714D01*
X8435833Y-15511190D01*
X8454881Y-15501667D01*
X8502500Y-15501667D01*
X8521548Y-15511190D01*
X8531071Y-15520714D01*
X8540595Y-15539762D01*
X8540595Y-15587381D01*
X8531071Y-15606428D01*
X8521548Y-15615952D01*
X8502500Y-15625476D01*
X8454881Y-15625476D01*
X8435833Y-15615952D01*
X8426310Y-15606428D01*
X8664405Y-15425476D02*
X8683452Y-15425476D01*
X8702500Y-15435000D01*
X8712024Y-15444524D01*
X8721548Y-15463571D01*
X8731071Y-15501667D01*
X8731071Y-15549286D01*
X8721548Y-15587381D01*
X8712024Y-15606428D01*
X8702500Y-15615952D01*
X8683452Y-15625476D01*
X8664405Y-15625476D01*
X8645357Y-15615952D01*
X8635833Y-15606428D01*
X8626310Y-15587381D01*
X8616786Y-15549286D01*
X8616786Y-15501667D01*
X8626310Y-15463571D01*
X8635833Y-15444524D01*
X8645357Y-15435000D01*
X8664405Y-15425476D01*
X8854881Y-15425476D02*
X8873929Y-15425476D01*
X8892976Y-15435000D01*
X8902500Y-15444524D01*
X8912024Y-15463571D01*
X8921548Y-15501667D01*
X8921548Y-15549286D01*
X8912024Y-15587381D01*
X8902500Y-15606428D01*
X8892976Y-15615952D01*
X8873929Y-15625476D01*
X8854881Y-15625476D01*
X8835833Y-15615952D01*
X8826310Y-15606428D01*
X8816786Y-15587381D01*
X8807262Y-15549286D01*
X8807262Y-15501667D01*
X8816786Y-15463571D01*
X8826310Y-15444524D01*
X8835833Y-15435000D01*
X8854881Y-15425476D01*
X9007262Y-15625476D02*
X9007262Y-15492143D01*
X9007262Y-15511190D02*
X9016786Y-15501667D01*
X9035833Y-15492143D01*
X9064405Y-15492143D01*
X9083452Y-15501667D01*
X9092976Y-15520714D01*
X9092976Y-15625476D01*
X9092976Y-15520714D02*
X9102500Y-15501667D01*
X9121548Y-15492143D01*
X9150119Y-15492143D01*
X9169167Y-15501667D01*
X9178690Y-15520714D01*
X9178690Y-15625476D01*
X9273929Y-15625476D02*
X9273929Y-15492143D01*
X9273929Y-15511190D02*
X9283452Y-15501667D01*
X9302500Y-15492143D01*
X9331071Y-15492143D01*
X9350119Y-15501667D01*
X9359643Y-15520714D01*
X9359643Y-15625476D01*
X9359643Y-15520714D02*
X9369167Y-15501667D01*
X9388214Y-15492143D01*
X9416786Y-15492143D01*
X9435833Y-15501667D01*
X9445357Y-15520714D01*
X9445357Y-15625476D01*
X9835833Y-15415952D02*
X9664405Y-15673095D01*
X10092976Y-15425476D02*
X10112024Y-15425476D01*
X10131071Y-15435000D01*
X10140595Y-15444524D01*
X10150119Y-15463571D01*
X10159643Y-15501667D01*
X10159643Y-15549286D01*
X10150119Y-15587381D01*
X10140595Y-15606428D01*
X10131071Y-15615952D01*
X10112024Y-15625476D01*
X10092976Y-15625476D01*
X10073929Y-15615952D01*
X10064405Y-15606428D01*
X10054881Y-15587381D01*
X10045357Y-15549286D01*
X10045357Y-15501667D01*
X10054881Y-15463571D01*
X10064405Y-15444524D01*
X10073929Y-15435000D01*
X10092976Y-15425476D01*
X10245357Y-15606428D02*
X10254881Y-15615952D01*
X10245357Y-15625476D01*
X10235833Y-15615952D01*
X10245357Y-15606428D01*
X10245357Y-15625476D01*
X10378690Y-15425476D02*
X10397738Y-15425476D01*
X10416786Y-15435000D01*
X10426310Y-15444524D01*
X10435833Y-15463571D01*
X10445357Y-15501667D01*
X10445357Y-15549286D01*
X10435833Y-15587381D01*
X10426310Y-15606428D01*
X10416786Y-15615952D01*
X10397738Y-15625476D01*
X10378690Y-15625476D01*
X10359643Y-15615952D01*
X10350119Y-15606428D01*
X10340595Y-15587381D01*
X10331071Y-15549286D01*
X10331071Y-15501667D01*
X10340595Y-15463571D01*
X10350119Y-15444524D01*
X10359643Y-15435000D01*
X10378690Y-15425476D01*
X10626310Y-15425476D02*
X10531071Y-15425476D01*
X10521548Y-15520714D01*
X10531071Y-15511190D01*
X10550119Y-15501667D01*
X10597738Y-15501667D01*
X10616786Y-15511190D01*
X10626310Y-15520714D01*
X10635833Y-15539762D01*
X10635833Y-15587381D01*
X10626310Y-15606428D01*
X10616786Y-15615952D01*
X10597738Y-15625476D01*
X10550119Y-15625476D01*
X10531071Y-15615952D01*
X10521548Y-15606428D01*
X10731071Y-15625476D02*
X10769167Y-15625476D01*
X10788214Y-15615952D01*
X10797738Y-15606428D01*
X10816786Y-15577857D01*
X10826310Y-15539762D01*
X10826310Y-15463571D01*
X10816786Y-15444524D01*
X10807262Y-15435000D01*
X10788214Y-15425476D01*
X10750119Y-15425476D01*
X10731071Y-15435000D01*
X10721548Y-15444524D01*
X10712024Y-15463571D01*
X10712024Y-15511190D01*
X10721548Y-15530238D01*
X10731071Y-15539762D01*
X10750119Y-15549286D01*
X10788214Y-15549286D01*
X10807262Y-15539762D01*
X10816786Y-15530238D01*
X10826310Y-15511190D01*
X11016786Y-15625476D02*
X10902500Y-15625476D01*
X10959643Y-15625476D02*
X10959643Y-15425476D01*
X10940595Y-15454048D01*
X10921548Y-15473095D01*
X10902500Y-15482619D01*
X11092976Y-15425476D02*
X11092976Y-15463571D01*
X11169167Y-15425476D02*
X11169167Y-15463571D01*
X11464405Y-15701667D02*
X11454881Y-15692143D01*
X11435833Y-15663571D01*
X11426309Y-15644524D01*
X11416786Y-15615952D01*
X11407262Y-15568333D01*
X11407262Y-15530238D01*
X11416786Y-15482619D01*
X11426309Y-15454048D01*
X11435833Y-15435000D01*
X11454881Y-15406428D01*
X11464405Y-15396905D01*
X11626309Y-15492143D02*
X11626309Y-15625476D01*
X11578690Y-15415952D02*
X11531071Y-15558809D01*
X11654881Y-15558809D01*
X11883452Y-15625476D02*
X11883452Y-15425476D01*
X11969167Y-15625476D02*
X11969167Y-15520714D01*
X11959643Y-15501667D01*
X11940595Y-15492143D01*
X11912024Y-15492143D01*
X11892976Y-15501667D01*
X11883452Y-15511190D01*
X12092976Y-15625476D02*
X12073928Y-15615952D01*
X12064405Y-15606428D01*
X12054881Y-15587381D01*
X12054881Y-15530238D01*
X12064405Y-15511190D01*
X12073928Y-15501667D01*
X12092976Y-15492143D01*
X12121548Y-15492143D01*
X12140595Y-15501667D01*
X12150119Y-15511190D01*
X12159643Y-15530238D01*
X12159643Y-15587381D01*
X12150119Y-15606428D01*
X12140595Y-15615952D01*
X12121548Y-15625476D01*
X12092976Y-15625476D01*
X12273928Y-15625476D02*
X12254881Y-15615952D01*
X12245357Y-15596905D01*
X12245357Y-15425476D01*
X12426309Y-15615952D02*
X12407262Y-15625476D01*
X12369167Y-15625476D01*
X12350119Y-15615952D01*
X12340595Y-15596905D01*
X12340595Y-15520714D01*
X12350119Y-15501667D01*
X12369167Y-15492143D01*
X12407262Y-15492143D01*
X12426309Y-15501667D01*
X12435833Y-15520714D01*
X12435833Y-15539762D01*
X12340595Y-15558809D01*
X12512024Y-15615952D02*
X12531071Y-15625476D01*
X12569167Y-15625476D01*
X12588214Y-15615952D01*
X12597738Y-15596905D01*
X12597738Y-15587381D01*
X12588214Y-15568333D01*
X12569167Y-15558809D01*
X12540595Y-15558809D01*
X12521548Y-15549286D01*
X12512024Y-15530238D01*
X12512024Y-15520714D01*
X12521548Y-15501667D01*
X12540595Y-15492143D01*
X12569167Y-15492143D01*
X12588214Y-15501667D01*
X12664405Y-15701667D02*
X12673928Y-15692143D01*
X12692976Y-15663571D01*
X12702500Y-15644524D01*
X12712024Y-15615952D01*
X12721548Y-15568333D01*
X12721548Y-15530238D01*
X12712024Y-15482619D01*
X12702500Y-15454048D01*
X12692976Y-15435000D01*
X12673928Y-15406428D01*
X12664405Y-15396905D01*
D18*
X7735500Y-15726500D02*
X7892500Y-15883500D01*
X7892500Y-15726500D02*
X7735500Y-15883500D01*
X7814000Y-15726500D02*
X7814000Y-15883500D01*
X7735500Y-15805000D02*
X7892500Y-15805000D01*
D11*
X8254881Y-15895476D02*
X8140595Y-15895476D01*
X8197738Y-15895476D02*
X8197738Y-15695476D01*
X8178690Y-15724048D01*
X8159643Y-15743095D01*
X8140595Y-15752619D01*
X8340595Y-15876428D02*
X8350119Y-15885952D01*
X8340595Y-15895476D01*
X8331071Y-15885952D01*
X8340595Y-15876428D01*
X8340595Y-15895476D01*
X8531071Y-15695476D02*
X8435833Y-15695476D01*
X8426310Y-15790714D01*
X8435833Y-15781190D01*
X8454881Y-15771667D01*
X8502500Y-15771667D01*
X8521548Y-15781190D01*
X8531071Y-15790714D01*
X8540595Y-15809762D01*
X8540595Y-15857381D01*
X8531071Y-15876428D01*
X8521548Y-15885952D01*
X8502500Y-15895476D01*
X8454881Y-15895476D01*
X8435833Y-15885952D01*
X8426310Y-15876428D01*
X8607262Y-15695476D02*
X8740595Y-15695476D01*
X8654881Y-15895476D01*
X8854881Y-15695476D02*
X8873929Y-15695476D01*
X8892976Y-15705000D01*
X8902500Y-15714524D01*
X8912024Y-15733571D01*
X8921548Y-15771667D01*
X8921548Y-15819286D01*
X8912024Y-15857381D01*
X8902500Y-15876428D01*
X8892976Y-15885952D01*
X8873929Y-15895476D01*
X8854881Y-15895476D01*
X8835833Y-15885952D01*
X8826310Y-15876428D01*
X8816786Y-15857381D01*
X8807262Y-15819286D01*
X8807262Y-15771667D01*
X8816786Y-15733571D01*
X8826310Y-15714524D01*
X8835833Y-15705000D01*
X8854881Y-15695476D01*
X9007262Y-15895476D02*
X9007262Y-15762143D01*
X9007262Y-15781190D02*
X9016786Y-15771667D01*
X9035833Y-15762143D01*
X9064405Y-15762143D01*
X9083452Y-15771667D01*
X9092976Y-15790714D01*
X9092976Y-15895476D01*
X9092976Y-15790714D02*
X9102500Y-15771667D01*
X9121548Y-15762143D01*
X9150119Y-15762143D01*
X9169167Y-15771667D01*
X9178690Y-15790714D01*
X9178690Y-15895476D01*
X9273929Y-15895476D02*
X9273929Y-15762143D01*
X9273929Y-15781190D02*
X9283452Y-15771667D01*
X9302500Y-15762143D01*
X9331071Y-15762143D01*
X9350119Y-15771667D01*
X9359643Y-15790714D01*
X9359643Y-15895476D01*
X9359643Y-15790714D02*
X9369167Y-15771667D01*
X9388214Y-15762143D01*
X9416786Y-15762143D01*
X9435833Y-15771667D01*
X9445357Y-15790714D01*
X9445357Y-15895476D01*
X9835833Y-15685952D02*
X9664405Y-15943095D01*
X10092976Y-15695476D02*
X10112024Y-15695476D01*
X10131071Y-15705000D01*
X10140595Y-15714524D01*
X10150119Y-15733571D01*
X10159643Y-15771667D01*
X10159643Y-15819286D01*
X10150119Y-15857381D01*
X10140595Y-15876428D01*
X10131071Y-15885952D01*
X10112024Y-15895476D01*
X10092976Y-15895476D01*
X10073929Y-15885952D01*
X10064405Y-15876428D01*
X10054881Y-15857381D01*
X10045357Y-15819286D01*
X10045357Y-15771667D01*
X10054881Y-15733571D01*
X10064405Y-15714524D01*
X10073929Y-15705000D01*
X10092976Y-15695476D01*
X10245357Y-15876428D02*
X10254881Y-15885952D01*
X10245357Y-15895476D01*
X10235833Y-15885952D01*
X10245357Y-15876428D01*
X10245357Y-15895476D01*
X10378690Y-15695476D02*
X10397738Y-15695476D01*
X10416786Y-15705000D01*
X10426310Y-15714524D01*
X10435833Y-15733571D01*
X10445357Y-15771667D01*
X10445357Y-15819286D01*
X10435833Y-15857381D01*
X10426310Y-15876428D01*
X10416786Y-15885952D01*
X10397738Y-15895476D01*
X10378690Y-15895476D01*
X10359643Y-15885952D01*
X10350119Y-15876428D01*
X10340595Y-15857381D01*
X10331071Y-15819286D01*
X10331071Y-15771667D01*
X10340595Y-15733571D01*
X10350119Y-15714524D01*
X10359643Y-15705000D01*
X10378690Y-15695476D01*
X10616786Y-15695476D02*
X10578690Y-15695476D01*
X10559643Y-15705000D01*
X10550119Y-15714524D01*
X10531071Y-15743095D01*
X10521548Y-15781190D01*
X10521548Y-15857381D01*
X10531071Y-15876428D01*
X10540595Y-15885952D01*
X10559643Y-15895476D01*
X10597738Y-15895476D01*
X10616786Y-15885952D01*
X10626310Y-15876428D01*
X10635833Y-15857381D01*
X10635833Y-15809762D01*
X10626310Y-15790714D01*
X10616786Y-15781190D01*
X10597738Y-15771667D01*
X10559643Y-15771667D01*
X10540595Y-15781190D01*
X10531071Y-15790714D01*
X10521548Y-15809762D01*
X10826310Y-15895476D02*
X10712024Y-15895476D01*
X10769167Y-15895476D02*
X10769167Y-15695476D01*
X10750119Y-15724048D01*
X10731071Y-15743095D01*
X10712024Y-15752619D01*
X10940595Y-15781190D02*
X10921548Y-15771667D01*
X10912024Y-15762143D01*
X10902500Y-15743095D01*
X10902500Y-15733571D01*
X10912024Y-15714524D01*
X10921548Y-15705000D01*
X10940595Y-15695476D01*
X10978690Y-15695476D01*
X10997738Y-15705000D01*
X11007262Y-15714524D01*
X11016786Y-15733571D01*
X11016786Y-15743095D01*
X11007262Y-15762143D01*
X10997738Y-15771667D01*
X10978690Y-15781190D01*
X10940595Y-15781190D01*
X10921548Y-15790714D01*
X10912024Y-15800238D01*
X10902500Y-15819286D01*
X10902500Y-15857381D01*
X10912024Y-15876428D01*
X10921548Y-15885952D01*
X10940595Y-15895476D01*
X10978690Y-15895476D01*
X10997738Y-15885952D01*
X11007262Y-15876428D01*
X11016786Y-15857381D01*
X11016786Y-15819286D01*
X11007262Y-15800238D01*
X10997738Y-15790714D01*
X10978690Y-15781190D01*
X11092976Y-15695476D02*
X11092976Y-15733571D01*
X11169167Y-15695476D02*
X11169167Y-15733571D01*
X11464405Y-15971667D02*
X11454881Y-15962143D01*
X11435833Y-15933571D01*
X11426309Y-15914524D01*
X11416786Y-15885952D01*
X11407262Y-15838333D01*
X11407262Y-15800238D01*
X11416786Y-15752619D01*
X11426309Y-15724048D01*
X11435833Y-15705000D01*
X11454881Y-15676428D01*
X11464405Y-15666905D01*
X11531071Y-15714524D02*
X11540595Y-15705000D01*
X11559643Y-15695476D01*
X11607262Y-15695476D01*
X11626309Y-15705000D01*
X11635833Y-15714524D01*
X11645357Y-15733571D01*
X11645357Y-15752619D01*
X11635833Y-15781190D01*
X11521548Y-15895476D01*
X11645357Y-15895476D01*
X11883452Y-15895476D02*
X11883452Y-15695476D01*
X11969167Y-15895476D02*
X11969167Y-15790714D01*
X11959643Y-15771667D01*
X11940595Y-15762143D01*
X11912024Y-15762143D01*
X11892976Y-15771667D01*
X11883452Y-15781190D01*
X12092976Y-15895476D02*
X12073928Y-15885952D01*
X12064405Y-15876428D01*
X12054881Y-15857381D01*
X12054881Y-15800238D01*
X12064405Y-15781190D01*
X12073928Y-15771667D01*
X12092976Y-15762143D01*
X12121548Y-15762143D01*
X12140595Y-15771667D01*
X12150119Y-15781190D01*
X12159643Y-15800238D01*
X12159643Y-15857381D01*
X12150119Y-15876428D01*
X12140595Y-15885952D01*
X12121548Y-15895476D01*
X12092976Y-15895476D01*
X12273928Y-15895476D02*
X12254881Y-15885952D01*
X12245357Y-15866905D01*
X12245357Y-15695476D01*
X12426309Y-15885952D02*
X12407262Y-15895476D01*
X12369167Y-15895476D01*
X12350119Y-15885952D01*
X12340595Y-15866905D01*
X12340595Y-15790714D01*
X12350119Y-15771667D01*
X12369167Y-15762143D01*
X12407262Y-15762143D01*
X12426309Y-15771667D01*
X12435833Y-15790714D01*
X12435833Y-15809762D01*
X12340595Y-15828809D01*
X12512024Y-15885952D02*
X12531071Y-15895476D01*
X12569167Y-15895476D01*
X12588214Y-15885952D01*
X12597738Y-15866905D01*
X12597738Y-15857381D01*
X12588214Y-15838333D01*
X12569167Y-15828809D01*
X12540595Y-15828809D01*
X12521548Y-15819286D01*
X12512024Y-15800238D01*
X12512024Y-15790714D01*
X12521548Y-15771667D01*
X12540595Y-15762143D01*
X12569167Y-15762143D01*
X12588214Y-15771667D01*
X12664405Y-15971667D02*
X12673928Y-15962143D01*
X12692976Y-15933571D01*
X12702500Y-15914524D01*
X12712024Y-15885952D01*
X12721548Y-15838333D01*
X12721548Y-15800238D01*
X12712024Y-15752619D01*
X12702500Y-15724048D01*
X12692976Y-15705000D01*
X12673928Y-15676428D01*
X12664405Y-15666905D01*
D19*
X7722500Y-15997000D02*
X7892500Y-16167000D01*
X7892500Y-15997000D02*
X7722500Y-16167000D01*
X7867605Y-16142105D02*
X7867605Y-16021895D01*
X7747395Y-16021895D01*
X7747395Y-16142105D01*
X7867605Y-16142105D01*
D11*
X8254881Y-16172476D02*
X8140595Y-16172476D01*
X8197738Y-16172476D02*
X8197738Y-15972476D01*
X8178690Y-16001048D01*
X8159643Y-16020095D01*
X8140595Y-16029619D01*
X8340595Y-16153428D02*
X8350119Y-16162952D01*
X8340595Y-16172476D01*
X8331071Y-16162952D01*
X8340595Y-16153428D01*
X8340595Y-16172476D01*
X8416786Y-15972476D02*
X8550119Y-15972476D01*
X8464405Y-16172476D01*
X8664405Y-15972476D02*
X8683452Y-15972476D01*
X8702500Y-15982000D01*
X8712024Y-15991524D01*
X8721548Y-16010571D01*
X8731071Y-16048667D01*
X8731071Y-16096286D01*
X8721548Y-16134381D01*
X8712024Y-16153428D01*
X8702500Y-16162952D01*
X8683452Y-16172476D01*
X8664405Y-16172476D01*
X8645357Y-16162952D01*
X8635833Y-16153428D01*
X8626310Y-16134381D01*
X8616786Y-16096286D01*
X8616786Y-16048667D01*
X8626310Y-16010571D01*
X8635833Y-15991524D01*
X8645357Y-15982000D01*
X8664405Y-15972476D01*
X8854881Y-15972476D02*
X8873929Y-15972476D01*
X8892976Y-15982000D01*
X8902500Y-15991524D01*
X8912024Y-16010571D01*
X8921548Y-16048667D01*
X8921548Y-16096286D01*
X8912024Y-16134381D01*
X8902500Y-16153428D01*
X8892976Y-16162952D01*
X8873929Y-16172476D01*
X8854881Y-16172476D01*
X8835833Y-16162952D01*
X8826310Y-16153428D01*
X8816786Y-16134381D01*
X8807262Y-16096286D01*
X8807262Y-16048667D01*
X8816786Y-16010571D01*
X8826310Y-15991524D01*
X8835833Y-15982000D01*
X8854881Y-15972476D01*
X9007262Y-16172476D02*
X9007262Y-16039143D01*
X9007262Y-16058190D02*
X9016786Y-16048667D01*
X9035833Y-16039143D01*
X9064405Y-16039143D01*
X9083452Y-16048667D01*
X9092976Y-16067714D01*
X9092976Y-16172476D01*
X9092976Y-16067714D02*
X9102500Y-16048667D01*
X9121548Y-16039143D01*
X9150119Y-16039143D01*
X9169167Y-16048667D01*
X9178690Y-16067714D01*
X9178690Y-16172476D01*
X9273929Y-16172476D02*
X9273929Y-16039143D01*
X9273929Y-16058190D02*
X9283452Y-16048667D01*
X9302500Y-16039143D01*
X9331071Y-16039143D01*
X9350119Y-16048667D01*
X9359643Y-16067714D01*
X9359643Y-16172476D01*
X9359643Y-16067714D02*
X9369167Y-16048667D01*
X9388214Y-16039143D01*
X9416786Y-16039143D01*
X9435833Y-16048667D01*
X9445357Y-16067714D01*
X9445357Y-16172476D01*
X9835833Y-15962952D02*
X9664405Y-16220095D01*
X10092976Y-15972476D02*
X10112024Y-15972476D01*
X10131071Y-15982000D01*
X10140595Y-15991524D01*
X10150119Y-16010571D01*
X10159643Y-16048667D01*
X10159643Y-16096286D01*
X10150119Y-16134381D01*
X10140595Y-16153428D01*
X10131071Y-16162952D01*
X10112024Y-16172476D01*
X10092976Y-16172476D01*
X10073929Y-16162952D01*
X10064405Y-16153428D01*
X10054881Y-16134381D01*
X10045357Y-16096286D01*
X10045357Y-16048667D01*
X10054881Y-16010571D01*
X10064405Y-15991524D01*
X10073929Y-15982000D01*
X10092976Y-15972476D01*
X10245357Y-16153428D02*
X10254881Y-16162952D01*
X10245357Y-16172476D01*
X10235833Y-16162952D01*
X10245357Y-16153428D01*
X10245357Y-16172476D01*
X10378690Y-15972476D02*
X10397738Y-15972476D01*
X10416786Y-15982000D01*
X10426310Y-15991524D01*
X10435833Y-16010571D01*
X10445357Y-16048667D01*
X10445357Y-16096286D01*
X10435833Y-16134381D01*
X10426310Y-16153428D01*
X10416786Y-16162952D01*
X10397738Y-16172476D01*
X10378690Y-16172476D01*
X10359643Y-16162952D01*
X10350119Y-16153428D01*
X10340595Y-16134381D01*
X10331071Y-16096286D01*
X10331071Y-16048667D01*
X10340595Y-16010571D01*
X10350119Y-15991524D01*
X10359643Y-15982000D01*
X10378690Y-15972476D01*
X10616786Y-15972476D02*
X10578690Y-15972476D01*
X10559643Y-15982000D01*
X10550119Y-15991524D01*
X10531071Y-16020095D01*
X10521548Y-16058190D01*
X10521548Y-16134381D01*
X10531071Y-16153428D01*
X10540595Y-16162952D01*
X10559643Y-16172476D01*
X10597738Y-16172476D01*
X10616786Y-16162952D01*
X10626310Y-16153428D01*
X10635833Y-16134381D01*
X10635833Y-16086762D01*
X10626310Y-16067714D01*
X10616786Y-16058190D01*
X10597738Y-16048667D01*
X10559643Y-16048667D01*
X10540595Y-16058190D01*
X10531071Y-16067714D01*
X10521548Y-16086762D01*
X10807262Y-15972476D02*
X10769167Y-15972476D01*
X10750119Y-15982000D01*
X10740595Y-15991524D01*
X10721548Y-16020095D01*
X10712024Y-16058190D01*
X10712024Y-16134381D01*
X10721548Y-16153428D01*
X10731071Y-16162952D01*
X10750119Y-16172476D01*
X10788214Y-16172476D01*
X10807262Y-16162952D01*
X10816786Y-16153428D01*
X10826310Y-16134381D01*
X10826310Y-16086762D01*
X10816786Y-16067714D01*
X10807262Y-16058190D01*
X10788214Y-16048667D01*
X10750119Y-16048667D01*
X10731071Y-16058190D01*
X10721548Y-16067714D01*
X10712024Y-16086762D01*
X10921548Y-16172476D02*
X10959643Y-16172476D01*
X10978690Y-16162952D01*
X10988214Y-16153428D01*
X11007262Y-16124857D01*
X11016786Y-16086762D01*
X11016786Y-16010571D01*
X11007262Y-15991524D01*
X10997738Y-15982000D01*
X10978690Y-15972476D01*
X10940595Y-15972476D01*
X10921548Y-15982000D01*
X10912024Y-15991524D01*
X10902500Y-16010571D01*
X10902500Y-16058190D01*
X10912024Y-16077238D01*
X10921548Y-16086762D01*
X10940595Y-16096286D01*
X10978690Y-16096286D01*
X10997738Y-16086762D01*
X11007262Y-16077238D01*
X11016786Y-16058190D01*
X11092976Y-15972476D02*
X11092976Y-16010571D01*
X11169167Y-15972476D02*
X11169167Y-16010571D01*
X11464405Y-16248667D02*
X11454881Y-16239143D01*
X11435833Y-16210571D01*
X11426309Y-16191524D01*
X11416786Y-16162952D01*
X11407262Y-16115333D01*
X11407262Y-16077238D01*
X11416786Y-16029619D01*
X11426309Y-16001048D01*
X11435833Y-15982000D01*
X11454881Y-15953428D01*
X11464405Y-15943905D01*
X11521548Y-15972476D02*
X11645357Y-15972476D01*
X11578690Y-16048667D01*
X11607262Y-16048667D01*
X11626309Y-16058190D01*
X11635833Y-16067714D01*
X11645357Y-16086762D01*
X11645357Y-16134381D01*
X11635833Y-16153428D01*
X11626309Y-16162952D01*
X11607262Y-16172476D01*
X11550119Y-16172476D01*
X11531071Y-16162952D01*
X11521548Y-16153428D01*
X11883452Y-16172476D02*
X11883452Y-15972476D01*
X11969167Y-16172476D02*
X11969167Y-16067714D01*
X11959643Y-16048667D01*
X11940595Y-16039143D01*
X11912024Y-16039143D01*
X11892976Y-16048667D01*
X11883452Y-16058190D01*
X12092976Y-16172476D02*
X12073928Y-16162952D01*
X12064405Y-16153428D01*
X12054881Y-16134381D01*
X12054881Y-16077238D01*
X12064405Y-16058190D01*
X12073928Y-16048667D01*
X12092976Y-16039143D01*
X12121548Y-16039143D01*
X12140595Y-16048667D01*
X12150119Y-16058190D01*
X12159643Y-16077238D01*
X12159643Y-16134381D01*
X12150119Y-16153428D01*
X12140595Y-16162952D01*
X12121548Y-16172476D01*
X12092976Y-16172476D01*
X12273928Y-16172476D02*
X12254881Y-16162952D01*
X12245357Y-16143905D01*
X12245357Y-15972476D01*
X12426309Y-16162952D02*
X12407262Y-16172476D01*
X12369167Y-16172476D01*
X12350119Y-16162952D01*
X12340595Y-16143905D01*
X12340595Y-16067714D01*
X12350119Y-16048667D01*
X12369167Y-16039143D01*
X12407262Y-16039143D01*
X12426309Y-16048667D01*
X12435833Y-16067714D01*
X12435833Y-16086762D01*
X12340595Y-16105809D01*
X12512024Y-16162952D02*
X12531071Y-16172476D01*
X12569167Y-16172476D01*
X12588214Y-16162952D01*
X12597738Y-16143905D01*
X12597738Y-16134381D01*
X12588214Y-16115333D01*
X12569167Y-16105809D01*
X12540595Y-16105809D01*
X12521548Y-16096286D01*
X12512024Y-16077238D01*
X12512024Y-16067714D01*
X12521548Y-16048667D01*
X12540595Y-16039143D01*
X12569167Y-16039143D01*
X12588214Y-16048667D01*
X12664405Y-16248667D02*
X12673928Y-16239143D01*
X12692976Y-16210571D01*
X12702500Y-16191524D01*
X12712024Y-16162952D01*
X12721548Y-16115333D01*
X12721548Y-16077238D01*
X12712024Y-16029619D01*
X12702500Y-16001048D01*
X12692976Y-15982000D01*
X12673928Y-15953428D01*
X12664405Y-15943905D01*
X7692500Y-16272000D02*
X7892500Y-16472000D01*
X7892500Y-16272000D02*
X7692500Y-16472000D01*
X7792500Y-16472000D02*
X7892500Y-16372000D01*
X7792500Y-16272000D01*
X7692500Y-16372000D01*
X7792500Y-16472000D01*
X8140595Y-16281524D02*
X8150119Y-16272000D01*
X8169167Y-16262476D01*
X8216786Y-16262476D01*
X8235833Y-16272000D01*
X8245357Y-16281524D01*
X8254881Y-16300571D01*
X8254881Y-16319619D01*
X8245357Y-16348190D01*
X8131071Y-16462476D01*
X8254881Y-16462476D01*
X8340595Y-16443428D02*
X8350119Y-16452952D01*
X8340595Y-16462476D01*
X8331071Y-16452952D01*
X8340595Y-16443428D01*
X8340595Y-16462476D01*
X8540595Y-16462476D02*
X8426310Y-16462476D01*
X8483452Y-16462476D02*
X8483452Y-16262476D01*
X8464405Y-16291048D01*
X8445357Y-16310095D01*
X8426310Y-16319619D01*
X8664405Y-16262476D02*
X8683452Y-16262476D01*
X8702500Y-16272000D01*
X8712024Y-16281524D01*
X8721548Y-16300571D01*
X8731071Y-16338667D01*
X8731071Y-16386286D01*
X8721548Y-16424381D01*
X8712024Y-16443428D01*
X8702500Y-16452952D01*
X8683452Y-16462476D01*
X8664405Y-16462476D01*
X8645357Y-16452952D01*
X8635833Y-16443428D01*
X8626310Y-16424381D01*
X8616786Y-16386286D01*
X8616786Y-16338667D01*
X8626310Y-16300571D01*
X8635833Y-16281524D01*
X8645357Y-16272000D01*
X8664405Y-16262476D01*
X8845357Y-16348190D02*
X8826310Y-16338667D01*
X8816786Y-16329143D01*
X8807262Y-16310095D01*
X8807262Y-16300571D01*
X8816786Y-16281524D01*
X8826310Y-16272000D01*
X8845357Y-16262476D01*
X8883452Y-16262476D01*
X8902500Y-16272000D01*
X8912024Y-16281524D01*
X8921548Y-16300571D01*
X8921548Y-16310095D01*
X8912024Y-16329143D01*
X8902500Y-16338667D01*
X8883452Y-16348190D01*
X8845357Y-16348190D01*
X8826310Y-16357714D01*
X8816786Y-16367238D01*
X8807262Y-16386286D01*
X8807262Y-16424381D01*
X8816786Y-16443428D01*
X8826310Y-16452952D01*
X8845357Y-16462476D01*
X8883452Y-16462476D01*
X8902500Y-16452952D01*
X8912024Y-16443428D01*
X8921548Y-16424381D01*
X8921548Y-16386286D01*
X8912024Y-16367238D01*
X8902500Y-16357714D01*
X8883452Y-16348190D01*
X9007262Y-16462476D02*
X9007262Y-16329143D01*
X9007262Y-16348190D02*
X9016786Y-16338667D01*
X9035833Y-16329143D01*
X9064405Y-16329143D01*
X9083452Y-16338667D01*
X9092976Y-16357714D01*
X9092976Y-16462476D01*
X9092976Y-16357714D02*
X9102500Y-16338667D01*
X9121548Y-16329143D01*
X9150119Y-16329143D01*
X9169167Y-16338667D01*
X9178690Y-16357714D01*
X9178690Y-16462476D01*
X9273929Y-16462476D02*
X9273929Y-16329143D01*
X9273929Y-16348190D02*
X9283452Y-16338667D01*
X9302500Y-16329143D01*
X9331071Y-16329143D01*
X9350119Y-16338667D01*
X9359643Y-16357714D01*
X9359643Y-16462476D01*
X9359643Y-16357714D02*
X9369167Y-16338667D01*
X9388214Y-16329143D01*
X9416786Y-16329143D01*
X9435833Y-16338667D01*
X9445357Y-16357714D01*
X9445357Y-16462476D01*
X9835833Y-16252952D02*
X9664405Y-16510095D01*
X10092976Y-16262476D02*
X10112024Y-16262476D01*
X10131071Y-16272000D01*
X10140595Y-16281524D01*
X10150119Y-16300571D01*
X10159643Y-16338667D01*
X10159643Y-16386286D01*
X10150119Y-16424381D01*
X10140595Y-16443428D01*
X10131071Y-16452952D01*
X10112024Y-16462476D01*
X10092976Y-16462476D01*
X10073929Y-16452952D01*
X10064405Y-16443428D01*
X10054881Y-16424381D01*
X10045357Y-16386286D01*
X10045357Y-16338667D01*
X10054881Y-16300571D01*
X10064405Y-16281524D01*
X10073929Y-16272000D01*
X10092976Y-16262476D01*
X10245357Y-16443428D02*
X10254881Y-16452952D01*
X10245357Y-16462476D01*
X10235833Y-16452952D01*
X10245357Y-16443428D01*
X10245357Y-16462476D01*
X10378690Y-16262476D02*
X10397738Y-16262476D01*
X10416786Y-16272000D01*
X10426310Y-16281524D01*
X10435833Y-16300571D01*
X10445357Y-16338667D01*
X10445357Y-16386286D01*
X10435833Y-16424381D01*
X10426310Y-16443428D01*
X10416786Y-16452952D01*
X10397738Y-16462476D01*
X10378690Y-16462476D01*
X10359643Y-16452952D01*
X10350119Y-16443428D01*
X10340595Y-16424381D01*
X10331071Y-16386286D01*
X10331071Y-16338667D01*
X10340595Y-16300571D01*
X10350119Y-16281524D01*
X10359643Y-16272000D01*
X10378690Y-16262476D01*
X10559643Y-16348190D02*
X10540595Y-16338667D01*
X10531071Y-16329143D01*
X10521548Y-16310095D01*
X10521548Y-16300571D01*
X10531071Y-16281524D01*
X10540595Y-16272000D01*
X10559643Y-16262476D01*
X10597738Y-16262476D01*
X10616786Y-16272000D01*
X10626310Y-16281524D01*
X10635833Y-16300571D01*
X10635833Y-16310095D01*
X10626310Y-16329143D01*
X10616786Y-16338667D01*
X10597738Y-16348190D01*
X10559643Y-16348190D01*
X10540595Y-16357714D01*
X10531071Y-16367238D01*
X10521548Y-16386286D01*
X10521548Y-16424381D01*
X10531071Y-16443428D01*
X10540595Y-16452952D01*
X10559643Y-16462476D01*
X10597738Y-16462476D01*
X10616786Y-16452952D01*
X10626310Y-16443428D01*
X10635833Y-16424381D01*
X10635833Y-16386286D01*
X10626310Y-16367238D01*
X10616786Y-16357714D01*
X10597738Y-16348190D01*
X10702500Y-16262476D02*
X10826310Y-16262476D01*
X10759643Y-16338667D01*
X10788214Y-16338667D01*
X10807262Y-16348190D01*
X10816786Y-16357714D01*
X10826310Y-16376762D01*
X10826310Y-16424381D01*
X10816786Y-16443428D01*
X10807262Y-16452952D01*
X10788214Y-16462476D01*
X10731071Y-16462476D01*
X10712024Y-16452952D01*
X10702500Y-16443428D01*
X10950119Y-16262476D02*
X10969167Y-16262476D01*
X10988214Y-16272000D01*
X10997738Y-16281524D01*
X11007262Y-16300571D01*
X11016786Y-16338667D01*
X11016786Y-16386286D01*
X11007262Y-16424381D01*
X10997738Y-16443428D01*
X10988214Y-16452952D01*
X10969167Y-16462476D01*
X10950119Y-16462476D01*
X10931071Y-16452952D01*
X10921548Y-16443428D01*
X10912024Y-16424381D01*
X10902500Y-16386286D01*
X10902500Y-16338667D01*
X10912024Y-16300571D01*
X10921548Y-16281524D01*
X10931071Y-16272000D01*
X10950119Y-16262476D01*
X11092976Y-16262476D02*
X11092976Y-16300571D01*
X11169167Y-16262476D02*
X11169167Y-16300571D01*
X11464405Y-16538667D02*
X11454881Y-16529143D01*
X11435833Y-16500571D01*
X11426309Y-16481524D01*
X11416786Y-16452952D01*
X11407262Y-16405333D01*
X11407262Y-16367238D01*
X11416786Y-16319619D01*
X11426309Y-16291048D01*
X11435833Y-16272000D01*
X11454881Y-16243428D01*
X11464405Y-16233905D01*
X11626309Y-16262476D02*
X11588214Y-16262476D01*
X11569167Y-16272000D01*
X11559643Y-16281524D01*
X11540595Y-16310095D01*
X11531071Y-16348190D01*
X11531071Y-16424381D01*
X11540595Y-16443428D01*
X11550119Y-16452952D01*
X11569167Y-16462476D01*
X11607262Y-16462476D01*
X11626309Y-16452952D01*
X11635833Y-16443428D01*
X11645357Y-16424381D01*
X11645357Y-16376762D01*
X11635833Y-16357714D01*
X11626309Y-16348190D01*
X11607262Y-16338667D01*
X11569167Y-16338667D01*
X11550119Y-16348190D01*
X11540595Y-16357714D01*
X11531071Y-16376762D01*
X11883452Y-16462476D02*
X11883452Y-16262476D01*
X11969167Y-16462476D02*
X11969167Y-16357714D01*
X11959643Y-16338667D01*
X11940595Y-16329143D01*
X11912024Y-16329143D01*
X11892976Y-16338667D01*
X11883452Y-16348190D01*
X12092976Y-16462476D02*
X12073928Y-16452952D01*
X12064405Y-16443428D01*
X12054881Y-16424381D01*
X12054881Y-16367238D01*
X12064405Y-16348190D01*
X12073928Y-16338667D01*
X12092976Y-16329143D01*
X12121548Y-16329143D01*
X12140595Y-16338667D01*
X12150119Y-16348190D01*
X12159643Y-16367238D01*
X12159643Y-16424381D01*
X12150119Y-16443428D01*
X12140595Y-16452952D01*
X12121548Y-16462476D01*
X12092976Y-16462476D01*
X12273928Y-16462476D02*
X12254881Y-16452952D01*
X12245357Y-16433905D01*
X12245357Y-16262476D01*
X12426309Y-16452952D02*
X12407262Y-16462476D01*
X12369167Y-16462476D01*
X12350119Y-16452952D01*
X12340595Y-16433905D01*
X12340595Y-16357714D01*
X12350119Y-16338667D01*
X12369167Y-16329143D01*
X12407262Y-16329143D01*
X12426309Y-16338667D01*
X12435833Y-16357714D01*
X12435833Y-16376762D01*
X12340595Y-16395809D01*
X12512024Y-16452952D02*
X12531071Y-16462476D01*
X12569167Y-16462476D01*
X12588214Y-16452952D01*
X12597738Y-16433905D01*
X12597738Y-16424381D01*
X12588214Y-16405333D01*
X12569167Y-16395809D01*
X12540595Y-16395809D01*
X12521548Y-16386286D01*
X12512024Y-16367238D01*
X12512024Y-16357714D01*
X12521548Y-16338667D01*
X12540595Y-16329143D01*
X12569167Y-16329143D01*
X12588214Y-16338667D01*
X12664405Y-16538667D02*
X12673928Y-16529143D01*
X12692976Y-16500571D01*
X12702500Y-16481524D01*
X12712024Y-16452952D01*
X12721548Y-16405333D01*
X12721548Y-16367238D01*
X12712024Y-16319619D01*
X12702500Y-16291048D01*
X12692976Y-16272000D01*
X12673928Y-16243428D01*
X12664405Y-16233905D01*
X7792500Y-16592000D02*
X7792500Y-16792000D01*
X7692500Y-16692000D02*
X7892500Y-16692000D01*
X7892500Y-16692000D02*
G75*
G03*
X7892500Y-16692000I-100000J0D01*
G01*
X8235833Y-16582476D02*
X8197738Y-16582476D01*
X8178690Y-16592000D01*
X8169167Y-16601524D01*
X8150119Y-16630095D01*
X8140595Y-16668190D01*
X8140595Y-16744381D01*
X8150119Y-16763428D01*
X8159643Y-16772952D01*
X8178690Y-16782476D01*
X8216786Y-16782476D01*
X8235833Y-16772952D01*
X8245357Y-16763428D01*
X8254881Y-16744381D01*
X8254881Y-16696762D01*
X8245357Y-16677714D01*
X8235833Y-16668190D01*
X8216786Y-16658667D01*
X8178690Y-16658667D01*
X8159643Y-16668190D01*
X8150119Y-16677714D01*
X8140595Y-16696762D01*
X8340595Y-16763428D02*
X8350119Y-16772952D01*
X8340595Y-16782476D01*
X8331071Y-16772952D01*
X8340595Y-16763428D01*
X8340595Y-16782476D01*
X8426310Y-16601524D02*
X8435833Y-16592000D01*
X8454881Y-16582476D01*
X8502500Y-16582476D01*
X8521548Y-16592000D01*
X8531071Y-16601524D01*
X8540595Y-16620571D01*
X8540595Y-16639619D01*
X8531071Y-16668190D01*
X8416786Y-16782476D01*
X8540595Y-16782476D01*
X8664405Y-16582476D02*
X8683452Y-16582476D01*
X8702500Y-16592000D01*
X8712024Y-16601524D01*
X8721548Y-16620571D01*
X8731071Y-16658667D01*
X8731071Y-16706286D01*
X8721548Y-16744381D01*
X8712024Y-16763428D01*
X8702500Y-16772952D01*
X8683452Y-16782476D01*
X8664405Y-16782476D01*
X8645357Y-16772952D01*
X8635833Y-16763428D01*
X8626310Y-16744381D01*
X8616786Y-16706286D01*
X8616786Y-16658667D01*
X8626310Y-16620571D01*
X8635833Y-16601524D01*
X8645357Y-16592000D01*
X8664405Y-16582476D01*
X8854881Y-16582476D02*
X8873929Y-16582476D01*
X8892976Y-16592000D01*
X8902500Y-16601524D01*
X8912024Y-16620571D01*
X8921548Y-16658667D01*
X8921548Y-16706286D01*
X8912024Y-16744381D01*
X8902500Y-16763428D01*
X8892976Y-16772952D01*
X8873929Y-16782476D01*
X8854881Y-16782476D01*
X8835833Y-16772952D01*
X8826310Y-16763428D01*
X8816786Y-16744381D01*
X8807262Y-16706286D01*
X8807262Y-16658667D01*
X8816786Y-16620571D01*
X8826310Y-16601524D01*
X8835833Y-16592000D01*
X8854881Y-16582476D01*
X9007262Y-16782476D02*
X9007262Y-16649143D01*
X9007262Y-16668190D02*
X9016786Y-16658667D01*
X9035833Y-16649143D01*
X9064405Y-16649143D01*
X9083452Y-16658667D01*
X9092976Y-16677714D01*
X9092976Y-16782476D01*
X9092976Y-16677714D02*
X9102500Y-16658667D01*
X9121548Y-16649143D01*
X9150119Y-16649143D01*
X9169167Y-16658667D01*
X9178690Y-16677714D01*
X9178690Y-16782476D01*
X9273929Y-16782476D02*
X9273929Y-16649143D01*
X9273929Y-16668190D02*
X9283452Y-16658667D01*
X9302500Y-16649143D01*
X9331071Y-16649143D01*
X9350119Y-16658667D01*
X9359643Y-16677714D01*
X9359643Y-16782476D01*
X9359643Y-16677714D02*
X9369167Y-16658667D01*
X9388214Y-16649143D01*
X9416786Y-16649143D01*
X9435833Y-16658667D01*
X9445357Y-16677714D01*
X9445357Y-16782476D01*
X9835833Y-16572952D02*
X9664405Y-16830095D01*
X10092976Y-16582476D02*
X10112024Y-16582476D01*
X10131071Y-16592000D01*
X10140595Y-16601524D01*
X10150119Y-16620571D01*
X10159643Y-16658667D01*
X10159643Y-16706286D01*
X10150119Y-16744381D01*
X10140595Y-16763428D01*
X10131071Y-16772952D01*
X10112024Y-16782476D01*
X10092976Y-16782476D01*
X10073929Y-16772952D01*
X10064405Y-16763428D01*
X10054881Y-16744381D01*
X10045357Y-16706286D01*
X10045357Y-16658667D01*
X10054881Y-16620571D01*
X10064405Y-16601524D01*
X10073929Y-16592000D01*
X10092976Y-16582476D01*
X10245357Y-16763428D02*
X10254881Y-16772952D01*
X10245357Y-16782476D01*
X10235833Y-16772952D01*
X10245357Y-16763428D01*
X10245357Y-16782476D01*
X10331071Y-16601524D02*
X10340595Y-16592000D01*
X10359643Y-16582476D01*
X10407262Y-16582476D01*
X10426310Y-16592000D01*
X10435833Y-16601524D01*
X10445357Y-16620571D01*
X10445357Y-16639619D01*
X10435833Y-16668190D01*
X10321548Y-16782476D01*
X10445357Y-16782476D01*
X10616786Y-16649143D02*
X10616786Y-16782476D01*
X10569167Y-16572952D02*
X10521548Y-16715809D01*
X10645357Y-16715809D01*
X10807262Y-16649143D02*
X10807262Y-16782476D01*
X10759643Y-16572952D02*
X10712024Y-16715809D01*
X10835833Y-16715809D01*
X11016786Y-16782476D02*
X10902500Y-16782476D01*
X10959643Y-16782476D02*
X10959643Y-16582476D01*
X10940595Y-16611048D01*
X10921548Y-16630095D01*
X10902500Y-16639619D01*
X11092976Y-16582476D02*
X11092976Y-16620571D01*
X11169167Y-16582476D02*
X11169167Y-16620571D01*
X11464405Y-16858667D02*
X11454881Y-16849143D01*
X11435833Y-16820571D01*
X11426309Y-16801524D01*
X11416786Y-16772952D01*
X11407262Y-16725333D01*
X11407262Y-16687238D01*
X11416786Y-16639619D01*
X11426309Y-16611048D01*
X11435833Y-16592000D01*
X11454881Y-16563428D01*
X11464405Y-16553905D01*
X11645357Y-16782476D02*
X11531071Y-16782476D01*
X11588214Y-16782476D02*
X11588214Y-16582476D01*
X11569167Y-16611048D01*
X11550119Y-16630095D01*
X11531071Y-16639619D01*
X11883452Y-16782476D02*
X11883452Y-16582476D01*
X11969167Y-16782476D02*
X11969167Y-16677714D01*
X11959643Y-16658667D01*
X11940595Y-16649143D01*
X11912024Y-16649143D01*
X11892976Y-16658667D01*
X11883452Y-16668190D01*
X12092976Y-16782476D02*
X12073928Y-16772952D01*
X12064405Y-16763428D01*
X12054881Y-16744381D01*
X12054881Y-16687238D01*
X12064405Y-16668190D01*
X12073928Y-16658667D01*
X12092976Y-16649143D01*
X12121548Y-16649143D01*
X12140595Y-16658667D01*
X12150119Y-16668190D01*
X12159643Y-16687238D01*
X12159643Y-16744381D01*
X12150119Y-16763428D01*
X12140595Y-16772952D01*
X12121548Y-16782476D01*
X12092976Y-16782476D01*
X12273928Y-16782476D02*
X12254881Y-16772952D01*
X12245357Y-16753905D01*
X12245357Y-16582476D01*
X12426309Y-16772952D02*
X12407262Y-16782476D01*
X12369167Y-16782476D01*
X12350119Y-16772952D01*
X12340595Y-16753905D01*
X12340595Y-16677714D01*
X12350119Y-16658667D01*
X12369167Y-16649143D01*
X12407262Y-16649143D01*
X12426309Y-16658667D01*
X12435833Y-16677714D01*
X12435833Y-16696762D01*
X12340595Y-16715809D01*
X12502500Y-16858667D02*
X12512024Y-16849143D01*
X12531071Y-16820571D01*
X12540595Y-16801524D01*
X12550119Y-16772952D01*
X12559643Y-16725333D01*
X12559643Y-16687238D01*
X12550119Y-16639619D01*
X12540595Y-16611048D01*
X12531071Y-16592000D01*
X12512024Y-16563428D01*
X12502500Y-16553905D01*
M02*
