%TF.GenerationSoftware,KiCad,Pcbnew,5.99.0-unknown-47cb7f53fd~143~ubuntu20.04.1*%
%TF.CreationDate,2021-11-23T21:24:53-08:00*%
%TF.ProjectId,acorn-odrive-interface,61636f72-6e2d-46f6-9472-6976652d696e,rev?*%
%TF.SameCoordinates,Original*%
%TF.FileFunction,Legend,Bot*%
%TF.FilePolarity,Positive*%
%FSLAX46Y46*%
G04 Gerber Fmt 4.6, Leading zero omitted, Abs format (unit mm)*
G04 Created by KiCad (PCBNEW 5.99.0-unknown-47cb7f53fd~143~ubuntu20.04.1) date 2021-11-23 21:24:53*
%MOMM*%
%LPD*%
G01*
G04 APERTURE LIST*
G04 Aperture macros list*
%AMRoundRect*
0 Rectangle with rounded corners*
0 $1 Rounding radius*
0 $2 $3 $4 $5 $6 $7 $8 $9 X,Y pos of 4 corners*
0 Add a 4 corners polygon primitive as box body*
4,1,4,$2,$3,$4,$5,$6,$7,$8,$9,$2,$3,0*
0 Add four circle primitives for the rounded corners*
1,1,$1+$1,$2,$3*
1,1,$1+$1,$4,$5*
1,1,$1+$1,$6,$7*
1,1,$1+$1,$8,$9*
0 Add four rect primitives between the rounded corners*
20,1,$1+$1,$2,$3,$4,$5,0*
20,1,$1+$1,$4,$5,$6,$7,0*
20,1,$1+$1,$6,$7,$8,$9,0*
20,1,$1+$1,$8,$9,$2,$3,0*%
G04 Aperture macros list end*
%ADD10C,0.150000*%
%ADD11C,0.120000*%
%ADD12C,3.200000*%
%ADD13RoundRect,0.250000X-0.845000X0.620000X-0.845000X-0.620000X0.845000X-0.620000X0.845000X0.620000X0*%
%ADD14O,2.190000X1.740000*%
%ADD15C,3.250000*%
%ADD16R,1.500000X1.500000*%
%ADD17C,1.500000*%
%ADD18C,2.300000*%
%ADD19RoundRect,0.250000X0.620000X0.845000X-0.620000X0.845000X-0.620000X-0.845000X0.620000X-0.845000X0*%
%ADD20O,1.740000X2.190000*%
%ADD21RoundRect,0.250000X-0.620000X-0.845000X0.620000X-0.845000X0.620000X0.845000X-0.620000X0.845000X0*%
%ADD22R,1.700000X1.700000*%
%ADD23O,1.700000X1.700000*%
%ADD24C,2.616200*%
%ADD25C,1.600200*%
%ADD26RoundRect,0.250000X0.845000X-0.620000X0.845000X0.620000X-0.845000X0.620000X-0.845000X-0.620000X0*%
%ADD27RoundRect,0.250000X-1.330000X-1.800000X1.330000X-1.800000X1.330000X1.800000X-1.330000X1.800000X0*%
%ADD28O,3.160000X4.100000*%
%ADD29R,2.500000X4.500000*%
%ADD30O,2.500000X4.500000*%
%ADD31C,6.500000*%
G04 APERTURE END LIST*
D10*
X93642380Y-92376666D02*
X94356666Y-92376666D01*
X94499523Y-92329047D01*
X94594761Y-92233809D01*
X94642380Y-92090952D01*
X94642380Y-91995714D01*
X94642380Y-93376666D02*
X94642380Y-92805238D01*
X94642380Y-93090952D02*
X93642380Y-93090952D01*
X93785238Y-92995714D01*
X93880476Y-92900476D01*
X93928095Y-92805238D01*
D11*
X119276200Y-137115700D02*
G75*
G03*
X119276200Y-137115700I-381000J0D01*
G01*
X171985800Y-111884300D02*
G75*
G03*
X171985800Y-111884300I-381000J0D01*
G01*
X95190000Y-91380000D02*
X95190000Y-92710000D01*
X146110000Y-91380000D02*
X146110000Y-94040000D01*
X97790000Y-94040000D02*
X146110000Y-94040000D01*
X97790000Y-91380000D02*
X146110000Y-91380000D01*
X97790000Y-91380000D02*
X97790000Y-94040000D01*
X96520000Y-91380000D02*
X95190000Y-91380000D01*
%LPC*%
D12*
X158750000Y-82550000D03*
D13*
X110490000Y-73025000D03*
D14*
X110490000Y-75565000D03*
X110490000Y-78105000D03*
D13*
X119380000Y-73025000D03*
D14*
X119380000Y-75565000D03*
X119380000Y-78105000D03*
D13*
X127340000Y-73025000D03*
D14*
X127340000Y-75565000D03*
X127340000Y-78105000D03*
D13*
X135090000Y-73025000D03*
D14*
X135090000Y-75565000D03*
X135090000Y-78105000D03*
D12*
X82550000Y-72390000D03*
X82550000Y-82550000D03*
X158750000Y-72390000D03*
D13*
X147980000Y-73000000D03*
D14*
X147980000Y-75540000D03*
D15*
X124540000Y-110346000D03*
X124540000Y-97646000D03*
D16*
X122000000Y-100436000D03*
D17*
X120220000Y-101452000D03*
X122000000Y-102468000D03*
X120220000Y-103484000D03*
X122000000Y-104500000D03*
X120220000Y-105516000D03*
X122000000Y-106532000D03*
X120220000Y-107548000D03*
X115400000Y-97136000D03*
X115400000Y-99426000D03*
X115400000Y-108566000D03*
X115400000Y-110856000D03*
D18*
X121110000Y-112126000D03*
X121110000Y-95866000D03*
D19*
X106270000Y-104000000D03*
D20*
X103730000Y-104000000D03*
D12*
X168910000Y-72390000D03*
X212090000Y-72390000D03*
X212090000Y-82550000D03*
X168910000Y-82550000D03*
D21*
X194310000Y-73914000D03*
D20*
X196850000Y-73914000D03*
X199390000Y-73914000D03*
X201930000Y-73914000D03*
X204470000Y-73914000D03*
D22*
X176530000Y-92710000D03*
D23*
X179070000Y-92710000D03*
X181610000Y-92710000D03*
X184150000Y-92710000D03*
X186690000Y-92710000D03*
X189230000Y-92710000D03*
X191770000Y-92710000D03*
X194310000Y-92710000D03*
X196850000Y-92710000D03*
X199390000Y-92710000D03*
X201930000Y-92710000D03*
X204470000Y-92710000D03*
D21*
X177800000Y-73914000D03*
D20*
X180340000Y-73914000D03*
X182880000Y-73914000D03*
X185420000Y-73914000D03*
X187960000Y-73914000D03*
D22*
X163750000Y-76000000D03*
D23*
X163750000Y-78540000D03*
D24*
X118895200Y-133356500D03*
X111275200Y-133356500D03*
X108735200Y-115576500D03*
D25*
X96035200Y-129546500D03*
X96035200Y-119386500D03*
D12*
X213500000Y-131750000D03*
D24*
X171604800Y-115643500D03*
X179224800Y-115643500D03*
X181764800Y-133423500D03*
D25*
X194464800Y-119453500D03*
X194464800Y-129613500D03*
D26*
X92020000Y-80080000D03*
D14*
X92020000Y-77540000D03*
X92020000Y-75000000D03*
X92020000Y-72460000D03*
X92020000Y-69920000D03*
D27*
X141540000Y-131105000D03*
D28*
X145500000Y-131105000D03*
X149460000Y-131105000D03*
D29*
X149550000Y-120820000D03*
D30*
X160450000Y-120820000D03*
D29*
X131050000Y-120820000D03*
D30*
X141950000Y-120820000D03*
D31*
X97750000Y-106210000D03*
D22*
X96520000Y-92710000D03*
D23*
X99060000Y-92710000D03*
X101600000Y-92710000D03*
X104140000Y-92710000D03*
X106680000Y-92710000D03*
X109220000Y-92710000D03*
X111760000Y-92710000D03*
X114300000Y-92710000D03*
X116840000Y-92710000D03*
X119380000Y-92710000D03*
X121920000Y-92710000D03*
X124460000Y-92710000D03*
X127000000Y-92710000D03*
X129540000Y-92710000D03*
X132080000Y-92710000D03*
X134620000Y-92710000D03*
X137160000Y-92710000D03*
X139700000Y-92710000D03*
X142240000Y-92710000D03*
X144780000Y-92710000D03*
M02*
