M48
; DRILL file {KiCad 5.99.0-unknown-47cb7f53fd~143~ubuntu20.04.1} date Tue 23 Nov 2021 09:25:00 PM PST
; FORMAT={-:-/ absolute / metric / decimal}
; #@! TF.CreationDate,2021-11-23T21:25:00-08:00
; #@! TF.GenerationSoftware,Kicad,Pcbnew,5.99.0-unknown-47cb7f53fd~143~ubuntu20.04.1
; #@! TF.FileFunction,Plated,1,2,PTH
FMAT,2
METRIC
; #@! TA.AperFunction,Plated,PTH,ViaDrill
T1C0.800
; #@! TA.AperFunction,Plated,PTH,ComponentDrill
T2C0.890
; #@! TA.AperFunction,Plated,PTH,ComponentDrill
T3C1.000
; #@! TA.AperFunction,Plated,PTH,ComponentDrill
T4C1.092
; #@! TA.AperFunction,Plated,PTH,ComponentDrill
T5C1.190
; #@! TA.AperFunction,Plated,PTH,ComponentDrill
T6C1.500
; #@! TA.AperFunction,Plated,PTH,ComponentDrill
T7C1.570
; #@! TA.AperFunction,Plated,PTH,ComponentDrill
T8C1.700
; #@! TA.AperFunction,Plated,PTH,ComponentDrill
T9C2.108
; #@! TA.AperFunction,Plated,PTH,ComponentDrill
T10C6.200
%
G90
G05
T1
X89.5Y-85.5
X92.25Y-88.75
X95.75Y-78.5
X99.05Y-76.269
X99.25Y-85.0
X99.5Y-78.75
X99.75Y-81.5
X102.75Y-78.75
X103.5Y-81.299
X103.5Y-90.25
X103.55Y-85.45
X105.05Y-85.45
X106.5Y-112.25
X107.0Y-89.5
X107.0Y-100.25
X108.25Y-86.75
X110.5Y-95.75
X110.5Y-107.5
X111.5Y-86.75
X112.0Y-88.5
X113.25Y-107.299
X114.0Y-89.5
X114.25Y-102.75
X116.205Y-81.28
X117.5Y-104.0
X119.049Y-95.5
X126.25Y-95.0
X129.0Y-114.0
X129.5Y-107.25
X129.75Y-100.75
X130.03Y-126.45
X130.25Y-87.5
X130.75Y-94.5
X134.0Y-117.0
X134.5Y-118.5
X135.5Y-119.5
X137.799Y-126.45
X142.0Y-124.75
X143.59Y-86.66
X148.25Y-126.0
X149.75Y-81.25
X151.5Y-93.0
X151.75Y-125.75
X152.0Y-116.5
X153.0Y-117.5
X154.0Y-118.5
X154.25Y-125.25
X155.0Y-88.5
X155.5Y-84.5
X158.5Y-89.25
X161.25Y-127.75
X167.25Y-130.75
X169.0Y-120.5
X170.5Y-90.5
X179.578Y-85.09
X183.25Y-87.0
X186.25Y-85.75
X189.5Y-86.0
X190.5Y-83.75
X198.0Y-87.0
X202.0Y-86.75
X205.75Y-86.5
X206.25Y-84.5
X207.0Y-99.5
X207.0Y-108.5
X208.5Y-99.5
X208.5Y-108.5
X210.0Y-99.5
X210.0Y-108.5
T2
X115.4Y-97.136
X115.4Y-99.426
X115.4Y-108.566
X115.4Y-110.856
X120.22Y-101.452
X120.22Y-103.484
X120.22Y-105.516
X120.22Y-107.548
X122.0Y-100.436
X122.0Y-102.468
X122.0Y-104.5
X122.0Y-106.532
T3
X96.52Y-92.71
X99.06Y-92.71
X101.6Y-92.71
X104.14Y-92.71
X106.68Y-92.71
X109.22Y-92.71
X111.76Y-92.71
X114.3Y-92.71
X116.84Y-92.71
X119.38Y-92.71
X121.92Y-92.71
X124.46Y-92.71
X127.0Y-92.71
X129.54Y-92.71
X132.08Y-92.71
X134.62Y-92.71
X137.16Y-92.71
X139.7Y-92.71
X142.24Y-92.71
X144.78Y-92.71
X163.75Y-76.0
X163.75Y-78.54
X176.53Y-92.71
X179.07Y-92.71
X181.61Y-92.71
X184.15Y-92.71
X186.69Y-92.71
X189.23Y-92.71
X191.77Y-92.71
X194.31Y-92.71
X196.85Y-92.71
X199.39Y-92.71
X201.93Y-92.71
X204.47Y-92.71
T4
X96.035Y-119.386
X96.035Y-129.546
X194.465Y-119.453
X194.465Y-129.613
T5
X92.02Y-69.92
X92.02Y-72.46
X92.02Y-75.0
X92.02Y-77.54
X92.02Y-80.08
X103.73Y-104.0
X106.27Y-104.0
X110.49Y-73.025
X110.49Y-75.565
X110.49Y-78.105
X119.38Y-73.025
X119.38Y-75.565
X119.38Y-78.105
X127.34Y-73.025
X127.34Y-75.565
X127.34Y-78.105
X135.09Y-73.025
X135.09Y-75.565
X135.09Y-78.105
X147.98Y-73.0
X147.98Y-75.54
X177.8Y-73.914
X180.34Y-73.914
X182.88Y-73.914
X185.42Y-73.914
X187.96Y-73.914
X194.31Y-73.914
X196.85Y-73.914
X199.39Y-73.914
X201.93Y-73.914
X204.47Y-73.914
T6
X131.05Y-120.82
X141.95Y-120.82
X149.55Y-120.82
X160.45Y-120.82
T7
X121.11Y-95.866
X121.11Y-112.126
T8
X141.54Y-131.105
X145.5Y-131.105
X149.46Y-131.105
T9
X108.735Y-115.576
X111.275Y-133.356
X118.895Y-133.356
X171.605Y-115.643
X179.225Y-115.643
X181.765Y-133.423
T10
X97.75Y-106.21
T0
M30
