%TF.GenerationSoftware,KiCad,Pcbnew,5.99.0-unknown-47cb7f53fd~143~ubuntu20.04.1*%
%TF.CreationDate,2021-11-23T21:24:53-08:00*%
%TF.ProjectId,acorn-odrive-interface,61636f72-6e2d-46f6-9472-6976652d696e,rev?*%
%TF.SameCoordinates,Original*%
%TF.FileFunction,Legend,Top*%
%TF.FilePolarity,Positive*%
%FSLAX46Y46*%
G04 Gerber Fmt 4.6, Leading zero omitted, Abs format (unit mm)*
G04 Created by KiCad (PCBNEW 5.99.0-unknown-47cb7f53fd~143~ubuntu20.04.1) date 2021-11-23 21:24:53*
%MOMM*%
%LPD*%
G01*
G04 APERTURE LIST*
G04 Aperture macros list*
%AMRoundRect*
0 Rectangle with rounded corners*
0 $1 Rounding radius*
0 $2 $3 $4 $5 $6 $7 $8 $9 X,Y pos of 4 corners*
0 Add a 4 corners polygon primitive as box body*
4,1,4,$2,$3,$4,$5,$6,$7,$8,$9,$2,$3,0*
0 Add four circle primitives for the rounded corners*
1,1,$1+$1,$2,$3*
1,1,$1+$1,$4,$5*
1,1,$1+$1,$6,$7*
1,1,$1+$1,$8,$9*
0 Add four rect primitives between the rounded corners*
20,1,$1+$1,$2,$3,$4,$5,0*
20,1,$1+$1,$4,$5,$6,$7,0*
20,1,$1+$1,$6,$7,$8,$9,0*
20,1,$1+$1,$8,$9,$2,$3,0*%
%AMFreePoly0*
4,1,22,0.550000,-0.750000,0.000000,-0.750000,0.000000,-0.745033,-0.079941,-0.743568,-0.215256,-0.701293,-0.333266,-0.622738,-0.424486,-0.514219,-0.481581,-0.384460,-0.499164,-0.250000,-0.500000,-0.250000,-0.500000,0.250000,-0.499164,0.250000,-0.499963,0.256109,-0.478152,0.396186,-0.417904,0.524511,-0.324060,0.630769,-0.204165,0.706417,-0.067858,0.745374,0.000000,0.744959,0.000000,0.750000,
0.550000,0.750000,0.550000,-0.750000,0.550000,-0.750000,$1*%
%AMFreePoly1*
4,1,20,0.000000,0.744959,0.073905,0.744508,0.209726,0.703889,0.328688,0.626782,0.421226,0.519385,0.479903,0.390333,0.500000,0.250000,0.500000,-0.250000,0.499851,-0.262216,0.476331,-0.402017,0.414519,-0.529596,0.319384,-0.634700,0.198574,-0.708877,0.061801,-0.746166,0.000000,-0.745033,0.000000,-0.750000,-0.550000,-0.750000,-0.550000,0.750000,0.000000,0.750000,0.000000,0.744959,
0.000000,0.744959,$1*%
%AMFreePoly2*
4,1,22,0.500000,-0.750000,0.000000,-0.750000,0.000000,-0.745033,-0.079941,-0.743568,-0.215256,-0.701293,-0.333266,-0.622738,-0.424486,-0.514219,-0.481581,-0.384460,-0.499164,-0.250000,-0.500000,-0.250000,-0.500000,0.250000,-0.499164,0.250000,-0.499963,0.256109,-0.478152,0.396186,-0.417904,0.524511,-0.324060,0.630769,-0.204165,0.706417,-0.067858,0.745374,0.000000,0.744959,0.000000,0.750000,
0.500000,0.750000,0.500000,-0.750000,0.500000,-0.750000,$1*%
%AMFreePoly3*
4,1,20,0.000000,0.744959,0.073905,0.744508,0.209726,0.703889,0.328688,0.626782,0.421226,0.519385,0.479903,0.390333,0.500000,0.250000,0.500000,-0.250000,0.499851,-0.262216,0.476331,-0.402017,0.414519,-0.529596,0.319384,-0.634700,0.198574,-0.708877,0.061801,-0.746166,0.000000,-0.745033,0.000000,-0.750000,-0.500000,-0.750000,-0.500000,0.750000,0.000000,0.750000,0.000000,0.744959,
0.000000,0.744959,$1*%
G04 Aperture macros list end*
%ADD10C,0.350000*%
%ADD11C,0.250000*%
%ADD12C,0.150000*%
%ADD13C,0.300000*%
%ADD14C,0.120000*%
%ADD15C,0.100000*%
%ADD16C,3.200000*%
%ADD17RoundRect,0.243750X-0.243750X-0.456250X0.243750X-0.456250X0.243750X0.456250X-0.243750X0.456250X0*%
%ADD18RoundRect,0.243750X0.243750X0.456250X-0.243750X0.456250X-0.243750X-0.456250X0.243750X-0.456250X0*%
%ADD19R,3.400000X1.800000*%
%ADD20RoundRect,0.243750X-0.456250X0.243750X-0.456250X-0.243750X0.456250X-0.243750X0.456250X0.243750X0*%
%ADD21RoundRect,0.250000X-0.845000X0.620000X-0.845000X-0.620000X0.845000X-0.620000X0.845000X0.620000X0*%
%ADD22O,2.190000X1.740000*%
%ADD23RoundRect,0.070000X-0.300000X0.650000X-0.300000X-0.650000X0.300000X-0.650000X0.300000X0.650000X0*%
%ADD24RoundRect,0.243750X0.456250X-0.243750X0.456250X0.243750X-0.456250X0.243750X-0.456250X-0.243750X0*%
%ADD25RoundRect,0.150000X-0.150000X0.825000X-0.150000X-0.825000X0.150000X-0.825000X0.150000X0.825000X0*%
%ADD26RoundRect,0.070000X-0.650000X-0.300000X0.650000X-0.300000X0.650000X0.300000X-0.650000X0.300000X0*%
%ADD27RoundRect,0.150000X0.662500X0.150000X-0.662500X0.150000X-0.662500X-0.150000X0.662500X-0.150000X0*%
%ADD28RoundRect,0.150000X0.150000X-0.725000X0.150000X0.725000X-0.150000X0.725000X-0.150000X-0.725000X0*%
%ADD29R,1.800000X3.400000*%
%ADD30C,3.250000*%
%ADD31R,1.500000X1.500000*%
%ADD32C,1.500000*%
%ADD33C,2.300000*%
%ADD34RoundRect,0.250000X0.620000X0.845000X-0.620000X0.845000X-0.620000X-0.845000X0.620000X-0.845000X0*%
%ADD35O,1.740000X2.190000*%
%ADD36FreePoly0,0.000000*%
%ADD37R,1.000000X1.500000*%
%ADD38FreePoly1,0.000000*%
%ADD39RoundRect,0.250000X-0.620000X-0.845000X0.620000X-0.845000X0.620000X0.845000X-0.620000X0.845000X0*%
%ADD40R,1.700000X1.700000*%
%ADD41O,1.700000X1.700000*%
%ADD42RoundRect,0.250000X0.625000X-0.375000X0.625000X0.375000X-0.625000X0.375000X-0.625000X-0.375000X0*%
%ADD43FreePoly2,180.000000*%
%ADD44FreePoly3,180.000000*%
%ADD45RoundRect,0.250000X-0.250000X-0.475000X0.250000X-0.475000X0.250000X0.475000X-0.250000X0.475000X0*%
%ADD46R,0.977900X0.508000*%
%ADD47RoundRect,0.250000X-0.450000X0.262500X-0.450000X-0.262500X0.450000X-0.262500X0.450000X0.262500X0*%
%ADD48C,2.616200*%
%ADD49C,1.600200*%
%ADD50RoundRect,0.250000X-1.137500X-0.550000X1.137500X-0.550000X1.137500X0.550000X-1.137500X0.550000X0*%
%ADD51RoundRect,0.250000X0.250000X0.475000X-0.250000X0.475000X-0.250000X-0.475000X0.250000X-0.475000X0*%
%ADD52R,0.650000X1.700000*%
%ADD53RoundRect,0.250000X0.845000X-0.620000X0.845000X0.620000X-0.845000X0.620000X-0.845000X-0.620000X0*%
%ADD54RoundRect,0.250000X-0.262500X-0.450000X0.262500X-0.450000X0.262500X0.450000X-0.262500X0.450000X0*%
%ADD55RoundRect,0.250000X-1.330000X-1.800000X1.330000X-1.800000X1.330000X1.800000X-1.330000X1.800000X0*%
%ADD56O,3.160000X4.100000*%
%ADD57R,2.500000X4.500000*%
%ADD58O,2.500000X4.500000*%
%ADD59RoundRect,0.250000X-0.550000X1.137500X-0.550000X-1.137500X0.550000X-1.137500X0.550000X1.137500X0*%
%ADD60C,6.500000*%
G04 APERTURE END LIST*
D10*
X144750000Y-91000000D02*
G75*
G03*
X144750000Y-91000000I-250000J0D01*
G01*
X109000000Y-82250000D02*
G75*
G03*
X109000000Y-82250000I-250000J0D01*
G01*
D11*
X138488095Y-84250000D02*
X138392857Y-84202380D01*
X138250000Y-84202380D01*
X138107142Y-84250000D01*
X138011904Y-84345238D01*
X137964285Y-84440476D01*
X137916666Y-84630952D01*
X137916666Y-84773809D01*
X137964285Y-84964285D01*
X138011904Y-85059523D01*
X138107142Y-85154761D01*
X138250000Y-85202380D01*
X138345238Y-85202380D01*
X138488095Y-85154761D01*
X138535714Y-85107142D01*
X138535714Y-84773809D01*
X138345238Y-84773809D01*
X138964285Y-85202380D02*
X138964285Y-84202380D01*
X139535714Y-85202380D01*
X139535714Y-84202380D01*
X140011904Y-85202380D02*
X140011904Y-84202380D01*
X140250000Y-84202380D01*
X140392857Y-84250000D01*
X140488095Y-84345238D01*
X140535714Y-84440476D01*
X140583333Y-84630952D01*
X140583333Y-84773809D01*
X140535714Y-84964285D01*
X140488095Y-85059523D01*
X140392857Y-85154761D01*
X140250000Y-85202380D01*
X140011904Y-85202380D01*
X108142857Y-80250000D02*
X108047619Y-80202380D01*
X107904761Y-80202380D01*
X107761904Y-80250000D01*
X107666666Y-80345238D01*
X107619047Y-80440476D01*
X107571428Y-80630952D01*
X107571428Y-80773809D01*
X107619047Y-80964285D01*
X107666666Y-81059523D01*
X107761904Y-81154761D01*
X107904761Y-81202380D01*
X108000000Y-81202380D01*
X108142857Y-81154761D01*
X108190476Y-81107142D01*
X108190476Y-80773809D01*
X108000000Y-80773809D01*
X108619047Y-81202380D02*
X108619047Y-80202380D01*
X109000000Y-80202380D01*
X109095238Y-80250000D01*
X109142857Y-80297619D01*
X109190476Y-80392857D01*
X109190476Y-80535714D01*
X109142857Y-80630952D01*
X109095238Y-80678571D01*
X109000000Y-80726190D01*
X108619047Y-80726190D01*
X109619047Y-81202380D02*
X109619047Y-80202380D01*
X110285714Y-80202380D02*
X110476190Y-80202380D01*
X110571428Y-80250000D01*
X110666666Y-80345238D01*
X110714285Y-80535714D01*
X110714285Y-80869047D01*
X110666666Y-81059523D01*
X110571428Y-81154761D01*
X110476190Y-81202380D01*
X110285714Y-81202380D01*
X110190476Y-81154761D01*
X110095238Y-81059523D01*
X110047619Y-80869047D01*
X110047619Y-80535714D01*
X110095238Y-80345238D01*
X110190476Y-80250000D01*
X110285714Y-80202380D01*
X110904761Y-81297619D02*
X111666666Y-81297619D01*
X111809523Y-80202380D02*
X112428571Y-80202380D01*
X112095238Y-80583333D01*
X112238095Y-80583333D01*
X112333333Y-80630952D01*
X112380952Y-80678571D01*
X112428571Y-80773809D01*
X112428571Y-81011904D01*
X112380952Y-81107142D01*
X112333333Y-81154761D01*
X112238095Y-81202380D01*
X111952380Y-81202380D01*
X111857142Y-81154761D01*
X111809523Y-81107142D01*
X117142857Y-80000000D02*
X117047619Y-79952380D01*
X116904761Y-79952380D01*
X116761904Y-80000000D01*
X116666666Y-80095238D01*
X116619047Y-80190476D01*
X116571428Y-80380952D01*
X116571428Y-80523809D01*
X116619047Y-80714285D01*
X116666666Y-80809523D01*
X116761904Y-80904761D01*
X116904761Y-80952380D01*
X117000000Y-80952380D01*
X117142857Y-80904761D01*
X117190476Y-80857142D01*
X117190476Y-80523809D01*
X117000000Y-80523809D01*
X117619047Y-80952380D02*
X117619047Y-79952380D01*
X118000000Y-79952380D01*
X118095238Y-80000000D01*
X118142857Y-80047619D01*
X118190476Y-80142857D01*
X118190476Y-80285714D01*
X118142857Y-80380952D01*
X118095238Y-80428571D01*
X118000000Y-80476190D01*
X117619047Y-80476190D01*
X118619047Y-80952380D02*
X118619047Y-79952380D01*
X119285714Y-79952380D02*
X119476190Y-79952380D01*
X119571428Y-80000000D01*
X119666666Y-80095238D01*
X119714285Y-80285714D01*
X119714285Y-80619047D01*
X119666666Y-80809523D01*
X119571428Y-80904761D01*
X119476190Y-80952380D01*
X119285714Y-80952380D01*
X119190476Y-80904761D01*
X119095238Y-80809523D01*
X119047619Y-80619047D01*
X119047619Y-80285714D01*
X119095238Y-80095238D01*
X119190476Y-80000000D01*
X119285714Y-79952380D01*
X119904761Y-81047619D02*
X120666666Y-81047619D01*
X121333333Y-80285714D02*
X121333333Y-80952380D01*
X121095238Y-79904761D02*
X120857142Y-80619047D01*
X121476190Y-80619047D01*
X125142857Y-80250000D02*
X125047619Y-80202380D01*
X124904761Y-80202380D01*
X124761904Y-80250000D01*
X124666666Y-80345238D01*
X124619047Y-80440476D01*
X124571428Y-80630952D01*
X124571428Y-80773809D01*
X124619047Y-80964285D01*
X124666666Y-81059523D01*
X124761904Y-81154761D01*
X124904761Y-81202380D01*
X125000000Y-81202380D01*
X125142857Y-81154761D01*
X125190476Y-81107142D01*
X125190476Y-80773809D01*
X125000000Y-80773809D01*
X125619047Y-81202380D02*
X125619047Y-80202380D01*
X126000000Y-80202380D01*
X126095238Y-80250000D01*
X126142857Y-80297619D01*
X126190476Y-80392857D01*
X126190476Y-80535714D01*
X126142857Y-80630952D01*
X126095238Y-80678571D01*
X126000000Y-80726190D01*
X125619047Y-80726190D01*
X126619047Y-81202380D02*
X126619047Y-80202380D01*
X127285714Y-80202380D02*
X127476190Y-80202380D01*
X127571428Y-80250000D01*
X127666666Y-80345238D01*
X127714285Y-80535714D01*
X127714285Y-80869047D01*
X127666666Y-81059523D01*
X127571428Y-81154761D01*
X127476190Y-81202380D01*
X127285714Y-81202380D01*
X127190476Y-81154761D01*
X127095238Y-81059523D01*
X127047619Y-80869047D01*
X127047619Y-80535714D01*
X127095238Y-80345238D01*
X127190476Y-80250000D01*
X127285714Y-80202380D01*
X127904761Y-81297619D02*
X128666666Y-81297619D01*
X129380952Y-80202380D02*
X128904761Y-80202380D01*
X128857142Y-80678571D01*
X128904761Y-80630952D01*
X129000000Y-80583333D01*
X129238095Y-80583333D01*
X129333333Y-80630952D01*
X129380952Y-80678571D01*
X129428571Y-80773809D01*
X129428571Y-81011904D01*
X129380952Y-81107142D01*
X129333333Y-81154761D01*
X129238095Y-81202380D01*
X129000000Y-81202380D01*
X128904761Y-81154761D01*
X128857142Y-81107142D01*
X132892857Y-80250000D02*
X132797619Y-80202380D01*
X132654761Y-80202380D01*
X132511904Y-80250000D01*
X132416666Y-80345238D01*
X132369047Y-80440476D01*
X132321428Y-80630952D01*
X132321428Y-80773809D01*
X132369047Y-80964285D01*
X132416666Y-81059523D01*
X132511904Y-81154761D01*
X132654761Y-81202380D01*
X132750000Y-81202380D01*
X132892857Y-81154761D01*
X132940476Y-81107142D01*
X132940476Y-80773809D01*
X132750000Y-80773809D01*
X133369047Y-81202380D02*
X133369047Y-80202380D01*
X133750000Y-80202380D01*
X133845238Y-80250000D01*
X133892857Y-80297619D01*
X133940476Y-80392857D01*
X133940476Y-80535714D01*
X133892857Y-80630952D01*
X133845238Y-80678571D01*
X133750000Y-80726190D01*
X133369047Y-80726190D01*
X134369047Y-81202380D02*
X134369047Y-80202380D01*
X135035714Y-80202380D02*
X135226190Y-80202380D01*
X135321428Y-80250000D01*
X135416666Y-80345238D01*
X135464285Y-80535714D01*
X135464285Y-80869047D01*
X135416666Y-81059523D01*
X135321428Y-81154761D01*
X135226190Y-81202380D01*
X135035714Y-81202380D01*
X134940476Y-81154761D01*
X134845238Y-81059523D01*
X134797619Y-80869047D01*
X134797619Y-80535714D01*
X134845238Y-80345238D01*
X134940476Y-80250000D01*
X135035714Y-80202380D01*
X135654761Y-81297619D02*
X136416666Y-81297619D01*
X137083333Y-80202380D02*
X136892857Y-80202380D01*
X136797619Y-80250000D01*
X136750000Y-80297619D01*
X136654761Y-80440476D01*
X136607142Y-80630952D01*
X136607142Y-81011904D01*
X136654761Y-81107142D01*
X136702380Y-81154761D01*
X136797619Y-81202380D01*
X136988095Y-81202380D01*
X137083333Y-81154761D01*
X137130952Y-81107142D01*
X137178571Y-81011904D01*
X137178571Y-80773809D01*
X137130952Y-80678571D01*
X137083333Y-80630952D01*
X136988095Y-80583333D01*
X136797619Y-80583333D01*
X136702380Y-80630952D01*
X136654761Y-80678571D01*
X136607142Y-80773809D01*
D12*
X96785714Y-102452380D02*
X96785714Y-101452380D01*
X97023809Y-101452380D01*
X97166666Y-101500000D01*
X97261904Y-101595238D01*
X97309523Y-101690476D01*
X97357142Y-101880952D01*
X97357142Y-102023809D01*
X97309523Y-102214285D01*
X97261904Y-102309523D01*
X97166666Y-102404761D01*
X97023809Y-102452380D01*
X96785714Y-102452380D01*
X98119047Y-101928571D02*
X97785714Y-101928571D01*
X97785714Y-102452380D02*
X97785714Y-101452380D01*
X98261904Y-101452380D01*
X98642857Y-101452380D02*
X98642857Y-102261904D01*
X98690476Y-102357142D01*
X98738095Y-102404761D01*
X98833333Y-102452380D01*
X99023809Y-102452380D01*
X99119047Y-102404761D01*
X99166666Y-102357142D01*
X99214285Y-102261904D01*
X99214285Y-101452380D01*
D11*
X96285714Y-69952380D02*
X95952380Y-69476190D01*
X95714285Y-69952380D02*
X95714285Y-68952380D01*
X96095238Y-68952380D01*
X96190476Y-69000000D01*
X96238095Y-69047619D01*
X96285714Y-69142857D01*
X96285714Y-69285714D01*
X96238095Y-69380952D01*
X96190476Y-69428571D01*
X96095238Y-69476190D01*
X95714285Y-69476190D01*
X96666666Y-69904761D02*
X96809523Y-69952380D01*
X97047619Y-69952380D01*
X97142857Y-69904761D01*
X97190476Y-69857142D01*
X97238095Y-69761904D01*
X97238095Y-69666666D01*
X97190476Y-69571428D01*
X97142857Y-69523809D01*
X97047619Y-69476190D01*
X96857142Y-69428571D01*
X96761904Y-69380952D01*
X96714285Y-69333333D01*
X96666666Y-69238095D01*
X96666666Y-69142857D01*
X96714285Y-69047619D01*
X96761904Y-69000000D01*
X96857142Y-68952380D01*
X97095238Y-68952380D01*
X97238095Y-69000000D01*
X97666666Y-69571428D02*
X98428571Y-69571428D01*
X99333333Y-69285714D02*
X99333333Y-69952380D01*
X99095238Y-68904761D02*
X98857142Y-69619047D01*
X99476190Y-69619047D01*
X100000000Y-69380952D02*
X99904761Y-69333333D01*
X99857142Y-69285714D01*
X99809523Y-69190476D01*
X99809523Y-69142857D01*
X99857142Y-69047619D01*
X99904761Y-69000000D01*
X100000000Y-68952380D01*
X100190476Y-68952380D01*
X100285714Y-69000000D01*
X100333333Y-69047619D01*
X100380952Y-69142857D01*
X100380952Y-69190476D01*
X100333333Y-69285714D01*
X100285714Y-69333333D01*
X100190476Y-69380952D01*
X100000000Y-69380952D01*
X99904761Y-69428571D01*
X99857142Y-69476190D01*
X99809523Y-69571428D01*
X99809523Y-69761904D01*
X99857142Y-69857142D01*
X99904761Y-69904761D01*
X100000000Y-69952380D01*
X100190476Y-69952380D01*
X100285714Y-69904761D01*
X100333333Y-69857142D01*
X100380952Y-69761904D01*
X100380952Y-69571428D01*
X100333333Y-69476190D01*
X100285714Y-69428571D01*
X100190476Y-69380952D01*
X101285714Y-68952380D02*
X100809523Y-68952380D01*
X100761904Y-69428571D01*
X100809523Y-69380952D01*
X100904761Y-69333333D01*
X101142857Y-69333333D01*
X101238095Y-69380952D01*
X101285714Y-69428571D01*
X101333333Y-69523809D01*
X101333333Y-69761904D01*
X101285714Y-69857142D01*
X101238095Y-69904761D01*
X101142857Y-69952380D01*
X100904761Y-69952380D01*
X100809523Y-69904761D01*
X100761904Y-69857142D01*
X206595238Y-122623571D02*
X206738095Y-122671190D01*
X206785714Y-122718809D01*
X206833333Y-122814047D01*
X206833333Y-122956904D01*
X206785714Y-123052142D01*
X206738095Y-123099761D01*
X206642857Y-123147380D01*
X206261904Y-123147380D01*
X206261904Y-122147380D01*
X206595238Y-122147380D01*
X206690476Y-122195000D01*
X206738095Y-122242619D01*
X206785714Y-122337857D01*
X206785714Y-122433095D01*
X206738095Y-122528333D01*
X206690476Y-122575952D01*
X206595238Y-122623571D01*
X206261904Y-122623571D01*
X207166666Y-122480714D02*
X207404761Y-123147380D01*
X207642857Y-122480714D02*
X207404761Y-123147380D01*
X207309523Y-123385476D01*
X207261904Y-123433095D01*
X207166666Y-123480714D01*
X208642857Y-122147380D02*
X209214285Y-122147380D01*
X208928571Y-123147380D02*
X208928571Y-122147380D01*
X210023809Y-123147380D02*
X209547619Y-123147380D01*
X209547619Y-122147380D01*
X210309523Y-122861666D02*
X210785714Y-122861666D01*
X210214285Y-123147380D02*
X210547619Y-122147380D01*
X210880952Y-123147380D01*
X202642857Y-124757380D02*
X202642857Y-124233571D01*
X202595238Y-124138333D01*
X202500000Y-124090714D01*
X202309523Y-124090714D01*
X202214285Y-124138333D01*
X202642857Y-124709761D02*
X202547619Y-124757380D01*
X202309523Y-124757380D01*
X202214285Y-124709761D01*
X202166666Y-124614523D01*
X202166666Y-124519285D01*
X202214285Y-124424047D01*
X202309523Y-124376428D01*
X202547619Y-124376428D01*
X202642857Y-124328809D01*
X203119047Y-124090714D02*
X203119047Y-124757380D01*
X203119047Y-124185952D02*
X203166666Y-124138333D01*
X203261904Y-124090714D01*
X203404761Y-124090714D01*
X203500000Y-124138333D01*
X203547619Y-124233571D01*
X203547619Y-124757380D01*
X204452380Y-124757380D02*
X204452380Y-123757380D01*
X204452380Y-124709761D02*
X204357142Y-124757380D01*
X204166666Y-124757380D01*
X204071428Y-124709761D01*
X204023809Y-124662142D01*
X203976190Y-124566904D01*
X203976190Y-124281190D01*
X204023809Y-124185952D01*
X204071428Y-124138333D01*
X204166666Y-124090714D01*
X204357142Y-124090714D01*
X204452380Y-124138333D01*
X205547619Y-123757380D02*
X206119047Y-123757380D01*
X205833333Y-124757380D02*
X205833333Y-123757380D01*
X206357142Y-124090714D02*
X206547619Y-124757380D01*
X206738095Y-124281190D01*
X206928571Y-124757380D01*
X207119047Y-124090714D01*
X207500000Y-124757380D02*
X207500000Y-124090714D01*
X207500000Y-123757380D02*
X207452380Y-123805000D01*
X207500000Y-123852619D01*
X207547619Y-123805000D01*
X207500000Y-123757380D01*
X207500000Y-123852619D01*
X207928571Y-124709761D02*
X208023809Y-124757380D01*
X208214285Y-124757380D01*
X208309523Y-124709761D01*
X208357142Y-124614523D01*
X208357142Y-124566904D01*
X208309523Y-124471666D01*
X208214285Y-124424047D01*
X208071428Y-124424047D01*
X207976190Y-124376428D01*
X207928571Y-124281190D01*
X207928571Y-124233571D01*
X207976190Y-124138333D01*
X208071428Y-124090714D01*
X208214285Y-124090714D01*
X208309523Y-124138333D01*
X208642857Y-124090714D02*
X209023809Y-124090714D01*
X208785714Y-123757380D02*
X208785714Y-124614523D01*
X208833333Y-124709761D01*
X208928571Y-124757380D01*
X209023809Y-124757380D01*
X209738095Y-124709761D02*
X209642857Y-124757380D01*
X209452380Y-124757380D01*
X209357142Y-124709761D01*
X209309523Y-124614523D01*
X209309523Y-124233571D01*
X209357142Y-124138333D01*
X209452380Y-124090714D01*
X209642857Y-124090714D01*
X209738095Y-124138333D01*
X209785714Y-124233571D01*
X209785714Y-124328809D01*
X209309523Y-124424047D01*
X210642857Y-124757380D02*
X210642857Y-123757380D01*
X210642857Y-124709761D02*
X210547619Y-124757380D01*
X210357142Y-124757380D01*
X210261904Y-124709761D01*
X210214285Y-124662142D01*
X210166666Y-124566904D01*
X210166666Y-124281190D01*
X210214285Y-124185952D01*
X210261904Y-124138333D01*
X210357142Y-124090714D01*
X210547619Y-124090714D01*
X210642857Y-124138333D01*
X210976190Y-124090714D02*
X211357142Y-124090714D01*
X211119047Y-124757380D02*
X211119047Y-123900238D01*
X211166666Y-123805000D01*
X211261904Y-123757380D01*
X211357142Y-123757380D01*
X211690476Y-124757380D02*
X211690476Y-124090714D01*
X211690476Y-123757380D02*
X211642857Y-123805000D01*
X211690476Y-123852619D01*
X211738095Y-123805000D01*
X211690476Y-123757380D01*
X211690476Y-123852619D01*
X212547619Y-124709761D02*
X212452380Y-124757380D01*
X212261904Y-124757380D01*
X212166666Y-124709761D01*
X212119047Y-124614523D01*
X212119047Y-124233571D01*
X212166666Y-124138333D01*
X212261904Y-124090714D01*
X212452380Y-124090714D01*
X212547619Y-124138333D01*
X212595238Y-124233571D01*
X212595238Y-124328809D01*
X212119047Y-124424047D01*
X213166666Y-124757380D02*
X213071428Y-124709761D01*
X213023809Y-124614523D01*
X213023809Y-123757380D01*
X213976190Y-124757380D02*
X213976190Y-123757380D01*
X213976190Y-124709761D02*
X213880952Y-124757380D01*
X213690476Y-124757380D01*
X213595238Y-124709761D01*
X213547619Y-124662142D01*
X213500000Y-124566904D01*
X213500000Y-124281190D01*
X213547619Y-124185952D01*
X213595238Y-124138333D01*
X213690476Y-124090714D01*
X213880952Y-124090714D01*
X213976190Y-124138333D01*
X214404761Y-124709761D02*
X214500000Y-124757380D01*
X214690476Y-124757380D01*
X214785714Y-124709761D01*
X214833333Y-124614523D01*
X214833333Y-124566904D01*
X214785714Y-124471666D01*
X214690476Y-124424047D01*
X214547619Y-124424047D01*
X214452380Y-124376428D01*
X214404761Y-124281190D01*
X214404761Y-124233571D01*
X214452380Y-124138333D01*
X214547619Y-124090714D01*
X214690476Y-124090714D01*
X214785714Y-124138333D01*
X203904761Y-115751666D02*
X204380952Y-115751666D01*
X203809523Y-116037380D02*
X204142857Y-115037380D01*
X204476190Y-116037380D01*
X205238095Y-115989761D02*
X205142857Y-116037380D01*
X204952380Y-116037380D01*
X204857142Y-115989761D01*
X204809523Y-115942142D01*
X204761904Y-115846904D01*
X204761904Y-115561190D01*
X204809523Y-115465952D01*
X204857142Y-115418333D01*
X204952380Y-115370714D01*
X205142857Y-115370714D01*
X205238095Y-115418333D01*
X205809523Y-116037380D02*
X205714285Y-115989761D01*
X205666666Y-115942142D01*
X205619047Y-115846904D01*
X205619047Y-115561190D01*
X205666666Y-115465952D01*
X205714285Y-115418333D01*
X205809523Y-115370714D01*
X205952380Y-115370714D01*
X206047619Y-115418333D01*
X206095238Y-115465952D01*
X206142857Y-115561190D01*
X206142857Y-115846904D01*
X206095238Y-115942142D01*
X206047619Y-115989761D01*
X205952380Y-116037380D01*
X205809523Y-116037380D01*
X206571428Y-116037380D02*
X206571428Y-115370714D01*
X206571428Y-115561190D02*
X206619047Y-115465952D01*
X206666666Y-115418333D01*
X206761904Y-115370714D01*
X206857142Y-115370714D01*
X207190476Y-115370714D02*
X207190476Y-116037380D01*
X207190476Y-115465952D02*
X207238095Y-115418333D01*
X207333333Y-115370714D01*
X207476190Y-115370714D01*
X207571428Y-115418333D01*
X207619047Y-115513571D01*
X207619047Y-116037380D01*
X209047619Y-115037380D02*
X209238095Y-115037380D01*
X209333333Y-115085000D01*
X209428571Y-115180238D01*
X209476190Y-115370714D01*
X209476190Y-115704047D01*
X209428571Y-115894523D01*
X209333333Y-115989761D01*
X209238095Y-116037380D01*
X209047619Y-116037380D01*
X208952380Y-115989761D01*
X208857142Y-115894523D01*
X208809523Y-115704047D01*
X208809523Y-115370714D01*
X208857142Y-115180238D01*
X208952380Y-115085000D01*
X209047619Y-115037380D01*
X210333333Y-116037380D02*
X210333333Y-115037380D01*
X210333333Y-115989761D02*
X210238095Y-116037380D01*
X210047619Y-116037380D01*
X209952380Y-115989761D01*
X209904761Y-115942142D01*
X209857142Y-115846904D01*
X209857142Y-115561190D01*
X209904761Y-115465952D01*
X209952380Y-115418333D01*
X210047619Y-115370714D01*
X210238095Y-115370714D01*
X210333333Y-115418333D01*
X210809523Y-116037380D02*
X210809523Y-115370714D01*
X210809523Y-115561190D02*
X210857142Y-115465952D01*
X210904761Y-115418333D01*
X211000000Y-115370714D01*
X211095238Y-115370714D01*
X211428571Y-116037380D02*
X211428571Y-115370714D01*
X211428571Y-115037380D02*
X211380952Y-115085000D01*
X211428571Y-115132619D01*
X211476190Y-115085000D01*
X211428571Y-115037380D01*
X211428571Y-115132619D01*
X211809523Y-115370714D02*
X212047619Y-116037380D01*
X212285714Y-115370714D01*
X213047619Y-115989761D02*
X212952380Y-116037380D01*
X212761904Y-116037380D01*
X212666666Y-115989761D01*
X212619047Y-115894523D01*
X212619047Y-115513571D01*
X212666666Y-115418333D01*
X212761904Y-115370714D01*
X212952380Y-115370714D01*
X213047619Y-115418333D01*
X213095238Y-115513571D01*
X213095238Y-115608809D01*
X212619047Y-115704047D01*
X203428571Y-117647380D02*
X203428571Y-116647380D01*
X203904761Y-116980714D02*
X203904761Y-117647380D01*
X203904761Y-117075952D02*
X203952380Y-117028333D01*
X204047619Y-116980714D01*
X204190476Y-116980714D01*
X204285714Y-117028333D01*
X204333333Y-117123571D01*
X204333333Y-117647380D01*
X204666666Y-116980714D02*
X205047619Y-116980714D01*
X204809523Y-116647380D02*
X204809523Y-117504523D01*
X204857142Y-117599761D01*
X204952380Y-117647380D01*
X205047619Y-117647380D01*
X205761904Y-117599761D02*
X205666666Y-117647380D01*
X205476190Y-117647380D01*
X205380952Y-117599761D01*
X205333333Y-117504523D01*
X205333333Y-117123571D01*
X205380952Y-117028333D01*
X205476190Y-116980714D01*
X205666666Y-116980714D01*
X205761904Y-117028333D01*
X205809523Y-117123571D01*
X205809523Y-117218809D01*
X205333333Y-117314047D01*
X206238095Y-117647380D02*
X206238095Y-116980714D01*
X206238095Y-117171190D02*
X206285714Y-117075952D01*
X206333333Y-117028333D01*
X206428571Y-116980714D01*
X206523809Y-116980714D01*
X206714285Y-116980714D02*
X207095238Y-116980714D01*
X206857142Y-117647380D02*
X206857142Y-116790238D01*
X206904761Y-116695000D01*
X207000000Y-116647380D01*
X207095238Y-116647380D01*
X207857142Y-117647380D02*
X207857142Y-117123571D01*
X207809523Y-117028333D01*
X207714285Y-116980714D01*
X207523809Y-116980714D01*
X207428571Y-117028333D01*
X207857142Y-117599761D02*
X207761904Y-117647380D01*
X207523809Y-117647380D01*
X207428571Y-117599761D01*
X207380952Y-117504523D01*
X207380952Y-117409285D01*
X207428571Y-117314047D01*
X207523809Y-117266428D01*
X207761904Y-117266428D01*
X207857142Y-117218809D01*
X208761904Y-117599761D02*
X208666666Y-117647380D01*
X208476190Y-117647380D01*
X208380952Y-117599761D01*
X208333333Y-117552142D01*
X208285714Y-117456904D01*
X208285714Y-117171190D01*
X208333333Y-117075952D01*
X208380952Y-117028333D01*
X208476190Y-116980714D01*
X208666666Y-116980714D01*
X208761904Y-117028333D01*
X209571428Y-117599761D02*
X209476190Y-117647380D01*
X209285714Y-117647380D01*
X209190476Y-117599761D01*
X209142857Y-117504523D01*
X209142857Y-117123571D01*
X209190476Y-117028333D01*
X209285714Y-116980714D01*
X209476190Y-116980714D01*
X209571428Y-117028333D01*
X209619047Y-117123571D01*
X209619047Y-117218809D01*
X209142857Y-117314047D01*
X210666666Y-116647380D02*
X211000000Y-117647380D01*
X211333333Y-116647380D01*
X211571428Y-116647380D02*
X212190476Y-116647380D01*
X211857142Y-117028333D01*
X212000000Y-117028333D01*
X212095238Y-117075952D01*
X212142857Y-117123571D01*
X212190476Y-117218809D01*
X212190476Y-117456904D01*
X212142857Y-117552142D01*
X212095238Y-117599761D01*
X212000000Y-117647380D01*
X211714285Y-117647380D01*
X211619047Y-117599761D01*
X211571428Y-117552142D01*
X212619047Y-117552142D02*
X212666666Y-117599761D01*
X212619047Y-117647380D01*
X212571428Y-117599761D01*
X212619047Y-117552142D01*
X212619047Y-117647380D01*
X213285714Y-116647380D02*
X213380952Y-116647380D01*
X213476190Y-116695000D01*
X213523809Y-116742619D01*
X213571428Y-116837857D01*
X213619047Y-117028333D01*
X213619047Y-117266428D01*
X213571428Y-117456904D01*
X213523809Y-117552142D01*
X213476190Y-117599761D01*
X213380952Y-117647380D01*
X213285714Y-117647380D01*
X213190476Y-117599761D01*
X213142857Y-117552142D01*
X213095238Y-117456904D01*
X213047619Y-117266428D01*
X213047619Y-117028333D01*
X213095238Y-116837857D01*
X213142857Y-116742619D01*
X213190476Y-116695000D01*
X213285714Y-116647380D01*
X204666666Y-119162142D02*
X204619047Y-119209761D01*
X204476190Y-119257380D01*
X204380952Y-119257380D01*
X204238095Y-119209761D01*
X204142857Y-119114523D01*
X204095238Y-119019285D01*
X204047619Y-118828809D01*
X204047619Y-118685952D01*
X204095238Y-118495476D01*
X204142857Y-118400238D01*
X204238095Y-118305000D01*
X204380952Y-118257380D01*
X204476190Y-118257380D01*
X204619047Y-118305000D01*
X204666666Y-118352619D01*
X205666666Y-119162142D02*
X205619047Y-119209761D01*
X205476190Y-119257380D01*
X205380952Y-119257380D01*
X205238095Y-119209761D01*
X205142857Y-119114523D01*
X205095238Y-119019285D01*
X205047619Y-118828809D01*
X205047619Y-118685952D01*
X205095238Y-118495476D01*
X205142857Y-118400238D01*
X205238095Y-118305000D01*
X205380952Y-118257380D01*
X205476190Y-118257380D01*
X205619047Y-118305000D01*
X205666666Y-118352619D01*
X206285714Y-118257380D02*
X206380952Y-118257380D01*
X206476190Y-118305000D01*
X206523809Y-118352619D01*
X206571428Y-118447857D01*
X206619047Y-118638333D01*
X206619047Y-118876428D01*
X206571428Y-119066904D01*
X206523809Y-119162142D01*
X206476190Y-119209761D01*
X206380952Y-119257380D01*
X206285714Y-119257380D01*
X206190476Y-119209761D01*
X206142857Y-119162142D01*
X206095238Y-119066904D01*
X206047619Y-118876428D01*
X206047619Y-118638333D01*
X206095238Y-118447857D01*
X206142857Y-118352619D01*
X206190476Y-118305000D01*
X206285714Y-118257380D01*
X208285714Y-119257380D02*
X207809523Y-119257380D01*
X207809523Y-118257380D01*
X208619047Y-119257380D02*
X208619047Y-118590714D01*
X208619047Y-118257380D02*
X208571428Y-118305000D01*
X208619047Y-118352619D01*
X208666666Y-118305000D01*
X208619047Y-118257380D01*
X208619047Y-118352619D01*
X209523809Y-119209761D02*
X209428571Y-119257380D01*
X209238095Y-119257380D01*
X209142857Y-119209761D01*
X209095238Y-119162142D01*
X209047619Y-119066904D01*
X209047619Y-118781190D01*
X209095238Y-118685952D01*
X209142857Y-118638333D01*
X209238095Y-118590714D01*
X209428571Y-118590714D01*
X209523809Y-118638333D01*
X210333333Y-119209761D02*
X210238095Y-119257380D01*
X210047619Y-119257380D01*
X209952380Y-119209761D01*
X209904761Y-119114523D01*
X209904761Y-118733571D01*
X209952380Y-118638333D01*
X210047619Y-118590714D01*
X210238095Y-118590714D01*
X210333333Y-118638333D01*
X210380952Y-118733571D01*
X210380952Y-118828809D01*
X209904761Y-118924047D01*
X210809523Y-118590714D02*
X210809523Y-119257380D01*
X210809523Y-118685952D02*
X210857142Y-118638333D01*
X210952380Y-118590714D01*
X211095238Y-118590714D01*
X211190476Y-118638333D01*
X211238095Y-118733571D01*
X211238095Y-119257380D01*
X211666666Y-119209761D02*
X211761904Y-119257380D01*
X211952380Y-119257380D01*
X212047619Y-119209761D01*
X212095238Y-119114523D01*
X212095238Y-119066904D01*
X212047619Y-118971666D01*
X211952380Y-118924047D01*
X211809523Y-118924047D01*
X211714285Y-118876428D01*
X211666666Y-118781190D01*
X211666666Y-118733571D01*
X211714285Y-118638333D01*
X211809523Y-118590714D01*
X211952380Y-118590714D01*
X212047619Y-118638333D01*
X212904761Y-119209761D02*
X212809523Y-119257380D01*
X212619047Y-119257380D01*
X212523809Y-119209761D01*
X212476190Y-119114523D01*
X212476190Y-118733571D01*
X212523809Y-118638333D01*
X212619047Y-118590714D01*
X212809523Y-118590714D01*
X212904761Y-118638333D01*
X212952380Y-118733571D01*
X212952380Y-118828809D01*
X212476190Y-118924047D01*
X203880952Y-120867380D02*
X203404761Y-120867380D01*
X203404761Y-119867380D01*
X204357142Y-120867380D02*
X204261904Y-120819761D01*
X204214285Y-120772142D01*
X204166666Y-120676904D01*
X204166666Y-120391190D01*
X204214285Y-120295952D01*
X204261904Y-120248333D01*
X204357142Y-120200714D01*
X204500000Y-120200714D01*
X204595238Y-120248333D01*
X204642857Y-120295952D01*
X204690476Y-120391190D01*
X204690476Y-120676904D01*
X204642857Y-120772142D01*
X204595238Y-120819761D01*
X204500000Y-120867380D01*
X204357142Y-120867380D01*
X205023809Y-120200714D02*
X205261904Y-120867380D01*
X205500000Y-120200714D01*
X206261904Y-120819761D02*
X206166666Y-120867380D01*
X205976190Y-120867380D01*
X205880952Y-120819761D01*
X205833333Y-120724523D01*
X205833333Y-120343571D01*
X205880952Y-120248333D01*
X205976190Y-120200714D01*
X206166666Y-120200714D01*
X206261904Y-120248333D01*
X206309523Y-120343571D01*
X206309523Y-120438809D01*
X205833333Y-120534047D01*
X207500000Y-120343571D02*
X207833333Y-120343571D01*
X207976190Y-120867380D02*
X207500000Y-120867380D01*
X207500000Y-119867380D01*
X207976190Y-119867380D01*
X208309523Y-120200714D02*
X208547619Y-120867380D01*
X208785714Y-120200714D01*
X209547619Y-120819761D02*
X209452380Y-120867380D01*
X209261904Y-120867380D01*
X209166666Y-120819761D01*
X209119047Y-120724523D01*
X209119047Y-120343571D01*
X209166666Y-120248333D01*
X209261904Y-120200714D01*
X209452380Y-120200714D01*
X209547619Y-120248333D01*
X209595238Y-120343571D01*
X209595238Y-120438809D01*
X209119047Y-120534047D01*
X210023809Y-120867380D02*
X210023809Y-120200714D01*
X210023809Y-120391190D02*
X210071428Y-120295952D01*
X210119047Y-120248333D01*
X210214285Y-120200714D01*
X210309523Y-120200714D01*
X210547619Y-120200714D02*
X210785714Y-120867380D01*
X211023809Y-120200714D02*
X210785714Y-120867380D01*
X210690476Y-121105476D01*
X210642857Y-121153095D01*
X210547619Y-121200714D01*
X211547619Y-120867380D02*
X211452380Y-120819761D01*
X211404761Y-120772142D01*
X211357142Y-120676904D01*
X211357142Y-120391190D01*
X211404761Y-120295952D01*
X211452380Y-120248333D01*
X211547619Y-120200714D01*
X211690476Y-120200714D01*
X211785714Y-120248333D01*
X211833333Y-120295952D01*
X211880952Y-120391190D01*
X211880952Y-120676904D01*
X211833333Y-120772142D01*
X211785714Y-120819761D01*
X211690476Y-120867380D01*
X211547619Y-120867380D01*
X212309523Y-120200714D02*
X212309523Y-120867380D01*
X212309523Y-120295952D02*
X212357142Y-120248333D01*
X212452380Y-120200714D01*
X212595238Y-120200714D01*
X212690476Y-120248333D01*
X212738095Y-120343571D01*
X212738095Y-120867380D01*
X213595238Y-120819761D02*
X213500000Y-120867380D01*
X213309523Y-120867380D01*
X213214285Y-120819761D01*
X213166666Y-120724523D01*
X213166666Y-120343571D01*
X213214285Y-120248333D01*
X213309523Y-120200714D01*
X213500000Y-120200714D01*
X213595238Y-120248333D01*
X213642857Y-120343571D01*
X213642857Y-120438809D01*
X213166666Y-120534047D01*
X145095238Y-69928571D02*
X145428571Y-69928571D01*
X145571428Y-70452380D02*
X145095238Y-70452380D01*
X145095238Y-69452380D01*
X145571428Y-69452380D01*
X145952380Y-70404761D02*
X146095238Y-70452380D01*
X146333333Y-70452380D01*
X146428571Y-70404761D01*
X146476190Y-70357142D01*
X146523809Y-70261904D01*
X146523809Y-70166666D01*
X146476190Y-70071428D01*
X146428571Y-70023809D01*
X146333333Y-69976190D01*
X146142857Y-69928571D01*
X146047619Y-69880952D01*
X146000000Y-69833333D01*
X145952380Y-69738095D01*
X145952380Y-69642857D01*
X146000000Y-69547619D01*
X146047619Y-69500000D01*
X146142857Y-69452380D01*
X146380952Y-69452380D01*
X146523809Y-69500000D01*
X146857142Y-69452380D02*
X147095238Y-70452380D01*
X147285714Y-69738095D01*
X147476190Y-70452380D01*
X147714285Y-69452380D01*
X148095238Y-70452380D02*
X148095238Y-69452380D01*
X148428571Y-69452380D02*
X149000000Y-69452380D01*
X148714285Y-70452380D02*
X148714285Y-69452380D01*
X149904761Y-70357142D02*
X149857142Y-70404761D01*
X149714285Y-70452380D01*
X149619047Y-70452380D01*
X149476190Y-70404761D01*
X149380952Y-70309523D01*
X149333333Y-70214285D01*
X149285714Y-70023809D01*
X149285714Y-69880952D01*
X149333333Y-69690476D01*
X149380952Y-69595238D01*
X149476190Y-69500000D01*
X149619047Y-69452380D01*
X149714285Y-69452380D01*
X149857142Y-69500000D01*
X149904761Y-69547619D01*
X150333333Y-70452380D02*
X150333333Y-69452380D01*
X150333333Y-69928571D02*
X150904761Y-69928571D01*
X150904761Y-70452380D02*
X150904761Y-69452380D01*
X180309523Y-88952380D02*
X179833333Y-88952380D01*
X179785714Y-89428571D01*
X179833333Y-89380952D01*
X179928571Y-89333333D01*
X180166666Y-89333333D01*
X180261904Y-89380952D01*
X180309523Y-89428571D01*
X180357142Y-89523809D01*
X180357142Y-89761904D01*
X180309523Y-89857142D01*
X180261904Y-89904761D01*
X180166666Y-89952380D01*
X179928571Y-89952380D01*
X179833333Y-89904761D01*
X179785714Y-89857142D01*
X180642857Y-88952380D02*
X180976190Y-89952380D01*
X181309523Y-88952380D01*
D13*
X193250000Y-70178571D02*
X193250000Y-68678571D01*
X193750000Y-69750000D01*
X194250000Y-68678571D01*
X194250000Y-70178571D01*
X195250000Y-68678571D02*
X195392857Y-68678571D01*
X195535714Y-68750000D01*
X195607142Y-68821428D01*
X195678571Y-68964285D01*
X195750000Y-69250000D01*
X195750000Y-69607142D01*
X195678571Y-69892857D01*
X195607142Y-70035714D01*
X195535714Y-70107142D01*
X195392857Y-70178571D01*
X195250000Y-70178571D01*
X195107142Y-70107142D01*
X195035714Y-70035714D01*
X194964285Y-69892857D01*
X194892857Y-69607142D01*
X194892857Y-69250000D01*
X194964285Y-68964285D01*
X195035714Y-68821428D01*
X195107142Y-68750000D01*
X195250000Y-68678571D01*
X197535714Y-69392857D02*
X198035714Y-69392857D01*
X198250000Y-70178571D02*
X197535714Y-70178571D01*
X197535714Y-68678571D01*
X198250000Y-68678571D01*
X198892857Y-69178571D02*
X198892857Y-70178571D01*
X198892857Y-69321428D02*
X198964285Y-69250000D01*
X199107142Y-69178571D01*
X199321428Y-69178571D01*
X199464285Y-69250000D01*
X199535714Y-69392857D01*
X199535714Y-70178571D01*
X200892857Y-70107142D02*
X200750000Y-70178571D01*
X200464285Y-70178571D01*
X200321428Y-70107142D01*
X200250000Y-70035714D01*
X200178571Y-69892857D01*
X200178571Y-69464285D01*
X200250000Y-69321428D01*
X200321428Y-69250000D01*
X200464285Y-69178571D01*
X200750000Y-69178571D01*
X200892857Y-69250000D01*
X201750000Y-70178571D02*
X201607142Y-70107142D01*
X201535714Y-70035714D01*
X201464285Y-69892857D01*
X201464285Y-69464285D01*
X201535714Y-69321428D01*
X201607142Y-69250000D01*
X201750000Y-69178571D01*
X201964285Y-69178571D01*
X202107142Y-69250000D01*
X202178571Y-69321428D01*
X202250000Y-69464285D01*
X202250000Y-69892857D01*
X202178571Y-70035714D01*
X202107142Y-70107142D01*
X201964285Y-70178571D01*
X201750000Y-70178571D01*
X203535714Y-70178571D02*
X203535714Y-68678571D01*
X203535714Y-70107142D02*
X203392857Y-70178571D01*
X203107142Y-70178571D01*
X202964285Y-70107142D01*
X202892857Y-70035714D01*
X202821428Y-69892857D01*
X202821428Y-69464285D01*
X202892857Y-69321428D01*
X202964285Y-69250000D01*
X203107142Y-69178571D01*
X203392857Y-69178571D01*
X203535714Y-69250000D01*
X204821428Y-70107142D02*
X204678571Y-70178571D01*
X204392857Y-70178571D01*
X204250000Y-70107142D01*
X204178571Y-69964285D01*
X204178571Y-69392857D01*
X204250000Y-69250000D01*
X204392857Y-69178571D01*
X204678571Y-69178571D01*
X204821428Y-69250000D01*
X204892857Y-69392857D01*
X204892857Y-69535714D01*
X204178571Y-69678571D01*
X205535714Y-70178571D02*
X205535714Y-69178571D01*
X205535714Y-69464285D02*
X205607142Y-69321428D01*
X205678571Y-69250000D01*
X205821428Y-69178571D01*
X205964285Y-69178571D01*
X176500000Y-70178571D02*
X176500000Y-68678571D01*
X177000000Y-69750000D01*
X177500000Y-68678571D01*
X177500000Y-70178571D01*
X179000000Y-70178571D02*
X178142857Y-70178571D01*
X178571428Y-70178571D02*
X178571428Y-68678571D01*
X178428571Y-68892857D01*
X178285714Y-69035714D01*
X178142857Y-69107142D01*
X180785714Y-69392857D02*
X181285714Y-69392857D01*
X181500000Y-70178571D02*
X180785714Y-70178571D01*
X180785714Y-68678571D01*
X181500000Y-68678571D01*
X182142857Y-69178571D02*
X182142857Y-70178571D01*
X182142857Y-69321428D02*
X182214285Y-69250000D01*
X182357142Y-69178571D01*
X182571428Y-69178571D01*
X182714285Y-69250000D01*
X182785714Y-69392857D01*
X182785714Y-70178571D01*
X184142857Y-70107142D02*
X184000000Y-70178571D01*
X183714285Y-70178571D01*
X183571428Y-70107142D01*
X183500000Y-70035714D01*
X183428571Y-69892857D01*
X183428571Y-69464285D01*
X183500000Y-69321428D01*
X183571428Y-69250000D01*
X183714285Y-69178571D01*
X184000000Y-69178571D01*
X184142857Y-69250000D01*
X185000000Y-70178571D02*
X184857142Y-70107142D01*
X184785714Y-70035714D01*
X184714285Y-69892857D01*
X184714285Y-69464285D01*
X184785714Y-69321428D01*
X184857142Y-69250000D01*
X185000000Y-69178571D01*
X185214285Y-69178571D01*
X185357142Y-69250000D01*
X185428571Y-69321428D01*
X185500000Y-69464285D01*
X185500000Y-69892857D01*
X185428571Y-70035714D01*
X185357142Y-70107142D01*
X185214285Y-70178571D01*
X185000000Y-70178571D01*
X186785714Y-70178571D02*
X186785714Y-68678571D01*
X186785714Y-70107142D02*
X186642857Y-70178571D01*
X186357142Y-70178571D01*
X186214285Y-70107142D01*
X186142857Y-70035714D01*
X186071428Y-69892857D01*
X186071428Y-69464285D01*
X186142857Y-69321428D01*
X186214285Y-69250000D01*
X186357142Y-69178571D01*
X186642857Y-69178571D01*
X186785714Y-69250000D01*
X188071428Y-70107142D02*
X187928571Y-70178571D01*
X187642857Y-70178571D01*
X187500000Y-70107142D01*
X187428571Y-69964285D01*
X187428571Y-69392857D01*
X187500000Y-69250000D01*
X187642857Y-69178571D01*
X187928571Y-69178571D01*
X188071428Y-69250000D01*
X188142857Y-69392857D01*
X188142857Y-69535714D01*
X187428571Y-69678571D01*
X188785714Y-70178571D02*
X188785714Y-69178571D01*
X188785714Y-69464285D02*
X188857142Y-69321428D01*
X188928571Y-69250000D01*
X189071428Y-69178571D01*
X189214285Y-69178571D01*
D11*
X188809523Y-88952380D02*
X189428571Y-88952380D01*
X189095238Y-89333333D01*
X189238095Y-89333333D01*
X189333333Y-89380952D01*
X189380952Y-89428571D01*
X189428571Y-89523809D01*
X189428571Y-89761904D01*
X189380952Y-89857142D01*
X189333333Y-89904761D01*
X189238095Y-89952380D01*
X188952380Y-89952380D01*
X188857142Y-89904761D01*
X188809523Y-89857142D01*
X189761904Y-89285714D02*
X190000000Y-89952380D01*
X190238095Y-89285714D01*
X190523809Y-88952380D02*
X191142857Y-88952380D01*
X190809523Y-89333333D01*
X190952380Y-89333333D01*
X191047619Y-89380952D01*
X191095238Y-89428571D01*
X191142857Y-89523809D01*
X191142857Y-89761904D01*
X191095238Y-89857142D01*
X191047619Y-89904761D01*
X190952380Y-89952380D01*
X190666666Y-89952380D01*
X190571428Y-89904761D01*
X190523809Y-89857142D01*
X173559523Y-88952380D02*
X174178571Y-88952380D01*
X173845238Y-89333333D01*
X173988095Y-89333333D01*
X174083333Y-89380952D01*
X174130952Y-89428571D01*
X174178571Y-89523809D01*
X174178571Y-89761904D01*
X174130952Y-89857142D01*
X174083333Y-89904761D01*
X173988095Y-89952380D01*
X173702380Y-89952380D01*
X173607142Y-89904761D01*
X173559523Y-89857142D01*
X174511904Y-89285714D02*
X174750000Y-89952380D01*
X174988095Y-89285714D01*
X175273809Y-88952380D02*
X175892857Y-88952380D01*
X175559523Y-89333333D01*
X175702380Y-89333333D01*
X175797619Y-89380952D01*
X175845238Y-89428571D01*
X175892857Y-89523809D01*
X175892857Y-89761904D01*
X175845238Y-89857142D01*
X175797619Y-89904761D01*
X175702380Y-89952380D01*
X175416666Y-89952380D01*
X175321428Y-89904761D01*
X175273809Y-89857142D01*
X194309523Y-88952380D02*
X193833333Y-88952380D01*
X193785714Y-89428571D01*
X193833333Y-89380952D01*
X193928571Y-89333333D01*
X194166666Y-89333333D01*
X194261904Y-89380952D01*
X194309523Y-89428571D01*
X194357142Y-89523809D01*
X194357142Y-89761904D01*
X194309523Y-89857142D01*
X194261904Y-89904761D01*
X194166666Y-89952380D01*
X193928571Y-89952380D01*
X193833333Y-89904761D01*
X193785714Y-89857142D01*
X194642857Y-88952380D02*
X194976190Y-89952380D01*
X195309523Y-88952380D01*
X166595238Y-76849761D02*
X166500000Y-76897380D01*
X166309523Y-76897380D01*
X166214285Y-76849761D01*
X166166666Y-76754523D01*
X166166666Y-76373571D01*
X166214285Y-76278333D01*
X166309523Y-76230714D01*
X166500000Y-76230714D01*
X166595238Y-76278333D01*
X166642857Y-76373571D01*
X166642857Y-76468809D01*
X166166666Y-76564047D01*
X167023809Y-76849761D02*
X167119047Y-76897380D01*
X167309523Y-76897380D01*
X167404761Y-76849761D01*
X167452380Y-76754523D01*
X167452380Y-76706904D01*
X167404761Y-76611666D01*
X167309523Y-76564047D01*
X167166666Y-76564047D01*
X167071428Y-76516428D01*
X167023809Y-76421190D01*
X167023809Y-76373571D01*
X167071428Y-76278333D01*
X167166666Y-76230714D01*
X167309523Y-76230714D01*
X167404761Y-76278333D01*
X167738095Y-76230714D02*
X168119047Y-76230714D01*
X167880952Y-75897380D02*
X167880952Y-76754523D01*
X167928571Y-76849761D01*
X168023809Y-76897380D01*
X168119047Y-76897380D01*
X168595238Y-76897380D02*
X168500000Y-76849761D01*
X168452380Y-76802142D01*
X168404761Y-76706904D01*
X168404761Y-76421190D01*
X168452380Y-76325952D01*
X168500000Y-76278333D01*
X168595238Y-76230714D01*
X168738095Y-76230714D01*
X168833333Y-76278333D01*
X168880952Y-76325952D01*
X168928571Y-76421190D01*
X168928571Y-76706904D01*
X168880952Y-76802142D01*
X168833333Y-76849761D01*
X168738095Y-76897380D01*
X168595238Y-76897380D01*
X169357142Y-76230714D02*
X169357142Y-77230714D01*
X169357142Y-76278333D02*
X169452380Y-76230714D01*
X169642857Y-76230714D01*
X169738095Y-76278333D01*
X169785714Y-76325952D01*
X169833333Y-76421190D01*
X169833333Y-76706904D01*
X169785714Y-76802142D01*
X169738095Y-76849761D01*
X169642857Y-76897380D01*
X169452380Y-76897380D01*
X169357142Y-76849761D01*
X165690476Y-78507380D02*
X165690476Y-77507380D01*
X165690476Y-77888333D02*
X165785714Y-77840714D01*
X165976190Y-77840714D01*
X166071428Y-77888333D01*
X166119047Y-77935952D01*
X166166666Y-78031190D01*
X166166666Y-78316904D01*
X166119047Y-78412142D01*
X166071428Y-78459761D01*
X165976190Y-78507380D01*
X165785714Y-78507380D01*
X165690476Y-78459761D01*
X166500000Y-77840714D02*
X166738095Y-78507380D01*
X166976190Y-77840714D02*
X166738095Y-78507380D01*
X166642857Y-78745476D01*
X166595238Y-78793095D01*
X166500000Y-78840714D01*
X167357142Y-77840714D02*
X167357142Y-78840714D01*
X167357142Y-77888333D02*
X167452380Y-77840714D01*
X167642857Y-77840714D01*
X167738095Y-77888333D01*
X167785714Y-77935952D01*
X167833333Y-78031190D01*
X167833333Y-78316904D01*
X167785714Y-78412142D01*
X167738095Y-78459761D01*
X167642857Y-78507380D01*
X167452380Y-78507380D01*
X167357142Y-78459761D01*
X168690476Y-78507380D02*
X168690476Y-77983571D01*
X168642857Y-77888333D01*
X168547619Y-77840714D01*
X168357142Y-77840714D01*
X168261904Y-77888333D01*
X168690476Y-78459761D02*
X168595238Y-78507380D01*
X168357142Y-78507380D01*
X168261904Y-78459761D01*
X168214285Y-78364523D01*
X168214285Y-78269285D01*
X168261904Y-78174047D01*
X168357142Y-78126428D01*
X168595238Y-78126428D01*
X168690476Y-78078809D01*
X169119047Y-78459761D02*
X169214285Y-78507380D01*
X169404761Y-78507380D01*
X169500000Y-78459761D01*
X169547619Y-78364523D01*
X169547619Y-78316904D01*
X169500000Y-78221666D01*
X169404761Y-78174047D01*
X169261904Y-78174047D01*
X169166666Y-78126428D01*
X169119047Y-78031190D01*
X169119047Y-77983571D01*
X169166666Y-77888333D01*
X169261904Y-77840714D01*
X169404761Y-77840714D01*
X169500000Y-77888333D01*
X169928571Y-78459761D02*
X170023809Y-78507380D01*
X170214285Y-78507380D01*
X170309523Y-78459761D01*
X170357142Y-78364523D01*
X170357142Y-78316904D01*
X170309523Y-78221666D01*
X170214285Y-78174047D01*
X170071428Y-78174047D01*
X169976190Y-78126428D01*
X169928571Y-78031190D01*
X169928571Y-77983571D01*
X169976190Y-77888333D01*
X170071428Y-77840714D01*
X170214285Y-77840714D01*
X170309523Y-77888333D01*
X138809523Y-75202380D02*
X139428571Y-75202380D01*
X139095238Y-75583333D01*
X139238095Y-75583333D01*
X139333333Y-75630952D01*
X139380952Y-75678571D01*
X139428571Y-75773809D01*
X139428571Y-76011904D01*
X139380952Y-76107142D01*
X139333333Y-76154761D01*
X139238095Y-76202380D01*
X138952380Y-76202380D01*
X138857142Y-76154761D01*
X138809523Y-76107142D01*
X139761904Y-75535714D02*
X140000000Y-76202380D01*
X140238095Y-75535714D01*
X140523809Y-75202380D02*
X141142857Y-75202380D01*
X140809523Y-75583333D01*
X140952380Y-75583333D01*
X141047619Y-75630952D01*
X141095238Y-75678571D01*
X141142857Y-75773809D01*
X141142857Y-76011904D01*
X141095238Y-76107142D01*
X141047619Y-76154761D01*
X140952380Y-76202380D01*
X140666666Y-76202380D01*
X140571428Y-76154761D01*
X140523809Y-76107142D01*
X208738095Y-95000000D02*
X208642857Y-94952380D01*
X208500000Y-94952380D01*
X208357142Y-95000000D01*
X208261904Y-95095238D01*
X208214285Y-95190476D01*
X208166666Y-95380952D01*
X208166666Y-95523809D01*
X208214285Y-95714285D01*
X208261904Y-95809523D01*
X208357142Y-95904761D01*
X208500000Y-95952380D01*
X208595238Y-95952380D01*
X208738095Y-95904761D01*
X208785714Y-95857142D01*
X208785714Y-95523809D01*
X208595238Y-95523809D01*
X209214285Y-95952380D02*
X209214285Y-94952380D01*
X209785714Y-95952380D01*
X209785714Y-94952380D01*
X210261904Y-95952380D02*
X210261904Y-94952380D01*
X210500000Y-94952380D01*
X210642857Y-95000000D01*
X210738095Y-95095238D01*
X210785714Y-95190476D01*
X210833333Y-95380952D01*
X210833333Y-95523809D01*
X210785714Y-95714285D01*
X210738095Y-95809523D01*
X210642857Y-95904761D01*
X210500000Y-95952380D01*
X210261904Y-95952380D01*
X124916666Y-84702380D02*
X125250000Y-85702380D01*
X125583333Y-84702380D01*
X126488095Y-85607142D02*
X126440476Y-85654761D01*
X126297619Y-85702380D01*
X126202380Y-85702380D01*
X126059523Y-85654761D01*
X125964285Y-85559523D01*
X125916666Y-85464285D01*
X125869047Y-85273809D01*
X125869047Y-85130952D01*
X125916666Y-84940476D01*
X125964285Y-84845238D01*
X126059523Y-84750000D01*
X126202380Y-84702380D01*
X126297619Y-84702380D01*
X126440476Y-84750000D01*
X126488095Y-84797619D01*
X127488095Y-85607142D02*
X127440476Y-85654761D01*
X127297619Y-85702380D01*
X127202380Y-85702380D01*
X127059523Y-85654761D01*
X126964285Y-85559523D01*
X126916666Y-85464285D01*
X126869047Y-85273809D01*
X126869047Y-85130952D01*
X126916666Y-84940476D01*
X126964285Y-84845238D01*
X127059523Y-84750000D01*
X127202380Y-84702380D01*
X127297619Y-84702380D01*
X127440476Y-84750000D01*
X127488095Y-84797619D01*
X91333333Y-83166666D02*
X91809523Y-83166666D01*
X91238095Y-83452380D02*
X91571428Y-82452380D01*
X91904761Y-83452380D01*
X92095238Y-82452380D02*
X92428571Y-83452380D01*
X92761904Y-82452380D01*
X93666666Y-83357142D02*
X93619047Y-83404761D01*
X93476190Y-83452380D01*
X93380952Y-83452380D01*
X93238095Y-83404761D01*
X93142857Y-83309523D01*
X93095238Y-83214285D01*
X93047619Y-83023809D01*
X93047619Y-82880952D01*
X93095238Y-82690476D01*
X93142857Y-82595238D01*
X93238095Y-82500000D01*
X93380952Y-82452380D01*
X93476190Y-82452380D01*
X93619047Y-82500000D01*
X93666666Y-82547619D01*
X94666666Y-83357142D02*
X94619047Y-83404761D01*
X94476190Y-83452380D01*
X94380952Y-83452380D01*
X94238095Y-83404761D01*
X94142857Y-83309523D01*
X94095238Y-83214285D01*
X94047619Y-83023809D01*
X94047619Y-82880952D01*
X94095238Y-82690476D01*
X94142857Y-82595238D01*
X94238095Y-82500000D01*
X94380952Y-82452380D01*
X94476190Y-82452380D01*
X94619047Y-82500000D01*
X94666666Y-82547619D01*
X151845238Y-74952380D02*
X152083333Y-75952380D01*
X152273809Y-75238095D01*
X152464285Y-75952380D01*
X152702380Y-74952380D01*
X153511904Y-75952380D02*
X153511904Y-75428571D01*
X153464285Y-75333333D01*
X153369047Y-75285714D01*
X153178571Y-75285714D01*
X153083333Y-75333333D01*
X153511904Y-75904761D02*
X153416666Y-75952380D01*
X153178571Y-75952380D01*
X153083333Y-75904761D01*
X153035714Y-75809523D01*
X153035714Y-75714285D01*
X153083333Y-75619047D01*
X153178571Y-75571428D01*
X153416666Y-75571428D01*
X153511904Y-75523809D01*
X153845238Y-75285714D02*
X154226190Y-75285714D01*
X153988095Y-74952380D02*
X153988095Y-75809523D01*
X154035714Y-75904761D01*
X154130952Y-75952380D01*
X154226190Y-75952380D01*
X154988095Y-75904761D02*
X154892857Y-75952380D01*
X154702380Y-75952380D01*
X154607142Y-75904761D01*
X154559523Y-75857142D01*
X154511904Y-75761904D01*
X154511904Y-75476190D01*
X154559523Y-75380952D01*
X154607142Y-75333333D01*
X154702380Y-75285714D01*
X154892857Y-75285714D01*
X154988095Y-75333333D01*
X155416666Y-75952380D02*
X155416666Y-74952380D01*
X155845238Y-75952380D02*
X155845238Y-75428571D01*
X155797619Y-75333333D01*
X155702380Y-75285714D01*
X155559523Y-75285714D01*
X155464285Y-75333333D01*
X155416666Y-75380952D01*
X156750000Y-75952380D02*
X156750000Y-74952380D01*
X156750000Y-75904761D02*
X156654761Y-75952380D01*
X156464285Y-75952380D01*
X156369047Y-75904761D01*
X156321428Y-75857142D01*
X156273809Y-75761904D01*
X156273809Y-75476190D01*
X156321428Y-75380952D01*
X156369047Y-75333333D01*
X156464285Y-75285714D01*
X156654761Y-75285714D01*
X156750000Y-75333333D01*
X157369047Y-75952380D02*
X157273809Y-75904761D01*
X157226190Y-75857142D01*
X157178571Y-75761904D01*
X157178571Y-75476190D01*
X157226190Y-75380952D01*
X157273809Y-75333333D01*
X157369047Y-75285714D01*
X157511904Y-75285714D01*
X157607142Y-75333333D01*
X157654761Y-75380952D01*
X157702380Y-75476190D01*
X157702380Y-75761904D01*
X157654761Y-75857142D01*
X157607142Y-75904761D01*
X157511904Y-75952380D01*
X157369047Y-75952380D01*
X158559523Y-75285714D02*
X158559523Y-76095238D01*
X158511904Y-76190476D01*
X158464285Y-76238095D01*
X158369047Y-76285714D01*
X158226190Y-76285714D01*
X158130952Y-76238095D01*
X158559523Y-75904761D02*
X158464285Y-75952380D01*
X158273809Y-75952380D01*
X158178571Y-75904761D01*
X158130952Y-75857142D01*
X158083333Y-75761904D01*
X158083333Y-75476190D01*
X158130952Y-75380952D01*
X158178571Y-75333333D01*
X158273809Y-75285714D01*
X158464285Y-75285714D01*
X158559523Y-75333333D01*
X139238095Y-72500000D02*
X139142857Y-72452380D01*
X139000000Y-72452380D01*
X138857142Y-72500000D01*
X138761904Y-72595238D01*
X138714285Y-72690476D01*
X138666666Y-72880952D01*
X138666666Y-73023809D01*
X138714285Y-73214285D01*
X138761904Y-73309523D01*
X138857142Y-73404761D01*
X139000000Y-73452380D01*
X139095238Y-73452380D01*
X139238095Y-73404761D01*
X139285714Y-73357142D01*
X139285714Y-73023809D01*
X139095238Y-73023809D01*
X139714285Y-73452380D02*
X139714285Y-72452380D01*
X140285714Y-73452380D01*
X140285714Y-72452380D01*
X140761904Y-73452380D02*
X140761904Y-72452380D01*
X141000000Y-72452380D01*
X141142857Y-72500000D01*
X141238095Y-72595238D01*
X141285714Y-72690476D01*
X141333333Y-72880952D01*
X141333333Y-73023809D01*
X141285714Y-73214285D01*
X141238095Y-73309523D01*
X141142857Y-73404761D01*
X141000000Y-73452380D01*
X140761904Y-73452380D01*
D12*
X113333333Y-85857142D02*
X113285714Y-85904761D01*
X113142857Y-85952380D01*
X113047619Y-85952380D01*
X112904761Y-85904761D01*
X112809523Y-85809523D01*
X112761904Y-85714285D01*
X112714285Y-85523809D01*
X112714285Y-85380952D01*
X112761904Y-85190476D01*
X112809523Y-85095238D01*
X112904761Y-85000000D01*
X113047619Y-84952380D01*
X113142857Y-84952380D01*
X113285714Y-85000000D01*
X113333333Y-85047619D01*
X113666666Y-84952380D02*
X114285714Y-84952380D01*
X113952380Y-85333333D01*
X114095238Y-85333333D01*
X114190476Y-85380952D01*
X114238095Y-85428571D01*
X114285714Y-85523809D01*
X114285714Y-85761904D01*
X114238095Y-85857142D01*
X114190476Y-85904761D01*
X114095238Y-85952380D01*
X113809523Y-85952380D01*
X113714285Y-85904761D01*
X113666666Y-85857142D01*
X119083333Y-86107142D02*
X119035714Y-86154761D01*
X118892857Y-86202380D01*
X118797619Y-86202380D01*
X118654761Y-86154761D01*
X118559523Y-86059523D01*
X118511904Y-85964285D01*
X118464285Y-85773809D01*
X118464285Y-85630952D01*
X118511904Y-85440476D01*
X118559523Y-85345238D01*
X118654761Y-85250000D01*
X118797619Y-85202380D01*
X118892857Y-85202380D01*
X119035714Y-85250000D01*
X119083333Y-85297619D01*
X119940476Y-85535714D02*
X119940476Y-86202380D01*
X119702380Y-85154761D02*
X119464285Y-85869047D01*
X120083333Y-85869047D01*
X141833333Y-91202380D02*
X141500000Y-90726190D01*
X141261904Y-91202380D02*
X141261904Y-90202380D01*
X141642857Y-90202380D01*
X141738095Y-90250000D01*
X141785714Y-90297619D01*
X141833333Y-90392857D01*
X141833333Y-90535714D01*
X141785714Y-90630952D01*
X141738095Y-90678571D01*
X141642857Y-90726190D01*
X141261904Y-90726190D01*
X142214285Y-90297619D02*
X142261904Y-90250000D01*
X142357142Y-90202380D01*
X142595238Y-90202380D01*
X142690476Y-90250000D01*
X142738095Y-90297619D01*
X142785714Y-90392857D01*
X142785714Y-90488095D01*
X142738095Y-90630952D01*
X142166666Y-91202380D01*
X142785714Y-91202380D01*
X168333333Y-87952380D02*
X168000000Y-87476190D01*
X167761904Y-87952380D02*
X167761904Y-86952380D01*
X168142857Y-86952380D01*
X168238095Y-87000000D01*
X168285714Y-87047619D01*
X168333333Y-87142857D01*
X168333333Y-87285714D01*
X168285714Y-87380952D01*
X168238095Y-87428571D01*
X168142857Y-87476190D01*
X167761904Y-87476190D01*
X169285714Y-87952380D02*
X168714285Y-87952380D01*
X169000000Y-87952380D02*
X169000000Y-86952380D01*
X168904761Y-87095238D01*
X168809523Y-87190476D01*
X168714285Y-87238095D01*
X113916666Y-79452380D02*
X113916666Y-80166666D01*
X113869047Y-80309523D01*
X113773809Y-80404761D01*
X113630952Y-80452380D01*
X113535714Y-80452380D01*
X114869047Y-79452380D02*
X114392857Y-79452380D01*
X114345238Y-79928571D01*
X114392857Y-79880952D01*
X114488095Y-79833333D01*
X114726190Y-79833333D01*
X114821428Y-79880952D01*
X114869047Y-79928571D01*
X114916666Y-80023809D01*
X114916666Y-80261904D01*
X114869047Y-80357142D01*
X114821428Y-80404761D01*
X114726190Y-80452380D01*
X114488095Y-80452380D01*
X114392857Y-80404761D01*
X114345238Y-80357142D01*
X122916666Y-79202380D02*
X122916666Y-79916666D01*
X122869047Y-80059523D01*
X122773809Y-80154761D01*
X122630952Y-80202380D01*
X122535714Y-80202380D01*
X123821428Y-79202380D02*
X123630952Y-79202380D01*
X123535714Y-79250000D01*
X123488095Y-79297619D01*
X123392857Y-79440476D01*
X123345238Y-79630952D01*
X123345238Y-80011904D01*
X123392857Y-80107142D01*
X123440476Y-80154761D01*
X123535714Y-80202380D01*
X123726190Y-80202380D01*
X123821428Y-80154761D01*
X123869047Y-80107142D01*
X123916666Y-80011904D01*
X123916666Y-79773809D01*
X123869047Y-79678571D01*
X123821428Y-79630952D01*
X123726190Y-79583333D01*
X123535714Y-79583333D01*
X123440476Y-79630952D01*
X123392857Y-79678571D01*
X123345238Y-79773809D01*
X130666666Y-79202380D02*
X130666666Y-79916666D01*
X130619047Y-80059523D01*
X130523809Y-80154761D01*
X130380952Y-80202380D01*
X130285714Y-80202380D01*
X131190476Y-80202380D02*
X131380952Y-80202380D01*
X131476190Y-80154761D01*
X131523809Y-80107142D01*
X131619047Y-79964285D01*
X131666666Y-79773809D01*
X131666666Y-79392857D01*
X131619047Y-79297619D01*
X131571428Y-79250000D01*
X131476190Y-79202380D01*
X131285714Y-79202380D01*
X131190476Y-79250000D01*
X131142857Y-79297619D01*
X131095238Y-79392857D01*
X131095238Y-79630952D01*
X131142857Y-79726190D01*
X131190476Y-79773809D01*
X131285714Y-79821428D01*
X131476190Y-79821428D01*
X131571428Y-79773809D01*
X131619047Y-79726190D01*
X131666666Y-79630952D01*
X138440476Y-79202380D02*
X138440476Y-79916666D01*
X138392857Y-80059523D01*
X138297619Y-80154761D01*
X138154761Y-80202380D01*
X138059523Y-80202380D01*
X139440476Y-80202380D02*
X138869047Y-80202380D01*
X139154761Y-80202380D02*
X139154761Y-79202380D01*
X139059523Y-79345238D01*
X138964285Y-79440476D01*
X138869047Y-79488095D01*
X140059523Y-79202380D02*
X140154761Y-79202380D01*
X140250000Y-79250000D01*
X140297619Y-79297619D01*
X140345238Y-79392857D01*
X140392857Y-79583333D01*
X140392857Y-79821428D01*
X140345238Y-80011904D01*
X140297619Y-80107142D01*
X140250000Y-80154761D01*
X140154761Y-80202380D01*
X140059523Y-80202380D01*
X139964285Y-80154761D01*
X139916666Y-80107142D01*
X139869047Y-80011904D01*
X139821428Y-79821428D01*
X139821428Y-79583333D01*
X139869047Y-79392857D01*
X139916666Y-79297619D01*
X139964285Y-79250000D01*
X140059523Y-79202380D01*
X109833333Y-88857142D02*
X109785714Y-88904761D01*
X109642857Y-88952380D01*
X109547619Y-88952380D01*
X109404761Y-88904761D01*
X109309523Y-88809523D01*
X109261904Y-88714285D01*
X109214285Y-88523809D01*
X109214285Y-88380952D01*
X109261904Y-88190476D01*
X109309523Y-88095238D01*
X109404761Y-88000000D01*
X109547619Y-87952380D01*
X109642857Y-87952380D01*
X109785714Y-88000000D01*
X109833333Y-88047619D01*
X110166666Y-87952380D02*
X110833333Y-87952380D01*
X110404761Y-88952380D01*
X103311904Y-79221130D02*
X103311904Y-78221130D01*
X103550000Y-78221130D01*
X103692857Y-78268750D01*
X103788095Y-78363988D01*
X103835714Y-78459226D01*
X103883333Y-78649702D01*
X103883333Y-78792559D01*
X103835714Y-78983035D01*
X103788095Y-79078273D01*
X103692857Y-79173511D01*
X103550000Y-79221130D01*
X103311904Y-79221130D01*
X104788095Y-78221130D02*
X104311904Y-78221130D01*
X104264285Y-78697321D01*
X104311904Y-78649702D01*
X104407142Y-78602083D01*
X104645238Y-78602083D01*
X104740476Y-78649702D01*
X104788095Y-78697321D01*
X104835714Y-78792559D01*
X104835714Y-79030654D01*
X104788095Y-79125892D01*
X104740476Y-79173511D01*
X104645238Y-79221130D01*
X104407142Y-79221130D01*
X104311904Y-79173511D01*
X104264285Y-79125892D01*
X97383333Y-75721130D02*
X97050000Y-75244940D01*
X96811904Y-75721130D02*
X96811904Y-74721130D01*
X97192857Y-74721130D01*
X97288095Y-74768750D01*
X97335714Y-74816369D01*
X97383333Y-74911607D01*
X97383333Y-75054464D01*
X97335714Y-75149702D01*
X97288095Y-75197321D01*
X97192857Y-75244940D01*
X96811904Y-75244940D01*
X98288095Y-74721130D02*
X97811904Y-74721130D01*
X97764285Y-75197321D01*
X97811904Y-75149702D01*
X97907142Y-75102083D01*
X98145238Y-75102083D01*
X98240476Y-75149702D01*
X98288095Y-75197321D01*
X98335714Y-75292559D01*
X98335714Y-75530654D01*
X98288095Y-75625892D01*
X98240476Y-75673511D01*
X98145238Y-75721130D01*
X97907142Y-75721130D01*
X97811904Y-75673511D01*
X97764285Y-75625892D01*
X100883333Y-73071130D02*
X100550000Y-72594940D01*
X100311904Y-73071130D02*
X100311904Y-72071130D01*
X100692857Y-72071130D01*
X100788095Y-72118750D01*
X100835714Y-72166369D01*
X100883333Y-72261607D01*
X100883333Y-72404464D01*
X100835714Y-72499702D01*
X100788095Y-72547321D01*
X100692857Y-72594940D01*
X100311904Y-72594940D01*
X101740476Y-72071130D02*
X101550000Y-72071130D01*
X101454761Y-72118750D01*
X101407142Y-72166369D01*
X101311904Y-72309226D01*
X101264285Y-72499702D01*
X101264285Y-72880654D01*
X101311904Y-72975892D01*
X101359523Y-73023511D01*
X101454761Y-73071130D01*
X101645238Y-73071130D01*
X101740476Y-73023511D01*
X101788095Y-72975892D01*
X101835714Y-72880654D01*
X101835714Y-72642559D01*
X101788095Y-72547321D01*
X101740476Y-72499702D01*
X101645238Y-72452083D01*
X101454761Y-72452083D01*
X101359523Y-72499702D01*
X101311904Y-72547321D01*
X101264285Y-72642559D01*
X103883333Y-73221130D02*
X103550000Y-72744940D01*
X103311904Y-73221130D02*
X103311904Y-72221130D01*
X103692857Y-72221130D01*
X103788095Y-72268750D01*
X103835714Y-72316369D01*
X103883333Y-72411607D01*
X103883333Y-72554464D01*
X103835714Y-72649702D01*
X103788095Y-72697321D01*
X103692857Y-72744940D01*
X103311904Y-72744940D01*
X104216666Y-72221130D02*
X104883333Y-72221130D01*
X104454761Y-73221130D01*
X94133334Y-89702380D02*
X93800001Y-89226190D01*
X93561905Y-89702380D02*
X93561905Y-88702380D01*
X93942858Y-88702380D01*
X94038096Y-88750000D01*
X94085715Y-88797619D01*
X94133334Y-88892857D01*
X94133334Y-89035714D01*
X94085715Y-89130952D01*
X94038096Y-89178571D01*
X93942858Y-89226190D01*
X93561905Y-89226190D01*
X94704762Y-89130952D02*
X94609524Y-89083333D01*
X94561905Y-89035714D01*
X94514286Y-88940476D01*
X94514286Y-88892857D01*
X94561905Y-88797619D01*
X94609524Y-88750000D01*
X94704762Y-88702380D01*
X94895239Y-88702380D01*
X94990477Y-88750000D01*
X95038096Y-88797619D01*
X95085715Y-88892857D01*
X95085715Y-88940476D01*
X95038096Y-89035714D01*
X94990477Y-89083333D01*
X94895239Y-89130952D01*
X94704762Y-89130952D01*
X94609524Y-89178571D01*
X94561905Y-89226190D01*
X94514286Y-89321428D01*
X94514286Y-89511904D01*
X94561905Y-89607142D01*
X94609524Y-89654761D01*
X94704762Y-89702380D01*
X94895239Y-89702380D01*
X94990477Y-89654761D01*
X95038096Y-89607142D01*
X95085715Y-89511904D01*
X95085715Y-89321428D01*
X95038096Y-89226190D01*
X94990477Y-89178571D01*
X94895239Y-89130952D01*
X96583333Y-89702380D02*
X96250000Y-89226190D01*
X96011904Y-89702380D02*
X96011904Y-88702380D01*
X96392857Y-88702380D01*
X96488095Y-88750000D01*
X96535714Y-88797619D01*
X96583333Y-88892857D01*
X96583333Y-89035714D01*
X96535714Y-89130952D01*
X96488095Y-89178571D01*
X96392857Y-89226190D01*
X96011904Y-89226190D01*
X97059523Y-89702380D02*
X97250000Y-89702380D01*
X97345238Y-89654761D01*
X97392857Y-89607142D01*
X97488095Y-89464285D01*
X97535714Y-89273809D01*
X97535714Y-88892857D01*
X97488095Y-88797619D01*
X97440476Y-88750000D01*
X97345238Y-88702380D01*
X97154761Y-88702380D01*
X97059523Y-88750000D01*
X97011904Y-88797619D01*
X96964285Y-88892857D01*
X96964285Y-89130952D01*
X97011904Y-89226190D01*
X97059523Y-89273809D01*
X97154761Y-89321428D01*
X97345238Y-89321428D01*
X97440476Y-89273809D01*
X97488095Y-89226190D01*
X97535714Y-89130952D01*
X97107142Y-81952380D02*
X96773809Y-81476190D01*
X96535714Y-81952380D02*
X96535714Y-80952380D01*
X96916666Y-80952380D01*
X97011904Y-81000000D01*
X97059523Y-81047619D01*
X97107142Y-81142857D01*
X97107142Y-81285714D01*
X97059523Y-81380952D01*
X97011904Y-81428571D01*
X96916666Y-81476190D01*
X96535714Y-81476190D01*
X98059523Y-81952380D02*
X97488095Y-81952380D01*
X97773809Y-81952380D02*
X97773809Y-80952380D01*
X97678571Y-81095238D01*
X97583333Y-81190476D01*
X97488095Y-81238095D01*
X98678571Y-80952380D02*
X98773809Y-80952380D01*
X98869047Y-81000000D01*
X98916666Y-81047619D01*
X98964285Y-81142857D01*
X99011904Y-81333333D01*
X99011904Y-81571428D01*
X98964285Y-81761904D01*
X98916666Y-81857142D01*
X98869047Y-81904761D01*
X98773809Y-81952380D01*
X98678571Y-81952380D01*
X98583333Y-81904761D01*
X98535714Y-81857142D01*
X98488095Y-81761904D01*
X98440476Y-81571428D01*
X98440476Y-81333333D01*
X98488095Y-81142857D01*
X98535714Y-81047619D01*
X98583333Y-81000000D01*
X98678571Y-80952380D01*
X104488095Y-80452380D02*
X104488095Y-81261904D01*
X104535714Y-81357142D01*
X104583333Y-81404761D01*
X104678571Y-81452380D01*
X104869047Y-81452380D01*
X104964285Y-81404761D01*
X105011904Y-81357142D01*
X105059523Y-81261904D01*
X105059523Y-80452380D01*
X105488095Y-80547619D02*
X105535714Y-80500000D01*
X105630952Y-80452380D01*
X105869047Y-80452380D01*
X105964285Y-80500000D01*
X106011904Y-80547619D01*
X106059523Y-80642857D01*
X106059523Y-80738095D01*
X106011904Y-80880952D01*
X105440476Y-81452380D01*
X106059523Y-81452380D01*
X99511904Y-89952380D02*
X99511904Y-88952380D01*
X99750000Y-88952380D01*
X99892857Y-89000000D01*
X99988095Y-89095238D01*
X100035714Y-89190476D01*
X100083333Y-89380952D01*
X100083333Y-89523809D01*
X100035714Y-89714285D01*
X99988095Y-89809523D01*
X99892857Y-89904761D01*
X99750000Y-89952380D01*
X99511904Y-89952380D01*
X100940476Y-89285714D02*
X100940476Y-89952380D01*
X100702380Y-88904761D02*
X100464285Y-89619047D01*
X101083333Y-89619047D01*
X160738095Y-87702380D02*
X160738095Y-88511904D01*
X160785714Y-88607142D01*
X160833333Y-88654761D01*
X160928571Y-88702380D01*
X161119047Y-88702380D01*
X161214285Y-88654761D01*
X161261904Y-88607142D01*
X161309523Y-88511904D01*
X161309523Y-87702380D01*
X162309523Y-88702380D02*
X161738095Y-88702380D01*
X162023809Y-88702380D02*
X162023809Y-87702380D01*
X161928571Y-87845238D01*
X161833333Y-87940476D01*
X161738095Y-87988095D01*
X155333333Y-91357142D02*
X155285714Y-91404761D01*
X155142857Y-91452380D01*
X155047619Y-91452380D01*
X154904761Y-91404761D01*
X154809523Y-91309523D01*
X154761904Y-91214285D01*
X154714285Y-91023809D01*
X154714285Y-90880952D01*
X154761904Y-90690476D01*
X154809523Y-90595238D01*
X154904761Y-90500000D01*
X155047619Y-90452380D01*
X155142857Y-90452380D01*
X155285714Y-90500000D01*
X155333333Y-90547619D01*
X156238095Y-90452380D02*
X155761904Y-90452380D01*
X155714285Y-90928571D01*
X155761904Y-90880952D01*
X155857142Y-90833333D01*
X156095238Y-90833333D01*
X156190476Y-90880952D01*
X156238095Y-90928571D01*
X156285714Y-91023809D01*
X156285714Y-91261904D01*
X156238095Y-91357142D01*
X156190476Y-91404761D01*
X156095238Y-91452380D01*
X155857142Y-91452380D01*
X155761904Y-91404761D01*
X155714285Y-91357142D01*
X155333333Y-83357142D02*
X155285714Y-83404761D01*
X155142857Y-83452380D01*
X155047619Y-83452380D01*
X154904761Y-83404761D01*
X154809523Y-83309523D01*
X154761904Y-83214285D01*
X154714285Y-83023809D01*
X154714285Y-82880952D01*
X154761904Y-82690476D01*
X154809523Y-82595238D01*
X154904761Y-82500000D01*
X155047619Y-82452380D01*
X155142857Y-82452380D01*
X155285714Y-82500000D01*
X155333333Y-82547619D01*
X156190476Y-82452380D02*
X156000000Y-82452380D01*
X155904761Y-82500000D01*
X155857142Y-82547619D01*
X155761904Y-82690476D01*
X155714285Y-82880952D01*
X155714285Y-83261904D01*
X155761904Y-83357142D01*
X155809523Y-83404761D01*
X155904761Y-83452380D01*
X156095238Y-83452380D01*
X156190476Y-83404761D01*
X156238095Y-83357142D01*
X156285714Y-83261904D01*
X156285714Y-83023809D01*
X156238095Y-82928571D01*
X156190476Y-82880952D01*
X156095238Y-82833333D01*
X155904761Y-82833333D01*
X155809523Y-82880952D01*
X155761904Y-82928571D01*
X155714285Y-83023809D01*
X155333333Y-87607142D02*
X155285714Y-87654761D01*
X155142857Y-87702380D01*
X155047619Y-87702380D01*
X154904761Y-87654761D01*
X154809523Y-87559523D01*
X154761904Y-87464285D01*
X154714285Y-87273809D01*
X154714285Y-87130952D01*
X154761904Y-86940476D01*
X154809523Y-86845238D01*
X154904761Y-86750000D01*
X155047619Y-86702380D01*
X155142857Y-86702380D01*
X155285714Y-86750000D01*
X155333333Y-86797619D01*
X155904761Y-87130952D02*
X155809523Y-87083333D01*
X155761904Y-87035714D01*
X155714285Y-86940476D01*
X155714285Y-86892857D01*
X155761904Y-86797619D01*
X155809523Y-86750000D01*
X155904761Y-86702380D01*
X156095238Y-86702380D01*
X156190476Y-86750000D01*
X156238095Y-86797619D01*
X156285714Y-86892857D01*
X156285714Y-86940476D01*
X156238095Y-87035714D01*
X156190476Y-87083333D01*
X156095238Y-87130952D01*
X155904761Y-87130952D01*
X155809523Y-87178571D01*
X155761904Y-87226190D01*
X155714285Y-87321428D01*
X155714285Y-87511904D01*
X155761904Y-87607142D01*
X155809523Y-87654761D01*
X155904761Y-87702380D01*
X156095238Y-87702380D01*
X156190476Y-87654761D01*
X156238095Y-87607142D01*
X156285714Y-87511904D01*
X156285714Y-87321428D01*
X156238095Y-87226190D01*
X156190476Y-87178571D01*
X156095238Y-87130952D01*
X145166666Y-77472380D02*
X145166666Y-78186666D01*
X145119047Y-78329523D01*
X145023809Y-78424761D01*
X144880952Y-78472380D01*
X144785714Y-78472380D01*
X145547619Y-77472380D02*
X146214285Y-77472380D01*
X145785714Y-78472380D01*
X151333333Y-85452380D02*
X151000000Y-84976190D01*
X150761904Y-85452380D02*
X150761904Y-84452380D01*
X151142857Y-84452380D01*
X151238095Y-84500000D01*
X151285714Y-84547619D01*
X151333333Y-84642857D01*
X151333333Y-84785714D01*
X151285714Y-84880952D01*
X151238095Y-84928571D01*
X151142857Y-84976190D01*
X150761904Y-84976190D01*
X151666666Y-84452380D02*
X152285714Y-84452380D01*
X151952380Y-84833333D01*
X152095238Y-84833333D01*
X152190476Y-84880952D01*
X152238095Y-84928571D01*
X152285714Y-85023809D01*
X152285714Y-85261904D01*
X152238095Y-85357142D01*
X152190476Y-85404761D01*
X152095238Y-85452380D01*
X151809523Y-85452380D01*
X151714285Y-85404761D01*
X151666666Y-85357142D01*
X148833333Y-94952380D02*
X148500000Y-94476190D01*
X148261904Y-94952380D02*
X148261904Y-93952380D01*
X148642857Y-93952380D01*
X148738095Y-94000000D01*
X148785714Y-94047619D01*
X148833333Y-94142857D01*
X148833333Y-94285714D01*
X148785714Y-94380952D01*
X148738095Y-94428571D01*
X148642857Y-94476190D01*
X148261904Y-94476190D01*
X149690476Y-94285714D02*
X149690476Y-94952380D01*
X149452380Y-93904761D02*
X149214285Y-94619047D01*
X149833333Y-94619047D01*
X150607142Y-80202380D02*
X150273809Y-79726190D01*
X150035714Y-80202380D02*
X150035714Y-79202380D01*
X150416666Y-79202380D01*
X150511904Y-79250000D01*
X150559523Y-79297619D01*
X150607142Y-79392857D01*
X150607142Y-79535714D01*
X150559523Y-79630952D01*
X150511904Y-79678571D01*
X150416666Y-79726190D01*
X150035714Y-79726190D01*
X151559523Y-80202380D02*
X150988095Y-80202380D01*
X151273809Y-80202380D02*
X151273809Y-79202380D01*
X151178571Y-79345238D01*
X151083333Y-79440476D01*
X150988095Y-79488095D01*
X152511904Y-80202380D02*
X151940476Y-80202380D01*
X152226190Y-80202380D02*
X152226190Y-79202380D01*
X152130952Y-79345238D01*
X152035714Y-79440476D01*
X151940476Y-79488095D01*
X142988095Y-83952380D02*
X142988095Y-84761904D01*
X143035714Y-84857142D01*
X143083333Y-84904761D01*
X143178571Y-84952380D01*
X143369047Y-84952380D01*
X143464285Y-84904761D01*
X143511904Y-84857142D01*
X143559523Y-84761904D01*
X143559523Y-83952380D01*
X144464285Y-84285714D02*
X144464285Y-84952380D01*
X144226190Y-83904761D02*
X143988095Y-84619047D01*
X144607142Y-84619047D01*
X131190476Y-110452380D02*
X131190476Y-111166666D01*
X131142857Y-111309523D01*
X131047619Y-111404761D01*
X130904761Y-111452380D01*
X130809523Y-111452380D01*
X132190476Y-111452380D02*
X131619047Y-111452380D01*
X131904761Y-111452380D02*
X131904761Y-110452380D01*
X131809523Y-110595238D01*
X131714285Y-110690476D01*
X131619047Y-110738095D01*
X133047619Y-110452380D02*
X132857142Y-110452380D01*
X132761904Y-110500000D01*
X132714285Y-110547619D01*
X132619047Y-110690476D01*
X132571428Y-110880952D01*
X132571428Y-111261904D01*
X132619047Y-111357142D01*
X132666666Y-111404761D01*
X132761904Y-111452380D01*
X132952380Y-111452380D01*
X133047619Y-111404761D01*
X133095238Y-111357142D01*
X133142857Y-111261904D01*
X133142857Y-111023809D01*
X133095238Y-110928571D01*
X133047619Y-110880952D01*
X132952380Y-110833333D01*
X132761904Y-110833333D01*
X132666666Y-110880952D01*
X132619047Y-110928571D01*
X132571428Y-111023809D01*
X104166666Y-99452380D02*
X104166666Y-100166666D01*
X104119047Y-100309523D01*
X104023809Y-100404761D01*
X103880952Y-100452380D01*
X103785714Y-100452380D01*
X104595238Y-99547619D02*
X104642857Y-99500000D01*
X104738095Y-99452380D01*
X104976190Y-99452380D01*
X105071428Y-99500000D01*
X105119047Y-99547619D01*
X105166666Y-99642857D01*
X105166666Y-99738095D01*
X105119047Y-99880952D01*
X104547619Y-100452380D01*
X105166666Y-100452380D01*
X103357142Y-98452380D02*
X103023809Y-97976190D01*
X102785714Y-98452380D02*
X102785714Y-97452380D01*
X103166666Y-97452380D01*
X103261904Y-97500000D01*
X103309523Y-97547619D01*
X103357142Y-97642857D01*
X103357142Y-97785714D01*
X103309523Y-97880952D01*
X103261904Y-97928571D01*
X103166666Y-97976190D01*
X102785714Y-97976190D01*
X104309523Y-98452380D02*
X103738095Y-98452380D01*
X104023809Y-98452380D02*
X104023809Y-97452380D01*
X103928571Y-97595238D01*
X103833333Y-97690476D01*
X103738095Y-97738095D01*
X104690476Y-97547619D02*
X104738095Y-97500000D01*
X104833333Y-97452380D01*
X105071428Y-97452380D01*
X105166666Y-97500000D01*
X105214285Y-97547619D01*
X105261904Y-97642857D01*
X105261904Y-97738095D01*
X105214285Y-97880952D01*
X104642857Y-98452380D01*
X105261904Y-98452380D01*
X102857142Y-110952380D02*
X102523809Y-110476190D01*
X102285714Y-110952380D02*
X102285714Y-109952380D01*
X102666666Y-109952380D01*
X102761904Y-110000000D01*
X102809523Y-110047619D01*
X102857142Y-110142857D01*
X102857142Y-110285714D01*
X102809523Y-110380952D01*
X102761904Y-110428571D01*
X102666666Y-110476190D01*
X102285714Y-110476190D01*
X103809523Y-110952380D02*
X103238095Y-110952380D01*
X103523809Y-110952380D02*
X103523809Y-109952380D01*
X103428571Y-110095238D01*
X103333333Y-110190476D01*
X103238095Y-110238095D01*
X104142857Y-109952380D02*
X104761904Y-109952380D01*
X104428571Y-110333333D01*
X104571428Y-110333333D01*
X104666666Y-110380952D01*
X104714285Y-110428571D01*
X104761904Y-110523809D01*
X104761904Y-110761904D01*
X104714285Y-110857142D01*
X104666666Y-110904761D01*
X104571428Y-110952380D01*
X104285714Y-110952380D01*
X104190476Y-110904761D01*
X104142857Y-110857142D01*
X200107142Y-88607142D02*
X200059523Y-88654761D01*
X199916666Y-88702380D01*
X199821428Y-88702380D01*
X199678571Y-88654761D01*
X199583333Y-88559523D01*
X199535714Y-88464285D01*
X199488095Y-88273809D01*
X199488095Y-88130952D01*
X199535714Y-87940476D01*
X199583333Y-87845238D01*
X199678571Y-87750000D01*
X199821428Y-87702380D01*
X199916666Y-87702380D01*
X200059523Y-87750000D01*
X200107142Y-87797619D01*
X200583333Y-88702380D02*
X200773809Y-88702380D01*
X200869047Y-88654761D01*
X200916666Y-88607142D01*
X201011904Y-88464285D01*
X201059523Y-88273809D01*
X201059523Y-87892857D01*
X201011904Y-87797619D01*
X200964285Y-87750000D01*
X200869047Y-87702380D01*
X200678571Y-87702380D01*
X200583333Y-87750000D01*
X200535714Y-87797619D01*
X200488095Y-87892857D01*
X200488095Y-88130952D01*
X200535714Y-88226190D01*
X200583333Y-88273809D01*
X200678571Y-88321428D01*
X200869047Y-88321428D01*
X200964285Y-88273809D01*
X201011904Y-88226190D01*
X201059523Y-88130952D01*
X201916666Y-88035714D02*
X201916666Y-88702380D01*
X201678571Y-87654761D02*
X201440476Y-88369047D01*
X202059523Y-88369047D01*
X203607142Y-88607142D02*
X203559523Y-88654761D01*
X203416666Y-88702380D01*
X203321428Y-88702380D01*
X203178571Y-88654761D01*
X203083333Y-88559523D01*
X203035714Y-88464285D01*
X202988095Y-88273809D01*
X202988095Y-88130952D01*
X203035714Y-87940476D01*
X203083333Y-87845238D01*
X203178571Y-87750000D01*
X203321428Y-87702380D01*
X203416666Y-87702380D01*
X203559523Y-87750000D01*
X203607142Y-87797619D01*
X204083333Y-88702380D02*
X204273809Y-88702380D01*
X204369047Y-88654761D01*
X204416666Y-88607142D01*
X204511904Y-88464285D01*
X204559523Y-88273809D01*
X204559523Y-87892857D01*
X204511904Y-87797619D01*
X204464285Y-87750000D01*
X204369047Y-87702380D01*
X204178571Y-87702380D01*
X204083333Y-87750000D01*
X204035714Y-87797619D01*
X203988095Y-87892857D01*
X203988095Y-88130952D01*
X204035714Y-88226190D01*
X204083333Y-88273809D01*
X204178571Y-88321428D01*
X204369047Y-88321428D01*
X204464285Y-88273809D01*
X204511904Y-88226190D01*
X204559523Y-88130952D01*
X205416666Y-87702380D02*
X205226190Y-87702380D01*
X205130952Y-87750000D01*
X205083333Y-87797619D01*
X204988095Y-87940476D01*
X204940476Y-88130952D01*
X204940476Y-88511904D01*
X204988095Y-88607142D01*
X205035714Y-88654761D01*
X205130952Y-88702380D01*
X205321428Y-88702380D01*
X205416666Y-88654761D01*
X205464285Y-88607142D01*
X205511904Y-88511904D01*
X205511904Y-88273809D01*
X205464285Y-88178571D01*
X205416666Y-88130952D01*
X205321428Y-88083333D01*
X205130952Y-88083333D01*
X205035714Y-88130952D01*
X204988095Y-88178571D01*
X204940476Y-88273809D01*
X207190476Y-75452380D02*
X207190476Y-76166666D01*
X207142857Y-76309523D01*
X207047619Y-76404761D01*
X206904761Y-76452380D01*
X206809523Y-76452380D01*
X207714285Y-76452380D02*
X207904761Y-76452380D01*
X208000000Y-76404761D01*
X208047619Y-76357142D01*
X208142857Y-76214285D01*
X208190476Y-76023809D01*
X208190476Y-75642857D01*
X208142857Y-75547619D01*
X208095238Y-75500000D01*
X208000000Y-75452380D01*
X207809523Y-75452380D01*
X207714285Y-75500000D01*
X207666666Y-75547619D01*
X207619047Y-75642857D01*
X207619047Y-75880952D01*
X207666666Y-75976190D01*
X207714285Y-76023809D01*
X207809523Y-76071428D01*
X208000000Y-76071428D01*
X208095238Y-76023809D01*
X208142857Y-75976190D01*
X208190476Y-75880952D01*
X208571428Y-75547619D02*
X208619047Y-75500000D01*
X208714285Y-75452380D01*
X208952380Y-75452380D01*
X209047619Y-75500000D01*
X209095238Y-75547619D01*
X209142857Y-75642857D01*
X209142857Y-75738095D01*
X209095238Y-75880952D01*
X208523809Y-76452380D01*
X209142857Y-76452380D01*
X188107142Y-88107142D02*
X188059523Y-88154761D01*
X187916666Y-88202380D01*
X187821428Y-88202380D01*
X187678571Y-88154761D01*
X187583333Y-88059523D01*
X187535714Y-87964285D01*
X187488095Y-87773809D01*
X187488095Y-87630952D01*
X187535714Y-87440476D01*
X187583333Y-87345238D01*
X187678571Y-87250000D01*
X187821428Y-87202380D01*
X187916666Y-87202380D01*
X188059523Y-87250000D01*
X188107142Y-87297619D01*
X188583333Y-88202380D02*
X188773809Y-88202380D01*
X188869047Y-88154761D01*
X188916666Y-88107142D01*
X189011904Y-87964285D01*
X189059523Y-87773809D01*
X189059523Y-87392857D01*
X189011904Y-87297619D01*
X188964285Y-87250000D01*
X188869047Y-87202380D01*
X188678571Y-87202380D01*
X188583333Y-87250000D01*
X188535714Y-87297619D01*
X188488095Y-87392857D01*
X188488095Y-87630952D01*
X188535714Y-87726190D01*
X188583333Y-87773809D01*
X188678571Y-87821428D01*
X188869047Y-87821428D01*
X188964285Y-87773809D01*
X189011904Y-87726190D01*
X189059523Y-87630952D01*
X189964285Y-87202380D02*
X189488095Y-87202380D01*
X189440476Y-87678571D01*
X189488095Y-87630952D01*
X189583333Y-87583333D01*
X189821428Y-87583333D01*
X189916666Y-87630952D01*
X189964285Y-87678571D01*
X190011904Y-87773809D01*
X190011904Y-88011904D01*
X189964285Y-88107142D01*
X189916666Y-88154761D01*
X189821428Y-88202380D01*
X189583333Y-88202380D01*
X189488095Y-88154761D01*
X189440476Y-88107142D01*
X173212380Y-93519523D02*
X173926666Y-93519523D01*
X174069523Y-93567142D01*
X174164761Y-93662380D01*
X174212380Y-93805238D01*
X174212380Y-93900476D01*
X174212380Y-92995714D02*
X174212380Y-92805238D01*
X174164761Y-92710000D01*
X174117142Y-92662380D01*
X173974285Y-92567142D01*
X173783809Y-92519523D01*
X173402857Y-92519523D01*
X173307619Y-92567142D01*
X173260000Y-92614761D01*
X173212380Y-92710000D01*
X173212380Y-92900476D01*
X173260000Y-92995714D01*
X173307619Y-93043333D01*
X173402857Y-93090952D01*
X173640952Y-93090952D01*
X173736190Y-93043333D01*
X173783809Y-92995714D01*
X173831428Y-92900476D01*
X173831428Y-92710000D01*
X173783809Y-92614761D01*
X173736190Y-92567142D01*
X173640952Y-92519523D01*
X174212380Y-91567142D02*
X174212380Y-92138571D01*
X174212380Y-91852857D02*
X173212380Y-91852857D01*
X173355238Y-91948095D01*
X173450476Y-92043333D01*
X173498095Y-92138571D01*
X184607142Y-88107142D02*
X184559523Y-88154761D01*
X184416666Y-88202380D01*
X184321428Y-88202380D01*
X184178571Y-88154761D01*
X184083333Y-88059523D01*
X184035714Y-87964285D01*
X183988095Y-87773809D01*
X183988095Y-87630952D01*
X184035714Y-87440476D01*
X184083333Y-87345238D01*
X184178571Y-87250000D01*
X184321428Y-87202380D01*
X184416666Y-87202380D01*
X184559523Y-87250000D01*
X184607142Y-87297619D01*
X185083333Y-88202380D02*
X185273809Y-88202380D01*
X185369047Y-88154761D01*
X185416666Y-88107142D01*
X185511904Y-87964285D01*
X185559523Y-87773809D01*
X185559523Y-87392857D01*
X185511904Y-87297619D01*
X185464285Y-87250000D01*
X185369047Y-87202380D01*
X185178571Y-87202380D01*
X185083333Y-87250000D01*
X185035714Y-87297619D01*
X184988095Y-87392857D01*
X184988095Y-87630952D01*
X185035714Y-87726190D01*
X185083333Y-87773809D01*
X185178571Y-87821428D01*
X185369047Y-87821428D01*
X185464285Y-87773809D01*
X185511904Y-87726190D01*
X185559523Y-87630952D01*
X185892857Y-87202380D02*
X186511904Y-87202380D01*
X186178571Y-87583333D01*
X186321428Y-87583333D01*
X186416666Y-87630952D01*
X186464285Y-87678571D01*
X186511904Y-87773809D01*
X186511904Y-88011904D01*
X186464285Y-88107142D01*
X186416666Y-88154761D01*
X186321428Y-88202380D01*
X186035714Y-88202380D01*
X185940476Y-88154761D01*
X185892857Y-88107142D01*
X196107142Y-88607142D02*
X196059523Y-88654761D01*
X195916666Y-88702380D01*
X195821428Y-88702380D01*
X195678571Y-88654761D01*
X195583333Y-88559523D01*
X195535714Y-88464285D01*
X195488095Y-88273809D01*
X195488095Y-88130952D01*
X195535714Y-87940476D01*
X195583333Y-87845238D01*
X195678571Y-87750000D01*
X195821428Y-87702380D01*
X195916666Y-87702380D01*
X196059523Y-87750000D01*
X196107142Y-87797619D01*
X196583333Y-88702380D02*
X196773809Y-88702380D01*
X196869047Y-88654761D01*
X196916666Y-88607142D01*
X197011904Y-88464285D01*
X197059523Y-88273809D01*
X197059523Y-87892857D01*
X197011904Y-87797619D01*
X196964285Y-87750000D01*
X196869047Y-87702380D01*
X196678571Y-87702380D01*
X196583333Y-87750000D01*
X196535714Y-87797619D01*
X196488095Y-87892857D01*
X196488095Y-88130952D01*
X196535714Y-88226190D01*
X196583333Y-88273809D01*
X196678571Y-88321428D01*
X196869047Y-88321428D01*
X196964285Y-88273809D01*
X197011904Y-88226190D01*
X197059523Y-88130952D01*
X197440476Y-87797619D02*
X197488095Y-87750000D01*
X197583333Y-87702380D01*
X197821428Y-87702380D01*
X197916666Y-87750000D01*
X197964285Y-87797619D01*
X198011904Y-87892857D01*
X198011904Y-87988095D01*
X197964285Y-88130952D01*
X197392857Y-88702380D01*
X198011904Y-88702380D01*
X173190476Y-75452380D02*
X173190476Y-76166666D01*
X173142857Y-76309523D01*
X173047619Y-76404761D01*
X172904761Y-76452380D01*
X172809523Y-76452380D01*
X173714285Y-76452380D02*
X173904761Y-76452380D01*
X174000000Y-76404761D01*
X174047619Y-76357142D01*
X174142857Y-76214285D01*
X174190476Y-76023809D01*
X174190476Y-75642857D01*
X174142857Y-75547619D01*
X174095238Y-75500000D01*
X174000000Y-75452380D01*
X173809523Y-75452380D01*
X173714285Y-75500000D01*
X173666666Y-75547619D01*
X173619047Y-75642857D01*
X173619047Y-75880952D01*
X173666666Y-75976190D01*
X173714285Y-76023809D01*
X173809523Y-76071428D01*
X174000000Y-76071428D01*
X174095238Y-76023809D01*
X174142857Y-75976190D01*
X174190476Y-75880952D01*
X174523809Y-75452380D02*
X175142857Y-75452380D01*
X174809523Y-75833333D01*
X174952380Y-75833333D01*
X175047619Y-75880952D01*
X175095238Y-75928571D01*
X175142857Y-76023809D01*
X175142857Y-76261904D01*
X175095238Y-76357142D01*
X175047619Y-76404761D01*
X174952380Y-76452380D01*
X174666666Y-76452380D01*
X174571428Y-76404761D01*
X174523809Y-76357142D01*
X181107142Y-88107142D02*
X181059523Y-88154761D01*
X180916666Y-88202380D01*
X180821428Y-88202380D01*
X180678571Y-88154761D01*
X180583333Y-88059523D01*
X180535714Y-87964285D01*
X180488095Y-87773809D01*
X180488095Y-87630952D01*
X180535714Y-87440476D01*
X180583333Y-87345238D01*
X180678571Y-87250000D01*
X180821428Y-87202380D01*
X180916666Y-87202380D01*
X181059523Y-87250000D01*
X181107142Y-87297619D01*
X181583333Y-88202380D02*
X181773809Y-88202380D01*
X181869047Y-88154761D01*
X181916666Y-88107142D01*
X182011904Y-87964285D01*
X182059523Y-87773809D01*
X182059523Y-87392857D01*
X182011904Y-87297619D01*
X181964285Y-87250000D01*
X181869047Y-87202380D01*
X181678571Y-87202380D01*
X181583333Y-87250000D01*
X181535714Y-87297619D01*
X181488095Y-87392857D01*
X181488095Y-87630952D01*
X181535714Y-87726190D01*
X181583333Y-87773809D01*
X181678571Y-87821428D01*
X181869047Y-87821428D01*
X181964285Y-87773809D01*
X182011904Y-87726190D01*
X182059523Y-87630952D01*
X183011904Y-88202380D02*
X182440476Y-88202380D01*
X182726190Y-88202380D02*
X182726190Y-87202380D01*
X182630952Y-87345238D01*
X182535714Y-87440476D01*
X182440476Y-87488095D01*
X124011904Y-120702380D02*
X124011904Y-119702380D01*
X124250000Y-119702380D01*
X124392857Y-119750000D01*
X124488095Y-119845238D01*
X124535714Y-119940476D01*
X124583333Y-120130952D01*
X124583333Y-120273809D01*
X124535714Y-120464285D01*
X124488095Y-120559523D01*
X124392857Y-120654761D01*
X124250000Y-120702380D01*
X124011904Y-120702380D01*
X125535714Y-120702380D02*
X124964285Y-120702380D01*
X125250000Y-120702380D02*
X125250000Y-119702380D01*
X125154761Y-119845238D01*
X125059523Y-119940476D01*
X124964285Y-119988095D01*
X155666666Y-122252380D02*
X155666666Y-122966666D01*
X155619047Y-123109523D01*
X155523809Y-123204761D01*
X155380952Y-123252380D01*
X155285714Y-123252380D01*
X156142857Y-123252380D02*
X156142857Y-122252380D01*
X156523809Y-122252380D01*
X156619047Y-122300000D01*
X156666666Y-122347619D01*
X156714285Y-122442857D01*
X156714285Y-122585714D01*
X156666666Y-122680952D01*
X156619047Y-122728571D01*
X156523809Y-122776190D01*
X156142857Y-122776190D01*
X157095238Y-122347619D02*
X157142857Y-122300000D01*
X157238095Y-122252380D01*
X157476190Y-122252380D01*
X157571428Y-122300000D01*
X157619047Y-122347619D01*
X157666666Y-122442857D01*
X157666666Y-122538095D01*
X157619047Y-122680952D01*
X157047619Y-123252380D01*
X157666666Y-123252380D01*
X109857142Y-104677142D02*
X109809523Y-104724761D01*
X109666666Y-104772380D01*
X109571428Y-104772380D01*
X109428571Y-104724761D01*
X109333333Y-104629523D01*
X109285714Y-104534285D01*
X109238095Y-104343809D01*
X109238095Y-104200952D01*
X109285714Y-104010476D01*
X109333333Y-103915238D01*
X109428571Y-103820000D01*
X109571428Y-103772380D01*
X109666666Y-103772380D01*
X109809523Y-103820000D01*
X109857142Y-103867619D01*
X110809523Y-104772380D02*
X110238095Y-104772380D01*
X110523809Y-104772380D02*
X110523809Y-103772380D01*
X110428571Y-103915238D01*
X110333333Y-104010476D01*
X110238095Y-104058095D01*
X111428571Y-103772380D02*
X111523809Y-103772380D01*
X111619047Y-103820000D01*
X111666666Y-103867619D01*
X111714285Y-103962857D01*
X111761904Y-104153333D01*
X111761904Y-104391428D01*
X111714285Y-104581904D01*
X111666666Y-104677142D01*
X111619047Y-104724761D01*
X111523809Y-104772380D01*
X111428571Y-104772380D01*
X111333333Y-104724761D01*
X111285714Y-104677142D01*
X111238095Y-104581904D01*
X111190476Y-104391428D01*
X111190476Y-104153333D01*
X111238095Y-103962857D01*
X111285714Y-103867619D01*
X111333333Y-103820000D01*
X111428571Y-103772380D01*
X163416666Y-73122380D02*
X163416666Y-73836666D01*
X163369047Y-73979523D01*
X163273809Y-74074761D01*
X163130952Y-74122380D01*
X163035714Y-74122380D01*
X164321428Y-73455714D02*
X164321428Y-74122380D01*
X164083333Y-73074761D02*
X163845238Y-73789047D01*
X164464285Y-73789047D01*
X109857142Y-103357142D02*
X109809523Y-103404761D01*
X109666666Y-103452380D01*
X109571428Y-103452380D01*
X109428571Y-103404761D01*
X109333333Y-103309523D01*
X109285714Y-103214285D01*
X109238095Y-103023809D01*
X109238095Y-102880952D01*
X109285714Y-102690476D01*
X109333333Y-102595238D01*
X109428571Y-102500000D01*
X109571428Y-102452380D01*
X109666666Y-102452380D01*
X109809523Y-102500000D01*
X109857142Y-102547619D01*
X110809523Y-103452380D02*
X110238095Y-103452380D01*
X110523809Y-103452380D02*
X110523809Y-102452380D01*
X110428571Y-102595238D01*
X110333333Y-102690476D01*
X110238095Y-102738095D01*
X111761904Y-103452380D02*
X111190476Y-103452380D01*
X111476190Y-103452380D02*
X111476190Y-102452380D01*
X111380952Y-102595238D01*
X111285714Y-102690476D01*
X111190476Y-102738095D01*
X108738095Y-111952380D02*
X108738095Y-112761904D01*
X108785714Y-112857142D01*
X108833333Y-112904761D01*
X108928571Y-112952380D01*
X109119047Y-112952380D01*
X109214285Y-112904761D01*
X109261904Y-112857142D01*
X109309523Y-112761904D01*
X109309523Y-111952380D01*
X110261904Y-111952380D02*
X109785714Y-111952380D01*
X109738095Y-112428571D01*
X109785714Y-112380952D01*
X109880952Y-112333333D01*
X110119047Y-112333333D01*
X110214285Y-112380952D01*
X110261904Y-112428571D01*
X110309523Y-112523809D01*
X110309523Y-112761904D01*
X110261904Y-112857142D01*
X110214285Y-112904761D01*
X110119047Y-112952380D01*
X109880952Y-112952380D01*
X109785714Y-112904761D01*
X109738095Y-112857142D01*
X111619250Y-112053380D02*
X111619250Y-112291476D01*
X111381154Y-112196238D02*
X111619250Y-112291476D01*
X111857345Y-112196238D01*
X111476392Y-112481952D02*
X111619250Y-112291476D01*
X111762107Y-112481952D01*
X111619250Y-112053380D02*
X111619250Y-112291476D01*
X111381154Y-112196238D02*
X111619250Y-112291476D01*
X111857345Y-112196238D01*
X111476392Y-112481952D02*
X111619250Y-112291476D01*
X111762107Y-112481952D01*
X159857142Y-126452380D02*
X159523809Y-125976190D01*
X159285714Y-126452380D02*
X159285714Y-125452380D01*
X159666666Y-125452380D01*
X159761904Y-125500000D01*
X159809523Y-125547619D01*
X159857142Y-125642857D01*
X159857142Y-125785714D01*
X159809523Y-125880952D01*
X159761904Y-125928571D01*
X159666666Y-125976190D01*
X159285714Y-125976190D01*
X160809523Y-126452380D02*
X160238095Y-126452380D01*
X160523809Y-126452380D02*
X160523809Y-125452380D01*
X160428571Y-125595238D01*
X160333333Y-125690476D01*
X160238095Y-125738095D01*
X161142857Y-125452380D02*
X161809523Y-125452380D01*
X161380952Y-126452380D01*
X93238095Y-111452380D02*
X93238095Y-112261904D01*
X93285714Y-112357142D01*
X93333333Y-112404761D01*
X93428571Y-112452380D01*
X93619047Y-112452380D01*
X93714285Y-112404761D01*
X93761904Y-112357142D01*
X93809523Y-112261904D01*
X93809523Y-111452380D01*
X94428571Y-111880952D02*
X94333333Y-111833333D01*
X94285714Y-111785714D01*
X94238095Y-111690476D01*
X94238095Y-111642857D01*
X94285714Y-111547619D01*
X94333333Y-111500000D01*
X94428571Y-111452380D01*
X94619047Y-111452380D01*
X94714285Y-111500000D01*
X94761904Y-111547619D01*
X94809523Y-111642857D01*
X94809523Y-111690476D01*
X94761904Y-111785714D01*
X94714285Y-111833333D01*
X94619047Y-111880952D01*
X94428571Y-111880952D01*
X94333333Y-111928571D01*
X94285714Y-111976190D01*
X94238095Y-112071428D01*
X94238095Y-112261904D01*
X94285714Y-112357142D01*
X94333333Y-112404761D01*
X94428571Y-112452380D01*
X94619047Y-112452380D01*
X94714285Y-112404761D01*
X94761904Y-112357142D01*
X94809523Y-112261904D01*
X94809523Y-112071428D01*
X94761904Y-111976190D01*
X94714285Y-111928571D01*
X94619047Y-111880952D01*
X118347580Y-133356500D02*
X118585676Y-133356500D01*
X118490438Y-133594595D02*
X118585676Y-133356500D01*
X118490438Y-133118404D01*
X118776152Y-133499357D02*
X118585676Y-133356500D01*
X118776152Y-133213642D01*
X129833333Y-133107142D02*
X129785714Y-133154761D01*
X129642857Y-133202380D01*
X129547619Y-133202380D01*
X129404761Y-133154761D01*
X129309523Y-133059523D01*
X129261904Y-132964285D01*
X129214285Y-132773809D01*
X129214285Y-132630952D01*
X129261904Y-132440476D01*
X129309523Y-132345238D01*
X129404761Y-132250000D01*
X129547619Y-132202380D01*
X129642857Y-132202380D01*
X129785714Y-132250000D01*
X129833333Y-132297619D01*
X130309523Y-133202380D02*
X130500000Y-133202380D01*
X130595238Y-133154761D01*
X130642857Y-133107142D01*
X130738095Y-132964285D01*
X130785714Y-132773809D01*
X130785714Y-132392857D01*
X130738095Y-132297619D01*
X130690476Y-132250000D01*
X130595238Y-132202380D01*
X130404761Y-132202380D01*
X130309523Y-132250000D01*
X130261904Y-132297619D01*
X130214285Y-132392857D01*
X130214285Y-132630952D01*
X130261904Y-132726190D01*
X130309523Y-132773809D01*
X130404761Y-132821428D01*
X130595238Y-132821428D01*
X130690476Y-132773809D01*
X130738095Y-132726190D01*
X130785714Y-132630952D01*
X130833333Y-116357142D02*
X130785714Y-116404761D01*
X130642857Y-116452380D01*
X130547619Y-116452380D01*
X130404761Y-116404761D01*
X130309523Y-116309523D01*
X130261904Y-116214285D01*
X130214285Y-116023809D01*
X130214285Y-115880952D01*
X130261904Y-115690476D01*
X130309523Y-115595238D01*
X130404761Y-115500000D01*
X130547619Y-115452380D01*
X130642857Y-115452380D01*
X130785714Y-115500000D01*
X130833333Y-115547619D01*
X131785714Y-116452380D02*
X131214285Y-116452380D01*
X131500000Y-116452380D02*
X131500000Y-115452380D01*
X131404761Y-115595238D01*
X131309523Y-115690476D01*
X131214285Y-115738095D01*
X135238095Y-132452380D02*
X135238095Y-133261904D01*
X135285714Y-133357142D01*
X135333333Y-133404761D01*
X135428571Y-133452380D01*
X135619047Y-133452380D01*
X135714285Y-133404761D01*
X135761904Y-133357142D01*
X135809523Y-133261904D01*
X135809523Y-132452380D01*
X136714285Y-132452380D02*
X136523809Y-132452380D01*
X136428571Y-132500000D01*
X136380952Y-132547619D01*
X136285714Y-132690476D01*
X136238095Y-132880952D01*
X136238095Y-133261904D01*
X136285714Y-133357142D01*
X136333333Y-133404761D01*
X136428571Y-133452380D01*
X136619047Y-133452380D01*
X136714285Y-133404761D01*
X136761904Y-133357142D01*
X136809523Y-133261904D01*
X136809523Y-133023809D01*
X136761904Y-132928571D01*
X136714285Y-132880952D01*
X136619047Y-132833333D01*
X136428571Y-132833333D01*
X136333333Y-132880952D01*
X136285714Y-132928571D01*
X136238095Y-133023809D01*
X193238095Y-111952380D02*
X193238095Y-112761904D01*
X193285714Y-112857142D01*
X193333333Y-112904761D01*
X193428571Y-112952380D01*
X193619047Y-112952380D01*
X193714285Y-112904761D01*
X193761904Y-112857142D01*
X193809523Y-112761904D01*
X193809523Y-111952380D01*
X194190476Y-111952380D02*
X194857142Y-111952380D01*
X194428571Y-112952380D01*
X171057180Y-115643500D02*
X171295276Y-115643500D01*
X171200038Y-115881595D02*
X171295276Y-115643500D01*
X171200038Y-115405404D01*
X171485752Y-115786357D02*
X171295276Y-115643500D01*
X171485752Y-115500642D01*
X96190476Y-70952380D02*
X96190476Y-71666666D01*
X96142857Y-71809523D01*
X96047619Y-71904761D01*
X95904761Y-71952380D01*
X95809523Y-71952380D01*
X97190476Y-71952380D02*
X96619047Y-71952380D01*
X96904761Y-71952380D02*
X96904761Y-70952380D01*
X96809523Y-71095238D01*
X96714285Y-71190476D01*
X96619047Y-71238095D01*
X98095238Y-70952380D02*
X97619047Y-70952380D01*
X97571428Y-71428571D01*
X97619047Y-71380952D01*
X97714285Y-71333333D01*
X97952380Y-71333333D01*
X98047619Y-71380952D01*
X98095238Y-71428571D01*
X98142857Y-71523809D01*
X98142857Y-71761904D01*
X98095238Y-71857142D01*
X98047619Y-71904761D01*
X97952380Y-71952380D01*
X97714285Y-71952380D01*
X97619047Y-71904761D01*
X97571428Y-71857142D01*
X123857142Y-118202380D02*
X123523809Y-117726190D01*
X123285714Y-118202380D02*
X123285714Y-117202380D01*
X123666666Y-117202380D01*
X123761904Y-117250000D01*
X123809523Y-117297619D01*
X123857142Y-117392857D01*
X123857142Y-117535714D01*
X123809523Y-117630952D01*
X123761904Y-117678571D01*
X123666666Y-117726190D01*
X123285714Y-117726190D01*
X124809523Y-118202380D02*
X124238095Y-118202380D01*
X124523809Y-118202380D02*
X124523809Y-117202380D01*
X124428571Y-117345238D01*
X124333333Y-117440476D01*
X124238095Y-117488095D01*
X125666666Y-117535714D02*
X125666666Y-118202380D01*
X125428571Y-117154761D02*
X125190476Y-117869047D01*
X125809523Y-117869047D01*
X145166666Y-124247380D02*
X145166666Y-124961666D01*
X145119047Y-125104523D01*
X145023809Y-125199761D01*
X144880952Y-125247380D01*
X144785714Y-125247380D01*
X145547619Y-124247380D02*
X146166666Y-124247380D01*
X145833333Y-124628333D01*
X145976190Y-124628333D01*
X146071428Y-124675952D01*
X146119047Y-124723571D01*
X146166666Y-124818809D01*
X146166666Y-125056904D01*
X146119047Y-125152142D01*
X146071428Y-125199761D01*
X145976190Y-125247380D01*
X145690476Y-125247380D01*
X145595238Y-125199761D01*
X145547619Y-125152142D01*
X154357142Y-117822380D02*
X154023809Y-117346190D01*
X153785714Y-117822380D02*
X153785714Y-116822380D01*
X154166666Y-116822380D01*
X154261904Y-116870000D01*
X154309523Y-116917619D01*
X154357142Y-117012857D01*
X154357142Y-117155714D01*
X154309523Y-117250952D01*
X154261904Y-117298571D01*
X154166666Y-117346190D01*
X153785714Y-117346190D01*
X155309523Y-117822380D02*
X154738095Y-117822380D01*
X155023809Y-117822380D02*
X155023809Y-116822380D01*
X154928571Y-116965238D01*
X154833333Y-117060476D01*
X154738095Y-117108095D01*
X156166666Y-116822380D02*
X155976190Y-116822380D01*
X155880952Y-116870000D01*
X155833333Y-116917619D01*
X155738095Y-117060476D01*
X155690476Y-117250952D01*
X155690476Y-117631904D01*
X155738095Y-117727142D01*
X155785714Y-117774761D01*
X155880952Y-117822380D01*
X156071428Y-117822380D01*
X156166666Y-117774761D01*
X156214285Y-117727142D01*
X156261904Y-117631904D01*
X156261904Y-117393809D01*
X156214285Y-117298571D01*
X156166666Y-117250952D01*
X156071428Y-117203333D01*
X155880952Y-117203333D01*
X155785714Y-117250952D01*
X155738095Y-117298571D01*
X155690476Y-117393809D01*
X108238095Y-94952380D02*
X108238095Y-95761904D01*
X108285714Y-95857142D01*
X108333333Y-95904761D01*
X108428571Y-95952380D01*
X108619047Y-95952380D01*
X108714285Y-95904761D01*
X108761904Y-95857142D01*
X108809523Y-95761904D01*
X108809523Y-94952380D01*
X109190476Y-94952380D02*
X109809523Y-94952380D01*
X109476190Y-95333333D01*
X109619047Y-95333333D01*
X109714285Y-95380952D01*
X109761904Y-95428571D01*
X109809523Y-95523809D01*
X109809523Y-95761904D01*
X109761904Y-95857142D01*
X109714285Y-95904761D01*
X109619047Y-95952380D01*
X109333333Y-95952380D01*
X109238095Y-95904761D01*
X109190476Y-95857142D01*
X111619250Y-100053380D02*
X111619250Y-100291476D01*
X111381154Y-100196238D02*
X111619250Y-100291476D01*
X111857345Y-100196238D01*
X111476392Y-100481952D02*
X111619250Y-100291476D01*
X111762107Y-100481952D01*
X111619250Y-100053380D02*
X111619250Y-100291476D01*
X111381154Y-100196238D02*
X111619250Y-100291476D01*
X111857345Y-100196238D01*
X111476392Y-100481952D02*
X111619250Y-100291476D01*
X111762107Y-100481952D01*
X152904761Y-130047619D02*
X152809523Y-130000000D01*
X152714285Y-129904761D01*
X152571428Y-129761904D01*
X152476190Y-129714285D01*
X152380952Y-129714285D01*
X152428571Y-129952380D02*
X152333333Y-129904761D01*
X152238095Y-129809523D01*
X152190476Y-129619047D01*
X152190476Y-129285714D01*
X152238095Y-129095238D01*
X152333333Y-129000000D01*
X152428571Y-128952380D01*
X152619047Y-128952380D01*
X152714285Y-129000000D01*
X152809523Y-129095238D01*
X152857142Y-129285714D01*
X152857142Y-129619047D01*
X152809523Y-129809523D01*
X152714285Y-129904761D01*
X152619047Y-129952380D01*
X152428571Y-129952380D01*
X153809523Y-129952380D02*
X153238095Y-129952380D01*
X153523809Y-129952380D02*
X153523809Y-128952380D01*
X153428571Y-129095238D01*
X153333333Y-129190476D01*
X153238095Y-129238095D01*
X135857142Y-117822380D02*
X135523809Y-117346190D01*
X135285714Y-117822380D02*
X135285714Y-116822380D01*
X135666666Y-116822380D01*
X135761904Y-116870000D01*
X135809523Y-116917619D01*
X135857142Y-117012857D01*
X135857142Y-117155714D01*
X135809523Y-117250952D01*
X135761904Y-117298571D01*
X135666666Y-117346190D01*
X135285714Y-117346190D01*
X136809523Y-117822380D02*
X136238095Y-117822380D01*
X136523809Y-117822380D02*
X136523809Y-116822380D01*
X136428571Y-116965238D01*
X136333333Y-117060476D01*
X136238095Y-117108095D01*
X137714285Y-116822380D02*
X137238095Y-116822380D01*
X137190476Y-117298571D01*
X137238095Y-117250952D01*
X137333333Y-117203333D01*
X137571428Y-117203333D01*
X137666666Y-117250952D01*
X137714285Y-117298571D01*
X137761904Y-117393809D01*
X137761904Y-117631904D01*
X137714285Y-117727142D01*
X137666666Y-117774761D01*
X137571428Y-117822380D01*
X137333333Y-117822380D01*
X137238095Y-117774761D01*
X137190476Y-117727142D01*
X162833333Y-134357142D02*
X162785714Y-134404761D01*
X162642857Y-134452380D01*
X162547619Y-134452380D01*
X162404761Y-134404761D01*
X162309523Y-134309523D01*
X162261904Y-134214285D01*
X162214285Y-134023809D01*
X162214285Y-133880952D01*
X162261904Y-133690476D01*
X162309523Y-133595238D01*
X162404761Y-133500000D01*
X162547619Y-133452380D01*
X162642857Y-133452380D01*
X162785714Y-133500000D01*
X162833333Y-133547619D01*
X163214285Y-133547619D02*
X163261904Y-133500000D01*
X163357142Y-133452380D01*
X163595238Y-133452380D01*
X163690476Y-133500000D01*
X163738095Y-133547619D01*
X163785714Y-133642857D01*
X163785714Y-133738095D01*
X163738095Y-133880952D01*
X163166666Y-134452380D01*
X163785714Y-134452380D01*
X137666666Y-122252380D02*
X137666666Y-122966666D01*
X137619047Y-123109523D01*
X137523809Y-123204761D01*
X137380952Y-123252380D01*
X137285714Y-123252380D01*
X138142857Y-123252380D02*
X138142857Y-122252380D01*
X138523809Y-122252380D01*
X138619047Y-122300000D01*
X138666666Y-122347619D01*
X138714285Y-122442857D01*
X138714285Y-122585714D01*
X138666666Y-122680952D01*
X138619047Y-122728571D01*
X138523809Y-122776190D01*
X138142857Y-122776190D01*
X139666666Y-123252380D02*
X139095238Y-123252380D01*
X139380952Y-123252380D02*
X139380952Y-122252380D01*
X139285714Y-122395238D01*
X139190476Y-122490476D01*
X139095238Y-122538095D01*
X166452380Y-119238095D02*
X165452380Y-119238095D01*
X165452380Y-119000000D01*
X165500000Y-118857142D01*
X165595238Y-118761904D01*
X165690476Y-118714285D01*
X165880952Y-118666666D01*
X166023809Y-118666666D01*
X166214285Y-118714285D01*
X166309523Y-118761904D01*
X166404761Y-118857142D01*
X166452380Y-119000000D01*
X166452380Y-119238095D01*
X165547619Y-118285714D02*
X165500000Y-118238095D01*
X165452380Y-118142857D01*
X165452380Y-117904761D01*
X165500000Y-117809523D01*
X165547619Y-117761904D01*
X165642857Y-117714285D01*
X165738095Y-117714285D01*
X165880952Y-117761904D01*
X166452380Y-118333333D01*
X166452380Y-117714285D01*
D14*
X113406422Y-83110000D02*
X113923578Y-83110000D01*
X113406422Y-84530000D02*
X113923578Y-84530000D01*
X119638578Y-83110000D02*
X119121422Y-83110000D01*
X119638578Y-84530000D02*
X119121422Y-84530000D01*
D12*
X124200000Y-81750000D02*
X128000000Y-81750000D01*
X128000000Y-83950000D02*
X124200000Y-83950000D01*
X124200000Y-83950000D02*
X124200000Y-81750000D01*
X128000000Y-81750000D02*
X128000000Y-83950000D01*
X90650000Y-84850000D02*
X86850000Y-84850000D01*
X90650000Y-82650000D02*
X90650000Y-84850000D01*
X86850000Y-84850000D02*
X86850000Y-82650000D01*
X86850000Y-82650000D02*
X90650000Y-82650000D01*
D14*
X142880000Y-88401422D02*
X142880000Y-88918578D01*
X144300000Y-88401422D02*
X144300000Y-88918578D01*
X167790000Y-90741422D02*
X167790000Y-91258578D01*
X169210000Y-90741422D02*
X169210000Y-91258578D01*
X113520000Y-71645000D02*
X107500000Y-71645000D01*
X109030000Y-73275000D02*
X109030000Y-77855000D01*
X113520000Y-77305000D02*
X112920000Y-77305000D01*
X112920000Y-72225000D02*
X112920000Y-73825000D01*
X108500000Y-73025000D02*
X108500000Y-78105000D01*
X112920000Y-78905000D02*
X113520000Y-78905000D01*
X112920000Y-77305000D02*
X112920000Y-78905000D01*
X113520000Y-74765000D02*
X112920000Y-74765000D01*
X113520000Y-72225000D02*
X112920000Y-72225000D01*
X108500000Y-73025000D02*
X109030000Y-73275000D01*
X107500000Y-71645000D02*
X107500000Y-79485000D01*
X113520000Y-79485000D02*
X113520000Y-71645000D01*
X112920000Y-73825000D02*
X113520000Y-73825000D01*
X107500000Y-79485000D02*
X113520000Y-79485000D01*
X112920000Y-76365000D02*
X113520000Y-76365000D01*
X112490000Y-71355000D02*
X108490000Y-71355000D01*
X112920000Y-74765000D02*
X112920000Y-76365000D01*
X107500000Y-73025000D02*
X108500000Y-73025000D01*
X107500000Y-73275000D02*
X108500000Y-73275000D01*
X107500000Y-77855000D02*
X108500000Y-77855000D01*
X108500000Y-78105000D02*
X107500000Y-78105000D01*
X109030000Y-77855000D02*
X108500000Y-78105000D01*
X121810000Y-76365000D02*
X122410000Y-76365000D01*
X121810000Y-74765000D02*
X121810000Y-76365000D01*
X122410000Y-71645000D02*
X116390000Y-71645000D01*
X117920000Y-73275000D02*
X117920000Y-77855000D01*
X121810000Y-77305000D02*
X121810000Y-78905000D01*
X121810000Y-73825000D02*
X122410000Y-73825000D01*
X121810000Y-72225000D02*
X121810000Y-73825000D01*
X117390000Y-73025000D02*
X117390000Y-78105000D01*
X122410000Y-79485000D02*
X122410000Y-71645000D01*
X122410000Y-72225000D02*
X121810000Y-72225000D01*
X116390000Y-79485000D02*
X122410000Y-79485000D01*
X116390000Y-73275000D02*
X117390000Y-73275000D01*
X116390000Y-71645000D02*
X116390000Y-79485000D01*
X121380000Y-71355000D02*
X117380000Y-71355000D01*
X121810000Y-78905000D02*
X122410000Y-78905000D01*
X122410000Y-74765000D02*
X121810000Y-74765000D01*
X117390000Y-73025000D02*
X117920000Y-73275000D01*
X122410000Y-77305000D02*
X121810000Y-77305000D01*
X117920000Y-77855000D02*
X117390000Y-78105000D01*
X117390000Y-78105000D02*
X116390000Y-78105000D01*
X116390000Y-73025000D02*
X117390000Y-73025000D01*
X116390000Y-77855000D02*
X117390000Y-77855000D01*
X130370000Y-71645000D02*
X124350000Y-71645000D01*
X125350000Y-73025000D02*
X125880000Y-73275000D01*
X129340000Y-71355000D02*
X125340000Y-71355000D01*
X129770000Y-74765000D02*
X129770000Y-76365000D01*
X129770000Y-73825000D02*
X130370000Y-73825000D01*
X125880000Y-77855000D02*
X125350000Y-78105000D01*
X125350000Y-78105000D02*
X124350000Y-78105000D01*
X129770000Y-77305000D02*
X129770000Y-78905000D01*
X124350000Y-79485000D02*
X130370000Y-79485000D01*
X124350000Y-77855000D02*
X125350000Y-77855000D01*
X125350000Y-73025000D02*
X125350000Y-78105000D01*
X129770000Y-72225000D02*
X129770000Y-73825000D01*
X130370000Y-74765000D02*
X129770000Y-74765000D01*
X130370000Y-72225000D02*
X129770000Y-72225000D01*
X129770000Y-78905000D02*
X130370000Y-78905000D01*
X130370000Y-77305000D02*
X129770000Y-77305000D01*
X130370000Y-79485000D02*
X130370000Y-71645000D01*
X124350000Y-73025000D02*
X125350000Y-73025000D01*
X124350000Y-73275000D02*
X125350000Y-73275000D01*
X125880000Y-73275000D02*
X125880000Y-77855000D01*
X124350000Y-71645000D02*
X124350000Y-79485000D01*
X129770000Y-76365000D02*
X130370000Y-76365000D01*
X133630000Y-77855000D02*
X133100000Y-78105000D01*
X137520000Y-72225000D02*
X137520000Y-73825000D01*
X133100000Y-73025000D02*
X133630000Y-73275000D01*
X137090000Y-71355000D02*
X133090000Y-71355000D01*
X133630000Y-73275000D02*
X133630000Y-77855000D01*
X138120000Y-77305000D02*
X137520000Y-77305000D01*
X132100000Y-79485000D02*
X138120000Y-79485000D01*
X132100000Y-77855000D02*
X133100000Y-77855000D01*
X132100000Y-73275000D02*
X133100000Y-73275000D01*
X133100000Y-78105000D02*
X132100000Y-78105000D01*
X138120000Y-79485000D02*
X138120000Y-71645000D01*
X137520000Y-74765000D02*
X137520000Y-76365000D01*
X138120000Y-71645000D02*
X132100000Y-71645000D01*
X137520000Y-73825000D02*
X138120000Y-73825000D01*
X137520000Y-77305000D02*
X137520000Y-78905000D01*
X137520000Y-78905000D02*
X138120000Y-78905000D01*
X133100000Y-73025000D02*
X133100000Y-78105000D01*
X138120000Y-72225000D02*
X137520000Y-72225000D01*
X132100000Y-73025000D02*
X133100000Y-73025000D01*
X132100000Y-71645000D02*
X132100000Y-79485000D01*
X137520000Y-76365000D02*
X138120000Y-76365000D01*
X138120000Y-74765000D02*
X137520000Y-74765000D01*
X109290000Y-85241422D02*
X109290000Y-85758578D01*
X110710000Y-85241422D02*
X110710000Y-85758578D01*
D15*
X99625000Y-78593750D02*
X99750000Y-78593750D01*
X99400000Y-78593750D02*
X99400000Y-78143750D01*
X102425000Y-76943750D02*
X102375000Y-76943750D01*
X102700000Y-77593750D02*
X102700000Y-77318750D01*
X99400000Y-77418750D02*
X99400000Y-76943750D01*
X102700000Y-77318750D02*
X102425000Y-76943750D01*
X102700000Y-78593750D02*
X102400000Y-78593750D01*
X102700000Y-78218750D02*
X102700000Y-78593750D01*
X99400000Y-76943750D02*
X99750000Y-76943750D01*
X99700000Y-78593750D02*
X99400000Y-78593750D01*
X102375000Y-76943750D02*
X102375000Y-76168750D01*
D14*
X96840000Y-78027328D02*
X96840000Y-77510172D01*
X98260000Y-78027328D02*
X98260000Y-77510172D01*
X100791422Y-74978750D02*
X101308578Y-74978750D01*
X100791422Y-73558750D02*
X101308578Y-73558750D01*
X104760000Y-76027328D02*
X104760000Y-75510172D01*
X103340000Y-76027328D02*
X103340000Y-75510172D01*
X93590001Y-86441421D02*
X93590001Y-86958577D01*
X95010001Y-86441421D02*
X95010001Y-86958577D01*
X97510001Y-86958577D02*
X97510001Y-86441421D01*
X96090001Y-86958577D02*
X96090001Y-86441421D01*
X98558579Y-83909999D02*
X98041423Y-83909999D01*
X98558579Y-82489999D02*
X98041423Y-82489999D01*
X107860001Y-85699999D02*
X107860001Y-82249999D01*
X102740001Y-85699999D02*
X102740001Y-87649999D01*
X102740001Y-85699999D02*
X102740001Y-83749999D01*
X107860001Y-85699999D02*
X107860001Y-87649999D01*
D15*
X100750001Y-85049999D02*
X101125001Y-85049999D01*
X99475001Y-85324999D02*
X99475001Y-85374999D01*
X101125001Y-88124999D02*
X101125001Y-87999999D01*
X99475001Y-88349999D02*
X99475001Y-87999999D01*
X99850001Y-85049999D02*
X99475001Y-85324999D01*
X101125001Y-88049999D02*
X101125001Y-88349999D01*
X99950001Y-88349999D02*
X99475001Y-88349999D01*
X101125001Y-88349999D02*
X100675001Y-88349999D01*
X99475001Y-85374999D02*
X98700001Y-85374999D01*
X101125001Y-85049999D02*
X101125001Y-85349999D01*
X100125001Y-85049999D02*
X99850001Y-85049999D01*
D14*
X159190000Y-89590000D02*
X159190000Y-89805000D01*
X161500000Y-89590000D02*
X163810000Y-89590000D01*
X163810000Y-89590000D02*
X163810000Y-89805000D01*
X163810000Y-92195000D02*
X165500000Y-92195000D01*
X161500000Y-89590000D02*
X159190000Y-89590000D01*
X163810000Y-92410000D02*
X163810000Y-92195000D01*
X161500000Y-92410000D02*
X163810000Y-92410000D01*
X159190000Y-92410000D02*
X159190000Y-92195000D01*
X161500000Y-92410000D02*
X159190000Y-92410000D01*
X154300000Y-91418578D02*
X154300000Y-90901422D01*
X152880000Y-91418578D02*
X152880000Y-90901422D01*
X154300000Y-83401422D02*
X154300000Y-83918578D01*
X152880000Y-83401422D02*
X152880000Y-83918578D01*
X152880000Y-87151422D02*
X152880000Y-87668578D01*
X154300000Y-87151422D02*
X154300000Y-87668578D01*
X146520000Y-73250000D02*
X146520000Y-75290000D01*
X145990000Y-73000000D02*
X146520000Y-73250000D01*
X151010000Y-74740000D02*
X150410000Y-74740000D01*
X146520000Y-75290000D02*
X145990000Y-75540000D01*
X150410000Y-72200000D02*
X150410000Y-73800000D01*
X144990000Y-73250000D02*
X145990000Y-73250000D01*
X151010000Y-72200000D02*
X150410000Y-72200000D01*
X150410000Y-73800000D02*
X151010000Y-73800000D01*
X150410000Y-76340000D02*
X151010000Y-76340000D01*
X144990000Y-76920000D02*
X151010000Y-76920000D01*
X150410000Y-74740000D02*
X150410000Y-76340000D01*
X151010000Y-71620000D02*
X144990000Y-71620000D01*
X144990000Y-75290000D02*
X145990000Y-75290000D01*
X149980000Y-71330000D02*
X145980000Y-71330000D01*
X144990000Y-71620000D02*
X144990000Y-76920000D01*
X151010000Y-76920000D02*
X151010000Y-71620000D01*
X144990000Y-73000000D02*
X145990000Y-73000000D01*
X145990000Y-75540000D02*
X144990000Y-75540000D01*
X145990000Y-73000000D02*
X145990000Y-75540000D01*
X152300000Y-87668578D02*
X152300000Y-87151422D01*
X150880000Y-87668578D02*
X150880000Y-87151422D01*
X149348578Y-93370000D02*
X148831422Y-93370000D01*
X149348578Y-91950000D02*
X148831422Y-91950000D01*
X147991422Y-80460000D02*
X148508578Y-80460000D01*
X147991422Y-79040000D02*
X148508578Y-79040000D01*
X145030000Y-87160000D02*
X145030000Y-90610000D01*
X150150000Y-87160000D02*
X150150000Y-85210000D01*
X150150000Y-87160000D02*
X150150000Y-89110000D01*
X145030000Y-87160000D02*
X145030000Y-85210000D01*
D12*
X141440000Y-86010000D02*
X141440000Y-89810000D01*
X139240000Y-89810000D02*
X139240000Y-86010000D01*
X141440000Y-89810000D02*
X139240000Y-89810000D01*
X139240000Y-86010000D02*
X141440000Y-86010000D01*
D14*
X114140000Y-95631000D02*
X114140000Y-112361000D01*
X130110000Y-95631000D02*
X130110000Y-112361000D01*
X130110000Y-95631000D02*
X122500000Y-95631000D01*
X114140000Y-112361000D02*
X119700000Y-112361000D01*
X122700000Y-95436000D02*
X122200000Y-94936000D01*
X114140000Y-95631000D02*
X119700000Y-95631000D01*
X123200000Y-94936000D02*
X122700000Y-95436000D01*
X122200000Y-94936000D02*
X123200000Y-94936000D01*
X130110000Y-112361000D02*
X122500000Y-112361000D01*
X107650000Y-107030000D02*
X107650000Y-101010000D01*
X104530000Y-107030000D02*
X104530000Y-106430000D01*
X105470000Y-106430000D02*
X105470000Y-107030000D01*
X102930000Y-106430000D02*
X102930000Y-107030000D01*
X106270000Y-102010000D02*
X103730000Y-102010000D01*
X106020000Y-101010000D02*
X106020000Y-102010000D01*
X106270000Y-101010000D02*
X106270000Y-102010000D01*
X107940000Y-106000000D02*
X107940000Y-102000000D01*
X103730000Y-102010000D02*
X103730000Y-101010000D01*
X104530000Y-106430000D02*
X102930000Y-106430000D01*
X102350000Y-107030000D02*
X107650000Y-107030000D01*
X106270000Y-102010000D02*
X106020000Y-102540000D01*
X107070000Y-106430000D02*
X105470000Y-106430000D01*
X106020000Y-102540000D02*
X103980000Y-102540000D01*
X103980000Y-102540000D02*
X103730000Y-102010000D01*
X107070000Y-107030000D02*
X107070000Y-106430000D01*
X102350000Y-101010000D02*
X102350000Y-107030000D01*
X103980000Y-101010000D02*
X103980000Y-102010000D01*
X107650000Y-101010000D02*
X102350000Y-101010000D01*
X105790000Y-97741422D02*
X105790000Y-98258578D01*
X107210000Y-97741422D02*
X107210000Y-98258578D01*
X105550000Y-109741422D02*
X105550000Y-110258578D01*
X106970000Y-109741422D02*
X106970000Y-110258578D01*
D12*
X194150000Y-78850000D02*
X196350000Y-78850000D01*
X196350000Y-82650000D02*
X194150000Y-82650000D01*
X196350000Y-78850000D02*
X196350000Y-82650000D01*
X194150000Y-82650000D02*
X194150000Y-78850000D01*
D14*
X199790000Y-85758578D02*
X199790000Y-85241422D01*
X201210000Y-85758578D02*
X201210000Y-85241422D01*
D12*
X198650000Y-82650000D02*
X198650000Y-78850000D01*
X200850000Y-78850000D02*
X200850000Y-82650000D01*
X198650000Y-78850000D02*
X200850000Y-78850000D01*
X200850000Y-82650000D02*
X198650000Y-82650000D01*
D14*
X203540000Y-85758578D02*
X203540000Y-85241422D01*
X204960000Y-85758578D02*
X204960000Y-85241422D01*
X191840000Y-88830000D02*
X191540000Y-89130000D01*
X195090000Y-87330000D02*
X195090000Y-87930000D01*
X190990000Y-87930000D02*
X190990000Y-87330000D01*
X191540000Y-89130000D02*
X192140000Y-89130000D01*
X191840000Y-88830000D02*
X192140000Y-89130000D01*
X194440000Y-88630000D02*
X191640000Y-88630000D01*
X191640000Y-86630000D02*
X194440000Y-86630000D01*
X191690000Y-86630000D02*
G75*
G03*
X190990000Y-87330000I-1J-699999D01*
G01*
X195090000Y-87330000D02*
G75*
G03*
X194390000Y-86630000I-699999J1D01*
G01*
X194390000Y-88630000D02*
G75*
G03*
X195090000Y-87930000I1J699999D01*
G01*
X190990000Y-87930000D02*
G75*
G03*
X191690000Y-88630000I699999J-1D01*
G01*
X176400000Y-86630000D02*
X179200000Y-86630000D01*
X176600000Y-88830000D02*
X176300000Y-89130000D01*
X179200000Y-88630000D02*
X176400000Y-88630000D01*
X175750000Y-87930000D02*
X175750000Y-87330000D01*
X176600000Y-88830000D02*
X176900000Y-89130000D01*
X179850000Y-87330000D02*
X179850000Y-87930000D01*
X176300000Y-89130000D02*
X176900000Y-89130000D01*
X179150000Y-88630000D02*
G75*
G03*
X179850000Y-87930000I1J699999D01*
G01*
X179850000Y-87330000D02*
G75*
G03*
X179150000Y-86630000I-699999J1D01*
G01*
X176450000Y-86630000D02*
G75*
G03*
X175750000Y-87330000I-1J-699999D01*
G01*
X175750000Y-87930000D02*
G75*
G03*
X176450000Y-88630000I699999J-1D01*
G01*
X204220000Y-75374000D02*
X204470000Y-75904000D01*
X200190000Y-71484000D02*
X200190000Y-70884000D01*
X202730000Y-71484000D02*
X202730000Y-70884000D01*
X203670000Y-70884000D02*
X203670000Y-71484000D01*
X192930000Y-76904000D02*
X205850000Y-76904000D01*
X201130000Y-71484000D02*
X202730000Y-71484000D01*
X194310000Y-75904000D02*
X194560000Y-75374000D01*
X205850000Y-76904000D02*
X205850000Y-70884000D01*
X196050000Y-71484000D02*
X197650000Y-71484000D01*
X194310000Y-76904000D02*
X194310000Y-75904000D01*
X204470000Y-75904000D02*
X204470000Y-76904000D01*
X196050000Y-70884000D02*
X196050000Y-71484000D01*
X193510000Y-70884000D02*
X193510000Y-71484000D01*
X198590000Y-70884000D02*
X198590000Y-71484000D01*
X194310000Y-75904000D02*
X204470000Y-75904000D01*
X195110000Y-71484000D02*
X195110000Y-70884000D01*
X194560000Y-75374000D02*
X204220000Y-75374000D01*
X198590000Y-71484000D02*
X200190000Y-71484000D01*
X197650000Y-71484000D02*
X197650000Y-70884000D01*
X201130000Y-70884000D02*
X201130000Y-71484000D01*
X205270000Y-71484000D02*
X205270000Y-70884000D01*
X205850000Y-70884000D02*
X192930000Y-70884000D01*
X192640000Y-71914000D02*
X192640000Y-75914000D01*
X203670000Y-71484000D02*
X205270000Y-71484000D01*
X204220000Y-76904000D02*
X204220000Y-75904000D01*
X193510000Y-71484000D02*
X195110000Y-71484000D01*
X194560000Y-76904000D02*
X194560000Y-75904000D01*
X192930000Y-70884000D02*
X192930000Y-76904000D01*
D12*
X185100000Y-78850000D02*
X185100000Y-82650000D01*
X185100000Y-82650000D02*
X182900000Y-82650000D01*
X182900000Y-78850000D02*
X185100000Y-78850000D01*
X182900000Y-82650000D02*
X182900000Y-78850000D01*
D14*
X187540000Y-85258578D02*
X187540000Y-84741422D01*
X188960000Y-85258578D02*
X188960000Y-84741422D01*
D12*
X180600000Y-78850000D02*
X180600000Y-82650000D01*
X180600000Y-82650000D02*
X178400000Y-82650000D01*
X178400000Y-78850000D02*
X180600000Y-78850000D01*
X178400000Y-82650000D02*
X178400000Y-78850000D01*
D14*
X175200000Y-91380000D02*
X176530000Y-91380000D01*
X175200000Y-92710000D02*
X175200000Y-91380000D01*
X177800000Y-94040000D02*
X177800000Y-91380000D01*
X177800000Y-94040000D02*
X205800000Y-94040000D01*
X205800000Y-94040000D02*
X205800000Y-91380000D01*
X177800000Y-91380000D02*
X205800000Y-91380000D01*
X185460000Y-85258578D02*
X185460000Y-84741422D01*
X184040000Y-85258578D02*
X184040000Y-84741422D01*
X197460000Y-85758578D02*
X197460000Y-85241422D01*
X196040000Y-85758578D02*
X196040000Y-85241422D01*
D12*
X187400000Y-82650000D02*
X187400000Y-78850000D01*
X189600000Y-82650000D02*
X187400000Y-82650000D01*
X187400000Y-78850000D02*
X189600000Y-78850000D01*
X189600000Y-78850000D02*
X189600000Y-82650000D01*
X210650000Y-94102000D02*
X208450000Y-94102000D01*
X210650000Y-90302000D02*
X210650000Y-94102000D01*
X208450000Y-94102000D02*
X208450000Y-90302000D01*
X208450000Y-90302000D02*
X210650000Y-90302000D01*
D14*
X187710000Y-75374000D02*
X187960000Y-75904000D01*
X178600000Y-71484000D02*
X178600000Y-70884000D01*
X183680000Y-71484000D02*
X183680000Y-70884000D01*
X181140000Y-71484000D02*
X181140000Y-70884000D01*
X187160000Y-71484000D02*
X188760000Y-71484000D01*
X187160000Y-70884000D02*
X187160000Y-71484000D01*
X189340000Y-70884000D02*
X176420000Y-70884000D01*
X184620000Y-70884000D02*
X184620000Y-71484000D01*
X179540000Y-71484000D02*
X181140000Y-71484000D01*
X182080000Y-70884000D02*
X182080000Y-71484000D01*
X176130000Y-71914000D02*
X176130000Y-75914000D01*
X177000000Y-70884000D02*
X177000000Y-71484000D01*
X189340000Y-76904000D02*
X189340000Y-70884000D01*
X188760000Y-71484000D02*
X188760000Y-70884000D01*
X177800000Y-76904000D02*
X177800000Y-75904000D01*
X184620000Y-71484000D02*
X186220000Y-71484000D01*
X176420000Y-70884000D02*
X176420000Y-76904000D01*
X182080000Y-71484000D02*
X183680000Y-71484000D01*
X176420000Y-76904000D02*
X189340000Y-76904000D01*
X178050000Y-76904000D02*
X178050000Y-75904000D01*
X177800000Y-75904000D02*
X178050000Y-75374000D01*
X177000000Y-71484000D02*
X178600000Y-71484000D01*
X186220000Y-71484000D02*
X186220000Y-70884000D01*
X177800000Y-75904000D02*
X187960000Y-75904000D01*
X178050000Y-75374000D02*
X187710000Y-75374000D01*
X187960000Y-75904000D02*
X187960000Y-76904000D01*
X187710000Y-76904000D02*
X187710000Y-75904000D01*
X179540000Y-70884000D02*
X179540000Y-71484000D01*
X181290000Y-85258578D02*
X181290000Y-84741422D01*
X182710000Y-85258578D02*
X182710000Y-84741422D01*
D12*
X203150000Y-78850000D02*
X205350000Y-78850000D01*
X205350000Y-78850000D02*
X205350000Y-82650000D01*
X203150000Y-82650000D02*
X203150000Y-78850000D01*
X205350000Y-82650000D02*
X203150000Y-82650000D01*
D14*
X125885000Y-125535000D02*
X125885000Y-121650000D01*
X123615000Y-121650000D02*
X123615000Y-125535000D01*
X123615000Y-125535000D02*
X125885000Y-125535000D01*
X155100000Y-121300000D02*
X155100000Y-120700000D01*
X157900000Y-120700000D02*
X157900000Y-121300000D01*
X155800000Y-120000000D02*
X157200000Y-120000000D01*
X157200000Y-122000000D02*
X155800000Y-122000000D01*
X155100000Y-121300000D02*
G75*
G03*
X155800000Y-122000000I699999J-1D01*
G01*
X157900000Y-120700000D02*
G75*
G03*
X157200000Y-120000000I-699999J1D01*
G01*
X155800000Y-120000000D02*
G75*
G03*
X155100000Y-120700000I-1J-699999D01*
G01*
X157200000Y-122000000D02*
G75*
G03*
X157900000Y-121300000I1J699999D01*
G01*
X109988748Y-106735000D02*
X110511252Y-106735000D01*
X109988748Y-105265000D02*
X110511252Y-105265000D01*
X165080000Y-77270000D02*
X165080000Y-79870000D01*
X162420000Y-74670000D02*
X163750000Y-74670000D01*
X162420000Y-77270000D02*
X165080000Y-77270000D01*
X162420000Y-79870000D02*
X165080000Y-79870000D01*
X162420000Y-76000000D02*
X162420000Y-74670000D01*
X162420000Y-77270000D02*
X162420000Y-79870000D01*
X110238748Y-100515000D02*
X110761252Y-100515000D01*
X110238748Y-101985000D02*
X110761252Y-101985000D01*
X108996700Y-111651000D02*
X111003300Y-111651000D01*
X108996700Y-109636739D02*
X108996700Y-110363261D01*
X111003300Y-108349000D02*
X108996700Y-108349000D01*
X158735000Y-127185436D02*
X158735000Y-127639564D01*
X157265000Y-127185436D02*
X157265000Y-127639564D01*
X91869600Y-135337700D02*
X91869600Y-113595300D01*
X121130400Y-135337700D02*
X91869600Y-135337700D01*
X91869600Y-113595300D02*
X121130400Y-113595300D01*
X121130400Y-113595300D02*
X121130400Y-135337700D01*
X119276200Y-137115700D02*
G75*
G03*
X119276200Y-137115700I-381000J0D01*
G01*
X123240000Y-127554437D02*
X124304437Y-126490000D01*
X128760000Y-132010000D02*
X128760000Y-130310000D01*
X128760000Y-126490000D02*
X128760000Y-128190000D01*
X123240000Y-130945563D02*
X124304437Y-132010000D01*
X124304437Y-132010000D02*
X128760000Y-132010000D01*
X123240000Y-130945563D02*
X123240000Y-130310000D01*
X123240000Y-127554437D02*
X123240000Y-128190000D01*
X124304437Y-126490000D02*
X128760000Y-126490000D01*
X128261252Y-115265000D02*
X127738748Y-115265000D01*
X128261252Y-116735000D02*
X127738748Y-116735000D01*
D12*
X131245000Y-130750000D02*
X131245000Y-125250000D01*
X131245000Y-130750000D02*
X131450000Y-130750000D01*
X136755000Y-125250000D02*
X136455000Y-125250000D01*
X131450000Y-130750000D02*
X131449936Y-131171311D01*
X131245000Y-125250000D02*
X131545000Y-125250000D01*
X136755000Y-130750000D02*
X136455000Y-130750000D01*
X136755000Y-130750000D02*
X136755000Y-125250000D01*
D14*
X198630400Y-135404700D02*
X169369600Y-135404700D01*
X169369600Y-135404700D02*
X169369600Y-113662300D01*
X198630400Y-113662300D02*
X198630400Y-135404700D01*
X169369600Y-113662300D02*
X198630400Y-113662300D01*
X171985800Y-111884300D02*
G75*
G03*
X171985800Y-111884300I-381000J0D01*
G01*
X94010000Y-69920000D02*
X95010000Y-69920000D01*
X88990000Y-80880000D02*
X89590000Y-80880000D01*
X95010000Y-70170000D02*
X94010000Y-70170000D01*
X88990000Y-75800000D02*
X89590000Y-75800000D01*
X95010000Y-81460000D02*
X95010000Y-68540000D01*
X89590000Y-74200000D02*
X88990000Y-74200000D01*
X89590000Y-79280000D02*
X88990000Y-79280000D01*
X88990000Y-81460000D02*
X95010000Y-81460000D01*
X88990000Y-73260000D02*
X89590000Y-73260000D01*
X93480000Y-79830000D02*
X93480000Y-70170000D01*
X90020000Y-81750000D02*
X94020000Y-81750000D01*
X89590000Y-71660000D02*
X88990000Y-71660000D01*
X88990000Y-70720000D02*
X89590000Y-70720000D01*
X94010000Y-80080000D02*
X94010000Y-69920000D01*
X89590000Y-76740000D02*
X88990000Y-76740000D01*
X89590000Y-69120000D02*
X88990000Y-69120000D01*
X94010000Y-80080000D02*
X93480000Y-79830000D01*
X89590000Y-78340000D02*
X89590000Y-76740000D01*
X88990000Y-68540000D02*
X88990000Y-81460000D01*
X89590000Y-73260000D02*
X89590000Y-71660000D01*
X95010000Y-79830000D02*
X94010000Y-79830000D01*
X88990000Y-78340000D02*
X89590000Y-78340000D01*
X89590000Y-75800000D02*
X89590000Y-74200000D01*
X95010000Y-80080000D02*
X94010000Y-80080000D01*
X89590000Y-70720000D02*
X89590000Y-69120000D01*
X93480000Y-70170000D02*
X94010000Y-69920000D01*
X89590000Y-80880000D02*
X89590000Y-79280000D01*
X95010000Y-68540000D02*
X88990000Y-68540000D01*
D12*
X157400000Y-78850000D02*
X153600000Y-78850000D01*
X153600000Y-78850000D02*
X153600000Y-76650000D01*
X157400000Y-76650000D02*
X157400000Y-78850000D01*
X153600000Y-76650000D02*
X157400000Y-76650000D01*
D14*
X124272936Y-116735000D02*
X124727064Y-116735000D01*
X124272936Y-115265000D02*
X124727064Y-115265000D01*
X149460000Y-133445000D02*
X149460000Y-135115000D01*
X141425000Y-136115000D02*
X141425000Y-135110000D01*
X141540000Y-133445000D02*
X149460000Y-133445000D01*
X141425000Y-135110000D02*
X139520000Y-135110000D01*
X149575000Y-135110000D02*
X149575000Y-136115000D01*
X144700000Y-126485000D02*
X146300000Y-126485000D01*
X146300000Y-126485000D02*
X146300000Y-125885000D01*
X141540000Y-136115000D02*
X141540000Y-135115000D01*
X140740000Y-125885000D02*
X140740000Y-126485000D01*
X144700000Y-125885000D02*
X144700000Y-126485000D01*
X149575000Y-136115000D02*
X141425000Y-136115000D01*
X139520000Y-125885000D02*
X151480000Y-125885000D01*
X151480000Y-125885000D02*
X151480000Y-135110000D01*
X149460000Y-135115000D02*
X149460000Y-136115000D01*
X150260000Y-126485000D02*
X150260000Y-125885000D01*
X151480000Y-135110000D02*
X149575000Y-135110000D01*
X140740000Y-126485000D02*
X142340000Y-126485000D01*
X139520000Y-135110000D02*
X139520000Y-125885000D01*
X142340000Y-126485000D02*
X142340000Y-125885000D01*
X148660000Y-126485000D02*
X150260000Y-126485000D01*
X139230000Y-129105000D02*
X139230000Y-133105000D01*
X148660000Y-125885000D02*
X148660000Y-126485000D01*
X141540000Y-135115000D02*
X141540000Y-133445000D01*
X141540000Y-135115000D02*
X149460000Y-135115000D01*
X146930000Y-123640000D02*
X163070000Y-123640000D01*
X146930000Y-118369000D02*
X146930000Y-123640000D01*
X163070000Y-118369000D02*
X163070000Y-123640000D01*
X146930000Y-118369000D02*
X163070000Y-118369000D01*
X108996700Y-97636739D02*
X108996700Y-98363261D01*
X111003300Y-96349000D02*
X108996700Y-96349000D01*
X108996700Y-99651000D02*
X111003300Y-99651000D01*
D15*
X156150000Y-127237500D02*
X156150000Y-126962500D01*
X153150000Y-128237500D02*
X152850000Y-128237500D01*
X155875000Y-126587500D02*
X155825000Y-126587500D01*
X153075000Y-128237500D02*
X153200000Y-128237500D01*
X155825000Y-126587500D02*
X155825000Y-125812500D01*
X156150000Y-127862500D02*
X156150000Y-128237500D01*
X152850000Y-126587500D02*
X153200000Y-126587500D01*
X156150000Y-128237500D02*
X155850000Y-128237500D01*
X152850000Y-127062500D02*
X152850000Y-126587500D01*
X156150000Y-126962500D02*
X155875000Y-126587500D01*
X152850000Y-128237500D02*
X152850000Y-127787500D01*
D14*
X144570000Y-118369000D02*
X144570000Y-123640000D01*
X128430000Y-118369000D02*
X128430000Y-123640000D01*
X128430000Y-123640000D02*
X144570000Y-123640000D01*
X128430000Y-118369000D02*
X144570000Y-118369000D01*
X162304437Y-126240000D02*
X161240000Y-127304437D01*
X161240000Y-127304437D02*
X161240000Y-131760000D01*
X166760000Y-127304437D02*
X166760000Y-131760000D01*
X165695563Y-126240000D02*
X165060000Y-126240000D01*
X161240000Y-131760000D02*
X162940000Y-131760000D01*
X166760000Y-131760000D02*
X165060000Y-131760000D01*
X162304437Y-126240000D02*
X162940000Y-126240000D01*
X165695563Y-126240000D02*
X166760000Y-127304437D01*
X137800000Y-120000000D02*
X139200000Y-120000000D01*
X139200000Y-122000000D02*
X137800000Y-122000000D01*
X137100000Y-121300000D02*
X137100000Y-120700000D01*
X139900000Y-120700000D02*
X139900000Y-121300000D01*
X139200000Y-122000000D02*
G75*
G03*
X139900000Y-121300000I1J699999D01*
G01*
X137800000Y-120000000D02*
G75*
G03*
X137100000Y-120700000I-1J-699999D01*
G01*
X139900000Y-120700000D02*
G75*
G03*
X139200000Y-120000000I-699999J1D01*
G01*
X137100000Y-121300000D02*
G75*
G03*
X137800000Y-122000000I699999J-1D01*
G01*
X167635000Y-124285000D02*
X167635000Y-120400000D01*
X165365000Y-120400000D02*
X165365000Y-124285000D01*
X165365000Y-124285000D02*
X167635000Y-124285000D01*
G36*
X85281806Y-88480002D02*
G01*
X85286260Y-88483336D01*
X85295748Y-88485400D01*
X85315285Y-88485400D01*
X85383406Y-88505402D01*
X85387860Y-88508736D01*
X85410583Y-88513679D01*
X85410025Y-88516244D01*
X85459606Y-88530802D01*
X85465123Y-88534932D01*
X85513827Y-88559311D01*
X85537583Y-88564479D01*
X85537025Y-88567044D01*
X85586606Y-88581602D01*
X85598084Y-88590195D01*
X85640634Y-88611494D01*
X85671180Y-88637962D01*
X85722059Y-88663430D01*
X85726023Y-88666864D01*
X85767634Y-88687694D01*
X85802220Y-88717663D01*
X85843834Y-88738493D01*
X85866979Y-88758548D01*
X85871896Y-88766200D01*
X85903822Y-88793864D01*
X85945434Y-88814693D01*
X85968579Y-88834748D01*
X85973496Y-88842400D01*
X86005422Y-88870064D01*
X86047034Y-88890893D01*
X86070179Y-88910948D01*
X86075097Y-88918602D01*
X86095578Y-88936348D01*
X86100495Y-88944000D01*
X86120978Y-88961748D01*
X86125895Y-88969400D01*
X86146378Y-88987148D01*
X86151295Y-88994800D01*
X86171778Y-89012548D01*
X86176694Y-89020198D01*
X86202465Y-89042529D01*
X86210148Y-89044200D01*
X86229285Y-89044200D01*
X86249073Y-89038390D01*
X86266548Y-89018222D01*
X86274200Y-89013305D01*
X86291948Y-88992822D01*
X86299600Y-88987905D01*
X86317348Y-88967422D01*
X86325000Y-88962505D01*
X86342748Y-88942022D01*
X86350400Y-88937105D01*
X86368148Y-88916622D01*
X86375799Y-88911706D01*
X86384881Y-88901224D01*
X86444606Y-88862841D01*
X86452273Y-88860590D01*
X86469748Y-88840422D01*
X86477400Y-88835505D01*
X86495148Y-88815022D01*
X86502799Y-88810106D01*
X86511881Y-88799624D01*
X86571606Y-88761241D01*
X86579272Y-88758990D01*
X86588081Y-88748824D01*
X86647806Y-88710441D01*
X86655472Y-88708190D01*
X86664281Y-88698024D01*
X86724006Y-88659641D01*
X86731672Y-88657390D01*
X86740481Y-88647224D01*
X86800206Y-88608841D01*
X86820970Y-88602744D01*
X86851006Y-88583441D01*
X86882766Y-88574115D01*
X86894295Y-88566705D01*
X86900965Y-88565746D01*
X86947970Y-88551944D01*
X86978006Y-88532641D01*
X87009766Y-88523315D01*
X87021295Y-88515905D01*
X87027965Y-88514946D01*
X87085965Y-88497916D01*
X87097495Y-88490505D01*
X87132998Y-88485400D01*
X87143685Y-88485400D01*
X87187565Y-88472516D01*
X87199095Y-88465105D01*
X87234598Y-88460000D01*
X87601285Y-88460000D01*
X87669406Y-88480002D01*
X87673860Y-88483336D01*
X87683348Y-88485400D01*
X87728285Y-88485400D01*
X87796406Y-88505402D01*
X87800860Y-88508736D01*
X87823583Y-88513679D01*
X87823025Y-88516244D01*
X87872606Y-88530802D01*
X87877060Y-88534136D01*
X87899783Y-88539079D01*
X87899225Y-88541644D01*
X87948806Y-88556202D01*
X87954323Y-88560332D01*
X88003031Y-88584713D01*
X88003131Y-88584735D01*
X88053831Y-88610113D01*
X88053931Y-88610135D01*
X88104631Y-88635513D01*
X88104731Y-88635535D01*
X88160459Y-88663430D01*
X88164422Y-88666864D01*
X88206034Y-88687693D01*
X88229179Y-88707748D01*
X88234097Y-88715402D01*
X88254578Y-88733148D01*
X88259495Y-88740800D01*
X88279978Y-88758548D01*
X88284896Y-88766200D01*
X88329443Y-88804801D01*
X88339278Y-88820105D01*
X88356178Y-88834748D01*
X88361095Y-88842400D01*
X88381578Y-88860148D01*
X88386495Y-88867800D01*
X88406978Y-88885548D01*
X88411894Y-88893199D01*
X88422376Y-88902281D01*
X88460759Y-88962006D01*
X88463010Y-88969672D01*
X88473176Y-88978481D01*
X88511559Y-89038206D01*
X88517656Y-89058970D01*
X88536959Y-89089006D01*
X88543056Y-89109770D01*
X88562359Y-89139806D01*
X88568456Y-89160570D01*
X88587759Y-89190606D01*
X88597085Y-89222366D01*
X88604495Y-89233895D01*
X88605454Y-89240565D01*
X88622484Y-89298565D01*
X88629895Y-89310095D01*
X88635000Y-89345598D01*
X88635000Y-89381685D01*
X88647884Y-89425565D01*
X88655295Y-89437095D01*
X88660400Y-89472598D01*
X88660400Y-89559485D01*
X88673284Y-89603365D01*
X88680695Y-89614895D01*
X88685800Y-89650398D01*
X88685800Y-89788485D01*
X88665798Y-89856606D01*
X88662464Y-89861060D01*
X88660400Y-89870548D01*
X88660400Y-89940885D01*
X88640398Y-90009006D01*
X88637064Y-90013460D01*
X88635000Y-90022948D01*
X88635000Y-90042485D01*
X88614998Y-90110606D01*
X88611664Y-90115060D01*
X88606721Y-90137783D01*
X88604156Y-90137225D01*
X88589598Y-90186806D01*
X88586264Y-90191260D01*
X88581321Y-90213983D01*
X88578756Y-90213425D01*
X88564198Y-90263006D01*
X88560068Y-90268523D01*
X88533170Y-90322259D01*
X88529736Y-90326223D01*
X88508906Y-90367834D01*
X88482438Y-90398380D01*
X88459487Y-90444231D01*
X88459465Y-90444331D01*
X88431570Y-90500059D01*
X88428136Y-90504022D01*
X88407307Y-90545634D01*
X88387252Y-90568779D01*
X88379600Y-90573696D01*
X88351936Y-90605622D01*
X88331107Y-90647234D01*
X88311052Y-90670379D01*
X88303400Y-90675296D01*
X88275736Y-90707222D01*
X88254907Y-90748834D01*
X88234852Y-90771979D01*
X88227198Y-90776897D01*
X88209452Y-90797378D01*
X88201800Y-90802295D01*
X88184052Y-90822778D01*
X88176400Y-90827695D01*
X88158652Y-90848178D01*
X88151000Y-90853095D01*
X88133252Y-90873578D01*
X88125602Y-90878494D01*
X88097936Y-90910422D01*
X88077106Y-90952036D01*
X88065719Y-90965177D01*
X88005994Y-91003559D01*
X87998327Y-91005810D01*
X87980852Y-91025978D01*
X87973200Y-91030895D01*
X87955452Y-91051378D01*
X87947800Y-91056295D01*
X87930052Y-91076778D01*
X87922400Y-91081695D01*
X87904652Y-91102178D01*
X87897000Y-91107095D01*
X87879252Y-91127578D01*
X87871600Y-91132495D01*
X87853852Y-91152978D01*
X87846200Y-91157895D01*
X87828452Y-91178378D01*
X87820800Y-91183295D01*
X87803052Y-91203778D01*
X87795400Y-91208695D01*
X87777652Y-91229178D01*
X87770000Y-91234095D01*
X87752252Y-91254578D01*
X87744600Y-91259495D01*
X87726852Y-91279978D01*
X87719200Y-91284895D01*
X87701452Y-91305378D01*
X87693800Y-91310295D01*
X87676052Y-91330778D01*
X87668400Y-91335695D01*
X87650652Y-91356178D01*
X87643000Y-91361095D01*
X87625252Y-91381578D01*
X87617600Y-91386495D01*
X87599852Y-91406978D01*
X87592200Y-91411895D01*
X87574452Y-91432378D01*
X87566800Y-91437295D01*
X87549052Y-91457778D01*
X87541400Y-91462695D01*
X87523652Y-91483178D01*
X87516000Y-91488095D01*
X87498252Y-91508578D01*
X87490600Y-91513495D01*
X87472852Y-91533978D01*
X87465200Y-91538895D01*
X87447452Y-91559378D01*
X87439800Y-91564295D01*
X87422052Y-91584778D01*
X87414401Y-91589694D01*
X87405319Y-91600176D01*
X87345594Y-91638559D01*
X87337927Y-91640810D01*
X87320452Y-91660978D01*
X87312800Y-91665895D01*
X87295052Y-91686378D01*
X87287400Y-91691295D01*
X87269652Y-91711778D01*
X87262000Y-91716695D01*
X87244252Y-91737178D01*
X87236600Y-91742095D01*
X87218852Y-91762578D01*
X87211200Y-91767495D01*
X87193452Y-91787978D01*
X87185800Y-91792895D01*
X87168052Y-91813378D01*
X87160400Y-91818295D01*
X87142652Y-91838778D01*
X87135000Y-91843695D01*
X87117252Y-91864178D01*
X87109600Y-91869095D01*
X87091852Y-91889578D01*
X87084200Y-91894495D01*
X87066452Y-91914978D01*
X87058800Y-91919895D01*
X87041052Y-91940378D01*
X87033400Y-91945295D01*
X87015652Y-91965778D01*
X87008000Y-91970695D01*
X86990252Y-91991178D01*
X86982600Y-91996095D01*
X86964852Y-92016578D01*
X86957200Y-92021495D01*
X86939452Y-92041978D01*
X86931800Y-92046895D01*
X86914052Y-92067378D01*
X86906400Y-92072295D01*
X86888652Y-92092778D01*
X86881000Y-92097695D01*
X86863252Y-92118178D01*
X86855600Y-92123095D01*
X86837852Y-92143578D01*
X86830200Y-92148495D01*
X86812452Y-92168978D01*
X86804800Y-92173895D01*
X86787052Y-92194378D01*
X86779400Y-92199295D01*
X86761652Y-92219778D01*
X86754000Y-92224695D01*
X86736252Y-92245178D01*
X86728601Y-92250094D01*
X86719519Y-92260576D01*
X86659794Y-92298959D01*
X86652127Y-92301210D01*
X86634652Y-92321378D01*
X86627000Y-92326295D01*
X86609252Y-92346778D01*
X86601600Y-92351695D01*
X86583852Y-92372178D01*
X86576200Y-92377095D01*
X86558452Y-92397578D01*
X86550800Y-92402495D01*
X86533052Y-92422978D01*
X86525400Y-92427895D01*
X86507652Y-92448378D01*
X86500000Y-92453295D01*
X86482252Y-92473778D01*
X86474600Y-92478695D01*
X86456852Y-92499178D01*
X86449200Y-92504095D01*
X86431452Y-92524578D01*
X86423800Y-92529495D01*
X86406052Y-92549978D01*
X86398400Y-92554895D01*
X86380652Y-92575378D01*
X86373000Y-92580295D01*
X86355252Y-92600778D01*
X86347601Y-92605694D01*
X86338519Y-92616176D01*
X86278793Y-92654559D01*
X86261693Y-92659580D01*
X86190697Y-92659580D01*
X86186459Y-92657266D01*
X86173296Y-92654403D01*
X86117566Y-92626507D01*
X86094421Y-92606452D01*
X86089503Y-92598798D01*
X86069022Y-92581052D01*
X86064105Y-92573400D01*
X86043622Y-92555652D01*
X86038705Y-92548000D01*
X86018222Y-92530252D01*
X86013305Y-92522600D01*
X85992822Y-92504852D01*
X85987905Y-92497200D01*
X85967422Y-92479452D01*
X85962505Y-92471800D01*
X85942022Y-92454052D01*
X85937105Y-92446400D01*
X85916622Y-92428652D01*
X85911705Y-92421000D01*
X85891222Y-92403252D01*
X85886305Y-92395600D01*
X85865822Y-92377852D01*
X85860905Y-92370200D01*
X85840422Y-92352452D01*
X85835505Y-92344800D01*
X85815022Y-92327052D01*
X85810105Y-92319400D01*
X85789622Y-92301652D01*
X85784706Y-92294002D01*
X85752778Y-92266336D01*
X85711166Y-92245507D01*
X85688021Y-92225452D01*
X85683103Y-92217798D01*
X85662622Y-92200052D01*
X85657705Y-92192400D01*
X85637222Y-92174652D01*
X85632305Y-92167000D01*
X85611822Y-92149252D01*
X85606905Y-92141600D01*
X85586422Y-92123852D01*
X85581505Y-92116200D01*
X85561022Y-92098452D01*
X85556105Y-92090800D01*
X85535622Y-92073052D01*
X85530705Y-92065400D01*
X85510222Y-92047652D01*
X85505305Y-92040000D01*
X85484822Y-92022252D01*
X85479905Y-92014600D01*
X85459422Y-91996852D01*
X85454505Y-91989200D01*
X85434022Y-91971452D01*
X85429105Y-91963800D01*
X85408622Y-91946052D01*
X85403705Y-91938400D01*
X85383222Y-91920652D01*
X85378305Y-91913000D01*
X85357822Y-91895252D01*
X85352905Y-91887600D01*
X85332422Y-91869852D01*
X85327505Y-91862200D01*
X85307022Y-91844452D01*
X85302105Y-91836800D01*
X85281622Y-91819052D01*
X85276705Y-91811400D01*
X85256222Y-91793652D01*
X85251305Y-91786000D01*
X85230822Y-91768252D01*
X85225905Y-91760600D01*
X85205422Y-91742852D01*
X85200505Y-91735200D01*
X85180022Y-91717452D01*
X85175105Y-91709800D01*
X85154622Y-91692052D01*
X85149705Y-91684400D01*
X85129222Y-91666652D01*
X85124306Y-91659002D01*
X85092378Y-91631336D01*
X85050766Y-91610507D01*
X85027621Y-91590452D01*
X85022703Y-91582798D01*
X85002222Y-91565052D01*
X84997305Y-91557400D01*
X84976822Y-91539652D01*
X84971905Y-91532000D01*
X84951422Y-91514252D01*
X84946505Y-91506600D01*
X84926022Y-91488852D01*
X84921105Y-91481200D01*
X84900622Y-91463452D01*
X84895705Y-91455800D01*
X84875222Y-91438052D01*
X84870305Y-91430400D01*
X84849822Y-91412652D01*
X84844905Y-91405000D01*
X84824422Y-91387252D01*
X84819505Y-91379600D01*
X84799022Y-91361852D01*
X84794105Y-91354200D01*
X84773622Y-91336452D01*
X84768705Y-91328800D01*
X84748222Y-91311052D01*
X84743305Y-91303400D01*
X84722822Y-91285652D01*
X84717905Y-91278000D01*
X84697422Y-91260252D01*
X84692505Y-91252600D01*
X84672022Y-91234852D01*
X84667105Y-91227200D01*
X84646622Y-91209452D01*
X84641705Y-91201800D01*
X84621222Y-91184052D01*
X84616305Y-91176400D01*
X84595822Y-91158652D01*
X84590905Y-91151000D01*
X84570422Y-91133252D01*
X84565505Y-91125600D01*
X84545022Y-91107852D01*
X84540105Y-91100200D01*
X84519622Y-91082452D01*
X84514705Y-91074800D01*
X84494222Y-91057052D01*
X84489305Y-91049400D01*
X84468822Y-91031652D01*
X84463904Y-91024000D01*
X84419357Y-90985399D01*
X84409523Y-90970097D01*
X84381178Y-90945536D01*
X84339564Y-90924706D01*
X84326423Y-90913319D01*
X84288041Y-90853594D01*
X84285790Y-90845927D01*
X84265622Y-90828452D01*
X84260705Y-90820800D01*
X84240222Y-90803052D01*
X84235305Y-90795400D01*
X84214822Y-90777652D01*
X84209906Y-90770001D01*
X84199424Y-90760919D01*
X84161041Y-90701194D01*
X84158790Y-90693527D01*
X84138622Y-90676052D01*
X84133706Y-90668401D01*
X84123224Y-90659319D01*
X84084841Y-90599594D01*
X84082590Y-90591927D01*
X84062422Y-90574452D01*
X84057506Y-90566801D01*
X84047024Y-90557719D01*
X84008641Y-90497994D01*
X84002544Y-90477230D01*
X83983241Y-90447194D01*
X83977144Y-90426430D01*
X83957841Y-90396394D01*
X83955590Y-90388728D01*
X83945424Y-90379919D01*
X83907041Y-90320194D01*
X83897715Y-90288434D01*
X83890305Y-90276905D01*
X83889346Y-90270235D01*
X83875544Y-90223230D01*
X83856241Y-90193194D01*
X83846915Y-90161434D01*
X83839505Y-90149905D01*
X83838546Y-90143235D01*
X83821516Y-90085235D01*
X83814105Y-90073705D01*
X83813146Y-90067035D01*
X83796116Y-90009035D01*
X83788705Y-89997505D01*
X83783600Y-89962002D01*
X83783600Y-89925915D01*
X83770716Y-89882035D01*
X83763305Y-89870505D01*
X83758200Y-89835002D01*
X83758200Y-89595315D01*
X83778202Y-89527194D01*
X83781536Y-89522740D01*
X83783600Y-89513252D01*
X83783600Y-89442915D01*
X83803602Y-89374794D01*
X83806936Y-89370340D01*
X83809000Y-89360852D01*
X83809000Y-89341315D01*
X83829002Y-89273194D01*
X83832336Y-89268740D01*
X83837279Y-89246017D01*
X83839844Y-89246575D01*
X83854402Y-89196994D01*
X83858532Y-89191477D01*
X83882913Y-89142769D01*
X83882935Y-89142669D01*
X83908313Y-89091969D01*
X83908335Y-89091869D01*
X83936230Y-89036141D01*
X83939664Y-89032177D01*
X83960494Y-88990566D01*
X83990463Y-88955980D01*
X84011293Y-88914366D01*
X84031348Y-88891221D01*
X84039002Y-88886303D01*
X84056748Y-88865822D01*
X84064398Y-88860906D01*
X84101529Y-88818055D01*
X84117132Y-88789481D01*
X84156914Y-88765877D01*
X84158348Y-88764222D01*
X84166000Y-88759305D01*
X84183748Y-88738822D01*
X84191400Y-88733905D01*
X84209148Y-88713422D01*
X84216799Y-88708506D01*
X84225881Y-88698024D01*
X84285606Y-88659641D01*
X84306370Y-88653544D01*
X84336406Y-88634241D01*
X84357170Y-88628144D01*
X84387206Y-88608841D01*
X84407970Y-88602744D01*
X84438006Y-88583441D01*
X84458770Y-88577344D01*
X84488806Y-88558041D01*
X84520566Y-88548715D01*
X84532095Y-88541305D01*
X84538765Y-88540346D01*
X84596765Y-88523316D01*
X84608295Y-88515905D01*
X84614965Y-88514946D01*
X84672965Y-88497916D01*
X84684495Y-88490505D01*
X84719998Y-88485400D01*
X84756085Y-88485400D01*
X84799965Y-88472516D01*
X84811495Y-88465105D01*
X84846998Y-88460000D01*
X85213685Y-88460000D01*
X85281806Y-88480002D01*
G37*
G36*
X211436806Y-86312802D02*
G01*
X211441260Y-86316136D01*
X211450748Y-86318200D01*
X211470285Y-86318200D01*
X211538406Y-86338202D01*
X211542860Y-86341536D01*
X211565583Y-86346479D01*
X211565025Y-86349044D01*
X211614606Y-86363602D01*
X211620123Y-86367732D01*
X211668827Y-86392111D01*
X211692583Y-86397279D01*
X211692025Y-86399844D01*
X211741606Y-86414402D01*
X211753084Y-86422995D01*
X211795634Y-86444294D01*
X211826180Y-86470762D01*
X211877059Y-86496230D01*
X211881023Y-86499664D01*
X211922634Y-86520494D01*
X211957220Y-86550463D01*
X211998834Y-86571293D01*
X212021979Y-86591348D01*
X212026896Y-86599000D01*
X212058822Y-86626664D01*
X212100434Y-86647493D01*
X212123579Y-86667548D01*
X212128496Y-86675200D01*
X212160422Y-86702864D01*
X212202034Y-86723693D01*
X212225179Y-86743748D01*
X212230097Y-86751402D01*
X212250578Y-86769148D01*
X212255495Y-86776800D01*
X212275978Y-86794548D01*
X212280895Y-86802200D01*
X212301378Y-86819948D01*
X212306295Y-86827600D01*
X212326778Y-86845348D01*
X212331694Y-86852998D01*
X212357465Y-86875329D01*
X212365148Y-86877000D01*
X212384285Y-86877000D01*
X212404073Y-86871190D01*
X212421548Y-86851022D01*
X212429200Y-86846105D01*
X212446948Y-86825622D01*
X212454600Y-86820705D01*
X212472348Y-86800222D01*
X212480000Y-86795305D01*
X212497748Y-86774822D01*
X212505400Y-86769905D01*
X212523148Y-86749422D01*
X212530799Y-86744506D01*
X212539881Y-86734024D01*
X212599606Y-86695641D01*
X212607273Y-86693390D01*
X212624748Y-86673222D01*
X212632400Y-86668305D01*
X212650148Y-86647822D01*
X212657799Y-86642906D01*
X212666881Y-86632424D01*
X212726606Y-86594041D01*
X212734272Y-86591790D01*
X212743081Y-86581624D01*
X212802806Y-86543241D01*
X212810472Y-86540990D01*
X212819281Y-86530824D01*
X212879006Y-86492441D01*
X212886672Y-86490190D01*
X212895481Y-86480024D01*
X212955206Y-86441641D01*
X212975970Y-86435544D01*
X213006006Y-86416241D01*
X213037766Y-86406915D01*
X213049295Y-86399505D01*
X213055965Y-86398546D01*
X213102970Y-86384744D01*
X213133006Y-86365441D01*
X213164766Y-86356115D01*
X213176295Y-86348705D01*
X213182965Y-86347746D01*
X213240965Y-86330716D01*
X213252495Y-86323305D01*
X213287998Y-86318200D01*
X213298685Y-86318200D01*
X213342565Y-86305316D01*
X213354095Y-86297905D01*
X213389598Y-86292800D01*
X213756285Y-86292800D01*
X213824406Y-86312802D01*
X213828860Y-86316136D01*
X213838348Y-86318200D01*
X213883285Y-86318200D01*
X213951406Y-86338202D01*
X213955860Y-86341536D01*
X213978583Y-86346479D01*
X213978025Y-86349044D01*
X214027606Y-86363602D01*
X214032060Y-86366936D01*
X214054783Y-86371879D01*
X214054225Y-86374444D01*
X214103806Y-86389002D01*
X214109323Y-86393132D01*
X214158031Y-86417513D01*
X214158131Y-86417535D01*
X214208831Y-86442913D01*
X214208931Y-86442935D01*
X214259631Y-86468313D01*
X214259731Y-86468335D01*
X214315459Y-86496230D01*
X214319422Y-86499664D01*
X214361034Y-86520493D01*
X214384179Y-86540548D01*
X214389097Y-86548202D01*
X214409578Y-86565948D01*
X214414495Y-86573600D01*
X214434978Y-86591348D01*
X214439896Y-86599000D01*
X214484443Y-86637601D01*
X214494278Y-86652905D01*
X214511178Y-86667548D01*
X214516095Y-86675200D01*
X214536578Y-86692948D01*
X214541495Y-86700600D01*
X214561978Y-86718348D01*
X214566894Y-86725999D01*
X214577376Y-86735081D01*
X214615759Y-86794806D01*
X214618010Y-86802472D01*
X214628176Y-86811281D01*
X214666559Y-86871006D01*
X214672656Y-86891770D01*
X214691959Y-86921806D01*
X214698056Y-86942570D01*
X214717359Y-86972606D01*
X214723456Y-86993370D01*
X214742759Y-87023406D01*
X214752085Y-87055166D01*
X214759495Y-87066695D01*
X214760454Y-87073365D01*
X214777484Y-87131365D01*
X214784895Y-87142895D01*
X214790000Y-87178398D01*
X214790000Y-87214485D01*
X214802884Y-87258365D01*
X214810295Y-87269895D01*
X214815400Y-87305398D01*
X214815400Y-87392285D01*
X214828284Y-87436165D01*
X214835695Y-87447695D01*
X214840800Y-87483198D01*
X214840800Y-87621285D01*
X214820798Y-87689406D01*
X214817464Y-87693860D01*
X214815400Y-87703348D01*
X214815400Y-87773685D01*
X214795398Y-87841806D01*
X214792064Y-87846260D01*
X214790000Y-87855748D01*
X214790000Y-87875285D01*
X214769998Y-87943406D01*
X214766664Y-87947860D01*
X214761721Y-87970583D01*
X214759156Y-87970025D01*
X214744598Y-88019606D01*
X214741264Y-88024060D01*
X214736321Y-88046783D01*
X214733756Y-88046225D01*
X214719198Y-88095806D01*
X214715068Y-88101323D01*
X214688170Y-88155059D01*
X214684736Y-88159023D01*
X214663906Y-88200634D01*
X214637438Y-88231180D01*
X214614487Y-88277031D01*
X214614465Y-88277131D01*
X214586570Y-88332859D01*
X214583136Y-88336822D01*
X214562307Y-88378434D01*
X214542252Y-88401579D01*
X214534600Y-88406496D01*
X214506936Y-88438422D01*
X214486107Y-88480034D01*
X214466052Y-88503179D01*
X214458400Y-88508096D01*
X214430736Y-88540022D01*
X214409907Y-88581634D01*
X214389852Y-88604779D01*
X214382198Y-88609697D01*
X214364452Y-88630178D01*
X214356800Y-88635095D01*
X214339052Y-88655578D01*
X214331400Y-88660495D01*
X214313652Y-88680978D01*
X214306000Y-88685895D01*
X214288252Y-88706378D01*
X214280602Y-88711294D01*
X214252936Y-88743222D01*
X214232106Y-88784836D01*
X214220719Y-88797977D01*
X214160994Y-88836359D01*
X214153327Y-88838610D01*
X214135852Y-88858778D01*
X214128200Y-88863695D01*
X214110452Y-88884178D01*
X214102800Y-88889095D01*
X214085052Y-88909578D01*
X214077400Y-88914495D01*
X214059652Y-88934978D01*
X214052000Y-88939895D01*
X214034252Y-88960378D01*
X214026600Y-88965295D01*
X214008852Y-88985778D01*
X214001200Y-88990695D01*
X213983452Y-89011178D01*
X213975800Y-89016095D01*
X213958052Y-89036578D01*
X213950400Y-89041495D01*
X213932652Y-89061978D01*
X213925000Y-89066895D01*
X213907252Y-89087378D01*
X213899600Y-89092295D01*
X213881852Y-89112778D01*
X213874200Y-89117695D01*
X213856452Y-89138178D01*
X213848800Y-89143095D01*
X213831052Y-89163578D01*
X213823400Y-89168495D01*
X213805652Y-89188978D01*
X213798000Y-89193895D01*
X213780252Y-89214378D01*
X213772600Y-89219295D01*
X213754852Y-89239778D01*
X213747200Y-89244695D01*
X213729452Y-89265178D01*
X213721800Y-89270095D01*
X213704052Y-89290578D01*
X213696400Y-89295495D01*
X213678652Y-89315978D01*
X213671000Y-89320895D01*
X213653252Y-89341378D01*
X213645600Y-89346295D01*
X213627852Y-89366778D01*
X213620200Y-89371695D01*
X213602452Y-89392178D01*
X213594800Y-89397095D01*
X213577052Y-89417578D01*
X213569401Y-89422494D01*
X213560319Y-89432976D01*
X213500594Y-89471359D01*
X213492927Y-89473610D01*
X213475452Y-89493778D01*
X213467800Y-89498695D01*
X213450052Y-89519178D01*
X213442400Y-89524095D01*
X213424652Y-89544578D01*
X213417000Y-89549495D01*
X213399252Y-89569978D01*
X213391600Y-89574895D01*
X213373852Y-89595378D01*
X213366200Y-89600295D01*
X213348452Y-89620778D01*
X213340800Y-89625695D01*
X213323052Y-89646178D01*
X213315400Y-89651095D01*
X213297652Y-89671578D01*
X213290000Y-89676495D01*
X213272252Y-89696978D01*
X213264600Y-89701895D01*
X213246852Y-89722378D01*
X213239200Y-89727295D01*
X213221452Y-89747778D01*
X213213800Y-89752695D01*
X213196052Y-89773178D01*
X213188400Y-89778095D01*
X213170652Y-89798578D01*
X213163000Y-89803495D01*
X213145252Y-89823978D01*
X213137600Y-89828895D01*
X213119852Y-89849378D01*
X213112200Y-89854295D01*
X213094452Y-89874778D01*
X213086800Y-89879695D01*
X213069052Y-89900178D01*
X213061400Y-89905095D01*
X213043652Y-89925578D01*
X213036000Y-89930495D01*
X213018252Y-89950978D01*
X213010600Y-89955895D01*
X212992852Y-89976378D01*
X212985200Y-89981295D01*
X212967452Y-90001778D01*
X212959800Y-90006695D01*
X212942052Y-90027178D01*
X212934400Y-90032095D01*
X212916652Y-90052578D01*
X212909000Y-90057495D01*
X212891252Y-90077978D01*
X212883601Y-90082894D01*
X212874519Y-90093376D01*
X212814794Y-90131759D01*
X212807127Y-90134010D01*
X212789652Y-90154178D01*
X212782000Y-90159095D01*
X212764252Y-90179578D01*
X212756600Y-90184495D01*
X212738852Y-90204978D01*
X212731200Y-90209895D01*
X212713452Y-90230378D01*
X212705800Y-90235295D01*
X212688052Y-90255778D01*
X212680400Y-90260695D01*
X212662652Y-90281178D01*
X212655000Y-90286095D01*
X212637252Y-90306578D01*
X212629600Y-90311495D01*
X212611852Y-90331978D01*
X212604200Y-90336895D01*
X212586452Y-90357378D01*
X212578800Y-90362295D01*
X212561052Y-90382778D01*
X212553400Y-90387695D01*
X212535652Y-90408178D01*
X212528000Y-90413095D01*
X212510252Y-90433578D01*
X212502601Y-90438494D01*
X212493519Y-90448976D01*
X212433793Y-90487359D01*
X212416693Y-90492380D01*
X212345697Y-90492380D01*
X212341459Y-90490066D01*
X212328296Y-90487203D01*
X212272566Y-90459307D01*
X212249421Y-90439252D01*
X212244503Y-90431598D01*
X212224022Y-90413852D01*
X212219105Y-90406200D01*
X212198622Y-90388452D01*
X212193705Y-90380800D01*
X212173222Y-90363052D01*
X212168305Y-90355400D01*
X212147822Y-90337652D01*
X212142905Y-90330000D01*
X212122422Y-90312252D01*
X212117505Y-90304600D01*
X212097022Y-90286852D01*
X212092105Y-90279200D01*
X212071622Y-90261452D01*
X212066705Y-90253800D01*
X212046222Y-90236052D01*
X212041305Y-90228400D01*
X212020822Y-90210652D01*
X212015905Y-90203000D01*
X211995422Y-90185252D01*
X211990505Y-90177600D01*
X211970022Y-90159852D01*
X211965105Y-90152200D01*
X211944622Y-90134452D01*
X211939706Y-90126802D01*
X211907778Y-90099136D01*
X211866166Y-90078307D01*
X211843021Y-90058252D01*
X211838103Y-90050598D01*
X211817622Y-90032852D01*
X211812705Y-90025200D01*
X211792222Y-90007452D01*
X211787305Y-89999800D01*
X211766822Y-89982052D01*
X211761905Y-89974400D01*
X211741422Y-89956652D01*
X211736505Y-89949000D01*
X211716022Y-89931252D01*
X211711105Y-89923600D01*
X211690622Y-89905852D01*
X211685705Y-89898200D01*
X211665222Y-89880452D01*
X211660305Y-89872800D01*
X211639822Y-89855052D01*
X211634905Y-89847400D01*
X211614422Y-89829652D01*
X211609505Y-89822000D01*
X211589022Y-89804252D01*
X211584105Y-89796600D01*
X211563622Y-89778852D01*
X211558705Y-89771200D01*
X211538222Y-89753452D01*
X211533305Y-89745800D01*
X211512822Y-89728052D01*
X211507905Y-89720400D01*
X211487422Y-89702652D01*
X211482505Y-89695000D01*
X211462022Y-89677252D01*
X211457105Y-89669600D01*
X211436622Y-89651852D01*
X211431705Y-89644200D01*
X211411222Y-89626452D01*
X211406305Y-89618800D01*
X211385822Y-89601052D01*
X211380905Y-89593400D01*
X211360422Y-89575652D01*
X211355505Y-89568000D01*
X211335022Y-89550252D01*
X211330105Y-89542600D01*
X211309622Y-89524852D01*
X211304705Y-89517200D01*
X211284222Y-89499452D01*
X211279306Y-89491802D01*
X211247378Y-89464136D01*
X211205766Y-89443307D01*
X211182621Y-89423252D01*
X211177703Y-89415598D01*
X211157222Y-89397852D01*
X211152305Y-89390200D01*
X211131822Y-89372452D01*
X211126905Y-89364800D01*
X211106422Y-89347052D01*
X211101505Y-89339400D01*
X211081022Y-89321652D01*
X211076105Y-89314000D01*
X211055622Y-89296252D01*
X211050705Y-89288600D01*
X211030222Y-89270852D01*
X211025305Y-89263200D01*
X211004822Y-89245452D01*
X210999905Y-89237800D01*
X210979422Y-89220052D01*
X210974505Y-89212400D01*
X210954022Y-89194652D01*
X210949105Y-89187000D01*
X210928622Y-89169252D01*
X210923705Y-89161600D01*
X210903222Y-89143852D01*
X210898305Y-89136200D01*
X210877822Y-89118452D01*
X210872905Y-89110800D01*
X210852422Y-89093052D01*
X210847505Y-89085400D01*
X210827022Y-89067652D01*
X210822105Y-89060000D01*
X210801622Y-89042252D01*
X210796705Y-89034600D01*
X210776222Y-89016852D01*
X210771305Y-89009200D01*
X210750822Y-88991452D01*
X210745905Y-88983800D01*
X210725422Y-88966052D01*
X210720505Y-88958400D01*
X210700022Y-88940652D01*
X210695105Y-88933000D01*
X210674622Y-88915252D01*
X210669705Y-88907600D01*
X210649222Y-88889852D01*
X210644305Y-88882200D01*
X210623822Y-88864452D01*
X210618904Y-88856800D01*
X210574357Y-88818199D01*
X210564523Y-88802897D01*
X210536178Y-88778336D01*
X210494564Y-88757506D01*
X210481423Y-88746119D01*
X210443041Y-88686394D01*
X210440790Y-88678727D01*
X210420622Y-88661252D01*
X210415705Y-88653600D01*
X210395222Y-88635852D01*
X210390305Y-88628200D01*
X210369822Y-88610452D01*
X210364906Y-88602801D01*
X210354424Y-88593719D01*
X210316041Y-88533994D01*
X210313790Y-88526327D01*
X210293622Y-88508852D01*
X210288706Y-88501201D01*
X210278224Y-88492119D01*
X210239841Y-88432394D01*
X210237590Y-88424727D01*
X210217422Y-88407252D01*
X210212506Y-88399601D01*
X210202024Y-88390519D01*
X210163641Y-88330794D01*
X210157544Y-88310030D01*
X210138241Y-88279994D01*
X210132144Y-88259230D01*
X210112841Y-88229194D01*
X210110590Y-88221528D01*
X210100424Y-88212719D01*
X210062041Y-88152994D01*
X210052715Y-88121234D01*
X210045305Y-88109705D01*
X210044346Y-88103035D01*
X210030544Y-88056030D01*
X210011241Y-88025994D01*
X210001915Y-87994234D01*
X209994505Y-87982705D01*
X209993546Y-87976035D01*
X209976516Y-87918035D01*
X209969105Y-87906505D01*
X209968146Y-87899835D01*
X209951116Y-87841835D01*
X209943705Y-87830305D01*
X209938600Y-87794802D01*
X209938600Y-87758715D01*
X209925716Y-87714835D01*
X209918305Y-87703305D01*
X209913200Y-87667802D01*
X209913200Y-87428115D01*
X209933202Y-87359994D01*
X209936536Y-87355540D01*
X209938600Y-87346052D01*
X209938600Y-87275715D01*
X209958602Y-87207594D01*
X209961936Y-87203140D01*
X209964000Y-87193652D01*
X209964000Y-87174115D01*
X209984002Y-87105994D01*
X209987336Y-87101540D01*
X209992279Y-87078817D01*
X209994844Y-87079375D01*
X210009402Y-87029794D01*
X210013532Y-87024277D01*
X210037913Y-86975569D01*
X210037935Y-86975469D01*
X210063313Y-86924769D01*
X210063335Y-86924669D01*
X210091230Y-86868941D01*
X210094664Y-86864977D01*
X210115494Y-86823366D01*
X210145463Y-86788780D01*
X210166293Y-86747166D01*
X210186348Y-86724021D01*
X210194002Y-86719103D01*
X210211748Y-86698622D01*
X210219398Y-86693706D01*
X210256529Y-86650855D01*
X210272132Y-86622281D01*
X210311914Y-86598677D01*
X210313348Y-86597022D01*
X210321000Y-86592105D01*
X210338748Y-86571622D01*
X210346400Y-86566705D01*
X210364148Y-86546222D01*
X210371799Y-86541306D01*
X210380881Y-86530824D01*
X210440606Y-86492441D01*
X210461370Y-86486344D01*
X210491406Y-86467041D01*
X210512170Y-86460944D01*
X210542206Y-86441641D01*
X210562970Y-86435544D01*
X210593006Y-86416241D01*
X210613770Y-86410144D01*
X210643806Y-86390841D01*
X210675566Y-86381515D01*
X210687095Y-86374105D01*
X210693765Y-86373146D01*
X210751765Y-86356116D01*
X210763295Y-86348705D01*
X210769965Y-86347746D01*
X210827965Y-86330716D01*
X210839495Y-86323305D01*
X210874998Y-86318200D01*
X210911085Y-86318200D01*
X210954965Y-86305316D01*
X210966495Y-86297905D01*
X211001998Y-86292800D01*
X211368685Y-86292800D01*
X211436806Y-86312802D01*
G37*
G36*
X207348606Y-126418402D02*
G01*
X207353060Y-126421736D01*
X207362548Y-126423800D01*
X207382085Y-126423800D01*
X207450206Y-126443802D01*
X207454660Y-126447136D01*
X207477383Y-126452079D01*
X207476825Y-126454644D01*
X207526406Y-126469202D01*
X207531923Y-126473332D01*
X207580627Y-126497711D01*
X207604383Y-126502879D01*
X207603825Y-126505444D01*
X207653406Y-126520002D01*
X207664884Y-126528595D01*
X207707434Y-126549894D01*
X207737980Y-126576362D01*
X207788859Y-126601830D01*
X207792823Y-126605264D01*
X207834434Y-126626094D01*
X207869020Y-126656063D01*
X207910634Y-126676893D01*
X207933779Y-126696948D01*
X207938696Y-126704600D01*
X207970622Y-126732264D01*
X208012234Y-126753093D01*
X208035379Y-126773148D01*
X208040296Y-126780800D01*
X208072222Y-126808464D01*
X208113834Y-126829293D01*
X208136979Y-126849348D01*
X208141897Y-126857002D01*
X208162378Y-126874748D01*
X208167295Y-126882400D01*
X208187778Y-126900148D01*
X208192695Y-126907800D01*
X208213178Y-126925548D01*
X208218095Y-126933200D01*
X208238578Y-126950948D01*
X208243494Y-126958598D01*
X208269265Y-126980929D01*
X208276948Y-126982600D01*
X208296085Y-126982600D01*
X208315873Y-126976790D01*
X208333348Y-126956622D01*
X208341000Y-126951705D01*
X208358748Y-126931222D01*
X208366400Y-126926305D01*
X208384148Y-126905822D01*
X208391800Y-126900905D01*
X208409548Y-126880422D01*
X208417200Y-126875505D01*
X208434948Y-126855022D01*
X208442599Y-126850106D01*
X208451681Y-126839624D01*
X208511406Y-126801241D01*
X208519073Y-126798990D01*
X208536548Y-126778822D01*
X208544200Y-126773905D01*
X208561948Y-126753422D01*
X208569599Y-126748506D01*
X208578681Y-126738024D01*
X208638406Y-126699641D01*
X208646072Y-126697390D01*
X208654881Y-126687224D01*
X208714606Y-126648841D01*
X208722272Y-126646590D01*
X208731081Y-126636424D01*
X208790806Y-126598041D01*
X208798472Y-126595790D01*
X208807281Y-126585624D01*
X208867006Y-126547241D01*
X208887770Y-126541144D01*
X208917806Y-126521841D01*
X208949566Y-126512515D01*
X208961095Y-126505105D01*
X208967765Y-126504146D01*
X209014770Y-126490344D01*
X209044806Y-126471041D01*
X209076566Y-126461715D01*
X209088095Y-126454305D01*
X209094765Y-126453346D01*
X209152765Y-126436316D01*
X209164295Y-126428905D01*
X209199798Y-126423800D01*
X209210485Y-126423800D01*
X209254365Y-126410916D01*
X209265895Y-126403505D01*
X209301398Y-126398400D01*
X209668085Y-126398400D01*
X209736206Y-126418402D01*
X209740660Y-126421736D01*
X209750148Y-126423800D01*
X209795085Y-126423800D01*
X209863206Y-126443802D01*
X209867660Y-126447136D01*
X209890383Y-126452079D01*
X209889825Y-126454644D01*
X209939406Y-126469202D01*
X209943860Y-126472536D01*
X209966583Y-126477479D01*
X209966025Y-126480044D01*
X210015606Y-126494602D01*
X210021123Y-126498732D01*
X210069831Y-126523113D01*
X210069931Y-126523135D01*
X210120631Y-126548513D01*
X210120731Y-126548535D01*
X210171431Y-126573913D01*
X210171531Y-126573935D01*
X210227259Y-126601830D01*
X210231222Y-126605264D01*
X210272834Y-126626093D01*
X210295979Y-126646148D01*
X210300897Y-126653802D01*
X210321378Y-126671548D01*
X210326295Y-126679200D01*
X210346778Y-126696948D01*
X210351696Y-126704600D01*
X210396243Y-126743201D01*
X210406078Y-126758505D01*
X210422978Y-126773148D01*
X210427895Y-126780800D01*
X210448378Y-126798548D01*
X210453295Y-126806200D01*
X210473778Y-126823948D01*
X210478694Y-126831599D01*
X210489176Y-126840681D01*
X210527559Y-126900406D01*
X210529810Y-126908072D01*
X210539976Y-126916881D01*
X210578359Y-126976606D01*
X210584456Y-126997370D01*
X210603759Y-127027406D01*
X210609856Y-127048170D01*
X210629159Y-127078206D01*
X210635256Y-127098970D01*
X210654559Y-127129006D01*
X210663885Y-127160766D01*
X210671295Y-127172295D01*
X210672254Y-127178965D01*
X210689284Y-127236965D01*
X210696695Y-127248495D01*
X210701800Y-127283998D01*
X210701800Y-127320085D01*
X210714684Y-127363965D01*
X210722095Y-127375495D01*
X210727200Y-127410998D01*
X210727200Y-127497885D01*
X210740084Y-127541765D01*
X210747495Y-127553295D01*
X210752600Y-127588798D01*
X210752600Y-127726885D01*
X210732598Y-127795006D01*
X210729264Y-127799460D01*
X210727200Y-127808948D01*
X210727200Y-127879285D01*
X210707198Y-127947406D01*
X210703864Y-127951860D01*
X210701800Y-127961348D01*
X210701800Y-127980885D01*
X210681798Y-128049006D01*
X210678464Y-128053460D01*
X210673521Y-128076183D01*
X210670956Y-128075625D01*
X210656398Y-128125206D01*
X210653064Y-128129660D01*
X210648121Y-128152383D01*
X210645556Y-128151825D01*
X210630998Y-128201406D01*
X210626868Y-128206923D01*
X210599970Y-128260659D01*
X210596536Y-128264623D01*
X210575706Y-128306234D01*
X210549238Y-128336780D01*
X210526287Y-128382631D01*
X210526265Y-128382731D01*
X210498370Y-128438459D01*
X210494936Y-128442422D01*
X210474107Y-128484034D01*
X210454052Y-128507179D01*
X210446400Y-128512096D01*
X210418736Y-128544022D01*
X210397907Y-128585634D01*
X210377852Y-128608779D01*
X210370200Y-128613696D01*
X210342536Y-128645622D01*
X210321707Y-128687234D01*
X210301652Y-128710379D01*
X210293998Y-128715297D01*
X210276252Y-128735778D01*
X210268600Y-128740695D01*
X210250852Y-128761178D01*
X210243200Y-128766095D01*
X210225452Y-128786578D01*
X210217800Y-128791495D01*
X210200052Y-128811978D01*
X210192402Y-128816894D01*
X210164736Y-128848822D01*
X210143906Y-128890436D01*
X210132519Y-128903577D01*
X210072794Y-128941959D01*
X210065127Y-128944210D01*
X210047652Y-128964378D01*
X210040000Y-128969295D01*
X210022252Y-128989778D01*
X210014600Y-128994695D01*
X209996852Y-129015178D01*
X209989200Y-129020095D01*
X209971452Y-129040578D01*
X209963800Y-129045495D01*
X209946052Y-129065978D01*
X209938400Y-129070895D01*
X209920652Y-129091378D01*
X209913000Y-129096295D01*
X209895252Y-129116778D01*
X209887600Y-129121695D01*
X209869852Y-129142178D01*
X209862200Y-129147095D01*
X209844452Y-129167578D01*
X209836800Y-129172495D01*
X209819052Y-129192978D01*
X209811400Y-129197895D01*
X209793652Y-129218378D01*
X209786000Y-129223295D01*
X209768252Y-129243778D01*
X209760600Y-129248695D01*
X209742852Y-129269178D01*
X209735200Y-129274095D01*
X209717452Y-129294578D01*
X209709800Y-129299495D01*
X209692052Y-129319978D01*
X209684400Y-129324895D01*
X209666652Y-129345378D01*
X209659000Y-129350295D01*
X209641252Y-129370778D01*
X209633600Y-129375695D01*
X209615852Y-129396178D01*
X209608200Y-129401095D01*
X209590452Y-129421578D01*
X209582800Y-129426495D01*
X209565052Y-129446978D01*
X209557400Y-129451895D01*
X209539652Y-129472378D01*
X209532000Y-129477295D01*
X209514252Y-129497778D01*
X209506600Y-129502695D01*
X209488852Y-129523178D01*
X209481201Y-129528094D01*
X209472119Y-129538576D01*
X209412394Y-129576959D01*
X209404727Y-129579210D01*
X209387252Y-129599378D01*
X209379600Y-129604295D01*
X209361852Y-129624778D01*
X209354200Y-129629695D01*
X209336452Y-129650178D01*
X209328800Y-129655095D01*
X209311052Y-129675578D01*
X209303400Y-129680495D01*
X209285652Y-129700978D01*
X209278000Y-129705895D01*
X209260252Y-129726378D01*
X209252600Y-129731295D01*
X209234852Y-129751778D01*
X209227200Y-129756695D01*
X209209452Y-129777178D01*
X209201800Y-129782095D01*
X209184052Y-129802578D01*
X209176400Y-129807495D01*
X209158652Y-129827978D01*
X209151000Y-129832895D01*
X209133252Y-129853378D01*
X209125600Y-129858295D01*
X209107852Y-129878778D01*
X209100200Y-129883695D01*
X209082452Y-129904178D01*
X209074800Y-129909095D01*
X209057052Y-129929578D01*
X209049400Y-129934495D01*
X209031652Y-129954978D01*
X209024000Y-129959895D01*
X209006252Y-129980378D01*
X208998600Y-129985295D01*
X208980852Y-130005778D01*
X208973200Y-130010695D01*
X208955452Y-130031178D01*
X208947800Y-130036095D01*
X208930052Y-130056578D01*
X208922400Y-130061495D01*
X208904652Y-130081978D01*
X208897000Y-130086895D01*
X208879252Y-130107378D01*
X208871600Y-130112295D01*
X208853852Y-130132778D01*
X208846200Y-130137695D01*
X208828452Y-130158178D01*
X208820800Y-130163095D01*
X208803052Y-130183578D01*
X208795401Y-130188494D01*
X208786319Y-130198976D01*
X208726594Y-130237359D01*
X208718927Y-130239610D01*
X208701452Y-130259778D01*
X208693800Y-130264695D01*
X208676052Y-130285178D01*
X208668400Y-130290095D01*
X208650652Y-130310578D01*
X208643000Y-130315495D01*
X208625252Y-130335978D01*
X208617600Y-130340895D01*
X208599852Y-130361378D01*
X208592200Y-130366295D01*
X208574452Y-130386778D01*
X208566800Y-130391695D01*
X208549052Y-130412178D01*
X208541400Y-130417095D01*
X208523652Y-130437578D01*
X208516000Y-130442495D01*
X208498252Y-130462978D01*
X208490600Y-130467895D01*
X208472852Y-130488378D01*
X208465200Y-130493295D01*
X208447452Y-130513778D01*
X208439800Y-130518695D01*
X208422052Y-130539178D01*
X208414401Y-130544094D01*
X208405319Y-130554576D01*
X208345593Y-130592959D01*
X208328493Y-130597980D01*
X208257497Y-130597980D01*
X208253259Y-130595666D01*
X208240096Y-130592803D01*
X208184366Y-130564907D01*
X208161221Y-130544852D01*
X208156303Y-130537198D01*
X208135822Y-130519452D01*
X208130905Y-130511800D01*
X208110422Y-130494052D01*
X208105505Y-130486400D01*
X208085022Y-130468652D01*
X208080105Y-130461000D01*
X208059622Y-130443252D01*
X208054705Y-130435600D01*
X208034222Y-130417852D01*
X208029305Y-130410200D01*
X208008822Y-130392452D01*
X208003905Y-130384800D01*
X207983422Y-130367052D01*
X207978505Y-130359400D01*
X207958022Y-130341652D01*
X207953105Y-130334000D01*
X207932622Y-130316252D01*
X207927705Y-130308600D01*
X207907222Y-130290852D01*
X207902305Y-130283200D01*
X207881822Y-130265452D01*
X207876905Y-130257800D01*
X207856422Y-130240052D01*
X207851506Y-130232402D01*
X207819578Y-130204736D01*
X207777966Y-130183907D01*
X207754821Y-130163852D01*
X207749903Y-130156198D01*
X207729422Y-130138452D01*
X207724505Y-130130800D01*
X207704022Y-130113052D01*
X207699105Y-130105400D01*
X207678622Y-130087652D01*
X207673705Y-130080000D01*
X207653222Y-130062252D01*
X207648305Y-130054600D01*
X207627822Y-130036852D01*
X207622905Y-130029200D01*
X207602422Y-130011452D01*
X207597505Y-130003800D01*
X207577022Y-129986052D01*
X207572105Y-129978400D01*
X207551622Y-129960652D01*
X207546705Y-129953000D01*
X207526222Y-129935252D01*
X207521305Y-129927600D01*
X207500822Y-129909852D01*
X207495905Y-129902200D01*
X207475422Y-129884452D01*
X207470505Y-129876800D01*
X207450022Y-129859052D01*
X207445105Y-129851400D01*
X207424622Y-129833652D01*
X207419705Y-129826000D01*
X207399222Y-129808252D01*
X207394305Y-129800600D01*
X207373822Y-129782852D01*
X207368905Y-129775200D01*
X207348422Y-129757452D01*
X207343505Y-129749800D01*
X207323022Y-129732052D01*
X207318105Y-129724400D01*
X207297622Y-129706652D01*
X207292705Y-129699000D01*
X207272222Y-129681252D01*
X207267305Y-129673600D01*
X207246822Y-129655852D01*
X207241905Y-129648200D01*
X207221422Y-129630452D01*
X207216505Y-129622800D01*
X207196022Y-129605052D01*
X207191106Y-129597402D01*
X207159178Y-129569736D01*
X207117566Y-129548907D01*
X207094421Y-129528852D01*
X207089503Y-129521198D01*
X207069022Y-129503452D01*
X207064105Y-129495800D01*
X207043622Y-129478052D01*
X207038705Y-129470400D01*
X207018222Y-129452652D01*
X207013305Y-129445000D01*
X206992822Y-129427252D01*
X206987905Y-129419600D01*
X206967422Y-129401852D01*
X206962505Y-129394200D01*
X206942022Y-129376452D01*
X206937105Y-129368800D01*
X206916622Y-129351052D01*
X206911705Y-129343400D01*
X206891222Y-129325652D01*
X206886305Y-129318000D01*
X206865822Y-129300252D01*
X206860905Y-129292600D01*
X206840422Y-129274852D01*
X206835505Y-129267200D01*
X206815022Y-129249452D01*
X206810105Y-129241800D01*
X206789622Y-129224052D01*
X206784705Y-129216400D01*
X206764222Y-129198652D01*
X206759305Y-129191000D01*
X206738822Y-129173252D01*
X206733905Y-129165600D01*
X206713422Y-129147852D01*
X206708505Y-129140200D01*
X206688022Y-129122452D01*
X206683105Y-129114800D01*
X206662622Y-129097052D01*
X206657705Y-129089400D01*
X206637222Y-129071652D01*
X206632305Y-129064000D01*
X206611822Y-129046252D01*
X206606905Y-129038600D01*
X206586422Y-129020852D01*
X206581505Y-129013200D01*
X206561022Y-128995452D01*
X206556105Y-128987800D01*
X206535622Y-128970052D01*
X206530704Y-128962400D01*
X206486157Y-128923799D01*
X206476323Y-128908497D01*
X206447978Y-128883936D01*
X206406364Y-128863106D01*
X206393223Y-128851719D01*
X206354841Y-128791994D01*
X206352590Y-128784327D01*
X206332422Y-128766852D01*
X206327505Y-128759200D01*
X206307022Y-128741452D01*
X206302105Y-128733800D01*
X206281622Y-128716052D01*
X206276706Y-128708401D01*
X206266224Y-128699319D01*
X206227841Y-128639594D01*
X206225590Y-128631927D01*
X206205422Y-128614452D01*
X206200506Y-128606801D01*
X206190024Y-128597719D01*
X206151641Y-128537994D01*
X206149390Y-128530327D01*
X206129222Y-128512852D01*
X206124306Y-128505201D01*
X206113824Y-128496119D01*
X206075441Y-128436394D01*
X206069344Y-128415630D01*
X206050041Y-128385594D01*
X206043944Y-128364830D01*
X206024641Y-128334794D01*
X206022390Y-128327128D01*
X206012224Y-128318319D01*
X205973841Y-128258594D01*
X205964515Y-128226834D01*
X205957105Y-128215305D01*
X205956146Y-128208635D01*
X205942344Y-128161630D01*
X205923041Y-128131594D01*
X205913715Y-128099834D01*
X205906305Y-128088305D01*
X205905346Y-128081635D01*
X205888316Y-128023635D01*
X205880905Y-128012105D01*
X205879946Y-128005435D01*
X205862916Y-127947435D01*
X205855505Y-127935905D01*
X205850400Y-127900402D01*
X205850400Y-127864315D01*
X205837516Y-127820435D01*
X205830105Y-127808905D01*
X205825000Y-127773402D01*
X205825000Y-127533715D01*
X205845002Y-127465594D01*
X205848336Y-127461140D01*
X205850400Y-127451652D01*
X205850400Y-127381315D01*
X205870402Y-127313194D01*
X205873736Y-127308740D01*
X205875800Y-127299252D01*
X205875800Y-127279715D01*
X205895802Y-127211594D01*
X205899136Y-127207140D01*
X205904079Y-127184417D01*
X205906644Y-127184975D01*
X205921202Y-127135394D01*
X205925332Y-127129877D01*
X205949713Y-127081169D01*
X205949735Y-127081069D01*
X205975113Y-127030369D01*
X205975135Y-127030269D01*
X206003030Y-126974541D01*
X206006464Y-126970577D01*
X206027294Y-126928966D01*
X206057263Y-126894380D01*
X206078093Y-126852766D01*
X206098148Y-126829621D01*
X206105802Y-126824703D01*
X206123548Y-126804222D01*
X206131198Y-126799306D01*
X206168329Y-126756455D01*
X206183932Y-126727881D01*
X206223714Y-126704277D01*
X206225148Y-126702622D01*
X206232800Y-126697705D01*
X206250548Y-126677222D01*
X206258200Y-126672305D01*
X206275948Y-126651822D01*
X206283599Y-126646906D01*
X206292681Y-126636424D01*
X206352406Y-126598041D01*
X206373170Y-126591944D01*
X206403206Y-126572641D01*
X206423970Y-126566544D01*
X206454006Y-126547241D01*
X206474770Y-126541144D01*
X206504806Y-126521841D01*
X206525570Y-126515744D01*
X206555606Y-126496441D01*
X206587366Y-126487115D01*
X206598895Y-126479705D01*
X206605565Y-126478746D01*
X206663565Y-126461716D01*
X206675095Y-126454305D01*
X206681765Y-126453346D01*
X206739765Y-126436316D01*
X206751295Y-126428905D01*
X206786798Y-126423800D01*
X206822885Y-126423800D01*
X206866765Y-126410916D01*
X206878295Y-126403505D01*
X206913798Y-126398400D01*
X207280485Y-126398400D01*
X207348606Y-126418402D01*
G37*
%LPC*%
D16*
X158750000Y-82550000D03*
D17*
X112727500Y-83820000D03*
X114602500Y-83820000D03*
D18*
X120317500Y-83820000D03*
X118442500Y-83820000D03*
D19*
X126100000Y-82850000D03*
X88750000Y-83750000D03*
D20*
X143590000Y-87722500D03*
X143590000Y-89597500D03*
X168500000Y-90062500D03*
X168500000Y-91937500D03*
D21*
X110490000Y-73025000D03*
D22*
X110490000Y-75565000D03*
X110490000Y-78105000D03*
D21*
X119380000Y-73025000D03*
D22*
X119380000Y-75565000D03*
X119380000Y-78105000D03*
D21*
X127340000Y-73025000D03*
D22*
X127340000Y-75565000D03*
X127340000Y-78105000D03*
D21*
X135090000Y-73025000D03*
D22*
X135090000Y-75565000D03*
X135090000Y-78105000D03*
D16*
X82550000Y-72390000D03*
X82550000Y-82550000D03*
X158750000Y-72390000D03*
D20*
X110000000Y-84562500D03*
X110000000Y-86437500D03*
D23*
X102000000Y-76718750D03*
X100100000Y-76718750D03*
X101050000Y-78818750D03*
D24*
X97550000Y-78706250D03*
X97550000Y-76831250D03*
D17*
X100112500Y-74268750D03*
X101987500Y-74268750D03*
D24*
X104050000Y-76706250D03*
X104050000Y-74831250D03*
D20*
X94300001Y-85762499D03*
X94300001Y-87637499D03*
D24*
X96800001Y-87637499D03*
X96800001Y-85762499D03*
D18*
X99237501Y-83199999D03*
X97362501Y-83199999D03*
D25*
X107205001Y-83224999D03*
X105935001Y-83224999D03*
X104665001Y-83224999D03*
X103395001Y-83224999D03*
X103395001Y-88174999D03*
X104665001Y-88174999D03*
X105935001Y-88174999D03*
X107205001Y-88174999D03*
D26*
X99250001Y-85749999D03*
X99250001Y-87649999D03*
X101350001Y-86699999D03*
D27*
X164687500Y-91635000D03*
X164687500Y-90365000D03*
X158312500Y-90365000D03*
X158312500Y-91635000D03*
D24*
X153590000Y-92097500D03*
X153590000Y-90222500D03*
D20*
X153590000Y-82722500D03*
X153590000Y-84597500D03*
X153590000Y-86472500D03*
X153590000Y-88347500D03*
D21*
X147980000Y-73000000D03*
D22*
X147980000Y-75540000D03*
D24*
X151590000Y-88347500D03*
X151590000Y-86472500D03*
D18*
X150027500Y-92660000D03*
X148152500Y-92660000D03*
D17*
X147312500Y-79750000D03*
X149187500Y-79750000D03*
D28*
X145685000Y-89735000D03*
X146955000Y-89735000D03*
X148225000Y-89735000D03*
X149495000Y-89735000D03*
X149495000Y-84585000D03*
X148225000Y-84585000D03*
X146955000Y-84585000D03*
X145685000Y-84585000D03*
D29*
X140340000Y-87910000D03*
D30*
X124540000Y-110346000D03*
X124540000Y-97646000D03*
D31*
X122000000Y-100436000D03*
D32*
X120220000Y-101452000D03*
X122000000Y-102468000D03*
X120220000Y-103484000D03*
X122000000Y-104500000D03*
X120220000Y-105516000D03*
X122000000Y-106532000D03*
X120220000Y-107548000D03*
X115400000Y-97136000D03*
X115400000Y-99426000D03*
X115400000Y-108566000D03*
X115400000Y-110856000D03*
D33*
X121110000Y-112126000D03*
X121110000Y-95866000D03*
D34*
X106270000Y-104000000D03*
D35*
X103730000Y-104000000D03*
D20*
X106500000Y-97062500D03*
X106500000Y-98937500D03*
X106260000Y-109062500D03*
X106260000Y-110937500D03*
D16*
X168910000Y-72390000D03*
X212090000Y-72390000D03*
X212090000Y-82550000D03*
X168910000Y-82550000D03*
D29*
X195250000Y-80750000D03*
D24*
X200500000Y-86437500D03*
X200500000Y-84562500D03*
D29*
X199750000Y-80750000D03*
D24*
X204250000Y-86437500D03*
X204250000Y-84562500D03*
D36*
X191740000Y-87630000D03*
D37*
X193040000Y-87630000D03*
D38*
X194340000Y-87630000D03*
D36*
X176500000Y-87630000D03*
D37*
X177800000Y-87630000D03*
D38*
X179100000Y-87630000D03*
D39*
X194310000Y-73914000D03*
D35*
X196850000Y-73914000D03*
X199390000Y-73914000D03*
X201930000Y-73914000D03*
X204470000Y-73914000D03*
D29*
X184000000Y-80750000D03*
D24*
X188250000Y-85937500D03*
X188250000Y-84062500D03*
D29*
X179500000Y-80750000D03*
D40*
X176530000Y-92710000D03*
D41*
X179070000Y-92710000D03*
X181610000Y-92710000D03*
X184150000Y-92710000D03*
X186690000Y-92710000D03*
X189230000Y-92710000D03*
X191770000Y-92710000D03*
X194310000Y-92710000D03*
X196850000Y-92710000D03*
X199390000Y-92710000D03*
X201930000Y-92710000D03*
X204470000Y-92710000D03*
D24*
X184750000Y-85937500D03*
X184750000Y-84062500D03*
X196750000Y-86437500D03*
X196750000Y-84562500D03*
D29*
X188500000Y-80750000D03*
X209550000Y-92202000D03*
D39*
X177800000Y-73914000D03*
D35*
X180340000Y-73914000D03*
X182880000Y-73914000D03*
X185420000Y-73914000D03*
X187960000Y-73914000D03*
D24*
X182000000Y-85937500D03*
X182000000Y-84062500D03*
D29*
X204250000Y-80750000D03*
D42*
X124750000Y-124650000D03*
X124750000Y-121850000D03*
D43*
X157150000Y-121000000D03*
D44*
X155850000Y-121000000D03*
D45*
X109300000Y-106000000D03*
X111200000Y-106000000D03*
D40*
X163750000Y-76000000D03*
D41*
X163750000Y-78540000D03*
D45*
X109550000Y-101250000D03*
X111450000Y-101250000D03*
D46*
X111365250Y-110950001D03*
X111365250Y-110000000D03*
X111365250Y-109049999D03*
X108634750Y-109049999D03*
X108634750Y-110950001D03*
D47*
X158000000Y-126500000D03*
X158000000Y-128325000D03*
D48*
X118895200Y-133356500D03*
X111275200Y-133356500D03*
X108735200Y-115576500D03*
D49*
X96035200Y-129546500D03*
X96035200Y-119386500D03*
D50*
X123937500Y-129250000D03*
X128062500Y-129250000D03*
D51*
X128950000Y-116000000D03*
X127050000Y-116000000D03*
D52*
X132095000Y-130625000D03*
X133365000Y-130625000D03*
X134635000Y-130625000D03*
X135905000Y-130625000D03*
X135905000Y-125375000D03*
X134635000Y-125375000D03*
X133365000Y-125375000D03*
X132095000Y-125375000D03*
D16*
X213500000Y-131750000D03*
D48*
X171604800Y-115643500D03*
X179224800Y-115643500D03*
X181764800Y-133423500D03*
D49*
X194464800Y-119453500D03*
X194464800Y-129613500D03*
D53*
X92020000Y-80080000D03*
D22*
X92020000Y-77540000D03*
X92020000Y-75000000D03*
X92020000Y-72460000D03*
X92020000Y-69920000D03*
D19*
X155500000Y-77750000D03*
D54*
X123587500Y-116000000D03*
X125412500Y-116000000D03*
D55*
X141540000Y-131105000D03*
D56*
X145500000Y-131105000D03*
X149460000Y-131105000D03*
D57*
X149550000Y-120820000D03*
D58*
X160450000Y-120820000D03*
D46*
X111365250Y-98950001D03*
X111365250Y-98000000D03*
X111365250Y-97049999D03*
X108634750Y-97049999D03*
X108634750Y-98950001D03*
D23*
X155450000Y-126362500D03*
X153550000Y-126362500D03*
X154500000Y-128462500D03*
D57*
X131050000Y-120820000D03*
D58*
X141950000Y-120820000D03*
D59*
X164000000Y-126937500D03*
X164000000Y-131062500D03*
D43*
X139150000Y-121000000D03*
D44*
X137850000Y-121000000D03*
D60*
X97750000Y-106210000D03*
D42*
X166500000Y-123400000D03*
X166500000Y-120600000D03*
D40*
X96520000Y-92710000D03*
D41*
X99060000Y-92710000D03*
X101600000Y-92710000D03*
X104140000Y-92710000D03*
X106680000Y-92710000D03*
X109220000Y-92710000D03*
X111760000Y-92710000D03*
X114300000Y-92710000D03*
X116840000Y-92710000D03*
X119380000Y-92710000D03*
X121920000Y-92710000D03*
X124460000Y-92710000D03*
X127000000Y-92710000D03*
X129540000Y-92710000D03*
X132080000Y-92710000D03*
X134620000Y-92710000D03*
X137160000Y-92710000D03*
X139700000Y-92710000D03*
X142240000Y-92710000D03*
X144780000Y-92710000D03*
M02*
