G04 #@! TF.GenerationSoftware,KiCad,Pcbnew,6.0.2+dfsg-1*
G04 #@! TF.CreationDate,2022-12-10T00:49:58-08:00*
G04 #@! TF.ProjectId,cm4-robot,636d342d-726f-4626-9f74-2e6b69636164,rev?*
G04 #@! TF.SameCoordinates,Original*
G04 #@! TF.FileFunction,Copper,L1,Top*
G04 #@! TF.FilePolarity,Positive*
%FSLAX46Y46*%
G04 Gerber Fmt 4.6, Leading zero omitted, Abs format (unit mm)*
G04 Created by KiCad (PCBNEW 6.0.2+dfsg-1) date 2022-12-10 00:49:58*
%MOMM*%
%LPD*%
G01*
G04 APERTURE LIST*
G04 Aperture macros list*
%AMRoundRect*
0 Rectangle with rounded corners*
0 $1 Rounding radius*
0 $2 $3 $4 $5 $6 $7 $8 $9 X,Y pos of 4 corners*
0 Add a 4 corners polygon primitive as box body*
4,1,4,$2,$3,$4,$5,$6,$7,$8,$9,$2,$3,0*
0 Add four circle primitives for the rounded corners*
1,1,$1+$1,$2,$3*
1,1,$1+$1,$4,$5*
1,1,$1+$1,$6,$7*
1,1,$1+$1,$8,$9*
0 Add four rect primitives between the rounded corners*
20,1,$1+$1,$2,$3,$4,$5,0*
20,1,$1+$1,$4,$5,$6,$7,0*
20,1,$1+$1,$6,$7,$8,$9,0*
20,1,$1+$1,$8,$9,$2,$3,0*%
%AMFreePoly0*
4,1,22,0.500000,-0.750000,0.000000,-0.750000,0.000000,-0.745033,-0.079941,-0.743568,-0.215256,-0.701293,-0.333266,-0.622738,-0.424486,-0.514219,-0.481581,-0.384460,-0.499164,-0.250000,-0.500000,-0.250000,-0.500000,0.250000,-0.499164,0.250000,-0.499963,0.256109,-0.478152,0.396186,-0.417904,0.524511,-0.324060,0.630769,-0.204165,0.706417,-0.067858,0.745374,0.000000,0.744959,0.000000,0.750000,
0.500000,0.750000,0.500000,-0.750000,0.500000,-0.750000,$1*%
%AMFreePoly1*
4,1,20,0.000000,0.744959,0.073905,0.744508,0.209726,0.703889,0.328688,0.626782,0.421226,0.519385,0.479903,0.390333,0.500000,0.250000,0.500000,-0.250000,0.499851,-0.262216,0.476331,-0.402017,0.414519,-0.529596,0.319384,-0.634700,0.198574,-0.708877,0.061801,-0.746166,0.000000,-0.745033,0.000000,-0.750000,-0.500000,-0.750000,-0.500000,0.750000,0.000000,0.750000,0.000000,0.744959,
0.000000,0.744959,$1*%
%AMFreePoly2*
4,1,22,0.550000,-0.750000,0.000000,-0.750000,0.000000,-0.745033,-0.079941,-0.743568,-0.215256,-0.701293,-0.333266,-0.622738,-0.424486,-0.514219,-0.481581,-0.384460,-0.499164,-0.250000,-0.500000,-0.250000,-0.500000,0.250000,-0.499164,0.250000,-0.499963,0.256109,-0.478152,0.396186,-0.417904,0.524511,-0.324060,0.630769,-0.204165,0.706417,-0.067858,0.745374,0.000000,0.744959,0.000000,0.750000,
0.550000,0.750000,0.550000,-0.750000,0.550000,-0.750000,$1*%
%AMFreePoly3*
4,1,20,0.000000,0.744959,0.073905,0.744508,0.209726,0.703889,0.328688,0.626782,0.421226,0.519385,0.479903,0.390333,0.500000,0.250000,0.500000,-0.250000,0.499851,-0.262216,0.476331,-0.402017,0.414519,-0.529596,0.319384,-0.634700,0.198574,-0.708877,0.061801,-0.746166,0.000000,-0.745033,0.000000,-0.750000,-0.550000,-0.750000,-0.550000,0.750000,0.000000,0.750000,0.000000,0.744959,
0.000000,0.744959,$1*%
G04 Aperture macros list end*
G04 #@! TA.AperFunction,SMDPad,CuDef*
%ADD10R,0.650000X0.400000*%
G04 #@! TD*
G04 #@! TA.AperFunction,ComponentPad*
%ADD11R,1.398000X1.398000*%
G04 #@! TD*
G04 #@! TA.AperFunction,ComponentPad*
%ADD12C,1.398000*%
G04 #@! TD*
G04 #@! TA.AperFunction,ComponentPad*
%ADD13C,1.530000*%
G04 #@! TD*
G04 #@! TA.AperFunction,ComponentPad*
%ADD14C,2.445000*%
G04 #@! TD*
G04 #@! TA.AperFunction,SMDPad,CuDef*
%ADD15R,6.000000X3.500000*%
G04 #@! TD*
G04 #@! TA.AperFunction,ComponentPad*
%ADD16RoundRect,0.250000X0.845000X-0.620000X0.845000X0.620000X-0.845000X0.620000X-0.845000X-0.620000X0*%
G04 #@! TD*
G04 #@! TA.AperFunction,ComponentPad*
%ADD17O,2.190000X1.740000*%
G04 #@! TD*
G04 #@! TA.AperFunction,SMDPad,CuDef*
%ADD18R,1.400000X1.200000*%
G04 #@! TD*
G04 #@! TA.AperFunction,SMDPad,CuDef*
%ADD19RoundRect,0.250000X1.075000X-0.375000X1.075000X0.375000X-1.075000X0.375000X-1.075000X-0.375000X0*%
G04 #@! TD*
G04 #@! TA.AperFunction,SMDPad,CuDef*
%ADD20RoundRect,0.250000X-1.000000X1.750000X-1.000000X-1.750000X1.000000X-1.750000X1.000000X1.750000X0*%
G04 #@! TD*
G04 #@! TA.AperFunction,SMDPad,CuDef*
%ADD21R,3.800000X2.000000*%
G04 #@! TD*
G04 #@! TA.AperFunction,SMDPad,CuDef*
%ADD22R,2.500000X1.800000*%
G04 #@! TD*
G04 #@! TA.AperFunction,SMDPad,CuDef*
%ADD23R,0.228600X0.711200*%
G04 #@! TD*
G04 #@! TA.AperFunction,SMDPad,CuDef*
%ADD24FreePoly0,270.000000*%
G04 #@! TD*
G04 #@! TA.AperFunction,SMDPad,CuDef*
%ADD25FreePoly1,270.000000*%
G04 #@! TD*
G04 #@! TA.AperFunction,SMDPad,CuDef*
%ADD26R,1.500000X1.000000*%
G04 #@! TD*
G04 #@! TA.AperFunction,SMDPad,CuDef*
%ADD27RoundRect,0.225000X-0.250000X0.225000X-0.250000X-0.225000X0.250000X-0.225000X0.250000X0.225000X0*%
G04 #@! TD*
G04 #@! TA.AperFunction,ComponentPad*
%ADD28C,6.500000*%
G04 #@! TD*
G04 #@! TA.AperFunction,SMDPad,CuDef*
%ADD29RoundRect,0.200000X-0.200000X-0.275000X0.200000X-0.275000X0.200000X0.275000X-0.200000X0.275000X0*%
G04 #@! TD*
G04 #@! TA.AperFunction,SMDPad,CuDef*
%ADD30RoundRect,0.225000X0.250000X-0.225000X0.250000X0.225000X-0.250000X0.225000X-0.250000X-0.225000X0*%
G04 #@! TD*
G04 #@! TA.AperFunction,SMDPad,CuDef*
%ADD31RoundRect,0.200000X0.200000X0.275000X-0.200000X0.275000X-0.200000X-0.275000X0.200000X-0.275000X0*%
G04 #@! TD*
G04 #@! TA.AperFunction,SMDPad,CuDef*
%ADD32RoundRect,0.225000X-0.225000X-0.250000X0.225000X-0.250000X0.225000X0.250000X-0.225000X0.250000X0*%
G04 #@! TD*
G04 #@! TA.AperFunction,SMDPad,CuDef*
%ADD33FreePoly2,180.000000*%
G04 #@! TD*
G04 #@! TA.AperFunction,SMDPad,CuDef*
%ADD34R,1.000000X1.500000*%
G04 #@! TD*
G04 #@! TA.AperFunction,SMDPad,CuDef*
%ADD35FreePoly3,180.000000*%
G04 #@! TD*
G04 #@! TA.AperFunction,SMDPad,CuDef*
%ADD36R,0.600000X1.300000*%
G04 #@! TD*
G04 #@! TA.AperFunction,SMDPad,CuDef*
%ADD37R,1.200000X1.400000*%
G04 #@! TD*
G04 #@! TA.AperFunction,SMDPad,CuDef*
%ADD38RoundRect,0.250000X1.000000X-1.750000X1.000000X1.750000X-1.000000X1.750000X-1.000000X-1.750000X0*%
G04 #@! TD*
G04 #@! TA.AperFunction,SMDPad,CuDef*
%ADD39RoundRect,0.150000X-0.587500X-0.150000X0.587500X-0.150000X0.587500X0.150000X-0.587500X0.150000X0*%
G04 #@! TD*
G04 #@! TA.AperFunction,SMDPad,CuDef*
%ADD40RoundRect,0.200000X-0.275000X0.200000X-0.275000X-0.200000X0.275000X-0.200000X0.275000X0.200000X0*%
G04 #@! TD*
G04 #@! TA.AperFunction,SMDPad,CuDef*
%ADD41RoundRect,0.250000X0.375000X0.625000X-0.375000X0.625000X-0.375000X-0.625000X0.375000X-0.625000X0*%
G04 #@! TD*
G04 #@! TA.AperFunction,SMDPad,CuDef*
%ADD42RoundRect,0.225000X0.225000X0.250000X-0.225000X0.250000X-0.225000X-0.250000X0.225000X-0.250000X0*%
G04 #@! TD*
G04 #@! TA.AperFunction,SMDPad,CuDef*
%ADD43R,0.300000X2.600000*%
G04 #@! TD*
G04 #@! TA.AperFunction,ComponentPad*
%ADD44O,1.700000X3.400000*%
G04 #@! TD*
G04 #@! TA.AperFunction,ComponentPad*
%ADD45O,1.500000X3.000000*%
G04 #@! TD*
G04 #@! TA.AperFunction,SMDPad,CuDef*
%ADD46R,0.600000X1.050000*%
G04 #@! TD*
G04 #@! TA.AperFunction,ComponentPad*
%ADD47R,1.500000X1.500000*%
G04 #@! TD*
G04 #@! TA.AperFunction,ComponentPad*
%ADD48C,1.500000*%
G04 #@! TD*
G04 #@! TA.AperFunction,ComponentPad*
%ADD49C,2.600000*%
G04 #@! TD*
G04 #@! TA.AperFunction,SMDPad,CuDef*
%ADD50RoundRect,0.150000X0.150000X-0.875000X0.150000X0.875000X-0.150000X0.875000X-0.150000X-0.875000X0*%
G04 #@! TD*
G04 #@! TA.AperFunction,ComponentPad*
%ADD51RoundRect,0.250000X0.620000X0.845000X-0.620000X0.845000X-0.620000X-0.845000X0.620000X-0.845000X0*%
G04 #@! TD*
G04 #@! TA.AperFunction,ComponentPad*
%ADD52O,1.740000X2.190000*%
G04 #@! TD*
G04 #@! TA.AperFunction,SMDPad,CuDef*
%ADD53R,0.400000X0.650000*%
G04 #@! TD*
G04 #@! TA.AperFunction,SMDPad,CuDef*
%ADD54RoundRect,0.250000X-0.250000X-0.475000X0.250000X-0.475000X0.250000X0.475000X-0.250000X0.475000X0*%
G04 #@! TD*
G04 #@! TA.AperFunction,ComponentPad*
%ADD55R,2.300000X2.300000*%
G04 #@! TD*
G04 #@! TA.AperFunction,ComponentPad*
%ADD56C,2.300000*%
G04 #@! TD*
G04 #@! TA.AperFunction,SMDPad,CuDef*
%ADD57R,4.600000X1.100000*%
G04 #@! TD*
G04 #@! TA.AperFunction,SMDPad,CuDef*
%ADD58R,9.400000X10.800000*%
G04 #@! TD*
G04 #@! TA.AperFunction,SMDPad,CuDef*
%ADD59RoundRect,0.150000X-0.150000X0.750000X-0.150000X-0.750000X0.150000X-0.750000X0.150000X0.750000X0*%
G04 #@! TD*
G04 #@! TA.AperFunction,SMDPad,CuDef*
%ADD60RoundRect,0.200000X0.275000X-0.200000X0.275000X0.200000X-0.275000X0.200000X-0.275000X-0.200000X0*%
G04 #@! TD*
G04 #@! TA.AperFunction,SMDPad,CuDef*
%ADD61RoundRect,0.243750X0.243750X0.456250X-0.243750X0.456250X-0.243750X-0.456250X0.243750X-0.456250X0*%
G04 #@! TD*
G04 #@! TA.AperFunction,SMDPad,CuDef*
%ADD62R,1.200000X1.000000*%
G04 #@! TD*
G04 #@! TA.AperFunction,ComponentPad*
%ADD63C,1.900000*%
G04 #@! TD*
G04 #@! TA.AperFunction,ComponentPad*
%ADD64C,1.700000*%
G04 #@! TD*
G04 #@! TA.AperFunction,ComponentPad*
%ADD65C,3.300000*%
G04 #@! TD*
G04 #@! TA.AperFunction,SMDPad,CuDef*
%ADD66RoundRect,0.250000X0.250000X0.475000X-0.250000X0.475000X-0.250000X-0.475000X0.250000X-0.475000X0*%
G04 #@! TD*
G04 #@! TA.AperFunction,SMDPad,CuDef*
%ADD67RoundRect,0.250000X0.550000X-1.500000X0.550000X1.500000X-0.550000X1.500000X-0.550000X-1.500000X0*%
G04 #@! TD*
G04 #@! TA.AperFunction,SMDPad,CuDef*
%ADD68RoundRect,0.150000X0.150000X-0.587500X0.150000X0.587500X-0.150000X0.587500X-0.150000X-0.587500X0*%
G04 #@! TD*
G04 #@! TA.AperFunction,SMDPad,CuDef*
%ADD69RoundRect,0.243750X0.456250X-0.243750X0.456250X0.243750X-0.456250X0.243750X-0.456250X-0.243750X0*%
G04 #@! TD*
G04 #@! TA.AperFunction,SMDPad,CuDef*
%ADD70R,0.300000X1.150000*%
G04 #@! TD*
G04 #@! TA.AperFunction,ComponentPad*
%ADD71O,1.000000X2.100000*%
G04 #@! TD*
G04 #@! TA.AperFunction,ComponentPad*
%ADD72O,1.000000X1.600000*%
G04 #@! TD*
G04 #@! TA.AperFunction,SMDPad,CuDef*
%ADD73RoundRect,0.100000X0.100000X-0.637500X0.100000X0.637500X-0.100000X0.637500X-0.100000X-0.637500X0*%
G04 #@! TD*
G04 #@! TA.AperFunction,ComponentPad*
%ADD74R,1.700000X1.700000*%
G04 #@! TD*
G04 #@! TA.AperFunction,ComponentPad*
%ADD75O,1.700000X1.700000*%
G04 #@! TD*
G04 #@! TA.AperFunction,SMDPad,CuDef*
%ADD76R,1.358900X0.279400*%
G04 #@! TD*
G04 #@! TA.AperFunction,SMDPad,CuDef*
%ADD77RoundRect,0.243750X-0.243750X-0.456250X0.243750X-0.456250X0.243750X0.456250X-0.243750X0.456250X0*%
G04 #@! TD*
G04 #@! TA.AperFunction,SMDPad,CuDef*
%ADD78R,0.900000X1.200000*%
G04 #@! TD*
G04 #@! TA.AperFunction,SMDPad,CuDef*
%ADD79RoundRect,0.150000X0.150000X-0.725000X0.150000X0.725000X-0.150000X0.725000X-0.150000X-0.725000X0*%
G04 #@! TD*
G04 #@! TA.AperFunction,SMDPad,CuDef*
%ADD80R,0.200000X0.700000*%
G04 #@! TD*
G04 #@! TA.AperFunction,SMDPad,CuDef*
%ADD81RoundRect,0.150000X-0.150000X0.512500X-0.150000X-0.512500X0.150000X-0.512500X0.150000X0.512500X0*%
G04 #@! TD*
G04 #@! TA.AperFunction,ViaPad*
%ADD82C,0.600000*%
G04 #@! TD*
G04 #@! TA.AperFunction,ViaPad*
%ADD83C,0.450000*%
G04 #@! TD*
G04 #@! TA.AperFunction,ViaPad*
%ADD84C,0.800000*%
G04 #@! TD*
G04 #@! TA.AperFunction,ViaPad*
%ADD85C,1.200000*%
G04 #@! TD*
G04 #@! TA.AperFunction,ViaPad*
%ADD86C,1.000000*%
G04 #@! TD*
G04 #@! TA.AperFunction,Conductor*
%ADD87C,0.200000*%
G04 #@! TD*
G04 #@! TA.AperFunction,Conductor*
%ADD88C,0.400000*%
G04 #@! TD*
G04 #@! TA.AperFunction,Conductor*
%ADD89C,2.000000*%
G04 #@! TD*
G04 #@! TA.AperFunction,Conductor*
%ADD90C,1.500000*%
G04 #@! TD*
G04 #@! TA.AperFunction,Conductor*
%ADD91C,1.000000*%
G04 #@! TD*
G04 #@! TA.AperFunction,Conductor*
%ADD92C,0.250000*%
G04 #@! TD*
G04 #@! TA.AperFunction,Conductor*
%ADD93C,0.600000*%
G04 #@! TD*
G04 #@! TA.AperFunction,Conductor*
%ADD94C,0.800000*%
G04 #@! TD*
G04 APERTURE END LIST*
D10*
X49950000Y-139000000D03*
X49950000Y-138350000D03*
X49950000Y-137700000D03*
X48050000Y-137700000D03*
X48050000Y-138350000D03*
X48050000Y-139000000D03*
D11*
X96140000Y-55426000D03*
D12*
X94870000Y-57966000D03*
X93600000Y-55426000D03*
X92330000Y-57966000D03*
X91060000Y-55426000D03*
X89790000Y-57966000D03*
X88520000Y-55426000D03*
X87250000Y-57966000D03*
D13*
X98315000Y-44176000D03*
X95775000Y-44176000D03*
X85065000Y-44176000D03*
X87605000Y-44176000D03*
D14*
X99435000Y-52126000D03*
X83945000Y-52126000D03*
D15*
X74430000Y-67197000D03*
X74430000Y-55197000D03*
D16*
X61750000Y-91500000D03*
D17*
X61750000Y-88960000D03*
X61750000Y-86420000D03*
X61750000Y-83880000D03*
D16*
X69750000Y-91500000D03*
D17*
X69750000Y-88960000D03*
X69750000Y-86420000D03*
X69750000Y-83880000D03*
D18*
X102115000Y-113269000D03*
X99915000Y-113269000D03*
X99915000Y-114969000D03*
X102115000Y-114969000D03*
D19*
X59762000Y-52608000D03*
X59762000Y-49808000D03*
D20*
X62099000Y-69208000D03*
X62099000Y-77208000D03*
D21*
X93250000Y-101750000D03*
D22*
X73746000Y-71756000D03*
X69746000Y-71756000D03*
D23*
X122950002Y-59500001D03*
X122950002Y-62579999D03*
X123350001Y-59500001D03*
X123350001Y-62579999D03*
X123750000Y-59500001D03*
X123750000Y-62579999D03*
X124150002Y-59500001D03*
X124150002Y-62579999D03*
X124550001Y-59500001D03*
X124550001Y-62579999D03*
X124950000Y-59500001D03*
X124950000Y-62579999D03*
X125350002Y-59500001D03*
X125350002Y-62579999D03*
X125750001Y-59500001D03*
X125750001Y-62579999D03*
X126150001Y-59500001D03*
X126150001Y-62579999D03*
X126550000Y-59500001D03*
X126550000Y-62579999D03*
X126950001Y-59500001D03*
X126950001Y-62579999D03*
X127350001Y-59500001D03*
X127350001Y-62579999D03*
X127750000Y-59500001D03*
X127750000Y-62579999D03*
X128150002Y-59500001D03*
X128150002Y-62579999D03*
X128550001Y-59500001D03*
X128550001Y-62579999D03*
X128950000Y-59500001D03*
X128950000Y-62579999D03*
X129350002Y-59500001D03*
X129350002Y-62579999D03*
X129750001Y-59500001D03*
X129750001Y-62579999D03*
X130150000Y-59500001D03*
X130150000Y-62579999D03*
X130549999Y-59500001D03*
X130549999Y-62579999D03*
X130950001Y-59500001D03*
X130950001Y-62579999D03*
X131350000Y-59500001D03*
X131350000Y-62579999D03*
X131749999Y-59500001D03*
X131749999Y-62579999D03*
X132150001Y-59500001D03*
X132150001Y-62579999D03*
X132550000Y-59500001D03*
X132550000Y-62579999D03*
X132950000Y-59500001D03*
X132950000Y-62579999D03*
X133350001Y-59500001D03*
X133350001Y-62579999D03*
X133750001Y-59500001D03*
X133750001Y-62579999D03*
X134150000Y-59500001D03*
X134150000Y-62579999D03*
X134549999Y-59500001D03*
X134549999Y-62579999D03*
X134950001Y-59500001D03*
X134950001Y-62579999D03*
X135350000Y-59500001D03*
X135350000Y-62579999D03*
X135749999Y-59500001D03*
X135749999Y-62579999D03*
X136150001Y-59500001D03*
X136150001Y-62579999D03*
X136550000Y-59500001D03*
X136550000Y-62579999D03*
X136949999Y-59500001D03*
X136949999Y-62579999D03*
X137349998Y-59500001D03*
X137349998Y-62579999D03*
X137750000Y-59500001D03*
X137750000Y-62579999D03*
X138149999Y-59500001D03*
X138149999Y-62579999D03*
X138549999Y-59500001D03*
X138549999Y-62579999D03*
X138950000Y-59500001D03*
X138950000Y-62579999D03*
X139349999Y-59500001D03*
X139349999Y-62579999D03*
X139749999Y-59500001D03*
X139749999Y-62579999D03*
X140150000Y-59500001D03*
X140150000Y-62579999D03*
X140550000Y-59500001D03*
X140550000Y-62579999D03*
X140949999Y-59500001D03*
X140949999Y-62579999D03*
X141349998Y-59500001D03*
X141349998Y-62579999D03*
X141750000Y-59500001D03*
X141750000Y-62579999D03*
X142149999Y-59500001D03*
X142149999Y-62579999D03*
X142549998Y-59500001D03*
X142549998Y-62579999D03*
D24*
X146350000Y-141000000D03*
D25*
X146350000Y-142300000D03*
D26*
X71950000Y-135750000D03*
X71950000Y-132550000D03*
X67050000Y-132550000D03*
X67050000Y-135750000D03*
D27*
X136250000Y-124475000D03*
X136250000Y-126025000D03*
D28*
X43600000Y-64300000D03*
D29*
X93206000Y-91223000D03*
X94856000Y-91223000D03*
D30*
X110066000Y-116220000D03*
X110066000Y-114670000D03*
D31*
X111697000Y-48203000D03*
X110047000Y-48203000D03*
D32*
X88787000Y-61334000D03*
X90337000Y-61334000D03*
D33*
X77150000Y-77700000D03*
D34*
X75850000Y-77700000D03*
D35*
X74550000Y-77700000D03*
D36*
X144282000Y-139145000D03*
X146182000Y-139145000D03*
X145232000Y-137045000D03*
D18*
X114552000Y-113521000D03*
X112352000Y-113521000D03*
X112352000Y-115221000D03*
X114552000Y-115221000D03*
D27*
X136353000Y-129269000D03*
X136353000Y-130819000D03*
D10*
X93111000Y-82409000D03*
X93111000Y-83059000D03*
X93111000Y-83709000D03*
X95011000Y-83709000D03*
X95011000Y-82409000D03*
D37*
X140800000Y-126481000D03*
X140800000Y-124281000D03*
X139100000Y-124281000D03*
X139100000Y-126481000D03*
D31*
X115595000Y-120570000D03*
X113945000Y-120570000D03*
D30*
X105533000Y-113505000D03*
X105533000Y-111955000D03*
D38*
X70656000Y-50888000D03*
X70656000Y-42888000D03*
D31*
X112233000Y-56726000D03*
X110583000Y-56726000D03*
D39*
X60613500Y-97399000D03*
X60613500Y-99299000D03*
X62488500Y-98349000D03*
D40*
X144100000Y-140735000D03*
X144100000Y-142385000D03*
D41*
X151151000Y-55145000D03*
X148351000Y-55145000D03*
D42*
X55835600Y-44626600D03*
X54285600Y-44626600D03*
D32*
X126519000Y-109512000D03*
X128069000Y-109512000D03*
D26*
X63650000Y-144250000D03*
X63650000Y-141050000D03*
X58750000Y-141050000D03*
X58750000Y-144250000D03*
D40*
X122865000Y-116285000D03*
X122865000Y-117935000D03*
D32*
X148727000Y-52742000D03*
X150277000Y-52742000D03*
D36*
X129795000Y-139268000D03*
X131695000Y-139268000D03*
X130745000Y-137168000D03*
D39*
X60613500Y-101223000D03*
X60613500Y-103123000D03*
X62488500Y-102173000D03*
D26*
X47550000Y-135750000D03*
X47550000Y-132550000D03*
X42650000Y-132550000D03*
X42650000Y-135750000D03*
D16*
X77750000Y-106500000D03*
D17*
X77750000Y-103960000D03*
X77750000Y-101420000D03*
X77750000Y-98880000D03*
D43*
X136460000Y-48849000D03*
X136960000Y-48849000D03*
X137460000Y-48849000D03*
X137960000Y-48849000D03*
X138460000Y-48849000D03*
X138960000Y-48849000D03*
X139460000Y-48849000D03*
X139960000Y-48849000D03*
X140460000Y-48849000D03*
X140960000Y-48849000D03*
X141460000Y-48849000D03*
X141960000Y-48849000D03*
X142460000Y-48849000D03*
X142960000Y-48849000D03*
X143460000Y-48849000D03*
X143960000Y-48849000D03*
X144460000Y-48849000D03*
X144960000Y-48849000D03*
X145460000Y-48849000D03*
D44*
X148210000Y-48089000D03*
D45*
X148210000Y-42129000D03*
D44*
X133710000Y-48089000D03*
D45*
X133710000Y-42129000D03*
D46*
X57067000Y-50192000D03*
X56117000Y-50192000D03*
X55167000Y-50192000D03*
X55167000Y-52892000D03*
X57067000Y-52892000D03*
D29*
X57074000Y-101234000D03*
X58724000Y-101234000D03*
D10*
X93153000Y-88117000D03*
X93153000Y-88767000D03*
X93153000Y-89417000D03*
X95053000Y-89417000D03*
X95053000Y-88117000D03*
D29*
X61900000Y-95400000D03*
X63550000Y-95400000D03*
D31*
X113579000Y-127582000D03*
X111929000Y-127582000D03*
D42*
X72175000Y-137800000D03*
X70625000Y-137800000D03*
D27*
X116412000Y-113453000D03*
X116412000Y-115003000D03*
D40*
X97824000Y-111252000D03*
X97824000Y-112902000D03*
D47*
X121990000Y-136950000D03*
D48*
X120970000Y-135170000D03*
X119950000Y-136950000D03*
X118930000Y-135170000D03*
X117910000Y-136950000D03*
X116890000Y-135170000D03*
X115870000Y-136950000D03*
X114850000Y-135170000D03*
D49*
X110290000Y-135930000D03*
X126550000Y-135930000D03*
D50*
X130209000Y-121401000D03*
X131479000Y-121401000D03*
X132749000Y-121401000D03*
X134019000Y-121401000D03*
X135289000Y-121401000D03*
X136559000Y-121401000D03*
X137829000Y-121401000D03*
X139099000Y-121401000D03*
X140369000Y-121401000D03*
X140369000Y-112101000D03*
X139099000Y-112101000D03*
X137829000Y-112101000D03*
X136559000Y-112101000D03*
X135289000Y-112101000D03*
X134019000Y-112101000D03*
X132749000Y-112101000D03*
X131479000Y-112101000D03*
X130209000Y-112101000D03*
D32*
X57628000Y-44635800D03*
X59178000Y-44635800D03*
D24*
X132100000Y-141200000D03*
D25*
X132100000Y-142500000D03*
D28*
X43600000Y-54300000D03*
D16*
X45750000Y-91500000D03*
D17*
X45750000Y-88960000D03*
X45750000Y-86420000D03*
X45750000Y-83880000D03*
D27*
X150872000Y-133816000D03*
X150872000Y-135366000D03*
D42*
X140360000Y-128794000D03*
X138810000Y-128794000D03*
D40*
X124955000Y-116285000D03*
X124955000Y-117935000D03*
D30*
X97846000Y-116092000D03*
X97846000Y-114542000D03*
D31*
X94475000Y-94489000D03*
X92825000Y-94489000D03*
D51*
X83180000Y-72615000D03*
D52*
X80640000Y-72615000D03*
X78100000Y-72615000D03*
D31*
X60475000Y-95410000D03*
X58825000Y-95410000D03*
D53*
X126186000Y-112624000D03*
X125536000Y-112624000D03*
X124886000Y-112624000D03*
X124886000Y-114524000D03*
X126186000Y-114524000D03*
D37*
X155119000Y-126651000D03*
X155119000Y-124451000D03*
X153419000Y-124451000D03*
X153419000Y-126651000D03*
D54*
X140550000Y-99250000D03*
X142450000Y-99250000D03*
D55*
X76500000Y-141150000D03*
D56*
X81199000Y-141150000D03*
X85898000Y-141150000D03*
D57*
X63781000Y-64096000D03*
X63781000Y-62396000D03*
D58*
X54631000Y-60696000D03*
D57*
X63781000Y-60696000D03*
X63781000Y-58996000D03*
X63781000Y-57296000D03*
D53*
X122909000Y-112629000D03*
X122259000Y-112629000D03*
X121609000Y-112629000D03*
X121609000Y-114529000D03*
X122909000Y-114529000D03*
D59*
X148292000Y-124297000D03*
X147022000Y-124297000D03*
X145752000Y-124297000D03*
X144482000Y-124297000D03*
X144482000Y-134947000D03*
X145752000Y-134947000D03*
X147022000Y-134947000D03*
X148292000Y-134947000D03*
D40*
X106282000Y-48501000D03*
X106282000Y-50151000D03*
D31*
X145764000Y-109512000D03*
X144114000Y-109512000D03*
D10*
X113925000Y-122370000D03*
X113925000Y-123020000D03*
X113925000Y-123670000D03*
X115825000Y-123670000D03*
X115825000Y-122370000D03*
D60*
X117690000Y-120110000D03*
X117690000Y-118460000D03*
D61*
X46937500Y-99750000D03*
X45062500Y-99750000D03*
D16*
X69750000Y-106500000D03*
D17*
X69750000Y-103960000D03*
X69750000Y-101420000D03*
X69750000Y-98880000D03*
D29*
X57074000Y-105039000D03*
X58724000Y-105039000D03*
X53836000Y-46602000D03*
X55486000Y-46602000D03*
D16*
X85750000Y-106500000D03*
D17*
X85750000Y-103960000D03*
X85750000Y-101420000D03*
X85750000Y-98880000D03*
D40*
X129800000Y-141025000D03*
X129800000Y-142675000D03*
D20*
X50800000Y-69191000D03*
X50800000Y-77191000D03*
D62*
X43124000Y-106171000D03*
X50524000Y-106171000D03*
D63*
X127000000Y-51210000D03*
D64*
X124500000Y-51210000D03*
X122500000Y-51210000D03*
D63*
X120000000Y-51210000D03*
D65*
X130070000Y-48500000D03*
X116930000Y-48500000D03*
D26*
X71750000Y-144250000D03*
X71750000Y-141050000D03*
X66850000Y-141050000D03*
X66850000Y-144250000D03*
D60*
X119450000Y-120085000D03*
X119450000Y-118435000D03*
D29*
X110573000Y-55148000D03*
X112223000Y-55148000D03*
D16*
X85750000Y-91500000D03*
D17*
X85750000Y-88960000D03*
X85750000Y-86420000D03*
X85750000Y-83880000D03*
D16*
X53750000Y-91500000D03*
D17*
X53750000Y-88960000D03*
X53750000Y-86420000D03*
X53750000Y-83880000D03*
D29*
X86309000Y-70403000D03*
X87959000Y-70403000D03*
D66*
X138950000Y-99250000D03*
X137050000Y-99250000D03*
D67*
X108575000Y-124438000D03*
X108575000Y-119038000D03*
D68*
X104036000Y-55389500D03*
X105936000Y-55389500D03*
X104986000Y-53514500D03*
D27*
X150745000Y-129019000D03*
X150745000Y-130569000D03*
D29*
X85971000Y-63672000D03*
X87621000Y-63672000D03*
X57147000Y-97427000D03*
X58797000Y-97427000D03*
D27*
X150750000Y-124215000D03*
X150750000Y-125765000D03*
D29*
X98397000Y-61618000D03*
X100047000Y-61618000D03*
D51*
X140670000Y-142507000D03*
D52*
X138130000Y-142507000D03*
X135590000Y-142507000D03*
D30*
X108331000Y-55847000D03*
X108331000Y-54297000D03*
D69*
X121600000Y-121437500D03*
X121600000Y-119562500D03*
D31*
X94750000Y-85540000D03*
X93100000Y-85540000D03*
D55*
X76600000Y-132200000D03*
D56*
X81299000Y-132200000D03*
X85998000Y-132200000D03*
D47*
X61000000Y-126067000D03*
D48*
X63540000Y-126067000D03*
X66080000Y-126067000D03*
X68620000Y-126067000D03*
X71160000Y-126067000D03*
X73700000Y-126067000D03*
X73700000Y-110827000D03*
X71160000Y-110827000D03*
X68620000Y-110827000D03*
X66080000Y-110827000D03*
X63540000Y-110827000D03*
X61000000Y-110827000D03*
D31*
X55805000Y-48334000D03*
X54155000Y-48334000D03*
D61*
X46937500Y-96750000D03*
X45062500Y-96750000D03*
D31*
X104839000Y-101267000D03*
X103189000Y-101267000D03*
D40*
X110022000Y-111502000D03*
X110022000Y-113152000D03*
D70*
X111520000Y-46018000D03*
X110720000Y-46018000D03*
X109420000Y-46018000D03*
X108420000Y-46018000D03*
X107920000Y-46018000D03*
X106920000Y-46018000D03*
X105620000Y-46018000D03*
X104820000Y-46018000D03*
X105120000Y-46018000D03*
X105920000Y-46018000D03*
X106420000Y-46018000D03*
X107420000Y-46018000D03*
X108920000Y-46018000D03*
X109920000Y-46018000D03*
X110420000Y-46018000D03*
X111220000Y-46018000D03*
D71*
X112490000Y-45453000D03*
D72*
X103850000Y-41273000D03*
D71*
X103850000Y-45453000D03*
D72*
X112490000Y-41273000D03*
D39*
X60613500Y-105041000D03*
X60613500Y-106941000D03*
X62488500Y-105991000D03*
D30*
X53071000Y-53000000D03*
X53071000Y-51450000D03*
D50*
X144682000Y-121397000D03*
X145952000Y-121397000D03*
X147222000Y-121397000D03*
X148492000Y-121397000D03*
X149762000Y-121397000D03*
X151032000Y-121397000D03*
X152302000Y-121397000D03*
X153572000Y-121397000D03*
X154842000Y-121397000D03*
X154842000Y-112097000D03*
X153572000Y-112097000D03*
X152302000Y-112097000D03*
X151032000Y-112097000D03*
X149762000Y-112097000D03*
X148492000Y-112097000D03*
X147222000Y-112097000D03*
X145952000Y-112097000D03*
X144682000Y-112097000D03*
D26*
X55650000Y-135750000D03*
X55650000Y-132550000D03*
X50750000Y-132550000D03*
X50750000Y-135750000D03*
X63750000Y-135750000D03*
X63750000Y-132550000D03*
X58850000Y-132550000D03*
X58850000Y-135750000D03*
D59*
X133771000Y-124424000D03*
X132501000Y-124424000D03*
X131231000Y-124424000D03*
X129961000Y-124424000D03*
X129961000Y-135074000D03*
X131231000Y-135074000D03*
X132501000Y-135074000D03*
X133771000Y-135074000D03*
D47*
X102150000Y-136950000D03*
D48*
X101130000Y-135170000D03*
X100110000Y-136950000D03*
X99090000Y-135170000D03*
X98070000Y-136950000D03*
X97050000Y-135170000D03*
X96030000Y-136950000D03*
X95010000Y-135170000D03*
D49*
X90450000Y-135930000D03*
X106710000Y-135930000D03*
D26*
X55550000Y-144250000D03*
X55550000Y-141050000D03*
X50650000Y-141050000D03*
X50650000Y-144250000D03*
D16*
X77750000Y-91500000D03*
D17*
X77750000Y-88960000D03*
X77750000Y-86420000D03*
X77750000Y-83880000D03*
D42*
X154731000Y-128927000D03*
X153181000Y-128927000D03*
D27*
X135997000Y-134089000D03*
X135997000Y-135639000D03*
D31*
X131240000Y-109512000D03*
X129590000Y-109512000D03*
D73*
X96775000Y-109362500D03*
X97425000Y-109362500D03*
X98075000Y-109362500D03*
X98725000Y-109362500D03*
X99375000Y-109362500D03*
X100025000Y-109362500D03*
X100675000Y-109362500D03*
X101325000Y-109362500D03*
X101975000Y-109362500D03*
X102625000Y-109362500D03*
X103275000Y-109362500D03*
X103925000Y-109362500D03*
X104575000Y-109362500D03*
X105225000Y-109362500D03*
X105225000Y-103637500D03*
X104575000Y-103637500D03*
X103925000Y-103637500D03*
X103275000Y-103637500D03*
X102625000Y-103637500D03*
X101975000Y-103637500D03*
X101325000Y-103637500D03*
X100675000Y-103637500D03*
X100025000Y-103637500D03*
X99375000Y-103637500D03*
X98725000Y-103637500D03*
X98075000Y-103637500D03*
X97425000Y-103637500D03*
X96775000Y-103637500D03*
D74*
X42000000Y-71500000D03*
D75*
X42000000Y-74040000D03*
X42000000Y-76580000D03*
X42000000Y-79120000D03*
D32*
X140814000Y-109512000D03*
X142364000Y-109512000D03*
D23*
X122950002Y-93420001D03*
X122950002Y-96499999D03*
X123350001Y-93420001D03*
X123350001Y-96499999D03*
X123750000Y-93420001D03*
X123750000Y-96499999D03*
X124150002Y-93420001D03*
X124150002Y-96499999D03*
X124550001Y-93420001D03*
X124550001Y-96499999D03*
X124950000Y-93420001D03*
X124950000Y-96499999D03*
X125350002Y-93420001D03*
X125350002Y-96499999D03*
X125750001Y-93420001D03*
X125750001Y-96499999D03*
X126150001Y-93420001D03*
X126150001Y-96499999D03*
X126550000Y-93420001D03*
X126550000Y-96499999D03*
X126950001Y-93420001D03*
X126950001Y-96499999D03*
X127350001Y-93420001D03*
X127350001Y-96499999D03*
X127750000Y-93420001D03*
X127750000Y-96499999D03*
X128150002Y-93420001D03*
X128150002Y-96499999D03*
X128550001Y-93420001D03*
X128550001Y-96499999D03*
X128950000Y-93420001D03*
X128950000Y-96499999D03*
X129350002Y-93420001D03*
X129350002Y-96499999D03*
X129750001Y-93420001D03*
X129750001Y-96499999D03*
X130150000Y-93420001D03*
X130150000Y-96499999D03*
X130549999Y-93420001D03*
X130549999Y-96499999D03*
X130950001Y-93420001D03*
X130950001Y-96499999D03*
X131350000Y-93420001D03*
X131350000Y-96499999D03*
X131749999Y-93420001D03*
X131749999Y-96499999D03*
X132150001Y-93420001D03*
X132150001Y-96499999D03*
X132550000Y-93420001D03*
X132550000Y-96499999D03*
X132950000Y-93420001D03*
X132950000Y-96499999D03*
X133350001Y-93420001D03*
X133350001Y-96499999D03*
X133750001Y-93420001D03*
X133750001Y-96499999D03*
X134150000Y-93420001D03*
X134150000Y-96499999D03*
X134549999Y-93420001D03*
X134549999Y-96499999D03*
X134950001Y-93420001D03*
X134950001Y-96499999D03*
X135350000Y-93420001D03*
X135350000Y-96499999D03*
X135749999Y-93420001D03*
X135749999Y-96499999D03*
X136150001Y-93420001D03*
X136150001Y-96499999D03*
X136550000Y-93420001D03*
X136550000Y-96499999D03*
X136949999Y-93420001D03*
X136949999Y-96499999D03*
X137349998Y-93420001D03*
X137349998Y-96499999D03*
X137750000Y-93420001D03*
X137750000Y-96499999D03*
X138149999Y-93420001D03*
X138149999Y-96499999D03*
X138549999Y-93420001D03*
X138549999Y-96499999D03*
X138950000Y-93420001D03*
X138950000Y-96499999D03*
X139349999Y-93420001D03*
X139349999Y-96499999D03*
X139749999Y-93420001D03*
X139749999Y-96499999D03*
X140150000Y-93420001D03*
X140150000Y-96499999D03*
X140550000Y-93420001D03*
X140550000Y-96499999D03*
X140949999Y-93420001D03*
X140949999Y-96499999D03*
X141349998Y-93420001D03*
X141349998Y-96499999D03*
X141750000Y-93420001D03*
X141750000Y-96499999D03*
X142149999Y-93420001D03*
X142149999Y-96499999D03*
X142549998Y-93420001D03*
X142549998Y-96499999D03*
D76*
X112848550Y-52262001D03*
X112848550Y-51761999D03*
X112848550Y-51262000D03*
X112848550Y-50762001D03*
X112848550Y-50261999D03*
X108441650Y-50261999D03*
X108441650Y-50762001D03*
X108441650Y-51262000D03*
X108441650Y-51761999D03*
X108441650Y-52262001D03*
D31*
X94709000Y-70369000D03*
X93059000Y-70369000D03*
D30*
X118031000Y-114141000D03*
X118031000Y-112591000D03*
D77*
X115757500Y-127597000D03*
X117632500Y-127597000D03*
D78*
X57398000Y-46713200D03*
X60698000Y-46713200D03*
D79*
X95187000Y-125753000D03*
X96457000Y-125753000D03*
X97727000Y-125753000D03*
X98997000Y-125753000D03*
X100267000Y-125753000D03*
X101537000Y-125753000D03*
X102807000Y-125753000D03*
X104077000Y-125753000D03*
X104077000Y-120603000D03*
X102807000Y-120603000D03*
X101537000Y-120603000D03*
X100267000Y-120603000D03*
X98997000Y-120603000D03*
X97727000Y-120603000D03*
X96457000Y-120603000D03*
X95187000Y-120603000D03*
D31*
X117627000Y-101083000D03*
X115977000Y-101083000D03*
D73*
X109775000Y-109362500D03*
X110425000Y-109362500D03*
X111075000Y-109362500D03*
X111725000Y-109362500D03*
X112375000Y-109362500D03*
X113025000Y-109362500D03*
X113675000Y-109362500D03*
X114325000Y-109362500D03*
X114975000Y-109362500D03*
X115625000Y-109362500D03*
X116275000Y-109362500D03*
X116925000Y-109362500D03*
X117575000Y-109362500D03*
X118225000Y-109362500D03*
X118225000Y-103637500D03*
X117575000Y-103637500D03*
X116925000Y-103637500D03*
X116275000Y-103637500D03*
X115625000Y-103637500D03*
X114975000Y-103637500D03*
X114325000Y-103637500D03*
X113675000Y-103637500D03*
X113025000Y-103637500D03*
X112375000Y-103637500D03*
X111725000Y-103637500D03*
X111075000Y-103637500D03*
X110425000Y-103637500D03*
X109775000Y-103637500D03*
D27*
X103943000Y-113394000D03*
X103943000Y-114944000D03*
D69*
X126338000Y-121478500D03*
X126338000Y-119603500D03*
D33*
X88775125Y-77700000D03*
D34*
X87475125Y-77700000D03*
D35*
X86175125Y-77700000D03*
D80*
X122950000Y-96500000D03*
X122950000Y-93420000D03*
X123350000Y-96500000D03*
X123350000Y-93420000D03*
X123750000Y-96500000D03*
X123750000Y-93420000D03*
X124150000Y-96500000D03*
X124150000Y-93420000D03*
X124550000Y-96500000D03*
X124550000Y-93420000D03*
X124950000Y-96500000D03*
X124950000Y-93420000D03*
X125350000Y-96500000D03*
X125350000Y-93420000D03*
X125750000Y-96500000D03*
X125750000Y-93420000D03*
X126150000Y-96500000D03*
X126150000Y-93420000D03*
X126550000Y-96500000D03*
X126550000Y-93420000D03*
X126950000Y-96500000D03*
X126950000Y-93420000D03*
X127350000Y-96500000D03*
X127350000Y-93420000D03*
X127750000Y-96500000D03*
X127750000Y-93420000D03*
X128150000Y-96500000D03*
X128150000Y-93420000D03*
X128550000Y-96500000D03*
X128550000Y-93420000D03*
X128950000Y-96500000D03*
X128950000Y-93420000D03*
X129350000Y-96500000D03*
X129350000Y-93420000D03*
X129750000Y-96500000D03*
X129750000Y-93420000D03*
X130150000Y-96500000D03*
X130150000Y-93420000D03*
X130550000Y-96500000D03*
X130550000Y-93420000D03*
X130950000Y-96500000D03*
X130950000Y-93420000D03*
X131350000Y-96500000D03*
X131350000Y-93420000D03*
X131750000Y-96500000D03*
X131750000Y-93420000D03*
X132150000Y-96500000D03*
X132150000Y-93420000D03*
X132550000Y-96500000D03*
X132550000Y-93420000D03*
X132950000Y-96500000D03*
X132950000Y-93420000D03*
X133350000Y-96500000D03*
X133350000Y-93420000D03*
X133750000Y-96500000D03*
X133750000Y-93420000D03*
X134150000Y-96500000D03*
X134150000Y-93420000D03*
X134550000Y-96500000D03*
X134550000Y-93420000D03*
X134950000Y-96500000D03*
X134950000Y-93420000D03*
X135350000Y-96500000D03*
X135350000Y-93420000D03*
X135750000Y-96500000D03*
X135750000Y-93420000D03*
X136150000Y-96500000D03*
X136150000Y-93420000D03*
X136550000Y-96500000D03*
X136550000Y-93420000D03*
X136950000Y-96500000D03*
X136950000Y-93420000D03*
X137350000Y-96500000D03*
X137350000Y-93420000D03*
X137750000Y-96500000D03*
X137750000Y-93420000D03*
X138150000Y-96500000D03*
X138150000Y-93420000D03*
X138550000Y-96500000D03*
X138550000Y-93420000D03*
X138950000Y-96500000D03*
X138950000Y-93420000D03*
X139350000Y-96500000D03*
X139350000Y-93420000D03*
X139750000Y-96500000D03*
X139750000Y-93420000D03*
X140150000Y-96500000D03*
X140150000Y-93420000D03*
X140550000Y-96500000D03*
X140550000Y-93420000D03*
X140950000Y-96500000D03*
X140950000Y-93420000D03*
X141350000Y-96500000D03*
X141350000Y-93420000D03*
X141750000Y-96500000D03*
X141750000Y-93420000D03*
X142150000Y-96500000D03*
X142150000Y-93420000D03*
X142550000Y-96500000D03*
X142550000Y-93420000D03*
X122950000Y-62580000D03*
X122950000Y-59500000D03*
X123350000Y-62580000D03*
X123350000Y-59500000D03*
X123750000Y-62580000D03*
X123750000Y-59500000D03*
X124150000Y-62580000D03*
X124150000Y-59500000D03*
X124550000Y-62580000D03*
X124550000Y-59500000D03*
X124950000Y-62580000D03*
X124950000Y-59500000D03*
X125350000Y-62580000D03*
X125350000Y-59500000D03*
X125750000Y-62580000D03*
X125750000Y-59500000D03*
X126150000Y-62580000D03*
X126150000Y-59500000D03*
X126550000Y-62580000D03*
X126550000Y-59500000D03*
X126950000Y-62580000D03*
X126950000Y-59500000D03*
X127350000Y-62580000D03*
X127350000Y-59500000D03*
X127750000Y-62580000D03*
X127750000Y-59500000D03*
X128150000Y-62580000D03*
X128150000Y-59500000D03*
X128550000Y-62580000D03*
X128550000Y-59500000D03*
X128950000Y-62580000D03*
X128950000Y-59500000D03*
X129350000Y-62580000D03*
X129350000Y-59500000D03*
X129750000Y-62580000D03*
X129750000Y-59500000D03*
X130150000Y-62580000D03*
X130150000Y-59500000D03*
X130550000Y-62580000D03*
X130550000Y-59500000D03*
X130950000Y-62580000D03*
X130950000Y-59500000D03*
X131350000Y-62580000D03*
X131350000Y-59500000D03*
X131750000Y-62580000D03*
X131750000Y-59500000D03*
X132150000Y-62580000D03*
X132150000Y-59500000D03*
X132550000Y-62580000D03*
X132550000Y-59500000D03*
X132950000Y-62580000D03*
X132950000Y-59500000D03*
X133350000Y-62580000D03*
X133350000Y-59500000D03*
X133750000Y-62580000D03*
X133750000Y-59500000D03*
X134150000Y-62580000D03*
X134150000Y-59500000D03*
X134550000Y-62580000D03*
X134550000Y-59500000D03*
X134950000Y-62580000D03*
X134950000Y-59500000D03*
X135350000Y-62580000D03*
X135350000Y-59500000D03*
X135750000Y-62580000D03*
X135750000Y-59500000D03*
X136150000Y-62580000D03*
X136150000Y-59500000D03*
X136550000Y-62580000D03*
X136550000Y-59500000D03*
X136950000Y-62580000D03*
X136950000Y-59500000D03*
X137350000Y-62580000D03*
X137350000Y-59500000D03*
X137750000Y-62580000D03*
X137750000Y-59500000D03*
X138150000Y-62580000D03*
X138150000Y-59500000D03*
X138550000Y-62580000D03*
X138550000Y-59500000D03*
X138950000Y-62580000D03*
X138950000Y-59500000D03*
X139350000Y-62580000D03*
X139350000Y-59500000D03*
X139750000Y-62580000D03*
X139750000Y-59500000D03*
X140150000Y-62580000D03*
X140150000Y-59500000D03*
X140550000Y-62580000D03*
X140550000Y-59500000D03*
X140950000Y-62580000D03*
X140950000Y-59500000D03*
X141350000Y-62580000D03*
X141350000Y-59500000D03*
X141750000Y-62580000D03*
X141750000Y-59500000D03*
X142150000Y-62580000D03*
X142150000Y-59500000D03*
X142550000Y-62580000D03*
X142550000Y-59500000D03*
D32*
X102610000Y-118548000D03*
X104160000Y-118548000D03*
D81*
X104366000Y-48702500D03*
X103416000Y-48702500D03*
X102466000Y-48702500D03*
X102466000Y-50977500D03*
X103416000Y-50977500D03*
X104366000Y-50977500D03*
D68*
X89510000Y-72485500D03*
X91410000Y-72485500D03*
X90460000Y-70610500D03*
D53*
X96038000Y-62235000D03*
X95388000Y-62235000D03*
X94738000Y-62235000D03*
X94738000Y-64135000D03*
X95388000Y-64135000D03*
X96038000Y-64135000D03*
D21*
X93990000Y-97579000D03*
D61*
X46937500Y-102750000D03*
X45062500Y-102750000D03*
D82*
X46900000Y-139100000D03*
X89800000Y-131600000D03*
X53100000Y-134800000D03*
X50700000Y-137700000D03*
X50800000Y-138700000D03*
D83*
X135000000Y-58250000D03*
X124250000Y-63500000D03*
D84*
X119028540Y-108528540D03*
D83*
X136000000Y-58250000D03*
X126700000Y-91700000D03*
X132900000Y-94100000D03*
D85*
X144800000Y-126200000D03*
D84*
X114500000Y-107049500D03*
D83*
X139750000Y-63500000D03*
D85*
X111000000Y-117000000D03*
X110200000Y-58200000D03*
D82*
X107000000Y-49600000D03*
D83*
X123500000Y-97500000D03*
D85*
X106200000Y-114400000D03*
X152000000Y-133500000D03*
D83*
X130700000Y-92000000D03*
D85*
X68500000Y-44000000D03*
D83*
X129000000Y-58250000D03*
D86*
X123938000Y-116187000D03*
D84*
X69500000Y-138000000D03*
D86*
X120938000Y-112687000D03*
D85*
X149250000Y-126500000D03*
X134250000Y-127000000D03*
D83*
X141000000Y-60500000D03*
D85*
X59000000Y-46250000D03*
D84*
X105400000Y-119200000D03*
D85*
X60500000Y-56750000D03*
D83*
X126500000Y-58250000D03*
X125500000Y-63500000D03*
D84*
X62500000Y-103750000D03*
D83*
X137250000Y-63500000D03*
D85*
X156250000Y-124500000D03*
D84*
X136300000Y-100400000D03*
D83*
X92750000Y-81750000D03*
D86*
X124188000Y-112437000D03*
D83*
X134750000Y-63500000D03*
D85*
X137400000Y-133600000D03*
D82*
X92400000Y-86250000D03*
D85*
X57250000Y-76000000D03*
D84*
X114000000Y-101750000D03*
D85*
X110400000Y-119300000D03*
D84*
X68100000Y-141000000D03*
D83*
X122500000Y-92750000D03*
X134000000Y-58250000D03*
X130250000Y-58250000D03*
D84*
X52000000Y-132500000D03*
D82*
X150200000Y-51600000D03*
D84*
X113800000Y-124600000D03*
D82*
X109600000Y-51811500D03*
D85*
X51000000Y-65000000D03*
D83*
X125250000Y-58250000D03*
X125000000Y-91250000D03*
D85*
X143750000Y-134750000D03*
X149500000Y-130750000D03*
X56250000Y-75000000D03*
D83*
X134100000Y-97700000D03*
X127750000Y-63500000D03*
D84*
X111200000Y-128600000D03*
X142750000Y-100500000D03*
D82*
X92300000Y-83600000D03*
D84*
X43900000Y-132600000D03*
D85*
X58250000Y-56250000D03*
D82*
X102400000Y-47600000D03*
D83*
X136100000Y-97600000D03*
X129000000Y-63500000D03*
D82*
X112500000Y-48200000D03*
D85*
X56000000Y-51500000D03*
X96500000Y-101500000D03*
D83*
X133500000Y-95500000D03*
D84*
X68200000Y-132600000D03*
D83*
X123250000Y-92250000D03*
X131000000Y-95500000D03*
X128750000Y-92500000D03*
X139750000Y-60500000D03*
X140000000Y-46700000D03*
D84*
X106250000Y-109500000D03*
X60200000Y-132600000D03*
D83*
X131500000Y-58250000D03*
X130000000Y-63500000D03*
D82*
X117375000Y-114900000D03*
D83*
X126500000Y-63500000D03*
D85*
X55250000Y-76000000D03*
D83*
X124000000Y-58250000D03*
D82*
X88250000Y-60500000D03*
D83*
X127750000Y-58250000D03*
D84*
X59900000Y-141000000D03*
D85*
X99000000Y-116600000D03*
D83*
X142000000Y-60500000D03*
X136000000Y-63500000D03*
D85*
X141800000Y-123400000D03*
D83*
X141500000Y-46700000D03*
D84*
X107400000Y-56000000D03*
D85*
X68000000Y-42500000D03*
D82*
X129200000Y-135000000D03*
D84*
X112700000Y-112200000D03*
D82*
X92500000Y-90000000D03*
D85*
X51000000Y-56250000D03*
D83*
X128750000Y-99250000D03*
D85*
X58250000Y-65250000D03*
D83*
X132750000Y-58250000D03*
X126100000Y-99600000D03*
D82*
X94800000Y-60600000D03*
D85*
X138750000Y-127750000D03*
D84*
X114700000Y-116500000D03*
X101000000Y-102000000D03*
D83*
X142000000Y-63500000D03*
D85*
X139750000Y-108750000D03*
D83*
X134000000Y-64000000D03*
X141000000Y-63500000D03*
D82*
X103400000Y-47600000D03*
D83*
X142250000Y-92250000D03*
X122250000Y-96500000D03*
X137000000Y-46700000D03*
X137000000Y-95750000D03*
X92000000Y-73500000D03*
X144400000Y-46700000D03*
X138500000Y-63500000D03*
D84*
X98900000Y-124400000D03*
D85*
X125400000Y-109500000D03*
D82*
X92500000Y-87750000D03*
D84*
X51800000Y-141100000D03*
D83*
X136994216Y-92252892D03*
D85*
X67000000Y-44000000D03*
D83*
X137506911Y-60506911D03*
D85*
X137500000Y-131000000D03*
X69000000Y-68500000D03*
D83*
X138500000Y-46700000D03*
X134250000Y-94250000D03*
X125000000Y-97500000D03*
D84*
X62250000Y-100000000D03*
X64250000Y-106500000D03*
D83*
X138500000Y-60500000D03*
D84*
X101750000Y-107750000D03*
D85*
X130000000Y-126250000D03*
X67750000Y-66750000D03*
D82*
X112600000Y-49600000D03*
D85*
X153250000Y-128000000D03*
D83*
X135700000Y-92500000D03*
D82*
X100200000Y-112100000D03*
D86*
X127188000Y-112687000D03*
X101400000Y-118500500D03*
X106400000Y-111800000D03*
X149500000Y-124500000D03*
D82*
X137500000Y-82750000D03*
X96000000Y-88250000D03*
X139400000Y-92100000D03*
X139250000Y-83250000D03*
X138700000Y-91400000D03*
D86*
X143250000Y-110250000D03*
D82*
X137600000Y-83700000D03*
D86*
X123750000Y-114750000D03*
X115000000Y-100250000D03*
D84*
X115800000Y-121600000D03*
D82*
X138400000Y-92400000D03*
D86*
X53400000Y-142900000D03*
D82*
X137700000Y-91500000D03*
D86*
X97000000Y-113500000D03*
D82*
X138400000Y-82900000D03*
D86*
X128750000Y-110500000D03*
X118250000Y-111000000D03*
X109250000Y-113500000D03*
X135000000Y-124000000D03*
D82*
X102200000Y-56400000D03*
D86*
X106000000Y-125000000D03*
X70400000Y-135600000D03*
X102250000Y-101250000D03*
X87750000Y-76000000D03*
D82*
X109000000Y-54200000D03*
D86*
X127000000Y-115250000D03*
X78250000Y-77000000D03*
X104500000Y-83500000D03*
D82*
X106750000Y-52750000D03*
X106000000Y-53000000D03*
D85*
X84000000Y-79000000D03*
D82*
X107000000Y-54000000D03*
D84*
X145750000Y-93000000D03*
D85*
X89000000Y-79250000D03*
D82*
X106200000Y-53800000D03*
D84*
X145000000Y-93750000D03*
D86*
X81000000Y-56700000D03*
D85*
X134500000Y-133500000D03*
D82*
X107300000Y-53300000D03*
D86*
X152100000Y-53900000D03*
D84*
X146000000Y-95000000D03*
D85*
X151500000Y-136750000D03*
D86*
X79600000Y-56500000D03*
D84*
X146000000Y-94000000D03*
D86*
X79800000Y-58000000D03*
X81200000Y-58000000D03*
D83*
X95400000Y-68200000D03*
D82*
X109500000Y-89600000D03*
D83*
X100000000Y-63500000D03*
D82*
X121250000Y-96500000D03*
D83*
X87000000Y-73500000D03*
D82*
X105000000Y-88500000D03*
X120300000Y-97000000D03*
D83*
X92300000Y-78600000D03*
D82*
X104400000Y-53000000D03*
X105000000Y-49000000D03*
D83*
X114200000Y-52400000D03*
X114600000Y-54600000D03*
D82*
X146250000Y-99250000D03*
X94250000Y-87000000D03*
D83*
X102000000Y-82000000D03*
X121500000Y-74750000D03*
X101000000Y-75000000D03*
X120500000Y-100750000D03*
X119500000Y-104250000D03*
X127900000Y-91100000D03*
X115200000Y-118000000D03*
X114200000Y-50800000D03*
X115400000Y-56000000D03*
X108200000Y-49600000D03*
X114752512Y-56600000D03*
X91750000Y-69500000D03*
D82*
X106750000Y-69750000D03*
D83*
X93750000Y-83000000D03*
X118500000Y-79000000D03*
D82*
X90500000Y-104500000D03*
X89750000Y-108250000D03*
D83*
X132900000Y-94900000D03*
X118750000Y-101250000D03*
D82*
X116000000Y-94600000D03*
X111900000Y-100800000D03*
X105750000Y-101750000D03*
D83*
X125000000Y-94250000D03*
D82*
X108800000Y-116000000D03*
X145000000Y-97000000D03*
D83*
X120750000Y-104000000D03*
D82*
X111800000Y-123000000D03*
X115150000Y-118850000D03*
D83*
X126200000Y-92400000D03*
X121250000Y-101250000D03*
X98910000Y-129670000D03*
X125675000Y-100850000D03*
X132250000Y-90750000D03*
X133100000Y-63500000D03*
X145600000Y-51400000D03*
X132900000Y-61500000D03*
X142600000Y-53900000D03*
X51250000Y-97000000D03*
X99600000Y-92000000D03*
X110552512Y-50647488D03*
X108100000Y-44600000D03*
X109300000Y-44600000D03*
X111100000Y-49900000D03*
X96200000Y-61800000D03*
X96200000Y-64800000D03*
X94200000Y-62200000D03*
X94600000Y-63600000D03*
X92000000Y-95000000D03*
X48250000Y-95750000D03*
D82*
X74000000Y-85000000D03*
X88750000Y-85000000D03*
X133700000Y-103700000D03*
X129900000Y-104300000D03*
X136500000Y-113750000D03*
D83*
X129600000Y-95000000D03*
D82*
X137500000Y-116000000D03*
D83*
X132200000Y-100800000D03*
D82*
X112800000Y-128800000D03*
D84*
X143660000Y-139800000D03*
X142590000Y-139680000D03*
D82*
X56600000Y-45600000D03*
X57400000Y-45600000D03*
X45300000Y-78300000D03*
X44300000Y-78700000D03*
X55700000Y-45600000D03*
D83*
X108750000Y-110500000D03*
D82*
X138250000Y-105000000D03*
D83*
X122500000Y-107750000D03*
X120000000Y-107500000D03*
X116900000Y-110900000D03*
X108750000Y-109750000D03*
X108775192Y-108087211D03*
X117000000Y-108000000D03*
X127600000Y-92500000D03*
X127100000Y-100975000D03*
X126500000Y-101500000D03*
X108500000Y-107250000D03*
X128250000Y-101250000D03*
X116900000Y-107200000D03*
X129400000Y-98600000D03*
X128500000Y-94250000D03*
X129250000Y-87000000D03*
X54750000Y-97800000D03*
X55875000Y-97275000D03*
X129250000Y-86250000D03*
X129500000Y-85000000D03*
X56625000Y-96700000D03*
X100000000Y-105500000D03*
X99000000Y-105500000D03*
X117800000Y-131000000D03*
D82*
X113000000Y-99900000D03*
X92000000Y-99500000D03*
X99900000Y-122250000D03*
X101600000Y-122400000D03*
X103000000Y-124200000D03*
X102000000Y-124000000D03*
X100300000Y-124100000D03*
X103800000Y-126800000D03*
D83*
X130400000Y-95000000D03*
X131200000Y-99800000D03*
D82*
X147500000Y-114400000D03*
X149700000Y-113600000D03*
D83*
X131250000Y-94750000D03*
X132100000Y-99800000D03*
X119800000Y-117925000D03*
X128750000Y-100000000D03*
X116050000Y-116025000D03*
X131750000Y-92000000D03*
D82*
X137100000Y-105250000D03*
D83*
X126800000Y-105500000D03*
X130000000Y-89500000D03*
X132200000Y-95300000D03*
X125500000Y-80500000D03*
X74250000Y-79750000D03*
D82*
X94000000Y-92100000D03*
X72250000Y-88750000D03*
D83*
X134250000Y-95500000D03*
D82*
X107000000Y-88750000D03*
D83*
X135250000Y-94500000D03*
X134750000Y-90250000D03*
X116000000Y-77500000D03*
X115250000Y-76250000D03*
X49700000Y-98925000D03*
X125000000Y-95750000D03*
X124250000Y-95750000D03*
D82*
X51750000Y-94500000D03*
D83*
X101700000Y-90200000D03*
X116750000Y-80750000D03*
D84*
X51000000Y-143200000D03*
X70600000Y-132800000D03*
D87*
X98997000Y-120603000D02*
X98997000Y-121503000D01*
X98997000Y-121503000D02*
X98250000Y-122250000D01*
X98250000Y-122250000D02*
X97125000Y-122250000D01*
X97125000Y-122250000D02*
X96375000Y-123000000D01*
X96375000Y-123000000D02*
X80200000Y-123000000D01*
X80200000Y-123000000D02*
X75300000Y-127900000D01*
X61000000Y-127200000D02*
X61000000Y-126067000D01*
X75300000Y-127900000D02*
X61700000Y-127900000D01*
X61700000Y-127900000D02*
X61000000Y-127200000D01*
X95187000Y-125753000D02*
X95140000Y-125800000D01*
X95140000Y-125800000D02*
X80200000Y-125800000D01*
X80200000Y-125800000D02*
X77000000Y-129000000D01*
X77000000Y-129000000D02*
X60200000Y-129000000D01*
X60200000Y-129000000D02*
X58300000Y-127100000D01*
X58300000Y-127100000D02*
X58300000Y-113527000D01*
X58300000Y-113527000D02*
X61000000Y-110827000D01*
X49950000Y-137700000D02*
X50700000Y-137700000D01*
X50800000Y-138700000D02*
X50450000Y-138350000D01*
X50450000Y-138350000D02*
X49950000Y-138350000D01*
X48050000Y-139000000D02*
X48424022Y-139000000D01*
X48424022Y-139000000D02*
X49100000Y-138324022D01*
X49100000Y-138324022D02*
X49100000Y-137000000D01*
D88*
X47550000Y-135750000D02*
X48600000Y-136800000D01*
X48600000Y-136800000D02*
X48900000Y-136800000D01*
X48900000Y-136800000D02*
X49100000Y-137000000D01*
X47300000Y-138700000D02*
X46900000Y-139100000D01*
D87*
X89800000Y-132300000D02*
X84500000Y-137600000D01*
X89800000Y-131600000D02*
X89800000Y-132300000D01*
X84500000Y-137600000D02*
X84500000Y-137849000D01*
X84500000Y-137849000D02*
X81199000Y-141150000D01*
X53400000Y-134500000D02*
X53100000Y-134800000D01*
X53400000Y-132900000D02*
X53400000Y-134500000D01*
D88*
X49100000Y-137000000D02*
X49300000Y-136800000D01*
X49300000Y-136800000D02*
X54600000Y-136800000D01*
X54600000Y-136800000D02*
X55650000Y-135750000D01*
D87*
X48050000Y-137700000D02*
X44600000Y-137700000D01*
X44600000Y-137700000D02*
X42650000Y-135750000D01*
X49950000Y-139000000D02*
X49300000Y-139000000D01*
X49300000Y-139000000D02*
X48800000Y-139500000D01*
X48800000Y-139500000D02*
X47600000Y-139500000D01*
X47600000Y-139500000D02*
X47300000Y-139200000D01*
X47300000Y-139200000D02*
X47300000Y-138700000D01*
X47300000Y-138700000D02*
X47650000Y-138350000D01*
X47650000Y-138350000D02*
X48050000Y-138350000D01*
X115200000Y-118000000D02*
X114600000Y-118000000D01*
X114600000Y-118000000D02*
X110800000Y-121800000D01*
X55900000Y-130400000D02*
X53400000Y-132900000D01*
X110800000Y-121800000D02*
X110800000Y-126000000D01*
X110800000Y-126000000D02*
X106400000Y-130400000D01*
X106400000Y-130400000D02*
X55900000Y-130400000D01*
D89*
X67750000Y-66750000D02*
X69000000Y-68000000D01*
X69000000Y-68000000D02*
X69000000Y-68500000D01*
D90*
X69000000Y-68500000D02*
X69500000Y-69000000D01*
X69500000Y-69000000D02*
X69500000Y-71510000D01*
X69500000Y-71510000D02*
X69746000Y-71756000D01*
D91*
X63781000Y-62396000D02*
X66750000Y-62396000D01*
D90*
X66750000Y-62396000D02*
X71146000Y-62396000D01*
X71146000Y-62396000D02*
X74430000Y-65680000D01*
X74430000Y-65680000D02*
X74430000Y-67197000D01*
X73746000Y-71756000D02*
X73746000Y-67881000D01*
X73746000Y-67881000D02*
X74430000Y-67197000D01*
D87*
X112352000Y-112548000D02*
X112700000Y-112200000D01*
D92*
X92409000Y-83709000D02*
X93111000Y-83709000D01*
D87*
X91410000Y-72485500D02*
X91410000Y-72910000D01*
D93*
X104820000Y-46018000D02*
X104415000Y-46018000D01*
D88*
X88787000Y-61037000D02*
X88250000Y-60500000D01*
D92*
X130700000Y-92000000D02*
X130950000Y-92250000D01*
D87*
X141460000Y-46740000D02*
X141500000Y-46700000D01*
D93*
X55950000Y-51450000D02*
X56000000Y-51500000D01*
D87*
X134950000Y-63300000D02*
X134750000Y-63500000D01*
D92*
X124150000Y-93420000D02*
X124150000Y-92820000D01*
D93*
X155119000Y-121674000D02*
X154842000Y-121397000D01*
X144482000Y-136295000D02*
X144482000Y-134947000D01*
D88*
X69500000Y-138000000D02*
X70425000Y-138000000D01*
D87*
X134550000Y-97050000D02*
X134550000Y-96500000D01*
D93*
X68150000Y-132550000D02*
X68200000Y-132600000D01*
D92*
X128950000Y-93420000D02*
X128950000Y-92700000D01*
D87*
X140950000Y-60450000D02*
X141000000Y-60500000D01*
X134100000Y-97700000D02*
X134100000Y-97500000D01*
X144460000Y-48849000D02*
X144460000Y-46760000D01*
X126950000Y-91950000D02*
X126700000Y-91700000D01*
X130150000Y-62580000D02*
X130150000Y-63350000D01*
D93*
X67050000Y-132550000D02*
X68150000Y-132550000D01*
D91*
X60500000Y-56750000D02*
X61046000Y-57296000D01*
D93*
X100675000Y-102325000D02*
X101000000Y-102000000D01*
X103999000Y-115000000D02*
X103943000Y-114944000D01*
X150750000Y-125765000D02*
X149985000Y-125765000D01*
X153419000Y-127831000D02*
X153250000Y-128000000D01*
X102115000Y-114969000D02*
X103918000Y-114969000D01*
D92*
X125350000Y-91600000D02*
X125000000Y-91250000D01*
X112500000Y-48200000D02*
X112497000Y-48203000D01*
D87*
X129350000Y-97478939D02*
X128700000Y-98128939D01*
D88*
X129961000Y-136384000D02*
X129961000Y-135074000D01*
D93*
X93250000Y-101750000D02*
X93500000Y-101500000D01*
D87*
X140950000Y-59500000D02*
X140950000Y-60450000D01*
X133750000Y-62580000D02*
X133750000Y-63750000D01*
X139750000Y-59500000D02*
X139750000Y-60500000D01*
D93*
X143947000Y-134947000D02*
X143750000Y-134750000D01*
X123996000Y-112629000D02*
X124188000Y-112437000D01*
D92*
X128950000Y-92700000D02*
X128750000Y-92500000D01*
D87*
X138550000Y-63450000D02*
X138500000Y-63500000D01*
X131350000Y-59500000D02*
X131350000Y-58400000D01*
D93*
X98646000Y-116246000D02*
X98000000Y-116246000D01*
D87*
X139960000Y-48849000D02*
X139960000Y-46740000D01*
X126550000Y-62580000D02*
X126550000Y-63450000D01*
D91*
X55054000Y-60696000D02*
X54631000Y-60696000D01*
D87*
X126550000Y-58300000D02*
X126500000Y-58250000D01*
D88*
X113925000Y-123670000D02*
X113925000Y-124475000D01*
D87*
X128950000Y-58300000D02*
X129000000Y-58250000D01*
X129350000Y-96500000D02*
X129350000Y-97478939D01*
X134100000Y-97500000D02*
X134550000Y-97050000D01*
D92*
X136950000Y-96500000D02*
X136950000Y-95800000D01*
D87*
X124150000Y-63400000D02*
X124250000Y-63500000D01*
X128950000Y-59500000D02*
X128950000Y-58300000D01*
D92*
X135750000Y-96500000D02*
X135750000Y-97250000D01*
D93*
X137319000Y-130819000D02*
X137500000Y-131000000D01*
D87*
X138460000Y-48849000D02*
X138460000Y-46740000D01*
X127750000Y-59500000D02*
X127750000Y-58250000D01*
X142150000Y-59500000D02*
X142150000Y-60350000D01*
D93*
X124375000Y-112624000D02*
X124188000Y-112437000D01*
D88*
X103416000Y-48702500D02*
X103416000Y-47616000D01*
D91*
X61046000Y-57296000D02*
X63781000Y-57296000D01*
D92*
X112848550Y-50261999D02*
X112848550Y-49848550D01*
X132950000Y-94050000D02*
X132950000Y-93420000D01*
D87*
X125350000Y-59500000D02*
X125350000Y-58350000D01*
X132550000Y-58450000D02*
X132750000Y-58250000D01*
D92*
X112497000Y-48203000D02*
X111697000Y-48203000D01*
D93*
X108331000Y-55847000D02*
X107553000Y-55847000D01*
D92*
X127350000Y-98350000D02*
X127350000Y-96500000D01*
D93*
X121609000Y-112629000D02*
X120996000Y-112629000D01*
D87*
X141460000Y-48849000D02*
X141460000Y-46740000D01*
D93*
X153181000Y-128069000D02*
X153250000Y-128000000D01*
X155119000Y-124451000D02*
X155119000Y-121674000D01*
D87*
X132550000Y-59500000D02*
X132550000Y-58450000D01*
X137350000Y-59500000D02*
X137350000Y-60350000D01*
D93*
X56117000Y-48646000D02*
X55805000Y-48334000D01*
X107553000Y-55847000D02*
X107400000Y-56000000D01*
D92*
X122950000Y-96500000D02*
X122250000Y-96500000D01*
D87*
X140950000Y-62580000D02*
X140950000Y-63450000D01*
D93*
X139100000Y-127400000D02*
X138750000Y-127750000D01*
D88*
X129961000Y-135074000D02*
X129274000Y-135074000D01*
D92*
X123500000Y-97500000D02*
X123749022Y-97500000D01*
D89*
X67000000Y-44000000D02*
X68862000Y-42138000D01*
D88*
X102466000Y-48702500D02*
X102466000Y-47666000D01*
D93*
X140512000Y-109512000D02*
X139750000Y-108750000D01*
D87*
X95388000Y-62235000D02*
X95388000Y-61188000D01*
D93*
X140919000Y-124281000D02*
X140800000Y-124281000D01*
D91*
X59000000Y-56750000D02*
X55054000Y-60696000D01*
D93*
X106112500Y-109362500D02*
X106250000Y-109500000D01*
X60613500Y-103123000D02*
X61873000Y-103123000D01*
D88*
X113675000Y-102400000D02*
X113675000Y-103637500D01*
D93*
X56117000Y-51383000D02*
X56000000Y-51500000D01*
X144482000Y-125882000D02*
X144482000Y-124297000D01*
X153419000Y-126651000D02*
X153419000Y-127831000D01*
X93500000Y-101500000D02*
X96500000Y-101500000D01*
X50750000Y-132550000D02*
X51950000Y-132550000D01*
D87*
X124150000Y-58400000D02*
X124000000Y-58250000D01*
D93*
X43850000Y-132550000D02*
X43900000Y-132600000D01*
X105400000Y-119200000D02*
X104748000Y-118548000D01*
D88*
X100675000Y-103637500D02*
X100675000Y-102325000D01*
D93*
X106282000Y-50151000D02*
X106449000Y-50151000D01*
X114500000Y-107750000D02*
X114500000Y-107049500D01*
D92*
X92400000Y-86250000D02*
X92400000Y-86240000D01*
X136950000Y-95800000D02*
X137000000Y-95750000D01*
D93*
X151684000Y-133816000D02*
X152000000Y-133500000D01*
D92*
X137050000Y-99250000D02*
X137050000Y-99750000D01*
D93*
X59178000Y-44635800D02*
X59178000Y-46072000D01*
X110583000Y-56726000D02*
X110583000Y-57817000D01*
X153181000Y-128927000D02*
X153181000Y-128069000D01*
X61549000Y-99299000D02*
X62250000Y-100000000D01*
X141800000Y-123400000D02*
X140919000Y-124281000D01*
D89*
X50550000Y-77191000D02*
X54059000Y-77191000D01*
D87*
X138460000Y-46740000D02*
X138500000Y-46700000D01*
X137350000Y-63400000D02*
X137250000Y-63500000D01*
D93*
X140800000Y-121832000D02*
X140369000Y-121401000D01*
D88*
X102466000Y-47666000D02*
X102400000Y-47600000D01*
D93*
X114000000Y-101750000D02*
X114000000Y-102075000D01*
D92*
X142150000Y-92350000D02*
X142250000Y-92250000D01*
D87*
X136960000Y-46740000D02*
X137000000Y-46700000D01*
X99915000Y-113269000D02*
X99915000Y-112385000D01*
X99915000Y-113269000D02*
X100169000Y-113269000D01*
D94*
X142450000Y-100200000D02*
X142750000Y-100500000D01*
D93*
X114975000Y-108225000D02*
X114500000Y-107750000D01*
D87*
X128950000Y-62580000D02*
X128950000Y-63450000D01*
D93*
X51950000Y-132550000D02*
X52000000Y-132500000D01*
D87*
X130150000Y-59500000D02*
X130150000Y-58350000D01*
D92*
X109550499Y-51761999D02*
X109600000Y-51811500D01*
D87*
X99915000Y-112385000D02*
X100200000Y-112100000D01*
X91410000Y-72910000D02*
X92000000Y-73500000D01*
D88*
X129274000Y-135074000D02*
X129200000Y-135000000D01*
D87*
X134950000Y-58300000D02*
X135000000Y-58250000D01*
D93*
X122909000Y-112629000D02*
X123996000Y-112629000D01*
D87*
X124150000Y-59500000D02*
X124150000Y-58400000D01*
D88*
X136300000Y-100400000D02*
X136300000Y-100300000D01*
D92*
X142150000Y-93420000D02*
X142150000Y-92350000D01*
D87*
X142150000Y-60350000D02*
X142000000Y-60500000D01*
D93*
X51750000Y-141050000D02*
X51800000Y-141100000D01*
D92*
X123749022Y-97500000D02*
X124150000Y-97099022D01*
X92300000Y-83600000D02*
X92409000Y-83709000D01*
D87*
X131350000Y-96500000D02*
X131350000Y-95850000D01*
X128950000Y-63450000D02*
X129000000Y-63500000D01*
D92*
X134550000Y-93950000D02*
X134250000Y-94250000D01*
D93*
X144400000Y-135029000D02*
X144482000Y-134947000D01*
X150872000Y-133816000D02*
X151684000Y-133816000D01*
D87*
X114552000Y-115221000D02*
X116194000Y-115221000D01*
D92*
X130950000Y-92250000D02*
X130950000Y-93420000D01*
D89*
X68794000Y-44000000D02*
X70656000Y-42138000D01*
D93*
X138810000Y-128794000D02*
X138810000Y-127810000D01*
D87*
X95388000Y-61188000D02*
X94800000Y-60600000D01*
X126550000Y-63450000D02*
X126500000Y-63500000D01*
D92*
X134550000Y-93420000D02*
X134550000Y-93950000D01*
X126100000Y-99600000D02*
X127350000Y-98350000D01*
D93*
X114700000Y-115369000D02*
X114552000Y-115221000D01*
D88*
X114000000Y-102075000D02*
X113675000Y-102400000D01*
D92*
X124150000Y-97099022D02*
X124150000Y-96500000D01*
X92867000Y-88117000D02*
X92500000Y-87750000D01*
D87*
X112352000Y-113521000D02*
X112352000Y-112548000D01*
X139750000Y-62580000D02*
X139750000Y-63500000D01*
D89*
X54059000Y-77191000D02*
X56250000Y-75000000D01*
D91*
X126519000Y-109512000D02*
X125412000Y-109512000D01*
D87*
X128700000Y-98128939D02*
X128700000Y-99200000D01*
D92*
X93111000Y-82409000D02*
X93111000Y-82111000D01*
D93*
X98997000Y-124497000D02*
X98997000Y-125753000D01*
D87*
X130150000Y-58350000D02*
X130250000Y-58250000D01*
D92*
X92400000Y-86240000D02*
X93100000Y-85540000D01*
D93*
X98000000Y-116246000D02*
X97846000Y-116092000D01*
D87*
X131350000Y-95850000D02*
X131000000Y-95500000D01*
X136150000Y-58400000D02*
X136000000Y-58250000D01*
D93*
X156201000Y-124451000D02*
X156250000Y-124500000D01*
D92*
X108441650Y-51761999D02*
X109550499Y-51761999D01*
D87*
X142150000Y-62580000D02*
X142150000Y-63350000D01*
D93*
X122884000Y-116244000D02*
X123881000Y-116244000D01*
D92*
X137350000Y-93420000D02*
X137350000Y-92608676D01*
D93*
X104415000Y-46018000D02*
X103850000Y-45453000D01*
X58850000Y-132550000D02*
X60150000Y-132550000D01*
D87*
X134950000Y-62580000D02*
X134950000Y-63300000D01*
X138550000Y-59500000D02*
X138550000Y-60450000D01*
D93*
X105600000Y-115000000D02*
X103999000Y-115000000D01*
D87*
X127750000Y-62580000D02*
X127750000Y-63500000D01*
D93*
X104748000Y-118548000D02*
X104160000Y-118548000D01*
X145232000Y-137045000D02*
X144482000Y-136295000D01*
X63809000Y-106941000D02*
X60613500Y-106941000D01*
D87*
X136150000Y-59500000D02*
X136150000Y-58400000D01*
D92*
X135750000Y-92550000D02*
X135750000Y-93420000D01*
D93*
X59850000Y-141050000D02*
X59900000Y-141000000D01*
X99000000Y-116600000D02*
X98646000Y-116246000D01*
X111925000Y-46018000D02*
X112490000Y-45453000D01*
D87*
X133750000Y-59500000D02*
X133750000Y-58500000D01*
D93*
X108837000Y-119300000D02*
X108575000Y-119038000D01*
X110400000Y-119300000D02*
X108837000Y-119300000D01*
D89*
X58458000Y-77208000D02*
X56250000Y-75000000D01*
D93*
X111520000Y-46018000D02*
X111925000Y-46018000D01*
D92*
X124150000Y-92820000D02*
X123580000Y-92250000D01*
X125350000Y-96500000D02*
X125350000Y-97150000D01*
D87*
X133750000Y-58500000D02*
X134000000Y-58250000D01*
X125350000Y-58350000D02*
X125250000Y-58250000D01*
D93*
X106449000Y-50151000D02*
X107000000Y-49600000D01*
D87*
X125350000Y-62580000D02*
X125350000Y-63350000D01*
D93*
X105225000Y-109362500D02*
X106112500Y-109362500D01*
X136353000Y-130819000D02*
X137319000Y-130819000D01*
D92*
X122950000Y-93420000D02*
X122950000Y-93200000D01*
D93*
X150745000Y-130569000D02*
X149681000Y-130569000D01*
D94*
X142450000Y-99250000D02*
X142450000Y-100200000D01*
D93*
X106200000Y-114400000D02*
X105600000Y-115000000D01*
X124886000Y-112624000D02*
X124375000Y-112624000D01*
X64250000Y-106500000D02*
X63809000Y-106941000D01*
D87*
X140950000Y-63450000D02*
X141000000Y-63500000D01*
X139960000Y-46740000D02*
X140000000Y-46700000D01*
D93*
X137400000Y-133600000D02*
X136911000Y-134089000D01*
D87*
X136150000Y-63350000D02*
X136000000Y-63500000D01*
X144460000Y-46760000D02*
X144400000Y-46700000D01*
D88*
X113925000Y-124475000D02*
X113800000Y-124600000D01*
X136300000Y-100300000D02*
X137050000Y-99550000D01*
D87*
X142150000Y-63350000D02*
X142000000Y-63500000D01*
D93*
X138810000Y-127810000D02*
X138750000Y-127750000D01*
D92*
X133350000Y-95650000D02*
X133500000Y-95500000D01*
X123580000Y-92250000D02*
X123250000Y-92250000D01*
X93111000Y-82111000D02*
X92750000Y-81750000D01*
D93*
X68050000Y-141050000D02*
X68100000Y-141000000D01*
X139100000Y-126481000D02*
X139100000Y-127400000D01*
X106200000Y-114400000D02*
X106200000Y-114172000D01*
X110583000Y-57817000D02*
X110200000Y-58200000D01*
X56117000Y-50192000D02*
X56117000Y-48646000D01*
D89*
X62099000Y-77208000D02*
X58458000Y-77208000D01*
D91*
X60500000Y-56750000D02*
X59000000Y-56750000D01*
D89*
X67000000Y-44000000D02*
X68794000Y-44000000D01*
D87*
X136150000Y-62580000D02*
X136150000Y-63350000D01*
D88*
X136300000Y-100400000D02*
X136300000Y-100500000D01*
D93*
X110220000Y-116220000D02*
X111000000Y-117000000D01*
D92*
X125350000Y-93420000D02*
X125350000Y-91600000D01*
X132900000Y-94100000D02*
X132950000Y-94050000D01*
D93*
X101975000Y-107975000D02*
X101750000Y-107750000D01*
X119028540Y-108558960D02*
X118225000Y-109362500D01*
D88*
X130745000Y-137168000D02*
X129961000Y-136384000D01*
D92*
X133350000Y-96500000D02*
X133350000Y-95650000D01*
D93*
X61873000Y-103123000D02*
X62500000Y-103750000D01*
X119028540Y-108528540D02*
X119028540Y-108558960D01*
D92*
X93083000Y-89417000D02*
X92500000Y-90000000D01*
D88*
X150277000Y-51677000D02*
X150200000Y-51600000D01*
D93*
X111929000Y-127582000D02*
X111929000Y-127871000D01*
X50650000Y-141050000D02*
X51750000Y-141050000D01*
D87*
X116194000Y-115221000D02*
X116412000Y-115003000D01*
D93*
X136250000Y-126025000D02*
X135225000Y-126025000D01*
X129961000Y-124424000D02*
X129961000Y-126211000D01*
D92*
X122950000Y-93200000D02*
X122500000Y-92750000D01*
D93*
X42650000Y-132550000D02*
X43850000Y-132550000D01*
X126186000Y-112624000D02*
X127125000Y-112624000D01*
X149681000Y-130569000D02*
X149500000Y-130750000D01*
X124890000Y-116261000D02*
X124012000Y-116261000D01*
D87*
X126550000Y-59500000D02*
X126550000Y-58300000D01*
D88*
X103416000Y-47616000D02*
X103400000Y-47600000D01*
D93*
X59178000Y-46072000D02*
X59000000Y-46250000D01*
D87*
X138550000Y-62580000D02*
X138550000Y-63450000D01*
D93*
X60613500Y-99299000D02*
X61549000Y-99299000D01*
D87*
X101869000Y-114969000D02*
X102115000Y-114969000D01*
X126950000Y-92506416D02*
X126950000Y-91950000D01*
D93*
X110066000Y-116220000D02*
X110220000Y-116220000D01*
D87*
X130150000Y-63350000D02*
X130000000Y-63500000D01*
D93*
X136911000Y-134089000D02*
X135997000Y-134089000D01*
D92*
X135700000Y-92500000D02*
X135750000Y-92550000D01*
X112848550Y-49848550D02*
X112600000Y-49600000D01*
D89*
X68862000Y-42138000D02*
X70656000Y-42138000D01*
D93*
X149985000Y-125765000D02*
X149250000Y-126500000D01*
X114700000Y-116500000D02*
X114700000Y-115369000D01*
D88*
X101975000Y-109362500D02*
X101975000Y-107975000D01*
X114975000Y-109362500D02*
X114975000Y-108225000D01*
D93*
X106200000Y-114172000D02*
X105533000Y-113505000D01*
D88*
X150277000Y-52742000D02*
X150277000Y-51677000D01*
D91*
X125412000Y-109512000D02*
X125400000Y-109500000D01*
D87*
X134950000Y-59500000D02*
X134950000Y-58300000D01*
D93*
X66850000Y-141050000D02*
X68050000Y-141050000D01*
D92*
X137350000Y-92608676D02*
X136994216Y-92252892D01*
D93*
X129961000Y-126211000D02*
X130000000Y-126250000D01*
D87*
X131350000Y-58400000D02*
X131500000Y-58250000D01*
D93*
X111929000Y-127871000D02*
X111200000Y-128600000D01*
D87*
X118031000Y-114244000D02*
X118031000Y-114141000D01*
D93*
X155119000Y-124451000D02*
X156201000Y-124451000D01*
D87*
X124150000Y-62580000D02*
X124150000Y-63400000D01*
D93*
X144800000Y-126200000D02*
X144482000Y-125882000D01*
D92*
X125350000Y-97150000D02*
X125000000Y-97500000D01*
X135750000Y-97250000D02*
X136100000Y-97600000D01*
D93*
X60150000Y-132550000D02*
X60200000Y-132600000D01*
D87*
X137350000Y-60350000D02*
X137506911Y-60506911D01*
D93*
X58750000Y-141050000D02*
X59850000Y-141050000D01*
X140814000Y-109512000D02*
X140512000Y-109512000D01*
D88*
X70425000Y-138000000D02*
X70625000Y-137800000D01*
D87*
X117375000Y-114900000D02*
X118031000Y-114244000D01*
X133750000Y-63750000D02*
X134000000Y-64000000D01*
D92*
X126950000Y-93420000D02*
X126950000Y-92506416D01*
D87*
X137350000Y-62580000D02*
X137350000Y-63400000D01*
D93*
X124012000Y-116261000D02*
X123938000Y-116187000D01*
D87*
X138550000Y-60450000D02*
X138500000Y-60500000D01*
D93*
X135225000Y-126025000D02*
X134250000Y-127000000D01*
D91*
X63781000Y-60696000D02*
X54631000Y-60696000D01*
D93*
X140800000Y-124281000D02*
X140800000Y-121832000D01*
X123881000Y-116244000D02*
X123938000Y-116187000D01*
X144482000Y-134947000D02*
X143947000Y-134947000D01*
X98900000Y-124400000D02*
X98997000Y-124497000D01*
D87*
X128700000Y-99200000D02*
X128750000Y-99250000D01*
D93*
X53071000Y-51450000D02*
X55950000Y-51450000D01*
X103918000Y-114969000D02*
X103943000Y-114944000D01*
X56117000Y-50192000D02*
X56117000Y-51383000D01*
D92*
X93153000Y-88117000D02*
X92867000Y-88117000D01*
D87*
X125350000Y-63350000D02*
X125500000Y-63500000D01*
X136960000Y-48849000D02*
X136960000Y-46740000D01*
D92*
X93153000Y-89417000D02*
X93083000Y-89417000D01*
D88*
X88787000Y-61334000D02*
X88787000Y-61037000D01*
X102562500Y-118500500D02*
X102610000Y-118548000D01*
X62500000Y-137000000D02*
X63750000Y-135750000D01*
D91*
X128750000Y-109850000D02*
X128900000Y-109700000D01*
D88*
X129590000Y-109512000D02*
X129590000Y-111482000D01*
D91*
X149297000Y-124297000D02*
X149500000Y-124500000D01*
D88*
X138700000Y-91400000D02*
X138850000Y-91550000D01*
X139100000Y-92400000D02*
X138850000Y-92400000D01*
D91*
X126912000Y-115250000D02*
X126186000Y-114524000D01*
X106000000Y-125000000D02*
X108013000Y-125000000D01*
X45062500Y-92187500D02*
X45750000Y-91500000D01*
X45062500Y-96750000D02*
X45062500Y-92187500D01*
D88*
X56900000Y-137000000D02*
X62500000Y-137000000D01*
X114500000Y-111000000D02*
X114325000Y-110825000D01*
D90*
X139250000Y-83950000D02*
X139000000Y-84200000D01*
D88*
X63650000Y-144250000D02*
X64800000Y-145400000D01*
X110022000Y-113152000D02*
X109598000Y-113152000D01*
X114325000Y-110825000D02*
X114325000Y-109362500D01*
X46000000Y-100600000D02*
X46000000Y-97687500D01*
X72175000Y-137800000D02*
X72175000Y-135975000D01*
D92*
X138000000Y-91800000D02*
X138000000Y-92000000D01*
D88*
X128069000Y-109462000D02*
X129540000Y-109462000D01*
X97598000Y-112902000D02*
X97000000Y-113500000D01*
X63750000Y-135750000D02*
X64800000Y-136800000D01*
D91*
X135475000Y-124475000D02*
X135000000Y-124000000D01*
X149785000Y-124215000D02*
X149500000Y-124500000D01*
D88*
X61190000Y-92060000D02*
X61750000Y-91500000D01*
X102250000Y-101250000D02*
X103172000Y-101250000D01*
D91*
X136250000Y-124475000D02*
X135475000Y-124475000D01*
D88*
X150750000Y-124215000D02*
X148374000Y-124215000D01*
X138400000Y-92350000D02*
X138850000Y-91900000D01*
X108441650Y-54186350D02*
X108331000Y-54297000D01*
D92*
X95867000Y-88117000D02*
X96000000Y-88250000D01*
D88*
X144114000Y-109512000D02*
X144114000Y-111529000D01*
D91*
X127000000Y-115250000D02*
X126912000Y-115250000D01*
D90*
X137500000Y-83600000D02*
X137500000Y-82750000D01*
X138700000Y-91400000D02*
X139000000Y-91100000D01*
D93*
X95939000Y-41800000D02*
X98315000Y-44176000D01*
D88*
X61190000Y-95410000D02*
X61190000Y-92060000D01*
X45062500Y-101537500D02*
X46000000Y-100600000D01*
X88775125Y-77700000D02*
X88775125Y-77025125D01*
D90*
X137600000Y-83700000D02*
X138500000Y-83700000D01*
D88*
X56700000Y-145400000D02*
X62500000Y-145400000D01*
X109598000Y-113152000D02*
X109250000Y-113500000D01*
X115056500Y-100250000D02*
X115889500Y-101083000D01*
X94709000Y-70369000D02*
X94709000Y-77541000D01*
X115500000Y-111000000D02*
X114500000Y-111000000D01*
X72175000Y-135975000D02*
X71950000Y-135750000D01*
D87*
X118031000Y-112591000D02*
X118031000Y-111219000D01*
D88*
X108441650Y-52262001D02*
X108441650Y-54186350D01*
D92*
X139580000Y-93420000D02*
X139350000Y-93420000D01*
D88*
X117550000Y-111700000D02*
X116200000Y-111700000D01*
X115825000Y-121625000D02*
X115800000Y-121600000D01*
X129540000Y-109462000D02*
X129590000Y-109512000D01*
D93*
X101107011Y-55307011D02*
X101107011Y-46968011D01*
D88*
X115825000Y-122370000D02*
X115825000Y-121625000D01*
D90*
X138500000Y-83700000D02*
X139000000Y-84200000D01*
D88*
X94550000Y-77700000D02*
X88775125Y-77700000D01*
X138850000Y-91900000D02*
X138850000Y-92400000D01*
X94709000Y-77541000D02*
X94550000Y-77700000D01*
X116200000Y-111700000D02*
X115500000Y-111000000D01*
X64800000Y-145400000D02*
X70600000Y-145400000D01*
D93*
X85065000Y-44176000D02*
X87441000Y-41800000D01*
D88*
X115000000Y-100250000D02*
X115056500Y-100250000D01*
D91*
X123130000Y-114750000D02*
X122909000Y-114529000D01*
D88*
X55500489Y-144200489D02*
X54700489Y-144200489D01*
D91*
X143250000Y-110250000D02*
X143250000Y-109750000D01*
X134576000Y-124424000D02*
X135000000Y-124000000D01*
D88*
X45062500Y-102750000D02*
X45062500Y-101537500D01*
D92*
X95053000Y-88117000D02*
X95867000Y-88117000D01*
X139750000Y-93420000D02*
X139580000Y-93420000D01*
D88*
X61890000Y-95410000D02*
X61900000Y-95400000D01*
X78250000Y-77000000D02*
X77850000Y-77000000D01*
X60475000Y-95410000D02*
X61190000Y-95410000D01*
X103172000Y-101250000D02*
X103189000Y-101267000D01*
X55550000Y-144250000D02*
X56700000Y-145400000D01*
X55650000Y-135750000D02*
X56900000Y-137000000D01*
X46000000Y-97687500D02*
X45062500Y-96750000D01*
X143012000Y-109512000D02*
X144114000Y-109512000D01*
X138850000Y-91550000D02*
X138850000Y-91900000D01*
X100750000Y-83500000D02*
X104500000Y-83500000D01*
D91*
X108013000Y-125000000D02*
X108575000Y-124438000D01*
D88*
X116055000Y-120110000D02*
X115595000Y-120570000D01*
D93*
X139400000Y-92100000D02*
X139100000Y-92400000D01*
D92*
X138150000Y-93420000D02*
X138150000Y-92650000D01*
D91*
X137700000Y-91500000D02*
X138600000Y-91500000D01*
D88*
X55550000Y-144250000D02*
X55500489Y-144200489D01*
X94550000Y-77700000D02*
X94950000Y-77700000D01*
D91*
X138600000Y-91500000D02*
X138700000Y-91400000D01*
D88*
X115595000Y-120570000D02*
X115595000Y-121395000D01*
D93*
X108903000Y-54297000D02*
X109000000Y-54200000D01*
X102200000Y-56400000D02*
X101107011Y-55307011D01*
D88*
X61190000Y-95410000D02*
X61890000Y-95410000D01*
D90*
X137500000Y-82750000D02*
X138750000Y-82750000D01*
D88*
X115595000Y-121395000D02*
X115800000Y-121600000D01*
X64800000Y-136800000D02*
X70900000Y-136800000D01*
X142364000Y-109512000D02*
X143012000Y-109512000D01*
X102550000Y-111800000D02*
X101325000Y-110575000D01*
D91*
X148292000Y-124297000D02*
X149297000Y-124297000D01*
D88*
X70900000Y-136800000D02*
X71950000Y-135750000D01*
D90*
X137600000Y-83700000D02*
X137500000Y-83600000D01*
D94*
X54700489Y-144200489D02*
X53400000Y-142900000D01*
D93*
X138000000Y-92000000D02*
X138400000Y-92400000D01*
X108331000Y-54297000D02*
X108903000Y-54297000D01*
D91*
X123750000Y-114750000D02*
X123130000Y-114750000D01*
D93*
X87441000Y-41800000D02*
X95939000Y-41800000D01*
D88*
X94950000Y-77700000D02*
X100750000Y-83500000D01*
X97824000Y-112902000D02*
X97598000Y-112902000D01*
D93*
X101107011Y-46968011D02*
X98315000Y-44176000D01*
D91*
X70400000Y-135600000D02*
X71800000Y-135600000D01*
D88*
X102807000Y-118651000D02*
X102807000Y-120603000D01*
X133822000Y-124475000D02*
X133771000Y-124424000D01*
D90*
X138750000Y-82750000D02*
X139250000Y-83250000D01*
D88*
X129590000Y-111482000D02*
X130209000Y-112101000D01*
D91*
X133771000Y-124424000D02*
X134576000Y-124424000D01*
X71800000Y-135600000D02*
X71950000Y-135750000D01*
D88*
X117690000Y-120110000D02*
X116055000Y-120110000D01*
D91*
X150750000Y-124215000D02*
X149785000Y-124215000D01*
D88*
X70600000Y-145400000D02*
X71750000Y-144250000D01*
X119450000Y-120085000D02*
X117715000Y-120085000D01*
X148374000Y-124215000D02*
X148292000Y-124297000D01*
X138850000Y-92400000D02*
X138400000Y-92400000D01*
X138400000Y-92400000D02*
X138400000Y-92350000D01*
X136250000Y-124475000D02*
X133822000Y-124475000D01*
D90*
X139000000Y-91100000D02*
X139000000Y-84200000D01*
D87*
X118031000Y-111219000D02*
X118250000Y-111000000D01*
D92*
X138150000Y-92650000D02*
X138200000Y-92600000D01*
D88*
X88775125Y-77025125D02*
X87750000Y-76000000D01*
X144114000Y-111529000D02*
X144682000Y-112097000D01*
X62500000Y-145400000D02*
X63650000Y-144250000D01*
X77850000Y-77000000D02*
X77150000Y-77700000D01*
X106400000Y-111800000D02*
X102550000Y-111800000D01*
D92*
X139580000Y-92780000D02*
X139580000Y-93420000D01*
X138200000Y-92600000D02*
X139400000Y-92600000D01*
X137700000Y-91500000D02*
X138000000Y-91800000D01*
D91*
X128750000Y-110500000D02*
X128750000Y-109850000D01*
D88*
X101400000Y-118500500D02*
X102562500Y-118500500D01*
X118250000Y-111000000D02*
X117550000Y-111700000D01*
X117715000Y-120085000D02*
X117690000Y-120110000D01*
D92*
X139400000Y-92600000D02*
X139400000Y-92100000D01*
X139400000Y-92600000D02*
X139580000Y-92780000D01*
D88*
X101325000Y-110575000D02*
X101325000Y-109362500D01*
D90*
X139250000Y-83250000D02*
X139250000Y-83950000D01*
D89*
X79526700Y-62430000D02*
X80640000Y-63543300D01*
X79200000Y-75200000D02*
X80640000Y-73760000D01*
D94*
X146000000Y-95000000D02*
X146000000Y-94750000D01*
D93*
X89000000Y-79250000D02*
X89500000Y-79750000D01*
X139750000Y-96500000D02*
X138550000Y-96500000D01*
D94*
X145750000Y-93000000D02*
X145000000Y-93750000D01*
D91*
X106800000Y-53800000D02*
X106200000Y-53800000D01*
D93*
X106000000Y-53800000D02*
X106000000Y-55325500D01*
X134500000Y-135000000D02*
X135139000Y-135639000D01*
D91*
X152100000Y-54196000D02*
X151151000Y-55145000D01*
D93*
X150872000Y-136122000D02*
X151500000Y-136750000D01*
D91*
X146000000Y-94000000D02*
X145000000Y-95000000D01*
X152100000Y-53900000D02*
X152100000Y-54196000D01*
D94*
X146000000Y-94750000D02*
X145000000Y-93750000D01*
D92*
X138150000Y-96500000D02*
X138550000Y-96500000D01*
D93*
X134336000Y-135639000D02*
X133771000Y-135074000D01*
X135139000Y-135639000D02*
X134336000Y-135639000D01*
D89*
X74200000Y-77400000D02*
X74200000Y-75926103D01*
X74926103Y-75200000D02*
X79200000Y-75200000D01*
D91*
X107000000Y-53600000D02*
X107000000Y-54000000D01*
X66254000Y-58996000D02*
X67750000Y-57500000D01*
X67750000Y-52000000D02*
X66288000Y-50538000D01*
D94*
X146000000Y-94000000D02*
X146000000Y-95000000D01*
D89*
X80640000Y-63543300D02*
X80640000Y-72615000D01*
D93*
X92352000Y-79750000D02*
X95011000Y-82409000D01*
X43250000Y-81500000D02*
X44250000Y-80500000D01*
D92*
X140150000Y-96500000D02*
X139750000Y-96500000D01*
D93*
X84000000Y-79000000D02*
X84600000Y-78400000D01*
X148711000Y-135366000D02*
X148292000Y-134947000D01*
X135997000Y-135639000D02*
X135139000Y-135639000D01*
X150872000Y-135366000D02*
X148711000Y-135366000D01*
D94*
X106800000Y-53800000D02*
X106000000Y-53800000D01*
D93*
X45062500Y-99750000D02*
X43250000Y-97937500D01*
X84600000Y-78400000D02*
X84600000Y-77800000D01*
D91*
X74200000Y-77400000D02*
X74375125Y-77400000D01*
X107000000Y-53000000D02*
X106000000Y-53000000D01*
D94*
X140550000Y-99250000D02*
X138950000Y-99250000D01*
D91*
X74375125Y-77400000D02*
X74675125Y-77700000D01*
X85700000Y-77700000D02*
X86050000Y-77700000D01*
D93*
X89500000Y-79750000D02*
X92352000Y-79750000D01*
D94*
X145750000Y-93750000D02*
X146000000Y-94000000D01*
D91*
X107300000Y-53300000D02*
X107000000Y-53600000D01*
D93*
X150872000Y-135366000D02*
X150872000Y-136122000D01*
D91*
X66288000Y-50538000D02*
X65016000Y-50538000D01*
X85600000Y-77800000D02*
X85700000Y-77700000D01*
X107000000Y-54000000D02*
X106800000Y-53800000D01*
D94*
X106000000Y-52200000D02*
X106000000Y-53800000D01*
D91*
X67750000Y-57500000D02*
X67750000Y-53500000D01*
D94*
X145750000Y-93000000D02*
X145750000Y-93750000D01*
D91*
X63781000Y-58996000D02*
X66254000Y-58996000D01*
D89*
X74200000Y-75926103D02*
X74926103Y-75200000D01*
D91*
X107300000Y-53300000D02*
X107000000Y-53000000D01*
D93*
X43250000Y-97937500D02*
X43250000Y-81500000D01*
D91*
X106000000Y-53000000D02*
X106000000Y-53800000D01*
D89*
X83800000Y-77800000D02*
X80640000Y-74640000D01*
X84600000Y-77800000D02*
X83800000Y-77800000D01*
D91*
X139500000Y-95000000D02*
X138950000Y-95550000D01*
D93*
X134500000Y-133500000D02*
X134500000Y-135000000D01*
D94*
X104366000Y-50977500D02*
X104777500Y-50977500D01*
D89*
X85600000Y-77800000D02*
X84600000Y-77800000D01*
D91*
X138950000Y-95550000D02*
X138950000Y-96500000D01*
D93*
X106000000Y-55325500D02*
X105936000Y-55389500D01*
D94*
X139000000Y-97750000D02*
X139000000Y-96150000D01*
D91*
X145000000Y-95000000D02*
X139500000Y-95000000D01*
D94*
X138950000Y-97550000D02*
X139000000Y-97500000D01*
D93*
X71100000Y-80500000D02*
X74200000Y-77400000D01*
D89*
X80640000Y-72615000D02*
X80640000Y-73760000D01*
D93*
X44250000Y-80500000D02*
X71100000Y-80500000D01*
D94*
X138950000Y-99250000D02*
X138950000Y-97550000D01*
D89*
X80640000Y-74640000D02*
X80640000Y-73760000D01*
D94*
X104777500Y-50977500D02*
X106000000Y-52200000D01*
D87*
X100000000Y-63500000D02*
X100000000Y-61665000D01*
X124525000Y-98750000D02*
X123500000Y-98750000D01*
X106500000Y-87000000D02*
X109100000Y-89600000D01*
X125750000Y-96500000D02*
X125750000Y-97525000D01*
X109100000Y-89600000D02*
X109500000Y-89600000D01*
X106500000Y-79300000D02*
X106500000Y-87000000D01*
X125750000Y-97525000D02*
X124525000Y-98750000D01*
X100000000Y-61665000D02*
X100047000Y-61618000D01*
X95400000Y-68200000D02*
X106500000Y-79300000D01*
X123500000Y-98750000D02*
X121250000Y-96500000D01*
X96500000Y-82000000D02*
X96500000Y-85000000D01*
X87000000Y-73500000D02*
X87000000Y-64293000D01*
X87000000Y-64293000D02*
X87621000Y-63672000D01*
X96500000Y-85000000D02*
X100000000Y-88500000D01*
X93100000Y-78600000D02*
X96500000Y-82000000D01*
X100000000Y-88500000D02*
X105000000Y-88500000D01*
X124804520Y-99170480D02*
X126150000Y-97825000D01*
X92300000Y-78600000D02*
X93100000Y-78600000D01*
X126150000Y-97825000D02*
X126150000Y-96500000D01*
X120678116Y-97000000D02*
X122848596Y-99170480D01*
X120300000Y-97000000D02*
X120678116Y-97000000D01*
X122848596Y-99170480D02*
X124804520Y-99170480D01*
D92*
X106200000Y-44400000D02*
X106200000Y-45100000D01*
X110420000Y-46018000D02*
X110420000Y-45320000D01*
X110420000Y-45320000D02*
X110200000Y-45100000D01*
X110200000Y-45100000D02*
X110200000Y-44100000D01*
D93*
X104986000Y-56386000D02*
X106000000Y-57400000D01*
X109600000Y-56400000D02*
X109600000Y-55600000D01*
X108600000Y-57400000D02*
X109600000Y-56400000D01*
D92*
X105920000Y-45380000D02*
X105920000Y-46018000D01*
D88*
X104366000Y-48702500D02*
X104366000Y-48634000D01*
X104663500Y-49000000D02*
X104366000Y-48702500D01*
X105800000Y-47200000D02*
X105800000Y-46198000D01*
D92*
X106200000Y-45100000D02*
X105920000Y-45380000D01*
D88*
X104914500Y-53514500D02*
X104986000Y-53514500D01*
D93*
X109600000Y-55600000D02*
X110052000Y-55148000D01*
D88*
X105000000Y-49000000D02*
X104663500Y-49000000D01*
D93*
X104986000Y-53514500D02*
X104986000Y-56386000D01*
D92*
X110200000Y-44100000D02*
X109800000Y-43700000D01*
D88*
X104366000Y-48634000D02*
X105800000Y-47200000D01*
D93*
X110052000Y-55148000D02*
X110573000Y-55148000D01*
X106000000Y-57400000D02*
X108600000Y-57400000D01*
D88*
X104400000Y-53000000D02*
X104914500Y-53514500D01*
D92*
X109800000Y-43700000D02*
X106900000Y-43700000D01*
X106900000Y-43700000D02*
X106200000Y-44400000D01*
D87*
X114600000Y-54600000D02*
X114000000Y-55200000D01*
X112233000Y-56726000D02*
X112233000Y-55158000D01*
X114600000Y-54600000D02*
X112771000Y-54600000D01*
X122120000Y-61750000D02*
X122950000Y-62580000D01*
X118000000Y-61750000D02*
X122120000Y-61750000D01*
X112771000Y-54600000D02*
X112223000Y-55148000D01*
X112233000Y-55158000D02*
X112223000Y-55148000D01*
X112848550Y-52262001D02*
X114062001Y-52262001D01*
X114000000Y-57750000D02*
X118000000Y-61750000D01*
X114062001Y-52262001D02*
X114200000Y-52400000D01*
X114000000Y-55200000D02*
X114000000Y-57750000D01*
D88*
X148351000Y-53118000D02*
X148727000Y-52742000D01*
D87*
X144960000Y-48849000D02*
X144960000Y-51560000D01*
X148727000Y-54769000D02*
X148351000Y-55145000D01*
D88*
X144960000Y-51560000D02*
X144960000Y-52260000D01*
X145442000Y-52742000D02*
X148727000Y-52742000D01*
X148351000Y-55145000D02*
X148351000Y-53118000D01*
X144960000Y-52260000D02*
X145442000Y-52742000D01*
X92330000Y-59470000D02*
X92330000Y-57966000D01*
X90466000Y-61334000D02*
X92330000Y-59470000D01*
X90337000Y-61334000D02*
X90466000Y-61334000D01*
D87*
X145000000Y-98000000D02*
X142000000Y-98000000D01*
X141350000Y-97350000D02*
X141350000Y-96500000D01*
X146250000Y-99250000D02*
X145000000Y-98000000D01*
X142000000Y-98000000D02*
X141350000Y-97350000D01*
X102000000Y-79250000D02*
X102000000Y-82000000D01*
D92*
X147250000Y-95500000D02*
X147250000Y-89000000D01*
D87*
X146250000Y-82000000D02*
X146250000Y-88000000D01*
D92*
X144024520Y-95774520D02*
X144250000Y-96000000D01*
D87*
X94250000Y-88195000D02*
X94250000Y-87000000D01*
D92*
X146750000Y-96000000D02*
X147250000Y-95500000D01*
D87*
X102250000Y-79000000D02*
X102000000Y-79250000D01*
X139000000Y-74750000D02*
X146250000Y-82000000D01*
D92*
X141750000Y-96500000D02*
X141750000Y-95900000D01*
D87*
X102250000Y-76250000D02*
X102250000Y-79000000D01*
X121500000Y-74750000D02*
X139000000Y-74750000D01*
D92*
X141875480Y-95774520D02*
X144024520Y-95774520D01*
D87*
X93153000Y-88767000D02*
X93678000Y-88767000D01*
D92*
X144250000Y-96000000D02*
X146750000Y-96000000D01*
X147250000Y-89000000D02*
X146250000Y-88000000D01*
D87*
X93678000Y-88767000D02*
X94250000Y-88195000D01*
X101000000Y-75000000D02*
X102250000Y-76250000D01*
D92*
X141750000Y-95900000D02*
X141875480Y-95774520D01*
D87*
X128150892Y-93419108D02*
X128150892Y-91350892D01*
X128150000Y-93420000D02*
X128150892Y-93419108D01*
X120500000Y-103250000D02*
X119500000Y-104250000D01*
X42650000Y-135350000D02*
X42650000Y-135750000D01*
X128150892Y-91350892D02*
X127900000Y-91100000D01*
X120500000Y-100750000D02*
X120500000Y-103250000D01*
X121293200Y-59175000D02*
X123775001Y-61656801D01*
X115400000Y-56000000D02*
X115400000Y-56481801D01*
X123775001Y-62554999D02*
X123750000Y-62580000D01*
X123775001Y-61656801D02*
X123775001Y-62554999D01*
X112886549Y-50800000D02*
X112848550Y-50762001D01*
X114200000Y-50800000D02*
X112886549Y-50800000D01*
X118093199Y-59175000D02*
X121293200Y-59175000D01*
X115400000Y-56481801D02*
X118093199Y-59175000D01*
X123324999Y-62554999D02*
X123350000Y-62580000D01*
X123324999Y-61843199D02*
X123324999Y-62554999D01*
X114881801Y-56600000D02*
X117906801Y-59625000D01*
X114752512Y-56600000D02*
X114881801Y-56600000D01*
X121106800Y-59625000D02*
X123324999Y-61843199D01*
X117906801Y-59625000D02*
X121106800Y-59625000D01*
X108200000Y-49600000D02*
X108200000Y-50020349D01*
X108200000Y-50020349D02*
X108441650Y-50261999D01*
D92*
X91750000Y-69500000D02*
X91750000Y-70238000D01*
X106750000Y-72000000D02*
X124925000Y-90175000D01*
X124925000Y-90175000D02*
X128075000Y-90175000D01*
X129350000Y-91450000D02*
X129350000Y-93420000D01*
D87*
X90701500Y-70369000D02*
X90460000Y-70610500D01*
X91881000Y-70369000D02*
X90701500Y-70369000D01*
D92*
X91750000Y-70238000D02*
X91881000Y-70369000D01*
D87*
X93059000Y-70369000D02*
X91881000Y-70369000D01*
D92*
X106750000Y-69750000D02*
X106750000Y-72000000D01*
X128075000Y-90175000D02*
X129350000Y-91450000D01*
X118750000Y-79000000D02*
X118500000Y-79000000D01*
X93691000Y-83059000D02*
X93750000Y-83000000D01*
X140950000Y-83501110D02*
X136448890Y-79000000D01*
X93111000Y-83059000D02*
X93691000Y-83059000D01*
X140950000Y-93420000D02*
X140950000Y-83501110D01*
X136448890Y-79000000D02*
X118750000Y-79000000D01*
D87*
X90500000Y-103700000D02*
X90600000Y-103600000D01*
X53000000Y-102750000D02*
X46937500Y-102750000D01*
X90500000Y-104500000D02*
X90500000Y-103700000D01*
X89200000Y-108800000D02*
X59050000Y-108800000D01*
X90600000Y-103600000D02*
X90600000Y-93829000D01*
X59050000Y-108800000D02*
X53000000Y-102750000D01*
X90600000Y-93829000D02*
X93206000Y-91223000D01*
X89750000Y-108250000D02*
X89200000Y-108800000D01*
X152000000Y-127250000D02*
X152000000Y-125870000D01*
X153419000Y-124451000D02*
X152302000Y-123334000D01*
X150745000Y-128505000D02*
X152000000Y-127250000D01*
X152000000Y-125870000D02*
X153419000Y-124451000D01*
X150745000Y-129019000D02*
X150745000Y-128505000D01*
X152302000Y-123334000D02*
X152302000Y-121397000D01*
D92*
X132900000Y-94900000D02*
X132800000Y-94900000D01*
D87*
X118225000Y-103637500D02*
X118225000Y-101593500D01*
D92*
X132150000Y-94250000D02*
X132150000Y-93420000D01*
D87*
X118225000Y-101593500D02*
X117714500Y-101083000D01*
D92*
X132800000Y-94900000D02*
X132150000Y-94250000D01*
X118750000Y-101250000D02*
X117794000Y-101250000D01*
X117794000Y-101250000D02*
X117627000Y-101083000D01*
X116000000Y-95500000D02*
X116000000Y-94600000D01*
X111900000Y-99600000D02*
X116000000Y-95500000D01*
X111900000Y-100800000D02*
X111900000Y-99600000D01*
D87*
X105250000Y-101750000D02*
X105250000Y-101678000D01*
X127299511Y-94019511D02*
X127069022Y-94250000D01*
X127069022Y-94250000D02*
X125000000Y-94250000D01*
X105225000Y-101775000D02*
X105250000Y-101750000D01*
X127350000Y-93420000D02*
X127350000Y-93699511D01*
X127350000Y-93699511D02*
X127299511Y-93750000D01*
X127299511Y-93750000D02*
X127299511Y-94019511D01*
D92*
X105250000Y-101750000D02*
X105750000Y-101750000D01*
D87*
X105250000Y-101678000D02*
X104839000Y-101267000D01*
X105225000Y-103637500D02*
X105225000Y-101775000D01*
X97000000Y-117800000D02*
X88800000Y-109600000D01*
X108800000Y-116000000D02*
X104400000Y-116000000D01*
X145000000Y-97000000D02*
X144000000Y-97000000D01*
X144000000Y-97000000D02*
X143500000Y-96500000D01*
X55421000Y-106171000D02*
X50524000Y-106171000D01*
X88800000Y-109600000D02*
X58850000Y-109600000D01*
X104400000Y-116000000D02*
X103000000Y-117400000D01*
X103000000Y-117400000D02*
X100200000Y-117400000D01*
X58850000Y-109600000D02*
X55421000Y-106171000D01*
D92*
X142550000Y-96500000D02*
X143500000Y-96500000D01*
D87*
X100200000Y-117400000D02*
X99800000Y-117800000D01*
X99800000Y-117800000D02*
X97000000Y-117800000D01*
X153572000Y-122572000D02*
X153572000Y-121397000D01*
X154248511Y-125680511D02*
X154248511Y-123248511D01*
X155119000Y-128539000D02*
X155119000Y-126651000D01*
X155119000Y-126651000D02*
X155119000Y-126551000D01*
X155119000Y-126551000D02*
X154248511Y-125680511D01*
X154248511Y-123248511D02*
X153572000Y-122572000D01*
X154731000Y-128927000D02*
X155119000Y-128539000D01*
X138469000Y-124281000D02*
X139100000Y-124281000D01*
X137750000Y-125000000D02*
X138469000Y-124281000D01*
X137750000Y-127000000D02*
X137750000Y-125000000D01*
X136353000Y-129269000D02*
X136353000Y-128397000D01*
X139100000Y-124281000D02*
X137829000Y-123010000D01*
X136353000Y-129269000D02*
X136731000Y-129269000D01*
X137829000Y-123010000D02*
X137829000Y-121401000D01*
X138881000Y-124500000D02*
X139100000Y-124281000D01*
X136353000Y-128397000D02*
X137750000Y-127000000D01*
X140800000Y-128354000D02*
X140360000Y-128794000D01*
X139950489Y-123150489D02*
X139099000Y-122299000D01*
X140800000Y-126481000D02*
X139950489Y-125631489D01*
X139950489Y-125631489D02*
X139950489Y-123150489D01*
X139099000Y-122299000D02*
X139099000Y-121401000D01*
X140800000Y-126481000D02*
X140800000Y-128354000D01*
X115150000Y-118850000D02*
X115100000Y-118800000D01*
X126200000Y-92400000D02*
X126550000Y-92750000D01*
X121250000Y-101250000D02*
X121250000Y-103500000D01*
X114400000Y-118800000D02*
X111800000Y-121400000D01*
X121250000Y-103500000D02*
X120750000Y-104000000D01*
X115100000Y-118800000D02*
X114400000Y-118800000D01*
X111800000Y-121400000D02*
X111800000Y-123000000D01*
X126550000Y-92750000D02*
X126550000Y-93420000D01*
X117200000Y-105500000D02*
X115625000Y-107075000D01*
X125400000Y-100850000D02*
X120750000Y-105500000D01*
X132550000Y-93420000D02*
X132550000Y-91050000D01*
X125675000Y-100850000D02*
X125400000Y-100850000D01*
X120750000Y-105500000D02*
X117200000Y-105500000D01*
X115625000Y-107075000D02*
X115625000Y-109362500D01*
X132550000Y-91050000D02*
X132250000Y-90750000D01*
X143960000Y-61170000D02*
X142550000Y-62580000D01*
X143960000Y-48849000D02*
X143960000Y-61170000D01*
X143460000Y-58590000D02*
X142550000Y-59500000D01*
X143460000Y-48849000D02*
X143460000Y-58590000D01*
X133350000Y-62580000D02*
X133350000Y-63250000D01*
X145600000Y-51400000D02*
X145460000Y-51260000D01*
X145460000Y-51260000D02*
X145460000Y-48849000D01*
X133350000Y-63250000D02*
X133100000Y-63500000D01*
X136824276Y-54074276D02*
X136824276Y-53825000D01*
X137175000Y-53225000D02*
X137175000Y-52893200D01*
X137175000Y-55206800D02*
X137175000Y-54425000D01*
X137175000Y-53474276D02*
X137175000Y-53225000D01*
X136550000Y-59500000D02*
X136524999Y-59474999D01*
X136735000Y-52453200D02*
X137175000Y-52893200D01*
X136460000Y-50799001D02*
X136735000Y-51074001D01*
X136524999Y-59474999D02*
X136524999Y-55856801D01*
X136735000Y-51074001D02*
X136735000Y-52453200D01*
X136460000Y-48849000D02*
X136460000Y-50799001D01*
X137140900Y-52859100D02*
X137175000Y-52893200D01*
X136524999Y-55856801D02*
X137175000Y-55206800D01*
X136999638Y-53649638D02*
G75*
G03*
X136824276Y-53825000I-1J-175361D01*
G01*
X136824276Y-54074276D02*
G75*
G03*
X136999638Y-54249638I175361J-1D01*
G01*
X136999638Y-54249638D02*
G75*
G02*
X137175000Y-54425000I1J-175361D01*
G01*
X137175000Y-53474276D02*
G75*
G02*
X136999638Y-53649638I-175361J-1D01*
G01*
X137460000Y-48849000D02*
X137460000Y-50799001D01*
X137460000Y-50799001D02*
X137185000Y-51074001D01*
X137185000Y-52266800D02*
X137625000Y-52706800D01*
X137185000Y-51074001D02*
X137185000Y-52266800D01*
X137459100Y-52540900D02*
X137625000Y-52706800D01*
X136975001Y-56043199D02*
X136975001Y-59474999D01*
X137625000Y-55393200D02*
X136975001Y-56043199D01*
X137625000Y-52706800D02*
X137625000Y-55393200D01*
X136975001Y-59474999D02*
X136950000Y-59500000D01*
X137724999Y-59474999D02*
X137724999Y-57206801D01*
X137960000Y-50799001D02*
X137960000Y-48849000D01*
X137750000Y-59500000D02*
X137724999Y-59474999D01*
X138235000Y-56696800D02*
X138235000Y-51074001D01*
X138235000Y-51074001D02*
X137960000Y-50799001D01*
X137724999Y-57206801D02*
X138235000Y-56696800D01*
X138150000Y-59500000D02*
X138175001Y-59474999D01*
X138685000Y-56883200D02*
X138685000Y-51074001D01*
X138175001Y-59474999D02*
X138175001Y-57393199D01*
X138175001Y-57393199D02*
X138685000Y-56883200D01*
X138960000Y-50799001D02*
X138960000Y-48849000D01*
X138685000Y-51074001D02*
X138960000Y-50799001D01*
X139735000Y-57196800D02*
X139735000Y-51074001D01*
X139735000Y-51074001D02*
X139460000Y-50799001D01*
X139460000Y-50799001D02*
X139460000Y-48849000D01*
X138950000Y-59500000D02*
X138924999Y-59474999D01*
X138924999Y-59474999D02*
X138924999Y-58006801D01*
X138924999Y-58006801D02*
X139735000Y-57196800D01*
X139375001Y-58193199D02*
X140185000Y-57383200D01*
X140185000Y-51074001D02*
X140460000Y-50799001D01*
X140460000Y-50799001D02*
X140460000Y-48849000D01*
X139350000Y-59500000D02*
X139375001Y-59474999D01*
X139375001Y-59474999D02*
X139375001Y-58193199D01*
X140185000Y-57383200D02*
X140185000Y-51074001D01*
X141235000Y-57446800D02*
X141235000Y-51074001D01*
X141235000Y-51074001D02*
X140960000Y-50799001D01*
X140150000Y-59500000D02*
X140124999Y-59474999D01*
X140960000Y-50799001D02*
X140960000Y-48849000D01*
X140124999Y-59474999D02*
X140124999Y-58556801D01*
X140124999Y-58556801D02*
X141235000Y-57446800D01*
X140575001Y-59474999D02*
X140575001Y-58743199D01*
X140550000Y-59500000D02*
X140575001Y-59474999D01*
X141685000Y-57633200D02*
X141685000Y-51074001D01*
X141960000Y-50799001D02*
X141960000Y-48849000D01*
X141685000Y-51074001D02*
X141960000Y-50799001D01*
X140575001Y-58743199D02*
X141685000Y-57633200D01*
X142460000Y-53760000D02*
X142460000Y-48849000D01*
X142600000Y-53900000D02*
X142460000Y-53760000D01*
X132950000Y-61550000D02*
X132900000Y-61500000D01*
X132950000Y-62580000D02*
X132950000Y-61550000D01*
D92*
X49925000Y-99750000D02*
X46937500Y-99750000D01*
X51250000Y-98425000D02*
X49925000Y-99750000D01*
X51250000Y-97000000D02*
X51250000Y-98425000D01*
X99600000Y-92000000D02*
X99600000Y-90390000D01*
X99600000Y-90390000D02*
X94750000Y-85540000D01*
X94856000Y-89614000D02*
X95053000Y-89417000D01*
X94856000Y-91223000D02*
X94856000Y-89614000D01*
D87*
X95250000Y-44701000D02*
X95775000Y-44176000D01*
X95250000Y-51500000D02*
X95250000Y-44701000D01*
X98397000Y-61618000D02*
X98397000Y-54647000D01*
X98397000Y-54647000D02*
X95250000Y-51500000D01*
X85750000Y-54500000D02*
X85750000Y-63451000D01*
X88500000Y-48000000D02*
X88500000Y-51750000D01*
X88500000Y-51750000D02*
X85750000Y-54500000D01*
X85750000Y-63451000D02*
X85971000Y-63672000D01*
X87605000Y-47105000D02*
X88500000Y-48000000D01*
X87605000Y-44176000D02*
X87605000Y-47105000D01*
D92*
X106420000Y-48363000D02*
X106282000Y-48501000D01*
X106420000Y-46018000D02*
X106420000Y-48363000D01*
X108100000Y-44600000D02*
X108013000Y-44600000D01*
D87*
X108420000Y-45155499D02*
X108420000Y-46018000D01*
X111167024Y-51262000D02*
X110552512Y-50647488D01*
D92*
X107420000Y-45193000D02*
X107420000Y-46018000D01*
X108013000Y-44600000D02*
X107420000Y-45193000D01*
D87*
X108445000Y-45130499D02*
X108420000Y-45155499D01*
X108100000Y-44600000D02*
X108445000Y-44945000D01*
X112848550Y-51262000D02*
X111167024Y-51262000D01*
X108445000Y-44945000D02*
X108445000Y-45130499D01*
X110300000Y-49900000D02*
X109437999Y-50762001D01*
D92*
X108600000Y-47400000D02*
X108920000Y-47080000D01*
D87*
X108895000Y-45130499D02*
X108920000Y-45155499D01*
D92*
X107920000Y-47120000D02*
X108200000Y-47400000D01*
D87*
X108895000Y-45005000D02*
X108895000Y-45130499D01*
X109300000Y-44600000D02*
X108895000Y-45005000D01*
X111100000Y-49900000D02*
X110300000Y-49900000D01*
D92*
X108200000Y-47400000D02*
X108600000Y-47400000D01*
X107920000Y-46018000D02*
X107920000Y-47120000D01*
D87*
X109437999Y-50762001D02*
X108441650Y-50762001D01*
D92*
X108920000Y-47080000D02*
X108920000Y-46018000D01*
D87*
X108920000Y-45155499D02*
X108920000Y-46018000D01*
D92*
X109420000Y-46018000D02*
X109420000Y-47576000D01*
X109420000Y-47576000D02*
X110047000Y-48203000D01*
D88*
X103416000Y-54769500D02*
X104036000Y-55389500D01*
X103416000Y-50977500D02*
X103416000Y-54769500D01*
D92*
X101011000Y-94489000D02*
X94475000Y-94489000D01*
X122150000Y-99750000D02*
X113650000Y-91250000D01*
X104250000Y-91250000D02*
X101011000Y-94489000D01*
X122750000Y-99750000D02*
X122150000Y-99750000D01*
X93990000Y-94974000D02*
X94475000Y-94489000D01*
D87*
X126950000Y-97750000D02*
X124950000Y-99750000D01*
X126950000Y-96500000D02*
X126950000Y-97750000D01*
D92*
X113650000Y-91250000D02*
X104250000Y-91250000D01*
D87*
X124950000Y-99750000D02*
X122750000Y-99750000D01*
D92*
X93990000Y-97579000D02*
X93990000Y-94974000D01*
D87*
X121609000Y-114529000D02*
X121609000Y-119412500D01*
X121609000Y-119412500D02*
X121430000Y-119591500D01*
X131240000Y-109512000D02*
X131240000Y-111862000D01*
X131240000Y-111862000D02*
X131479000Y-112101000D01*
D88*
X71750000Y-141050000D02*
X74651520Y-143951520D01*
X136685480Y-143951520D02*
X138130000Y-142507000D01*
X74651520Y-143951520D02*
X136685480Y-143951520D01*
D87*
X124975001Y-93394999D02*
X124975001Y-92056801D01*
X96038000Y-62235000D02*
X96038000Y-61962000D01*
X124950000Y-93420000D02*
X124975001Y-93394999D01*
X96038000Y-61962000D02*
X96200000Y-61800000D01*
X96038000Y-63119800D02*
X96038000Y-62235000D01*
X124975001Y-92056801D02*
X96038000Y-63119800D01*
X124550000Y-93420000D02*
X124524999Y-93394999D01*
X124524999Y-93394999D02*
X124524999Y-92243199D01*
X96038000Y-64135000D02*
X96038000Y-64638000D01*
X124524999Y-92243199D02*
X96416800Y-64135000D01*
X96038000Y-64638000D02*
X96200000Y-64800000D01*
X96416800Y-64135000D02*
X96038000Y-64135000D01*
X95306800Y-66825000D02*
X93840900Y-65359100D01*
X123775001Y-93445001D02*
X123775001Y-94543199D01*
X94235000Y-62235000D02*
X94738000Y-62235000D01*
X94200000Y-62200000D02*
X94235000Y-62235000D01*
X96706800Y-66825000D02*
X95306800Y-66825000D01*
X93840900Y-63132100D02*
X94738000Y-62235000D01*
X121982207Y-95050407D02*
X120775000Y-93843200D01*
X123775001Y-94543199D02*
X123267793Y-95050407D01*
X123267793Y-95050407D02*
X121982207Y-95050407D01*
X120775000Y-90893200D02*
X96706800Y-66825000D01*
X120775000Y-93843200D02*
X120775000Y-90893200D01*
X123750000Y-93420000D02*
X123775001Y-93445001D01*
X93840900Y-65359100D02*
X93840900Y-63132100D01*
X123081393Y-94600407D02*
X122168607Y-94600407D01*
X94738000Y-65619800D02*
X94738000Y-64135000D01*
X123324999Y-93445001D02*
X123324999Y-94356801D01*
X96893200Y-66375000D02*
X95493200Y-66375000D01*
X94738000Y-64135000D02*
X94738000Y-63738000D01*
X122168607Y-94600407D02*
X121225000Y-93656800D01*
X123324999Y-94356801D02*
X123081393Y-94600407D01*
X121225000Y-93656800D02*
X121225000Y-90706800D01*
X94738000Y-63738000D02*
X94600000Y-63600000D01*
X123350000Y-93420000D02*
X123324999Y-93445001D01*
X121225000Y-90706800D02*
X96893200Y-66375000D01*
X95493200Y-66375000D02*
X94738000Y-65619800D01*
X110475000Y-52893200D02*
X110475000Y-51875000D01*
X124500000Y-51210000D02*
X122085000Y-53625000D01*
X122085000Y-53625000D02*
X119925000Y-53625000D01*
X118725000Y-53625000D02*
X111206800Y-53625000D01*
X111206800Y-53625000D02*
X110475000Y-52893200D01*
X119531268Y-54018732D02*
X119325000Y-54018732D01*
X109862000Y-51262000D02*
X108441650Y-51262000D01*
X118931268Y-53625000D02*
X118725000Y-53625000D01*
X110475000Y-51875000D02*
X109862000Y-51262000D01*
X118931268Y-53625000D02*
G75*
G02*
X119128134Y-53821866I-1J-196867D01*
G01*
X119728134Y-53821866D02*
G75*
G02*
X119925000Y-53625000I196867J-1D01*
G01*
X119128134Y-53821866D02*
G75*
G03*
X119325000Y-54018732I196867J1D01*
G01*
X119531268Y-54018732D02*
G75*
G03*
X119728134Y-53821866I-1J196867D01*
G01*
X111238001Y-51761999D02*
X112848550Y-51761999D01*
X110925000Y-52706800D02*
X110925000Y-52075000D01*
X114925000Y-53175000D02*
X113746114Y-53175000D01*
X116425000Y-52875000D02*
X116425000Y-53225000D01*
X121898603Y-53175000D02*
X117325000Y-53175000D01*
X115825000Y-53175000D02*
X115825000Y-52611206D01*
X122500000Y-52573603D02*
X121898603Y-53175000D01*
X115825000Y-53225000D02*
X115825000Y-53175000D01*
X117025000Y-52875000D02*
X117025000Y-52611206D01*
X115225000Y-52611206D02*
X115225000Y-52875000D01*
X122500000Y-51210000D02*
X122500000Y-52573603D01*
X116375000Y-53275000D02*
X115875000Y-53275000D01*
X110925000Y-52075000D02*
X111238001Y-51761999D01*
X111393200Y-53175000D02*
X110925000Y-52706800D01*
X113746114Y-53175000D02*
X111393200Y-53175000D01*
X116425000Y-52611206D02*
X116425000Y-52875000D01*
X116375000Y-53275000D02*
G75*
G03*
X116425000Y-53225000I-1J50001D01*
G01*
X116725000Y-52311206D02*
G75*
G02*
X117025000Y-52611206I0J-300000D01*
G01*
X115225000Y-52611206D02*
G75*
G02*
X115525000Y-52311206I300000J0D01*
G01*
X115825000Y-53225000D02*
G75*
G03*
X115875000Y-53275000I50001J1D01*
G01*
X117025000Y-52875000D02*
G75*
G03*
X117325000Y-53175000I300000J0D01*
G01*
X116425000Y-52611206D02*
G75*
G02*
X116725000Y-52311206I300000J0D01*
G01*
X114925000Y-53175000D02*
G75*
G03*
X115225000Y-52875000I0J300000D01*
G01*
X115525000Y-52311206D02*
G75*
G02*
X115825000Y-52611206I0J-300000D01*
G01*
D92*
X92000000Y-95000000D02*
X92511000Y-94489000D01*
X47937500Y-95750000D02*
X46937500Y-96750000D01*
X92511000Y-94489000D02*
X92825000Y-94489000D01*
X48250000Y-95750000D02*
X47937500Y-95750000D01*
D87*
X46400000Y-101600000D02*
X49300000Y-101600000D01*
X46000000Y-104095000D02*
X46000000Y-102000000D01*
X49300000Y-101600000D02*
X54700000Y-96200000D01*
X92500000Y-84500000D02*
X92000000Y-85000000D01*
X94220000Y-84500000D02*
X92500000Y-84500000D01*
X54700000Y-96200000D02*
X68550000Y-96200000D01*
X46000000Y-102000000D02*
X46400000Y-101600000D01*
X43124000Y-106171000D02*
X43924000Y-106171000D01*
X95011000Y-83709000D02*
X94220000Y-84500000D01*
X68550000Y-96200000D02*
X74000000Y-90750000D01*
X43924000Y-106171000D02*
X46000000Y-104095000D01*
X74000000Y-90750000D02*
X74000000Y-85000000D01*
X92000000Y-85000000D02*
X88750000Y-85000000D01*
X147222000Y-112388722D02*
X147222000Y-112097000D01*
X129900000Y-101600000D02*
X130150000Y-101350000D01*
X141000000Y-110750000D02*
X143621520Y-113371520D01*
X133700000Y-103700000D02*
X133700000Y-103901391D01*
X140548609Y-110750000D02*
X141000000Y-110750000D01*
X146239202Y-113371520D02*
X147222000Y-112388722D01*
X130150000Y-101350000D02*
X130150000Y-96500000D01*
X133700000Y-103901391D02*
X140548609Y-110750000D01*
X143621520Y-113371520D02*
X146239202Y-113371520D01*
X129900000Y-104300000D02*
X129900000Y-101600000D01*
X132250000Y-104650000D02*
X136559000Y-108959000D01*
X149800000Y-116000000D02*
X137500000Y-116000000D01*
X151032000Y-112097000D02*
X151032000Y-114768000D01*
X130150000Y-93420000D02*
X130150000Y-94050000D01*
X136500000Y-112160000D02*
X136559000Y-112101000D01*
X132200000Y-100800000D02*
X132250000Y-100850000D01*
X136500000Y-113750000D02*
X136500000Y-112160000D01*
X151032000Y-114768000D02*
X149800000Y-116000000D01*
X130150000Y-94050000D02*
X129600000Y-94600000D01*
X136559000Y-108959000D02*
X136559000Y-112101000D01*
X132250000Y-100850000D02*
X132250000Y-104650000D01*
X129600000Y-94600000D02*
X129600000Y-95000000D01*
X132749000Y-112101000D02*
X132749000Y-108149000D01*
X132749000Y-108149000D02*
X130550000Y-105950000D01*
X130550000Y-105950000D02*
X130550000Y-96500000D01*
X132750000Y-104150000D02*
X132750000Y-99500000D01*
X137829000Y-112101000D02*
X137829000Y-109229000D01*
X131650000Y-98400000D02*
X131400000Y-98400000D01*
X131400000Y-98400000D02*
X130950000Y-97950000D01*
X132750000Y-99500000D02*
X131650000Y-98400000D01*
X130950000Y-97950000D02*
X130950000Y-96500000D01*
X137829000Y-109229000D02*
X132750000Y-104150000D01*
X133079520Y-102179520D02*
X133079520Y-99179520D01*
X152302000Y-112097000D02*
X152302000Y-111802000D01*
X146750000Y-106250000D02*
X137150000Y-106250000D01*
X131750000Y-97850000D02*
X131750000Y-96500000D01*
X152302000Y-111802000D02*
X146750000Y-106250000D01*
X137150000Y-106250000D02*
X133079520Y-102179520D01*
X133079520Y-99179520D02*
X131750000Y-97850000D01*
X145764000Y-111909000D02*
X145952000Y-112097000D01*
X145764000Y-109512000D02*
X145764000Y-111909000D01*
X113945000Y-120570000D02*
X113945000Y-122350000D01*
X112740000Y-123120000D02*
X112740000Y-128740000D01*
X113490000Y-122370000D02*
X112740000Y-123120000D01*
X113945000Y-122350000D02*
X113925000Y-122370000D01*
X112740000Y-128740000D02*
X112800000Y-128800000D01*
X113925000Y-122370000D02*
X113490000Y-122370000D01*
X121430000Y-121466500D02*
X122884000Y-120012500D01*
X122884000Y-120012500D02*
X122884000Y-117894000D01*
X95635239Y-135170000D02*
X95010000Y-135170000D01*
X145781511Y-138145489D02*
X145781511Y-134976511D01*
X97009511Y-136544272D02*
X95635239Y-135170000D01*
X99200000Y-142200000D02*
X97009511Y-140009511D01*
X143660000Y-139800000D02*
X144100000Y-140240000D01*
X145781511Y-134976511D02*
X145752000Y-134947000D01*
X144782000Y-139145000D02*
X145781511Y-138145489D01*
X144100000Y-140240000D02*
X144100000Y-140735000D01*
X114850000Y-135170000D02*
X114850000Y-140750000D01*
X97009511Y-140009511D02*
X97009511Y-136544272D01*
X144282000Y-140553000D02*
X144100000Y-140735000D01*
X114850000Y-140750000D02*
X113400000Y-142200000D01*
X113400000Y-142200000D02*
X99200000Y-142200000D01*
X144282000Y-139145000D02*
X144782000Y-139145000D01*
X144282000Y-139145000D02*
X144282000Y-140553000D01*
X145985480Y-141364520D02*
X146350000Y-141000000D01*
X142590000Y-140307433D02*
X143647087Y-141364520D01*
X142590000Y-139680000D02*
X142590000Y-140307433D01*
X98800000Y-143000000D02*
X96030000Y-140230000D01*
X146182000Y-139145000D02*
X147022000Y-138305000D01*
X147022000Y-138305000D02*
X147022000Y-134947000D01*
X114000000Y-143000000D02*
X98800000Y-143000000D01*
X143647087Y-141364520D02*
X145985480Y-141364520D01*
X146350000Y-139313000D02*
X146182000Y-139145000D01*
X146350000Y-141000000D02*
X146350000Y-139313000D01*
X96030000Y-140230000D02*
X96030000Y-136950000D01*
X115870000Y-141130000D02*
X114000000Y-143000000D01*
X115870000Y-136950000D02*
X115870000Y-141130000D01*
X145752000Y-123752000D02*
X144682000Y-122682000D01*
X144682000Y-122682000D02*
X144682000Y-121397000D01*
X145752000Y-124297000D02*
X145752000Y-123752000D01*
X129800000Y-139273000D02*
X129795000Y-139268000D01*
X131231000Y-135074000D02*
X131231000Y-136031000D01*
X131600000Y-137800000D02*
X130132000Y-139268000D01*
X130132000Y-139268000D02*
X129795000Y-139268000D01*
X116890000Y-135170000D02*
X117889511Y-134170489D01*
X122570489Y-134170489D02*
X127668000Y-139268000D01*
X131231000Y-136031000D02*
X131600000Y-136400000D01*
X127668000Y-139268000D02*
X129795000Y-139268000D01*
X131600000Y-136400000D02*
X131600000Y-137800000D01*
X129800000Y-141025000D02*
X129800000Y-139273000D01*
X117889511Y-134170489D02*
X122570489Y-134170489D01*
X119950000Y-138550000D02*
X119950000Y-136950000D01*
X132501000Y-138462000D02*
X131695000Y-139268000D01*
X131695000Y-140795000D02*
X131695000Y-139268000D01*
X132100000Y-141200000D02*
X131000000Y-141200000D01*
X123200000Y-141800000D02*
X119950000Y-138550000D01*
X130400000Y-141800000D02*
X123200000Y-141800000D01*
X132100000Y-141200000D02*
X131695000Y-140795000D01*
X131000000Y-141200000D02*
X130400000Y-141800000D01*
X132501000Y-135074000D02*
X132501000Y-138462000D01*
X115742500Y-127582000D02*
X115757500Y-127597000D01*
X113579000Y-127582000D02*
X115742500Y-127582000D01*
D91*
X44300000Y-78700000D02*
X44500000Y-78500000D01*
X42040000Y-74000000D02*
X42000000Y-74040000D01*
D93*
X57400000Y-45600000D02*
X57398000Y-45602000D01*
D91*
X44500000Y-75500000D02*
X43000000Y-74000000D01*
X43000000Y-74000000D02*
X42040000Y-74000000D01*
X44500000Y-78500000D02*
X44500000Y-75500000D01*
D93*
X57398000Y-45602000D02*
X57398000Y-46713200D01*
D87*
X69750000Y-103960000D02*
X64519500Y-103960000D01*
X64519500Y-103960000D02*
X62488500Y-105991000D01*
X69750000Y-101420000D02*
X63241500Y-101420000D01*
X63241500Y-101420000D02*
X62488500Y-102173000D01*
X69750000Y-98880000D02*
X63019500Y-98880000D01*
X63019500Y-98880000D02*
X62488500Y-98349000D01*
D93*
X53855000Y-48880000D02*
X53855000Y-48334000D01*
X53836000Y-45076200D02*
X54285600Y-44626600D01*
X53836000Y-46602000D02*
X53836000Y-45076200D01*
X53836000Y-48015000D02*
X54155000Y-48334000D01*
X55167000Y-50192000D02*
X53855000Y-48880000D01*
X53836000Y-46602000D02*
X53836000Y-48015000D01*
D87*
X99915000Y-114969000D02*
X98273000Y-114969000D01*
X98548520Y-113839480D02*
X98548520Y-112651480D01*
X97846000Y-114542000D02*
X98548520Y-113839480D01*
X100025000Y-111175000D02*
X100025000Y-109362500D01*
X98548520Y-112651480D02*
X100025000Y-111175000D01*
X98273000Y-114969000D02*
X97846000Y-114542000D01*
X103943000Y-113394000D02*
X102240000Y-113394000D01*
X102115000Y-112615000D02*
X102115000Y-113269000D01*
X100675000Y-109362500D02*
X100675000Y-111175000D01*
X102240000Y-113394000D02*
X102115000Y-113269000D01*
X100675000Y-111175000D02*
X102115000Y-112615000D01*
X112352000Y-115221000D02*
X110617000Y-115221000D01*
X110617000Y-115221000D02*
X110066000Y-114670000D01*
X111000000Y-114000000D02*
X110330000Y-114670000D01*
X113025000Y-109362500D02*
X113025000Y-110475000D01*
X110330000Y-114670000D02*
X110066000Y-114670000D01*
X113025000Y-110475000D02*
X111000000Y-112500000D01*
X111000000Y-112500000D02*
X111000000Y-114000000D01*
X113675000Y-109362500D02*
X113675000Y-111769506D01*
X113675000Y-111769506D02*
X114552000Y-112646506D01*
X116412000Y-113453000D02*
X114620000Y-113453000D01*
X114620000Y-113453000D02*
X114552000Y-113521000D01*
X114552000Y-112646506D02*
X114552000Y-113521000D01*
X98748000Y-111252000D02*
X99375000Y-110625000D01*
X97824000Y-111252000D02*
X98748000Y-111252000D01*
X99375000Y-110625000D02*
X99375000Y-109362500D01*
X110524000Y-111000000D02*
X110022000Y-111502000D01*
X112375000Y-110325000D02*
X111700000Y-111000000D01*
X111700000Y-111000000D02*
X110524000Y-111000000D01*
X112375000Y-109362500D02*
X112375000Y-110325000D01*
X134000000Y-98900000D02*
X132550000Y-97450000D01*
X132550000Y-97450000D02*
X132550000Y-96500000D01*
X134000000Y-101300000D02*
X134000000Y-98900000D01*
X137000000Y-104300000D02*
X134000000Y-101300000D01*
X120250000Y-107750000D02*
X122500000Y-107750000D01*
X138250000Y-105000000D02*
X137550000Y-104300000D01*
X103208989Y-110500000D02*
X108750000Y-110500000D01*
X102625000Y-109362500D02*
X102625000Y-109916011D01*
X102625000Y-109916011D02*
X103208989Y-110500000D01*
X137550000Y-104300000D02*
X137000000Y-104300000D01*
X120000000Y-107500000D02*
X120250000Y-107750000D01*
D94*
X77750000Y-91500000D02*
X76000000Y-91500000D01*
X76000000Y-91500000D02*
X75850000Y-91650000D01*
X75850000Y-77700000D02*
X75850000Y-91650000D01*
X75850000Y-104600000D02*
X77750000Y-106500000D01*
X75850000Y-91650000D02*
X75850000Y-104600000D01*
X87475125Y-78524875D02*
X84000000Y-82000000D01*
X84000000Y-91500000D02*
X84000000Y-105000000D01*
X85500000Y-106500000D02*
X85750000Y-106500000D01*
X85750000Y-91500000D02*
X84000000Y-91500000D01*
X84000000Y-105000000D02*
X85500000Y-106500000D01*
X84000000Y-82000000D02*
X84000000Y-91500000D01*
X87475125Y-77700000D02*
X87475125Y-78524875D01*
D87*
X104575000Y-109362500D02*
X104575000Y-108425000D01*
X116900000Y-110900000D02*
X117575000Y-110225000D01*
X108750000Y-109500000D02*
X108750000Y-109750000D01*
X122500000Y-107000000D02*
X127750000Y-101750000D01*
X117575000Y-109362500D02*
X117575000Y-108325000D01*
X117575000Y-108325000D02*
X118900000Y-107000000D01*
X118900000Y-107000000D02*
X122500000Y-107000000D01*
X117575000Y-110225000D02*
X117575000Y-109362500D01*
X104575000Y-108425000D02*
X104750000Y-108250000D01*
X127750000Y-101750000D02*
X127750000Y-96500000D01*
X104750000Y-108250000D02*
X107500000Y-108250000D01*
X107500000Y-108250000D02*
X108750000Y-109500000D01*
X118700000Y-106500000D02*
X116925000Y-108275000D01*
X127100000Y-100975000D02*
X127100000Y-101775000D01*
X127750000Y-92650000D02*
X127750000Y-93420000D01*
X127600000Y-92500000D02*
X127750000Y-92650000D01*
X121750000Y-106500000D02*
X118700000Y-106500000D01*
X117000000Y-109287500D02*
X116925000Y-109362500D01*
X116925000Y-108275000D02*
X116925000Y-109362500D01*
X126875000Y-102000000D02*
X126250000Y-102000000D01*
X127100000Y-101775000D02*
X126875000Y-102000000D01*
X117000000Y-108000000D02*
X117000000Y-109287500D01*
X108775192Y-108087211D02*
X108437981Y-107750000D01*
X126250000Y-102000000D02*
X121750000Y-106500000D01*
X108437981Y-107750000D02*
X104250000Y-107750000D01*
X104250000Y-107750000D02*
X103925000Y-108075000D01*
X103925000Y-108075000D02*
X103925000Y-109362500D01*
X104283988Y-107250000D02*
X108500000Y-107250000D01*
X128150000Y-101150000D02*
X128150000Y-96500000D01*
X103275000Y-109362500D02*
X103275000Y-108258988D01*
X103275000Y-108258988D02*
X104283988Y-107250000D01*
X118100000Y-106000000D02*
X121500000Y-106000000D01*
X116275000Y-107825000D02*
X116275000Y-109362500D01*
X116900000Y-107200000D02*
X118100000Y-106000000D01*
X128250000Y-101250000D02*
X128150000Y-101150000D01*
X116900000Y-107200000D02*
X116275000Y-107825000D01*
X121500000Y-106000000D02*
X126000000Y-101500000D01*
X126000000Y-101500000D02*
X126500000Y-101500000D01*
X85392000Y-70403000D02*
X83180000Y-72615000D01*
X86309000Y-70403000D02*
X85392000Y-70403000D01*
X129400000Y-98600000D02*
X129400000Y-103800000D01*
X120450000Y-113258970D02*
X120450000Y-121175000D01*
X120450000Y-121175000D02*
X118605000Y-123020000D01*
X120188489Y-112997459D02*
X120450000Y-113258970D01*
X128550000Y-94200000D02*
X128500000Y-94250000D01*
X128550000Y-93420000D02*
X128550000Y-94200000D01*
X129400000Y-103800000D02*
X124211440Y-108988560D01*
X118605000Y-123020000D02*
X113925000Y-123020000D01*
X120188489Y-111311511D02*
X120188489Y-112997459D01*
X124211440Y-108988560D02*
X122511440Y-108988560D01*
X122511440Y-108988560D02*
X120188489Y-111311511D01*
X55000000Y-103500000D02*
X56539000Y-105039000D01*
D92*
X133350000Y-93420000D02*
X133350000Y-90850000D01*
D87*
X56539000Y-105039000D02*
X57074000Y-105039000D01*
D92*
X132000000Y-89500000D02*
X129500000Y-87000000D01*
X133350000Y-90850000D02*
X132000000Y-89500000D01*
X129500000Y-87000000D02*
X129250000Y-87000000D01*
D87*
X55000000Y-98050000D02*
X55000000Y-103500000D01*
X54750000Y-97800000D02*
X55000000Y-98050000D01*
X55750000Y-99910000D02*
X57074000Y-101234000D01*
D92*
X133750000Y-90250000D02*
X132625000Y-89125000D01*
X132625000Y-89125000D02*
X129750000Y-86250000D01*
D87*
X55875000Y-97275000D02*
X55750000Y-97400000D01*
D92*
X129750000Y-86250000D02*
X129250000Y-86250000D01*
D87*
X55750000Y-97400000D02*
X55750000Y-99910000D01*
D92*
X133750000Y-93420000D02*
X133750000Y-90250000D01*
X134150000Y-93420000D02*
X134150000Y-89650000D01*
X134150000Y-89650000D02*
X133000000Y-88500000D01*
D87*
X56625000Y-96905000D02*
X57147000Y-97427000D01*
D92*
X133000000Y-88500000D02*
X129500000Y-85000000D01*
D87*
X56625000Y-96700000D02*
X56625000Y-96905000D01*
X89510000Y-72485500D02*
X89510000Y-71954000D01*
X89510000Y-71954000D02*
X87959000Y-70403000D01*
D93*
X57067000Y-50192000D02*
X57492000Y-50192000D01*
X57492000Y-50192000D02*
X57500000Y-50200000D01*
D91*
X60698000Y-48872000D02*
X60698000Y-46713200D01*
D94*
X59700000Y-49900000D02*
X59400000Y-50200000D01*
D91*
X59700000Y-49900000D02*
X59700000Y-49870000D01*
D94*
X59400000Y-50200000D02*
X57500000Y-50200000D01*
D91*
X59700000Y-49870000D02*
X60698000Y-48872000D01*
D87*
X98075000Y-108808989D02*
X96675051Y-107409040D01*
X88550000Y-107250000D02*
X87500000Y-108300000D01*
X87500000Y-108300000D02*
X84000000Y-108300000D01*
X98075000Y-109362500D02*
X98075000Y-108808989D01*
X81000000Y-105300000D02*
X81000000Y-92210000D01*
X96675051Y-107409040D02*
X93909040Y-107409040D01*
X84000000Y-108300000D02*
X81000000Y-105300000D01*
X93750000Y-107250000D02*
X88550000Y-107250000D01*
X81000000Y-92210000D02*
X77750000Y-88960000D01*
X93909040Y-107409040D02*
X93750000Y-107250000D01*
X78720000Y-86420000D02*
X77750000Y-86420000D01*
X87100000Y-107700000D02*
X84600000Y-107700000D01*
X98725000Y-109362500D02*
X98725000Y-108808989D01*
X82250000Y-89950000D02*
X78720000Y-86420000D01*
X84600000Y-107700000D02*
X82250000Y-105350000D01*
X88050000Y-106750000D02*
X87100000Y-107700000D01*
X94329520Y-107079520D02*
X94000000Y-106750000D01*
X98725000Y-108808989D02*
X96995531Y-107079520D01*
X96995531Y-107079520D02*
X94329520Y-107079520D01*
X94000000Y-106750000D02*
X88050000Y-106750000D01*
X82250000Y-105350000D02*
X82250000Y-89950000D01*
X94250000Y-106000000D02*
X89500000Y-106000000D01*
X95000000Y-106750000D02*
X94250000Y-106000000D01*
X88600000Y-105100000D02*
X88600000Y-91810000D01*
X89500000Y-106000000D02*
X88600000Y-105100000D01*
X88600000Y-91810000D02*
X85750000Y-88960000D01*
X111075000Y-109362500D02*
X111075000Y-108808989D01*
X111075000Y-108808989D02*
X109016011Y-106750000D01*
X109016011Y-106750000D02*
X95000000Y-106750000D01*
X89500000Y-104750000D02*
X89500000Y-92243988D01*
X86670000Y-86420000D02*
X85750000Y-86420000D01*
X88000000Y-87750000D02*
X86670000Y-86420000D01*
X109000000Y-106000000D02*
X95000000Y-106000000D01*
X95000000Y-106000000D02*
X94500000Y-105500000D01*
X90250000Y-105500000D02*
X89500000Y-104750000D01*
X89500000Y-92243988D02*
X88000000Y-90743988D01*
X111725000Y-109362500D02*
X111725000Y-108725000D01*
X111725000Y-108725000D02*
X109000000Y-106000000D01*
X94500000Y-105500000D02*
X90250000Y-105500000D01*
X88000000Y-90743988D02*
X88000000Y-87750000D01*
X100000000Y-105500000D02*
X100025000Y-105475000D01*
X100025000Y-105475000D02*
X100025000Y-103637500D01*
X99375000Y-105125000D02*
X99000000Y-105500000D01*
X99375000Y-103637500D02*
X99375000Y-105125000D01*
X58726000Y-105041000D02*
X58724000Y-105039000D01*
X60613500Y-105041000D02*
X58726000Y-105041000D01*
X60613500Y-101223000D02*
X58735000Y-101223000D01*
X58735000Y-101223000D02*
X58724000Y-101234000D01*
X58825000Y-97399000D02*
X58797000Y-97427000D01*
X60613500Y-97399000D02*
X58825000Y-97399000D01*
X115825000Y-124825000D02*
X117632500Y-126632500D01*
X117800000Y-131000000D02*
X117632500Y-130832500D01*
X106900000Y-132200000D02*
X116600000Y-132200000D01*
X117632500Y-126632500D02*
X117632500Y-127597000D01*
X115825000Y-123670000D02*
X115825000Y-124825000D01*
X102150000Y-136950000D02*
X106900000Y-132200000D01*
X116600000Y-132200000D02*
X117800000Y-131000000D01*
X117632500Y-130832500D02*
X117632500Y-127597000D01*
X113000000Y-99900000D02*
X113025000Y-99925000D01*
X113025000Y-99925000D02*
X113025000Y-103637500D01*
X112375000Y-102675000D02*
X112375000Y-103637500D01*
X92000000Y-99500000D02*
X92300000Y-99800000D01*
X109500000Y-99800000D02*
X112375000Y-102675000D01*
X92300000Y-99800000D02*
X109500000Y-99800000D01*
X99900000Y-122250000D02*
X100267000Y-121883000D01*
X100267000Y-121883000D02*
X100267000Y-120603000D01*
X66683000Y-126067000D02*
X66080000Y-126067000D01*
X72500000Y-120250000D02*
X66683000Y-126067000D01*
X94187000Y-120603000D02*
X93834000Y-120250000D01*
X95187000Y-120603000D02*
X94187000Y-120603000D01*
X93834000Y-120250000D02*
X72500000Y-120250000D01*
X101537000Y-122337000D02*
X101537000Y-120603000D01*
X101600000Y-122400000D02*
X101537000Y-122337000D01*
X96457000Y-120603000D02*
X96457000Y-120744722D01*
X95451722Y-121750000D02*
X96457000Y-120744722D01*
X75477000Y-121750000D02*
X71160000Y-126067000D01*
X93922278Y-121750000D02*
X75477000Y-121750000D01*
X93922278Y-121750000D02*
X95451722Y-121750000D01*
X102807000Y-124393000D02*
X102807000Y-125753000D01*
X103000000Y-124200000D02*
X102807000Y-124393000D01*
X104077000Y-120773006D02*
X103122486Y-121727520D01*
X104077000Y-120603000D02*
X104077000Y-120432994D01*
X102491514Y-121727520D02*
X102100000Y-121336006D01*
X104077000Y-120603000D02*
X104077000Y-120773006D01*
X94750000Y-116500000D02*
X77373000Y-116500000D01*
X77373000Y-116500000D02*
X73700000Y-112827000D01*
X103122486Y-121727520D02*
X102491514Y-121727520D01*
X97500000Y-119250000D02*
X94750000Y-116500000D01*
X73700000Y-112827000D02*
X73700000Y-110827000D01*
X102100000Y-119754278D02*
X101595722Y-119250000D01*
X101595722Y-119250000D02*
X97500000Y-119250000D01*
X102100000Y-121336006D02*
X102100000Y-119754278D01*
X101537000Y-124463000D02*
X101537000Y-125753000D01*
X102000000Y-124000000D02*
X101537000Y-124463000D01*
X100267000Y-124133000D02*
X100267000Y-125753000D01*
X100300000Y-124100000D02*
X100267000Y-124133000D01*
X68000000Y-118250000D02*
X66080000Y-116330000D01*
X66080000Y-116330000D02*
X66080000Y-110827000D01*
X95515722Y-118250000D02*
X68000000Y-118250000D01*
X97727000Y-120603000D02*
X97727000Y-120461278D01*
X97727000Y-120461278D02*
X95515722Y-118250000D01*
X103800000Y-126800000D02*
X104077000Y-126523000D01*
X104077000Y-126523000D02*
X104077000Y-125753000D01*
X145952000Y-122702000D02*
X145952000Y-121397000D01*
X147022000Y-123772000D02*
X145952000Y-122702000D01*
X147022000Y-124297000D02*
X147022000Y-123772000D01*
X131200000Y-99800000D02*
X131004500Y-99995500D01*
X134019000Y-108119000D02*
X134019000Y-112101000D01*
X131004500Y-99995500D02*
X131004500Y-105104500D01*
X130550000Y-93420000D02*
X130550000Y-94850000D01*
X130550000Y-94850000D02*
X130400000Y-95000000D01*
X134500000Y-115250000D02*
X134019000Y-114769000D01*
X148492000Y-114758000D02*
X148000000Y-115250000D01*
X148492000Y-112097000D02*
X148492000Y-114758000D01*
X134019000Y-114769000D02*
X134019000Y-112101000D01*
X131004500Y-105104500D02*
X134019000Y-108119000D01*
X148000000Y-115250000D02*
X134500000Y-115250000D01*
X132100000Y-99800000D02*
X131500000Y-100400000D01*
X131500000Y-100400000D02*
X131500000Y-104600000D01*
X131350000Y-94650000D02*
X131250000Y-94750000D01*
X149700000Y-113600000D02*
X149762000Y-113538000D01*
X147500000Y-114400000D02*
X147400000Y-114500000D01*
X131350000Y-93420000D02*
X131350000Y-94650000D01*
X135900000Y-114500000D02*
X135289000Y-113889000D01*
X131500000Y-104600000D02*
X135289000Y-108389000D01*
X147400000Y-114500000D02*
X135900000Y-114500000D01*
X135289000Y-113889000D02*
X135289000Y-112101000D01*
X149762000Y-113538000D02*
X149762000Y-112097000D01*
X135289000Y-108389000D02*
X135289000Y-112101000D01*
X131750000Y-92000000D02*
X131750000Y-93420000D01*
X114050489Y-117149511D02*
X114969037Y-117149511D01*
X128750000Y-102550000D02*
X128750000Y-100000000D01*
X107818093Y-122438480D02*
X108761520Y-122438480D01*
X119200000Y-115800000D02*
X119200000Y-110550000D01*
X98200000Y-123300000D02*
X106956573Y-123300000D01*
X119450000Y-118275000D02*
X119800000Y-117925000D01*
X116050000Y-116068548D02*
X115718548Y-116400000D01*
X114969037Y-117149511D02*
X115718548Y-116400000D01*
X106956573Y-123300000D02*
X107818093Y-122438480D01*
X97727000Y-125753000D02*
X97727000Y-123773000D01*
X122970480Y-108329520D02*
X128750000Y-102550000D01*
X119450000Y-118435000D02*
X119450000Y-118275000D01*
X97727000Y-123773000D02*
X98200000Y-123300000D01*
X119200000Y-110550000D02*
X121420480Y-108329520D01*
X121420480Y-108329520D02*
X122970480Y-108329520D01*
X118600000Y-116400000D02*
X119200000Y-115800000D01*
X108761520Y-122438480D02*
X114050489Y-117149511D01*
X116050000Y-116025000D02*
X116050000Y-116068548D01*
X115718548Y-116400000D02*
X118600000Y-116400000D01*
X117600000Y-118370000D02*
X117690000Y-118460000D01*
X123698198Y-108659040D02*
X126800000Y-105557238D01*
X115384560Y-117200000D02*
X117600000Y-117200000D01*
X133409040Y-101509040D02*
X133409040Y-98909040D01*
X110200000Y-121600000D02*
X114320969Y-117479031D01*
X122090960Y-108659040D02*
X123698198Y-108659040D01*
X137100000Y-105250000D02*
X137100000Y-105200000D01*
X119700000Y-111050000D02*
X122090960Y-108659040D01*
X117600000Y-117200000D02*
X117600000Y-118370000D01*
X118800000Y-117200000D02*
X119700000Y-116300000D01*
X117600000Y-117200000D02*
X118800000Y-117200000D01*
X119700000Y-116300000D02*
X119700000Y-111050000D01*
X133409040Y-98909040D02*
X132150000Y-97650000D01*
X137100000Y-105200000D02*
X133409040Y-101509040D01*
X114320969Y-117479031D02*
X115105529Y-117479031D01*
X96457000Y-127057000D02*
X97200000Y-127800000D01*
X115105529Y-117479031D02*
X115384560Y-117200000D01*
X110200000Y-125800000D02*
X110200000Y-121600000D01*
X108200000Y-127800000D02*
X110200000Y-125800000D01*
X97200000Y-127800000D02*
X108200000Y-127800000D01*
X96457000Y-125753000D02*
X96457000Y-127057000D01*
X126800000Y-105557238D02*
X126800000Y-105500000D01*
X132150000Y-97650000D02*
X132150000Y-96500000D01*
X146350000Y-142300000D02*
X144185000Y-142300000D01*
X144185000Y-142300000D02*
X144100000Y-142385000D01*
X129975000Y-142500000D02*
X129800000Y-142675000D01*
X132100000Y-142500000D02*
X129975000Y-142500000D01*
X124890000Y-120030500D02*
X124890000Y-117911000D01*
X126338000Y-121478500D02*
X124890000Y-120030500D01*
X126338000Y-119603500D02*
X126338000Y-115976000D01*
X126338000Y-115976000D02*
X124886000Y-114524000D01*
X122259000Y-112629000D02*
X122259000Y-113003022D01*
X131231000Y-123481000D02*
X130209000Y-122459000D01*
X130209000Y-116709000D02*
X130209000Y-121401000D01*
X122755978Y-113500000D02*
X127000000Y-113500000D01*
X127000000Y-113500000D02*
X130209000Y-116709000D01*
X131231000Y-124424000D02*
X131231000Y-123481000D01*
X130209000Y-122459000D02*
X130209000Y-121401000D01*
X122259000Y-113003022D02*
X122755978Y-113500000D01*
X125536000Y-112064000D02*
X125536000Y-112624000D01*
X131479000Y-121401000D02*
X131479000Y-115579000D01*
X132501000Y-124424000D02*
X132501000Y-123501000D01*
X131479000Y-115579000D02*
X127300000Y-111400000D01*
X132501000Y-123501000D02*
X131479000Y-122479000D01*
X127300000Y-111400000D02*
X126200000Y-111400000D01*
X126200000Y-111400000D02*
X125536000Y-112064000D01*
X131479000Y-122479000D02*
X131479000Y-121401000D01*
X127500000Y-82500000D02*
X127500000Y-87000000D01*
X72750000Y-81250000D02*
X74250000Y-79750000D01*
X68000000Y-83250000D02*
X70000000Y-81250000D01*
X125500000Y-80500000D02*
X127500000Y-82500000D01*
D92*
X132300000Y-95300000D02*
X132950000Y-95950000D01*
D87*
X69750000Y-88960000D02*
X68000000Y-87210000D01*
X70000000Y-81250000D02*
X72750000Y-81250000D01*
X127500000Y-87000000D02*
X130000000Y-89500000D01*
D92*
X132200000Y-95300000D02*
X132300000Y-95300000D01*
X132950000Y-95950000D02*
X132950000Y-96500000D01*
D87*
X68000000Y-87210000D02*
X68000000Y-83250000D01*
X101300000Y-89500000D02*
X106250000Y-89500000D01*
X100800000Y-90000000D02*
X101300000Y-89500000D01*
X100800000Y-92300000D02*
X100800000Y-90000000D01*
X69920000Y-86420000D02*
X69750000Y-86420000D01*
D92*
X133750000Y-96500000D02*
X133750000Y-96000000D01*
D87*
X99900000Y-93200000D02*
X100800000Y-92300000D01*
X94000000Y-92100000D02*
X95100000Y-93200000D01*
X72250000Y-88750000D02*
X69920000Y-86420000D01*
D92*
X133750000Y-96000000D02*
X134250000Y-95500000D01*
D87*
X95100000Y-93200000D02*
X99900000Y-93200000D01*
X106250000Y-89500000D02*
X107000000Y-88750000D01*
D92*
X134750000Y-86750000D02*
X127750000Y-79750000D01*
X118250000Y-79750000D02*
X116000000Y-77500000D01*
D87*
X58825000Y-91885000D02*
X61750000Y-88960000D01*
D92*
X138550000Y-94020000D02*
X138070000Y-94500000D01*
X134750000Y-90250000D02*
X134750000Y-86750000D01*
D87*
X58825000Y-95410000D02*
X58825000Y-91885000D01*
D92*
X127750000Y-79750000D02*
X118250000Y-79750000D01*
X138070000Y-94500000D02*
X137250000Y-94500000D01*
X138550000Y-93420000D02*
X138550000Y-94020000D01*
X137250000Y-94500000D02*
X135250000Y-94500000D01*
D87*
X63550000Y-95400000D02*
X63550000Y-88220000D01*
D92*
X138950000Y-94020000D02*
X139155480Y-94225480D01*
X139155480Y-94225480D02*
X142750000Y-94225480D01*
X142250000Y-81750000D02*
X136750000Y-76250000D01*
X142750000Y-94225480D02*
X145000000Y-91975480D01*
X145000000Y-87250000D02*
X145000000Y-84500000D01*
D87*
X63550000Y-88220000D02*
X61750000Y-86420000D01*
D92*
X136750000Y-76250000D02*
X115250000Y-76250000D01*
X138950000Y-93420000D02*
X138950000Y-94020000D01*
X145000000Y-91975480D02*
X145000000Y-87250000D01*
X145000000Y-84500000D02*
X142250000Y-81750000D01*
X49500000Y-98725000D02*
X49500000Y-92710000D01*
X49700000Y-98925000D02*
X49500000Y-98725000D01*
D87*
X128550000Y-96500000D02*
X128550000Y-96050000D01*
X128250000Y-95750000D02*
X126000000Y-95750000D01*
X126000000Y-95750000D02*
X125000000Y-95750000D01*
X128550000Y-96050000D02*
X128250000Y-95750000D01*
D92*
X49500000Y-92710000D02*
X45750000Y-88960000D01*
D87*
X128950000Y-95950000D02*
X128250000Y-95250000D01*
X128250000Y-95250000D02*
X124750000Y-95250000D01*
X128950000Y-96500000D02*
X128950000Y-95950000D01*
X124750000Y-95250000D02*
X124250000Y-95750000D01*
D92*
X51750000Y-94500000D02*
X51750000Y-90000000D01*
X51750000Y-90000000D02*
X52790000Y-88960000D01*
D87*
X102000000Y-90500000D02*
X114500000Y-90500000D01*
D92*
X52790000Y-88960000D02*
X53750000Y-88960000D01*
D87*
X119500000Y-95500000D02*
X123750000Y-95500000D01*
X101700000Y-90200000D02*
X102000000Y-90500000D01*
X129750000Y-95950000D02*
X129750000Y-96500000D01*
X114500000Y-90500000D02*
X119500000Y-95500000D01*
X124500000Y-94750000D02*
X128550000Y-94750000D01*
X123750000Y-95500000D02*
X124500000Y-94750000D01*
X128550000Y-94750000D02*
X129750000Y-95950000D01*
D92*
X123750000Y-87250000D02*
X123250000Y-87250000D01*
X129750000Y-91000000D02*
X127125000Y-88375000D01*
X123250000Y-87250000D02*
X116750000Y-80750000D01*
X129750000Y-93420000D02*
X129750000Y-91000000D01*
X127125000Y-88375000D02*
X126000000Y-87250000D01*
X126000000Y-87250000D02*
X123750000Y-87250000D01*
D87*
X66950000Y-135750000D02*
X67050000Y-135750000D01*
X63750000Y-132550000D02*
X66950000Y-135750000D01*
X47550000Y-132550000D02*
X50750000Y-135750000D01*
X55650000Y-132550000D02*
X58850000Y-135750000D01*
D88*
X50650000Y-143550000D02*
X51000000Y-143200000D01*
X70600000Y-132800000D02*
X71700000Y-132800000D01*
X50650000Y-144250000D02*
X50650000Y-143550000D01*
X71700000Y-132800000D02*
X71950000Y-132550000D01*
D87*
X55550000Y-141050000D02*
X58750000Y-144250000D01*
X63650000Y-141050000D02*
X66850000Y-144250000D01*
G04 #@! TA.AperFunction,Conductor*
G36*
X56985093Y-44020002D02*
G01*
X57031586Y-44073658D01*
X57041690Y-44143932D01*
X57029239Y-44183202D01*
X56998264Y-44243995D01*
X56992211Y-44262622D01*
X56978775Y-44347459D01*
X56978000Y-44357302D01*
X56978000Y-44367685D01*
X56982475Y-44382924D01*
X56983865Y-44384129D01*
X56991548Y-44385800D01*
X57752000Y-44385800D01*
X57820121Y-44405802D01*
X57866614Y-44459458D01*
X57878000Y-44511800D01*
X57878000Y-45292684D01*
X57882475Y-45307923D01*
X57883865Y-45309128D01*
X57888878Y-45310218D01*
X57891344Y-45310024D01*
X57976175Y-45296589D01*
X57977160Y-45296269D01*
X57978424Y-45296233D01*
X57985969Y-45295038D01*
X57986123Y-45296013D01*
X58048128Y-45294242D01*
X58108925Y-45330904D01*
X58140251Y-45394616D01*
X58138334Y-45446662D01*
X58043512Y-45825948D01*
X58007585Y-45887183D01*
X57944255Y-45919274D01*
X57896695Y-45918967D01*
X57873771Y-45914407D01*
X57861511Y-45913200D01*
X57666115Y-45913200D01*
X57650876Y-45917675D01*
X57649671Y-45919065D01*
X57648000Y-45926748D01*
X57648000Y-46837200D01*
X57627998Y-46905321D01*
X57574342Y-46951814D01*
X57522000Y-46963200D01*
X56766115Y-46963200D01*
X56750876Y-46967675D01*
X56749671Y-46969065D01*
X56748000Y-46976748D01*
X56748000Y-47193810D01*
X56727998Y-47261931D01*
X56674342Y-47308424D01*
X56604068Y-47318528D01*
X56539488Y-47289034D01*
X56532905Y-47282905D01*
X56500000Y-47250000D01*
X56150492Y-47250000D01*
X56082371Y-47229998D01*
X56035878Y-47176342D01*
X56025774Y-47106068D01*
X56038225Y-47066798D01*
X56066663Y-47010985D01*
X56072716Y-46992355D01*
X56085225Y-46913373D01*
X56086000Y-46903527D01*
X56086000Y-46870115D01*
X56081525Y-46854876D01*
X56080135Y-46853671D01*
X56072452Y-46852000D01*
X55362000Y-46852000D01*
X55293879Y-46831998D01*
X55247386Y-46778342D01*
X55236000Y-46726000D01*
X55236000Y-46445085D01*
X56748000Y-46445085D01*
X56752475Y-46460324D01*
X56753865Y-46461529D01*
X56761548Y-46463200D01*
X57129885Y-46463200D01*
X57145124Y-46458725D01*
X57146329Y-46457335D01*
X57148000Y-46449652D01*
X57148000Y-45931315D01*
X57143525Y-45916076D01*
X57142135Y-45914871D01*
X57134452Y-45913200D01*
X56934489Y-45913200D01*
X56922234Y-45914407D01*
X56882136Y-45922383D01*
X56859645Y-45931699D01*
X56814124Y-45962115D01*
X56796915Y-45979324D01*
X56766499Y-46024845D01*
X56757183Y-46047336D01*
X56749207Y-46087434D01*
X56748000Y-46099689D01*
X56748000Y-46445085D01*
X55236000Y-46445085D01*
X55236000Y-46333885D01*
X55736000Y-46333885D01*
X55740475Y-46349124D01*
X55741865Y-46350329D01*
X55749548Y-46352000D01*
X56067884Y-46352000D01*
X56083123Y-46347525D01*
X56084328Y-46346135D01*
X56085999Y-46338452D01*
X56085999Y-46300475D01*
X56085224Y-46290626D01*
X56072717Y-46211649D01*
X56066662Y-46193014D01*
X56018141Y-46097787D01*
X56006630Y-46081944D01*
X55931056Y-46006370D01*
X55915213Y-45994859D01*
X55819982Y-45946336D01*
X55801355Y-45940284D01*
X55753894Y-45932767D01*
X55740212Y-45934535D01*
X55736000Y-45948509D01*
X55736000Y-46333885D01*
X55236000Y-46333885D01*
X55236000Y-45948049D01*
X55222931Y-45903540D01*
X55216195Y-45893058D01*
X55216195Y-45822062D01*
X55224389Y-45801221D01*
X55440488Y-45369024D01*
X55488841Y-45317042D01*
X55557624Y-45299453D01*
X55570035Y-45300650D01*
X55570574Y-45300693D01*
X55582724Y-45297125D01*
X55583929Y-45295735D01*
X55585600Y-45288052D01*
X55585600Y-45283484D01*
X56085600Y-45283484D01*
X56090075Y-45298723D01*
X56091465Y-45299928D01*
X56096478Y-45301018D01*
X56098944Y-45300824D01*
X56183771Y-45287390D01*
X56202407Y-45281335D01*
X56304690Y-45229218D01*
X56320534Y-45217707D01*
X56401707Y-45136534D01*
X56413218Y-45120690D01*
X56465337Y-45018402D01*
X56471389Y-44999778D01*
X56484825Y-44914941D01*
X56484876Y-44914295D01*
X56978001Y-44914295D01*
X56978776Y-44924144D01*
X56992210Y-45008971D01*
X56998265Y-45027607D01*
X57050382Y-45129890D01*
X57061893Y-45145734D01*
X57143066Y-45226907D01*
X57158910Y-45238418D01*
X57261198Y-45290537D01*
X57279822Y-45296589D01*
X57363271Y-45309806D01*
X57375124Y-45306325D01*
X57376329Y-45304935D01*
X57378000Y-45297252D01*
X57378000Y-44903915D01*
X57373525Y-44888676D01*
X57372135Y-44887471D01*
X57364452Y-44885800D01*
X56996116Y-44885800D01*
X56980877Y-44890275D01*
X56979672Y-44891665D01*
X56978001Y-44899348D01*
X56978001Y-44914295D01*
X56484876Y-44914295D01*
X56485600Y-44905098D01*
X56485600Y-44894715D01*
X56481125Y-44879476D01*
X56479735Y-44878271D01*
X56472052Y-44876600D01*
X56103715Y-44876600D01*
X56088476Y-44881075D01*
X56087271Y-44882465D01*
X56085600Y-44890148D01*
X56085600Y-45283484D01*
X55585600Y-45283484D01*
X55585600Y-44502600D01*
X55605602Y-44434479D01*
X55659258Y-44387986D01*
X55711600Y-44376600D01*
X56467484Y-44376600D01*
X56482723Y-44372125D01*
X56483928Y-44370735D01*
X56485599Y-44363052D01*
X56485599Y-44348105D01*
X56484824Y-44338256D01*
X56471390Y-44253429D01*
X56465335Y-44234794D01*
X56439048Y-44183203D01*
X56425944Y-44113427D01*
X56452644Y-44047642D01*
X56510671Y-44006735D01*
X56551315Y-44000000D01*
X56916972Y-44000000D01*
X56985093Y-44020002D01*
G37*
G04 #@! TD.AperFunction*
G04 #@! TA.AperFunction,Conductor*
G36*
X47860992Y-60270002D02*
G01*
X47907485Y-60323658D01*
X47917230Y-60355732D01*
X48207872Y-62139212D01*
X48996713Y-66979829D01*
X49000000Y-67000000D01*
X49009726Y-67000000D01*
X49032896Y-67014284D01*
X49031910Y-67015883D01*
X49055866Y-67026556D01*
X49094803Y-67085923D01*
X49093835Y-67162210D01*
X49054863Y-67279707D01*
X49051995Y-67293086D01*
X49042328Y-67387438D01*
X49042000Y-67393855D01*
X49042000Y-68772885D01*
X49046475Y-68788124D01*
X49047865Y-68789329D01*
X49055548Y-68791000D01*
X52539884Y-68791000D01*
X52543681Y-68789885D01*
X60341000Y-68789885D01*
X60345475Y-68805124D01*
X60346865Y-68806329D01*
X60354548Y-68808000D01*
X61680885Y-68808000D01*
X61696124Y-68803525D01*
X61697329Y-68802135D01*
X61699000Y-68794452D01*
X61699000Y-68789885D01*
X62499000Y-68789885D01*
X62503475Y-68805124D01*
X62504865Y-68806329D01*
X62512548Y-68808000D01*
X63838884Y-68808000D01*
X63854123Y-68803525D01*
X63855328Y-68802135D01*
X63856999Y-68794452D01*
X63856999Y-67410905D01*
X63856662Y-67404386D01*
X63846743Y-67308794D01*
X63843851Y-67295400D01*
X63792412Y-67141216D01*
X63786239Y-67128038D01*
X63700937Y-66990193D01*
X63691901Y-66978792D01*
X63577171Y-66864261D01*
X63565760Y-66855249D01*
X63427757Y-66770184D01*
X63414576Y-66764037D01*
X63260290Y-66712862D01*
X63246914Y-66709995D01*
X63152562Y-66700328D01*
X63146145Y-66700000D01*
X62517115Y-66700000D01*
X62501876Y-66704475D01*
X62500671Y-66705865D01*
X62499000Y-66713548D01*
X62499000Y-68789885D01*
X61699000Y-68789885D01*
X61699000Y-66718116D01*
X61694525Y-66702877D01*
X61693135Y-66701672D01*
X61685452Y-66700001D01*
X61051905Y-66700001D01*
X61045386Y-66700338D01*
X60949794Y-66710257D01*
X60936400Y-66713149D01*
X60782216Y-66764588D01*
X60769038Y-66770761D01*
X60631193Y-66856063D01*
X60619792Y-66865099D01*
X60505261Y-66979829D01*
X60496249Y-66991240D01*
X60411184Y-67129243D01*
X60405037Y-67142424D01*
X60353862Y-67296710D01*
X60350995Y-67310086D01*
X60341328Y-67404438D01*
X60341000Y-67410855D01*
X60341000Y-68789885D01*
X52543681Y-68789885D01*
X52555123Y-68786525D01*
X52556328Y-68785135D01*
X52557999Y-68777452D01*
X52557999Y-67393905D01*
X52557662Y-67387386D01*
X52547743Y-67291794D01*
X52544850Y-67278397D01*
X52507311Y-67165875D01*
X52504727Y-67094926D01*
X52540911Y-67033842D01*
X52604375Y-67002018D01*
X52626835Y-67000000D01*
X60000000Y-67000000D01*
X60000000Y-64690669D01*
X60973001Y-64690669D01*
X60973371Y-64697490D01*
X60978895Y-64748352D01*
X60982521Y-64763604D01*
X61027676Y-64884054D01*
X61036214Y-64899649D01*
X61112715Y-65001724D01*
X61125276Y-65014285D01*
X61227351Y-65090786D01*
X61242946Y-65099324D01*
X61363394Y-65144478D01*
X61378649Y-65148105D01*
X61429514Y-65153631D01*
X61436328Y-65154000D01*
X63362885Y-65154000D01*
X63378124Y-65149525D01*
X63379329Y-65148135D01*
X63381000Y-65140452D01*
X63381000Y-64514115D01*
X63376525Y-64498876D01*
X63375135Y-64497671D01*
X63367452Y-64496000D01*
X60991116Y-64496000D01*
X60975877Y-64500475D01*
X60974672Y-64501865D01*
X60973001Y-64509548D01*
X60973001Y-64690669D01*
X60000000Y-64690669D01*
X60000000Y-64126000D01*
X60020002Y-64057879D01*
X60073658Y-64011386D01*
X60126000Y-64000000D01*
X64181000Y-64000000D01*
X64181000Y-65135884D01*
X64185475Y-65151123D01*
X64186865Y-65152328D01*
X64194548Y-65153999D01*
X65874000Y-65153999D01*
X65942121Y-65174001D01*
X65988614Y-65227657D01*
X66000000Y-65279999D01*
X66000000Y-72874000D01*
X65979998Y-72942121D01*
X65926342Y-72988614D01*
X65874000Y-73000000D01*
X43208051Y-73000000D01*
X43139930Y-72979998D01*
X43093437Y-72926342D01*
X43083333Y-72856068D01*
X43112827Y-72791488D01*
X43132486Y-72773174D01*
X43205724Y-72718285D01*
X43218285Y-72705724D01*
X43294786Y-72603649D01*
X43303324Y-72588054D01*
X43348478Y-72467606D01*
X43352105Y-72452351D01*
X43357631Y-72401486D01*
X43358000Y-72394672D01*
X43358000Y-71918115D01*
X43353525Y-71902876D01*
X43352135Y-71901671D01*
X43344452Y-71900000D01*
X40660116Y-71900000D01*
X40644877Y-71904475D01*
X40643672Y-71905865D01*
X40642001Y-71913548D01*
X40642001Y-72394669D01*
X40642371Y-72401490D01*
X40647895Y-72452352D01*
X40651521Y-72467604D01*
X40696676Y-72588054D01*
X40705214Y-72603649D01*
X40781715Y-72705724D01*
X40794276Y-72718285D01*
X40867514Y-72773174D01*
X40910029Y-72830033D01*
X40915055Y-72900852D01*
X40880995Y-72963145D01*
X40818664Y-72997135D01*
X40791949Y-73000000D01*
X40376000Y-73000000D01*
X40307879Y-72979998D01*
X40261386Y-72926342D01*
X40250000Y-72874000D01*
X40250000Y-71081885D01*
X40642000Y-71081885D01*
X40646475Y-71097124D01*
X40647865Y-71098329D01*
X40655548Y-71100000D01*
X41581885Y-71100000D01*
X41597124Y-71095525D01*
X41598329Y-71094135D01*
X41600000Y-71086452D01*
X41600000Y-71081885D01*
X42400000Y-71081885D01*
X42404475Y-71097124D01*
X42405865Y-71098329D01*
X42413548Y-71100000D01*
X43339884Y-71100000D01*
X43355123Y-71095525D01*
X43356328Y-71094135D01*
X43357999Y-71086452D01*
X43357999Y-70988095D01*
X49042001Y-70988095D01*
X49042338Y-70994614D01*
X49052257Y-71090206D01*
X49055149Y-71103600D01*
X49106588Y-71257784D01*
X49112761Y-71270962D01*
X49198063Y-71408807D01*
X49207099Y-71420208D01*
X49321829Y-71534739D01*
X49333240Y-71543751D01*
X49471243Y-71628816D01*
X49484424Y-71634963D01*
X49638710Y-71686138D01*
X49652086Y-71689005D01*
X49746438Y-71698672D01*
X49752854Y-71699000D01*
X50381885Y-71699000D01*
X50397124Y-71694525D01*
X50398329Y-71693135D01*
X50400000Y-71685452D01*
X50400000Y-71680884D01*
X51200000Y-71680884D01*
X51204475Y-71696123D01*
X51205865Y-71697328D01*
X51213548Y-71698999D01*
X51847095Y-71698999D01*
X51853614Y-71698662D01*
X51949206Y-71688743D01*
X51962600Y-71685851D01*
X52116784Y-71634412D01*
X52129962Y-71628239D01*
X52267807Y-71542937D01*
X52279208Y-71533901D01*
X52393739Y-71419171D01*
X52402751Y-71407760D01*
X52487816Y-71269757D01*
X52493963Y-71256576D01*
X52545138Y-71102290D01*
X52548005Y-71088914D01*
X52556593Y-71005095D01*
X60341001Y-71005095D01*
X60341338Y-71011614D01*
X60351257Y-71107206D01*
X60354149Y-71120600D01*
X60405588Y-71274784D01*
X60411761Y-71287962D01*
X60497063Y-71425807D01*
X60506099Y-71437208D01*
X60620829Y-71551739D01*
X60632240Y-71560751D01*
X60770243Y-71645816D01*
X60783424Y-71651963D01*
X60937710Y-71703138D01*
X60951086Y-71706005D01*
X61045438Y-71715672D01*
X61051854Y-71716000D01*
X61680885Y-71716000D01*
X61696124Y-71711525D01*
X61697329Y-71710135D01*
X61699000Y-71702452D01*
X61699000Y-71697884D01*
X62499000Y-71697884D01*
X62503475Y-71713123D01*
X62504865Y-71714328D01*
X62512548Y-71715999D01*
X63146095Y-71715999D01*
X63152614Y-71715662D01*
X63248206Y-71705743D01*
X63261600Y-71702851D01*
X63415784Y-71651412D01*
X63428962Y-71645239D01*
X63566807Y-71559937D01*
X63578208Y-71550901D01*
X63692739Y-71436171D01*
X63701751Y-71424760D01*
X63786816Y-71286757D01*
X63792963Y-71273576D01*
X63844138Y-71119290D01*
X63847005Y-71105914D01*
X63856672Y-71011562D01*
X63857000Y-71005146D01*
X63857000Y-69626115D01*
X63852525Y-69610876D01*
X63851135Y-69609671D01*
X63843452Y-69608000D01*
X62517115Y-69608000D01*
X62501876Y-69612475D01*
X62500671Y-69613865D01*
X62499000Y-69621548D01*
X62499000Y-71697884D01*
X61699000Y-71697884D01*
X61699000Y-69626115D01*
X61694525Y-69610876D01*
X61693135Y-69609671D01*
X61685452Y-69608000D01*
X60359116Y-69608000D01*
X60343877Y-69612475D01*
X60342672Y-69613865D01*
X60341001Y-69621548D01*
X60341001Y-71005095D01*
X52556593Y-71005095D01*
X52557672Y-70994562D01*
X52558000Y-70988146D01*
X52558000Y-69609115D01*
X52553525Y-69593876D01*
X52552135Y-69592671D01*
X52544452Y-69591000D01*
X51218115Y-69591000D01*
X51202876Y-69595475D01*
X51201671Y-69596865D01*
X51200000Y-69604548D01*
X51200000Y-71680884D01*
X50400000Y-71680884D01*
X50400000Y-69609115D01*
X50395525Y-69593876D01*
X50394135Y-69592671D01*
X50386452Y-69591000D01*
X49060116Y-69591000D01*
X49044877Y-69595475D01*
X49043672Y-69596865D01*
X49042001Y-69604548D01*
X49042001Y-70988095D01*
X43357999Y-70988095D01*
X43357999Y-70605331D01*
X43357629Y-70598510D01*
X43352105Y-70547648D01*
X43348479Y-70532396D01*
X43303324Y-70411946D01*
X43294786Y-70396351D01*
X43218285Y-70294276D01*
X43205724Y-70281715D01*
X43103649Y-70205214D01*
X43088054Y-70196676D01*
X42967606Y-70151522D01*
X42952351Y-70147895D01*
X42901486Y-70142369D01*
X42894672Y-70142000D01*
X42418115Y-70142000D01*
X42402876Y-70146475D01*
X42401671Y-70147865D01*
X42400000Y-70155548D01*
X42400000Y-71081885D01*
X41600000Y-71081885D01*
X41600000Y-70160116D01*
X41595525Y-70144877D01*
X41594135Y-70143672D01*
X41586452Y-70142001D01*
X41105331Y-70142001D01*
X41098510Y-70142371D01*
X41047648Y-70147895D01*
X41032396Y-70151521D01*
X40911946Y-70196676D01*
X40896351Y-70205214D01*
X40794276Y-70281715D01*
X40781715Y-70294276D01*
X40705214Y-70396351D01*
X40696676Y-70411946D01*
X40651522Y-70532394D01*
X40647895Y-70547649D01*
X40642369Y-70598514D01*
X40642000Y-70605328D01*
X40642000Y-71081885D01*
X40250000Y-71081885D01*
X40250000Y-67227546D01*
X41244339Y-67227546D01*
X41250950Y-67237067D01*
X41280965Y-67263067D01*
X41285973Y-67266980D01*
X41592275Y-67482252D01*
X41597652Y-67485638D01*
X41924138Y-67668854D01*
X41929831Y-67671680D01*
X42273153Y-67820960D01*
X42279127Y-67823205D01*
X42635757Y-67937021D01*
X42641925Y-67938650D01*
X43008245Y-68015846D01*
X43014529Y-68016841D01*
X43386784Y-68056624D01*
X43393146Y-68056980D01*
X43767509Y-68058939D01*
X43773859Y-68058651D01*
X44146502Y-68022771D01*
X44152827Y-68021836D01*
X44519921Y-67948483D01*
X44526094Y-67946921D01*
X44883922Y-67836840D01*
X44889898Y-67834665D01*
X45234757Y-67688990D01*
X45240499Y-67686214D01*
X45568882Y-67506430D01*
X45574293Y-67503101D01*
X45882827Y-67291051D01*
X45887880Y-67287188D01*
X45946368Y-67237586D01*
X45954804Y-67224761D01*
X45948752Y-67214437D01*
X43612812Y-64878497D01*
X43598868Y-64870883D01*
X43597035Y-64871014D01*
X43590420Y-64875265D01*
X41251796Y-67213889D01*
X41244339Y-67227546D01*
X40250000Y-67227546D01*
X40250000Y-66471375D01*
X40270002Y-66403254D01*
X40323658Y-66356761D01*
X40393932Y-66346657D01*
X40458512Y-66376151D01*
X40483202Y-66405165D01*
X40501002Y-66433985D01*
X40504623Y-66439234D01*
X40663121Y-66645791D01*
X40674714Y-66654256D01*
X40686692Y-66647623D01*
X43021503Y-64312812D01*
X43027881Y-64301132D01*
X44170883Y-64301132D01*
X44171014Y-64302965D01*
X44175265Y-64309580D01*
X46512505Y-66646820D01*
X46525298Y-66653806D01*
X46536051Y-66645942D01*
X46672803Y-66471535D01*
X46676487Y-66466312D01*
X46876520Y-66149890D01*
X46879654Y-66144330D01*
X47046697Y-65809293D01*
X47049242Y-65803467D01*
X47181577Y-65453254D01*
X47183520Y-65447202D01*
X47279782Y-65085421D01*
X47281108Y-65079186D01*
X47340316Y-64709534D01*
X47341005Y-64703197D01*
X47362640Y-64327964D01*
X47362744Y-64324568D01*
X47362824Y-64301696D01*
X47362745Y-64298316D01*
X47343728Y-63922915D01*
X47343085Y-63916595D01*
X47286459Y-63546538D01*
X47285176Y-63540289D01*
X47191441Y-63177840D01*
X47189539Y-63171772D01*
X47059659Y-62820661D01*
X47057141Y-62814789D01*
X46892456Y-62478624D01*
X46889351Y-62473022D01*
X46691531Y-62155211D01*
X46687894Y-62149978D01*
X46536719Y-61954379D01*
X46525037Y-61945912D01*
X46513178Y-61952507D01*
X44178497Y-64287188D01*
X44170883Y-64301132D01*
X43027881Y-64301132D01*
X43029117Y-64298868D01*
X43028986Y-64297035D01*
X43024735Y-64290420D01*
X40687350Y-61953035D01*
X40674621Y-61946084D01*
X40663782Y-61954039D01*
X40519629Y-62139212D01*
X40515971Y-62144437D01*
X40482737Y-62197417D01*
X40429594Y-62244495D01*
X40359435Y-62255367D01*
X40294535Y-62226583D01*
X40255500Y-62167281D01*
X40250000Y-62130461D01*
X40250000Y-61375033D01*
X41244918Y-61375033D01*
X41250925Y-61385240D01*
X43587188Y-63721503D01*
X43601132Y-63729117D01*
X43602965Y-63728986D01*
X43609580Y-63724735D01*
X45947895Y-61386420D01*
X45955320Y-61372823D01*
X45948620Y-61363212D01*
X45908680Y-61328858D01*
X45903651Y-61324958D01*
X45596609Y-61110762D01*
X45591211Y-61107389D01*
X45264096Y-60925319D01*
X45258386Y-60922509D01*
X44914551Y-60774430D01*
X44908569Y-60772206D01*
X44551545Y-60659637D01*
X44545363Y-60658027D01*
X44178785Y-60582112D01*
X44172491Y-60581138D01*
X43800087Y-60542653D01*
X43793755Y-60542321D01*
X43419364Y-60541668D01*
X43413024Y-60541978D01*
X43040497Y-60579161D01*
X43034204Y-60580113D01*
X42667347Y-60654750D01*
X42661174Y-60656335D01*
X42303750Y-60767661D01*
X42297762Y-60769864D01*
X41953422Y-60916738D01*
X41947691Y-60919533D01*
X41619949Y-61100456D01*
X41614529Y-61103817D01*
X41306762Y-61316924D01*
X41301688Y-61320832D01*
X41253348Y-61362119D01*
X41244918Y-61375033D01*
X40250000Y-61375033D01*
X40250000Y-60376000D01*
X40270002Y-60307879D01*
X40323658Y-60261386D01*
X40376000Y-60250000D01*
X47792871Y-60250000D01*
X47860992Y-60270002D01*
G37*
G04 #@! TD.AperFunction*
G04 #@! TA.AperFunction,Conductor*
G36*
X53288627Y-49020002D02*
G01*
X53334883Y-49073385D01*
X53336232Y-49079136D01*
X53340373Y-49086668D01*
X53357195Y-49117268D01*
X53362411Y-49127913D01*
X53379695Y-49167855D01*
X53389158Y-49179541D01*
X53401645Y-49198125D01*
X53408893Y-49211308D01*
X53415897Y-49219422D01*
X53440433Y-49243958D01*
X53449258Y-49253759D01*
X53461642Y-49269051D01*
X53474614Y-49285070D01*
X53481612Y-49290043D01*
X53481617Y-49290048D01*
X53489948Y-49295968D01*
X53506054Y-49309579D01*
X54579595Y-50383119D01*
X54613620Y-50445431D01*
X54616500Y-50472214D01*
X54616500Y-50741674D01*
X54617941Y-50748917D01*
X54617885Y-50749547D01*
X54618314Y-50753906D01*
X54617487Y-50753987D01*
X54611613Y-50819631D01*
X54568060Y-50875699D01*
X54494362Y-50899500D01*
X53721592Y-50899500D01*
X53653471Y-50879498D01*
X53646027Y-50874326D01*
X53618079Y-50853380D01*
X53551695Y-50803628D01*
X53424157Y-50755816D01*
X53416304Y-50754963D01*
X53416300Y-50754962D01*
X53369414Y-50749869D01*
X53369410Y-50749869D01*
X53366015Y-50749500D01*
X53071044Y-50749500D01*
X52775986Y-50749501D01*
X52717843Y-50755816D01*
X52590305Y-50803628D01*
X52481313Y-50885313D01*
X52399628Y-50994305D01*
X52351816Y-51121843D01*
X52350963Y-51129696D01*
X52350962Y-51129700D01*
X52347839Y-51158450D01*
X52345500Y-51179985D01*
X52345501Y-51720014D01*
X52351816Y-51778157D01*
X52399628Y-51905695D01*
X52405013Y-51912880D01*
X52405014Y-51912882D01*
X52454252Y-51978580D01*
X52479100Y-52045087D01*
X52464047Y-52114469D01*
X52419729Y-52161289D01*
X52368827Y-52192788D01*
X52357426Y-52201824D01*
X52247014Y-52312429D01*
X52238002Y-52323840D01*
X52155996Y-52456880D01*
X52149849Y-52470061D01*
X52100509Y-52618814D01*
X52097642Y-52632190D01*
X52088328Y-52723097D01*
X52088071Y-52728126D01*
X52092475Y-52743124D01*
X52093865Y-52744329D01*
X52101548Y-52746000D01*
X54035885Y-52746000D01*
X54051124Y-52741525D01*
X54052329Y-52740135D01*
X54054000Y-52732452D01*
X54054000Y-52729562D01*
X54053663Y-52723047D01*
X54044106Y-52630943D01*
X54041212Y-52617544D01*
X53991619Y-52468893D01*
X53985445Y-52455714D01*
X53903212Y-52322827D01*
X53894176Y-52311426D01*
X53798256Y-52215673D01*
X53764177Y-52153390D01*
X53769180Y-52082570D01*
X53811677Y-52025698D01*
X53878176Y-52000829D01*
X53887274Y-52000500D01*
X54280030Y-52000500D01*
X54348151Y-52020502D01*
X54394644Y-52074158D01*
X54404748Y-52144432D01*
X54398012Y-52170730D01*
X54368522Y-52249394D01*
X54364895Y-52264649D01*
X54359369Y-52315514D01*
X54359000Y-52322328D01*
X54359000Y-52619885D01*
X54363475Y-52635124D01*
X54364865Y-52636329D01*
X54372548Y-52638000D01*
X55956884Y-52638000D01*
X55972123Y-52633525D01*
X55973328Y-52632135D01*
X55974999Y-52624452D01*
X55974999Y-52475280D01*
X55995001Y-52407159D01*
X56048657Y-52360666D01*
X56085891Y-52350500D01*
X56089391Y-52350500D01*
X56095845Y-52349128D01*
X56095847Y-52349128D01*
X56106803Y-52346799D01*
X56177594Y-52352201D01*
X56234227Y-52395018D01*
X56258720Y-52461656D01*
X56259000Y-52470046D01*
X56259000Y-52619885D01*
X56263475Y-52635124D01*
X56264865Y-52636329D01*
X56272548Y-52638000D01*
X56794885Y-52638000D01*
X56810124Y-52633525D01*
X56811329Y-52632135D01*
X56813000Y-52624452D01*
X56813000Y-51877116D01*
X56804388Y-51847786D01*
X56805451Y-51773352D01*
X56834457Y-51684082D01*
X56834457Y-51684080D01*
X56836497Y-51677803D01*
X56855185Y-51500000D01*
X56852592Y-51475328D01*
X56837187Y-51328761D01*
X56837187Y-51328760D01*
X56836497Y-51322197D01*
X56781250Y-51152165D01*
X56777946Y-51146441D01*
X56777192Y-51144749D01*
X56767758Y-51074382D01*
X56797864Y-51010085D01*
X56857953Y-50972272D01*
X56892299Y-50967500D01*
X57391674Y-50967500D01*
X57464740Y-50952966D01*
X57547601Y-50897601D01*
X57554437Y-50887370D01*
X57616682Y-50853380D01*
X57643468Y-50850500D01*
X59319000Y-50850500D01*
X59330640Y-50851049D01*
X59338296Y-50852760D01*
X59346219Y-50852511D01*
X59408230Y-50850562D01*
X59412188Y-50850500D01*
X59440925Y-50850500D01*
X59445196Y-50849961D01*
X59457024Y-50849029D01*
X59502569Y-50847597D01*
X59510183Y-50845385D01*
X59510188Y-50845384D01*
X59522792Y-50841722D01*
X59542156Y-50837711D01*
X59563058Y-50835071D01*
X59570429Y-50832152D01*
X59570431Y-50832152D01*
X59591628Y-50823759D01*
X59605423Y-50818297D01*
X59616631Y-50814459D01*
X59660398Y-50801744D01*
X59678536Y-50791018D01*
X59696281Y-50782324D01*
X59715871Y-50774568D01*
X59752738Y-50747782D01*
X59762646Y-50741275D01*
X59795037Y-50722120D01*
X59795042Y-50722116D01*
X59801865Y-50718081D01*
X59807475Y-50712471D01*
X59810735Y-50709942D01*
X59876819Y-50683993D01*
X59887965Y-50683499D01*
X60884376Y-50683499D01*
X60887770Y-50683130D01*
X60887776Y-50683130D01*
X60937722Y-50677705D01*
X60937726Y-50677704D01*
X60945580Y-50676851D01*
X61079824Y-50626526D01*
X61087003Y-50621146D01*
X61087006Y-50621144D01*
X61187365Y-50545928D01*
X61194546Y-50540546D01*
X61199928Y-50533365D01*
X61275144Y-50433006D01*
X61275146Y-50433003D01*
X61280526Y-50425824D01*
X61330851Y-50291580D01*
X61337500Y-50230377D01*
X61337499Y-49385624D01*
X61337130Y-49382226D01*
X61337130Y-49382221D01*
X61331668Y-49331936D01*
X61342782Y-49264984D01*
X61371468Y-49203605D01*
X61373375Y-49199705D01*
X61378241Y-49190176D01*
X61406219Y-49135384D01*
X61407958Y-49128275D01*
X61410017Y-49122740D01*
X61411882Y-49117134D01*
X61414979Y-49110507D01*
X61417095Y-49100336D01*
X61418088Y-49098478D01*
X61418781Y-49096394D01*
X61419138Y-49096513D01*
X61450553Y-49037717D01*
X61512554Y-49003128D01*
X61540454Y-49000000D01*
X68772000Y-49000000D01*
X68840121Y-49020002D01*
X68886614Y-49073658D01*
X68898000Y-49126000D01*
X68898000Y-50615885D01*
X68902475Y-50631124D01*
X68903865Y-50632329D01*
X68911548Y-50634000D01*
X72395884Y-50634000D01*
X72411123Y-50629525D01*
X72412328Y-50628135D01*
X72413999Y-50620452D01*
X72413999Y-49126000D01*
X72434001Y-49057879D01*
X72487657Y-49011386D01*
X72539999Y-49000000D01*
X75947512Y-49000000D01*
X76015633Y-49020002D01*
X76036964Y-49037263D01*
X81893799Y-54941329D01*
X82163453Y-55213158D01*
X82197227Y-55275606D01*
X82200000Y-55301895D01*
X82200000Y-65197810D01*
X82179998Y-65265931D01*
X82163095Y-65286905D01*
X81236905Y-66213095D01*
X81174593Y-66247121D01*
X81147810Y-66250000D01*
X77806500Y-66250000D01*
X77738379Y-66229998D01*
X77691886Y-66176342D01*
X77680500Y-66124000D01*
X77680500Y-65422326D01*
X77665966Y-65349260D01*
X77610601Y-65266399D01*
X77527740Y-65211034D01*
X77454674Y-65196500D01*
X75998690Y-65196500D01*
X75930569Y-65176498D01*
X75909595Y-65159595D01*
X70000000Y-59250000D01*
X66487040Y-56991669D01*
X70922001Y-56991669D01*
X70922371Y-56998490D01*
X70927895Y-57049352D01*
X70931521Y-57064604D01*
X70976676Y-57185054D01*
X70985214Y-57200649D01*
X71061715Y-57302724D01*
X71074276Y-57315285D01*
X71176351Y-57391786D01*
X71191946Y-57400324D01*
X71312394Y-57445478D01*
X71327649Y-57449105D01*
X71378514Y-57454631D01*
X71385328Y-57455000D01*
X74157885Y-57455000D01*
X74173124Y-57450525D01*
X74174329Y-57449135D01*
X74176000Y-57441452D01*
X74176000Y-57436884D01*
X74684000Y-57436884D01*
X74688475Y-57452123D01*
X74689865Y-57453328D01*
X74697548Y-57454999D01*
X77474669Y-57454999D01*
X77481490Y-57454629D01*
X77532352Y-57449105D01*
X77547604Y-57445479D01*
X77668054Y-57400324D01*
X77683649Y-57391786D01*
X77785724Y-57315285D01*
X77798285Y-57302724D01*
X77874786Y-57200649D01*
X77883324Y-57185054D01*
X77928478Y-57064606D01*
X77932105Y-57049351D01*
X77937631Y-56998486D01*
X77938000Y-56991672D01*
X77938000Y-55469115D01*
X77933525Y-55453876D01*
X77932135Y-55452671D01*
X77924452Y-55451000D01*
X74702115Y-55451000D01*
X74686876Y-55455475D01*
X74685671Y-55456865D01*
X74684000Y-55464548D01*
X74684000Y-57436884D01*
X74176000Y-57436884D01*
X74176000Y-55469115D01*
X74171525Y-55453876D01*
X74170135Y-55452671D01*
X74162452Y-55451000D01*
X70940116Y-55451000D01*
X70924877Y-55455475D01*
X70923672Y-55456865D01*
X70922001Y-55464548D01*
X70922001Y-56991669D01*
X66487040Y-56991669D01*
X66389364Y-56928877D01*
X66342879Y-56875216D01*
X66331500Y-56822890D01*
X66331500Y-56721326D01*
X66316966Y-56648260D01*
X66261601Y-56565399D01*
X66178740Y-56510034D01*
X66105674Y-56495500D01*
X65752227Y-56495500D01*
X65684092Y-56475488D01*
X64097406Y-55455475D01*
X63000000Y-54750000D01*
X61750000Y-54500000D01*
X51226000Y-54500000D01*
X51157879Y-54479998D01*
X51111386Y-54426342D01*
X51100000Y-54374000D01*
X51100000Y-53270438D01*
X52088000Y-53270438D01*
X52088337Y-53276953D01*
X52097894Y-53369057D01*
X52100788Y-53382456D01*
X52150381Y-53531107D01*
X52156555Y-53544286D01*
X52238788Y-53677173D01*
X52247824Y-53688574D01*
X52358429Y-53798986D01*
X52369840Y-53807998D01*
X52502880Y-53890004D01*
X52516061Y-53896151D01*
X52664814Y-53945491D01*
X52678190Y-53948358D01*
X52769097Y-53957672D01*
X52775513Y-53958000D01*
X52798885Y-53958000D01*
X52814124Y-53953525D01*
X52815329Y-53952135D01*
X52817000Y-53944452D01*
X52817000Y-53939885D01*
X53325000Y-53939885D01*
X53329475Y-53955124D01*
X53330865Y-53956329D01*
X53338548Y-53958000D01*
X53366438Y-53958000D01*
X53372953Y-53957663D01*
X53465057Y-53948106D01*
X53478456Y-53945212D01*
X53627107Y-53895619D01*
X53640286Y-53889445D01*
X53773173Y-53807212D01*
X53784574Y-53798176D01*
X53894986Y-53687571D01*
X53903998Y-53676160D01*
X53986004Y-53543120D01*
X53992151Y-53529939D01*
X54014796Y-53461669D01*
X54359001Y-53461669D01*
X54359371Y-53468490D01*
X54364895Y-53519352D01*
X54368521Y-53534604D01*
X54413676Y-53655054D01*
X54422214Y-53670649D01*
X54498715Y-53772724D01*
X54511276Y-53785285D01*
X54613351Y-53861786D01*
X54628946Y-53870324D01*
X54749394Y-53915478D01*
X54764649Y-53919105D01*
X54815514Y-53924631D01*
X54822328Y-53925000D01*
X54894885Y-53925000D01*
X54910124Y-53920525D01*
X54911329Y-53919135D01*
X54913000Y-53911452D01*
X54913000Y-53906884D01*
X55421000Y-53906884D01*
X55425475Y-53922123D01*
X55426865Y-53923328D01*
X55434548Y-53924999D01*
X55511669Y-53924999D01*
X55518490Y-53924629D01*
X55569352Y-53919105D01*
X55584604Y-53915479D01*
X55705054Y-53870324D01*
X55720649Y-53861786D01*
X55822724Y-53785285D01*
X55835285Y-53772724D01*
X55911786Y-53670649D01*
X55920324Y-53655054D01*
X55965478Y-53534606D01*
X55969105Y-53519351D01*
X55974631Y-53468486D01*
X55975000Y-53461672D01*
X55975000Y-53461669D01*
X56259001Y-53461669D01*
X56259371Y-53468490D01*
X56264895Y-53519352D01*
X56268521Y-53534604D01*
X56313676Y-53655054D01*
X56322214Y-53670649D01*
X56398715Y-53772724D01*
X56411276Y-53785285D01*
X56513351Y-53861786D01*
X56528946Y-53870324D01*
X56649394Y-53915478D01*
X56664649Y-53919105D01*
X56715514Y-53924631D01*
X56722328Y-53925000D01*
X56794885Y-53925000D01*
X56810124Y-53920525D01*
X56811329Y-53919135D01*
X56813000Y-53911452D01*
X56813000Y-53906884D01*
X57321000Y-53906884D01*
X57325475Y-53922123D01*
X57326865Y-53923328D01*
X57334548Y-53924999D01*
X57411669Y-53924999D01*
X57418490Y-53924629D01*
X57469352Y-53919105D01*
X57484604Y-53915479D01*
X57605054Y-53870324D01*
X57620649Y-53861786D01*
X57722724Y-53785285D01*
X57735285Y-53772724D01*
X57811786Y-53670649D01*
X57820324Y-53655054D01*
X57865478Y-53534606D01*
X57870932Y-53511669D01*
X57873718Y-53512331D01*
X57895738Y-53459317D01*
X57954095Y-53418883D01*
X58025049Y-53416418D01*
X58086072Y-53452706D01*
X58092514Y-53460209D01*
X58094096Y-53462205D01*
X58208829Y-53576739D01*
X58220240Y-53585751D01*
X58358243Y-53670816D01*
X58371424Y-53676963D01*
X58525710Y-53728138D01*
X58539086Y-53731005D01*
X58633438Y-53740672D01*
X58639854Y-53741000D01*
X59489885Y-53741000D01*
X59505124Y-53736525D01*
X59506329Y-53735135D01*
X59508000Y-53727452D01*
X59508000Y-53722884D01*
X60016000Y-53722884D01*
X60020475Y-53738123D01*
X60021865Y-53739328D01*
X60029548Y-53740999D01*
X60884095Y-53740999D01*
X60890614Y-53740662D01*
X60986206Y-53730743D01*
X60999600Y-53727851D01*
X61153784Y-53676412D01*
X61166962Y-53670239D01*
X61304807Y-53584937D01*
X61316208Y-53575901D01*
X61430739Y-53461171D01*
X61439751Y-53449760D01*
X61524816Y-53311757D01*
X61530963Y-53298576D01*
X61582138Y-53144290D01*
X61585005Y-53130914D01*
X61594672Y-53036562D01*
X61595000Y-53030146D01*
X61595000Y-52880115D01*
X61590525Y-52864876D01*
X61589135Y-52863671D01*
X61581452Y-52862000D01*
X60034115Y-52862000D01*
X60018876Y-52866475D01*
X60017671Y-52867865D01*
X60016000Y-52875548D01*
X60016000Y-53722884D01*
X59508000Y-53722884D01*
X59508000Y-52685095D01*
X68898001Y-52685095D01*
X68898338Y-52691614D01*
X68908257Y-52787206D01*
X68911149Y-52800600D01*
X68962588Y-52954784D01*
X68968761Y-52967962D01*
X69054063Y-53105807D01*
X69063099Y-53117208D01*
X69177829Y-53231739D01*
X69189240Y-53240751D01*
X69327243Y-53325816D01*
X69340424Y-53331963D01*
X69494710Y-53383138D01*
X69508086Y-53386005D01*
X69602438Y-53395672D01*
X69608854Y-53396000D01*
X70383885Y-53395999D01*
X70399124Y-53391524D01*
X70400329Y-53390134D01*
X70402000Y-53382451D01*
X70402000Y-53377884D01*
X70910000Y-53377884D01*
X70916896Y-53401370D01*
X70922000Y-53436868D01*
X70922000Y-54924885D01*
X70926475Y-54940124D01*
X70927865Y-54941329D01*
X70935548Y-54943000D01*
X74157885Y-54943000D01*
X74173124Y-54938525D01*
X74174329Y-54937135D01*
X74176000Y-54929452D01*
X74176000Y-54924885D01*
X74684000Y-54924885D01*
X74688475Y-54940124D01*
X74689865Y-54941329D01*
X74697548Y-54943000D01*
X77919884Y-54943000D01*
X77935123Y-54938525D01*
X77936328Y-54937135D01*
X77937999Y-54929452D01*
X77937999Y-53402331D01*
X77937629Y-53395508D01*
X77932105Y-53344648D01*
X77928479Y-53329396D01*
X77883324Y-53208946D01*
X77874786Y-53193351D01*
X77798285Y-53091276D01*
X77785724Y-53078715D01*
X77683649Y-53002214D01*
X77668054Y-52993676D01*
X77547606Y-52948522D01*
X77532351Y-52944895D01*
X77481486Y-52939369D01*
X77474672Y-52939000D01*
X74702115Y-52939001D01*
X74686876Y-52943476D01*
X74685671Y-52944866D01*
X74684000Y-52952549D01*
X74684000Y-54924885D01*
X74176000Y-54924885D01*
X74176000Y-52957116D01*
X74171525Y-52941877D01*
X74170135Y-52940672D01*
X74162452Y-52939001D01*
X72527062Y-52939001D01*
X72458941Y-52918999D01*
X72412448Y-52865343D01*
X72402344Y-52795069D01*
X72403860Y-52786596D01*
X72404005Y-52785922D01*
X72413672Y-52691562D01*
X72414000Y-52685146D01*
X72414000Y-51160115D01*
X72409525Y-51144876D01*
X72408135Y-51143671D01*
X72400452Y-51142000D01*
X70928115Y-51142000D01*
X70912876Y-51146475D01*
X70911671Y-51147865D01*
X70910000Y-51155548D01*
X70910000Y-53377884D01*
X70402000Y-53377884D01*
X70402000Y-51160115D01*
X70397525Y-51144876D01*
X70396135Y-51143671D01*
X70388452Y-51142000D01*
X68916116Y-51142000D01*
X68900877Y-51146475D01*
X68899672Y-51147865D01*
X68898001Y-51155548D01*
X68898001Y-52685095D01*
X59508000Y-52685095D01*
X59508000Y-52335885D01*
X60016000Y-52335885D01*
X60020475Y-52351124D01*
X60021865Y-52352329D01*
X60029548Y-52354000D01*
X61576884Y-52354000D01*
X61592123Y-52349525D01*
X61593328Y-52348135D01*
X61594999Y-52340452D01*
X61594999Y-52185905D01*
X61594662Y-52179386D01*
X61584743Y-52083794D01*
X61581851Y-52070400D01*
X61530412Y-51916216D01*
X61524239Y-51903038D01*
X61438937Y-51765193D01*
X61429901Y-51753792D01*
X61315171Y-51639261D01*
X61303760Y-51630249D01*
X61165757Y-51545184D01*
X61152576Y-51539037D01*
X60998290Y-51487862D01*
X60984914Y-51484995D01*
X60890562Y-51475328D01*
X60884145Y-51475000D01*
X60034115Y-51475000D01*
X60018876Y-51479475D01*
X60017671Y-51480865D01*
X60016000Y-51488548D01*
X60016000Y-52335885D01*
X59508000Y-52335885D01*
X59508000Y-51493116D01*
X59503525Y-51477877D01*
X59502135Y-51476672D01*
X59494452Y-51475001D01*
X58639905Y-51475001D01*
X58633386Y-51475338D01*
X58537794Y-51485257D01*
X58524400Y-51488149D01*
X58370216Y-51539588D01*
X58357038Y-51545761D01*
X58219193Y-51631063D01*
X58207792Y-51640099D01*
X58093261Y-51754829D01*
X58084249Y-51766240D01*
X57999184Y-51904243D01*
X57993037Y-51917424D01*
X57968258Y-51992130D01*
X57927827Y-52050489D01*
X57862263Y-52077726D01*
X57792381Y-52065192D01*
X57747838Y-52028026D01*
X57735284Y-52011275D01*
X57722724Y-51998715D01*
X57620649Y-51922214D01*
X57605054Y-51913676D01*
X57484606Y-51868522D01*
X57469351Y-51864895D01*
X57418486Y-51859369D01*
X57411672Y-51859000D01*
X57339115Y-51859000D01*
X57323876Y-51863475D01*
X57322671Y-51864865D01*
X57321000Y-51872548D01*
X57321000Y-53906884D01*
X56813000Y-53906884D01*
X56813000Y-53164115D01*
X56808525Y-53148876D01*
X56807135Y-53147671D01*
X56799452Y-53146000D01*
X56277116Y-53146000D01*
X56261877Y-53150475D01*
X56260672Y-53151865D01*
X56259001Y-53159548D01*
X56259001Y-53461669D01*
X55975000Y-53461669D01*
X55975000Y-53164115D01*
X55970525Y-53148876D01*
X55969135Y-53147671D01*
X55961452Y-53146000D01*
X55439115Y-53146000D01*
X55423876Y-53150475D01*
X55422671Y-53151865D01*
X55421000Y-53159548D01*
X55421000Y-53906884D01*
X54913000Y-53906884D01*
X54913000Y-53164115D01*
X54908525Y-53148876D01*
X54907135Y-53147671D01*
X54899452Y-53146000D01*
X54377116Y-53146000D01*
X54361877Y-53150475D01*
X54360672Y-53151865D01*
X54359001Y-53159548D01*
X54359001Y-53461669D01*
X54014796Y-53461669D01*
X54041491Y-53381186D01*
X54044358Y-53367810D01*
X54053672Y-53276903D01*
X54053929Y-53271874D01*
X54049525Y-53256876D01*
X54048135Y-53255671D01*
X54040452Y-53254000D01*
X53343115Y-53254000D01*
X53327876Y-53258475D01*
X53326671Y-53259865D01*
X53325000Y-53267548D01*
X53325000Y-53939885D01*
X52817000Y-53939885D01*
X52817000Y-53272115D01*
X52812525Y-53256876D01*
X52811135Y-53255671D01*
X52803452Y-53254000D01*
X52106115Y-53254000D01*
X52090876Y-53258475D01*
X52089671Y-53259865D01*
X52088000Y-53267548D01*
X52088000Y-53270438D01*
X51100000Y-53270438D01*
X51100000Y-49126000D01*
X51120002Y-49057879D01*
X51173658Y-49011386D01*
X51226000Y-49000000D01*
X53220506Y-49000000D01*
X53288627Y-49020002D01*
G37*
G04 #@! TD.AperFunction*
M02*
