%FSLAX45Y45*%
G04 Gerber Fmt 4.5, Leading zero omitted, Abs format (unit mm)*
G04 Created by KiCad (PCBNEW 6.0.2+dfsg-1) date 2022-12-10 00:50:00*
%MOMM*%
%LPD*%
G01*
G04 APERTURE LIST*
%TA.AperFunction,Profile*%
%ADD10C,0.100000*%
%TD*%
%TA.AperFunction,Profile*%
%ADD11C,0.150000*%
%TD*%
%ADD12C,0.200000*%
%ADD13C,0.025000*%
%ADD14C,0.040000*%
%ADD15C,0.050000*%
%ADD16C,0.060000*%
%ADD17C,0.080000*%
%ADD18C,0.089000*%
%ADD19C,0.090000*%
%ADD20C,0.092000*%
%ADD21C,0.100000*%
%ADD22C,0.102000*%
%ADD23C,0.119000*%
%ADD24C,0.160020*%
%ADD25C,0.163000*%
%ADD26C,0.180000*%
%ADD27C,0.230000*%
%ADD28C,0.400000*%
G04 APERTURE END LIST*
D10*
X15800000Y-4400000D02*
X15800000Y-14300000D01*
X4000000Y-14300000D02*
X4000000Y-4400000D01*
X4400000Y-4000000D02*
X15400000Y-4000000D01*
X15400000Y-14700000D02*
X4400000Y-14700000D01*
D11*
X15400000Y-14700000D02*
G75*
G03*
X15800000Y-14300000I0J400000D01*
G01*
X4400000Y-4000000D02*
G75*
G03*
X4000000Y-4400000I0J-400000D01*
G01*
X4000000Y-14300000D02*
G75*
G03*
X4400000Y-14700000I400000J0D01*
G01*
X15800000Y-4400000D02*
G75*
G03*
X15400000Y-4000000I-400000J0D01*
G01*
D12*
D13*
X4812500Y-9562500D02*
X4837500Y-9587500D01*
X4837500Y-9562500D02*
X4812500Y-9587500D01*
X4957500Y-9880000D02*
X4982500Y-9905000D01*
X4982500Y-9880000D02*
X4957500Y-9905000D01*
X5112500Y-9687500D02*
X5137500Y-9712500D01*
X5137500Y-9687500D02*
X5112500Y-9712500D01*
X5462500Y-9767500D02*
X5487500Y-9792500D01*
X5487500Y-9767500D02*
X5462500Y-9792500D01*
X5575000Y-9715000D02*
X5600000Y-9740000D01*
X5600000Y-9715000D02*
X5575000Y-9740000D01*
X5650000Y-9657500D02*
X5675000Y-9682500D01*
X5675000Y-9657500D02*
X5650000Y-9682500D01*
X7412500Y-7962500D02*
X7437500Y-7987500D01*
X7437500Y-7962500D02*
X7412500Y-7987500D01*
X8687500Y-7337500D02*
X8712500Y-7362500D01*
X8712500Y-7337500D02*
X8687500Y-7362500D01*
X9162500Y-6937500D02*
X9187500Y-6962500D01*
X9187500Y-6937500D02*
X9162500Y-6962500D01*
X9187500Y-7337500D02*
X9212500Y-7362500D01*
X9212500Y-7337500D02*
X9187500Y-7362500D01*
X9187500Y-9487500D02*
X9212500Y-9512500D01*
X9212500Y-9487500D02*
X9187500Y-9512500D01*
X9217500Y-7847500D02*
X9242500Y-7872500D01*
X9242500Y-7847500D02*
X9217500Y-7872500D01*
X9262500Y-8162500D02*
X9287500Y-8187500D01*
X9287500Y-8162500D02*
X9262500Y-8187500D01*
X9362500Y-8287500D02*
X9387500Y-8312500D01*
X9387500Y-8287500D02*
X9362500Y-8312500D01*
X9407500Y-6207500D02*
X9432500Y-6232500D01*
X9432500Y-6207500D02*
X9407500Y-6232500D01*
X9447500Y-6347500D02*
X9472500Y-6372500D01*
X9472500Y-6347500D02*
X9447500Y-6372500D01*
X9527500Y-6807500D02*
X9552500Y-6832500D01*
X9552500Y-6807500D02*
X9527500Y-6832500D01*
X9607500Y-6167500D02*
X9632500Y-6192500D01*
X9632500Y-6167500D02*
X9607500Y-6192500D01*
X9607500Y-6467500D02*
X9632500Y-6492500D01*
X9632500Y-6467500D02*
X9607500Y-6492500D01*
X9878500Y-12954500D02*
X9903500Y-12979500D01*
X9903500Y-12954500D02*
X9878500Y-12979500D01*
X9887500Y-10537500D02*
X9912500Y-10562500D01*
X9912500Y-10537500D02*
X9887500Y-10562500D01*
X9947500Y-9187500D02*
X9972500Y-9212500D01*
X9972500Y-9187500D02*
X9947500Y-9212500D01*
X9987500Y-6337500D02*
X10012500Y-6362500D01*
X10012500Y-6337500D02*
X9987500Y-6362500D01*
X9987500Y-10537500D02*
X10012500Y-10562500D01*
X10012500Y-10537500D02*
X9987500Y-10562500D01*
X10087500Y-7487500D02*
X10112500Y-7512500D01*
X10112500Y-7487500D02*
X10087500Y-7512500D01*
X10157500Y-9007500D02*
X10182500Y-9032500D01*
X10182500Y-9007500D02*
X10157500Y-9032500D01*
X10187500Y-8187500D02*
X10212500Y-8212500D01*
X10212500Y-8187500D02*
X10187500Y-8212500D01*
X10797500Y-4447500D02*
X10822500Y-4472500D01*
X10822500Y-4447500D02*
X10797500Y-4472500D01*
X10807500Y-4947500D02*
X10832500Y-4972500D01*
X10832500Y-4947500D02*
X10807500Y-4972500D01*
X10837500Y-10712500D02*
X10862500Y-10737500D01*
X10862500Y-10712500D02*
X10837500Y-10737500D01*
X10862500Y-10962500D02*
X10887500Y-10987500D01*
X10887500Y-10962500D02*
X10862500Y-10987500D01*
X10862500Y-11037500D02*
X10887500Y-11062500D01*
X10887500Y-11037500D02*
X10862500Y-11062500D01*
X10865019Y-10796221D02*
X10890019Y-10821221D01*
X10890019Y-10796221D02*
X10865019Y-10821221D01*
X10917500Y-4447500D02*
X10942500Y-4472500D01*
X10942500Y-4447500D02*
X10917500Y-4472500D01*
X11042751Y-5052249D02*
X11067751Y-5077249D01*
X11067751Y-5052249D02*
X11042751Y-5077249D01*
X11097500Y-4977500D02*
X11122500Y-5002500D01*
X11122500Y-4977500D02*
X11097500Y-5002500D01*
X11407500Y-5067500D02*
X11432500Y-5092500D01*
X11432500Y-5067500D02*
X11407500Y-5092500D01*
X11407500Y-5227500D02*
X11432500Y-5252500D01*
X11432500Y-5227500D02*
X11407500Y-5252500D01*
X11447500Y-5447500D02*
X11472500Y-5472500D01*
X11472500Y-5447500D02*
X11447500Y-5472500D01*
X11462751Y-5647500D02*
X11487751Y-5672500D01*
X11487751Y-5647500D02*
X11462751Y-5672500D01*
X11507500Y-11787500D02*
X11532500Y-11812500D01*
X11532500Y-11787500D02*
X11507500Y-11812500D01*
X11512500Y-7612500D02*
X11537500Y-7637500D01*
X11537500Y-7612500D02*
X11512500Y-7637500D01*
X11527500Y-5587500D02*
X11552500Y-5612500D01*
X11552500Y-5587500D02*
X11527500Y-5612500D01*
X11587500Y-7737500D02*
X11612500Y-7762500D01*
X11612500Y-7737500D02*
X11587500Y-7762500D01*
X11592500Y-11590000D02*
X11617500Y-11615000D01*
X11617500Y-11590000D02*
X11592500Y-11615000D01*
X11662500Y-8062500D02*
X11687500Y-8087500D01*
X11687500Y-8062500D02*
X11662500Y-8087500D01*
X11677500Y-10707500D02*
X11702500Y-10732500D01*
X11702500Y-10707500D02*
X11677500Y-10732500D01*
X11677500Y-11077500D02*
X11702500Y-11102500D01*
X11702500Y-11077500D02*
X11677500Y-11102500D01*
X11687500Y-10787500D02*
X11712500Y-10812500D01*
X11712500Y-10787500D02*
X11687500Y-10812500D01*
X11767500Y-13087500D02*
X11792500Y-13112500D01*
X11792500Y-13087500D02*
X11767500Y-13112500D01*
X11837500Y-7887500D02*
X11862500Y-7912500D01*
X11862500Y-7887500D02*
X11837500Y-7912500D01*
X11862500Y-10112500D02*
X11887500Y-10137500D01*
X11887500Y-10112500D02*
X11862500Y-10137500D01*
X11937500Y-10412500D02*
X11962500Y-10437500D01*
X11962500Y-10412500D02*
X11937500Y-10437500D01*
X11967500Y-11780000D02*
X11992500Y-11805000D01*
X11992500Y-11780000D02*
X11967500Y-11805000D01*
X11987500Y-10737500D02*
X12012500Y-10762500D01*
X12012500Y-10737500D02*
X11987500Y-10762500D01*
X12037500Y-10062500D02*
X12062500Y-10087500D01*
X12062500Y-10062500D02*
X12037500Y-10087500D01*
X12062500Y-10387500D02*
X12087500Y-10412500D01*
X12087500Y-10387500D02*
X12062500Y-10412500D01*
X12112500Y-10112500D02*
X12137500Y-10137500D01*
X12137500Y-10112500D02*
X12112500Y-10137500D01*
X12137500Y-7462500D02*
X12162500Y-7487500D01*
X12162500Y-7462500D02*
X12137500Y-7487500D01*
X12212500Y-9637500D02*
X12237500Y-9662500D01*
X12237500Y-9637500D02*
X12212500Y-9662500D01*
X12237500Y-9262500D02*
X12262500Y-9287500D01*
X12262500Y-9262500D02*
X12237500Y-9287500D01*
X12237500Y-10762500D02*
X12262500Y-10787500D01*
X12262500Y-10762500D02*
X12237500Y-10787500D01*
X12312500Y-9212500D02*
X12337500Y-9237500D01*
X12337500Y-9212500D02*
X12312500Y-9237500D01*
X12337500Y-9737500D02*
X12362500Y-9762500D01*
X12362500Y-9737500D02*
X12337500Y-9762500D01*
X12387500Y-5812500D02*
X12412500Y-5837500D01*
X12412500Y-5812500D02*
X12387500Y-5837500D01*
X12412500Y-6337500D02*
X12437500Y-6362500D01*
X12437500Y-6337500D02*
X12412500Y-6362500D01*
X12412500Y-9562500D02*
X12437500Y-9587500D01*
X12437500Y-9562500D02*
X12412500Y-9587500D01*
X12487500Y-9112500D02*
X12512500Y-9137500D01*
X12512500Y-9112500D02*
X12487500Y-9137500D01*
X12487500Y-9412500D02*
X12512500Y-9437500D01*
X12512500Y-9412500D02*
X12487500Y-9437500D01*
X12487500Y-9562500D02*
X12512500Y-9587500D01*
X12512500Y-9562500D02*
X12487500Y-9587500D01*
X12487500Y-9737500D02*
X12512500Y-9762500D01*
X12512500Y-9737500D02*
X12487500Y-9762500D01*
X12512500Y-5812500D02*
X12537500Y-5837500D01*
X12537500Y-5812500D02*
X12512500Y-5837500D01*
X12537500Y-6337500D02*
X12562500Y-6362500D01*
X12562500Y-6337500D02*
X12537500Y-6362500D01*
X12537500Y-8037500D02*
X12562500Y-8062500D01*
X12562500Y-8037500D02*
X12537500Y-8062500D01*
X12555000Y-10072500D02*
X12580000Y-10097500D01*
X12580000Y-10072500D02*
X12555000Y-10097500D01*
X12597500Y-9947500D02*
X12622500Y-9972500D01*
X12622500Y-9947500D02*
X12597500Y-9972500D01*
X12607500Y-9227500D02*
X12632500Y-9252500D01*
X12632500Y-9227500D02*
X12607500Y-9252500D01*
X12637500Y-5812500D02*
X12662500Y-5837500D01*
X12662500Y-5812500D02*
X12637500Y-5837500D01*
X12637500Y-6337500D02*
X12662500Y-6362500D01*
X12662500Y-6337500D02*
X12637500Y-6362500D01*
X12637500Y-10137500D02*
X12662500Y-10162500D01*
X12662500Y-10137500D02*
X12637500Y-10162500D01*
X12657500Y-9157500D02*
X12682500Y-9182500D01*
X12682500Y-9157500D02*
X12657500Y-9182500D01*
X12667500Y-10537500D02*
X12692500Y-10562500D01*
X12692500Y-10537500D02*
X12667500Y-10562500D01*
X12697500Y-10085000D02*
X12722500Y-10110000D01*
X12722500Y-10085000D02*
X12697500Y-10110000D01*
X12747500Y-9237500D02*
X12772500Y-9262500D01*
X12772500Y-9237500D02*
X12747500Y-9262500D01*
X12762500Y-5812500D02*
X12787500Y-5837500D01*
X12787500Y-5812500D02*
X12762500Y-5837500D01*
X12762500Y-6337500D02*
X12787500Y-6362500D01*
X12787500Y-6337500D02*
X12762500Y-6362500D01*
X12777500Y-9097500D02*
X12802500Y-9122500D01*
X12802500Y-9097500D02*
X12777500Y-9122500D01*
X12812500Y-10112500D02*
X12837500Y-10137500D01*
X12837500Y-10112500D02*
X12812500Y-10137500D01*
X12837500Y-9412500D02*
X12862500Y-9437500D01*
X12862500Y-9412500D02*
X12837500Y-9437500D01*
X12862500Y-9237500D02*
X12887500Y-9262500D01*
X12887500Y-9237500D02*
X12862500Y-9262500D01*
X12862500Y-9912500D02*
X12887500Y-9937500D01*
X12887500Y-9912500D02*
X12862500Y-9937500D01*
X12862500Y-9987500D02*
X12887500Y-10012500D01*
X12887500Y-9987500D02*
X12862500Y-10012500D01*
X12887500Y-5812500D02*
X12912500Y-5837500D01*
X12912500Y-5812500D02*
X12887500Y-5837500D01*
X12887500Y-6337500D02*
X12912500Y-6362500D01*
X12912500Y-6337500D02*
X12887500Y-6362500D01*
X12912500Y-8612500D02*
X12937500Y-8637500D01*
X12937500Y-8612500D02*
X12912500Y-8637500D01*
X12912500Y-8687500D02*
X12937500Y-8712500D01*
X12937500Y-8687500D02*
X12912500Y-8712500D01*
X12927500Y-9847500D02*
X12952500Y-9872500D01*
X12952500Y-9847500D02*
X12927500Y-9872500D01*
X12937500Y-8487500D02*
X12962500Y-8512500D01*
X12962500Y-8487500D02*
X12937500Y-8512500D01*
X12947500Y-9487500D02*
X12972500Y-9512500D01*
X12972500Y-9487500D02*
X12947500Y-9512500D01*
X12987500Y-6337500D02*
X13012500Y-6362500D01*
X13012500Y-6337500D02*
X12987500Y-6362500D01*
X12987500Y-8937500D02*
X13012500Y-8962500D01*
X13012500Y-8937500D02*
X12987500Y-8962500D01*
X13012500Y-5812500D02*
X13037500Y-5837500D01*
X13037500Y-5812500D02*
X13012500Y-5837500D01*
X13027500Y-9487500D02*
X13052500Y-9512500D01*
X13052500Y-9487500D02*
X13027500Y-9512500D01*
X13057500Y-9187500D02*
X13082500Y-9212500D01*
X13082500Y-9187500D02*
X13057500Y-9212500D01*
X13087500Y-9537500D02*
X13112500Y-9562500D01*
X13112500Y-9537500D02*
X13087500Y-9562500D01*
X13107500Y-9967500D02*
X13132500Y-9992500D01*
X13132500Y-9967500D02*
X13107500Y-9992500D01*
X13112500Y-9462500D02*
X13137500Y-9487500D01*
X13137500Y-9462500D02*
X13112500Y-9487500D01*
X13137500Y-5812500D02*
X13162500Y-5837500D01*
X13162500Y-5812500D02*
X13137500Y-5837500D01*
X13162500Y-9187500D02*
X13187500Y-9212500D01*
X13187500Y-9187500D02*
X13162500Y-9212500D01*
X13197500Y-9967500D02*
X13222500Y-9992500D01*
X13222500Y-9967500D02*
X13197500Y-9992500D01*
X13207500Y-9517500D02*
X13232500Y-9542500D01*
X13232500Y-9517500D02*
X13207500Y-9542500D01*
X13207500Y-10067500D02*
X13232500Y-10092500D01*
X13232500Y-10067500D02*
X13207500Y-10092500D01*
X13212500Y-9062500D02*
X13237500Y-9087500D01*
X13237500Y-9062500D02*
X13212500Y-9087500D01*
X13262500Y-5812500D02*
X13287500Y-5837500D01*
X13287500Y-5812500D02*
X13262500Y-5837500D01*
X13277500Y-6137500D02*
X13302500Y-6162500D01*
X13302500Y-6137500D02*
X13277500Y-6162500D01*
X13277500Y-9397500D02*
X13302500Y-9422500D01*
X13302500Y-9397500D02*
X13277500Y-9422500D01*
X13277500Y-9477500D02*
X13302500Y-9502500D01*
X13302500Y-9477500D02*
X13277500Y-9502500D01*
X13297500Y-6337500D02*
X13322500Y-6362500D01*
X13322500Y-6337500D02*
X13297500Y-6362500D01*
X13337500Y-9537500D02*
X13362500Y-9562500D01*
X13362500Y-9537500D02*
X13337500Y-9562500D01*
X13387500Y-5812500D02*
X13412500Y-5837500D01*
X13412500Y-5812500D02*
X13387500Y-5837500D01*
X13387500Y-6387500D02*
X13412500Y-6412500D01*
X13412500Y-6387500D02*
X13387500Y-6412500D01*
X13397500Y-9757500D02*
X13422500Y-9782500D01*
X13422500Y-9757500D02*
X13397500Y-9782500D01*
X13412500Y-9412500D02*
X13437500Y-9437500D01*
X13437500Y-9412500D02*
X13412500Y-9437500D01*
X13412500Y-9537500D02*
X13437500Y-9562500D01*
X13437500Y-9537500D02*
X13412500Y-9562500D01*
X13462500Y-6337500D02*
X13487500Y-6362500D01*
X13487500Y-6337500D02*
X13462500Y-6362500D01*
X13462500Y-9012500D02*
X13487500Y-9037500D01*
X13487500Y-9012500D02*
X13462500Y-9037500D01*
X13487500Y-5812500D02*
X13512500Y-5837500D01*
X13512500Y-5812500D02*
X13487500Y-5837500D01*
X13512500Y-9437500D02*
X13537500Y-9462500D01*
X13537500Y-9437500D02*
X13512500Y-9462500D01*
X13557500Y-9237500D02*
X13582500Y-9262500D01*
X13582500Y-9237500D02*
X13557500Y-9262500D01*
X13587500Y-5812500D02*
X13612500Y-5837500D01*
X13612500Y-5812500D02*
X13587500Y-5837500D01*
X13587500Y-6337500D02*
X13612500Y-6362500D01*
X13612500Y-6337500D02*
X13587500Y-6362500D01*
X13597500Y-9747500D02*
X13622500Y-9772500D01*
X13622500Y-9747500D02*
X13597500Y-9772500D01*
X13686922Y-9212789D02*
X13711922Y-9237789D01*
X13711922Y-9212789D02*
X13686922Y-9237789D01*
X13687500Y-4657500D02*
X13712500Y-4682500D01*
X13712500Y-4657500D02*
X13687500Y-4682500D01*
X13687500Y-9562500D02*
X13712500Y-9587500D01*
X13712500Y-9562500D02*
X13687500Y-9587500D01*
X13712500Y-6337500D02*
X13737500Y-6362500D01*
X13737500Y-6337500D02*
X13712500Y-6362500D01*
X13738191Y-6038191D02*
X13763191Y-6063191D01*
X13763191Y-6038191D02*
X13738191Y-6063191D01*
X13837500Y-4657500D02*
X13862500Y-4682500D01*
X13862500Y-4657500D02*
X13837500Y-4682500D01*
X13837500Y-6037500D02*
X13862500Y-6062500D01*
X13862500Y-6037500D02*
X13837500Y-6062500D01*
X13837500Y-6337500D02*
X13862500Y-6362500D01*
X13862500Y-6337500D02*
X13837500Y-6362500D01*
X13962500Y-6037500D02*
X13987500Y-6062500D01*
X13987500Y-6037500D02*
X13962500Y-6062500D01*
X13962500Y-6337500D02*
X13987500Y-6362500D01*
X13987500Y-6337500D02*
X13962500Y-6362500D01*
X13987500Y-4657500D02*
X14012500Y-4682500D01*
X14012500Y-4657500D02*
X13987500Y-4682500D01*
X14087500Y-6037500D02*
X14112500Y-6062500D01*
X14112500Y-6037500D02*
X14087500Y-6062500D01*
X14087500Y-6337500D02*
X14112500Y-6362500D01*
X14112500Y-6337500D02*
X14087500Y-6362500D01*
X14137500Y-4657500D02*
X14162500Y-4682500D01*
X14162500Y-4657500D02*
X14137500Y-4682500D01*
X14187500Y-6037500D02*
X14212500Y-6062500D01*
X14212500Y-6037500D02*
X14187500Y-6062500D01*
X14187500Y-6337500D02*
X14212500Y-6362500D01*
X14212500Y-6337500D02*
X14187500Y-6362500D01*
X14212500Y-9212500D02*
X14237500Y-9237500D01*
X14237500Y-9212500D02*
X14212500Y-9237500D01*
X14247500Y-5377500D02*
X14272500Y-5402500D01*
X14272500Y-5377500D02*
X14247500Y-5402500D01*
X14427500Y-4657500D02*
X14452500Y-4682500D01*
X14452500Y-4657500D02*
X14427500Y-4682500D01*
X14547500Y-5127500D02*
X14572500Y-5152500D01*
X14572500Y-5127500D02*
X14547500Y-5152500D01*
D14*
X4450000Y-7870000D02*
G75*
G03*
X4450000Y-7870000I-20000J0D01*
G01*
X4550000Y-7830000D02*
G75*
G03*
X4550000Y-7830000I-20000J0D01*
G01*
X4710000Y-13910000D02*
G75*
G03*
X4710000Y-13910000I-20000J0D01*
G01*
X5090000Y-13770000D02*
G75*
G03*
X5090000Y-13770000I-20000J0D01*
G01*
X5100000Y-13870000D02*
G75*
G03*
X5100000Y-13870000I-20000J0D01*
G01*
X5195000Y-9450000D02*
G75*
G03*
X5195000Y-9450000I-20000J0D01*
G01*
X5330000Y-13480000D02*
G75*
G03*
X5330000Y-13480000I-20000J0D01*
G01*
X5590000Y-4560000D02*
G75*
G03*
X5590000Y-4560000I-20000J0D01*
G01*
X5680000Y-4560000D02*
G75*
G03*
X5680000Y-4560000I-20000J0D01*
G01*
X5760000Y-4560000D02*
G75*
G03*
X5760000Y-4560000I-20000J0D01*
G01*
X7245000Y-8875000D02*
G75*
G03*
X7245000Y-8875000I-20000J0D01*
G01*
X7420000Y-8500000D02*
G75*
G03*
X7420000Y-8500000I-20000J0D01*
G01*
X8845000Y-6050000D02*
G75*
G03*
X8845000Y-6050000I-20000J0D01*
G01*
X8895000Y-8500000D02*
G75*
G03*
X8895000Y-8500000I-20000J0D01*
G01*
X8995000Y-10825000D02*
G75*
G03*
X8995000Y-10825000I-20000J0D01*
G01*
X9000000Y-13160000D02*
G75*
G03*
X9000000Y-13160000I-20000J0D01*
G01*
X9070000Y-10450000D02*
G75*
G03*
X9070000Y-10450000I-20000J0D01*
G01*
X9220000Y-9950000D02*
G75*
G03*
X9220000Y-9950000I-20000J0D01*
G01*
X9250000Y-8360000D02*
G75*
G03*
X9250000Y-8360000I-20000J0D01*
G01*
X9260000Y-8625000D02*
G75*
G03*
X9260000Y-8625000I-20000J0D01*
G01*
X9270000Y-8775000D02*
G75*
G03*
X9270000Y-8775000I-20000J0D01*
G01*
X9270000Y-9000000D02*
G75*
G03*
X9270000Y-9000000I-20000J0D01*
G01*
X9420000Y-9210000D02*
G75*
G03*
X9420000Y-9210000I-20000J0D01*
G01*
X9445000Y-8700000D02*
G75*
G03*
X9445000Y-8700000I-20000J0D01*
G01*
X9500000Y-6060000D02*
G75*
G03*
X9500000Y-6060000I-20000J0D01*
G01*
X9620000Y-8825000D02*
G75*
G03*
X9620000Y-8825000I-20000J0D01*
G01*
X10010000Y-12225000D02*
G75*
G03*
X10010000Y-12225000I-20000J0D01*
G01*
X10040000Y-11210000D02*
G75*
G03*
X10040000Y-11210000I-20000J0D01*
G01*
X10050000Y-12410000D02*
G75*
G03*
X10050000Y-12410000I-20000J0D01*
G01*
X10180000Y-12240000D02*
G75*
G03*
X10180000Y-12240000I-20000J0D01*
G01*
X10220000Y-12400000D02*
G75*
G03*
X10220000Y-12400000I-20000J0D01*
G01*
X10240000Y-5640000D02*
G75*
G03*
X10240000Y-5640000I-20000J0D01*
G01*
X10260000Y-4760000D02*
G75*
G03*
X10260000Y-4760000I-20000J0D01*
G01*
X10320000Y-12420000D02*
G75*
G03*
X10320000Y-12420000I-20000J0D01*
G01*
X10360000Y-4760000D02*
G75*
G03*
X10360000Y-4760000I-20000J0D01*
G01*
X10400000Y-12680000D02*
G75*
G03*
X10400000Y-12680000I-20000J0D01*
G01*
X10460000Y-5300000D02*
G75*
G03*
X10460000Y-5300000I-20000J0D01*
G01*
X10520000Y-4900000D02*
G75*
G03*
X10520000Y-4900000I-20000J0D01*
G01*
X10520000Y-8850000D02*
G75*
G03*
X10520000Y-8850000I-20000J0D01*
G01*
X10595000Y-10175000D02*
G75*
G03*
X10595000Y-10175000I-20000J0D01*
G01*
X10620000Y-5300000D02*
G75*
G03*
X10620000Y-5300000I-20000J0D01*
G01*
X10640000Y-5380000D02*
G75*
G03*
X10640000Y-5380000I-20000J0D01*
G01*
X10695000Y-5275000D02*
G75*
G03*
X10695000Y-5275000I-20000J0D01*
G01*
X10695000Y-6975000D02*
G75*
G03*
X10695000Y-6975000I-20000J0D01*
G01*
X10720000Y-4960000D02*
G75*
G03*
X10720000Y-4960000I-20000J0D01*
G01*
X10720000Y-5400000D02*
G75*
G03*
X10720000Y-5400000I-20000J0D01*
G01*
X10720000Y-8875000D02*
G75*
G03*
X10720000Y-8875000I-20000J0D01*
G01*
X10750000Y-5330000D02*
G75*
G03*
X10750000Y-5330000I-20000J0D01*
G01*
X10900000Y-11600000D02*
G75*
G03*
X10900000Y-11600000I-20000J0D01*
G01*
X10920000Y-5420000D02*
G75*
G03*
X10920000Y-5420000I-20000J0D01*
G01*
X10970000Y-8960000D02*
G75*
G03*
X10970000Y-8960000I-20000J0D01*
G01*
X10980000Y-5181150D02*
G75*
G03*
X10980000Y-5181150I-20000J0D01*
G01*
X11200000Y-12300000D02*
G75*
G03*
X11200000Y-12300000I-20000J0D01*
G01*
X11210000Y-10080000D02*
G75*
G03*
X11210000Y-10080000I-20000J0D01*
G01*
X11270000Y-4820000D02*
G75*
G03*
X11270000Y-4820000I-20000J0D01*
G01*
X11280000Y-4960000D02*
G75*
G03*
X11280000Y-4960000I-20000J0D01*
G01*
X11300000Y-12880000D02*
G75*
G03*
X11300000Y-12880000I-20000J0D01*
G01*
X11320000Y-9990000D02*
G75*
G03*
X11320000Y-9990000I-20000J0D01*
G01*
X11535000Y-11885000D02*
G75*
G03*
X11535000Y-11885000I-20000J0D01*
G01*
X11620000Y-9460000D02*
G75*
G03*
X11620000Y-9460000I-20000J0D01*
G01*
X11757500Y-11490000D02*
G75*
G03*
X11757500Y-11490000I-20000J0D01*
G01*
X12050000Y-9700000D02*
G75*
G03*
X12050000Y-9700000I-20000J0D01*
G01*
X12145000Y-9650000D02*
G75*
G03*
X12145000Y-9650000I-20000J0D01*
G01*
X12940000Y-13500000D02*
G75*
G03*
X12940000Y-13500000I-20000J0D01*
G01*
X13010000Y-10430000D02*
G75*
G03*
X13010000Y-10430000I-20000J0D01*
G01*
X13390000Y-10370000D02*
G75*
G03*
X13390000Y-10370000I-20000J0D01*
G01*
X13670000Y-11375000D02*
G75*
G03*
X13670000Y-11375000I-20000J0D01*
G01*
X13730000Y-10525000D02*
G75*
G03*
X13730000Y-10525000I-20000J0D01*
G01*
X13770000Y-8275000D02*
G75*
G03*
X13770000Y-8275000I-20000J0D01*
G01*
X13770000Y-11600000D02*
G75*
G03*
X13770000Y-11600000I-20000J0D01*
G01*
X13780000Y-8370000D02*
G75*
G03*
X13780000Y-8370000I-20000J0D01*
G01*
X13790000Y-9150000D02*
G75*
G03*
X13790000Y-9150000I-20000J0D01*
G01*
X13845000Y-10500000D02*
G75*
G03*
X13845000Y-10500000I-20000J0D01*
G01*
X13860000Y-8290000D02*
G75*
G03*
X13860000Y-8290000I-20000J0D01*
G01*
X13860000Y-9240000D02*
G75*
G03*
X13860000Y-9240000I-20000J0D01*
G01*
X13890000Y-9140000D02*
G75*
G03*
X13890000Y-9140000I-20000J0D01*
G01*
X13945000Y-8325000D02*
G75*
G03*
X13945000Y-8325000I-20000J0D01*
G01*
X13960000Y-9210000D02*
G75*
G03*
X13960000Y-9210000I-20000J0D01*
G01*
X14520000Y-9700000D02*
G75*
G03*
X14520000Y-9700000I-20000J0D01*
G01*
X14645000Y-9925000D02*
G75*
G03*
X14645000Y-9925000I-20000J0D01*
G01*
X14770000Y-11440000D02*
G75*
G03*
X14770000Y-11440000I-20000J0D01*
G01*
X14990000Y-11360000D02*
G75*
G03*
X14990000Y-11360000I-20000J0D01*
G01*
X15040000Y-5160000D02*
G75*
G03*
X15040000Y-5160000I-20000J0D01*
G01*
D15*
X4390000Y-13235000D02*
X4390000Y-13285000D01*
X4365000Y-13260000D02*
X4415000Y-13260000D01*
X5100000Y-14295000D02*
X5100000Y-14345000D01*
X5075000Y-14320000D02*
X5125000Y-14320000D01*
X5180000Y-14085000D02*
X5180000Y-14135000D01*
X5155000Y-14110000D02*
X5205000Y-14110000D01*
X5200000Y-13225000D02*
X5200000Y-13275000D01*
X5175000Y-13250000D02*
X5225000Y-13250000D01*
X5990000Y-14075000D02*
X5990000Y-14125000D01*
X5965000Y-14100000D02*
X6015000Y-14100000D01*
X6020000Y-13235000D02*
X6020000Y-13285000D01*
X5995000Y-13260000D02*
X6045000Y-13260000D01*
X6225000Y-9975000D02*
X6225000Y-10025000D01*
X6200000Y-10000000D02*
X6250000Y-10000000D01*
X6250000Y-10350000D02*
X6250000Y-10400000D01*
X6225000Y-10375000D02*
X6275000Y-10375000D01*
X6425000Y-10625000D02*
X6425000Y-10675000D01*
X6400000Y-10650000D02*
X6450000Y-10650000D01*
X6810000Y-14075000D02*
X6810000Y-14125000D01*
X6785000Y-14100000D02*
X6835000Y-14100000D01*
X6820000Y-13235000D02*
X6820000Y-13285000D01*
X6795000Y-13260000D02*
X6845000Y-13260000D01*
X6950000Y-13775000D02*
X6950000Y-13825000D01*
X6925000Y-13800000D02*
X6975000Y-13800000D01*
X7060000Y-13255000D02*
X7060000Y-13305000D01*
X7035000Y-13280000D02*
X7085000Y-13280000D01*
X9890000Y-12415000D02*
X9890000Y-12465000D01*
X9865000Y-12440000D02*
X9915000Y-12440000D01*
X10100000Y-10175000D02*
X10100000Y-10225000D01*
X10075000Y-10200000D02*
X10125000Y-10200000D01*
X10175000Y-10750000D02*
X10175000Y-10800000D01*
X10150000Y-10775000D02*
X10200000Y-10775000D01*
X10540000Y-11895000D02*
X10540000Y-11945000D01*
X10515000Y-11920000D02*
X10565000Y-11920000D01*
X10625000Y-10925000D02*
X10625000Y-10975000D01*
X10600000Y-10950000D02*
X10650000Y-10950000D01*
X10740000Y-5575000D02*
X10740000Y-5625000D01*
X10715000Y-5600000D02*
X10765000Y-5600000D01*
X11120000Y-12835000D02*
X11120000Y-12885000D01*
X11095000Y-12860000D02*
X11145000Y-12860000D01*
X11270000Y-11195000D02*
X11270000Y-11245000D01*
X11245000Y-11220000D02*
X11295000Y-11220000D01*
X11380000Y-12435000D02*
X11380000Y-12485000D01*
X11355000Y-12460000D02*
X11405000Y-12460000D01*
X11400000Y-10150000D02*
X11400000Y-10200000D01*
X11375000Y-10175000D02*
X11425000Y-10175000D01*
X11450000Y-10679950D02*
X11450000Y-10729950D01*
X11425000Y-10704950D02*
X11475000Y-10704950D01*
X11470000Y-11625000D02*
X11470000Y-11675000D01*
X11445000Y-11650000D02*
X11495000Y-11650000D01*
X11580000Y-12135000D02*
X11580000Y-12185000D01*
X11555000Y-12160000D02*
X11605000Y-12160000D01*
X11902854Y-10827854D02*
X11902854Y-10877854D01*
X11877854Y-10852854D02*
X11927854Y-10852854D01*
X13630000Y-10015000D02*
X13630000Y-10065000D01*
X13605000Y-10040000D02*
X13655000Y-10040000D01*
X14259000Y-13943000D02*
X14259000Y-13993000D01*
X14234000Y-13968000D02*
X14284000Y-13968000D01*
X14275000Y-10025000D02*
X14275000Y-10075000D01*
X14250000Y-10050000D02*
X14300000Y-10050000D01*
X14366000Y-13955000D02*
X14366000Y-14005000D01*
X14341000Y-13980000D02*
X14391000Y-13980000D01*
X14500000Y-9350000D02*
X14500000Y-9400000D01*
X14475000Y-9375000D02*
X14525000Y-9375000D01*
X14575000Y-9275000D02*
X14575000Y-9325000D01*
X14550000Y-9300000D02*
X14600000Y-9300000D01*
X14600000Y-9375000D02*
X14600000Y-9425000D01*
X14575000Y-9400000D02*
X14625000Y-9400000D01*
X14600000Y-9475000D02*
X14600000Y-9525000D01*
X14575000Y-9500000D02*
X14625000Y-9500000D01*
D16*
X5361213Y-14311213D02*
X5361213Y-14268787D01*
X5318787Y-14268787D01*
X5318787Y-14311213D01*
X5361213Y-14311213D01*
X7061213Y-13581213D02*
X7061213Y-13538787D01*
X7018787Y-13538787D01*
X7018787Y-13581213D01*
X7061213Y-13581213D01*
X7846213Y-7721213D02*
X7846213Y-7678787D01*
X7803787Y-7678787D01*
X7803787Y-7721213D01*
X7846213Y-7721213D01*
X7981213Y-5671213D02*
X7981213Y-5628787D01*
X7938787Y-5628787D01*
X7938787Y-5671213D01*
X7981213Y-5671213D01*
X8001213Y-5821213D02*
X8001213Y-5778787D01*
X7958787Y-5778787D01*
X7958787Y-5821213D01*
X8001213Y-5821213D01*
X8121213Y-5691213D02*
X8121213Y-5648787D01*
X8078787Y-5648787D01*
X8078787Y-5691213D01*
X8121213Y-5691213D01*
X8141213Y-5821213D02*
X8141213Y-5778787D01*
X8098787Y-5778787D01*
X8098787Y-5821213D01*
X8141213Y-5821213D01*
X8796213Y-7621213D02*
X8796213Y-7578787D01*
X8753787Y-7578787D01*
X8753787Y-7621213D01*
X8796213Y-7621213D01*
X9721213Y-11371213D02*
X9721213Y-11328787D01*
X9678787Y-11328787D01*
X9678787Y-11371213D01*
X9721213Y-11371213D01*
X10161213Y-11871263D02*
X10161213Y-11828837D01*
X10118787Y-11828837D01*
X10118787Y-11871263D01*
X10161213Y-11871263D01*
X10246213Y-10146213D02*
X10246213Y-10103787D01*
X10203787Y-10103787D01*
X10203787Y-10146213D01*
X10246213Y-10146213D01*
X10471213Y-8371213D02*
X10471213Y-8328787D01*
X10428787Y-8328787D01*
X10428787Y-8371213D01*
X10471213Y-8371213D01*
X10621213Y-12521213D02*
X10621213Y-12478787D01*
X10578787Y-12478787D01*
X10578787Y-12521213D01*
X10621213Y-12521213D01*
X10661213Y-11201213D02*
X10661213Y-11158787D01*
X10618787Y-11158787D01*
X10618787Y-11201213D01*
X10661213Y-11201213D01*
X10946213Y-11371213D02*
X10946213Y-11328787D01*
X10903787Y-11328787D01*
X10903787Y-11371213D01*
X10946213Y-11371213D01*
X11521213Y-10046213D02*
X11521213Y-10003787D01*
X11478787Y-10003787D01*
X11478787Y-10046213D01*
X11521213Y-10046213D01*
X11846213Y-11121213D02*
X11846213Y-11078787D01*
X11803787Y-11078787D01*
X11803787Y-11121213D01*
X11846213Y-11121213D01*
X12115013Y-11289913D02*
X12115013Y-11247487D01*
X12072587Y-11247487D01*
X12072587Y-11289913D01*
X12115013Y-11289913D01*
X12396213Y-11496213D02*
X12396213Y-11453787D01*
X12353787Y-11453787D01*
X12353787Y-11496213D01*
X12396213Y-11496213D01*
X12415013Y-11639913D02*
X12415013Y-11597487D01*
X12372587Y-11597487D01*
X12372587Y-11639913D01*
X12415013Y-11639913D01*
X12440013Y-11264913D02*
X12440013Y-11222487D01*
X12397587Y-11222487D01*
X12397587Y-11264913D01*
X12440013Y-11264913D01*
X12721213Y-11546213D02*
X12721213Y-11503787D01*
X12678787Y-11503787D01*
X12678787Y-11546213D01*
X12721213Y-11546213D01*
X12740013Y-11289913D02*
X12740013Y-11247487D01*
X12697587Y-11247487D01*
X12697587Y-11289913D01*
X12740013Y-11289913D01*
X12896213Y-11071213D02*
X12896213Y-11028787D01*
X12853787Y-11028787D01*
X12853787Y-11071213D01*
X12896213Y-11071213D01*
X13521213Y-12421213D02*
X13521213Y-12378787D01*
X13478787Y-12378787D01*
X13478787Y-12421213D01*
X13521213Y-12421213D01*
X14346213Y-11046213D02*
X14346213Y-11003787D01*
X14303787Y-11003787D01*
X14303787Y-11046213D01*
X14346213Y-11046213D01*
X14971213Y-12471213D02*
X14971213Y-12428787D01*
X14928787Y-12428787D01*
X14928787Y-12471213D01*
X14971213Y-12471213D01*
X15231213Y-5411213D02*
X15231213Y-5368787D01*
X15188787Y-5368787D01*
X15188787Y-5411213D01*
X15231213Y-5411213D01*
X10385000Y-4157300D02*
X10415000Y-4127300D01*
X10385000Y-4097300D01*
X10355000Y-4127300D01*
X10385000Y-4157300D01*
D12*
X10405000Y-4157300D02*
X10405000Y-4097300D01*
X10365000Y-4157300D02*
X10365000Y-4097300D01*
X10405000Y-4097300D02*
G75*
G03*
X10365000Y-4097300I-20000J0D01*
G01*
X10365000Y-4157300D02*
G75*
G03*
X10405000Y-4157300I20000J0D01*
G01*
D16*
X10385000Y-4575300D02*
X10415000Y-4545300D01*
X10385000Y-4515300D01*
X10355000Y-4545300D01*
X10385000Y-4575300D01*
D12*
X10405000Y-4600300D02*
X10405000Y-4490300D01*
X10365000Y-4600300D02*
X10365000Y-4490300D01*
X10405000Y-4490300D02*
G75*
G03*
X10365000Y-4490300I-20000J0D01*
G01*
X10365000Y-4600300D02*
G75*
G03*
X10405000Y-4600300I20000J0D01*
G01*
D16*
X11249000Y-4157300D02*
X11279000Y-4127300D01*
X11249000Y-4097300D01*
X11219000Y-4127300D01*
X11249000Y-4157300D01*
D12*
X11269000Y-4157300D02*
X11269000Y-4097300D01*
X11229000Y-4157300D02*
X11229000Y-4097300D01*
X11269000Y-4097300D02*
G75*
G03*
X11229000Y-4097300I-20000J0D01*
G01*
X11229000Y-4157300D02*
G75*
G03*
X11269000Y-4157300I20000J0D01*
G01*
D16*
X11249000Y-4575300D02*
X11279000Y-4545300D01*
X11249000Y-4515300D01*
X11219000Y-4545300D01*
X11249000Y-4575300D01*
D12*
X11269000Y-4600300D02*
X11269000Y-4490300D01*
X11229000Y-4600300D02*
X11229000Y-4490300D01*
X11269000Y-4490300D02*
G75*
G03*
X11229000Y-4490300I-20000J0D01*
G01*
X11229000Y-4600300D02*
G75*
G03*
X11269000Y-4600300I20000J0D01*
G01*
D17*
X5060000Y-5585000D02*
X5140000Y-5665000D01*
X5140000Y-5585000D02*
X5060000Y-5665000D01*
X5140000Y-5625000D02*
G75*
G03*
X5140000Y-5625000I-40000J0D01*
G01*
X5060000Y-6460000D02*
X5140000Y-6540000D01*
X5140000Y-6460000D02*
X5060000Y-6540000D01*
X5140000Y-6500000D02*
G75*
G03*
X5140000Y-6500000I-40000J0D01*
G01*
X5485000Y-7560000D02*
X5565000Y-7640000D01*
X5565000Y-7560000D02*
X5485000Y-7640000D01*
X5565000Y-7600000D02*
G75*
G03*
X5565000Y-7600000I-40000J0D01*
G01*
X5560000Y-5110000D02*
X5640000Y-5190000D01*
X5640000Y-5110000D02*
X5560000Y-5190000D01*
X5640000Y-5150000D02*
G75*
G03*
X5640000Y-5150000I-40000J0D01*
G01*
X5585000Y-7460000D02*
X5665000Y-7540000D01*
X5665000Y-7460000D02*
X5585000Y-7540000D01*
X5665000Y-7500000D02*
G75*
G03*
X5665000Y-7500000I-40000J0D01*
G01*
X5685000Y-7560000D02*
X5765000Y-7640000D01*
X5765000Y-7560000D02*
X5685000Y-7640000D01*
X5765000Y-7600000D02*
G75*
G03*
X5765000Y-7600000I-40000J0D01*
G01*
X5785000Y-5585000D02*
X5865000Y-5665000D01*
X5865000Y-5585000D02*
X5785000Y-5665000D01*
X5865000Y-5625000D02*
G75*
G03*
X5865000Y-5625000I-40000J0D01*
G01*
X5785000Y-6485000D02*
X5865000Y-6565000D01*
X5865000Y-6485000D02*
X5785000Y-6565000D01*
X5865000Y-6525000D02*
G75*
G03*
X5865000Y-6525000I-40000J0D01*
G01*
X5860000Y-4585000D02*
X5940000Y-4665000D01*
X5940000Y-4585000D02*
X5860000Y-4665000D01*
X5940000Y-4625000D02*
G75*
G03*
X5940000Y-4625000I-40000J0D01*
G01*
X6010000Y-5635000D02*
X6090000Y-5715000D01*
X6090000Y-5635000D02*
X6010000Y-5715000D01*
X6090000Y-5675000D02*
G75*
G03*
X6090000Y-5675000I-40000J0D01*
G01*
X6660000Y-4360000D02*
X6740000Y-4440000D01*
X6740000Y-4360000D02*
X6660000Y-4440000D01*
X6740000Y-4400000D02*
G75*
G03*
X6740000Y-4400000I-40000J0D01*
G01*
X6735000Y-6635000D02*
X6815000Y-6715000D01*
X6815000Y-6635000D02*
X6735000Y-6715000D01*
X6815000Y-6675000D02*
G75*
G03*
X6815000Y-6675000I-40000J0D01*
G01*
X6760000Y-4210000D02*
X6840000Y-4290000D01*
X6840000Y-4210000D02*
X6760000Y-4290000D01*
X6840000Y-4250000D02*
G75*
G03*
X6840000Y-4250000I-40000J0D01*
G01*
X6810000Y-4360000D02*
X6890000Y-4440000D01*
X6890000Y-4360000D02*
X6810000Y-4440000D01*
X6890000Y-4400000D02*
G75*
G03*
X6890000Y-4400000I-40000J0D01*
G01*
X6860000Y-6810000D02*
X6940000Y-6890000D01*
X6940000Y-6810000D02*
X6860000Y-6890000D01*
X6940000Y-6850000D02*
G75*
G03*
X6940000Y-6850000I-40000J0D01*
G01*
X8360000Y-7860000D02*
X8440000Y-7940000D01*
X8440000Y-7860000D02*
X8360000Y-7940000D01*
X8440000Y-7900000D02*
G75*
G03*
X8440000Y-7900000I-40000J0D01*
G01*
X8860000Y-7885000D02*
X8940000Y-7965000D01*
X8940000Y-7885000D02*
X8860000Y-7965000D01*
X8940000Y-7925000D02*
G75*
G03*
X8940000Y-7925000I-40000J0D01*
G01*
X9610000Y-10110000D02*
X9690000Y-10190000D01*
X9690000Y-10110000D02*
X9610000Y-10190000D01*
X9690000Y-10150000D02*
G75*
G03*
X9690000Y-10150000I-40000J0D01*
G01*
X9860000Y-11620000D02*
X9940000Y-11700000D01*
X9940000Y-11620000D02*
X9860000Y-11700000D01*
X9940000Y-11660000D02*
G75*
G03*
X9940000Y-11660000I-40000J0D01*
G01*
X10580000Y-11400000D02*
X10660000Y-11480000D01*
X10660000Y-11400000D02*
X10580000Y-11480000D01*
X10660000Y-11440000D02*
G75*
G03*
X10660000Y-11440000I-40000J0D01*
G01*
X10980000Y-5780000D02*
X11060000Y-5860000D01*
X11060000Y-5780000D02*
X10980000Y-5860000D01*
X11060000Y-5820000D02*
G75*
G03*
X11060000Y-5820000I-40000J0D01*
G01*
X11000000Y-11890000D02*
X11080000Y-11970000D01*
X11080000Y-11890000D02*
X11000000Y-11970000D01*
X11080000Y-11930000D02*
G75*
G03*
X11080000Y-11930000I-40000J0D01*
G01*
X11060000Y-11660000D02*
X11140000Y-11740000D01*
X11140000Y-11660000D02*
X11060000Y-11740000D01*
X11140000Y-11700000D02*
G75*
G03*
X11140000Y-11700000I-40000J0D01*
G01*
X12500000Y-10910000D02*
X12580000Y-10990000D01*
X12580000Y-10910000D02*
X12500000Y-10990000D01*
X12580000Y-10950000D02*
G75*
G03*
X12580000Y-10950000I-40000J0D01*
G01*
X12960000Y-12585000D02*
X13040000Y-12665000D01*
X13040000Y-12585000D02*
X12960000Y-12665000D01*
X13040000Y-12625000D02*
G75*
G03*
X13040000Y-12625000I-40000J0D01*
G01*
X13385000Y-12660000D02*
X13465000Y-12740000D01*
X13465000Y-12660000D02*
X13385000Y-12740000D01*
X13465000Y-12700000D02*
G75*
G03*
X13465000Y-12700000I-40000J0D01*
G01*
X13410000Y-13310000D02*
X13490000Y-13390000D01*
X13490000Y-13310000D02*
X13410000Y-13390000D01*
X13490000Y-13350000D02*
G75*
G03*
X13490000Y-13350000I-40000J0D01*
G01*
X13700000Y-13320000D02*
X13780000Y-13400000D01*
X13780000Y-13320000D02*
X13700000Y-13400000D01*
X13780000Y-13360000D02*
G75*
G03*
X13780000Y-13360000I-40000J0D01*
G01*
X13710000Y-13060000D02*
X13790000Y-13140000D01*
X13790000Y-13060000D02*
X13710000Y-13140000D01*
X13790000Y-13100000D02*
G75*
G03*
X13790000Y-13100000I-40000J0D01*
G01*
X13835000Y-12735000D02*
X13915000Y-12815000D01*
X13915000Y-12735000D02*
X13835000Y-12815000D01*
X13915000Y-12775000D02*
G75*
G03*
X13915000Y-12775000I-40000J0D01*
G01*
X13935000Y-10835000D02*
X14015000Y-10915000D01*
X14015000Y-10835000D02*
X13935000Y-10915000D01*
X14015000Y-10875000D02*
G75*
G03*
X14015000Y-10875000I-40000J0D01*
G01*
X14140000Y-12300000D02*
X14220000Y-12380000D01*
X14220000Y-12300000D02*
X14140000Y-12380000D01*
X14220000Y-12340000D02*
G75*
G03*
X14220000Y-12340000I-40000J0D01*
G01*
X14335000Y-13435000D02*
X14415000Y-13515000D01*
X14415000Y-13435000D02*
X14335000Y-13515000D01*
X14415000Y-13475000D02*
G75*
G03*
X14415000Y-13475000I-40000J0D01*
G01*
X14440000Y-12580000D02*
X14520000Y-12660000D01*
X14520000Y-12580000D02*
X14440000Y-12660000D01*
X14520000Y-12620000D02*
G75*
G03*
X14520000Y-12620000I-40000J0D01*
G01*
X14885000Y-12610000D02*
X14965000Y-12690000D01*
X14965000Y-12610000D02*
X14885000Y-12690000D01*
X14965000Y-12650000D02*
G75*
G03*
X14965000Y-12650000I-40000J0D01*
G01*
X14910000Y-13035000D02*
X14990000Y-13115000D01*
X14990000Y-13035000D02*
X14910000Y-13115000D01*
X14990000Y-13075000D02*
G75*
G03*
X14990000Y-13075000I-40000J0D01*
G01*
X15110000Y-13635000D02*
X15190000Y-13715000D01*
X15190000Y-13635000D02*
X15110000Y-13715000D01*
X15190000Y-13675000D02*
G75*
G03*
X15190000Y-13675000I-40000J0D01*
G01*
X15160000Y-13310000D02*
X15240000Y-13390000D01*
X15240000Y-13310000D02*
X15160000Y-13390000D01*
X15240000Y-13350000D02*
G75*
G03*
X15240000Y-13350000I-40000J0D01*
G01*
X15285000Y-12760000D02*
X15365000Y-12840000D01*
X15365000Y-12760000D02*
X15285000Y-12840000D01*
X15365000Y-12800000D02*
G75*
G03*
X15365000Y-12800000I-40000J0D01*
G01*
X15585000Y-12410000D02*
X15665000Y-12490000D01*
X15665000Y-12410000D02*
X15585000Y-12490000D01*
X15665000Y-12450000D02*
G75*
G03*
X15665000Y-12450000I-40000J0D01*
G01*
D18*
X8680500Y-5752100D02*
X8769500Y-5841100D01*
X8769500Y-5752100D02*
X8680500Y-5841100D01*
X8725000Y-5752100D02*
X8725000Y-5841100D01*
X8680500Y-5796600D02*
X8769500Y-5796600D01*
X8807500Y-5498100D02*
X8896500Y-5587100D01*
X8896500Y-5498100D02*
X8807500Y-5587100D01*
X8852000Y-5498100D02*
X8852000Y-5587100D01*
X8807500Y-5542600D02*
X8896500Y-5542600D01*
X8934500Y-5752100D02*
X9023500Y-5841100D01*
X9023500Y-5752100D02*
X8934500Y-5841100D01*
X8979000Y-5752100D02*
X8979000Y-5841100D01*
X8934500Y-5796600D02*
X9023500Y-5796600D01*
X9061500Y-5498100D02*
X9150500Y-5587100D01*
X9150500Y-5498100D02*
X9061500Y-5587100D01*
X9106000Y-5498100D02*
X9106000Y-5587100D01*
X9061500Y-5542600D02*
X9150500Y-5542600D01*
X9188500Y-5752100D02*
X9277500Y-5841100D01*
X9277500Y-5752100D02*
X9188500Y-5841100D01*
X9233000Y-5752100D02*
X9233000Y-5841100D01*
X9188500Y-5796600D02*
X9277500Y-5796600D01*
X9315500Y-5498100D02*
X9404500Y-5587100D01*
X9404500Y-5498100D02*
X9315500Y-5587100D01*
X9360000Y-5498100D02*
X9360000Y-5587100D01*
X9315500Y-5542600D02*
X9404500Y-5542600D01*
X9442500Y-5752100D02*
X9531500Y-5841100D01*
X9531500Y-5752100D02*
X9442500Y-5841100D01*
X9487000Y-5752100D02*
X9487000Y-5841100D01*
X9442500Y-5796600D02*
X9531500Y-5796600D01*
X9456500Y-13472500D02*
X9545500Y-13561500D01*
X9545500Y-13472500D02*
X9456500Y-13561500D01*
X9501000Y-13472500D02*
X9501000Y-13561500D01*
X9456500Y-13517000D02*
X9545500Y-13517000D01*
X9558500Y-13650500D02*
X9647500Y-13739500D01*
X9647500Y-13650500D02*
X9558500Y-13739500D01*
X9603000Y-13650500D02*
X9603000Y-13739500D01*
X9558500Y-13695000D02*
X9647500Y-13695000D01*
X9569500Y-5498100D02*
X9658500Y-5587100D01*
X9658500Y-5498100D02*
X9569500Y-5587100D01*
X9614000Y-5498100D02*
X9614000Y-5587100D01*
X9569500Y-5542600D02*
X9658500Y-5542600D01*
X9660500Y-13472500D02*
X9749500Y-13561500D01*
X9749500Y-13472500D02*
X9660500Y-13561500D01*
X9705000Y-13472500D02*
X9705000Y-13561500D01*
X9660500Y-13517000D02*
X9749500Y-13517000D01*
X9762500Y-13650500D02*
X9851500Y-13739500D01*
X9851500Y-13650500D02*
X9762500Y-13739500D01*
X9807000Y-13650500D02*
X9807000Y-13739500D01*
X9762500Y-13695000D02*
X9851500Y-13695000D01*
X9864500Y-13472500D02*
X9953500Y-13561500D01*
X9953500Y-13472500D02*
X9864500Y-13561500D01*
X9909000Y-13472500D02*
X9909000Y-13561500D01*
X9864500Y-13517000D02*
X9953500Y-13517000D01*
X9966500Y-13650500D02*
X10055500Y-13739500D01*
X10055500Y-13650500D02*
X9966500Y-13739500D01*
X10011000Y-13650500D02*
X10011000Y-13739500D01*
X9966500Y-13695000D02*
X10055500Y-13695000D01*
X10068500Y-13472500D02*
X10157500Y-13561500D01*
X10157500Y-13472500D02*
X10068500Y-13561500D01*
X10113000Y-13472500D02*
X10113000Y-13561500D01*
X10068500Y-13517000D02*
X10157500Y-13517000D01*
X10170500Y-13650500D02*
X10259500Y-13739500D01*
X10259500Y-13650500D02*
X10170500Y-13739500D01*
X10215000Y-13650500D02*
X10215000Y-13739500D01*
X10170500Y-13695000D02*
X10259500Y-13695000D01*
X11440500Y-13472500D02*
X11529500Y-13561500D01*
X11529500Y-13472500D02*
X11440500Y-13561500D01*
X11485000Y-13472500D02*
X11485000Y-13561500D01*
X11440500Y-13517000D02*
X11529500Y-13517000D01*
X11542500Y-13650500D02*
X11631500Y-13739500D01*
X11631500Y-13650500D02*
X11542500Y-13739500D01*
X11587000Y-13650500D02*
X11587000Y-13739500D01*
X11542500Y-13695000D02*
X11631500Y-13695000D01*
X11644500Y-13472500D02*
X11733500Y-13561500D01*
X11733500Y-13472500D02*
X11644500Y-13561500D01*
X11689000Y-13472500D02*
X11689000Y-13561500D01*
X11644500Y-13517000D02*
X11733500Y-13517000D01*
X11746500Y-13650500D02*
X11835500Y-13739500D01*
X11835500Y-13650500D02*
X11746500Y-13739500D01*
X11791000Y-13650500D02*
X11791000Y-13739500D01*
X11746500Y-13695000D02*
X11835500Y-13695000D01*
X11848500Y-13472500D02*
X11937500Y-13561500D01*
X11937500Y-13472500D02*
X11848500Y-13561500D01*
X11893000Y-13472500D02*
X11893000Y-13561500D01*
X11848500Y-13517000D02*
X11937500Y-13517000D01*
X11950500Y-13650500D02*
X12039500Y-13739500D01*
X12039500Y-13650500D02*
X11950500Y-13739500D01*
X11995000Y-13650500D02*
X11995000Y-13739500D01*
X11950500Y-13695000D02*
X12039500Y-13695000D01*
X12052500Y-13472500D02*
X12141500Y-13561500D01*
X12141500Y-13472500D02*
X12052500Y-13561500D01*
X12097000Y-13472500D02*
X12097000Y-13561500D01*
X12052500Y-13517000D02*
X12141500Y-13517000D01*
X12154500Y-13650500D02*
X12243500Y-13739500D01*
X12243500Y-13650500D02*
X12154500Y-13739500D01*
X12199000Y-13650500D02*
X12199000Y-13739500D01*
X12154500Y-13695000D02*
X12243500Y-13695000D01*
D19*
X13326000Y-4167900D02*
X13416000Y-4257900D01*
X13416000Y-4167900D02*
X13326000Y-4257900D01*
X13402820Y-4244720D02*
X13402820Y-4181080D01*
X13339180Y-4181080D01*
X13339180Y-4244720D01*
X13402820Y-4244720D01*
D12*
X13406000Y-4272900D02*
X13406000Y-4152900D01*
X13336000Y-4272900D02*
X13336000Y-4152900D01*
X13406000Y-4152900D02*
G75*
G03*
X13336000Y-4152900I-35000J0D01*
G01*
X13336000Y-4272900D02*
G75*
G03*
X13406000Y-4272900I35000J0D01*
G01*
D19*
X13326000Y-4763900D02*
X13416000Y-4853900D01*
X13416000Y-4763900D02*
X13326000Y-4853900D01*
X13402820Y-4840720D02*
X13402820Y-4777080D01*
X13339180Y-4777080D01*
X13339180Y-4840720D01*
X13402820Y-4840720D01*
D12*
X13406000Y-4898900D02*
X13406000Y-4718900D01*
X13336000Y-4898900D02*
X13336000Y-4718900D01*
X13406000Y-4718900D02*
G75*
G03*
X13336000Y-4718900I-35000J0D01*
G01*
X13336000Y-4898900D02*
G75*
G03*
X13406000Y-4898900I35000J0D01*
G01*
D19*
X14776000Y-4167900D02*
X14866000Y-4257900D01*
X14866000Y-4167900D02*
X14776000Y-4257900D01*
X14852820Y-4244720D02*
X14852820Y-4181080D01*
X14789180Y-4181080D01*
X14789180Y-4244720D01*
X14852820Y-4244720D01*
D12*
X14856000Y-4272900D02*
X14856000Y-4152900D01*
X14786000Y-4272900D02*
X14786000Y-4152900D01*
X14856000Y-4152900D02*
G75*
G03*
X14786000Y-4152900I-35000J0D01*
G01*
X14786000Y-4272900D02*
G75*
G03*
X14856000Y-4272900I35000J0D01*
G01*
D19*
X14776000Y-4763900D02*
X14866000Y-4853900D01*
X14866000Y-4763900D02*
X14776000Y-4853900D01*
X14852820Y-4840720D02*
X14852820Y-4777080D01*
X14789180Y-4777080D01*
X14789180Y-4840720D01*
X14852820Y-4840720D01*
D12*
X14856000Y-4898900D02*
X14856000Y-4718900D01*
X14786000Y-4898900D02*
X14786000Y-4718900D01*
X14856000Y-4718900D02*
G75*
G03*
X14786000Y-4718900I-35000J0D01*
G01*
X14786000Y-4898900D02*
G75*
G03*
X14856000Y-4898900I35000J0D01*
G01*
D20*
X11954000Y-5075000D02*
X12046000Y-5167000D01*
X12046000Y-5075000D02*
X11954000Y-5167000D01*
X12000000Y-5167000D02*
X12046000Y-5121000D01*
X12000000Y-5075000D01*
X11954000Y-5121000D01*
X12000000Y-5167000D01*
X12204000Y-5075000D02*
X12296000Y-5167000D01*
X12296000Y-5075000D02*
X12204000Y-5167000D01*
X12250000Y-5167000D02*
X12296000Y-5121000D01*
X12250000Y-5075000D01*
X12204000Y-5121000D01*
X12250000Y-5167000D01*
X12404000Y-5075000D02*
X12496000Y-5167000D01*
X12496000Y-5075000D02*
X12404000Y-5167000D01*
X12450000Y-5167000D02*
X12496000Y-5121000D01*
X12450000Y-5075000D01*
X12404000Y-5121000D01*
X12450000Y-5167000D01*
X12654000Y-5075000D02*
X12746000Y-5167000D01*
X12746000Y-5075000D02*
X12654000Y-5167000D01*
X12700000Y-5167000D02*
X12746000Y-5121000D01*
X12700000Y-5075000D01*
X12654000Y-5121000D01*
X12700000Y-5167000D01*
D21*
X4200000Y-7100000D02*
X4200000Y-7200000D01*
X4150000Y-7150000D02*
X4250000Y-7150000D01*
X4250000Y-7150000D02*
G75*
G03*
X4250000Y-7150000I-50000J0D01*
G01*
X4200000Y-7354000D02*
X4200000Y-7454000D01*
X4150000Y-7404000D02*
X4250000Y-7404000D01*
X4250000Y-7404000D02*
G75*
G03*
X4250000Y-7404000I-50000J0D01*
G01*
X4200000Y-7608000D02*
X4200000Y-7708000D01*
X4150000Y-7658000D02*
X4250000Y-7658000D01*
X4250000Y-7658000D02*
G75*
G03*
X4250000Y-7658000I-50000J0D01*
G01*
X4200000Y-7862000D02*
X4200000Y-7962000D01*
X4150000Y-7912000D02*
X4250000Y-7912000D01*
X4250000Y-7912000D02*
G75*
G03*
X4250000Y-7912000I-50000J0D01*
G01*
X6100000Y-11032700D02*
X6100000Y-11132700D01*
X6050000Y-11082700D02*
X6150000Y-11082700D01*
X6150000Y-11082700D02*
G75*
G03*
X6150000Y-11082700I-50000J0D01*
G01*
X6100000Y-12556700D02*
X6100000Y-12656700D01*
X6050000Y-12606700D02*
X6150000Y-12606700D01*
X6150000Y-12606700D02*
G75*
G03*
X6150000Y-12606700I-50000J0D01*
G01*
X6354000Y-11032700D02*
X6354000Y-11132700D01*
X6304000Y-11082700D02*
X6404000Y-11082700D01*
X6404000Y-11082700D02*
G75*
G03*
X6404000Y-11082700I-50000J0D01*
G01*
X6354000Y-12556700D02*
X6354000Y-12656700D01*
X6304000Y-12606700D02*
X6404000Y-12606700D01*
X6404000Y-12606700D02*
G75*
G03*
X6404000Y-12606700I-50000J0D01*
G01*
X6608000Y-11032700D02*
X6608000Y-11132700D01*
X6558000Y-11082700D02*
X6658000Y-11082700D01*
X6658000Y-11082700D02*
G75*
G03*
X6658000Y-11082700I-50000J0D01*
G01*
X6608000Y-12556700D02*
X6608000Y-12656700D01*
X6558000Y-12606700D02*
X6658000Y-12606700D01*
X6658000Y-12606700D02*
G75*
G03*
X6658000Y-12606700I-50000J0D01*
G01*
X6862000Y-11032700D02*
X6862000Y-11132700D01*
X6812000Y-11082700D02*
X6912000Y-11082700D01*
X6912000Y-11082700D02*
G75*
G03*
X6912000Y-11082700I-50000J0D01*
G01*
X6862000Y-12556700D02*
X6862000Y-12656700D01*
X6812000Y-12606700D02*
X6912000Y-12606700D01*
X6912000Y-12606700D02*
G75*
G03*
X6912000Y-12606700I-50000J0D01*
G01*
X7116000Y-11032700D02*
X7116000Y-11132700D01*
X7066000Y-11082700D02*
X7166000Y-11082700D01*
X7166000Y-11082700D02*
G75*
G03*
X7166000Y-11082700I-50000J0D01*
G01*
X7116000Y-12556700D02*
X7116000Y-12656700D01*
X7066000Y-12606700D02*
X7166000Y-12606700D01*
X7166000Y-12606700D02*
G75*
G03*
X7166000Y-12606700I-50000J0D01*
G01*
X7370000Y-11032700D02*
X7370000Y-11132700D01*
X7320000Y-11082700D02*
X7420000Y-11082700D01*
X7420000Y-11082700D02*
G75*
G03*
X7420000Y-11082700I-50000J0D01*
G01*
X7370000Y-12556700D02*
X7370000Y-12656700D01*
X7320000Y-12606700D02*
X7420000Y-12606700D01*
X7420000Y-12606700D02*
G75*
G03*
X7420000Y-12606700I-50000J0D01*
G01*
D22*
X8542563Y-4453663D02*
X8542563Y-4381537D01*
X8470437Y-4381537D01*
X8470437Y-4453663D01*
X8542563Y-4453663D01*
X8557500Y-4417600D02*
G75*
G03*
X8557500Y-4417600I-51000J0D01*
G01*
X8796563Y-4453663D02*
X8796563Y-4381537D01*
X8724437Y-4381537D01*
X8724437Y-4453663D01*
X8796563Y-4453663D01*
X8811500Y-4417600D02*
G75*
G03*
X8811500Y-4417600I-51000J0D01*
G01*
X9613563Y-4453663D02*
X9613563Y-4381537D01*
X9541437Y-4381537D01*
X9541437Y-4453663D01*
X9613563Y-4453663D01*
X9628500Y-4417600D02*
G75*
G03*
X9628500Y-4417600I-51000J0D01*
G01*
X9867563Y-4453663D02*
X9867563Y-4381537D01*
X9795437Y-4381537D01*
X9795437Y-4453663D01*
X9867563Y-4453663D01*
X9882500Y-4417600D02*
G75*
G03*
X9882500Y-4417600I-51000J0D01*
G01*
D23*
X4575000Y-8447500D02*
X4634500Y-8388000D01*
X4575000Y-8328500D01*
X4515500Y-8388000D01*
X4575000Y-8447500D01*
X4634500Y-8388000D02*
G75*
G03*
X4634500Y-8388000I-59500J0D01*
G01*
X4575000Y-8701500D02*
X4634500Y-8642000D01*
X4575000Y-8582500D01*
X4515500Y-8642000D01*
X4575000Y-8701500D01*
X4634500Y-8642000D02*
G75*
G03*
X4634500Y-8642000I-59500J0D01*
G01*
X4575000Y-8955500D02*
X4634500Y-8896000D01*
X4575000Y-8836500D01*
X4515500Y-8896000D01*
X4575000Y-8955500D01*
X4634500Y-8896000D02*
G75*
G03*
X4634500Y-8896000I-59500J0D01*
G01*
X4575000Y-9209500D02*
X4634500Y-9150000D01*
X4575000Y-9090500D01*
X4515500Y-9150000D01*
X4575000Y-9209500D01*
X4634500Y-9150000D02*
G75*
G03*
X4634500Y-9150000I-59500J0D01*
G01*
X5375000Y-8447500D02*
X5434500Y-8388000D01*
X5375000Y-8328500D01*
X5315500Y-8388000D01*
X5375000Y-8447500D01*
X5434500Y-8388000D02*
G75*
G03*
X5434500Y-8388000I-59500J0D01*
G01*
X5375000Y-8701500D02*
X5434500Y-8642000D01*
X5375000Y-8582500D01*
X5315500Y-8642000D01*
X5375000Y-8701500D01*
X5434500Y-8642000D02*
G75*
G03*
X5434500Y-8642000I-59500J0D01*
G01*
X5375000Y-8955500D02*
X5434500Y-8896000D01*
X5375000Y-8836500D01*
X5315500Y-8896000D01*
X5375000Y-8955500D01*
X5434500Y-8896000D02*
G75*
G03*
X5434500Y-8896000I-59500J0D01*
G01*
X5375000Y-9209500D02*
X5434500Y-9150000D01*
X5375000Y-9090500D01*
X5315500Y-9150000D01*
X5375000Y-9209500D01*
X5434500Y-9150000D02*
G75*
G03*
X5434500Y-9150000I-59500J0D01*
G01*
X6175000Y-8447500D02*
X6234500Y-8388000D01*
X6175000Y-8328500D01*
X6115500Y-8388000D01*
X6175000Y-8447500D01*
X6234500Y-8388000D02*
G75*
G03*
X6234500Y-8388000I-59500J0D01*
G01*
X6175000Y-8701500D02*
X6234500Y-8642000D01*
X6175000Y-8582500D01*
X6115500Y-8642000D01*
X6175000Y-8701500D01*
X6234500Y-8642000D02*
G75*
G03*
X6234500Y-8642000I-59500J0D01*
G01*
X6175000Y-8955500D02*
X6234500Y-8896000D01*
X6175000Y-8836500D01*
X6115500Y-8896000D01*
X6175000Y-8955500D01*
X6234500Y-8896000D02*
G75*
G03*
X6234500Y-8896000I-59500J0D01*
G01*
X6175000Y-9209500D02*
X6234500Y-9150000D01*
X6175000Y-9090500D01*
X6115500Y-9150000D01*
X6175000Y-9209500D01*
X6234500Y-9150000D02*
G75*
G03*
X6234500Y-9150000I-59500J0D01*
G01*
X6975000Y-8447500D02*
X7034500Y-8388000D01*
X6975000Y-8328500D01*
X6915500Y-8388000D01*
X6975000Y-8447500D01*
X7034500Y-8388000D02*
G75*
G03*
X7034500Y-8388000I-59500J0D01*
G01*
X6975000Y-8701500D02*
X7034500Y-8642000D01*
X6975000Y-8582500D01*
X6915500Y-8642000D01*
X6975000Y-8701500D01*
X7034500Y-8642000D02*
G75*
G03*
X7034500Y-8642000I-59500J0D01*
G01*
X6975000Y-8955500D02*
X7034500Y-8896000D01*
X6975000Y-8836500D01*
X6915500Y-8896000D01*
X6975000Y-8955500D01*
X7034500Y-8896000D02*
G75*
G03*
X7034500Y-8896000I-59500J0D01*
G01*
X6975000Y-9209500D02*
X7034500Y-9150000D01*
X6975000Y-9090500D01*
X6915500Y-9150000D01*
X6975000Y-9209500D01*
X7034500Y-9150000D02*
G75*
G03*
X7034500Y-9150000I-59500J0D01*
G01*
X6975000Y-9947500D02*
X7034500Y-9888000D01*
X6975000Y-9828500D01*
X6915500Y-9888000D01*
X6975000Y-9947500D01*
X7034500Y-9888000D02*
G75*
G03*
X7034500Y-9888000I-59500J0D01*
G01*
X6975000Y-10201500D02*
X7034500Y-10142000D01*
X6975000Y-10082500D01*
X6915500Y-10142000D01*
X6975000Y-10201500D01*
X7034500Y-10142000D02*
G75*
G03*
X7034500Y-10142000I-59500J0D01*
G01*
X6975000Y-10455500D02*
X7034500Y-10396000D01*
X6975000Y-10336500D01*
X6915500Y-10396000D01*
X6975000Y-10455500D01*
X7034500Y-10396000D02*
G75*
G03*
X7034500Y-10396000I-59500J0D01*
G01*
X6975000Y-10709500D02*
X7034500Y-10650000D01*
X6975000Y-10590500D01*
X6915500Y-10650000D01*
X6975000Y-10709500D01*
X7034500Y-10650000D02*
G75*
G03*
X7034500Y-10650000I-59500J0D01*
G01*
X7775000Y-8447500D02*
X7834500Y-8388000D01*
X7775000Y-8328500D01*
X7715500Y-8388000D01*
X7775000Y-8447500D01*
X7834500Y-8388000D02*
G75*
G03*
X7834500Y-8388000I-59500J0D01*
G01*
X7775000Y-8701500D02*
X7834500Y-8642000D01*
X7775000Y-8582500D01*
X7715500Y-8642000D01*
X7775000Y-8701500D01*
X7834500Y-8642000D02*
G75*
G03*
X7834500Y-8642000I-59500J0D01*
G01*
X7775000Y-8955500D02*
X7834500Y-8896000D01*
X7775000Y-8836500D01*
X7715500Y-8896000D01*
X7775000Y-8955500D01*
X7834500Y-8896000D02*
G75*
G03*
X7834500Y-8896000I-59500J0D01*
G01*
X7775000Y-9209500D02*
X7834500Y-9150000D01*
X7775000Y-9090500D01*
X7715500Y-9150000D01*
X7775000Y-9209500D01*
X7834500Y-9150000D02*
G75*
G03*
X7834500Y-9150000I-59500J0D01*
G01*
X7775000Y-9947500D02*
X7834500Y-9888000D01*
X7775000Y-9828500D01*
X7715500Y-9888000D01*
X7775000Y-9947500D01*
X7834500Y-9888000D02*
G75*
G03*
X7834500Y-9888000I-59500J0D01*
G01*
X7775000Y-10201500D02*
X7834500Y-10142000D01*
X7775000Y-10082500D01*
X7715500Y-10142000D01*
X7775000Y-10201500D01*
X7834500Y-10142000D02*
G75*
G03*
X7834500Y-10142000I-59500J0D01*
G01*
X7775000Y-10455500D02*
X7834500Y-10396000D01*
X7775000Y-10336500D01*
X7715500Y-10396000D01*
X7775000Y-10455500D01*
X7834500Y-10396000D02*
G75*
G03*
X7834500Y-10396000I-59500J0D01*
G01*
X7775000Y-10709500D02*
X7834500Y-10650000D01*
X7775000Y-10590500D01*
X7715500Y-10650000D01*
X7775000Y-10709500D01*
X7834500Y-10650000D02*
G75*
G03*
X7834500Y-10650000I-59500J0D01*
G01*
X7810000Y-7321000D02*
X7869500Y-7261500D01*
X7810000Y-7202000D01*
X7750500Y-7261500D01*
X7810000Y-7321000D01*
X7869500Y-7261500D02*
G75*
G03*
X7869500Y-7261500I-59500J0D01*
G01*
X8064000Y-7321000D02*
X8123500Y-7261500D01*
X8064000Y-7202000D01*
X8004500Y-7261500D01*
X8064000Y-7321000D01*
X8123500Y-7261500D02*
G75*
G03*
X8123500Y-7261500I-59500J0D01*
G01*
X8318000Y-7321000D02*
X8377500Y-7261500D01*
X8318000Y-7202000D01*
X8258500Y-7261500D01*
X8318000Y-7321000D01*
X8377500Y-7261500D02*
G75*
G03*
X8377500Y-7261500I-59500J0D01*
G01*
X8575000Y-8447500D02*
X8634500Y-8388000D01*
X8575000Y-8328500D01*
X8515500Y-8388000D01*
X8575000Y-8447500D01*
X8634500Y-8388000D02*
G75*
G03*
X8634500Y-8388000I-59500J0D01*
G01*
X8575000Y-8701500D02*
X8634500Y-8642000D01*
X8575000Y-8582500D01*
X8515500Y-8642000D01*
X8575000Y-8701500D01*
X8634500Y-8642000D02*
G75*
G03*
X8634500Y-8642000I-59500J0D01*
G01*
X8575000Y-8955500D02*
X8634500Y-8896000D01*
X8575000Y-8836500D01*
X8515500Y-8896000D01*
X8575000Y-8955500D01*
X8634500Y-8896000D02*
G75*
G03*
X8634500Y-8896000I-59500J0D01*
G01*
X8575000Y-9209500D02*
X8634500Y-9150000D01*
X8575000Y-9090500D01*
X8515500Y-9150000D01*
X8575000Y-9209500D01*
X8634500Y-9150000D02*
G75*
G03*
X8634500Y-9150000I-59500J0D01*
G01*
X8575000Y-9947500D02*
X8634500Y-9888000D01*
X8575000Y-9828500D01*
X8515500Y-9888000D01*
X8575000Y-9947500D01*
X8634500Y-9888000D02*
G75*
G03*
X8634500Y-9888000I-59500J0D01*
G01*
X8575000Y-10201500D02*
X8634500Y-10142000D01*
X8575000Y-10082500D01*
X8515500Y-10142000D01*
X8575000Y-10201500D01*
X8634500Y-10142000D02*
G75*
G03*
X8634500Y-10142000I-59500J0D01*
G01*
X8575000Y-10455500D02*
X8634500Y-10396000D01*
X8575000Y-10336500D01*
X8515500Y-10396000D01*
X8575000Y-10455500D01*
X8634500Y-10396000D02*
G75*
G03*
X8634500Y-10396000I-59500J0D01*
G01*
X8575000Y-10709500D02*
X8634500Y-10650000D01*
X8575000Y-10590500D01*
X8515500Y-10650000D01*
X8575000Y-10709500D01*
X8634500Y-10650000D02*
G75*
G03*
X8634500Y-10650000I-59500J0D01*
G01*
X13559000Y-14310200D02*
X13618500Y-14250700D01*
X13559000Y-14191200D01*
X13499500Y-14250700D01*
X13559000Y-14310200D01*
X13618500Y-14250700D02*
G75*
G03*
X13618500Y-14250700I-59500J0D01*
G01*
X13813000Y-14310200D02*
X13872500Y-14250700D01*
X13813000Y-14191200D01*
X13753500Y-14250700D01*
X13813000Y-14310200D01*
X13872500Y-14250700D02*
G75*
G03*
X13872500Y-14250700I-59500J0D01*
G01*
X14067000Y-14310200D02*
X14126500Y-14250700D01*
X14067000Y-14191200D01*
X14007500Y-14250700D01*
X14067000Y-14310200D01*
X14126500Y-14250700D02*
G75*
G03*
X14126500Y-14250700I-59500J0D01*
G01*
D24*
X7650000Y-14034990D02*
X7650000Y-14195010D01*
X7569990Y-14115000D02*
X7730010Y-14115000D01*
X7706576Y-14171576D02*
X7706576Y-14058424D01*
X7593424Y-14058424D01*
X7593424Y-14171576D01*
X7706576Y-14171576D01*
X7660000Y-13139990D02*
X7660000Y-13300010D01*
X7579990Y-13220000D02*
X7740010Y-13220000D01*
X7716576Y-13276576D02*
X7716576Y-13163424D01*
X7603424Y-13163424D01*
X7603424Y-13276576D01*
X7716576Y-13276576D01*
X8119900Y-14034990D02*
X8119900Y-14195010D01*
X8039890Y-14115000D02*
X8199910Y-14115000D01*
X8176476Y-14171576D02*
X8176476Y-14058424D01*
X8063324Y-14058424D01*
X8063324Y-14171576D01*
X8176476Y-14171576D01*
X8129900Y-13139990D02*
X8129900Y-13300010D01*
X8049890Y-13220000D02*
X8209910Y-13220000D01*
X8186476Y-13276576D02*
X8186476Y-13163424D01*
X8073324Y-13163424D01*
X8073324Y-13276576D01*
X8186476Y-13276576D01*
X8589800Y-14034990D02*
X8589800Y-14195010D01*
X8509790Y-14115000D02*
X8669810Y-14115000D01*
X8646376Y-14171576D02*
X8646376Y-14058424D01*
X8533224Y-14058424D01*
X8533224Y-14171576D01*
X8646376Y-14171576D01*
X8599800Y-13139990D02*
X8599800Y-13300010D01*
X8519790Y-13220000D02*
X8679810Y-13220000D01*
X8656376Y-13276576D02*
X8656376Y-13163424D01*
X8543224Y-13163424D01*
X8543224Y-13276576D01*
X8656376Y-13276576D01*
D25*
X8394500Y-5131100D02*
X8394500Y-5294100D01*
X8313000Y-5212600D02*
X8476000Y-5212600D01*
X8394500Y-5294100D02*
X8476000Y-5212600D01*
X8394500Y-5131100D01*
X8313000Y-5212600D01*
X8394500Y-5294100D01*
X9943500Y-5131100D02*
X9943500Y-5294100D01*
X9862000Y-5212600D02*
X10025000Y-5212600D01*
X9943500Y-5294100D02*
X10025000Y-5212600D01*
X9943500Y-5131100D01*
X9862000Y-5212600D01*
X9943500Y-5294100D01*
D26*
X9045000Y-13683000D02*
X9135000Y-13593000D01*
X9045000Y-13503000D01*
X8955000Y-13593000D01*
X9045000Y-13683000D01*
X9108640Y-13656640D02*
X9108640Y-13529360D01*
X8981360Y-13529360D01*
X8981360Y-13656640D01*
X9108640Y-13656640D01*
X10671000Y-13683000D02*
X10761000Y-13593000D01*
X10671000Y-13503000D01*
X10581000Y-13593000D01*
X10671000Y-13683000D01*
X10734640Y-13656640D02*
X10734640Y-13529360D01*
X10607360Y-13529360D01*
X10607360Y-13656640D01*
X10734640Y-13656640D01*
X11029000Y-13683000D02*
X11119000Y-13593000D01*
X11029000Y-13503000D01*
X10939000Y-13593000D01*
X11029000Y-13683000D01*
X11092640Y-13656640D02*
X11092640Y-13529360D01*
X10965360Y-13529360D01*
X10965360Y-13656640D01*
X11092640Y-13656640D01*
X12655000Y-13683000D02*
X12745000Y-13593000D01*
X12655000Y-13503000D01*
X12565000Y-13593000D01*
X12655000Y-13683000D01*
X12718640Y-13656640D02*
X12718640Y-13529360D01*
X12591360Y-13529360D01*
X12591360Y-13656640D01*
X12718640Y-13656640D01*
D27*
X11578000Y-4735000D02*
X11808000Y-4965000D01*
X11808000Y-4735000D02*
X11578000Y-4965000D01*
X11693000Y-4735000D02*
X11693000Y-4965000D01*
X11578000Y-4850000D02*
X11808000Y-4850000D01*
X11808000Y-4850000D02*
G75*
G03*
X11808000Y-4850000I-115000J0D01*
G01*
X12892000Y-4735000D02*
X13122000Y-4965000D01*
X13122000Y-4735000D02*
X12892000Y-4965000D01*
X13007000Y-4735000D02*
X13007000Y-4965000D01*
X12892000Y-4850000D02*
X13122000Y-4850000D01*
X13122000Y-4850000D02*
G75*
G03*
X13122000Y-4850000I-115000J0D01*
G01*
D28*
X4160000Y-5230000D02*
X4560000Y-5630000D01*
X4560000Y-5230000D02*
X4160000Y-5630000D01*
X4501423Y-5571423D02*
X4501423Y-5288577D01*
X4218577Y-5288577D01*
X4218577Y-5571423D01*
X4501423Y-5571423D01*
X4560000Y-5430000D02*
G75*
G03*
X4560000Y-5430000I-200000J0D01*
G01*
X4160000Y-6230000D02*
X4560000Y-6630000D01*
X4560000Y-6230000D02*
X4160000Y-6630000D01*
X4501423Y-6571423D02*
X4501423Y-6288577D01*
X4218577Y-6288577D01*
X4218577Y-6571423D01*
X4501423Y-6571423D01*
X4560000Y-6430000D02*
G75*
G03*
X4560000Y-6430000I-200000J0D01*
G01*
D12*
X4250119Y-15017976D02*
X4250119Y-14817976D01*
X4297738Y-14817976D01*
X4326310Y-14827500D01*
X4345357Y-14846548D01*
X4354881Y-14865595D01*
X4364405Y-14903690D01*
X4364405Y-14932262D01*
X4354881Y-14970357D01*
X4345357Y-14989405D01*
X4326310Y-15008452D01*
X4297738Y-15017976D01*
X4250119Y-15017976D01*
X4450119Y-15017976D02*
X4450119Y-14884643D01*
X4450119Y-14922738D02*
X4459643Y-14903690D01*
X4469167Y-14894167D01*
X4488214Y-14884643D01*
X4507262Y-14884643D01*
X4573929Y-15017976D02*
X4573929Y-14884643D01*
X4573929Y-14817976D02*
X4564405Y-14827500D01*
X4573929Y-14837024D01*
X4583452Y-14827500D01*
X4573929Y-14817976D01*
X4573929Y-14837024D01*
X4697738Y-15017976D02*
X4678690Y-15008452D01*
X4669167Y-14989405D01*
X4669167Y-14817976D01*
X4802500Y-15017976D02*
X4783452Y-15008452D01*
X4773929Y-14989405D01*
X4773929Y-14817976D01*
X5031071Y-15017976D02*
X5031071Y-14817976D01*
X5097738Y-14960833D01*
X5164405Y-14817976D01*
X5164405Y-15017976D01*
X5345357Y-15017976D02*
X5345357Y-14913214D01*
X5335833Y-14894167D01*
X5316786Y-14884643D01*
X5278690Y-14884643D01*
X5259643Y-14894167D01*
X5345357Y-15008452D02*
X5326310Y-15017976D01*
X5278690Y-15017976D01*
X5259643Y-15008452D01*
X5250119Y-14989405D01*
X5250119Y-14970357D01*
X5259643Y-14951309D01*
X5278690Y-14941786D01*
X5326310Y-14941786D01*
X5345357Y-14932262D01*
X5440595Y-14884643D02*
X5440595Y-15084643D01*
X5440595Y-14894167D02*
X5459643Y-14884643D01*
X5497738Y-14884643D01*
X5516786Y-14894167D01*
X5526310Y-14903690D01*
X5535833Y-14922738D01*
X5535833Y-14979881D01*
X5526310Y-14998928D01*
X5516786Y-15008452D01*
X5497738Y-15017976D01*
X5459643Y-15017976D01*
X5440595Y-15008452D01*
X5621548Y-14998928D02*
X5631071Y-15008452D01*
X5621548Y-15017976D01*
X5612024Y-15008452D01*
X5621548Y-14998928D01*
X5621548Y-15017976D01*
X5621548Y-14894167D02*
X5631071Y-14903690D01*
X5621548Y-14913214D01*
X5612024Y-14903690D01*
X5621548Y-14894167D01*
X5621548Y-14913214D01*
D13*
X3967500Y-15335000D02*
X3992500Y-15360000D01*
X3992500Y-15335000D02*
X3967500Y-15360000D01*
D12*
X4288214Y-15237976D02*
X4307262Y-15237976D01*
X4326310Y-15247500D01*
X4335833Y-15257024D01*
X4345357Y-15276071D01*
X4354881Y-15314167D01*
X4354881Y-15361786D01*
X4345357Y-15399881D01*
X4335833Y-15418928D01*
X4326310Y-15428452D01*
X4307262Y-15437976D01*
X4288214Y-15437976D01*
X4269167Y-15428452D01*
X4259643Y-15418928D01*
X4250119Y-15399881D01*
X4240595Y-15361786D01*
X4240595Y-15314167D01*
X4250119Y-15276071D01*
X4259643Y-15257024D01*
X4269167Y-15247500D01*
X4288214Y-15237976D01*
X4440595Y-15418928D02*
X4450119Y-15428452D01*
X4440595Y-15437976D01*
X4431071Y-15428452D01*
X4440595Y-15418928D01*
X4440595Y-15437976D01*
X4526310Y-15257024D02*
X4535833Y-15247500D01*
X4554881Y-15237976D01*
X4602500Y-15237976D01*
X4621548Y-15247500D01*
X4631071Y-15257024D01*
X4640595Y-15276071D01*
X4640595Y-15295119D01*
X4631071Y-15323690D01*
X4516786Y-15437976D01*
X4640595Y-15437976D01*
X4821548Y-15237976D02*
X4726310Y-15237976D01*
X4716786Y-15333214D01*
X4726310Y-15323690D01*
X4745357Y-15314167D01*
X4792976Y-15314167D01*
X4812024Y-15323690D01*
X4821548Y-15333214D01*
X4831071Y-15352262D01*
X4831071Y-15399881D01*
X4821548Y-15418928D01*
X4812024Y-15428452D01*
X4792976Y-15437976D01*
X4745357Y-15437976D01*
X4726310Y-15428452D01*
X4716786Y-15418928D01*
X4954881Y-15237976D02*
X4973929Y-15237976D01*
X4992976Y-15247500D01*
X5002500Y-15257024D01*
X5012024Y-15276071D01*
X5021548Y-15314167D01*
X5021548Y-15361786D01*
X5012024Y-15399881D01*
X5002500Y-15418928D01*
X4992976Y-15428452D01*
X4973929Y-15437976D01*
X4954881Y-15437976D01*
X4935833Y-15428452D01*
X4926310Y-15418928D01*
X4916786Y-15399881D01*
X4907262Y-15361786D01*
X4907262Y-15314167D01*
X4916786Y-15276071D01*
X4926310Y-15257024D01*
X4935833Y-15247500D01*
X4954881Y-15237976D01*
X5107262Y-15437976D02*
X5107262Y-15304643D01*
X5107262Y-15323690D02*
X5116786Y-15314167D01*
X5135833Y-15304643D01*
X5164405Y-15304643D01*
X5183452Y-15314167D01*
X5192976Y-15333214D01*
X5192976Y-15437976D01*
X5192976Y-15333214D02*
X5202500Y-15314167D01*
X5221548Y-15304643D01*
X5250119Y-15304643D01*
X5269167Y-15314167D01*
X5278690Y-15333214D01*
X5278690Y-15437976D01*
X5373929Y-15437976D02*
X5373929Y-15304643D01*
X5373929Y-15323690D02*
X5383452Y-15314167D01*
X5402500Y-15304643D01*
X5431071Y-15304643D01*
X5450119Y-15314167D01*
X5459643Y-15333214D01*
X5459643Y-15437976D01*
X5459643Y-15333214D02*
X5469167Y-15314167D01*
X5488214Y-15304643D01*
X5516786Y-15304643D01*
X5535833Y-15314167D01*
X5545357Y-15333214D01*
X5545357Y-15437976D01*
X5935833Y-15228452D02*
X5764405Y-15485595D01*
X6192976Y-15237976D02*
X6212024Y-15237976D01*
X6231071Y-15247500D01*
X6240595Y-15257024D01*
X6250119Y-15276071D01*
X6259643Y-15314167D01*
X6259643Y-15361786D01*
X6250119Y-15399881D01*
X6240595Y-15418928D01*
X6231071Y-15428452D01*
X6212024Y-15437976D01*
X6192976Y-15437976D01*
X6173928Y-15428452D01*
X6164405Y-15418928D01*
X6154881Y-15399881D01*
X6145357Y-15361786D01*
X6145357Y-15314167D01*
X6154881Y-15276071D01*
X6164405Y-15257024D01*
X6173928Y-15247500D01*
X6192976Y-15237976D01*
X6345357Y-15418928D02*
X6354881Y-15428452D01*
X6345357Y-15437976D01*
X6335833Y-15428452D01*
X6345357Y-15418928D01*
X6345357Y-15437976D01*
X6478690Y-15237976D02*
X6497738Y-15237976D01*
X6516786Y-15247500D01*
X6526309Y-15257024D01*
X6535833Y-15276071D01*
X6545357Y-15314167D01*
X6545357Y-15361786D01*
X6535833Y-15399881D01*
X6526309Y-15418928D01*
X6516786Y-15428452D01*
X6497738Y-15437976D01*
X6478690Y-15437976D01*
X6459643Y-15428452D01*
X6450119Y-15418928D01*
X6440595Y-15399881D01*
X6431071Y-15361786D01*
X6431071Y-15314167D01*
X6440595Y-15276071D01*
X6450119Y-15257024D01*
X6459643Y-15247500D01*
X6478690Y-15237976D01*
X6669167Y-15237976D02*
X6688214Y-15237976D01*
X6707262Y-15247500D01*
X6716786Y-15257024D01*
X6726309Y-15276071D01*
X6735833Y-15314167D01*
X6735833Y-15361786D01*
X6726309Y-15399881D01*
X6716786Y-15418928D01*
X6707262Y-15428452D01*
X6688214Y-15437976D01*
X6669167Y-15437976D01*
X6650119Y-15428452D01*
X6640595Y-15418928D01*
X6631071Y-15399881D01*
X6621548Y-15361786D01*
X6621548Y-15314167D01*
X6631071Y-15276071D01*
X6640595Y-15257024D01*
X6650119Y-15247500D01*
X6669167Y-15237976D01*
X6831071Y-15437976D02*
X6869167Y-15437976D01*
X6888214Y-15428452D01*
X6897738Y-15418928D01*
X6916786Y-15390357D01*
X6926309Y-15352262D01*
X6926309Y-15276071D01*
X6916786Y-15257024D01*
X6907262Y-15247500D01*
X6888214Y-15237976D01*
X6850119Y-15237976D01*
X6831071Y-15247500D01*
X6821548Y-15257024D01*
X6812024Y-15276071D01*
X6812024Y-15323690D01*
X6821548Y-15342738D01*
X6831071Y-15352262D01*
X6850119Y-15361786D01*
X6888214Y-15361786D01*
X6907262Y-15352262D01*
X6916786Y-15342738D01*
X6926309Y-15323690D01*
X7040595Y-15323690D02*
X7021548Y-15314167D01*
X7012024Y-15304643D01*
X7002500Y-15285595D01*
X7002500Y-15276071D01*
X7012024Y-15257024D01*
X7021548Y-15247500D01*
X7040595Y-15237976D01*
X7078690Y-15237976D01*
X7097738Y-15247500D01*
X7107262Y-15257024D01*
X7116786Y-15276071D01*
X7116786Y-15285595D01*
X7107262Y-15304643D01*
X7097738Y-15314167D01*
X7078690Y-15323690D01*
X7040595Y-15323690D01*
X7021548Y-15333214D01*
X7012024Y-15342738D01*
X7002500Y-15361786D01*
X7002500Y-15399881D01*
X7012024Y-15418928D01*
X7021548Y-15428452D01*
X7040595Y-15437976D01*
X7078690Y-15437976D01*
X7097738Y-15428452D01*
X7107262Y-15418928D01*
X7116786Y-15399881D01*
X7116786Y-15361786D01*
X7107262Y-15342738D01*
X7097738Y-15333214D01*
X7078690Y-15323690D01*
X7192976Y-15237976D02*
X7192976Y-15276071D01*
X7269167Y-15237976D02*
X7269167Y-15276071D01*
X7564405Y-15514167D02*
X7554881Y-15504643D01*
X7535833Y-15476071D01*
X7526309Y-15457024D01*
X7516786Y-15428452D01*
X7507262Y-15380833D01*
X7507262Y-15342738D01*
X7516786Y-15295119D01*
X7526309Y-15266548D01*
X7535833Y-15247500D01*
X7554881Y-15218928D01*
X7564405Y-15209405D01*
X7745357Y-15437976D02*
X7631071Y-15437976D01*
X7688214Y-15437976D02*
X7688214Y-15237976D01*
X7669167Y-15266548D01*
X7650119Y-15285595D01*
X7631071Y-15295119D01*
X7926309Y-15237976D02*
X7831071Y-15237976D01*
X7821548Y-15333214D01*
X7831071Y-15323690D01*
X7850119Y-15314167D01*
X7897738Y-15314167D01*
X7916786Y-15323690D01*
X7926309Y-15333214D01*
X7935833Y-15352262D01*
X7935833Y-15399881D01*
X7926309Y-15418928D01*
X7916786Y-15428452D01*
X7897738Y-15437976D01*
X7850119Y-15437976D01*
X7831071Y-15428452D01*
X7821548Y-15418928D01*
X8012024Y-15257024D02*
X8021548Y-15247500D01*
X8040595Y-15237976D01*
X8088214Y-15237976D01*
X8107262Y-15247500D01*
X8116786Y-15257024D01*
X8126309Y-15276071D01*
X8126309Y-15295119D01*
X8116786Y-15323690D01*
X8002500Y-15437976D01*
X8126309Y-15437976D01*
X8364405Y-15437976D02*
X8364405Y-15237976D01*
X8450119Y-15437976D02*
X8450119Y-15333214D01*
X8440595Y-15314167D01*
X8421548Y-15304643D01*
X8392976Y-15304643D01*
X8373928Y-15314167D01*
X8364405Y-15323690D01*
X8573929Y-15437976D02*
X8554881Y-15428452D01*
X8545357Y-15418928D01*
X8535833Y-15399881D01*
X8535833Y-15342738D01*
X8545357Y-15323690D01*
X8554881Y-15314167D01*
X8573929Y-15304643D01*
X8602500Y-15304643D01*
X8621548Y-15314167D01*
X8631071Y-15323690D01*
X8640595Y-15342738D01*
X8640595Y-15399881D01*
X8631071Y-15418928D01*
X8621548Y-15428452D01*
X8602500Y-15437976D01*
X8573929Y-15437976D01*
X8754881Y-15437976D02*
X8735833Y-15428452D01*
X8726310Y-15409405D01*
X8726310Y-15237976D01*
X8907262Y-15428452D02*
X8888214Y-15437976D01*
X8850119Y-15437976D01*
X8831071Y-15428452D01*
X8821548Y-15409405D01*
X8821548Y-15333214D01*
X8831071Y-15314167D01*
X8850119Y-15304643D01*
X8888214Y-15304643D01*
X8907262Y-15314167D01*
X8916786Y-15333214D01*
X8916786Y-15352262D01*
X8821548Y-15371309D01*
X8992976Y-15428452D02*
X9012024Y-15437976D01*
X9050119Y-15437976D01*
X9069167Y-15428452D01*
X9078690Y-15409405D01*
X9078690Y-15399881D01*
X9069167Y-15380833D01*
X9050119Y-15371309D01*
X9021548Y-15371309D01*
X9002500Y-15361786D01*
X8992976Y-15342738D01*
X8992976Y-15333214D01*
X9002500Y-15314167D01*
X9021548Y-15304643D01*
X9050119Y-15304643D01*
X9069167Y-15314167D01*
X9145357Y-15514167D02*
X9154881Y-15504643D01*
X9173929Y-15476071D01*
X9183452Y-15457024D01*
X9192976Y-15428452D01*
X9202500Y-15380833D01*
X9202500Y-15342738D01*
X9192976Y-15295119D01*
X9183452Y-15266548D01*
X9173929Y-15247500D01*
X9154881Y-15218928D01*
X9145357Y-15209405D01*
D14*
X3992500Y-15611500D02*
G75*
G03*
X3992500Y-15611500I-20000J0D01*
G01*
D12*
X4288214Y-15501976D02*
X4307262Y-15501976D01*
X4326310Y-15511500D01*
X4335833Y-15521024D01*
X4345357Y-15540071D01*
X4354881Y-15578167D01*
X4354881Y-15625786D01*
X4345357Y-15663881D01*
X4335833Y-15682928D01*
X4326310Y-15692452D01*
X4307262Y-15701976D01*
X4288214Y-15701976D01*
X4269167Y-15692452D01*
X4259643Y-15682928D01*
X4250119Y-15663881D01*
X4240595Y-15625786D01*
X4240595Y-15578167D01*
X4250119Y-15540071D01*
X4259643Y-15521024D01*
X4269167Y-15511500D01*
X4288214Y-15501976D01*
X4440595Y-15682928D02*
X4450119Y-15692452D01*
X4440595Y-15701976D01*
X4431071Y-15692452D01*
X4440595Y-15682928D01*
X4440595Y-15701976D01*
X4621548Y-15568643D02*
X4621548Y-15701976D01*
X4573929Y-15492452D02*
X4526310Y-15635309D01*
X4650119Y-15635309D01*
X4764405Y-15501976D02*
X4783452Y-15501976D01*
X4802500Y-15511500D01*
X4812024Y-15521024D01*
X4821548Y-15540071D01*
X4831071Y-15578167D01*
X4831071Y-15625786D01*
X4821548Y-15663881D01*
X4812024Y-15682928D01*
X4802500Y-15692452D01*
X4783452Y-15701976D01*
X4764405Y-15701976D01*
X4745357Y-15692452D01*
X4735833Y-15682928D01*
X4726310Y-15663881D01*
X4716786Y-15625786D01*
X4716786Y-15578167D01*
X4726310Y-15540071D01*
X4735833Y-15521024D01*
X4745357Y-15511500D01*
X4764405Y-15501976D01*
X4954881Y-15501976D02*
X4973929Y-15501976D01*
X4992976Y-15511500D01*
X5002500Y-15521024D01*
X5012024Y-15540071D01*
X5021548Y-15578167D01*
X5021548Y-15625786D01*
X5012024Y-15663881D01*
X5002500Y-15682928D01*
X4992976Y-15692452D01*
X4973929Y-15701976D01*
X4954881Y-15701976D01*
X4935833Y-15692452D01*
X4926310Y-15682928D01*
X4916786Y-15663881D01*
X4907262Y-15625786D01*
X4907262Y-15578167D01*
X4916786Y-15540071D01*
X4926310Y-15521024D01*
X4935833Y-15511500D01*
X4954881Y-15501976D01*
X5107262Y-15701976D02*
X5107262Y-15568643D01*
X5107262Y-15587690D02*
X5116786Y-15578167D01*
X5135833Y-15568643D01*
X5164405Y-15568643D01*
X5183452Y-15578167D01*
X5192976Y-15597214D01*
X5192976Y-15701976D01*
X5192976Y-15597214D02*
X5202500Y-15578167D01*
X5221548Y-15568643D01*
X5250119Y-15568643D01*
X5269167Y-15578167D01*
X5278690Y-15597214D01*
X5278690Y-15701976D01*
X5373929Y-15701976D02*
X5373929Y-15568643D01*
X5373929Y-15587690D02*
X5383452Y-15578167D01*
X5402500Y-15568643D01*
X5431071Y-15568643D01*
X5450119Y-15578167D01*
X5459643Y-15597214D01*
X5459643Y-15701976D01*
X5459643Y-15597214D02*
X5469167Y-15578167D01*
X5488214Y-15568643D01*
X5516786Y-15568643D01*
X5535833Y-15578167D01*
X5545357Y-15597214D01*
X5545357Y-15701976D01*
X5935833Y-15492452D02*
X5764405Y-15749595D01*
X6192976Y-15501976D02*
X6212024Y-15501976D01*
X6231071Y-15511500D01*
X6240595Y-15521024D01*
X6250119Y-15540071D01*
X6259643Y-15578167D01*
X6259643Y-15625786D01*
X6250119Y-15663881D01*
X6240595Y-15682928D01*
X6231071Y-15692452D01*
X6212024Y-15701976D01*
X6192976Y-15701976D01*
X6173928Y-15692452D01*
X6164405Y-15682928D01*
X6154881Y-15663881D01*
X6145357Y-15625786D01*
X6145357Y-15578167D01*
X6154881Y-15540071D01*
X6164405Y-15521024D01*
X6173928Y-15511500D01*
X6192976Y-15501976D01*
X6345357Y-15682928D02*
X6354881Y-15692452D01*
X6345357Y-15701976D01*
X6335833Y-15692452D01*
X6345357Y-15682928D01*
X6345357Y-15701976D01*
X6478690Y-15501976D02*
X6497738Y-15501976D01*
X6516786Y-15511500D01*
X6526309Y-15521024D01*
X6535833Y-15540071D01*
X6545357Y-15578167D01*
X6545357Y-15625786D01*
X6535833Y-15663881D01*
X6526309Y-15682928D01*
X6516786Y-15692452D01*
X6497738Y-15701976D01*
X6478690Y-15701976D01*
X6459643Y-15692452D01*
X6450119Y-15682928D01*
X6440595Y-15663881D01*
X6431071Y-15625786D01*
X6431071Y-15578167D01*
X6440595Y-15540071D01*
X6450119Y-15521024D01*
X6459643Y-15511500D01*
X6478690Y-15501976D01*
X6735833Y-15701976D02*
X6621548Y-15701976D01*
X6678690Y-15701976D02*
X6678690Y-15501976D01*
X6659643Y-15530548D01*
X6640595Y-15549595D01*
X6621548Y-15559119D01*
X6916786Y-15501976D02*
X6821548Y-15501976D01*
X6812024Y-15597214D01*
X6821548Y-15587690D01*
X6840595Y-15578167D01*
X6888214Y-15578167D01*
X6907262Y-15587690D01*
X6916786Y-15597214D01*
X6926309Y-15616262D01*
X6926309Y-15663881D01*
X6916786Y-15682928D01*
X6907262Y-15692452D01*
X6888214Y-15701976D01*
X6840595Y-15701976D01*
X6821548Y-15692452D01*
X6812024Y-15682928D01*
X6992976Y-15501976D02*
X7126309Y-15501976D01*
X7040595Y-15701976D01*
X7192976Y-15501976D02*
X7192976Y-15540071D01*
X7269167Y-15501976D02*
X7269167Y-15540071D01*
X7564405Y-15778167D02*
X7554881Y-15768643D01*
X7535833Y-15740071D01*
X7526309Y-15721024D01*
X7516786Y-15692452D01*
X7507262Y-15644833D01*
X7507262Y-15606738D01*
X7516786Y-15559119D01*
X7526309Y-15530548D01*
X7535833Y-15511500D01*
X7554881Y-15482928D01*
X7564405Y-15473405D01*
X7669167Y-15587690D02*
X7650119Y-15578167D01*
X7640595Y-15568643D01*
X7631071Y-15549595D01*
X7631071Y-15540071D01*
X7640595Y-15521024D01*
X7650119Y-15511500D01*
X7669167Y-15501976D01*
X7707262Y-15501976D01*
X7726309Y-15511500D01*
X7735833Y-15521024D01*
X7745357Y-15540071D01*
X7745357Y-15549595D01*
X7735833Y-15568643D01*
X7726309Y-15578167D01*
X7707262Y-15587690D01*
X7669167Y-15587690D01*
X7650119Y-15597214D01*
X7640595Y-15606738D01*
X7631071Y-15625786D01*
X7631071Y-15663881D01*
X7640595Y-15682928D01*
X7650119Y-15692452D01*
X7669167Y-15701976D01*
X7707262Y-15701976D01*
X7726309Y-15692452D01*
X7735833Y-15682928D01*
X7745357Y-15663881D01*
X7745357Y-15625786D01*
X7735833Y-15606738D01*
X7726309Y-15597214D01*
X7707262Y-15587690D01*
X7812024Y-15501976D02*
X7935833Y-15501976D01*
X7869167Y-15578167D01*
X7897738Y-15578167D01*
X7916786Y-15587690D01*
X7926309Y-15597214D01*
X7935833Y-15616262D01*
X7935833Y-15663881D01*
X7926309Y-15682928D01*
X7916786Y-15692452D01*
X7897738Y-15701976D01*
X7840595Y-15701976D01*
X7821548Y-15692452D01*
X7812024Y-15682928D01*
X8173928Y-15701976D02*
X8173928Y-15501976D01*
X8259643Y-15701976D02*
X8259643Y-15597214D01*
X8250119Y-15578167D01*
X8231071Y-15568643D01*
X8202500Y-15568643D01*
X8183452Y-15578167D01*
X8173928Y-15587690D01*
X8383452Y-15701976D02*
X8364405Y-15692452D01*
X8354881Y-15682928D01*
X8345357Y-15663881D01*
X8345357Y-15606738D01*
X8354881Y-15587690D01*
X8364405Y-15578167D01*
X8383452Y-15568643D01*
X8412024Y-15568643D01*
X8431071Y-15578167D01*
X8440595Y-15587690D01*
X8450119Y-15606738D01*
X8450119Y-15663881D01*
X8440595Y-15682928D01*
X8431071Y-15692452D01*
X8412024Y-15701976D01*
X8383452Y-15701976D01*
X8564405Y-15701976D02*
X8545357Y-15692452D01*
X8535833Y-15673405D01*
X8535833Y-15501976D01*
X8716786Y-15692452D02*
X8697738Y-15701976D01*
X8659643Y-15701976D01*
X8640595Y-15692452D01*
X8631071Y-15673405D01*
X8631071Y-15597214D01*
X8640595Y-15578167D01*
X8659643Y-15568643D01*
X8697738Y-15568643D01*
X8716786Y-15578167D01*
X8726310Y-15597214D01*
X8726310Y-15616262D01*
X8631071Y-15635309D01*
X8802500Y-15692452D02*
X8821548Y-15701976D01*
X8859643Y-15701976D01*
X8878690Y-15692452D01*
X8888214Y-15673405D01*
X8888214Y-15663881D01*
X8878690Y-15644833D01*
X8859643Y-15635309D01*
X8831071Y-15635309D01*
X8812024Y-15625786D01*
X8802500Y-15606738D01*
X8802500Y-15597214D01*
X8812024Y-15578167D01*
X8831071Y-15568643D01*
X8859643Y-15568643D01*
X8878690Y-15578167D01*
X8954881Y-15778167D02*
X8964405Y-15768643D01*
X8983452Y-15740071D01*
X8992976Y-15721024D01*
X9002500Y-15692452D01*
X9012024Y-15644833D01*
X9012024Y-15606738D01*
X9002500Y-15559119D01*
X8992976Y-15530548D01*
X8983452Y-15511500D01*
X8964405Y-15482928D01*
X8954881Y-15473405D01*
D15*
X3967500Y-15850500D02*
X3967500Y-15900500D01*
X3942500Y-15875500D02*
X3992500Y-15875500D01*
D12*
X4288214Y-15765976D02*
X4307262Y-15765976D01*
X4326310Y-15775500D01*
X4335833Y-15785024D01*
X4345357Y-15804071D01*
X4354881Y-15842167D01*
X4354881Y-15889786D01*
X4345357Y-15927881D01*
X4335833Y-15946928D01*
X4326310Y-15956452D01*
X4307262Y-15965976D01*
X4288214Y-15965976D01*
X4269167Y-15956452D01*
X4259643Y-15946928D01*
X4250119Y-15927881D01*
X4240595Y-15889786D01*
X4240595Y-15842167D01*
X4250119Y-15804071D01*
X4259643Y-15785024D01*
X4269167Y-15775500D01*
X4288214Y-15765976D01*
X4440595Y-15946928D02*
X4450119Y-15956452D01*
X4440595Y-15965976D01*
X4431071Y-15956452D01*
X4440595Y-15946928D01*
X4440595Y-15965976D01*
X4631071Y-15765976D02*
X4535833Y-15765976D01*
X4526310Y-15861214D01*
X4535833Y-15851690D01*
X4554881Y-15842167D01*
X4602500Y-15842167D01*
X4621548Y-15851690D01*
X4631071Y-15861214D01*
X4640595Y-15880262D01*
X4640595Y-15927881D01*
X4631071Y-15946928D01*
X4621548Y-15956452D01*
X4602500Y-15965976D01*
X4554881Y-15965976D01*
X4535833Y-15956452D01*
X4526310Y-15946928D01*
X4764405Y-15765976D02*
X4783452Y-15765976D01*
X4802500Y-15775500D01*
X4812024Y-15785024D01*
X4821548Y-15804071D01*
X4831071Y-15842167D01*
X4831071Y-15889786D01*
X4821548Y-15927881D01*
X4812024Y-15946928D01*
X4802500Y-15956452D01*
X4783452Y-15965976D01*
X4764405Y-15965976D01*
X4745357Y-15956452D01*
X4735833Y-15946928D01*
X4726310Y-15927881D01*
X4716786Y-15889786D01*
X4716786Y-15842167D01*
X4726310Y-15804071D01*
X4735833Y-15785024D01*
X4745357Y-15775500D01*
X4764405Y-15765976D01*
X4954881Y-15765976D02*
X4973929Y-15765976D01*
X4992976Y-15775500D01*
X5002500Y-15785024D01*
X5012024Y-15804071D01*
X5021548Y-15842167D01*
X5021548Y-15889786D01*
X5012024Y-15927881D01*
X5002500Y-15946928D01*
X4992976Y-15956452D01*
X4973929Y-15965976D01*
X4954881Y-15965976D01*
X4935833Y-15956452D01*
X4926310Y-15946928D01*
X4916786Y-15927881D01*
X4907262Y-15889786D01*
X4907262Y-15842167D01*
X4916786Y-15804071D01*
X4926310Y-15785024D01*
X4935833Y-15775500D01*
X4954881Y-15765976D01*
X5107262Y-15965976D02*
X5107262Y-15832643D01*
X5107262Y-15851690D02*
X5116786Y-15842167D01*
X5135833Y-15832643D01*
X5164405Y-15832643D01*
X5183452Y-15842167D01*
X5192976Y-15861214D01*
X5192976Y-15965976D01*
X5192976Y-15861214D02*
X5202500Y-15842167D01*
X5221548Y-15832643D01*
X5250119Y-15832643D01*
X5269167Y-15842167D01*
X5278690Y-15861214D01*
X5278690Y-15965976D01*
X5373929Y-15965976D02*
X5373929Y-15832643D01*
X5373929Y-15851690D02*
X5383452Y-15842167D01*
X5402500Y-15832643D01*
X5431071Y-15832643D01*
X5450119Y-15842167D01*
X5459643Y-15861214D01*
X5459643Y-15965976D01*
X5459643Y-15861214D02*
X5469167Y-15842167D01*
X5488214Y-15832643D01*
X5516786Y-15832643D01*
X5535833Y-15842167D01*
X5545357Y-15861214D01*
X5545357Y-15965976D01*
X5935833Y-15756452D02*
X5764405Y-16013595D01*
X6192976Y-15765976D02*
X6212024Y-15765976D01*
X6231071Y-15775500D01*
X6240595Y-15785024D01*
X6250119Y-15804071D01*
X6259643Y-15842167D01*
X6259643Y-15889786D01*
X6250119Y-15927881D01*
X6240595Y-15946928D01*
X6231071Y-15956452D01*
X6212024Y-15965976D01*
X6192976Y-15965976D01*
X6173928Y-15956452D01*
X6164405Y-15946928D01*
X6154881Y-15927881D01*
X6145357Y-15889786D01*
X6145357Y-15842167D01*
X6154881Y-15804071D01*
X6164405Y-15785024D01*
X6173928Y-15775500D01*
X6192976Y-15765976D01*
X6345357Y-15946928D02*
X6354881Y-15956452D01*
X6345357Y-15965976D01*
X6335833Y-15956452D01*
X6345357Y-15946928D01*
X6345357Y-15965976D01*
X6478690Y-15765976D02*
X6497738Y-15765976D01*
X6516786Y-15775500D01*
X6526309Y-15785024D01*
X6535833Y-15804071D01*
X6545357Y-15842167D01*
X6545357Y-15889786D01*
X6535833Y-15927881D01*
X6526309Y-15946928D01*
X6516786Y-15956452D01*
X6497738Y-15965976D01*
X6478690Y-15965976D01*
X6459643Y-15956452D01*
X6450119Y-15946928D01*
X6440595Y-15927881D01*
X6431071Y-15889786D01*
X6431071Y-15842167D01*
X6440595Y-15804071D01*
X6450119Y-15785024D01*
X6459643Y-15775500D01*
X6478690Y-15765976D01*
X6735833Y-15965976D02*
X6621548Y-15965976D01*
X6678690Y-15965976D02*
X6678690Y-15765976D01*
X6659643Y-15794548D01*
X6640595Y-15813595D01*
X6621548Y-15823119D01*
X6831071Y-15965976D02*
X6869167Y-15965976D01*
X6888214Y-15956452D01*
X6897738Y-15946928D01*
X6916786Y-15918357D01*
X6926309Y-15880262D01*
X6926309Y-15804071D01*
X6916786Y-15785024D01*
X6907262Y-15775500D01*
X6888214Y-15765976D01*
X6850119Y-15765976D01*
X6831071Y-15775500D01*
X6821548Y-15785024D01*
X6812024Y-15804071D01*
X6812024Y-15851690D01*
X6821548Y-15870738D01*
X6831071Y-15880262D01*
X6850119Y-15889786D01*
X6888214Y-15889786D01*
X6907262Y-15880262D01*
X6916786Y-15870738D01*
X6926309Y-15851690D01*
X6992976Y-15765976D02*
X7126309Y-15765976D01*
X7040595Y-15965976D01*
X7192976Y-15765976D02*
X7192976Y-15804071D01*
X7269167Y-15765976D02*
X7269167Y-15804071D01*
X7564405Y-16042167D02*
X7554881Y-16032643D01*
X7535833Y-16004071D01*
X7526309Y-15985024D01*
X7516786Y-15956452D01*
X7507262Y-15908833D01*
X7507262Y-15870738D01*
X7516786Y-15823119D01*
X7526309Y-15794548D01*
X7535833Y-15775500D01*
X7554881Y-15746928D01*
X7564405Y-15737405D01*
X7621548Y-15765976D02*
X7745357Y-15765976D01*
X7678690Y-15842167D01*
X7707262Y-15842167D01*
X7726309Y-15851690D01*
X7735833Y-15861214D01*
X7745357Y-15880262D01*
X7745357Y-15927881D01*
X7735833Y-15946928D01*
X7726309Y-15956452D01*
X7707262Y-15965976D01*
X7650119Y-15965976D01*
X7631071Y-15956452D01*
X7621548Y-15946928D01*
X7926309Y-15765976D02*
X7831071Y-15765976D01*
X7821548Y-15861214D01*
X7831071Y-15851690D01*
X7850119Y-15842167D01*
X7897738Y-15842167D01*
X7916786Y-15851690D01*
X7926309Y-15861214D01*
X7935833Y-15880262D01*
X7935833Y-15927881D01*
X7926309Y-15946928D01*
X7916786Y-15956452D01*
X7897738Y-15965976D01*
X7850119Y-15965976D01*
X7831071Y-15956452D01*
X7821548Y-15946928D01*
X8173928Y-15965976D02*
X8173928Y-15765976D01*
X8259643Y-15965976D02*
X8259643Y-15861214D01*
X8250119Y-15842167D01*
X8231071Y-15832643D01*
X8202500Y-15832643D01*
X8183452Y-15842167D01*
X8173928Y-15851690D01*
X8383452Y-15965976D02*
X8364405Y-15956452D01*
X8354881Y-15946928D01*
X8345357Y-15927881D01*
X8345357Y-15870738D01*
X8354881Y-15851690D01*
X8364405Y-15842167D01*
X8383452Y-15832643D01*
X8412024Y-15832643D01*
X8431071Y-15842167D01*
X8440595Y-15851690D01*
X8450119Y-15870738D01*
X8450119Y-15927881D01*
X8440595Y-15946928D01*
X8431071Y-15956452D01*
X8412024Y-15965976D01*
X8383452Y-15965976D01*
X8564405Y-15965976D02*
X8545357Y-15956452D01*
X8535833Y-15937405D01*
X8535833Y-15765976D01*
X8716786Y-15956452D02*
X8697738Y-15965976D01*
X8659643Y-15965976D01*
X8640595Y-15956452D01*
X8631071Y-15937405D01*
X8631071Y-15861214D01*
X8640595Y-15842167D01*
X8659643Y-15832643D01*
X8697738Y-15832643D01*
X8716786Y-15842167D01*
X8726310Y-15861214D01*
X8726310Y-15880262D01*
X8631071Y-15899309D01*
X8802500Y-15956452D02*
X8821548Y-15965976D01*
X8859643Y-15965976D01*
X8878690Y-15956452D01*
X8888214Y-15937405D01*
X8888214Y-15927881D01*
X8878690Y-15908833D01*
X8859643Y-15899309D01*
X8831071Y-15899309D01*
X8812024Y-15889786D01*
X8802500Y-15870738D01*
X8802500Y-15861214D01*
X8812024Y-15842167D01*
X8831071Y-15832643D01*
X8859643Y-15832643D01*
X8878690Y-15842167D01*
X8954881Y-16042167D02*
X8964405Y-16032643D01*
X8983452Y-16004071D01*
X8992976Y-15985024D01*
X9002500Y-15956452D01*
X9012024Y-15908833D01*
X9012024Y-15870738D01*
X9002500Y-15823119D01*
X8992976Y-15794548D01*
X8983452Y-15775500D01*
X8964405Y-15746928D01*
X8954881Y-15737405D01*
D16*
X3983713Y-16160713D02*
X3983713Y-16118287D01*
X3941287Y-16118287D01*
X3941287Y-16160713D01*
X3983713Y-16160713D01*
D12*
X4288214Y-16029976D02*
X4307262Y-16029976D01*
X4326310Y-16039500D01*
X4335833Y-16049024D01*
X4345357Y-16068071D01*
X4354881Y-16106167D01*
X4354881Y-16153786D01*
X4345357Y-16191881D01*
X4335833Y-16210928D01*
X4326310Y-16220452D01*
X4307262Y-16229976D01*
X4288214Y-16229976D01*
X4269167Y-16220452D01*
X4259643Y-16210928D01*
X4250119Y-16191881D01*
X4240595Y-16153786D01*
X4240595Y-16106167D01*
X4250119Y-16068071D01*
X4259643Y-16049024D01*
X4269167Y-16039500D01*
X4288214Y-16029976D01*
X4440595Y-16210928D02*
X4450119Y-16220452D01*
X4440595Y-16229976D01*
X4431071Y-16220452D01*
X4440595Y-16210928D01*
X4440595Y-16229976D01*
X4621548Y-16029976D02*
X4583452Y-16029976D01*
X4564405Y-16039500D01*
X4554881Y-16049024D01*
X4535833Y-16077595D01*
X4526310Y-16115690D01*
X4526310Y-16191881D01*
X4535833Y-16210928D01*
X4545357Y-16220452D01*
X4564405Y-16229976D01*
X4602500Y-16229976D01*
X4621548Y-16220452D01*
X4631071Y-16210928D01*
X4640595Y-16191881D01*
X4640595Y-16144262D01*
X4631071Y-16125214D01*
X4621548Y-16115690D01*
X4602500Y-16106167D01*
X4564405Y-16106167D01*
X4545357Y-16115690D01*
X4535833Y-16125214D01*
X4526310Y-16144262D01*
X4764405Y-16029976D02*
X4783452Y-16029976D01*
X4802500Y-16039500D01*
X4812024Y-16049024D01*
X4821548Y-16068071D01*
X4831071Y-16106167D01*
X4831071Y-16153786D01*
X4821548Y-16191881D01*
X4812024Y-16210928D01*
X4802500Y-16220452D01*
X4783452Y-16229976D01*
X4764405Y-16229976D01*
X4745357Y-16220452D01*
X4735833Y-16210928D01*
X4726310Y-16191881D01*
X4716786Y-16153786D01*
X4716786Y-16106167D01*
X4726310Y-16068071D01*
X4735833Y-16049024D01*
X4745357Y-16039500D01*
X4764405Y-16029976D01*
X4954881Y-16029976D02*
X4973929Y-16029976D01*
X4992976Y-16039500D01*
X5002500Y-16049024D01*
X5012024Y-16068071D01*
X5021548Y-16106167D01*
X5021548Y-16153786D01*
X5012024Y-16191881D01*
X5002500Y-16210928D01*
X4992976Y-16220452D01*
X4973929Y-16229976D01*
X4954881Y-16229976D01*
X4935833Y-16220452D01*
X4926310Y-16210928D01*
X4916786Y-16191881D01*
X4907262Y-16153786D01*
X4907262Y-16106167D01*
X4916786Y-16068071D01*
X4926310Y-16049024D01*
X4935833Y-16039500D01*
X4954881Y-16029976D01*
X5107262Y-16229976D02*
X5107262Y-16096643D01*
X5107262Y-16115690D02*
X5116786Y-16106167D01*
X5135833Y-16096643D01*
X5164405Y-16096643D01*
X5183452Y-16106167D01*
X5192976Y-16125214D01*
X5192976Y-16229976D01*
X5192976Y-16125214D02*
X5202500Y-16106167D01*
X5221548Y-16096643D01*
X5250119Y-16096643D01*
X5269167Y-16106167D01*
X5278690Y-16125214D01*
X5278690Y-16229976D01*
X5373929Y-16229976D02*
X5373929Y-16096643D01*
X5373929Y-16115690D02*
X5383452Y-16106167D01*
X5402500Y-16096643D01*
X5431071Y-16096643D01*
X5450119Y-16106167D01*
X5459643Y-16125214D01*
X5459643Y-16229976D01*
X5459643Y-16125214D02*
X5469167Y-16106167D01*
X5488214Y-16096643D01*
X5516786Y-16096643D01*
X5535833Y-16106167D01*
X5545357Y-16125214D01*
X5545357Y-16229976D01*
X5935833Y-16020452D02*
X5764405Y-16277595D01*
X6192976Y-16029976D02*
X6212024Y-16029976D01*
X6231071Y-16039500D01*
X6240595Y-16049024D01*
X6250119Y-16068071D01*
X6259643Y-16106167D01*
X6259643Y-16153786D01*
X6250119Y-16191881D01*
X6240595Y-16210928D01*
X6231071Y-16220452D01*
X6212024Y-16229976D01*
X6192976Y-16229976D01*
X6173928Y-16220452D01*
X6164405Y-16210928D01*
X6154881Y-16191881D01*
X6145357Y-16153786D01*
X6145357Y-16106167D01*
X6154881Y-16068071D01*
X6164405Y-16049024D01*
X6173928Y-16039500D01*
X6192976Y-16029976D01*
X6345357Y-16210928D02*
X6354881Y-16220452D01*
X6345357Y-16229976D01*
X6335833Y-16220452D01*
X6345357Y-16210928D01*
X6345357Y-16229976D01*
X6478690Y-16029976D02*
X6497738Y-16029976D01*
X6516786Y-16039500D01*
X6526309Y-16049024D01*
X6535833Y-16068071D01*
X6545357Y-16106167D01*
X6545357Y-16153786D01*
X6535833Y-16191881D01*
X6526309Y-16210928D01*
X6516786Y-16220452D01*
X6497738Y-16229976D01*
X6478690Y-16229976D01*
X6459643Y-16220452D01*
X6450119Y-16210928D01*
X6440595Y-16191881D01*
X6431071Y-16153786D01*
X6431071Y-16106167D01*
X6440595Y-16068071D01*
X6450119Y-16049024D01*
X6459643Y-16039500D01*
X6478690Y-16029976D01*
X6621548Y-16049024D02*
X6631071Y-16039500D01*
X6650119Y-16029976D01*
X6697738Y-16029976D01*
X6716786Y-16039500D01*
X6726309Y-16049024D01*
X6735833Y-16068071D01*
X6735833Y-16087119D01*
X6726309Y-16115690D01*
X6612024Y-16229976D01*
X6735833Y-16229976D01*
X6802500Y-16029976D02*
X6926309Y-16029976D01*
X6859643Y-16106167D01*
X6888214Y-16106167D01*
X6907262Y-16115690D01*
X6916786Y-16125214D01*
X6926309Y-16144262D01*
X6926309Y-16191881D01*
X6916786Y-16210928D01*
X6907262Y-16220452D01*
X6888214Y-16229976D01*
X6831071Y-16229976D01*
X6812024Y-16220452D01*
X6802500Y-16210928D01*
X7097738Y-16029976D02*
X7059643Y-16029976D01*
X7040595Y-16039500D01*
X7031071Y-16049024D01*
X7012024Y-16077595D01*
X7002500Y-16115690D01*
X7002500Y-16191881D01*
X7012024Y-16210928D01*
X7021548Y-16220452D01*
X7040595Y-16229976D01*
X7078690Y-16229976D01*
X7097738Y-16220452D01*
X7107262Y-16210928D01*
X7116786Y-16191881D01*
X7116786Y-16144262D01*
X7107262Y-16125214D01*
X7097738Y-16115690D01*
X7078690Y-16106167D01*
X7040595Y-16106167D01*
X7021548Y-16115690D01*
X7012024Y-16125214D01*
X7002500Y-16144262D01*
X7192976Y-16029976D02*
X7192976Y-16068071D01*
X7269167Y-16029976D02*
X7269167Y-16068071D01*
X7564405Y-16306167D02*
X7554881Y-16296643D01*
X7535833Y-16268071D01*
X7526309Y-16249024D01*
X7516786Y-16220452D01*
X7507262Y-16172833D01*
X7507262Y-16134738D01*
X7516786Y-16087119D01*
X7526309Y-16058548D01*
X7535833Y-16039500D01*
X7554881Y-16010928D01*
X7564405Y-16001405D01*
X7631071Y-16049024D02*
X7640595Y-16039500D01*
X7659643Y-16029976D01*
X7707262Y-16029976D01*
X7726309Y-16039500D01*
X7735833Y-16049024D01*
X7745357Y-16068071D01*
X7745357Y-16087119D01*
X7735833Y-16115690D01*
X7621548Y-16229976D01*
X7745357Y-16229976D01*
X7859643Y-16115690D02*
X7840595Y-16106167D01*
X7831071Y-16096643D01*
X7821548Y-16077595D01*
X7821548Y-16068071D01*
X7831071Y-16049024D01*
X7840595Y-16039500D01*
X7859643Y-16029976D01*
X7897738Y-16029976D01*
X7916786Y-16039500D01*
X7926309Y-16049024D01*
X7935833Y-16068071D01*
X7935833Y-16077595D01*
X7926309Y-16096643D01*
X7916786Y-16106167D01*
X7897738Y-16115690D01*
X7859643Y-16115690D01*
X7840595Y-16125214D01*
X7831071Y-16134738D01*
X7821548Y-16153786D01*
X7821548Y-16191881D01*
X7831071Y-16210928D01*
X7840595Y-16220452D01*
X7859643Y-16229976D01*
X7897738Y-16229976D01*
X7916786Y-16220452D01*
X7926309Y-16210928D01*
X7935833Y-16191881D01*
X7935833Y-16153786D01*
X7926309Y-16134738D01*
X7916786Y-16125214D01*
X7897738Y-16115690D01*
X8173928Y-16229976D02*
X8173928Y-16029976D01*
X8259643Y-16229976D02*
X8259643Y-16125214D01*
X8250119Y-16106167D01*
X8231071Y-16096643D01*
X8202500Y-16096643D01*
X8183452Y-16106167D01*
X8173928Y-16115690D01*
X8383452Y-16229976D02*
X8364405Y-16220452D01*
X8354881Y-16210928D01*
X8345357Y-16191881D01*
X8345357Y-16134738D01*
X8354881Y-16115690D01*
X8364405Y-16106167D01*
X8383452Y-16096643D01*
X8412024Y-16096643D01*
X8431071Y-16106167D01*
X8440595Y-16115690D01*
X8450119Y-16134738D01*
X8450119Y-16191881D01*
X8440595Y-16210928D01*
X8431071Y-16220452D01*
X8412024Y-16229976D01*
X8383452Y-16229976D01*
X8564405Y-16229976D02*
X8545357Y-16220452D01*
X8535833Y-16201405D01*
X8535833Y-16029976D01*
X8716786Y-16220452D02*
X8697738Y-16229976D01*
X8659643Y-16229976D01*
X8640595Y-16220452D01*
X8631071Y-16201405D01*
X8631071Y-16125214D01*
X8640595Y-16106167D01*
X8659643Y-16096643D01*
X8697738Y-16096643D01*
X8716786Y-16106167D01*
X8726310Y-16125214D01*
X8726310Y-16144262D01*
X8631071Y-16163309D01*
X8802500Y-16220452D02*
X8821548Y-16229976D01*
X8859643Y-16229976D01*
X8878690Y-16220452D01*
X8888214Y-16201405D01*
X8888214Y-16191881D01*
X8878690Y-16172833D01*
X8859643Y-16163309D01*
X8831071Y-16163309D01*
X8812024Y-16153786D01*
X8802500Y-16134738D01*
X8802500Y-16125214D01*
X8812024Y-16106167D01*
X8831071Y-16096643D01*
X8859643Y-16096643D01*
X8878690Y-16106167D01*
X8954881Y-16306167D02*
X8964405Y-16296643D01*
X8983452Y-16268071D01*
X8992976Y-16249024D01*
X9002500Y-16220452D01*
X9012024Y-16172833D01*
X9012024Y-16134738D01*
X9002500Y-16087119D01*
X8992976Y-16058548D01*
X8983452Y-16039500D01*
X8964405Y-16010928D01*
X8954881Y-16001405D01*
D16*
X3962500Y-16433500D02*
X3992500Y-16403500D01*
X3962500Y-16373500D01*
X3932500Y-16403500D01*
X3962500Y-16433500D01*
D12*
X4288214Y-16293976D02*
X4307262Y-16293976D01*
X4326310Y-16303500D01*
X4335833Y-16313024D01*
X4345357Y-16332071D01*
X4354881Y-16370167D01*
X4354881Y-16417786D01*
X4345357Y-16455881D01*
X4335833Y-16474928D01*
X4326310Y-16484452D01*
X4307262Y-16493976D01*
X4288214Y-16493976D01*
X4269167Y-16484452D01*
X4259643Y-16474928D01*
X4250119Y-16455881D01*
X4240595Y-16417786D01*
X4240595Y-16370167D01*
X4250119Y-16332071D01*
X4259643Y-16313024D01*
X4269167Y-16303500D01*
X4288214Y-16293976D01*
X4440595Y-16474928D02*
X4450119Y-16484452D01*
X4440595Y-16493976D01*
X4431071Y-16484452D01*
X4440595Y-16474928D01*
X4440595Y-16493976D01*
X4621548Y-16293976D02*
X4583452Y-16293976D01*
X4564405Y-16303500D01*
X4554881Y-16313024D01*
X4535833Y-16341595D01*
X4526310Y-16379690D01*
X4526310Y-16455881D01*
X4535833Y-16474928D01*
X4545357Y-16484452D01*
X4564405Y-16493976D01*
X4602500Y-16493976D01*
X4621548Y-16484452D01*
X4631071Y-16474928D01*
X4640595Y-16455881D01*
X4640595Y-16408262D01*
X4631071Y-16389214D01*
X4621548Y-16379690D01*
X4602500Y-16370167D01*
X4564405Y-16370167D01*
X4545357Y-16379690D01*
X4535833Y-16389214D01*
X4526310Y-16408262D01*
X4764405Y-16293976D02*
X4783452Y-16293976D01*
X4802500Y-16303500D01*
X4812024Y-16313024D01*
X4821548Y-16332071D01*
X4831071Y-16370167D01*
X4831071Y-16417786D01*
X4821548Y-16455881D01*
X4812024Y-16474928D01*
X4802500Y-16484452D01*
X4783452Y-16493976D01*
X4764405Y-16493976D01*
X4745357Y-16484452D01*
X4735833Y-16474928D01*
X4726310Y-16455881D01*
X4716786Y-16417786D01*
X4716786Y-16370167D01*
X4726310Y-16332071D01*
X4735833Y-16313024D01*
X4745357Y-16303500D01*
X4764405Y-16293976D01*
X4954881Y-16293976D02*
X4973929Y-16293976D01*
X4992976Y-16303500D01*
X5002500Y-16313024D01*
X5012024Y-16332071D01*
X5021548Y-16370167D01*
X5021548Y-16417786D01*
X5012024Y-16455881D01*
X5002500Y-16474928D01*
X4992976Y-16484452D01*
X4973929Y-16493976D01*
X4954881Y-16493976D01*
X4935833Y-16484452D01*
X4926310Y-16474928D01*
X4916786Y-16455881D01*
X4907262Y-16417786D01*
X4907262Y-16370167D01*
X4916786Y-16332071D01*
X4926310Y-16313024D01*
X4935833Y-16303500D01*
X4954881Y-16293976D01*
X5107262Y-16493976D02*
X5107262Y-16360643D01*
X5107262Y-16379690D02*
X5116786Y-16370167D01*
X5135833Y-16360643D01*
X5164405Y-16360643D01*
X5183452Y-16370167D01*
X5192976Y-16389214D01*
X5192976Y-16493976D01*
X5192976Y-16389214D02*
X5202500Y-16370167D01*
X5221548Y-16360643D01*
X5250119Y-16360643D01*
X5269167Y-16370167D01*
X5278690Y-16389214D01*
X5278690Y-16493976D01*
X5373929Y-16493976D02*
X5373929Y-16360643D01*
X5373929Y-16379690D02*
X5383452Y-16370167D01*
X5402500Y-16360643D01*
X5431071Y-16360643D01*
X5450119Y-16370167D01*
X5459643Y-16389214D01*
X5459643Y-16493976D01*
X5459643Y-16389214D02*
X5469167Y-16370167D01*
X5488214Y-16360643D01*
X5516786Y-16360643D01*
X5535833Y-16370167D01*
X5545357Y-16389214D01*
X5545357Y-16493976D01*
X5935833Y-16284452D02*
X5764405Y-16541595D01*
X6192976Y-16293976D02*
X6212024Y-16293976D01*
X6231071Y-16303500D01*
X6240595Y-16313024D01*
X6250119Y-16332071D01*
X6259643Y-16370167D01*
X6259643Y-16417786D01*
X6250119Y-16455881D01*
X6240595Y-16474928D01*
X6231071Y-16484452D01*
X6212024Y-16493976D01*
X6192976Y-16493976D01*
X6173928Y-16484452D01*
X6164405Y-16474928D01*
X6154881Y-16455881D01*
X6145357Y-16417786D01*
X6145357Y-16370167D01*
X6154881Y-16332071D01*
X6164405Y-16313024D01*
X6173928Y-16303500D01*
X6192976Y-16293976D01*
X6345357Y-16474928D02*
X6354881Y-16484452D01*
X6345357Y-16493976D01*
X6335833Y-16484452D01*
X6345357Y-16474928D01*
X6345357Y-16493976D01*
X6478690Y-16293976D02*
X6497738Y-16293976D01*
X6516786Y-16303500D01*
X6526309Y-16313024D01*
X6535833Y-16332071D01*
X6545357Y-16370167D01*
X6545357Y-16417786D01*
X6535833Y-16455881D01*
X6526309Y-16474928D01*
X6516786Y-16484452D01*
X6497738Y-16493976D01*
X6478690Y-16493976D01*
X6459643Y-16484452D01*
X6450119Y-16474928D01*
X6440595Y-16455881D01*
X6431071Y-16417786D01*
X6431071Y-16370167D01*
X6440595Y-16332071D01*
X6450119Y-16313024D01*
X6459643Y-16303500D01*
X6478690Y-16293976D01*
X6621548Y-16313024D02*
X6631071Y-16303500D01*
X6650119Y-16293976D01*
X6697738Y-16293976D01*
X6716786Y-16303500D01*
X6726309Y-16313024D01*
X6735833Y-16332071D01*
X6735833Y-16351119D01*
X6726309Y-16379690D01*
X6612024Y-16493976D01*
X6735833Y-16493976D01*
X6802500Y-16293976D02*
X6926309Y-16293976D01*
X6859643Y-16370167D01*
X6888214Y-16370167D01*
X6907262Y-16379690D01*
X6916786Y-16389214D01*
X6926309Y-16408262D01*
X6926309Y-16455881D01*
X6916786Y-16474928D01*
X6907262Y-16484452D01*
X6888214Y-16493976D01*
X6831071Y-16493976D01*
X6812024Y-16484452D01*
X6802500Y-16474928D01*
X7097738Y-16293976D02*
X7059643Y-16293976D01*
X7040595Y-16303500D01*
X7031071Y-16313024D01*
X7012024Y-16341595D01*
X7002500Y-16379690D01*
X7002500Y-16455881D01*
X7012024Y-16474928D01*
X7021548Y-16484452D01*
X7040595Y-16493976D01*
X7078690Y-16493976D01*
X7097738Y-16484452D01*
X7107262Y-16474928D01*
X7116786Y-16455881D01*
X7116786Y-16408262D01*
X7107262Y-16389214D01*
X7097738Y-16379690D01*
X7078690Y-16370167D01*
X7040595Y-16370167D01*
X7021548Y-16379690D01*
X7012024Y-16389214D01*
X7002500Y-16408262D01*
X7192976Y-16293976D02*
X7192976Y-16332071D01*
X7269167Y-16293976D02*
X7269167Y-16332071D01*
X7564405Y-16570167D02*
X7554881Y-16560643D01*
X7535833Y-16532071D01*
X7526309Y-16513024D01*
X7516786Y-16484452D01*
X7507262Y-16436833D01*
X7507262Y-16398738D01*
X7516786Y-16351119D01*
X7526309Y-16322548D01*
X7535833Y-16303500D01*
X7554881Y-16274928D01*
X7564405Y-16265405D01*
X7678690Y-16293976D02*
X7697738Y-16293976D01*
X7716786Y-16303500D01*
X7726309Y-16313024D01*
X7735833Y-16332071D01*
X7745357Y-16370167D01*
X7745357Y-16417786D01*
X7735833Y-16455881D01*
X7726309Y-16474928D01*
X7716786Y-16484452D01*
X7697738Y-16493976D01*
X7678690Y-16493976D01*
X7659643Y-16484452D01*
X7650119Y-16474928D01*
X7640595Y-16455881D01*
X7631071Y-16417786D01*
X7631071Y-16370167D01*
X7640595Y-16332071D01*
X7650119Y-16313024D01*
X7659643Y-16303500D01*
X7678690Y-16293976D01*
X7983452Y-16493976D02*
X7983452Y-16293976D01*
X8069167Y-16493976D02*
X8069167Y-16389214D01*
X8059643Y-16370167D01*
X8040595Y-16360643D01*
X8012024Y-16360643D01*
X7992976Y-16370167D01*
X7983452Y-16379690D01*
X8192976Y-16493976D02*
X8173928Y-16484452D01*
X8164405Y-16474928D01*
X8154881Y-16455881D01*
X8154881Y-16398738D01*
X8164405Y-16379690D01*
X8173928Y-16370167D01*
X8192976Y-16360643D01*
X8221548Y-16360643D01*
X8240595Y-16370167D01*
X8250119Y-16379690D01*
X8259643Y-16398738D01*
X8259643Y-16455881D01*
X8250119Y-16474928D01*
X8240595Y-16484452D01*
X8221548Y-16493976D01*
X8192976Y-16493976D01*
X8373928Y-16493976D02*
X8354881Y-16484452D01*
X8345357Y-16465405D01*
X8345357Y-16293976D01*
X8526310Y-16484452D02*
X8507262Y-16493976D01*
X8469167Y-16493976D01*
X8450119Y-16484452D01*
X8440595Y-16465405D01*
X8440595Y-16389214D01*
X8450119Y-16370167D01*
X8469167Y-16360643D01*
X8507262Y-16360643D01*
X8526310Y-16370167D01*
X8535833Y-16389214D01*
X8535833Y-16408262D01*
X8440595Y-16427309D01*
X8612024Y-16484452D02*
X8631071Y-16493976D01*
X8669167Y-16493976D01*
X8688214Y-16484452D01*
X8697738Y-16465405D01*
X8697738Y-16455881D01*
X8688214Y-16436833D01*
X8669167Y-16427309D01*
X8640595Y-16427309D01*
X8621548Y-16417786D01*
X8612024Y-16398738D01*
X8612024Y-16389214D01*
X8621548Y-16370167D01*
X8640595Y-16360643D01*
X8669167Y-16360643D01*
X8688214Y-16370167D01*
X8935833Y-16417786D02*
X9088214Y-16417786D01*
X9012024Y-16493976D02*
X9012024Y-16341595D01*
X9421548Y-16360643D02*
X9421548Y-16493976D01*
X9373929Y-16284452D02*
X9326310Y-16427309D01*
X9450119Y-16427309D01*
X9669167Y-16484452D02*
X9688214Y-16493976D01*
X9726310Y-16493976D01*
X9745357Y-16484452D01*
X9754881Y-16465405D01*
X9754881Y-16455881D01*
X9745357Y-16436833D01*
X9726310Y-16427309D01*
X9697738Y-16427309D01*
X9678690Y-16417786D01*
X9669167Y-16398738D01*
X9669167Y-16389214D01*
X9678690Y-16370167D01*
X9697738Y-16360643D01*
X9726310Y-16360643D01*
X9745357Y-16370167D01*
X9869167Y-16493976D02*
X9850119Y-16484452D01*
X9840595Y-16465405D01*
X9840595Y-16293976D01*
X9973929Y-16493976D02*
X9954881Y-16484452D01*
X9945357Y-16474928D01*
X9935833Y-16455881D01*
X9935833Y-16398738D01*
X9945357Y-16379690D01*
X9954881Y-16370167D01*
X9973929Y-16360643D01*
X10002500Y-16360643D01*
X10021548Y-16370167D01*
X10031071Y-16379690D01*
X10040595Y-16398738D01*
X10040595Y-16455881D01*
X10031071Y-16474928D01*
X10021548Y-16484452D01*
X10002500Y-16493976D01*
X9973929Y-16493976D01*
X10097738Y-16360643D02*
X10173929Y-16360643D01*
X10126310Y-16293976D02*
X10126310Y-16465405D01*
X10135833Y-16484452D01*
X10154881Y-16493976D01*
X10173929Y-16493976D01*
X10231071Y-16484452D02*
X10250119Y-16493976D01*
X10288214Y-16493976D01*
X10307262Y-16484452D01*
X10316786Y-16465405D01*
X10316786Y-16455881D01*
X10307262Y-16436833D01*
X10288214Y-16427309D01*
X10259643Y-16427309D01*
X10240595Y-16417786D01*
X10231071Y-16398738D01*
X10231071Y-16389214D01*
X10240595Y-16370167D01*
X10259643Y-16360643D01*
X10288214Y-16360643D01*
X10307262Y-16370167D01*
X10383452Y-16570167D02*
X10392976Y-16560643D01*
X10412024Y-16532071D01*
X10421548Y-16513024D01*
X10431071Y-16484452D01*
X10440595Y-16436833D01*
X10440595Y-16398738D01*
X10431071Y-16351119D01*
X10421548Y-16322548D01*
X10412024Y-16303500D01*
X10392976Y-16274928D01*
X10383452Y-16265405D01*
D17*
X3912500Y-16627500D02*
X3992500Y-16707500D01*
X3992500Y-16627500D02*
X3912500Y-16707500D01*
X3992500Y-16667500D02*
G75*
G03*
X3992500Y-16667500I-40000J0D01*
G01*
D12*
X4288214Y-16557976D02*
X4307262Y-16557976D01*
X4326310Y-16567500D01*
X4335833Y-16577024D01*
X4345357Y-16596071D01*
X4354881Y-16634167D01*
X4354881Y-16681786D01*
X4345357Y-16719881D01*
X4335833Y-16738928D01*
X4326310Y-16748452D01*
X4307262Y-16757976D01*
X4288214Y-16757976D01*
X4269167Y-16748452D01*
X4259643Y-16738928D01*
X4250119Y-16719881D01*
X4240595Y-16681786D01*
X4240595Y-16634167D01*
X4250119Y-16596071D01*
X4259643Y-16577024D01*
X4269167Y-16567500D01*
X4288214Y-16557976D01*
X4440595Y-16738928D02*
X4450119Y-16748452D01*
X4440595Y-16757976D01*
X4431071Y-16748452D01*
X4440595Y-16738928D01*
X4440595Y-16757976D01*
X4564405Y-16643690D02*
X4545357Y-16634167D01*
X4535833Y-16624643D01*
X4526310Y-16605595D01*
X4526310Y-16596071D01*
X4535833Y-16577024D01*
X4545357Y-16567500D01*
X4564405Y-16557976D01*
X4602500Y-16557976D01*
X4621548Y-16567500D01*
X4631071Y-16577024D01*
X4640595Y-16596071D01*
X4640595Y-16605595D01*
X4631071Y-16624643D01*
X4621548Y-16634167D01*
X4602500Y-16643690D01*
X4564405Y-16643690D01*
X4545357Y-16653214D01*
X4535833Y-16662738D01*
X4526310Y-16681786D01*
X4526310Y-16719881D01*
X4535833Y-16738928D01*
X4545357Y-16748452D01*
X4564405Y-16757976D01*
X4602500Y-16757976D01*
X4621548Y-16748452D01*
X4631071Y-16738928D01*
X4640595Y-16719881D01*
X4640595Y-16681786D01*
X4631071Y-16662738D01*
X4621548Y-16653214D01*
X4602500Y-16643690D01*
X4764405Y-16557976D02*
X4783452Y-16557976D01*
X4802500Y-16567500D01*
X4812024Y-16577024D01*
X4821548Y-16596071D01*
X4831071Y-16634167D01*
X4831071Y-16681786D01*
X4821548Y-16719881D01*
X4812024Y-16738928D01*
X4802500Y-16748452D01*
X4783452Y-16757976D01*
X4764405Y-16757976D01*
X4745357Y-16748452D01*
X4735833Y-16738928D01*
X4726310Y-16719881D01*
X4716786Y-16681786D01*
X4716786Y-16634167D01*
X4726310Y-16596071D01*
X4735833Y-16577024D01*
X4745357Y-16567500D01*
X4764405Y-16557976D01*
X4954881Y-16557976D02*
X4973929Y-16557976D01*
X4992976Y-16567500D01*
X5002500Y-16577024D01*
X5012024Y-16596071D01*
X5021548Y-16634167D01*
X5021548Y-16681786D01*
X5012024Y-16719881D01*
X5002500Y-16738928D01*
X4992976Y-16748452D01*
X4973929Y-16757976D01*
X4954881Y-16757976D01*
X4935833Y-16748452D01*
X4926310Y-16738928D01*
X4916786Y-16719881D01*
X4907262Y-16681786D01*
X4907262Y-16634167D01*
X4916786Y-16596071D01*
X4926310Y-16577024D01*
X4935833Y-16567500D01*
X4954881Y-16557976D01*
X5107262Y-16757976D02*
X5107262Y-16624643D01*
X5107262Y-16643690D02*
X5116786Y-16634167D01*
X5135833Y-16624643D01*
X5164405Y-16624643D01*
X5183452Y-16634167D01*
X5192976Y-16653214D01*
X5192976Y-16757976D01*
X5192976Y-16653214D02*
X5202500Y-16634167D01*
X5221548Y-16624643D01*
X5250119Y-16624643D01*
X5269167Y-16634167D01*
X5278690Y-16653214D01*
X5278690Y-16757976D01*
X5373929Y-16757976D02*
X5373929Y-16624643D01*
X5373929Y-16643690D02*
X5383452Y-16634167D01*
X5402500Y-16624643D01*
X5431071Y-16624643D01*
X5450119Y-16634167D01*
X5459643Y-16653214D01*
X5459643Y-16757976D01*
X5459643Y-16653214D02*
X5469167Y-16634167D01*
X5488214Y-16624643D01*
X5516786Y-16624643D01*
X5535833Y-16634167D01*
X5545357Y-16653214D01*
X5545357Y-16757976D01*
X5935833Y-16548452D02*
X5764405Y-16805595D01*
X6192976Y-16557976D02*
X6212024Y-16557976D01*
X6231071Y-16567500D01*
X6240595Y-16577024D01*
X6250119Y-16596071D01*
X6259643Y-16634167D01*
X6259643Y-16681786D01*
X6250119Y-16719881D01*
X6240595Y-16738928D01*
X6231071Y-16748452D01*
X6212024Y-16757976D01*
X6192976Y-16757976D01*
X6173928Y-16748452D01*
X6164405Y-16738928D01*
X6154881Y-16719881D01*
X6145357Y-16681786D01*
X6145357Y-16634167D01*
X6154881Y-16596071D01*
X6164405Y-16577024D01*
X6173928Y-16567500D01*
X6192976Y-16557976D01*
X6345357Y-16738928D02*
X6354881Y-16748452D01*
X6345357Y-16757976D01*
X6335833Y-16748452D01*
X6345357Y-16738928D01*
X6345357Y-16757976D01*
X6478690Y-16557976D02*
X6497738Y-16557976D01*
X6516786Y-16567500D01*
X6526309Y-16577024D01*
X6535833Y-16596071D01*
X6545357Y-16634167D01*
X6545357Y-16681786D01*
X6535833Y-16719881D01*
X6526309Y-16738928D01*
X6516786Y-16748452D01*
X6497738Y-16757976D01*
X6478690Y-16757976D01*
X6459643Y-16748452D01*
X6450119Y-16738928D01*
X6440595Y-16719881D01*
X6431071Y-16681786D01*
X6431071Y-16634167D01*
X6440595Y-16596071D01*
X6450119Y-16577024D01*
X6459643Y-16567500D01*
X6478690Y-16557976D01*
X6612024Y-16557976D02*
X6735833Y-16557976D01*
X6669167Y-16634167D01*
X6697738Y-16634167D01*
X6716786Y-16643690D01*
X6726309Y-16653214D01*
X6735833Y-16672262D01*
X6735833Y-16719881D01*
X6726309Y-16738928D01*
X6716786Y-16748452D01*
X6697738Y-16757976D01*
X6640595Y-16757976D01*
X6621548Y-16748452D01*
X6612024Y-16738928D01*
X6926309Y-16757976D02*
X6812024Y-16757976D01*
X6869167Y-16757976D02*
X6869167Y-16557976D01*
X6850119Y-16586548D01*
X6831071Y-16605595D01*
X6812024Y-16615119D01*
X7107262Y-16557976D02*
X7012024Y-16557976D01*
X7002500Y-16653214D01*
X7012024Y-16643690D01*
X7031071Y-16634167D01*
X7078690Y-16634167D01*
X7097738Y-16643690D01*
X7107262Y-16653214D01*
X7116786Y-16672262D01*
X7116786Y-16719881D01*
X7107262Y-16738928D01*
X7097738Y-16748452D01*
X7078690Y-16757976D01*
X7031071Y-16757976D01*
X7012024Y-16748452D01*
X7002500Y-16738928D01*
X7192976Y-16557976D02*
X7192976Y-16596071D01*
X7269167Y-16557976D02*
X7269167Y-16596071D01*
X7564405Y-16834167D02*
X7554881Y-16824643D01*
X7535833Y-16796071D01*
X7526309Y-16777024D01*
X7516786Y-16748452D01*
X7507262Y-16700833D01*
X7507262Y-16662738D01*
X7516786Y-16615119D01*
X7526309Y-16586548D01*
X7535833Y-16567500D01*
X7554881Y-16538928D01*
X7564405Y-16529405D01*
X7726309Y-16624643D02*
X7726309Y-16757976D01*
X7678690Y-16548452D02*
X7631071Y-16691309D01*
X7754881Y-16691309D01*
X7869167Y-16557976D02*
X7888214Y-16557976D01*
X7907262Y-16567500D01*
X7916786Y-16577024D01*
X7926309Y-16596071D01*
X7935833Y-16634167D01*
X7935833Y-16681786D01*
X7926309Y-16719881D01*
X7916786Y-16738928D01*
X7907262Y-16748452D01*
X7888214Y-16757976D01*
X7869167Y-16757976D01*
X7850119Y-16748452D01*
X7840595Y-16738928D01*
X7831071Y-16719881D01*
X7821548Y-16681786D01*
X7821548Y-16634167D01*
X7831071Y-16596071D01*
X7840595Y-16577024D01*
X7850119Y-16567500D01*
X7869167Y-16557976D01*
X8173928Y-16757976D02*
X8173928Y-16557976D01*
X8259643Y-16757976D02*
X8259643Y-16653214D01*
X8250119Y-16634167D01*
X8231071Y-16624643D01*
X8202500Y-16624643D01*
X8183452Y-16634167D01*
X8173928Y-16643690D01*
X8383452Y-16757976D02*
X8364405Y-16748452D01*
X8354881Y-16738928D01*
X8345357Y-16719881D01*
X8345357Y-16662738D01*
X8354881Y-16643690D01*
X8364405Y-16634167D01*
X8383452Y-16624643D01*
X8412024Y-16624643D01*
X8431071Y-16634167D01*
X8440595Y-16643690D01*
X8450119Y-16662738D01*
X8450119Y-16719881D01*
X8440595Y-16738928D01*
X8431071Y-16748452D01*
X8412024Y-16757976D01*
X8383452Y-16757976D01*
X8564405Y-16757976D02*
X8545357Y-16748452D01*
X8535833Y-16729405D01*
X8535833Y-16557976D01*
X8716786Y-16748452D02*
X8697738Y-16757976D01*
X8659643Y-16757976D01*
X8640595Y-16748452D01*
X8631071Y-16729405D01*
X8631071Y-16653214D01*
X8640595Y-16634167D01*
X8659643Y-16624643D01*
X8697738Y-16624643D01*
X8716786Y-16634167D01*
X8726310Y-16653214D01*
X8726310Y-16672262D01*
X8631071Y-16691309D01*
X8802500Y-16748452D02*
X8821548Y-16757976D01*
X8859643Y-16757976D01*
X8878690Y-16748452D01*
X8888214Y-16729405D01*
X8888214Y-16719881D01*
X8878690Y-16700833D01*
X8859643Y-16691309D01*
X8831071Y-16691309D01*
X8812024Y-16681786D01*
X8802500Y-16662738D01*
X8802500Y-16653214D01*
X8812024Y-16634167D01*
X8831071Y-16624643D01*
X8859643Y-16624643D01*
X8878690Y-16634167D01*
X8954881Y-16834167D02*
X8964405Y-16824643D01*
X8983452Y-16796071D01*
X8992976Y-16777024D01*
X9002500Y-16748452D01*
X9012024Y-16700833D01*
X9012024Y-16662738D01*
X9002500Y-16615119D01*
X8992976Y-16586548D01*
X8983452Y-16567500D01*
X8964405Y-16538928D01*
X8954881Y-16529405D01*
D18*
X3903500Y-16887000D02*
X3992500Y-16976000D01*
X3992500Y-16887000D02*
X3903500Y-16976000D01*
X3948000Y-16887000D02*
X3948000Y-16976000D01*
X3903500Y-16931500D02*
X3992500Y-16931500D01*
D12*
X4288214Y-16821976D02*
X4307262Y-16821976D01*
X4326310Y-16831500D01*
X4335833Y-16841024D01*
X4345357Y-16860071D01*
X4354881Y-16898167D01*
X4354881Y-16945786D01*
X4345357Y-16983881D01*
X4335833Y-17002929D01*
X4326310Y-17012452D01*
X4307262Y-17021976D01*
X4288214Y-17021976D01*
X4269167Y-17012452D01*
X4259643Y-17002929D01*
X4250119Y-16983881D01*
X4240595Y-16945786D01*
X4240595Y-16898167D01*
X4250119Y-16860071D01*
X4259643Y-16841024D01*
X4269167Y-16831500D01*
X4288214Y-16821976D01*
X4440595Y-17002929D02*
X4450119Y-17012452D01*
X4440595Y-17021976D01*
X4431071Y-17012452D01*
X4440595Y-17002929D01*
X4440595Y-17021976D01*
X4564405Y-16907690D02*
X4545357Y-16898167D01*
X4535833Y-16888643D01*
X4526310Y-16869595D01*
X4526310Y-16860071D01*
X4535833Y-16841024D01*
X4545357Y-16831500D01*
X4564405Y-16821976D01*
X4602500Y-16821976D01*
X4621548Y-16831500D01*
X4631071Y-16841024D01*
X4640595Y-16860071D01*
X4640595Y-16869595D01*
X4631071Y-16888643D01*
X4621548Y-16898167D01*
X4602500Y-16907690D01*
X4564405Y-16907690D01*
X4545357Y-16917214D01*
X4535833Y-16926738D01*
X4526310Y-16945786D01*
X4526310Y-16983881D01*
X4535833Y-17002929D01*
X4545357Y-17012452D01*
X4564405Y-17021976D01*
X4602500Y-17021976D01*
X4621548Y-17012452D01*
X4631071Y-17002929D01*
X4640595Y-16983881D01*
X4640595Y-16945786D01*
X4631071Y-16926738D01*
X4621548Y-16917214D01*
X4602500Y-16907690D01*
X4735833Y-17021976D02*
X4773929Y-17021976D01*
X4792976Y-17012452D01*
X4802500Y-17002929D01*
X4821548Y-16974357D01*
X4831071Y-16936262D01*
X4831071Y-16860071D01*
X4821548Y-16841024D01*
X4812024Y-16831500D01*
X4792976Y-16821976D01*
X4754881Y-16821976D01*
X4735833Y-16831500D01*
X4726310Y-16841024D01*
X4716786Y-16860071D01*
X4716786Y-16907690D01*
X4726310Y-16926738D01*
X4735833Y-16936262D01*
X4754881Y-16945786D01*
X4792976Y-16945786D01*
X4812024Y-16936262D01*
X4821548Y-16926738D01*
X4831071Y-16907690D01*
X4954881Y-16821976D02*
X4973929Y-16821976D01*
X4992976Y-16831500D01*
X5002500Y-16841024D01*
X5012024Y-16860071D01*
X5021548Y-16898167D01*
X5021548Y-16945786D01*
X5012024Y-16983881D01*
X5002500Y-17002929D01*
X4992976Y-17012452D01*
X4973929Y-17021976D01*
X4954881Y-17021976D01*
X4935833Y-17012452D01*
X4926310Y-17002929D01*
X4916786Y-16983881D01*
X4907262Y-16945786D01*
X4907262Y-16898167D01*
X4916786Y-16860071D01*
X4926310Y-16841024D01*
X4935833Y-16831500D01*
X4954881Y-16821976D01*
X5107262Y-17021976D02*
X5107262Y-16888643D01*
X5107262Y-16907690D02*
X5116786Y-16898167D01*
X5135833Y-16888643D01*
X5164405Y-16888643D01*
X5183452Y-16898167D01*
X5192976Y-16917214D01*
X5192976Y-17021976D01*
X5192976Y-16917214D02*
X5202500Y-16898167D01*
X5221548Y-16888643D01*
X5250119Y-16888643D01*
X5269167Y-16898167D01*
X5278690Y-16917214D01*
X5278690Y-17021976D01*
X5373929Y-17021976D02*
X5373929Y-16888643D01*
X5373929Y-16907690D02*
X5383452Y-16898167D01*
X5402500Y-16888643D01*
X5431071Y-16888643D01*
X5450119Y-16898167D01*
X5459643Y-16917214D01*
X5459643Y-17021976D01*
X5459643Y-16917214D02*
X5469167Y-16898167D01*
X5488214Y-16888643D01*
X5516786Y-16888643D01*
X5535833Y-16898167D01*
X5545357Y-16917214D01*
X5545357Y-17021976D01*
X5935833Y-16812452D02*
X5764405Y-17069595D01*
X6192976Y-16821976D02*
X6212024Y-16821976D01*
X6231071Y-16831500D01*
X6240595Y-16841024D01*
X6250119Y-16860071D01*
X6259643Y-16898167D01*
X6259643Y-16945786D01*
X6250119Y-16983881D01*
X6240595Y-17002929D01*
X6231071Y-17012452D01*
X6212024Y-17021976D01*
X6192976Y-17021976D01*
X6173928Y-17012452D01*
X6164405Y-17002929D01*
X6154881Y-16983881D01*
X6145357Y-16945786D01*
X6145357Y-16898167D01*
X6154881Y-16860071D01*
X6164405Y-16841024D01*
X6173928Y-16831500D01*
X6192976Y-16821976D01*
X6345357Y-17002929D02*
X6354881Y-17012452D01*
X6345357Y-17021976D01*
X6335833Y-17012452D01*
X6345357Y-17002929D01*
X6345357Y-17021976D01*
X6478690Y-16821976D02*
X6497738Y-16821976D01*
X6516786Y-16831500D01*
X6526309Y-16841024D01*
X6535833Y-16860071D01*
X6545357Y-16898167D01*
X6545357Y-16945786D01*
X6535833Y-16983881D01*
X6526309Y-17002929D01*
X6516786Y-17012452D01*
X6497738Y-17021976D01*
X6478690Y-17021976D01*
X6459643Y-17012452D01*
X6450119Y-17002929D01*
X6440595Y-16983881D01*
X6431071Y-16945786D01*
X6431071Y-16898167D01*
X6440595Y-16860071D01*
X6450119Y-16841024D01*
X6459643Y-16831500D01*
X6478690Y-16821976D01*
X6612024Y-16821976D02*
X6735833Y-16821976D01*
X6669167Y-16898167D01*
X6697738Y-16898167D01*
X6716786Y-16907690D01*
X6726309Y-16917214D01*
X6735833Y-16936262D01*
X6735833Y-16983881D01*
X6726309Y-17002929D01*
X6716786Y-17012452D01*
X6697738Y-17021976D01*
X6640595Y-17021976D01*
X6621548Y-17012452D01*
X6612024Y-17002929D01*
X6916786Y-16821976D02*
X6821548Y-16821976D01*
X6812024Y-16917214D01*
X6821548Y-16907690D01*
X6840595Y-16898167D01*
X6888214Y-16898167D01*
X6907262Y-16907690D01*
X6916786Y-16917214D01*
X6926309Y-16936262D01*
X6926309Y-16983881D01*
X6916786Y-17002929D01*
X6907262Y-17012452D01*
X6888214Y-17021976D01*
X6840595Y-17021976D01*
X6821548Y-17012452D01*
X6812024Y-17002929D01*
X7050119Y-16821976D02*
X7069167Y-16821976D01*
X7088214Y-16831500D01*
X7097738Y-16841024D01*
X7107262Y-16860071D01*
X7116786Y-16898167D01*
X7116786Y-16945786D01*
X7107262Y-16983881D01*
X7097738Y-17002929D01*
X7088214Y-17012452D01*
X7069167Y-17021976D01*
X7050119Y-17021976D01*
X7031071Y-17012452D01*
X7021548Y-17002929D01*
X7012024Y-16983881D01*
X7002500Y-16945786D01*
X7002500Y-16898167D01*
X7012024Y-16860071D01*
X7021548Y-16841024D01*
X7031071Y-16831500D01*
X7050119Y-16821976D01*
X7192976Y-16821976D02*
X7192976Y-16860071D01*
X7269167Y-16821976D02*
X7269167Y-16860071D01*
X7564405Y-17098167D02*
X7554881Y-17088643D01*
X7535833Y-17060071D01*
X7526309Y-17041024D01*
X7516786Y-17012452D01*
X7507262Y-16964833D01*
X7507262Y-16926738D01*
X7516786Y-16879119D01*
X7526309Y-16850548D01*
X7535833Y-16831500D01*
X7554881Y-16802929D01*
X7564405Y-16793405D01*
X7631071Y-16841024D02*
X7640595Y-16831500D01*
X7659643Y-16821976D01*
X7707262Y-16821976D01*
X7726309Y-16831500D01*
X7735833Y-16841024D01*
X7745357Y-16860071D01*
X7745357Y-16879119D01*
X7735833Y-16907690D01*
X7621548Y-17021976D01*
X7745357Y-17021976D01*
X7916786Y-16888643D02*
X7916786Y-17021976D01*
X7869167Y-16812452D02*
X7821548Y-16955310D01*
X7945357Y-16955310D01*
X8173928Y-17021976D02*
X8173928Y-16821976D01*
X8259643Y-17021976D02*
X8259643Y-16917214D01*
X8250119Y-16898167D01*
X8231071Y-16888643D01*
X8202500Y-16888643D01*
X8183452Y-16898167D01*
X8173928Y-16907690D01*
X8383452Y-17021976D02*
X8364405Y-17012452D01*
X8354881Y-17002929D01*
X8345357Y-16983881D01*
X8345357Y-16926738D01*
X8354881Y-16907690D01*
X8364405Y-16898167D01*
X8383452Y-16888643D01*
X8412024Y-16888643D01*
X8431071Y-16898167D01*
X8440595Y-16907690D01*
X8450119Y-16926738D01*
X8450119Y-16983881D01*
X8440595Y-17002929D01*
X8431071Y-17012452D01*
X8412024Y-17021976D01*
X8383452Y-17021976D01*
X8564405Y-17021976D02*
X8545357Y-17012452D01*
X8535833Y-16993405D01*
X8535833Y-16821976D01*
X8716786Y-17012452D02*
X8697738Y-17021976D01*
X8659643Y-17021976D01*
X8640595Y-17012452D01*
X8631071Y-16993405D01*
X8631071Y-16917214D01*
X8640595Y-16898167D01*
X8659643Y-16888643D01*
X8697738Y-16888643D01*
X8716786Y-16898167D01*
X8726310Y-16917214D01*
X8726310Y-16936262D01*
X8631071Y-16955310D01*
X8802500Y-17012452D02*
X8821548Y-17021976D01*
X8859643Y-17021976D01*
X8878690Y-17012452D01*
X8888214Y-16993405D01*
X8888214Y-16983881D01*
X8878690Y-16964833D01*
X8859643Y-16955310D01*
X8831071Y-16955310D01*
X8812024Y-16945786D01*
X8802500Y-16926738D01*
X8802500Y-16917214D01*
X8812024Y-16898167D01*
X8831071Y-16888643D01*
X8859643Y-16888643D01*
X8878690Y-16898167D01*
X8954881Y-17098167D02*
X8964405Y-17088643D01*
X8983452Y-17060071D01*
X8992976Y-17041024D01*
X9002500Y-17012452D01*
X9012024Y-16964833D01*
X9012024Y-16926738D01*
X9002500Y-16879119D01*
X8992976Y-16850548D01*
X8983452Y-16831500D01*
X8964405Y-16802929D01*
X8954881Y-16793405D01*
D19*
X3902500Y-17150500D02*
X3992500Y-17240500D01*
X3992500Y-17150500D02*
X3902500Y-17240500D01*
X3979320Y-17227320D02*
X3979320Y-17163680D01*
X3915680Y-17163680D01*
X3915680Y-17227320D01*
X3979320Y-17227320D01*
D12*
X4288214Y-17085976D02*
X4307262Y-17085976D01*
X4326310Y-17095500D01*
X4335833Y-17105024D01*
X4345357Y-17124071D01*
X4354881Y-17162167D01*
X4354881Y-17209786D01*
X4345357Y-17247881D01*
X4335833Y-17266929D01*
X4326310Y-17276452D01*
X4307262Y-17285976D01*
X4288214Y-17285976D01*
X4269167Y-17276452D01*
X4259643Y-17266929D01*
X4250119Y-17247881D01*
X4240595Y-17209786D01*
X4240595Y-17162167D01*
X4250119Y-17124071D01*
X4259643Y-17105024D01*
X4269167Y-17095500D01*
X4288214Y-17085976D01*
X4440595Y-17266929D02*
X4450119Y-17276452D01*
X4440595Y-17285976D01*
X4431071Y-17276452D01*
X4440595Y-17266929D01*
X4440595Y-17285976D01*
X4545357Y-17285976D02*
X4583452Y-17285976D01*
X4602500Y-17276452D01*
X4612024Y-17266929D01*
X4631071Y-17238357D01*
X4640595Y-17200262D01*
X4640595Y-17124071D01*
X4631071Y-17105024D01*
X4621548Y-17095500D01*
X4602500Y-17085976D01*
X4564405Y-17085976D01*
X4545357Y-17095500D01*
X4535833Y-17105024D01*
X4526310Y-17124071D01*
X4526310Y-17171690D01*
X4535833Y-17190738D01*
X4545357Y-17200262D01*
X4564405Y-17209786D01*
X4602500Y-17209786D01*
X4621548Y-17200262D01*
X4631071Y-17190738D01*
X4640595Y-17171690D01*
X4764405Y-17085976D02*
X4783452Y-17085976D01*
X4802500Y-17095500D01*
X4812024Y-17105024D01*
X4821548Y-17124071D01*
X4831071Y-17162167D01*
X4831071Y-17209786D01*
X4821548Y-17247881D01*
X4812024Y-17266929D01*
X4802500Y-17276452D01*
X4783452Y-17285976D01*
X4764405Y-17285976D01*
X4745357Y-17276452D01*
X4735833Y-17266929D01*
X4726310Y-17247881D01*
X4716786Y-17209786D01*
X4716786Y-17162167D01*
X4726310Y-17124071D01*
X4735833Y-17105024D01*
X4745357Y-17095500D01*
X4764405Y-17085976D01*
X4954881Y-17085976D02*
X4973929Y-17085976D01*
X4992976Y-17095500D01*
X5002500Y-17105024D01*
X5012024Y-17124071D01*
X5021548Y-17162167D01*
X5021548Y-17209786D01*
X5012024Y-17247881D01*
X5002500Y-17266929D01*
X4992976Y-17276452D01*
X4973929Y-17285976D01*
X4954881Y-17285976D01*
X4935833Y-17276452D01*
X4926310Y-17266929D01*
X4916786Y-17247881D01*
X4907262Y-17209786D01*
X4907262Y-17162167D01*
X4916786Y-17124071D01*
X4926310Y-17105024D01*
X4935833Y-17095500D01*
X4954881Y-17085976D01*
X5107262Y-17285976D02*
X5107262Y-17152643D01*
X5107262Y-17171690D02*
X5116786Y-17162167D01*
X5135833Y-17152643D01*
X5164405Y-17152643D01*
X5183452Y-17162167D01*
X5192976Y-17181214D01*
X5192976Y-17285976D01*
X5192976Y-17181214D02*
X5202500Y-17162167D01*
X5221548Y-17152643D01*
X5250119Y-17152643D01*
X5269167Y-17162167D01*
X5278690Y-17181214D01*
X5278690Y-17285976D01*
X5373929Y-17285976D02*
X5373929Y-17152643D01*
X5373929Y-17171690D02*
X5383452Y-17162167D01*
X5402500Y-17152643D01*
X5431071Y-17152643D01*
X5450119Y-17162167D01*
X5459643Y-17181214D01*
X5459643Y-17285976D01*
X5459643Y-17181214D02*
X5469167Y-17162167D01*
X5488214Y-17152643D01*
X5516786Y-17152643D01*
X5535833Y-17162167D01*
X5545357Y-17181214D01*
X5545357Y-17285976D01*
X5935833Y-17076452D02*
X5764405Y-17333595D01*
X6192976Y-17085976D02*
X6212024Y-17085976D01*
X6231071Y-17095500D01*
X6240595Y-17105024D01*
X6250119Y-17124071D01*
X6259643Y-17162167D01*
X6259643Y-17209786D01*
X6250119Y-17247881D01*
X6240595Y-17266929D01*
X6231071Y-17276452D01*
X6212024Y-17285976D01*
X6192976Y-17285976D01*
X6173928Y-17276452D01*
X6164405Y-17266929D01*
X6154881Y-17247881D01*
X6145357Y-17209786D01*
X6145357Y-17162167D01*
X6154881Y-17124071D01*
X6164405Y-17105024D01*
X6173928Y-17095500D01*
X6192976Y-17085976D01*
X6345357Y-17266929D02*
X6354881Y-17276452D01*
X6345357Y-17285976D01*
X6335833Y-17276452D01*
X6345357Y-17266929D01*
X6345357Y-17285976D01*
X6478690Y-17085976D02*
X6497738Y-17085976D01*
X6516786Y-17095500D01*
X6526309Y-17105024D01*
X6535833Y-17124071D01*
X6545357Y-17162167D01*
X6545357Y-17209786D01*
X6535833Y-17247881D01*
X6526309Y-17266929D01*
X6516786Y-17276452D01*
X6497738Y-17285976D01*
X6478690Y-17285976D01*
X6459643Y-17276452D01*
X6450119Y-17266929D01*
X6440595Y-17247881D01*
X6431071Y-17209786D01*
X6431071Y-17162167D01*
X6440595Y-17124071D01*
X6450119Y-17105024D01*
X6459643Y-17095500D01*
X6478690Y-17085976D01*
X6612024Y-17085976D02*
X6735833Y-17085976D01*
X6669167Y-17162167D01*
X6697738Y-17162167D01*
X6716786Y-17171690D01*
X6726309Y-17181214D01*
X6735833Y-17200262D01*
X6735833Y-17247881D01*
X6726309Y-17266929D01*
X6716786Y-17276452D01*
X6697738Y-17285976D01*
X6640595Y-17285976D01*
X6621548Y-17276452D01*
X6612024Y-17266929D01*
X6916786Y-17085976D02*
X6821548Y-17085976D01*
X6812024Y-17181214D01*
X6821548Y-17171690D01*
X6840595Y-17162167D01*
X6888214Y-17162167D01*
X6907262Y-17171690D01*
X6916786Y-17181214D01*
X6926309Y-17200262D01*
X6926309Y-17247881D01*
X6916786Y-17266929D01*
X6907262Y-17276452D01*
X6888214Y-17285976D01*
X6840595Y-17285976D01*
X6821548Y-17276452D01*
X6812024Y-17266929D01*
X7097738Y-17152643D02*
X7097738Y-17285976D01*
X7050119Y-17076452D02*
X7002500Y-17219310D01*
X7126309Y-17219310D01*
X7192976Y-17085976D02*
X7192976Y-17124071D01*
X7269167Y-17085976D02*
X7269167Y-17124071D01*
X7564405Y-17362167D02*
X7554881Y-17352643D01*
X7535833Y-17324071D01*
X7526309Y-17305024D01*
X7516786Y-17276452D01*
X7507262Y-17228833D01*
X7507262Y-17190738D01*
X7516786Y-17143119D01*
X7526309Y-17114548D01*
X7535833Y-17095500D01*
X7554881Y-17066929D01*
X7564405Y-17057405D01*
X7678690Y-17085976D02*
X7697738Y-17085976D01*
X7716786Y-17095500D01*
X7726309Y-17105024D01*
X7735833Y-17124071D01*
X7745357Y-17162167D01*
X7745357Y-17209786D01*
X7735833Y-17247881D01*
X7726309Y-17266929D01*
X7716786Y-17276452D01*
X7697738Y-17285976D01*
X7678690Y-17285976D01*
X7659643Y-17276452D01*
X7650119Y-17266929D01*
X7640595Y-17247881D01*
X7631071Y-17209786D01*
X7631071Y-17162167D01*
X7640595Y-17124071D01*
X7650119Y-17105024D01*
X7659643Y-17095500D01*
X7678690Y-17085976D01*
X7983452Y-17285976D02*
X7983452Y-17085976D01*
X8069167Y-17285976D02*
X8069167Y-17181214D01*
X8059643Y-17162167D01*
X8040595Y-17152643D01*
X8012024Y-17152643D01*
X7992976Y-17162167D01*
X7983452Y-17171690D01*
X8192976Y-17285976D02*
X8173928Y-17276452D01*
X8164405Y-17266929D01*
X8154881Y-17247881D01*
X8154881Y-17190738D01*
X8164405Y-17171690D01*
X8173928Y-17162167D01*
X8192976Y-17152643D01*
X8221548Y-17152643D01*
X8240595Y-17162167D01*
X8250119Y-17171690D01*
X8259643Y-17190738D01*
X8259643Y-17247881D01*
X8250119Y-17266929D01*
X8240595Y-17276452D01*
X8221548Y-17285976D01*
X8192976Y-17285976D01*
X8373928Y-17285976D02*
X8354881Y-17276452D01*
X8345357Y-17257405D01*
X8345357Y-17085976D01*
X8526310Y-17276452D02*
X8507262Y-17285976D01*
X8469167Y-17285976D01*
X8450119Y-17276452D01*
X8440595Y-17257405D01*
X8440595Y-17181214D01*
X8450119Y-17162167D01*
X8469167Y-17152643D01*
X8507262Y-17152643D01*
X8526310Y-17162167D01*
X8535833Y-17181214D01*
X8535833Y-17200262D01*
X8440595Y-17219310D01*
X8612024Y-17276452D02*
X8631071Y-17285976D01*
X8669167Y-17285976D01*
X8688214Y-17276452D01*
X8697738Y-17257405D01*
X8697738Y-17247881D01*
X8688214Y-17228833D01*
X8669167Y-17219310D01*
X8640595Y-17219310D01*
X8621548Y-17209786D01*
X8612024Y-17190738D01*
X8612024Y-17181214D01*
X8621548Y-17162167D01*
X8640595Y-17152643D01*
X8669167Y-17152643D01*
X8688214Y-17162167D01*
X8935833Y-17209786D02*
X9088214Y-17209786D01*
X9012024Y-17285976D02*
X9012024Y-17133595D01*
X9421548Y-17152643D02*
X9421548Y-17285976D01*
X9373929Y-17076452D02*
X9326310Y-17219310D01*
X9450119Y-17219310D01*
X9669167Y-17276452D02*
X9688214Y-17285976D01*
X9726310Y-17285976D01*
X9745357Y-17276452D01*
X9754881Y-17257405D01*
X9754881Y-17247881D01*
X9745357Y-17228833D01*
X9726310Y-17219310D01*
X9697738Y-17219310D01*
X9678690Y-17209786D01*
X9669167Y-17190738D01*
X9669167Y-17181214D01*
X9678690Y-17162167D01*
X9697738Y-17152643D01*
X9726310Y-17152643D01*
X9745357Y-17162167D01*
X9869167Y-17285976D02*
X9850119Y-17276452D01*
X9840595Y-17257405D01*
X9840595Y-17085976D01*
X9973929Y-17285976D02*
X9954881Y-17276452D01*
X9945357Y-17266929D01*
X9935833Y-17247881D01*
X9935833Y-17190738D01*
X9945357Y-17171690D01*
X9954881Y-17162167D01*
X9973929Y-17152643D01*
X10002500Y-17152643D01*
X10021548Y-17162167D01*
X10031071Y-17171690D01*
X10040595Y-17190738D01*
X10040595Y-17247881D01*
X10031071Y-17266929D01*
X10021548Y-17276452D01*
X10002500Y-17285976D01*
X9973929Y-17285976D01*
X10097738Y-17152643D02*
X10173929Y-17152643D01*
X10126310Y-17085976D02*
X10126310Y-17257405D01*
X10135833Y-17276452D01*
X10154881Y-17285976D01*
X10173929Y-17285976D01*
X10231071Y-17276452D02*
X10250119Y-17285976D01*
X10288214Y-17285976D01*
X10307262Y-17276452D01*
X10316786Y-17257405D01*
X10316786Y-17247881D01*
X10307262Y-17228833D01*
X10288214Y-17219310D01*
X10259643Y-17219310D01*
X10240595Y-17209786D01*
X10231071Y-17190738D01*
X10231071Y-17181214D01*
X10240595Y-17162167D01*
X10259643Y-17152643D01*
X10288214Y-17152643D01*
X10307262Y-17162167D01*
X10383452Y-17362167D02*
X10392976Y-17352643D01*
X10412024Y-17324071D01*
X10421548Y-17305024D01*
X10431071Y-17276452D01*
X10440595Y-17228833D01*
X10440595Y-17190738D01*
X10431071Y-17143119D01*
X10421548Y-17114548D01*
X10412024Y-17095500D01*
X10392976Y-17066929D01*
X10383452Y-17057405D01*
D20*
X3900500Y-17413500D02*
X3992500Y-17505500D01*
X3992500Y-17413500D02*
X3900500Y-17505500D01*
X3946500Y-17505500D02*
X3992500Y-17459500D01*
X3946500Y-17413500D01*
X3900500Y-17459500D01*
X3946500Y-17505500D01*
D12*
X4288214Y-17349976D02*
X4307262Y-17349976D01*
X4326310Y-17359500D01*
X4335833Y-17369024D01*
X4345357Y-17388071D01*
X4354881Y-17426167D01*
X4354881Y-17473786D01*
X4345357Y-17511881D01*
X4335833Y-17530929D01*
X4326310Y-17540452D01*
X4307262Y-17549976D01*
X4288214Y-17549976D01*
X4269167Y-17540452D01*
X4259643Y-17530929D01*
X4250119Y-17511881D01*
X4240595Y-17473786D01*
X4240595Y-17426167D01*
X4250119Y-17388071D01*
X4259643Y-17369024D01*
X4269167Y-17359500D01*
X4288214Y-17349976D01*
X4440595Y-17530929D02*
X4450119Y-17540452D01*
X4440595Y-17549976D01*
X4431071Y-17540452D01*
X4440595Y-17530929D01*
X4440595Y-17549976D01*
X4545357Y-17549976D02*
X4583452Y-17549976D01*
X4602500Y-17540452D01*
X4612024Y-17530929D01*
X4631071Y-17502357D01*
X4640595Y-17464262D01*
X4640595Y-17388071D01*
X4631071Y-17369024D01*
X4621548Y-17359500D01*
X4602500Y-17349976D01*
X4564405Y-17349976D01*
X4545357Y-17359500D01*
X4535833Y-17369024D01*
X4526310Y-17388071D01*
X4526310Y-17435690D01*
X4535833Y-17454738D01*
X4545357Y-17464262D01*
X4564405Y-17473786D01*
X4602500Y-17473786D01*
X4621548Y-17464262D01*
X4631071Y-17454738D01*
X4640595Y-17435690D01*
X4716786Y-17369024D02*
X4726310Y-17359500D01*
X4745357Y-17349976D01*
X4792976Y-17349976D01*
X4812024Y-17359500D01*
X4821548Y-17369024D01*
X4831071Y-17388071D01*
X4831071Y-17407119D01*
X4821548Y-17435690D01*
X4707262Y-17549976D01*
X4831071Y-17549976D01*
X4954881Y-17349976D02*
X4973929Y-17349976D01*
X4992976Y-17359500D01*
X5002500Y-17369024D01*
X5012024Y-17388071D01*
X5021548Y-17426167D01*
X5021548Y-17473786D01*
X5012024Y-17511881D01*
X5002500Y-17530929D01*
X4992976Y-17540452D01*
X4973929Y-17549976D01*
X4954881Y-17549976D01*
X4935833Y-17540452D01*
X4926310Y-17530929D01*
X4916786Y-17511881D01*
X4907262Y-17473786D01*
X4907262Y-17426167D01*
X4916786Y-17388071D01*
X4926310Y-17369024D01*
X4935833Y-17359500D01*
X4954881Y-17349976D01*
X5107262Y-17549976D02*
X5107262Y-17416643D01*
X5107262Y-17435690D02*
X5116786Y-17426167D01*
X5135833Y-17416643D01*
X5164405Y-17416643D01*
X5183452Y-17426167D01*
X5192976Y-17445214D01*
X5192976Y-17549976D01*
X5192976Y-17445214D02*
X5202500Y-17426167D01*
X5221548Y-17416643D01*
X5250119Y-17416643D01*
X5269167Y-17426167D01*
X5278690Y-17445214D01*
X5278690Y-17549976D01*
X5373929Y-17549976D02*
X5373929Y-17416643D01*
X5373929Y-17435690D02*
X5383452Y-17426167D01*
X5402500Y-17416643D01*
X5431071Y-17416643D01*
X5450119Y-17426167D01*
X5459643Y-17445214D01*
X5459643Y-17549976D01*
X5459643Y-17445214D02*
X5469167Y-17426167D01*
X5488214Y-17416643D01*
X5516786Y-17416643D01*
X5535833Y-17426167D01*
X5545357Y-17445214D01*
X5545357Y-17549976D01*
X5935833Y-17340452D02*
X5764405Y-17597595D01*
X6192976Y-17349976D02*
X6212024Y-17349976D01*
X6231071Y-17359500D01*
X6240595Y-17369024D01*
X6250119Y-17388071D01*
X6259643Y-17426167D01*
X6259643Y-17473786D01*
X6250119Y-17511881D01*
X6240595Y-17530929D01*
X6231071Y-17540452D01*
X6212024Y-17549976D01*
X6192976Y-17549976D01*
X6173928Y-17540452D01*
X6164405Y-17530929D01*
X6154881Y-17511881D01*
X6145357Y-17473786D01*
X6145357Y-17426167D01*
X6154881Y-17388071D01*
X6164405Y-17369024D01*
X6173928Y-17359500D01*
X6192976Y-17349976D01*
X6345357Y-17530929D02*
X6354881Y-17540452D01*
X6345357Y-17549976D01*
X6335833Y-17540452D01*
X6345357Y-17530929D01*
X6345357Y-17549976D01*
X6478690Y-17349976D02*
X6497738Y-17349976D01*
X6516786Y-17359500D01*
X6526309Y-17369024D01*
X6535833Y-17388071D01*
X6545357Y-17426167D01*
X6545357Y-17473786D01*
X6535833Y-17511881D01*
X6526309Y-17530929D01*
X6516786Y-17540452D01*
X6497738Y-17549976D01*
X6478690Y-17549976D01*
X6459643Y-17540452D01*
X6450119Y-17530929D01*
X6440595Y-17511881D01*
X6431071Y-17473786D01*
X6431071Y-17426167D01*
X6440595Y-17388071D01*
X6450119Y-17369024D01*
X6459643Y-17359500D01*
X6478690Y-17349976D01*
X6612024Y-17349976D02*
X6735833Y-17349976D01*
X6669167Y-17426167D01*
X6697738Y-17426167D01*
X6716786Y-17435690D01*
X6726309Y-17445214D01*
X6735833Y-17464262D01*
X6735833Y-17511881D01*
X6726309Y-17530929D01*
X6716786Y-17540452D01*
X6697738Y-17549976D01*
X6640595Y-17549976D01*
X6621548Y-17540452D01*
X6612024Y-17530929D01*
X6907262Y-17349976D02*
X6869167Y-17349976D01*
X6850119Y-17359500D01*
X6840595Y-17369024D01*
X6821548Y-17397595D01*
X6812024Y-17435690D01*
X6812024Y-17511881D01*
X6821548Y-17530929D01*
X6831071Y-17540452D01*
X6850119Y-17549976D01*
X6888214Y-17549976D01*
X6907262Y-17540452D01*
X6916786Y-17530929D01*
X6926309Y-17511881D01*
X6926309Y-17464262D01*
X6916786Y-17445214D01*
X6907262Y-17435690D01*
X6888214Y-17426167D01*
X6850119Y-17426167D01*
X6831071Y-17435690D01*
X6821548Y-17445214D01*
X6812024Y-17464262D01*
X7002500Y-17369024D02*
X7012024Y-17359500D01*
X7031071Y-17349976D01*
X7078690Y-17349976D01*
X7097738Y-17359500D01*
X7107262Y-17369024D01*
X7116786Y-17388071D01*
X7116786Y-17407119D01*
X7107262Y-17435690D01*
X6992976Y-17549976D01*
X7116786Y-17549976D01*
X7192976Y-17349976D02*
X7192976Y-17388071D01*
X7269167Y-17349976D02*
X7269167Y-17388071D01*
X7564405Y-17626167D02*
X7554881Y-17616643D01*
X7535833Y-17588071D01*
X7526309Y-17569024D01*
X7516786Y-17540452D01*
X7507262Y-17492833D01*
X7507262Y-17454738D01*
X7516786Y-17407119D01*
X7526309Y-17378548D01*
X7535833Y-17359500D01*
X7554881Y-17330929D01*
X7564405Y-17321405D01*
X7726309Y-17416643D02*
X7726309Y-17549976D01*
X7678690Y-17340452D02*
X7631071Y-17483310D01*
X7754881Y-17483310D01*
X7983452Y-17549976D02*
X7983452Y-17349976D01*
X8069167Y-17549976D02*
X8069167Y-17445214D01*
X8059643Y-17426167D01*
X8040595Y-17416643D01*
X8012024Y-17416643D01*
X7992976Y-17426167D01*
X7983452Y-17435690D01*
X8192976Y-17549976D02*
X8173928Y-17540452D01*
X8164405Y-17530929D01*
X8154881Y-17511881D01*
X8154881Y-17454738D01*
X8164405Y-17435690D01*
X8173928Y-17426167D01*
X8192976Y-17416643D01*
X8221548Y-17416643D01*
X8240595Y-17426167D01*
X8250119Y-17435690D01*
X8259643Y-17454738D01*
X8259643Y-17511881D01*
X8250119Y-17530929D01*
X8240595Y-17540452D01*
X8221548Y-17549976D01*
X8192976Y-17549976D01*
X8373928Y-17549976D02*
X8354881Y-17540452D01*
X8345357Y-17521405D01*
X8345357Y-17349976D01*
X8526310Y-17540452D02*
X8507262Y-17549976D01*
X8469167Y-17549976D01*
X8450119Y-17540452D01*
X8440595Y-17521405D01*
X8440595Y-17445214D01*
X8450119Y-17426167D01*
X8469167Y-17416643D01*
X8507262Y-17416643D01*
X8526310Y-17426167D01*
X8535833Y-17445214D01*
X8535833Y-17464262D01*
X8440595Y-17483310D01*
X8612024Y-17540452D02*
X8631071Y-17549976D01*
X8669167Y-17549976D01*
X8688214Y-17540452D01*
X8697738Y-17521405D01*
X8697738Y-17511881D01*
X8688214Y-17492833D01*
X8669167Y-17483310D01*
X8640595Y-17483310D01*
X8621548Y-17473786D01*
X8612024Y-17454738D01*
X8612024Y-17445214D01*
X8621548Y-17426167D01*
X8640595Y-17416643D01*
X8669167Y-17416643D01*
X8688214Y-17426167D01*
X8764405Y-17626167D02*
X8773929Y-17616643D01*
X8792976Y-17588071D01*
X8802500Y-17569024D01*
X8812024Y-17540452D01*
X8821548Y-17492833D01*
X8821548Y-17454738D01*
X8812024Y-17407119D01*
X8802500Y-17378548D01*
X8792976Y-17359500D01*
X8773929Y-17330929D01*
X8764405Y-17321405D01*
D21*
X3942500Y-17673500D02*
X3942500Y-17773500D01*
X3892500Y-17723500D02*
X3992500Y-17723500D01*
X3992500Y-17723500D02*
G75*
G03*
X3992500Y-17723500I-50000J0D01*
G01*
D12*
X4354881Y-17813976D02*
X4240595Y-17813976D01*
X4297738Y-17813976D02*
X4297738Y-17613976D01*
X4278690Y-17642548D01*
X4259643Y-17661595D01*
X4240595Y-17671119D01*
X4440595Y-17794929D02*
X4450119Y-17804452D01*
X4440595Y-17813976D01*
X4431071Y-17804452D01*
X4440595Y-17794929D01*
X4440595Y-17813976D01*
X4573929Y-17613976D02*
X4592976Y-17613976D01*
X4612024Y-17623500D01*
X4621548Y-17633024D01*
X4631071Y-17652071D01*
X4640595Y-17690167D01*
X4640595Y-17737786D01*
X4631071Y-17775881D01*
X4621548Y-17794929D01*
X4612024Y-17804452D01*
X4592976Y-17813976D01*
X4573929Y-17813976D01*
X4554881Y-17804452D01*
X4545357Y-17794929D01*
X4535833Y-17775881D01*
X4526310Y-17737786D01*
X4526310Y-17690167D01*
X4535833Y-17652071D01*
X4545357Y-17633024D01*
X4554881Y-17623500D01*
X4573929Y-17613976D01*
X4764405Y-17613976D02*
X4783452Y-17613976D01*
X4802500Y-17623500D01*
X4812024Y-17633024D01*
X4821548Y-17652071D01*
X4831071Y-17690167D01*
X4831071Y-17737786D01*
X4821548Y-17775881D01*
X4812024Y-17794929D01*
X4802500Y-17804452D01*
X4783452Y-17813976D01*
X4764405Y-17813976D01*
X4745357Y-17804452D01*
X4735833Y-17794929D01*
X4726310Y-17775881D01*
X4716786Y-17737786D01*
X4716786Y-17690167D01*
X4726310Y-17652071D01*
X4735833Y-17633024D01*
X4745357Y-17623500D01*
X4764405Y-17613976D01*
X4954881Y-17613976D02*
X4973929Y-17613976D01*
X4992976Y-17623500D01*
X5002500Y-17633024D01*
X5012024Y-17652071D01*
X5021548Y-17690167D01*
X5021548Y-17737786D01*
X5012024Y-17775881D01*
X5002500Y-17794929D01*
X4992976Y-17804452D01*
X4973929Y-17813976D01*
X4954881Y-17813976D01*
X4935833Y-17804452D01*
X4926310Y-17794929D01*
X4916786Y-17775881D01*
X4907262Y-17737786D01*
X4907262Y-17690167D01*
X4916786Y-17652071D01*
X4926310Y-17633024D01*
X4935833Y-17623500D01*
X4954881Y-17613976D01*
X5107262Y-17813976D02*
X5107262Y-17680643D01*
X5107262Y-17699690D02*
X5116786Y-17690167D01*
X5135833Y-17680643D01*
X5164405Y-17680643D01*
X5183452Y-17690167D01*
X5192976Y-17709214D01*
X5192976Y-17813976D01*
X5192976Y-17709214D02*
X5202500Y-17690167D01*
X5221548Y-17680643D01*
X5250119Y-17680643D01*
X5269167Y-17690167D01*
X5278690Y-17709214D01*
X5278690Y-17813976D01*
X5373929Y-17813976D02*
X5373929Y-17680643D01*
X5373929Y-17699690D02*
X5383452Y-17690167D01*
X5402500Y-17680643D01*
X5431071Y-17680643D01*
X5450119Y-17690167D01*
X5459643Y-17709214D01*
X5459643Y-17813976D01*
X5459643Y-17709214D02*
X5469167Y-17690167D01*
X5488214Y-17680643D01*
X5516786Y-17680643D01*
X5535833Y-17690167D01*
X5545357Y-17709214D01*
X5545357Y-17813976D01*
X5935833Y-17604452D02*
X5764405Y-17861595D01*
X6192976Y-17613976D02*
X6212024Y-17613976D01*
X6231071Y-17623500D01*
X6240595Y-17633024D01*
X6250119Y-17652071D01*
X6259643Y-17690167D01*
X6259643Y-17737786D01*
X6250119Y-17775881D01*
X6240595Y-17794929D01*
X6231071Y-17804452D01*
X6212024Y-17813976D01*
X6192976Y-17813976D01*
X6173928Y-17804452D01*
X6164405Y-17794929D01*
X6154881Y-17775881D01*
X6145357Y-17737786D01*
X6145357Y-17690167D01*
X6154881Y-17652071D01*
X6164405Y-17633024D01*
X6173928Y-17623500D01*
X6192976Y-17613976D01*
X6345357Y-17794929D02*
X6354881Y-17804452D01*
X6345357Y-17813976D01*
X6335833Y-17804452D01*
X6345357Y-17794929D01*
X6345357Y-17813976D01*
X6478690Y-17613976D02*
X6497738Y-17613976D01*
X6516786Y-17623500D01*
X6526309Y-17633024D01*
X6535833Y-17652071D01*
X6545357Y-17690167D01*
X6545357Y-17737786D01*
X6535833Y-17775881D01*
X6526309Y-17794929D01*
X6516786Y-17804452D01*
X6497738Y-17813976D01*
X6478690Y-17813976D01*
X6459643Y-17804452D01*
X6450119Y-17794929D01*
X6440595Y-17775881D01*
X6431071Y-17737786D01*
X6431071Y-17690167D01*
X6440595Y-17652071D01*
X6450119Y-17633024D01*
X6459643Y-17623500D01*
X6478690Y-17613976D01*
X6612024Y-17613976D02*
X6735833Y-17613976D01*
X6669167Y-17690167D01*
X6697738Y-17690167D01*
X6716786Y-17699690D01*
X6726309Y-17709214D01*
X6735833Y-17728262D01*
X6735833Y-17775881D01*
X6726309Y-17794929D01*
X6716786Y-17804452D01*
X6697738Y-17813976D01*
X6640595Y-17813976D01*
X6621548Y-17804452D01*
X6612024Y-17794929D01*
X6831071Y-17813976D02*
X6869167Y-17813976D01*
X6888214Y-17804452D01*
X6897738Y-17794929D01*
X6916786Y-17766357D01*
X6926309Y-17728262D01*
X6926309Y-17652071D01*
X6916786Y-17633024D01*
X6907262Y-17623500D01*
X6888214Y-17613976D01*
X6850119Y-17613976D01*
X6831071Y-17623500D01*
X6821548Y-17633024D01*
X6812024Y-17652071D01*
X6812024Y-17699690D01*
X6821548Y-17718738D01*
X6831071Y-17728262D01*
X6850119Y-17737786D01*
X6888214Y-17737786D01*
X6907262Y-17728262D01*
X6916786Y-17718738D01*
X6926309Y-17699690D01*
X7097738Y-17680643D02*
X7097738Y-17813976D01*
X7050119Y-17604452D02*
X7002500Y-17747310D01*
X7126309Y-17747310D01*
X7192976Y-17613976D02*
X7192976Y-17652071D01*
X7269167Y-17613976D02*
X7269167Y-17652071D01*
X7564405Y-17890167D02*
X7554881Y-17880643D01*
X7535833Y-17852071D01*
X7526309Y-17833024D01*
X7516786Y-17804452D01*
X7507262Y-17756833D01*
X7507262Y-17718738D01*
X7516786Y-17671119D01*
X7526309Y-17642548D01*
X7535833Y-17623500D01*
X7554881Y-17594929D01*
X7564405Y-17585405D01*
X7745357Y-17813976D02*
X7631071Y-17813976D01*
X7688214Y-17813976D02*
X7688214Y-17613976D01*
X7669167Y-17642548D01*
X7650119Y-17661595D01*
X7631071Y-17671119D01*
X7916786Y-17613976D02*
X7878690Y-17613976D01*
X7859643Y-17623500D01*
X7850119Y-17633024D01*
X7831071Y-17661595D01*
X7821548Y-17699690D01*
X7821548Y-17775881D01*
X7831071Y-17794929D01*
X7840595Y-17804452D01*
X7859643Y-17813976D01*
X7897738Y-17813976D01*
X7916786Y-17804452D01*
X7926309Y-17794929D01*
X7935833Y-17775881D01*
X7935833Y-17728262D01*
X7926309Y-17709214D01*
X7916786Y-17699690D01*
X7897738Y-17690167D01*
X7859643Y-17690167D01*
X7840595Y-17699690D01*
X7831071Y-17709214D01*
X7821548Y-17728262D01*
X8173928Y-17813976D02*
X8173928Y-17613976D01*
X8259643Y-17813976D02*
X8259643Y-17709214D01*
X8250119Y-17690167D01*
X8231071Y-17680643D01*
X8202500Y-17680643D01*
X8183452Y-17690167D01*
X8173928Y-17699690D01*
X8383452Y-17813976D02*
X8364405Y-17804452D01*
X8354881Y-17794929D01*
X8345357Y-17775881D01*
X8345357Y-17718738D01*
X8354881Y-17699690D01*
X8364405Y-17690167D01*
X8383452Y-17680643D01*
X8412024Y-17680643D01*
X8431071Y-17690167D01*
X8440595Y-17699690D01*
X8450119Y-17718738D01*
X8450119Y-17775881D01*
X8440595Y-17794929D01*
X8431071Y-17804452D01*
X8412024Y-17813976D01*
X8383452Y-17813976D01*
X8564405Y-17813976D02*
X8545357Y-17804452D01*
X8535833Y-17785405D01*
X8535833Y-17613976D01*
X8716786Y-17804452D02*
X8697738Y-17813976D01*
X8659643Y-17813976D01*
X8640595Y-17804452D01*
X8631071Y-17785405D01*
X8631071Y-17709214D01*
X8640595Y-17690167D01*
X8659643Y-17680643D01*
X8697738Y-17680643D01*
X8716786Y-17690167D01*
X8726310Y-17709214D01*
X8726310Y-17728262D01*
X8631071Y-17747310D01*
X8802500Y-17804452D02*
X8821548Y-17813976D01*
X8859643Y-17813976D01*
X8878690Y-17804452D01*
X8888214Y-17785405D01*
X8888214Y-17775881D01*
X8878690Y-17756833D01*
X8859643Y-17747310D01*
X8831071Y-17747310D01*
X8812024Y-17737786D01*
X8802500Y-17718738D01*
X8802500Y-17709214D01*
X8812024Y-17690167D01*
X8831071Y-17680643D01*
X8859643Y-17680643D01*
X8878690Y-17690167D01*
X8954881Y-17890167D02*
X8964405Y-17880643D01*
X8983452Y-17852071D01*
X8992976Y-17833024D01*
X9002500Y-17804452D01*
X9012024Y-17756833D01*
X9012024Y-17718738D01*
X9002500Y-17671119D01*
X8992976Y-17642548D01*
X8983452Y-17623500D01*
X8964405Y-17594929D01*
X8954881Y-17585405D01*
D22*
X3977563Y-18023563D02*
X3977563Y-17951437D01*
X3905437Y-17951437D01*
X3905437Y-18023563D01*
X3977563Y-18023563D01*
X3992500Y-17987500D02*
G75*
G03*
X3992500Y-17987500I-51000J0D01*
G01*
D12*
X4354881Y-18077976D02*
X4240595Y-18077976D01*
X4297738Y-18077976D02*
X4297738Y-17877976D01*
X4278690Y-17906548D01*
X4259643Y-17925595D01*
X4240595Y-17935119D01*
X4440595Y-18058929D02*
X4450119Y-18068452D01*
X4440595Y-18077976D01*
X4431071Y-18068452D01*
X4440595Y-18058929D01*
X4440595Y-18077976D01*
X4573929Y-17877976D02*
X4592976Y-17877976D01*
X4612024Y-17887500D01*
X4621548Y-17897024D01*
X4631071Y-17916071D01*
X4640595Y-17954167D01*
X4640595Y-18001786D01*
X4631071Y-18039881D01*
X4621548Y-18058929D01*
X4612024Y-18068452D01*
X4592976Y-18077976D01*
X4573929Y-18077976D01*
X4554881Y-18068452D01*
X4545357Y-18058929D01*
X4535833Y-18039881D01*
X4526310Y-18001786D01*
X4526310Y-17954167D01*
X4535833Y-17916071D01*
X4545357Y-17897024D01*
X4554881Y-17887500D01*
X4573929Y-17877976D01*
X4716786Y-17897024D02*
X4726310Y-17887500D01*
X4745357Y-17877976D01*
X4792976Y-17877976D01*
X4812024Y-17887500D01*
X4821548Y-17897024D01*
X4831071Y-17916071D01*
X4831071Y-17935119D01*
X4821548Y-17963690D01*
X4707262Y-18077976D01*
X4831071Y-18077976D01*
X4954881Y-17877976D02*
X4973929Y-17877976D01*
X4992976Y-17887500D01*
X5002500Y-17897024D01*
X5012024Y-17916071D01*
X5021548Y-17954167D01*
X5021548Y-18001786D01*
X5012024Y-18039881D01*
X5002500Y-18058929D01*
X4992976Y-18068452D01*
X4973929Y-18077976D01*
X4954881Y-18077976D01*
X4935833Y-18068452D01*
X4926310Y-18058929D01*
X4916786Y-18039881D01*
X4907262Y-18001786D01*
X4907262Y-17954167D01*
X4916786Y-17916071D01*
X4926310Y-17897024D01*
X4935833Y-17887500D01*
X4954881Y-17877976D01*
X5107262Y-18077976D02*
X5107262Y-17944643D01*
X5107262Y-17963690D02*
X5116786Y-17954167D01*
X5135833Y-17944643D01*
X5164405Y-17944643D01*
X5183452Y-17954167D01*
X5192976Y-17973214D01*
X5192976Y-18077976D01*
X5192976Y-17973214D02*
X5202500Y-17954167D01*
X5221548Y-17944643D01*
X5250119Y-17944643D01*
X5269167Y-17954167D01*
X5278690Y-17973214D01*
X5278690Y-18077976D01*
X5373929Y-18077976D02*
X5373929Y-17944643D01*
X5373929Y-17963690D02*
X5383452Y-17954167D01*
X5402500Y-17944643D01*
X5431071Y-17944643D01*
X5450119Y-17954167D01*
X5459643Y-17973214D01*
X5459643Y-18077976D01*
X5459643Y-17973214D02*
X5469167Y-17954167D01*
X5488214Y-17944643D01*
X5516786Y-17944643D01*
X5535833Y-17954167D01*
X5545357Y-17973214D01*
X5545357Y-18077976D01*
X5935833Y-17868452D02*
X5764405Y-18125595D01*
X6192976Y-17877976D02*
X6212024Y-17877976D01*
X6231071Y-17887500D01*
X6240595Y-17897024D01*
X6250119Y-17916071D01*
X6259643Y-17954167D01*
X6259643Y-18001786D01*
X6250119Y-18039881D01*
X6240595Y-18058929D01*
X6231071Y-18068452D01*
X6212024Y-18077976D01*
X6192976Y-18077976D01*
X6173928Y-18068452D01*
X6164405Y-18058929D01*
X6154881Y-18039881D01*
X6145357Y-18001786D01*
X6145357Y-17954167D01*
X6154881Y-17916071D01*
X6164405Y-17897024D01*
X6173928Y-17887500D01*
X6192976Y-17877976D01*
X6345357Y-18058929D02*
X6354881Y-18068452D01*
X6345357Y-18077976D01*
X6335833Y-18068452D01*
X6345357Y-18058929D01*
X6345357Y-18077976D01*
X6478690Y-17877976D02*
X6497738Y-17877976D01*
X6516786Y-17887500D01*
X6526309Y-17897024D01*
X6535833Y-17916071D01*
X6545357Y-17954167D01*
X6545357Y-18001786D01*
X6535833Y-18039881D01*
X6526309Y-18058929D01*
X6516786Y-18068452D01*
X6497738Y-18077976D01*
X6478690Y-18077976D01*
X6459643Y-18068452D01*
X6450119Y-18058929D01*
X6440595Y-18039881D01*
X6431071Y-18001786D01*
X6431071Y-17954167D01*
X6440595Y-17916071D01*
X6450119Y-17897024D01*
X6459643Y-17887500D01*
X6478690Y-17877976D01*
X6716786Y-17944643D02*
X6716786Y-18077976D01*
X6669167Y-17868452D02*
X6621548Y-18011310D01*
X6745357Y-18011310D01*
X6859643Y-17877976D02*
X6878690Y-17877976D01*
X6897738Y-17887500D01*
X6907262Y-17897024D01*
X6916786Y-17916071D01*
X6926309Y-17954167D01*
X6926309Y-18001786D01*
X6916786Y-18039881D01*
X6907262Y-18058929D01*
X6897738Y-18068452D01*
X6878690Y-18077976D01*
X6859643Y-18077976D01*
X6840595Y-18068452D01*
X6831071Y-18058929D01*
X6821548Y-18039881D01*
X6812024Y-18001786D01*
X6812024Y-17954167D01*
X6821548Y-17916071D01*
X6831071Y-17897024D01*
X6840595Y-17887500D01*
X6859643Y-17877976D01*
X7002500Y-17897024D02*
X7012024Y-17887500D01*
X7031071Y-17877976D01*
X7078690Y-17877976D01*
X7097738Y-17887500D01*
X7107262Y-17897024D01*
X7116786Y-17916071D01*
X7116786Y-17935119D01*
X7107262Y-17963690D01*
X6992976Y-18077976D01*
X7116786Y-18077976D01*
X7192976Y-17877976D02*
X7192976Y-17916071D01*
X7269167Y-17877976D02*
X7269167Y-17916071D01*
X7564405Y-18154167D02*
X7554881Y-18144643D01*
X7535833Y-18116071D01*
X7526309Y-18097024D01*
X7516786Y-18068452D01*
X7507262Y-18020833D01*
X7507262Y-17982738D01*
X7516786Y-17935119D01*
X7526309Y-17906548D01*
X7535833Y-17887500D01*
X7554881Y-17858929D01*
X7564405Y-17849405D01*
X7726309Y-17944643D02*
X7726309Y-18077976D01*
X7678690Y-17868452D02*
X7631071Y-18011310D01*
X7754881Y-18011310D01*
X7983452Y-18077976D02*
X7983452Y-17877976D01*
X8069167Y-18077976D02*
X8069167Y-17973214D01*
X8059643Y-17954167D01*
X8040595Y-17944643D01*
X8012024Y-17944643D01*
X7992976Y-17954167D01*
X7983452Y-17963690D01*
X8192976Y-18077976D02*
X8173928Y-18068452D01*
X8164405Y-18058929D01*
X8154881Y-18039881D01*
X8154881Y-17982738D01*
X8164405Y-17963690D01*
X8173928Y-17954167D01*
X8192976Y-17944643D01*
X8221548Y-17944643D01*
X8240595Y-17954167D01*
X8250119Y-17963690D01*
X8259643Y-17982738D01*
X8259643Y-18039881D01*
X8250119Y-18058929D01*
X8240595Y-18068452D01*
X8221548Y-18077976D01*
X8192976Y-18077976D01*
X8373928Y-18077976D02*
X8354881Y-18068452D01*
X8345357Y-18049405D01*
X8345357Y-17877976D01*
X8526310Y-18068452D02*
X8507262Y-18077976D01*
X8469167Y-18077976D01*
X8450119Y-18068452D01*
X8440595Y-18049405D01*
X8440595Y-17973214D01*
X8450119Y-17954167D01*
X8469167Y-17944643D01*
X8507262Y-17944643D01*
X8526310Y-17954167D01*
X8535833Y-17973214D01*
X8535833Y-17992262D01*
X8440595Y-18011310D01*
X8612024Y-18068452D02*
X8631071Y-18077976D01*
X8669167Y-18077976D01*
X8688214Y-18068452D01*
X8697738Y-18049405D01*
X8697738Y-18039881D01*
X8688214Y-18020833D01*
X8669167Y-18011310D01*
X8640595Y-18011310D01*
X8621548Y-18001786D01*
X8612024Y-17982738D01*
X8612024Y-17973214D01*
X8621548Y-17954167D01*
X8640595Y-17944643D01*
X8669167Y-17944643D01*
X8688214Y-17954167D01*
X8764405Y-18154167D02*
X8773929Y-18144643D01*
X8792976Y-18116071D01*
X8802500Y-18097024D01*
X8812024Y-18068452D01*
X8821548Y-18020833D01*
X8821548Y-17982738D01*
X8812024Y-17935119D01*
X8802500Y-17906548D01*
X8792976Y-17887500D01*
X8773929Y-17858929D01*
X8764405Y-17849405D01*
D23*
X3933000Y-18311000D02*
X3992500Y-18251500D01*
X3933000Y-18192000D01*
X3873500Y-18251500D01*
X3933000Y-18311000D01*
X3992500Y-18251500D02*
G75*
G03*
X3992500Y-18251500I-59500J0D01*
G01*
D12*
X4354881Y-18341976D02*
X4240595Y-18341976D01*
X4297738Y-18341976D02*
X4297738Y-18141976D01*
X4278690Y-18170548D01*
X4259643Y-18189595D01*
X4240595Y-18199119D01*
X4440595Y-18322929D02*
X4450119Y-18332452D01*
X4440595Y-18341976D01*
X4431071Y-18332452D01*
X4440595Y-18322929D01*
X4440595Y-18341976D01*
X4640595Y-18341976D02*
X4526310Y-18341976D01*
X4583452Y-18341976D02*
X4583452Y-18141976D01*
X4564405Y-18170548D01*
X4545357Y-18189595D01*
X4526310Y-18199119D01*
X4735833Y-18341976D02*
X4773929Y-18341976D01*
X4792976Y-18332452D01*
X4802500Y-18322929D01*
X4821548Y-18294357D01*
X4831071Y-18256262D01*
X4831071Y-18180071D01*
X4821548Y-18161024D01*
X4812024Y-18151500D01*
X4792976Y-18141976D01*
X4754881Y-18141976D01*
X4735833Y-18151500D01*
X4726310Y-18161024D01*
X4716786Y-18180071D01*
X4716786Y-18227690D01*
X4726310Y-18246738D01*
X4735833Y-18256262D01*
X4754881Y-18265786D01*
X4792976Y-18265786D01*
X4812024Y-18256262D01*
X4821548Y-18246738D01*
X4831071Y-18227690D01*
X4954881Y-18141976D02*
X4973929Y-18141976D01*
X4992976Y-18151500D01*
X5002500Y-18161024D01*
X5012024Y-18180071D01*
X5021548Y-18218167D01*
X5021548Y-18265786D01*
X5012024Y-18303881D01*
X5002500Y-18322929D01*
X4992976Y-18332452D01*
X4973929Y-18341976D01*
X4954881Y-18341976D01*
X4935833Y-18332452D01*
X4926310Y-18322929D01*
X4916786Y-18303881D01*
X4907262Y-18265786D01*
X4907262Y-18218167D01*
X4916786Y-18180071D01*
X4926310Y-18161024D01*
X4935833Y-18151500D01*
X4954881Y-18141976D01*
X5107262Y-18341976D02*
X5107262Y-18208643D01*
X5107262Y-18227690D02*
X5116786Y-18218167D01*
X5135833Y-18208643D01*
X5164405Y-18208643D01*
X5183452Y-18218167D01*
X5192976Y-18237214D01*
X5192976Y-18341976D01*
X5192976Y-18237214D02*
X5202500Y-18218167D01*
X5221548Y-18208643D01*
X5250119Y-18208643D01*
X5269167Y-18218167D01*
X5278690Y-18237214D01*
X5278690Y-18341976D01*
X5373929Y-18341976D02*
X5373929Y-18208643D01*
X5373929Y-18227690D02*
X5383452Y-18218167D01*
X5402500Y-18208643D01*
X5431071Y-18208643D01*
X5450119Y-18218167D01*
X5459643Y-18237214D01*
X5459643Y-18341976D01*
X5459643Y-18237214D02*
X5469167Y-18218167D01*
X5488214Y-18208643D01*
X5516786Y-18208643D01*
X5535833Y-18218167D01*
X5545357Y-18237214D01*
X5545357Y-18341976D01*
X5935833Y-18132452D02*
X5764405Y-18389595D01*
X6192976Y-18141976D02*
X6212024Y-18141976D01*
X6231071Y-18151500D01*
X6240595Y-18161024D01*
X6250119Y-18180071D01*
X6259643Y-18218167D01*
X6259643Y-18265786D01*
X6250119Y-18303881D01*
X6240595Y-18322929D01*
X6231071Y-18332452D01*
X6212024Y-18341976D01*
X6192976Y-18341976D01*
X6173928Y-18332452D01*
X6164405Y-18322929D01*
X6154881Y-18303881D01*
X6145357Y-18265786D01*
X6145357Y-18218167D01*
X6154881Y-18180071D01*
X6164405Y-18161024D01*
X6173928Y-18151500D01*
X6192976Y-18141976D01*
X6345357Y-18322929D02*
X6354881Y-18332452D01*
X6345357Y-18341976D01*
X6335833Y-18332452D01*
X6345357Y-18322929D01*
X6345357Y-18341976D01*
X6478690Y-18141976D02*
X6497738Y-18141976D01*
X6516786Y-18151500D01*
X6526309Y-18161024D01*
X6535833Y-18180071D01*
X6545357Y-18218167D01*
X6545357Y-18265786D01*
X6535833Y-18303881D01*
X6526309Y-18322929D01*
X6516786Y-18332452D01*
X6497738Y-18341976D01*
X6478690Y-18341976D01*
X6459643Y-18332452D01*
X6450119Y-18322929D01*
X6440595Y-18303881D01*
X6431071Y-18265786D01*
X6431071Y-18218167D01*
X6440595Y-18180071D01*
X6450119Y-18161024D01*
X6459643Y-18151500D01*
X6478690Y-18141976D01*
X6716786Y-18208643D02*
X6716786Y-18341976D01*
X6669167Y-18132452D02*
X6621548Y-18275310D01*
X6745357Y-18275310D01*
X6907262Y-18141976D02*
X6869167Y-18141976D01*
X6850119Y-18151500D01*
X6840595Y-18161024D01*
X6821548Y-18189595D01*
X6812024Y-18227690D01*
X6812024Y-18303881D01*
X6821548Y-18322929D01*
X6831071Y-18332452D01*
X6850119Y-18341976D01*
X6888214Y-18341976D01*
X6907262Y-18332452D01*
X6916786Y-18322929D01*
X6926309Y-18303881D01*
X6926309Y-18256262D01*
X6916786Y-18237214D01*
X6907262Y-18227690D01*
X6888214Y-18218167D01*
X6850119Y-18218167D01*
X6831071Y-18227690D01*
X6821548Y-18237214D01*
X6812024Y-18256262D01*
X7021548Y-18341976D02*
X7059643Y-18341976D01*
X7078690Y-18332452D01*
X7088214Y-18322929D01*
X7107262Y-18294357D01*
X7116786Y-18256262D01*
X7116786Y-18180071D01*
X7107262Y-18161024D01*
X7097738Y-18151500D01*
X7078690Y-18141976D01*
X7040595Y-18141976D01*
X7021548Y-18151500D01*
X7012024Y-18161024D01*
X7002500Y-18180071D01*
X7002500Y-18227690D01*
X7012024Y-18246738D01*
X7021548Y-18256262D01*
X7040595Y-18265786D01*
X7078690Y-18265786D01*
X7097738Y-18256262D01*
X7107262Y-18246738D01*
X7116786Y-18227690D01*
X7192976Y-18141976D02*
X7192976Y-18180071D01*
X7269167Y-18141976D02*
X7269167Y-18180071D01*
X7564405Y-18418167D02*
X7554881Y-18408643D01*
X7535833Y-18380071D01*
X7526309Y-18361024D01*
X7516786Y-18332452D01*
X7507262Y-18284833D01*
X7507262Y-18246738D01*
X7516786Y-18199119D01*
X7526309Y-18170548D01*
X7535833Y-18151500D01*
X7554881Y-18122929D01*
X7564405Y-18113405D01*
X7726309Y-18208643D02*
X7726309Y-18341976D01*
X7678690Y-18132452D02*
X7631071Y-18275310D01*
X7754881Y-18275310D01*
X7821548Y-18161024D02*
X7831071Y-18151500D01*
X7850119Y-18141976D01*
X7897738Y-18141976D01*
X7916786Y-18151500D01*
X7926309Y-18161024D01*
X7935833Y-18180071D01*
X7935833Y-18199119D01*
X7926309Y-18227690D01*
X7812024Y-18341976D01*
X7935833Y-18341976D01*
X8173928Y-18341976D02*
X8173928Y-18141976D01*
X8259643Y-18341976D02*
X8259643Y-18237214D01*
X8250119Y-18218167D01*
X8231071Y-18208643D01*
X8202500Y-18208643D01*
X8183452Y-18218167D01*
X8173928Y-18227690D01*
X8383452Y-18341976D02*
X8364405Y-18332452D01*
X8354881Y-18322929D01*
X8345357Y-18303881D01*
X8345357Y-18246738D01*
X8354881Y-18227690D01*
X8364405Y-18218167D01*
X8383452Y-18208643D01*
X8412024Y-18208643D01*
X8431071Y-18218167D01*
X8440595Y-18227690D01*
X8450119Y-18246738D01*
X8450119Y-18303881D01*
X8440595Y-18322929D01*
X8431071Y-18332452D01*
X8412024Y-18341976D01*
X8383452Y-18341976D01*
X8564405Y-18341976D02*
X8545357Y-18332452D01*
X8535833Y-18313405D01*
X8535833Y-18141976D01*
X8716786Y-18332452D02*
X8697738Y-18341976D01*
X8659643Y-18341976D01*
X8640595Y-18332452D01*
X8631071Y-18313405D01*
X8631071Y-18237214D01*
X8640595Y-18218167D01*
X8659643Y-18208643D01*
X8697738Y-18208643D01*
X8716786Y-18218167D01*
X8726310Y-18237214D01*
X8726310Y-18256262D01*
X8631071Y-18275310D01*
X8802500Y-18332452D02*
X8821548Y-18341976D01*
X8859643Y-18341976D01*
X8878690Y-18332452D01*
X8888214Y-18313405D01*
X8888214Y-18303881D01*
X8878690Y-18284833D01*
X8859643Y-18275310D01*
X8831071Y-18275310D01*
X8812024Y-18265786D01*
X8802500Y-18246738D01*
X8802500Y-18237214D01*
X8812024Y-18218167D01*
X8831071Y-18208643D01*
X8859643Y-18208643D01*
X8878690Y-18218167D01*
X8954881Y-18418167D02*
X8964405Y-18408643D01*
X8983452Y-18380071D01*
X8992976Y-18361024D01*
X9002500Y-18332452D01*
X9012024Y-18284833D01*
X9012024Y-18246738D01*
X9002500Y-18199119D01*
X8992976Y-18170548D01*
X8983452Y-18151500D01*
X8964405Y-18122929D01*
X8954881Y-18113405D01*
D24*
X3912490Y-18435490D02*
X3912490Y-18595510D01*
X3832480Y-18515500D02*
X3992500Y-18515500D01*
X3969066Y-18572076D02*
X3969066Y-18458924D01*
X3855914Y-18458924D01*
X3855914Y-18572076D01*
X3969066Y-18572076D01*
D12*
X4354881Y-18605976D02*
X4240595Y-18605976D01*
X4297738Y-18605976D02*
X4297738Y-18405976D01*
X4278690Y-18434548D01*
X4259643Y-18453595D01*
X4240595Y-18463119D01*
X4440595Y-18586929D02*
X4450119Y-18596452D01*
X4440595Y-18605976D01*
X4431071Y-18596452D01*
X4440595Y-18586929D01*
X4440595Y-18605976D01*
X4621548Y-18405976D02*
X4583452Y-18405976D01*
X4564405Y-18415500D01*
X4554881Y-18425024D01*
X4535833Y-18453595D01*
X4526310Y-18491690D01*
X4526310Y-18567881D01*
X4535833Y-18586929D01*
X4545357Y-18596452D01*
X4564405Y-18605976D01*
X4602500Y-18605976D01*
X4621548Y-18596452D01*
X4631071Y-18586929D01*
X4640595Y-18567881D01*
X4640595Y-18520262D01*
X4631071Y-18501214D01*
X4621548Y-18491690D01*
X4602500Y-18482167D01*
X4564405Y-18482167D01*
X4545357Y-18491690D01*
X4535833Y-18501214D01*
X4526310Y-18520262D01*
X4764405Y-18405976D02*
X4783452Y-18405976D01*
X4802500Y-18415500D01*
X4812024Y-18425024D01*
X4821548Y-18444071D01*
X4831071Y-18482167D01*
X4831071Y-18529786D01*
X4821548Y-18567881D01*
X4812024Y-18586929D01*
X4802500Y-18596452D01*
X4783452Y-18605976D01*
X4764405Y-18605976D01*
X4745357Y-18596452D01*
X4735833Y-18586929D01*
X4726310Y-18567881D01*
X4716786Y-18529786D01*
X4716786Y-18482167D01*
X4726310Y-18444071D01*
X4735833Y-18425024D01*
X4745357Y-18415500D01*
X4764405Y-18405976D01*
X4954881Y-18405976D02*
X4973929Y-18405976D01*
X4992976Y-18415500D01*
X5002500Y-18425024D01*
X5012024Y-18444071D01*
X5021548Y-18482167D01*
X5021548Y-18529786D01*
X5012024Y-18567881D01*
X5002500Y-18586929D01*
X4992976Y-18596452D01*
X4973929Y-18605976D01*
X4954881Y-18605976D01*
X4935833Y-18596452D01*
X4926310Y-18586929D01*
X4916786Y-18567881D01*
X4907262Y-18529786D01*
X4907262Y-18482167D01*
X4916786Y-18444071D01*
X4926310Y-18425024D01*
X4935833Y-18415500D01*
X4954881Y-18405976D01*
X5107262Y-18605976D02*
X5107262Y-18472643D01*
X5107262Y-18491690D02*
X5116786Y-18482167D01*
X5135833Y-18472643D01*
X5164405Y-18472643D01*
X5183452Y-18482167D01*
X5192976Y-18501214D01*
X5192976Y-18605976D01*
X5192976Y-18501214D02*
X5202500Y-18482167D01*
X5221548Y-18472643D01*
X5250119Y-18472643D01*
X5269167Y-18482167D01*
X5278690Y-18501214D01*
X5278690Y-18605976D01*
X5373929Y-18605976D02*
X5373929Y-18472643D01*
X5373929Y-18491690D02*
X5383452Y-18482167D01*
X5402500Y-18472643D01*
X5431071Y-18472643D01*
X5450119Y-18482167D01*
X5459643Y-18501214D01*
X5459643Y-18605976D01*
X5459643Y-18501214D02*
X5469167Y-18482167D01*
X5488214Y-18472643D01*
X5516786Y-18472643D01*
X5535833Y-18482167D01*
X5545357Y-18501214D01*
X5545357Y-18605976D01*
X5935833Y-18396452D02*
X5764405Y-18653595D01*
X6192976Y-18405976D02*
X6212024Y-18405976D01*
X6231071Y-18415500D01*
X6240595Y-18425024D01*
X6250119Y-18444071D01*
X6259643Y-18482167D01*
X6259643Y-18529786D01*
X6250119Y-18567881D01*
X6240595Y-18586929D01*
X6231071Y-18596452D01*
X6212024Y-18605976D01*
X6192976Y-18605976D01*
X6173928Y-18596452D01*
X6164405Y-18586929D01*
X6154881Y-18567881D01*
X6145357Y-18529786D01*
X6145357Y-18482167D01*
X6154881Y-18444071D01*
X6164405Y-18425024D01*
X6173928Y-18415500D01*
X6192976Y-18405976D01*
X6345357Y-18586929D02*
X6354881Y-18596452D01*
X6345357Y-18605976D01*
X6335833Y-18596452D01*
X6345357Y-18586929D01*
X6345357Y-18605976D01*
X6478690Y-18405976D02*
X6497738Y-18405976D01*
X6516786Y-18415500D01*
X6526309Y-18425024D01*
X6535833Y-18444071D01*
X6545357Y-18482167D01*
X6545357Y-18529786D01*
X6535833Y-18567881D01*
X6526309Y-18586929D01*
X6516786Y-18596452D01*
X6497738Y-18605976D01*
X6478690Y-18605976D01*
X6459643Y-18596452D01*
X6450119Y-18586929D01*
X6440595Y-18567881D01*
X6431071Y-18529786D01*
X6431071Y-18482167D01*
X6440595Y-18444071D01*
X6450119Y-18425024D01*
X6459643Y-18415500D01*
X6478690Y-18405976D01*
X6716786Y-18405976D02*
X6678690Y-18405976D01*
X6659643Y-18415500D01*
X6650119Y-18425024D01*
X6631071Y-18453595D01*
X6621548Y-18491690D01*
X6621548Y-18567881D01*
X6631071Y-18586929D01*
X6640595Y-18596452D01*
X6659643Y-18605976D01*
X6697738Y-18605976D01*
X6716786Y-18596452D01*
X6726309Y-18586929D01*
X6735833Y-18567881D01*
X6735833Y-18520262D01*
X6726309Y-18501214D01*
X6716786Y-18491690D01*
X6697738Y-18482167D01*
X6659643Y-18482167D01*
X6640595Y-18491690D01*
X6631071Y-18501214D01*
X6621548Y-18520262D01*
X6802500Y-18405976D02*
X6926309Y-18405976D01*
X6859643Y-18482167D01*
X6888214Y-18482167D01*
X6907262Y-18491690D01*
X6916786Y-18501214D01*
X6926309Y-18520262D01*
X6926309Y-18567881D01*
X6916786Y-18586929D01*
X6907262Y-18596452D01*
X6888214Y-18605976D01*
X6831071Y-18605976D01*
X6812024Y-18596452D01*
X6802500Y-18586929D01*
X7050119Y-18405976D02*
X7069167Y-18405976D01*
X7088214Y-18415500D01*
X7097738Y-18425024D01*
X7107262Y-18444071D01*
X7116786Y-18482167D01*
X7116786Y-18529786D01*
X7107262Y-18567881D01*
X7097738Y-18586929D01*
X7088214Y-18596452D01*
X7069167Y-18605976D01*
X7050119Y-18605976D01*
X7031071Y-18596452D01*
X7021548Y-18586929D01*
X7012024Y-18567881D01*
X7002500Y-18529786D01*
X7002500Y-18482167D01*
X7012024Y-18444071D01*
X7021548Y-18425024D01*
X7031071Y-18415500D01*
X7050119Y-18405976D01*
X7192976Y-18405976D02*
X7192976Y-18444071D01*
X7269167Y-18405976D02*
X7269167Y-18444071D01*
X7564405Y-18682167D02*
X7554881Y-18672643D01*
X7535833Y-18644071D01*
X7526309Y-18625024D01*
X7516786Y-18596452D01*
X7507262Y-18548833D01*
X7507262Y-18510738D01*
X7516786Y-18463119D01*
X7526309Y-18434548D01*
X7535833Y-18415500D01*
X7554881Y-18386929D01*
X7564405Y-18377405D01*
X7726309Y-18405976D02*
X7688214Y-18405976D01*
X7669167Y-18415500D01*
X7659643Y-18425024D01*
X7640595Y-18453595D01*
X7631071Y-18491690D01*
X7631071Y-18567881D01*
X7640595Y-18586929D01*
X7650119Y-18596452D01*
X7669167Y-18605976D01*
X7707262Y-18605976D01*
X7726309Y-18596452D01*
X7735833Y-18586929D01*
X7745357Y-18567881D01*
X7745357Y-18520262D01*
X7735833Y-18501214D01*
X7726309Y-18491690D01*
X7707262Y-18482167D01*
X7669167Y-18482167D01*
X7650119Y-18491690D01*
X7640595Y-18501214D01*
X7631071Y-18520262D01*
X7983452Y-18605976D02*
X7983452Y-18405976D01*
X8069167Y-18605976D02*
X8069167Y-18501214D01*
X8059643Y-18482167D01*
X8040595Y-18472643D01*
X8012024Y-18472643D01*
X7992976Y-18482167D01*
X7983452Y-18491690D01*
X8192976Y-18605976D02*
X8173928Y-18596452D01*
X8164405Y-18586929D01*
X8154881Y-18567881D01*
X8154881Y-18510738D01*
X8164405Y-18491690D01*
X8173928Y-18482167D01*
X8192976Y-18472643D01*
X8221548Y-18472643D01*
X8240595Y-18482167D01*
X8250119Y-18491690D01*
X8259643Y-18510738D01*
X8259643Y-18567881D01*
X8250119Y-18586929D01*
X8240595Y-18596452D01*
X8221548Y-18605976D01*
X8192976Y-18605976D01*
X8373928Y-18605976D02*
X8354881Y-18596452D01*
X8345357Y-18577405D01*
X8345357Y-18405976D01*
X8526310Y-18596452D02*
X8507262Y-18605976D01*
X8469167Y-18605976D01*
X8450119Y-18596452D01*
X8440595Y-18577405D01*
X8440595Y-18501214D01*
X8450119Y-18482167D01*
X8469167Y-18472643D01*
X8507262Y-18472643D01*
X8526310Y-18482167D01*
X8535833Y-18501214D01*
X8535833Y-18520262D01*
X8440595Y-18539310D01*
X8612024Y-18596452D02*
X8631071Y-18605976D01*
X8669167Y-18605976D01*
X8688214Y-18596452D01*
X8697738Y-18577405D01*
X8697738Y-18567881D01*
X8688214Y-18548833D01*
X8669167Y-18539310D01*
X8640595Y-18539310D01*
X8621548Y-18529786D01*
X8612024Y-18510738D01*
X8612024Y-18501214D01*
X8621548Y-18482167D01*
X8640595Y-18472643D01*
X8669167Y-18472643D01*
X8688214Y-18482167D01*
X8764405Y-18682167D02*
X8773929Y-18672643D01*
X8792976Y-18644071D01*
X8802500Y-18625024D01*
X8812024Y-18596452D01*
X8821548Y-18548833D01*
X8821548Y-18510738D01*
X8812024Y-18463119D01*
X8802500Y-18434548D01*
X8792976Y-18415500D01*
X8773929Y-18386929D01*
X8764405Y-18377405D01*
D25*
X3911000Y-18714020D02*
X3911000Y-18877020D01*
X3829500Y-18795520D02*
X3992500Y-18795520D01*
X3911000Y-18877020D02*
X3992500Y-18795520D01*
X3911000Y-18714020D01*
X3829500Y-18795520D01*
X3911000Y-18877020D01*
D12*
X4354881Y-18885996D02*
X4240595Y-18885996D01*
X4297738Y-18885996D02*
X4297738Y-18685996D01*
X4278690Y-18714568D01*
X4259643Y-18733615D01*
X4240595Y-18743139D01*
X4440595Y-18866949D02*
X4450119Y-18876472D01*
X4440595Y-18885996D01*
X4431071Y-18876472D01*
X4440595Y-18866949D01*
X4440595Y-18885996D01*
X4621548Y-18685996D02*
X4583452Y-18685996D01*
X4564405Y-18695520D01*
X4554881Y-18705044D01*
X4535833Y-18733615D01*
X4526310Y-18771710D01*
X4526310Y-18847901D01*
X4535833Y-18866949D01*
X4545357Y-18876472D01*
X4564405Y-18885996D01*
X4602500Y-18885996D01*
X4621548Y-18876472D01*
X4631071Y-18866949D01*
X4640595Y-18847901D01*
X4640595Y-18800282D01*
X4631071Y-18781234D01*
X4621548Y-18771710D01*
X4602500Y-18762187D01*
X4564405Y-18762187D01*
X4545357Y-18771710D01*
X4535833Y-18781234D01*
X4526310Y-18800282D01*
X4707262Y-18685996D02*
X4831071Y-18685996D01*
X4764405Y-18762187D01*
X4792976Y-18762187D01*
X4812024Y-18771710D01*
X4821548Y-18781234D01*
X4831071Y-18800282D01*
X4831071Y-18847901D01*
X4821548Y-18866949D01*
X4812024Y-18876472D01*
X4792976Y-18885996D01*
X4735833Y-18885996D01*
X4716786Y-18876472D01*
X4707262Y-18866949D01*
X4954881Y-18685996D02*
X4973929Y-18685996D01*
X4992976Y-18695520D01*
X5002500Y-18705044D01*
X5012024Y-18724091D01*
X5021548Y-18762187D01*
X5021548Y-18809806D01*
X5012024Y-18847901D01*
X5002500Y-18866949D01*
X4992976Y-18876472D01*
X4973929Y-18885996D01*
X4954881Y-18885996D01*
X4935833Y-18876472D01*
X4926310Y-18866949D01*
X4916786Y-18847901D01*
X4907262Y-18809806D01*
X4907262Y-18762187D01*
X4916786Y-18724091D01*
X4926310Y-18705044D01*
X4935833Y-18695520D01*
X4954881Y-18685996D01*
X5107262Y-18885996D02*
X5107262Y-18752663D01*
X5107262Y-18771710D02*
X5116786Y-18762187D01*
X5135833Y-18752663D01*
X5164405Y-18752663D01*
X5183452Y-18762187D01*
X5192976Y-18781234D01*
X5192976Y-18885996D01*
X5192976Y-18781234D02*
X5202500Y-18762187D01*
X5221548Y-18752663D01*
X5250119Y-18752663D01*
X5269167Y-18762187D01*
X5278690Y-18781234D01*
X5278690Y-18885996D01*
X5373929Y-18885996D02*
X5373929Y-18752663D01*
X5373929Y-18771710D02*
X5383452Y-18762187D01*
X5402500Y-18752663D01*
X5431071Y-18752663D01*
X5450119Y-18762187D01*
X5459643Y-18781234D01*
X5459643Y-18885996D01*
X5459643Y-18781234D02*
X5469167Y-18762187D01*
X5488214Y-18752663D01*
X5516786Y-18752663D01*
X5535833Y-18762187D01*
X5545357Y-18781234D01*
X5545357Y-18885996D01*
X5935833Y-18676472D02*
X5764405Y-18933615D01*
X6192976Y-18685996D02*
X6212024Y-18685996D01*
X6231071Y-18695520D01*
X6240595Y-18705044D01*
X6250119Y-18724091D01*
X6259643Y-18762187D01*
X6259643Y-18809806D01*
X6250119Y-18847901D01*
X6240595Y-18866949D01*
X6231071Y-18876472D01*
X6212024Y-18885996D01*
X6192976Y-18885996D01*
X6173928Y-18876472D01*
X6164405Y-18866949D01*
X6154881Y-18847901D01*
X6145357Y-18809806D01*
X6145357Y-18762187D01*
X6154881Y-18724091D01*
X6164405Y-18705044D01*
X6173928Y-18695520D01*
X6192976Y-18685996D01*
X6345357Y-18866949D02*
X6354881Y-18876472D01*
X6345357Y-18885996D01*
X6335833Y-18876472D01*
X6345357Y-18866949D01*
X6345357Y-18885996D01*
X6478690Y-18685996D02*
X6497738Y-18685996D01*
X6516786Y-18695520D01*
X6526309Y-18705044D01*
X6535833Y-18724091D01*
X6545357Y-18762187D01*
X6545357Y-18809806D01*
X6535833Y-18847901D01*
X6526309Y-18866949D01*
X6516786Y-18876472D01*
X6497738Y-18885996D01*
X6478690Y-18885996D01*
X6459643Y-18876472D01*
X6450119Y-18866949D01*
X6440595Y-18847901D01*
X6431071Y-18809806D01*
X6431071Y-18762187D01*
X6440595Y-18724091D01*
X6450119Y-18705044D01*
X6459643Y-18695520D01*
X6478690Y-18685996D01*
X6716786Y-18685996D02*
X6678690Y-18685996D01*
X6659643Y-18695520D01*
X6650119Y-18705044D01*
X6631071Y-18733615D01*
X6621548Y-18771710D01*
X6621548Y-18847901D01*
X6631071Y-18866949D01*
X6640595Y-18876472D01*
X6659643Y-18885996D01*
X6697738Y-18885996D01*
X6716786Y-18876472D01*
X6726309Y-18866949D01*
X6735833Y-18847901D01*
X6735833Y-18800282D01*
X6726309Y-18781234D01*
X6716786Y-18771710D01*
X6697738Y-18762187D01*
X6659643Y-18762187D01*
X6640595Y-18771710D01*
X6631071Y-18781234D01*
X6621548Y-18800282D01*
X6907262Y-18752663D02*
X6907262Y-18885996D01*
X6859643Y-18676472D02*
X6812024Y-18819330D01*
X6935833Y-18819330D01*
X7002500Y-18705044D02*
X7012024Y-18695520D01*
X7031071Y-18685996D01*
X7078690Y-18685996D01*
X7097738Y-18695520D01*
X7107262Y-18705044D01*
X7116786Y-18724091D01*
X7116786Y-18743139D01*
X7107262Y-18771710D01*
X6992976Y-18885996D01*
X7116786Y-18885996D01*
X7192976Y-18685996D02*
X7192976Y-18724091D01*
X7269167Y-18685996D02*
X7269167Y-18724091D01*
X7564405Y-18962187D02*
X7554881Y-18952663D01*
X7535833Y-18924091D01*
X7526309Y-18905044D01*
X7516786Y-18876472D01*
X7507262Y-18828853D01*
X7507262Y-18790758D01*
X7516786Y-18743139D01*
X7526309Y-18714568D01*
X7535833Y-18695520D01*
X7554881Y-18666949D01*
X7564405Y-18657425D01*
X7631071Y-18705044D02*
X7640595Y-18695520D01*
X7659643Y-18685996D01*
X7707262Y-18685996D01*
X7726309Y-18695520D01*
X7735833Y-18705044D01*
X7745357Y-18724091D01*
X7745357Y-18743139D01*
X7735833Y-18771710D01*
X7621548Y-18885996D01*
X7745357Y-18885996D01*
X7983452Y-18885996D02*
X7983452Y-18685996D01*
X8069167Y-18885996D02*
X8069167Y-18781234D01*
X8059643Y-18762187D01*
X8040595Y-18752663D01*
X8012024Y-18752663D01*
X7992976Y-18762187D01*
X7983452Y-18771710D01*
X8192976Y-18885996D02*
X8173928Y-18876472D01*
X8164405Y-18866949D01*
X8154881Y-18847901D01*
X8154881Y-18790758D01*
X8164405Y-18771710D01*
X8173928Y-18762187D01*
X8192976Y-18752663D01*
X8221548Y-18752663D01*
X8240595Y-18762187D01*
X8250119Y-18771710D01*
X8259643Y-18790758D01*
X8259643Y-18847901D01*
X8250119Y-18866949D01*
X8240595Y-18876472D01*
X8221548Y-18885996D01*
X8192976Y-18885996D01*
X8373928Y-18885996D02*
X8354881Y-18876472D01*
X8345357Y-18857425D01*
X8345357Y-18685996D01*
X8526310Y-18876472D02*
X8507262Y-18885996D01*
X8469167Y-18885996D01*
X8450119Y-18876472D01*
X8440595Y-18857425D01*
X8440595Y-18781234D01*
X8450119Y-18762187D01*
X8469167Y-18752663D01*
X8507262Y-18752663D01*
X8526310Y-18762187D01*
X8535833Y-18781234D01*
X8535833Y-18800282D01*
X8440595Y-18819330D01*
X8612024Y-18876472D02*
X8631071Y-18885996D01*
X8669167Y-18885996D01*
X8688214Y-18876472D01*
X8697738Y-18857425D01*
X8697738Y-18847901D01*
X8688214Y-18828853D01*
X8669167Y-18819330D01*
X8640595Y-18819330D01*
X8621548Y-18809806D01*
X8612024Y-18790758D01*
X8612024Y-18781234D01*
X8621548Y-18762187D01*
X8640595Y-18752663D01*
X8669167Y-18752663D01*
X8688214Y-18762187D01*
X8764405Y-18962187D02*
X8773929Y-18952663D01*
X8792976Y-18924091D01*
X8802500Y-18905044D01*
X8812024Y-18876472D01*
X8821548Y-18828853D01*
X8821548Y-18790758D01*
X8812024Y-18743139D01*
X8802500Y-18714568D01*
X8792976Y-18695520D01*
X8773929Y-18666949D01*
X8764405Y-18657425D01*
D26*
X3902500Y-19168520D02*
X3992500Y-19078520D01*
X3902500Y-18988520D01*
X3812500Y-19078520D01*
X3902500Y-19168520D01*
X3966140Y-19142160D02*
X3966140Y-19014880D01*
X3838860Y-19014880D01*
X3838860Y-19142160D01*
X3966140Y-19142160D01*
D12*
X4354881Y-19168996D02*
X4240595Y-19168996D01*
X4297738Y-19168996D02*
X4297738Y-18968996D01*
X4278690Y-18997568D01*
X4259643Y-19016615D01*
X4240595Y-19026139D01*
X4440595Y-19149949D02*
X4450119Y-19159472D01*
X4440595Y-19168996D01*
X4431071Y-19159472D01*
X4440595Y-19149949D01*
X4440595Y-19168996D01*
X4564405Y-19054710D02*
X4545357Y-19045187D01*
X4535833Y-19035663D01*
X4526310Y-19016615D01*
X4526310Y-19007091D01*
X4535833Y-18988044D01*
X4545357Y-18978520D01*
X4564405Y-18968996D01*
X4602500Y-18968996D01*
X4621548Y-18978520D01*
X4631071Y-18988044D01*
X4640595Y-19007091D01*
X4640595Y-19016615D01*
X4631071Y-19035663D01*
X4621548Y-19045187D01*
X4602500Y-19054710D01*
X4564405Y-19054710D01*
X4545357Y-19064234D01*
X4535833Y-19073758D01*
X4526310Y-19092806D01*
X4526310Y-19130901D01*
X4535833Y-19149949D01*
X4545357Y-19159472D01*
X4564405Y-19168996D01*
X4602500Y-19168996D01*
X4621548Y-19159472D01*
X4631071Y-19149949D01*
X4640595Y-19130901D01*
X4640595Y-19092806D01*
X4631071Y-19073758D01*
X4621548Y-19064234D01*
X4602500Y-19054710D01*
X4764405Y-18968996D02*
X4783452Y-18968996D01*
X4802500Y-18978520D01*
X4812024Y-18988044D01*
X4821548Y-19007091D01*
X4831071Y-19045187D01*
X4831071Y-19092806D01*
X4821548Y-19130901D01*
X4812024Y-19149949D01*
X4802500Y-19159472D01*
X4783452Y-19168996D01*
X4764405Y-19168996D01*
X4745357Y-19159472D01*
X4735833Y-19149949D01*
X4726310Y-19130901D01*
X4716786Y-19092806D01*
X4716786Y-19045187D01*
X4726310Y-19007091D01*
X4735833Y-18988044D01*
X4745357Y-18978520D01*
X4764405Y-18968996D01*
X4954881Y-18968996D02*
X4973929Y-18968996D01*
X4992976Y-18978520D01*
X5002500Y-18988044D01*
X5012024Y-19007091D01*
X5021548Y-19045187D01*
X5021548Y-19092806D01*
X5012024Y-19130901D01*
X5002500Y-19149949D01*
X4992976Y-19159472D01*
X4973929Y-19168996D01*
X4954881Y-19168996D01*
X4935833Y-19159472D01*
X4926310Y-19149949D01*
X4916786Y-19130901D01*
X4907262Y-19092806D01*
X4907262Y-19045187D01*
X4916786Y-19007091D01*
X4926310Y-18988044D01*
X4935833Y-18978520D01*
X4954881Y-18968996D01*
X5107262Y-19168996D02*
X5107262Y-19035663D01*
X5107262Y-19054710D02*
X5116786Y-19045187D01*
X5135833Y-19035663D01*
X5164405Y-19035663D01*
X5183452Y-19045187D01*
X5192976Y-19064234D01*
X5192976Y-19168996D01*
X5192976Y-19064234D02*
X5202500Y-19045187D01*
X5221548Y-19035663D01*
X5250119Y-19035663D01*
X5269167Y-19045187D01*
X5278690Y-19064234D01*
X5278690Y-19168996D01*
X5373929Y-19168996D02*
X5373929Y-19035663D01*
X5373929Y-19054710D02*
X5383452Y-19045187D01*
X5402500Y-19035663D01*
X5431071Y-19035663D01*
X5450119Y-19045187D01*
X5459643Y-19064234D01*
X5459643Y-19168996D01*
X5459643Y-19064234D02*
X5469167Y-19045187D01*
X5488214Y-19035663D01*
X5516786Y-19035663D01*
X5535833Y-19045187D01*
X5545357Y-19064234D01*
X5545357Y-19168996D01*
X5935833Y-18959472D02*
X5764405Y-19216615D01*
X6192976Y-18968996D02*
X6212024Y-18968996D01*
X6231071Y-18978520D01*
X6240595Y-18988044D01*
X6250119Y-19007091D01*
X6259643Y-19045187D01*
X6259643Y-19092806D01*
X6250119Y-19130901D01*
X6240595Y-19149949D01*
X6231071Y-19159472D01*
X6212024Y-19168996D01*
X6192976Y-19168996D01*
X6173928Y-19159472D01*
X6164405Y-19149949D01*
X6154881Y-19130901D01*
X6145357Y-19092806D01*
X6145357Y-19045187D01*
X6154881Y-19007091D01*
X6164405Y-18988044D01*
X6173928Y-18978520D01*
X6192976Y-18968996D01*
X6345357Y-19149949D02*
X6354881Y-19159472D01*
X6345357Y-19168996D01*
X6335833Y-19159472D01*
X6345357Y-19149949D01*
X6345357Y-19168996D01*
X6478690Y-18968996D02*
X6497738Y-18968996D01*
X6516786Y-18978520D01*
X6526309Y-18988044D01*
X6535833Y-19007091D01*
X6545357Y-19045187D01*
X6545357Y-19092806D01*
X6535833Y-19130901D01*
X6526309Y-19149949D01*
X6516786Y-19159472D01*
X6497738Y-19168996D01*
X6478690Y-19168996D01*
X6459643Y-19159472D01*
X6450119Y-19149949D01*
X6440595Y-19130901D01*
X6431071Y-19092806D01*
X6431071Y-19045187D01*
X6440595Y-19007091D01*
X6450119Y-18988044D01*
X6459643Y-18978520D01*
X6478690Y-18968996D01*
X6612024Y-18968996D02*
X6745357Y-18968996D01*
X6659643Y-19168996D01*
X6859643Y-18968996D02*
X6878690Y-18968996D01*
X6897738Y-18978520D01*
X6907262Y-18988044D01*
X6916786Y-19007091D01*
X6926309Y-19045187D01*
X6926309Y-19092806D01*
X6916786Y-19130901D01*
X6907262Y-19149949D01*
X6897738Y-19159472D01*
X6878690Y-19168996D01*
X6859643Y-19168996D01*
X6840595Y-19159472D01*
X6831071Y-19149949D01*
X6821548Y-19130901D01*
X6812024Y-19092806D01*
X6812024Y-19045187D01*
X6821548Y-19007091D01*
X6831071Y-18988044D01*
X6840595Y-18978520D01*
X6859643Y-18968996D01*
X7021548Y-19168996D02*
X7059643Y-19168996D01*
X7078690Y-19159472D01*
X7088214Y-19149949D01*
X7107262Y-19121377D01*
X7116786Y-19083282D01*
X7116786Y-19007091D01*
X7107262Y-18988044D01*
X7097738Y-18978520D01*
X7078690Y-18968996D01*
X7040595Y-18968996D01*
X7021548Y-18978520D01*
X7012024Y-18988044D01*
X7002500Y-19007091D01*
X7002500Y-19054710D01*
X7012024Y-19073758D01*
X7021548Y-19083282D01*
X7040595Y-19092806D01*
X7078690Y-19092806D01*
X7097738Y-19083282D01*
X7107262Y-19073758D01*
X7116786Y-19054710D01*
X7192976Y-18968996D02*
X7192976Y-19007091D01*
X7269167Y-18968996D02*
X7269167Y-19007091D01*
X7564405Y-19245187D02*
X7554881Y-19235663D01*
X7535833Y-19207091D01*
X7526309Y-19188044D01*
X7516786Y-19159472D01*
X7507262Y-19111853D01*
X7507262Y-19073758D01*
X7516786Y-19026139D01*
X7526309Y-18997568D01*
X7535833Y-18978520D01*
X7554881Y-18949949D01*
X7564405Y-18940425D01*
X7726309Y-19035663D02*
X7726309Y-19168996D01*
X7678690Y-18959472D02*
X7631071Y-19102330D01*
X7754881Y-19102330D01*
X7983452Y-19168996D02*
X7983452Y-18968996D01*
X8069167Y-19168996D02*
X8069167Y-19064234D01*
X8059643Y-19045187D01*
X8040595Y-19035663D01*
X8012024Y-19035663D01*
X7992976Y-19045187D01*
X7983452Y-19054710D01*
X8192976Y-19168996D02*
X8173928Y-19159472D01*
X8164405Y-19149949D01*
X8154881Y-19130901D01*
X8154881Y-19073758D01*
X8164405Y-19054710D01*
X8173928Y-19045187D01*
X8192976Y-19035663D01*
X8221548Y-19035663D01*
X8240595Y-19045187D01*
X8250119Y-19054710D01*
X8259643Y-19073758D01*
X8259643Y-19130901D01*
X8250119Y-19149949D01*
X8240595Y-19159472D01*
X8221548Y-19168996D01*
X8192976Y-19168996D01*
X8373928Y-19168996D02*
X8354881Y-19159472D01*
X8345357Y-19140425D01*
X8345357Y-18968996D01*
X8526310Y-19159472D02*
X8507262Y-19168996D01*
X8469167Y-19168996D01*
X8450119Y-19159472D01*
X8440595Y-19140425D01*
X8440595Y-19064234D01*
X8450119Y-19045187D01*
X8469167Y-19035663D01*
X8507262Y-19035663D01*
X8526310Y-19045187D01*
X8535833Y-19064234D01*
X8535833Y-19083282D01*
X8440595Y-19102330D01*
X8612024Y-19159472D02*
X8631071Y-19168996D01*
X8669167Y-19168996D01*
X8688214Y-19159472D01*
X8697738Y-19140425D01*
X8697738Y-19130901D01*
X8688214Y-19111853D01*
X8669167Y-19102330D01*
X8640595Y-19102330D01*
X8621548Y-19092806D01*
X8612024Y-19073758D01*
X8612024Y-19064234D01*
X8621548Y-19045187D01*
X8640595Y-19035663D01*
X8669167Y-19035663D01*
X8688214Y-19045187D01*
X8764405Y-19245187D02*
X8773929Y-19235663D01*
X8792976Y-19207091D01*
X8802500Y-19188044D01*
X8812024Y-19159472D01*
X8821548Y-19111853D01*
X8821548Y-19073758D01*
X8812024Y-19026139D01*
X8802500Y-18997568D01*
X8792976Y-18978520D01*
X8773929Y-18949949D01*
X8764405Y-18940425D01*
X3792500Y-19278520D02*
X3992500Y-19478520D01*
X3992500Y-19278520D02*
X3792500Y-19478520D01*
X3892500Y-19278520D02*
X3892500Y-19478520D01*
X3792500Y-19378520D02*
X3992500Y-19378520D01*
X3992500Y-19378520D02*
G75*
G03*
X3992500Y-19378520I-100000J0D01*
G01*
X4240595Y-19288044D02*
X4250119Y-19278520D01*
X4269167Y-19268996D01*
X4316786Y-19268996D01*
X4335833Y-19278520D01*
X4345357Y-19288044D01*
X4354881Y-19307091D01*
X4354881Y-19326139D01*
X4345357Y-19354710D01*
X4231071Y-19468996D01*
X4354881Y-19468996D01*
X4440595Y-19449949D02*
X4450119Y-19459472D01*
X4440595Y-19468996D01*
X4431071Y-19459472D01*
X4440595Y-19449949D01*
X4440595Y-19468996D01*
X4516786Y-19268996D02*
X4640595Y-19268996D01*
X4573929Y-19345187D01*
X4602500Y-19345187D01*
X4621548Y-19354710D01*
X4631071Y-19364234D01*
X4640595Y-19383282D01*
X4640595Y-19430901D01*
X4631071Y-19449949D01*
X4621548Y-19459472D01*
X4602500Y-19468996D01*
X4545357Y-19468996D01*
X4526310Y-19459472D01*
X4516786Y-19449949D01*
X4764405Y-19268996D02*
X4783452Y-19268996D01*
X4802500Y-19278520D01*
X4812024Y-19288044D01*
X4821548Y-19307091D01*
X4831071Y-19345187D01*
X4831071Y-19392806D01*
X4821548Y-19430901D01*
X4812024Y-19449949D01*
X4802500Y-19459472D01*
X4783452Y-19468996D01*
X4764405Y-19468996D01*
X4745357Y-19459472D01*
X4735833Y-19449949D01*
X4726310Y-19430901D01*
X4716786Y-19392806D01*
X4716786Y-19345187D01*
X4726310Y-19307091D01*
X4735833Y-19288044D01*
X4745357Y-19278520D01*
X4764405Y-19268996D01*
X4954881Y-19268996D02*
X4973929Y-19268996D01*
X4992976Y-19278520D01*
X5002500Y-19288044D01*
X5012024Y-19307091D01*
X5021548Y-19345187D01*
X5021548Y-19392806D01*
X5012024Y-19430901D01*
X5002500Y-19449949D01*
X4992976Y-19459472D01*
X4973929Y-19468996D01*
X4954881Y-19468996D01*
X4935833Y-19459472D01*
X4926310Y-19449949D01*
X4916786Y-19430901D01*
X4907262Y-19392806D01*
X4907262Y-19345187D01*
X4916786Y-19307091D01*
X4926310Y-19288044D01*
X4935833Y-19278520D01*
X4954881Y-19268996D01*
X5107262Y-19468996D02*
X5107262Y-19335663D01*
X5107262Y-19354710D02*
X5116786Y-19345187D01*
X5135833Y-19335663D01*
X5164405Y-19335663D01*
X5183452Y-19345187D01*
X5192976Y-19364234D01*
X5192976Y-19468996D01*
X5192976Y-19364234D02*
X5202500Y-19345187D01*
X5221548Y-19335663D01*
X5250119Y-19335663D01*
X5269167Y-19345187D01*
X5278690Y-19364234D01*
X5278690Y-19468996D01*
X5373929Y-19468996D02*
X5373929Y-19335663D01*
X5373929Y-19354710D02*
X5383452Y-19345187D01*
X5402500Y-19335663D01*
X5431071Y-19335663D01*
X5450119Y-19345187D01*
X5459643Y-19364234D01*
X5459643Y-19468996D01*
X5459643Y-19364234D02*
X5469167Y-19345187D01*
X5488214Y-19335663D01*
X5516786Y-19335663D01*
X5535833Y-19345187D01*
X5545357Y-19364234D01*
X5545357Y-19468996D01*
X5935833Y-19259472D02*
X5764405Y-19516615D01*
X6192976Y-19268996D02*
X6212024Y-19268996D01*
X6231071Y-19278520D01*
X6240595Y-19288044D01*
X6250119Y-19307091D01*
X6259643Y-19345187D01*
X6259643Y-19392806D01*
X6250119Y-19430901D01*
X6240595Y-19449949D01*
X6231071Y-19459472D01*
X6212024Y-19468996D01*
X6192976Y-19468996D01*
X6173928Y-19459472D01*
X6164405Y-19449949D01*
X6154881Y-19430901D01*
X6145357Y-19392806D01*
X6145357Y-19345187D01*
X6154881Y-19307091D01*
X6164405Y-19288044D01*
X6173928Y-19278520D01*
X6192976Y-19268996D01*
X6345357Y-19449949D02*
X6354881Y-19459472D01*
X6345357Y-19468996D01*
X6335833Y-19459472D01*
X6345357Y-19449949D01*
X6345357Y-19468996D01*
X6478690Y-19268996D02*
X6497738Y-19268996D01*
X6516786Y-19278520D01*
X6526309Y-19288044D01*
X6535833Y-19307091D01*
X6545357Y-19345187D01*
X6545357Y-19392806D01*
X6535833Y-19430901D01*
X6526309Y-19449949D01*
X6516786Y-19459472D01*
X6497738Y-19468996D01*
X6478690Y-19468996D01*
X6459643Y-19459472D01*
X6450119Y-19449949D01*
X6440595Y-19430901D01*
X6431071Y-19392806D01*
X6431071Y-19345187D01*
X6440595Y-19307091D01*
X6450119Y-19288044D01*
X6459643Y-19278520D01*
X6478690Y-19268996D01*
X6640595Y-19468996D02*
X6678690Y-19468996D01*
X6697738Y-19459472D01*
X6707262Y-19449949D01*
X6726309Y-19421377D01*
X6735833Y-19383282D01*
X6735833Y-19307091D01*
X6726309Y-19288044D01*
X6716786Y-19278520D01*
X6697738Y-19268996D01*
X6659643Y-19268996D01*
X6640595Y-19278520D01*
X6631071Y-19288044D01*
X6621548Y-19307091D01*
X6621548Y-19354710D01*
X6631071Y-19373758D01*
X6640595Y-19383282D01*
X6659643Y-19392806D01*
X6697738Y-19392806D01*
X6716786Y-19383282D01*
X6726309Y-19373758D01*
X6735833Y-19354710D01*
X6859643Y-19268996D02*
X6878690Y-19268996D01*
X6897738Y-19278520D01*
X6907262Y-19288044D01*
X6916786Y-19307091D01*
X6926309Y-19345187D01*
X6926309Y-19392806D01*
X6916786Y-19430901D01*
X6907262Y-19449949D01*
X6897738Y-19459472D01*
X6878690Y-19468996D01*
X6859643Y-19468996D01*
X6840595Y-19459472D01*
X6831071Y-19449949D01*
X6821548Y-19430901D01*
X6812024Y-19392806D01*
X6812024Y-19345187D01*
X6821548Y-19307091D01*
X6831071Y-19288044D01*
X6840595Y-19278520D01*
X6859643Y-19268996D01*
X7097738Y-19268996D02*
X7059643Y-19268996D01*
X7040595Y-19278520D01*
X7031071Y-19288044D01*
X7012024Y-19316615D01*
X7002500Y-19354710D01*
X7002500Y-19430901D01*
X7012024Y-19449949D01*
X7021548Y-19459472D01*
X7040595Y-19468996D01*
X7078690Y-19468996D01*
X7097738Y-19459472D01*
X7107262Y-19449949D01*
X7116786Y-19430901D01*
X7116786Y-19383282D01*
X7107262Y-19364234D01*
X7097738Y-19354710D01*
X7078690Y-19345187D01*
X7040595Y-19345187D01*
X7021548Y-19354710D01*
X7012024Y-19364234D01*
X7002500Y-19383282D01*
X7192976Y-19268996D02*
X7192976Y-19307091D01*
X7269167Y-19268996D02*
X7269167Y-19307091D01*
X7564405Y-19545187D02*
X7554881Y-19535663D01*
X7535833Y-19507091D01*
X7526309Y-19488044D01*
X7516786Y-19459472D01*
X7507262Y-19411853D01*
X7507262Y-19373758D01*
X7516786Y-19326139D01*
X7526309Y-19297568D01*
X7535833Y-19278520D01*
X7554881Y-19249949D01*
X7564405Y-19240425D01*
X7631071Y-19288044D02*
X7640595Y-19278520D01*
X7659643Y-19268996D01*
X7707262Y-19268996D01*
X7726309Y-19278520D01*
X7735833Y-19288044D01*
X7745357Y-19307091D01*
X7745357Y-19326139D01*
X7735833Y-19354710D01*
X7621548Y-19468996D01*
X7745357Y-19468996D01*
X7983452Y-19468996D02*
X7983452Y-19268996D01*
X8069167Y-19468996D02*
X8069167Y-19364234D01*
X8059643Y-19345187D01*
X8040595Y-19335663D01*
X8012024Y-19335663D01*
X7992976Y-19345187D01*
X7983452Y-19354710D01*
X8192976Y-19468996D02*
X8173928Y-19459472D01*
X8164405Y-19449949D01*
X8154881Y-19430901D01*
X8154881Y-19373758D01*
X8164405Y-19354710D01*
X8173928Y-19345187D01*
X8192976Y-19335663D01*
X8221548Y-19335663D01*
X8240595Y-19345187D01*
X8250119Y-19354710D01*
X8259643Y-19373758D01*
X8259643Y-19430901D01*
X8250119Y-19449949D01*
X8240595Y-19459472D01*
X8221548Y-19468996D01*
X8192976Y-19468996D01*
X8373928Y-19468996D02*
X8354881Y-19459472D01*
X8345357Y-19440425D01*
X8345357Y-19268996D01*
X8526310Y-19459472D02*
X8507262Y-19468996D01*
X8469167Y-19468996D01*
X8450119Y-19459472D01*
X8440595Y-19440425D01*
X8440595Y-19364234D01*
X8450119Y-19345187D01*
X8469167Y-19335663D01*
X8507262Y-19335663D01*
X8526310Y-19345187D01*
X8535833Y-19364234D01*
X8535833Y-19383282D01*
X8440595Y-19402330D01*
X8612024Y-19459472D02*
X8631071Y-19468996D01*
X8669167Y-19468996D01*
X8688214Y-19459472D01*
X8697738Y-19440425D01*
X8697738Y-19430901D01*
X8688214Y-19411853D01*
X8669167Y-19402330D01*
X8640595Y-19402330D01*
X8621548Y-19392806D01*
X8612024Y-19373758D01*
X8612024Y-19364234D01*
X8621548Y-19345187D01*
X8640595Y-19335663D01*
X8669167Y-19335663D01*
X8688214Y-19345187D01*
X8764405Y-19545187D02*
X8773929Y-19535663D01*
X8792976Y-19507091D01*
X8802500Y-19488044D01*
X8812024Y-19459472D01*
X8821548Y-19411853D01*
X8821548Y-19373758D01*
X8812024Y-19326139D01*
X8802500Y-19297568D01*
X8792976Y-19278520D01*
X8773929Y-19249949D01*
X8764405Y-19240425D01*
X3792500Y-19598520D02*
X3992500Y-19798520D01*
X3992500Y-19598520D02*
X3792500Y-19798520D01*
X3963211Y-19769231D02*
X3963211Y-19627809D01*
X3821789Y-19627809D01*
X3821789Y-19769231D01*
X3963211Y-19769231D01*
X3992500Y-19698520D02*
G75*
G03*
X3992500Y-19698520I-100000J0D01*
G01*
X4335833Y-19655663D02*
X4335833Y-19788996D01*
X4288214Y-19579472D02*
X4240595Y-19722330D01*
X4364405Y-19722330D01*
X4440595Y-19769949D02*
X4450119Y-19779472D01*
X4440595Y-19788996D01*
X4431071Y-19779472D01*
X4440595Y-19769949D01*
X4440595Y-19788996D01*
X4573929Y-19588996D02*
X4592976Y-19588996D01*
X4612024Y-19598520D01*
X4621548Y-19608044D01*
X4631071Y-19627091D01*
X4640595Y-19665187D01*
X4640595Y-19712806D01*
X4631071Y-19750901D01*
X4621548Y-19769949D01*
X4612024Y-19779472D01*
X4592976Y-19788996D01*
X4573929Y-19788996D01*
X4554881Y-19779472D01*
X4545357Y-19769949D01*
X4535833Y-19750901D01*
X4526310Y-19712806D01*
X4526310Y-19665187D01*
X4535833Y-19627091D01*
X4545357Y-19608044D01*
X4554881Y-19598520D01*
X4573929Y-19588996D01*
X4764405Y-19588996D02*
X4783452Y-19588996D01*
X4802500Y-19598520D01*
X4812024Y-19608044D01*
X4821548Y-19627091D01*
X4831071Y-19665187D01*
X4831071Y-19712806D01*
X4821548Y-19750901D01*
X4812024Y-19769949D01*
X4802500Y-19779472D01*
X4783452Y-19788996D01*
X4764405Y-19788996D01*
X4745357Y-19779472D01*
X4735833Y-19769949D01*
X4726310Y-19750901D01*
X4716786Y-19712806D01*
X4716786Y-19665187D01*
X4726310Y-19627091D01*
X4735833Y-19608044D01*
X4745357Y-19598520D01*
X4764405Y-19588996D01*
X4954881Y-19588996D02*
X4973929Y-19588996D01*
X4992976Y-19598520D01*
X5002500Y-19608044D01*
X5012024Y-19627091D01*
X5021548Y-19665187D01*
X5021548Y-19712806D01*
X5012024Y-19750901D01*
X5002500Y-19769949D01*
X4992976Y-19779472D01*
X4973929Y-19788996D01*
X4954881Y-19788996D01*
X4935833Y-19779472D01*
X4926310Y-19769949D01*
X4916786Y-19750901D01*
X4907262Y-19712806D01*
X4907262Y-19665187D01*
X4916786Y-19627091D01*
X4926310Y-19608044D01*
X4935833Y-19598520D01*
X4954881Y-19588996D01*
X5107262Y-19788996D02*
X5107262Y-19655663D01*
X5107262Y-19674710D02*
X5116786Y-19665187D01*
X5135833Y-19655663D01*
X5164405Y-19655663D01*
X5183452Y-19665187D01*
X5192976Y-19684234D01*
X5192976Y-19788996D01*
X5192976Y-19684234D02*
X5202500Y-19665187D01*
X5221548Y-19655663D01*
X5250119Y-19655663D01*
X5269167Y-19665187D01*
X5278690Y-19684234D01*
X5278690Y-19788996D01*
X5373929Y-19788996D02*
X5373929Y-19655663D01*
X5373929Y-19674710D02*
X5383452Y-19665187D01*
X5402500Y-19655663D01*
X5431071Y-19655663D01*
X5450119Y-19665187D01*
X5459643Y-19684234D01*
X5459643Y-19788996D01*
X5459643Y-19684234D02*
X5469167Y-19665187D01*
X5488214Y-19655663D01*
X5516786Y-19655663D01*
X5535833Y-19665187D01*
X5545357Y-19684234D01*
X5545357Y-19788996D01*
X5935833Y-19579472D02*
X5764405Y-19836615D01*
X6192976Y-19588996D02*
X6212024Y-19588996D01*
X6231071Y-19598520D01*
X6240595Y-19608044D01*
X6250119Y-19627091D01*
X6259643Y-19665187D01*
X6259643Y-19712806D01*
X6250119Y-19750901D01*
X6240595Y-19769949D01*
X6231071Y-19779472D01*
X6212024Y-19788996D01*
X6192976Y-19788996D01*
X6173928Y-19779472D01*
X6164405Y-19769949D01*
X6154881Y-19750901D01*
X6145357Y-19712806D01*
X6145357Y-19665187D01*
X6154881Y-19627091D01*
X6164405Y-19608044D01*
X6173928Y-19598520D01*
X6192976Y-19588996D01*
X6345357Y-19769949D02*
X6354881Y-19779472D01*
X6345357Y-19788996D01*
X6335833Y-19779472D01*
X6345357Y-19769949D01*
X6345357Y-19788996D01*
X6545357Y-19788996D02*
X6431071Y-19788996D01*
X6488214Y-19788996D02*
X6488214Y-19588996D01*
X6469167Y-19617568D01*
X6450119Y-19636615D01*
X6431071Y-19646139D01*
X6726309Y-19588996D02*
X6631071Y-19588996D01*
X6621548Y-19684234D01*
X6631071Y-19674710D01*
X6650119Y-19665187D01*
X6697738Y-19665187D01*
X6716786Y-19674710D01*
X6726309Y-19684234D01*
X6735833Y-19703282D01*
X6735833Y-19750901D01*
X6726309Y-19769949D01*
X6716786Y-19779472D01*
X6697738Y-19788996D01*
X6650119Y-19788996D01*
X6631071Y-19779472D01*
X6621548Y-19769949D01*
X6802500Y-19588996D02*
X6935833Y-19588996D01*
X6850119Y-19788996D01*
X7107262Y-19588996D02*
X7012024Y-19588996D01*
X7002500Y-19684234D01*
X7012024Y-19674710D01*
X7031071Y-19665187D01*
X7078690Y-19665187D01*
X7097738Y-19674710D01*
X7107262Y-19684234D01*
X7116786Y-19703282D01*
X7116786Y-19750901D01*
X7107262Y-19769949D01*
X7097738Y-19779472D01*
X7078690Y-19788996D01*
X7031071Y-19788996D01*
X7012024Y-19779472D01*
X7002500Y-19769949D01*
X7192976Y-19588996D02*
X7192976Y-19627091D01*
X7269167Y-19588996D02*
X7269167Y-19627091D01*
X7564405Y-19865187D02*
X7554881Y-19855663D01*
X7535833Y-19827091D01*
X7526309Y-19808044D01*
X7516786Y-19779472D01*
X7507262Y-19731853D01*
X7507262Y-19693758D01*
X7516786Y-19646139D01*
X7526309Y-19617568D01*
X7535833Y-19598520D01*
X7554881Y-19569949D01*
X7564405Y-19560425D01*
X7631071Y-19608044D02*
X7640595Y-19598520D01*
X7659643Y-19588996D01*
X7707262Y-19588996D01*
X7726309Y-19598520D01*
X7735833Y-19608044D01*
X7745357Y-19627091D01*
X7745357Y-19646139D01*
X7735833Y-19674710D01*
X7621548Y-19788996D01*
X7745357Y-19788996D01*
X7983452Y-19788996D02*
X7983452Y-19588996D01*
X8069167Y-19788996D02*
X8069167Y-19684234D01*
X8059643Y-19665187D01*
X8040595Y-19655663D01*
X8012024Y-19655663D01*
X7992976Y-19665187D01*
X7983452Y-19674710D01*
X8192976Y-19788996D02*
X8173928Y-19779472D01*
X8164405Y-19769949D01*
X8154881Y-19750901D01*
X8154881Y-19693758D01*
X8164405Y-19674710D01*
X8173928Y-19665187D01*
X8192976Y-19655663D01*
X8221548Y-19655663D01*
X8240595Y-19665187D01*
X8250119Y-19674710D01*
X8259643Y-19693758D01*
X8259643Y-19750901D01*
X8250119Y-19769949D01*
X8240595Y-19779472D01*
X8221548Y-19788996D01*
X8192976Y-19788996D01*
X8373928Y-19788996D02*
X8354881Y-19779472D01*
X8345357Y-19760425D01*
X8345357Y-19588996D01*
X8526310Y-19779472D02*
X8507262Y-19788996D01*
X8469167Y-19788996D01*
X8450119Y-19779472D01*
X8440595Y-19760425D01*
X8440595Y-19684234D01*
X8450119Y-19665187D01*
X8469167Y-19655663D01*
X8507262Y-19655663D01*
X8526310Y-19665187D01*
X8535833Y-19684234D01*
X8535833Y-19703282D01*
X8440595Y-19722330D01*
X8612024Y-19779472D02*
X8631071Y-19788996D01*
X8669167Y-19788996D01*
X8688214Y-19779472D01*
X8697738Y-19760425D01*
X8697738Y-19750901D01*
X8688214Y-19731853D01*
X8669167Y-19722330D01*
X8640595Y-19722330D01*
X8621548Y-19712806D01*
X8612024Y-19693758D01*
X8612024Y-19684234D01*
X8621548Y-19665187D01*
X8640595Y-19655663D01*
X8669167Y-19655663D01*
X8688214Y-19665187D01*
X8764405Y-19865187D02*
X8773929Y-19855663D01*
X8792976Y-19827091D01*
X8802500Y-19808044D01*
X8812024Y-19779472D01*
X8821548Y-19731853D01*
X8821548Y-19693758D01*
X8812024Y-19646139D01*
X8802500Y-19617568D01*
X8792976Y-19598520D01*
X8773929Y-19569949D01*
X8764405Y-19560425D01*
M02*
