G04 #@! TF.GenerationSoftware,KiCad,Pcbnew,6.0.2+dfsg-1*
G04 #@! TF.CreationDate,2022-12-10T00:49:58-08:00*
G04 #@! TF.ProjectId,cm4-robot,636d342d-726f-4626-9f74-2e6b69636164,rev?*
G04 #@! TF.SameCoordinates,Original*
G04 #@! TF.FileFunction,Paste,Top*
G04 #@! TF.FilePolarity,Positive*
%FSLAX46Y46*%
G04 Gerber Fmt 4.6, Leading zero omitted, Abs format (unit mm)*
G04 Created by KiCad (PCBNEW 6.0.2+dfsg-1) date 2022-12-10 00:49:58*
%MOMM*%
%LPD*%
G01*
G04 APERTURE LIST*
G04 Aperture macros list*
%AMRoundRect*
0 Rectangle with rounded corners*
0 $1 Rounding radius*
0 $2 $3 $4 $5 $6 $7 $8 $9 X,Y pos of 4 corners*
0 Add a 4 corners polygon primitive as box body*
4,1,4,$2,$3,$4,$5,$6,$7,$8,$9,$2,$3,0*
0 Add four circle primitives for the rounded corners*
1,1,$1+$1,$2,$3*
1,1,$1+$1,$4,$5*
1,1,$1+$1,$6,$7*
1,1,$1+$1,$8,$9*
0 Add four rect primitives between the rounded corners*
20,1,$1+$1,$2,$3,$4,$5,0*
20,1,$1+$1,$4,$5,$6,$7,0*
20,1,$1+$1,$6,$7,$8,$9,0*
20,1,$1+$1,$8,$9,$2,$3,0*%
G04 Aperture macros list end*
%ADD10R,0.650000X0.400000*%
%ADD11R,6.000000X3.500000*%
%ADD12R,1.400000X1.200000*%
%ADD13RoundRect,0.250000X1.075000X-0.375000X1.075000X0.375000X-1.075000X0.375000X-1.075000X-0.375000X0*%
%ADD14RoundRect,0.250000X-1.000000X1.750000X-1.000000X-1.750000X1.000000X-1.750000X1.000000X1.750000X0*%
%ADD15R,3.800000X2.000000*%
%ADD16R,2.500000X1.800000*%
%ADD17R,0.228600X0.711200*%
%ADD18R,1.500000X1.000000*%
%ADD19RoundRect,0.225000X-0.250000X0.225000X-0.250000X-0.225000X0.250000X-0.225000X0.250000X0.225000X0*%
%ADD20RoundRect,0.200000X-0.200000X-0.275000X0.200000X-0.275000X0.200000X0.275000X-0.200000X0.275000X0*%
%ADD21RoundRect,0.225000X0.250000X-0.225000X0.250000X0.225000X-0.250000X0.225000X-0.250000X-0.225000X0*%
%ADD22RoundRect,0.200000X0.200000X0.275000X-0.200000X0.275000X-0.200000X-0.275000X0.200000X-0.275000X0*%
%ADD23RoundRect,0.225000X-0.225000X-0.250000X0.225000X-0.250000X0.225000X0.250000X-0.225000X0.250000X0*%
%ADD24R,0.600000X1.300000*%
%ADD25R,1.200000X1.400000*%
%ADD26RoundRect,0.250000X1.000000X-1.750000X1.000000X1.750000X-1.000000X1.750000X-1.000000X-1.750000X0*%
%ADD27RoundRect,0.150000X-0.587500X-0.150000X0.587500X-0.150000X0.587500X0.150000X-0.587500X0.150000X0*%
%ADD28RoundRect,0.200000X-0.275000X0.200000X-0.275000X-0.200000X0.275000X-0.200000X0.275000X0.200000X0*%
%ADD29RoundRect,0.250000X0.375000X0.625000X-0.375000X0.625000X-0.375000X-0.625000X0.375000X-0.625000X0*%
%ADD30RoundRect,0.225000X0.225000X0.250000X-0.225000X0.250000X-0.225000X-0.250000X0.225000X-0.250000X0*%
%ADD31R,0.300000X2.600000*%
%ADD32R,0.600000X1.050000*%
%ADD33RoundRect,0.150000X0.150000X-0.875000X0.150000X0.875000X-0.150000X0.875000X-0.150000X-0.875000X0*%
%ADD34R,0.400000X0.650000*%
%ADD35RoundRect,0.250000X-0.250000X-0.475000X0.250000X-0.475000X0.250000X0.475000X-0.250000X0.475000X0*%
%ADD36R,4.550000X5.250000*%
%ADD37R,4.600000X1.100000*%
%ADD38RoundRect,0.150000X-0.150000X0.750000X-0.150000X-0.750000X0.150000X-0.750000X0.150000X0.750000X0*%
%ADD39RoundRect,0.200000X0.275000X-0.200000X0.275000X0.200000X-0.275000X0.200000X-0.275000X-0.200000X0*%
%ADD40RoundRect,0.243750X0.243750X0.456250X-0.243750X0.456250X-0.243750X-0.456250X0.243750X-0.456250X0*%
%ADD41R,1.200000X1.000000*%
%ADD42RoundRect,0.250000X0.250000X0.475000X-0.250000X0.475000X-0.250000X-0.475000X0.250000X-0.475000X0*%
%ADD43RoundRect,0.250000X0.550000X-1.500000X0.550000X1.500000X-0.550000X1.500000X-0.550000X-1.500000X0*%
%ADD44RoundRect,0.150000X0.150000X-0.587500X0.150000X0.587500X-0.150000X0.587500X-0.150000X-0.587500X0*%
%ADD45RoundRect,0.243750X0.456250X-0.243750X0.456250X0.243750X-0.456250X0.243750X-0.456250X-0.243750X0*%
%ADD46R,0.300000X1.150000*%
%ADD47RoundRect,0.100000X0.100000X-0.637500X0.100000X0.637500X-0.100000X0.637500X-0.100000X-0.637500X0*%
%ADD48R,1.358900X0.279400*%
%ADD49RoundRect,0.243750X-0.243750X-0.456250X0.243750X-0.456250X0.243750X0.456250X-0.243750X0.456250X0*%
%ADD50R,0.900000X1.200000*%
%ADD51RoundRect,0.150000X0.150000X-0.725000X0.150000X0.725000X-0.150000X0.725000X-0.150000X-0.725000X0*%
%ADD52R,0.200000X0.700000*%
%ADD53RoundRect,0.150000X-0.150000X0.512500X-0.150000X-0.512500X0.150000X-0.512500X0.150000X0.512500X0*%
G04 APERTURE END LIST*
D10*
X49950000Y-139000000D03*
X49950000Y-138350000D03*
X49950000Y-137700000D03*
X48050000Y-137700000D03*
X48050000Y-138350000D03*
X48050000Y-139000000D03*
D11*
X74430000Y-67197000D03*
X74430000Y-55197000D03*
D12*
X102115000Y-113269000D03*
X99915000Y-113269000D03*
X99915000Y-114969000D03*
X102115000Y-114969000D03*
D13*
X59762000Y-52608000D03*
X59762000Y-49808000D03*
D14*
X62099000Y-69208000D03*
X62099000Y-77208000D03*
D15*
X93250000Y-101750000D03*
D16*
X73746000Y-71756000D03*
X69746000Y-71756000D03*
D17*
X122950002Y-59500001D03*
X122950002Y-62579999D03*
X123350001Y-59500001D03*
X123350001Y-62579999D03*
X123750000Y-59500001D03*
X123750000Y-62579999D03*
X124150002Y-59500001D03*
X124150002Y-62579999D03*
X124550001Y-59500001D03*
X124550001Y-62579999D03*
X124950000Y-59500001D03*
X124950000Y-62579999D03*
X125350002Y-59500001D03*
X125350002Y-62579999D03*
X125750001Y-59500001D03*
X125750001Y-62579999D03*
X126150001Y-59500001D03*
X126150001Y-62579999D03*
X126550000Y-59500001D03*
X126550000Y-62579999D03*
X126950001Y-59500001D03*
X126950001Y-62579999D03*
X127350001Y-59500001D03*
X127350001Y-62579999D03*
X127750000Y-59500001D03*
X127750000Y-62579999D03*
X128150002Y-59500001D03*
X128150002Y-62579999D03*
X128550001Y-59500001D03*
X128550001Y-62579999D03*
X128950000Y-59500001D03*
X128950000Y-62579999D03*
X129350002Y-59500001D03*
X129350002Y-62579999D03*
X129750001Y-59500001D03*
X129750001Y-62579999D03*
X130150000Y-59500001D03*
X130150000Y-62579999D03*
X130549999Y-59500001D03*
X130549999Y-62579999D03*
X130950001Y-59500001D03*
X130950001Y-62579999D03*
X131350000Y-59500001D03*
X131350000Y-62579999D03*
X131749999Y-59500001D03*
X131749999Y-62579999D03*
X132150001Y-59500001D03*
X132150001Y-62579999D03*
X132550000Y-59500001D03*
X132550000Y-62579999D03*
X132950000Y-59500001D03*
X132950000Y-62579999D03*
X133350001Y-59500001D03*
X133350001Y-62579999D03*
X133750001Y-59500001D03*
X133750001Y-62579999D03*
X134150000Y-59500001D03*
X134150000Y-62579999D03*
X134549999Y-59500001D03*
X134549999Y-62579999D03*
X134950001Y-59500001D03*
X134950001Y-62579999D03*
X135350000Y-59500001D03*
X135350000Y-62579999D03*
X135749999Y-59500001D03*
X135749999Y-62579999D03*
X136150001Y-59500001D03*
X136150001Y-62579999D03*
X136550000Y-59500001D03*
X136550000Y-62579999D03*
X136949999Y-59500001D03*
X136949999Y-62579999D03*
X137349998Y-59500001D03*
X137349998Y-62579999D03*
X137750000Y-59500001D03*
X137750000Y-62579999D03*
X138149999Y-59500001D03*
X138149999Y-62579999D03*
X138549999Y-59500001D03*
X138549999Y-62579999D03*
X138950000Y-59500001D03*
X138950000Y-62579999D03*
X139349999Y-59500001D03*
X139349999Y-62579999D03*
X139749999Y-59500001D03*
X139749999Y-62579999D03*
X140150000Y-59500001D03*
X140150000Y-62579999D03*
X140550000Y-59500001D03*
X140550000Y-62579999D03*
X140949999Y-59500001D03*
X140949999Y-62579999D03*
X141349998Y-59500001D03*
X141349998Y-62579999D03*
X141750000Y-59500001D03*
X141750000Y-62579999D03*
X142149999Y-59500001D03*
X142149999Y-62579999D03*
X142549998Y-59500001D03*
X142549998Y-62579999D03*
D18*
X71950000Y-135750000D03*
X71950000Y-132550000D03*
X67050000Y-132550000D03*
X67050000Y-135750000D03*
D19*
X136250000Y-124475000D03*
X136250000Y-126025000D03*
D20*
X93206000Y-91223000D03*
X94856000Y-91223000D03*
D21*
X110066000Y-116220000D03*
X110066000Y-114670000D03*
D22*
X111697000Y-48203000D03*
X110047000Y-48203000D03*
D23*
X88787000Y-61334000D03*
X90337000Y-61334000D03*
D24*
X144282000Y-139145000D03*
X146182000Y-139145000D03*
X145232000Y-137045000D03*
D12*
X114552000Y-113521000D03*
X112352000Y-113521000D03*
X112352000Y-115221000D03*
X114552000Y-115221000D03*
D19*
X136353000Y-129269000D03*
X136353000Y-130819000D03*
D10*
X93111000Y-82409000D03*
X93111000Y-83059000D03*
X93111000Y-83709000D03*
X95011000Y-83709000D03*
X95011000Y-82409000D03*
D25*
X140800000Y-126481000D03*
X140800000Y-124281000D03*
X139100000Y-124281000D03*
X139100000Y-126481000D03*
D22*
X115595000Y-120570000D03*
X113945000Y-120570000D03*
D21*
X105533000Y-113505000D03*
X105533000Y-111955000D03*
D26*
X70656000Y-50888000D03*
X70656000Y-42888000D03*
D22*
X112233000Y-56726000D03*
X110583000Y-56726000D03*
D27*
X60613500Y-97399000D03*
X60613500Y-99299000D03*
X62488500Y-98349000D03*
D28*
X144100000Y-140735000D03*
X144100000Y-142385000D03*
D29*
X151151000Y-55145000D03*
X148351000Y-55145000D03*
D30*
X55835600Y-44626600D03*
X54285600Y-44626600D03*
D23*
X126519000Y-109512000D03*
X128069000Y-109512000D03*
D18*
X63650000Y-144250000D03*
X63650000Y-141050000D03*
X58750000Y-141050000D03*
X58750000Y-144250000D03*
D28*
X122865000Y-116285000D03*
X122865000Y-117935000D03*
D23*
X148727000Y-52742000D03*
X150277000Y-52742000D03*
D24*
X129795000Y-139268000D03*
X131695000Y-139268000D03*
X130745000Y-137168000D03*
D27*
X60613500Y-101223000D03*
X60613500Y-103123000D03*
X62488500Y-102173000D03*
D18*
X47550000Y-135750000D03*
X47550000Y-132550000D03*
X42650000Y-132550000D03*
X42650000Y-135750000D03*
D31*
X136460000Y-48849000D03*
X136960000Y-48849000D03*
X137460000Y-48849000D03*
X137960000Y-48849000D03*
X138460000Y-48849000D03*
X138960000Y-48849000D03*
X139460000Y-48849000D03*
X139960000Y-48849000D03*
X140460000Y-48849000D03*
X140960000Y-48849000D03*
X141460000Y-48849000D03*
X141960000Y-48849000D03*
X142460000Y-48849000D03*
X142960000Y-48849000D03*
X143460000Y-48849000D03*
X143960000Y-48849000D03*
X144460000Y-48849000D03*
X144960000Y-48849000D03*
X145460000Y-48849000D03*
D32*
X57067000Y-50192000D03*
X56117000Y-50192000D03*
X55167000Y-50192000D03*
X55167000Y-52892000D03*
X57067000Y-52892000D03*
D20*
X57074000Y-101234000D03*
X58724000Y-101234000D03*
D10*
X93153000Y-88117000D03*
X93153000Y-88767000D03*
X93153000Y-89417000D03*
X95053000Y-89417000D03*
X95053000Y-88117000D03*
D20*
X61900000Y-95400000D03*
X63550000Y-95400000D03*
D22*
X113579000Y-127582000D03*
X111929000Y-127582000D03*
D30*
X72175000Y-137800000D03*
X70625000Y-137800000D03*
D19*
X116412000Y-113453000D03*
X116412000Y-115003000D03*
D28*
X97824000Y-111252000D03*
X97824000Y-112902000D03*
D33*
X130209000Y-121401000D03*
X131479000Y-121401000D03*
X132749000Y-121401000D03*
X134019000Y-121401000D03*
X135289000Y-121401000D03*
X136559000Y-121401000D03*
X137829000Y-121401000D03*
X139099000Y-121401000D03*
X140369000Y-121401000D03*
X140369000Y-112101000D03*
X139099000Y-112101000D03*
X137829000Y-112101000D03*
X136559000Y-112101000D03*
X135289000Y-112101000D03*
X134019000Y-112101000D03*
X132749000Y-112101000D03*
X131479000Y-112101000D03*
X130209000Y-112101000D03*
D23*
X57628000Y-44635800D03*
X59178000Y-44635800D03*
D19*
X150872000Y-133816000D03*
X150872000Y-135366000D03*
D30*
X140360000Y-128794000D03*
X138810000Y-128794000D03*
D28*
X124955000Y-116285000D03*
X124955000Y-117935000D03*
D21*
X97846000Y-116092000D03*
X97846000Y-114542000D03*
D22*
X94475000Y-94489000D03*
X92825000Y-94489000D03*
X60475000Y-95410000D03*
X58825000Y-95410000D03*
D34*
X126186000Y-112624000D03*
X125536000Y-112624000D03*
X124886000Y-112624000D03*
X124886000Y-114524000D03*
X126186000Y-114524000D03*
D25*
X155119000Y-126651000D03*
X155119000Y-124451000D03*
X153419000Y-124451000D03*
X153419000Y-126651000D03*
D35*
X140550000Y-99250000D03*
X142450000Y-99250000D03*
D36*
X52206000Y-57921000D03*
X52206000Y-63471000D03*
X57056000Y-63471000D03*
X57056000Y-57921000D03*
D37*
X63781000Y-64096000D03*
X63781000Y-62396000D03*
X63781000Y-60696000D03*
X63781000Y-58996000D03*
X63781000Y-57296000D03*
D34*
X122909000Y-112629000D03*
X122259000Y-112629000D03*
X121609000Y-112629000D03*
X121609000Y-114529000D03*
X122909000Y-114529000D03*
D38*
X148292000Y-124297000D03*
X147022000Y-124297000D03*
X145752000Y-124297000D03*
X144482000Y-124297000D03*
X144482000Y-134947000D03*
X145752000Y-134947000D03*
X147022000Y-134947000D03*
X148292000Y-134947000D03*
D28*
X106282000Y-48501000D03*
X106282000Y-50151000D03*
D22*
X145764000Y-109512000D03*
X144114000Y-109512000D03*
D10*
X113925000Y-122370000D03*
X113925000Y-123020000D03*
X113925000Y-123670000D03*
X115825000Y-123670000D03*
X115825000Y-122370000D03*
D39*
X117690000Y-120110000D03*
X117690000Y-118460000D03*
D40*
X46937500Y-99750000D03*
X45062500Y-99750000D03*
D20*
X57074000Y-105039000D03*
X58724000Y-105039000D03*
X53836000Y-46602000D03*
X55486000Y-46602000D03*
D28*
X129800000Y-141025000D03*
X129800000Y-142675000D03*
D14*
X50800000Y-69191000D03*
X50800000Y-77191000D03*
D41*
X43124000Y-106171000D03*
X50524000Y-106171000D03*
D18*
X71750000Y-144250000D03*
X71750000Y-141050000D03*
X66850000Y-141050000D03*
X66850000Y-144250000D03*
D39*
X119450000Y-120085000D03*
X119450000Y-118435000D03*
D20*
X110573000Y-55148000D03*
X112223000Y-55148000D03*
X86309000Y-70403000D03*
X87959000Y-70403000D03*
D42*
X138950000Y-99250000D03*
X137050000Y-99250000D03*
D43*
X108575000Y-124438000D03*
X108575000Y-119038000D03*
D44*
X104036000Y-55389500D03*
X105936000Y-55389500D03*
X104986000Y-53514500D03*
D19*
X150745000Y-129019000D03*
X150745000Y-130569000D03*
D20*
X85971000Y-63672000D03*
X87621000Y-63672000D03*
X57147000Y-97427000D03*
X58797000Y-97427000D03*
D19*
X150750000Y-124215000D03*
X150750000Y-125765000D03*
D20*
X98397000Y-61618000D03*
X100047000Y-61618000D03*
D21*
X108331000Y-55847000D03*
X108331000Y-54297000D03*
D45*
X121600000Y-121437500D03*
X121600000Y-119562500D03*
D22*
X94750000Y-85540000D03*
X93100000Y-85540000D03*
X55805000Y-48334000D03*
X54155000Y-48334000D03*
D40*
X46937500Y-96750000D03*
X45062500Y-96750000D03*
D22*
X104839000Y-101267000D03*
X103189000Y-101267000D03*
D28*
X110022000Y-111502000D03*
X110022000Y-113152000D03*
D46*
X111520000Y-46018000D03*
X110720000Y-46018000D03*
X109420000Y-46018000D03*
X108420000Y-46018000D03*
X107920000Y-46018000D03*
X106920000Y-46018000D03*
X105620000Y-46018000D03*
X104820000Y-46018000D03*
X105120000Y-46018000D03*
X105920000Y-46018000D03*
X106420000Y-46018000D03*
X107420000Y-46018000D03*
X108920000Y-46018000D03*
X109920000Y-46018000D03*
X110420000Y-46018000D03*
X111220000Y-46018000D03*
D27*
X60613500Y-105041000D03*
X60613500Y-106941000D03*
X62488500Y-105991000D03*
D21*
X53071000Y-53000000D03*
X53071000Y-51450000D03*
D33*
X144682000Y-121397000D03*
X145952000Y-121397000D03*
X147222000Y-121397000D03*
X148492000Y-121397000D03*
X149762000Y-121397000D03*
X151032000Y-121397000D03*
X152302000Y-121397000D03*
X153572000Y-121397000D03*
X154842000Y-121397000D03*
X154842000Y-112097000D03*
X153572000Y-112097000D03*
X152302000Y-112097000D03*
X151032000Y-112097000D03*
X149762000Y-112097000D03*
X148492000Y-112097000D03*
X147222000Y-112097000D03*
X145952000Y-112097000D03*
X144682000Y-112097000D03*
D18*
X55650000Y-135750000D03*
X55650000Y-132550000D03*
X50750000Y-132550000D03*
X50750000Y-135750000D03*
X63750000Y-135750000D03*
X63750000Y-132550000D03*
X58850000Y-132550000D03*
X58850000Y-135750000D03*
D38*
X133771000Y-124424000D03*
X132501000Y-124424000D03*
X131231000Y-124424000D03*
X129961000Y-124424000D03*
X129961000Y-135074000D03*
X131231000Y-135074000D03*
X132501000Y-135074000D03*
X133771000Y-135074000D03*
D18*
X55550000Y-144250000D03*
X55550000Y-141050000D03*
X50650000Y-141050000D03*
X50650000Y-144250000D03*
D30*
X154731000Y-128927000D03*
X153181000Y-128927000D03*
D19*
X135997000Y-134089000D03*
X135997000Y-135639000D03*
D22*
X131240000Y-109512000D03*
X129590000Y-109512000D03*
D47*
X96775000Y-109362500D03*
X97425000Y-109362500D03*
X98075000Y-109362500D03*
X98725000Y-109362500D03*
X99375000Y-109362500D03*
X100025000Y-109362500D03*
X100675000Y-109362500D03*
X101325000Y-109362500D03*
X101975000Y-109362500D03*
X102625000Y-109362500D03*
X103275000Y-109362500D03*
X103925000Y-109362500D03*
X104575000Y-109362500D03*
X105225000Y-109362500D03*
X105225000Y-103637500D03*
X104575000Y-103637500D03*
X103925000Y-103637500D03*
X103275000Y-103637500D03*
X102625000Y-103637500D03*
X101975000Y-103637500D03*
X101325000Y-103637500D03*
X100675000Y-103637500D03*
X100025000Y-103637500D03*
X99375000Y-103637500D03*
X98725000Y-103637500D03*
X98075000Y-103637500D03*
X97425000Y-103637500D03*
X96775000Y-103637500D03*
D23*
X140814000Y-109512000D03*
X142364000Y-109512000D03*
D17*
X122950002Y-93420001D03*
X122950002Y-96499999D03*
X123350001Y-93420001D03*
X123350001Y-96499999D03*
X123750000Y-93420001D03*
X123750000Y-96499999D03*
X124150002Y-93420001D03*
X124150002Y-96499999D03*
X124550001Y-93420001D03*
X124550001Y-96499999D03*
X124950000Y-93420001D03*
X124950000Y-96499999D03*
X125350002Y-93420001D03*
X125350002Y-96499999D03*
X125750001Y-93420001D03*
X125750001Y-96499999D03*
X126150001Y-93420001D03*
X126150001Y-96499999D03*
X126550000Y-93420001D03*
X126550000Y-96499999D03*
X126950001Y-93420001D03*
X126950001Y-96499999D03*
X127350001Y-93420001D03*
X127350001Y-96499999D03*
X127750000Y-93420001D03*
X127750000Y-96499999D03*
X128150002Y-93420001D03*
X128150002Y-96499999D03*
X128550001Y-93420001D03*
X128550001Y-96499999D03*
X128950000Y-93420001D03*
X128950000Y-96499999D03*
X129350002Y-93420001D03*
X129350002Y-96499999D03*
X129750001Y-93420001D03*
X129750001Y-96499999D03*
X130150000Y-93420001D03*
X130150000Y-96499999D03*
X130549999Y-93420001D03*
X130549999Y-96499999D03*
X130950001Y-93420001D03*
X130950001Y-96499999D03*
X131350000Y-93420001D03*
X131350000Y-96499999D03*
X131749999Y-93420001D03*
X131749999Y-96499999D03*
X132150001Y-93420001D03*
X132150001Y-96499999D03*
X132550000Y-93420001D03*
X132550000Y-96499999D03*
X132950000Y-93420001D03*
X132950000Y-96499999D03*
X133350001Y-93420001D03*
X133350001Y-96499999D03*
X133750001Y-93420001D03*
X133750001Y-96499999D03*
X134150000Y-93420001D03*
X134150000Y-96499999D03*
X134549999Y-93420001D03*
X134549999Y-96499999D03*
X134950001Y-93420001D03*
X134950001Y-96499999D03*
X135350000Y-93420001D03*
X135350000Y-96499999D03*
X135749999Y-93420001D03*
X135749999Y-96499999D03*
X136150001Y-93420001D03*
X136150001Y-96499999D03*
X136550000Y-93420001D03*
X136550000Y-96499999D03*
X136949999Y-93420001D03*
X136949999Y-96499999D03*
X137349998Y-93420001D03*
X137349998Y-96499999D03*
X137750000Y-93420001D03*
X137750000Y-96499999D03*
X138149999Y-93420001D03*
X138149999Y-96499999D03*
X138549999Y-93420001D03*
X138549999Y-96499999D03*
X138950000Y-93420001D03*
X138950000Y-96499999D03*
X139349999Y-93420001D03*
X139349999Y-96499999D03*
X139749999Y-93420001D03*
X139749999Y-96499999D03*
X140150000Y-93420001D03*
X140150000Y-96499999D03*
X140550000Y-93420001D03*
X140550000Y-96499999D03*
X140949999Y-93420001D03*
X140949999Y-96499999D03*
X141349998Y-93420001D03*
X141349998Y-96499999D03*
X141750000Y-93420001D03*
X141750000Y-96499999D03*
X142149999Y-93420001D03*
X142149999Y-96499999D03*
X142549998Y-93420001D03*
X142549998Y-96499999D03*
D48*
X112848550Y-52262001D03*
X112848550Y-51761999D03*
X112848550Y-51262000D03*
X112848550Y-50762001D03*
X112848550Y-50261999D03*
X108441650Y-50261999D03*
X108441650Y-50762001D03*
X108441650Y-51262000D03*
X108441650Y-51761999D03*
X108441650Y-52262001D03*
D22*
X94709000Y-70369000D03*
X93059000Y-70369000D03*
D21*
X118031000Y-114141000D03*
X118031000Y-112591000D03*
D49*
X115757500Y-127597000D03*
X117632500Y-127597000D03*
D50*
X57398000Y-46713200D03*
X60698000Y-46713200D03*
D51*
X95187000Y-125753000D03*
X96457000Y-125753000D03*
X97727000Y-125753000D03*
X98997000Y-125753000D03*
X100267000Y-125753000D03*
X101537000Y-125753000D03*
X102807000Y-125753000D03*
X104077000Y-125753000D03*
X104077000Y-120603000D03*
X102807000Y-120603000D03*
X101537000Y-120603000D03*
X100267000Y-120603000D03*
X98997000Y-120603000D03*
X97727000Y-120603000D03*
X96457000Y-120603000D03*
X95187000Y-120603000D03*
D22*
X117627000Y-101083000D03*
X115977000Y-101083000D03*
D47*
X109775000Y-109362500D03*
X110425000Y-109362500D03*
X111075000Y-109362500D03*
X111725000Y-109362500D03*
X112375000Y-109362500D03*
X113025000Y-109362500D03*
X113675000Y-109362500D03*
X114325000Y-109362500D03*
X114975000Y-109362500D03*
X115625000Y-109362500D03*
X116275000Y-109362500D03*
X116925000Y-109362500D03*
X117575000Y-109362500D03*
X118225000Y-109362500D03*
X118225000Y-103637500D03*
X117575000Y-103637500D03*
X116925000Y-103637500D03*
X116275000Y-103637500D03*
X115625000Y-103637500D03*
X114975000Y-103637500D03*
X114325000Y-103637500D03*
X113675000Y-103637500D03*
X113025000Y-103637500D03*
X112375000Y-103637500D03*
X111725000Y-103637500D03*
X111075000Y-103637500D03*
X110425000Y-103637500D03*
X109775000Y-103637500D03*
D19*
X103943000Y-113394000D03*
X103943000Y-114944000D03*
D45*
X126338000Y-121478500D03*
X126338000Y-119603500D03*
D52*
X122950000Y-96500000D03*
X122950000Y-93420000D03*
X123350000Y-96500000D03*
X123350000Y-93420000D03*
X123750000Y-96500000D03*
X123750000Y-93420000D03*
X124150000Y-96500000D03*
X124150000Y-93420000D03*
X124550000Y-96500000D03*
X124550000Y-93420000D03*
X124950000Y-96500000D03*
X124950000Y-93420000D03*
X125350000Y-96500000D03*
X125350000Y-93420000D03*
X125750000Y-96500000D03*
X125750000Y-93420000D03*
X126150000Y-96500000D03*
X126150000Y-93420000D03*
X126550000Y-96500000D03*
X126550000Y-93420000D03*
X126950000Y-96500000D03*
X126950000Y-93420000D03*
X127350000Y-96500000D03*
X127350000Y-93420000D03*
X127750000Y-96500000D03*
X127750000Y-93420000D03*
X128150000Y-96500000D03*
X128150000Y-93420000D03*
X128550000Y-96500000D03*
X128550000Y-93420000D03*
X128950000Y-96500000D03*
X128950000Y-93420000D03*
X129350000Y-96500000D03*
X129350000Y-93420000D03*
X129750000Y-96500000D03*
X129750000Y-93420000D03*
X130150000Y-96500000D03*
X130150000Y-93420000D03*
X130550000Y-96500000D03*
X130550000Y-93420000D03*
X130950000Y-96500000D03*
X130950000Y-93420000D03*
X131350000Y-96500000D03*
X131350000Y-93420000D03*
X131750000Y-96500000D03*
X131750000Y-93420000D03*
X132150000Y-96500000D03*
X132150000Y-93420000D03*
X132550000Y-96500000D03*
X132550000Y-93420000D03*
X132950000Y-96500000D03*
X132950000Y-93420000D03*
X133350000Y-96500000D03*
X133350000Y-93420000D03*
X133750000Y-96500000D03*
X133750000Y-93420000D03*
X134150000Y-96500000D03*
X134150000Y-93420000D03*
X134550000Y-96500000D03*
X134550000Y-93420000D03*
X134950000Y-96500000D03*
X134950000Y-93420000D03*
X135350000Y-96500000D03*
X135350000Y-93420000D03*
X135750000Y-96500000D03*
X135750000Y-93420000D03*
X136150000Y-96500000D03*
X136150000Y-93420000D03*
X136550000Y-96500000D03*
X136550000Y-93420000D03*
X136950000Y-96500000D03*
X136950000Y-93420000D03*
X137350000Y-96500000D03*
X137350000Y-93420000D03*
X137750000Y-96500000D03*
X137750000Y-93420000D03*
X138150000Y-96500000D03*
X138150000Y-93420000D03*
X138550000Y-96500000D03*
X138550000Y-93420000D03*
X138950000Y-96500000D03*
X138950000Y-93420000D03*
X139350000Y-96500000D03*
X139350000Y-93420000D03*
X139750000Y-96500000D03*
X139750000Y-93420000D03*
X140150000Y-96500000D03*
X140150000Y-93420000D03*
X140550000Y-96500000D03*
X140550000Y-93420000D03*
X140950000Y-96500000D03*
X140950000Y-93420000D03*
X141350000Y-96500000D03*
X141350000Y-93420000D03*
X141750000Y-96500000D03*
X141750000Y-93420000D03*
X142150000Y-96500000D03*
X142150000Y-93420000D03*
X142550000Y-96500000D03*
X142550000Y-93420000D03*
X122950000Y-62580000D03*
X122950000Y-59500000D03*
X123350000Y-62580000D03*
X123350000Y-59500000D03*
X123750000Y-62580000D03*
X123750000Y-59500000D03*
X124150000Y-62580000D03*
X124150000Y-59500000D03*
X124550000Y-62580000D03*
X124550000Y-59500000D03*
X124950000Y-62580000D03*
X124950000Y-59500000D03*
X125350000Y-62580000D03*
X125350000Y-59500000D03*
X125750000Y-62580000D03*
X125750000Y-59500000D03*
X126150000Y-62580000D03*
X126150000Y-59500000D03*
X126550000Y-62580000D03*
X126550000Y-59500000D03*
X126950000Y-62580000D03*
X126950000Y-59500000D03*
X127350000Y-62580000D03*
X127350000Y-59500000D03*
X127750000Y-62580000D03*
X127750000Y-59500000D03*
X128150000Y-62580000D03*
X128150000Y-59500000D03*
X128550000Y-62580000D03*
X128550000Y-59500000D03*
X128950000Y-62580000D03*
X128950000Y-59500000D03*
X129350000Y-62580000D03*
X129350000Y-59500000D03*
X129750000Y-62580000D03*
X129750000Y-59500000D03*
X130150000Y-62580000D03*
X130150000Y-59500000D03*
X130550000Y-62580000D03*
X130550000Y-59500000D03*
X130950000Y-62580000D03*
X130950000Y-59500000D03*
X131350000Y-62580000D03*
X131350000Y-59500000D03*
X131750000Y-62580000D03*
X131750000Y-59500000D03*
X132150000Y-62580000D03*
X132150000Y-59500000D03*
X132550000Y-62580000D03*
X132550000Y-59500000D03*
X132950000Y-62580000D03*
X132950000Y-59500000D03*
X133350000Y-62580000D03*
X133350000Y-59500000D03*
X133750000Y-62580000D03*
X133750000Y-59500000D03*
X134150000Y-62580000D03*
X134150000Y-59500000D03*
X134550000Y-62580000D03*
X134550000Y-59500000D03*
X134950000Y-62580000D03*
X134950000Y-59500000D03*
X135350000Y-62580000D03*
X135350000Y-59500000D03*
X135750000Y-62580000D03*
X135750000Y-59500000D03*
X136150000Y-62580000D03*
X136150000Y-59500000D03*
X136550000Y-62580000D03*
X136550000Y-59500000D03*
X136950000Y-62580000D03*
X136950000Y-59500000D03*
X137350000Y-62580000D03*
X137350000Y-59500000D03*
X137750000Y-62580000D03*
X137750000Y-59500000D03*
X138150000Y-62580000D03*
X138150000Y-59500000D03*
X138550000Y-62580000D03*
X138550000Y-59500000D03*
X138950000Y-62580000D03*
X138950000Y-59500000D03*
X139350000Y-62580000D03*
X139350000Y-59500000D03*
X139750000Y-62580000D03*
X139750000Y-59500000D03*
X140150000Y-62580000D03*
X140150000Y-59500000D03*
X140550000Y-62580000D03*
X140550000Y-59500000D03*
X140950000Y-62580000D03*
X140950000Y-59500000D03*
X141350000Y-62580000D03*
X141350000Y-59500000D03*
X141750000Y-62580000D03*
X141750000Y-59500000D03*
X142150000Y-62580000D03*
X142150000Y-59500000D03*
X142550000Y-62580000D03*
X142550000Y-59500000D03*
D23*
X102610000Y-118548000D03*
X104160000Y-118548000D03*
D53*
X104366000Y-48702500D03*
X103416000Y-48702500D03*
X102466000Y-48702500D03*
X102466000Y-50977500D03*
X103416000Y-50977500D03*
X104366000Y-50977500D03*
D44*
X89510000Y-72485500D03*
X91410000Y-72485500D03*
X90460000Y-70610500D03*
D34*
X96038000Y-62235000D03*
X95388000Y-62235000D03*
X94738000Y-62235000D03*
X94738000Y-64135000D03*
X95388000Y-64135000D03*
X96038000Y-64135000D03*
D15*
X93990000Y-97579000D03*
D40*
X46937500Y-102750000D03*
X45062500Y-102750000D03*
M02*
