M48
; DRILL file {KiCad 6.0.2+dfsg-1} date Wed 23 Nov 2022 08:56:27 PM PST
; FORMAT={-:-/ absolute / metric / decimal}
; #@! TF.CreationDate,2022-11-23T20:56:27-08:00
; #@! TF.GenerationSoftware,Kicad,Pcbnew,6.0.2+dfsg-1
; #@! TF.FileFunction,Plated,1,4,PTH
FMAT,2
METRIC
; #@! TA.AperFunction,Plated,PTH,ViaDrill
T1C0.250
; #@! TA.AperFunction,Plated,PTH,ViaDrill
T2C0.400
; #@! TA.AperFunction,Plated,PTH,ViaDrill
T3C0.500
; #@! TA.AperFunction,Plated,PTH,ViaDrill
T4C0.600
; #@! TA.AperFunction,Plated,PTH,ComponentDrill
T5C0.600
; #@! TA.AperFunction,Plated,PTH,ViaDrill
T6C0.800
; #@! TA.AperFunction,Plated,PTH,ComponentDrill
T7C0.890
; #@! TA.AperFunction,Plated,PTH,ComponentDrill
T8C0.900
; #@! TA.AperFunction,Plated,PTH,ComponentDrill
T9C0.920
; #@! TA.AperFunction,Plated,PTH,ComponentDrill
T10C1.000
; #@! TA.AperFunction,Plated,PTH,ComponentDrill
T11C1.020
; #@! TA.AperFunction,Plated,PTH,ComponentDrill
T12C1.190
; #@! TA.AperFunction,Plated,PTH,ComponentDrill
T13C1.600
; #@! TA.AperFunction,Plated,PTH,ComponentDrill
T14C1.630
; #@! TA.AperFunction,Plated,PTH,ComponentDrill
T15C2.300
; #@! TA.AperFunction,Plated,PTH,ComponentDrill
T16C4.000
%
G90
G05
T1
X48.25Y-95.75
X49.5Y-98.5
X51.25Y-97.0
X55.0Y-97.25
X55.75Y-96.75
X56.9Y-96.25
X62.0Y-150.5
X70.2Y-151.1
X74.25Y-79.75
X77.5Y-153.25
X79.5Y-154.0
X82.0Y-151.75
X87.0Y-73.5
X91.0Y-66.75
X91.75Y-63.5
X91.75Y-69.5
X92.0Y-62.25
X92.0Y-73.5
X92.0Y-95.0
X92.3Y-78.6
X92.75Y-81.75
X93.25Y-66.75
X93.75Y-65.5
X93.75Y-83.0
X93.75Y-151.75
X94.5Y-62.5
X95.25Y-62.0
X96.25Y-67.25
X97.25Y-63.75
X99.0Y-105.5
X99.6Y-92.0
X100.0Y-63.5
X100.0Y-105.5
X101.25Y-151.5
X101.7Y-90.2
X102.0Y-82.0
X102.25Y-74.75
X108.1Y-44.6
X108.2Y-49.6
X108.5Y-107.25
X108.75Y-109.75
X108.75Y-110.5
X108.775Y-108.087
X109.3Y-44.6
X110.553Y-50.647
X111.1Y-49.9
X114.2Y-50.8
X114.2Y-52.4
X114.6Y-54.6
X114.753Y-56.6
X115.25Y-76.25
X115.4Y-56.0
X116.0Y-77.5
X116.75Y-80.75
X116.9Y-107.2
X116.9Y-110.9
X117.0Y-108.0
X117.0Y-152.0
X118.5Y-79.0
X118.5Y-150.75
X118.75Y-101.25
X119.5Y-104.25
X120.0Y-107.5
X120.5Y-100.75
X120.75Y-104.0
X121.25Y-101.25
X121.5Y-74.75
X122.25Y-96.5
X122.5Y-92.75
X122.5Y-107.75
X123.25Y-92.25
X123.5Y-97.5
X124.0Y-58.25
X124.25Y-63.5
X124.25Y-95.75
X125.0Y-91.25
X125.0Y-94.25
X125.0Y-95.75
X125.0Y-97.5
X125.25Y-58.25
X125.5Y-63.5
X125.5Y-80.5
X125.9Y-100.7
X126.1Y-99.6
X126.2Y-92.4
X126.5Y-58.25
X126.5Y-63.5
X126.5Y-101.5
X126.7Y-91.7
X126.8Y-105.5
X127.25Y-101.0
X127.6Y-92.5
X127.75Y-58.25
X127.75Y-63.5
X127.9Y-91.1
X128.25Y-101.25
X128.5Y-94.25
X128.75Y-92.5
X128.75Y-99.25
X128.75Y-100.0
X129.0Y-58.25
X129.0Y-63.5
X129.25Y-86.25
X129.25Y-87.0
X129.4Y-98.6
X129.5Y-85.0
X129.6Y-95.0
X130.0Y-63.5
X130.0Y-89.5
X130.25Y-58.25
X130.4Y-95.0
X130.5Y-152.0
X130.7Y-92.0
X131.0Y-95.5
X131.2Y-99.8
X131.25Y-94.75
X131.25Y-136.75
X131.5Y-58.25
X131.75Y-92.0
X132.1Y-99.8
X132.2Y-95.3
X132.2Y-100.8
X132.25Y-90.75
X132.25Y-142.0
X132.75Y-58.25
X132.9Y-61.5
X132.9Y-94.1
X132.9Y-94.9
X133.1Y-63.5
X133.5Y-95.5
X133.75Y-152.75
X134.0Y-58.25
X134.0Y-64.0
X134.1Y-97.7
X134.25Y-94.25
X134.25Y-95.5
X134.75Y-63.5
X134.75Y-90.25
X135.0Y-58.25
X135.25Y-94.5
X135.7Y-92.5
X136.0Y-58.25
X136.0Y-63.5
X136.1Y-97.6
X136.994Y-92.253
X137.0Y-46.7
X137.0Y-95.75
X137.25Y-63.5
X137.507Y-60.507
X138.5Y-46.7
X138.5Y-60.5
X138.5Y-63.5
X139.75Y-60.5
X139.75Y-63.5
X140.0Y-46.7
X141.0Y-60.5
X141.0Y-63.5
X141.5Y-46.7
X141.8Y-149.0
X142.0Y-60.5
X142.0Y-63.5
X142.25Y-92.25
X142.6Y-53.9
X142.6Y-143.1
X143.8Y-142.7
X144.4Y-46.7
X145.6Y-51.4
T2
X44.3Y-78.7
X45.3Y-78.3
X51.75Y-94.5
X52.2Y-45.6
X53.1Y-45.6
X53.9Y-45.6
X65.0Y-148.75
X65.0Y-151.75
X65.25Y-156.25
X72.0Y-146.25
X72.25Y-88.75
X74.0Y-85.0
X75.0Y-151.5
X76.0Y-122.75
X88.25Y-60.5
X88.75Y-85.0
X90.25Y-60.25
X92.0Y-65.25
X92.0Y-107.2
X92.25Y-100.5
X92.3Y-83.6
X92.4Y-86.25
X92.5Y-87.75
X92.5Y-90.0
X94.0Y-92.1
X94.25Y-87.0
X94.7Y-103.8
X96.0Y-88.25
X96.5Y-128.1
X99.9Y-123.25
X100.2Y-112.1
X100.3Y-125.1
X101.0Y-123.4
X101.5Y-125.1
X102.2Y-56.4
X102.4Y-47.6
X102.4Y-128.4
X103.0Y-125.2
X103.4Y-47.6
X104.4Y-53.0
X105.0Y-49.0
X105.0Y-88.5
X105.4Y-128.1
X105.75Y-101.75
X106.0Y-53.0
X106.2Y-53.8
X106.75Y-52.75
X106.75Y-69.75
X107.0Y-49.6
X107.0Y-54.0
X107.0Y-88.75
X107.3Y-53.3
X109.0Y-54.2
X109.5Y-89.6
X109.6Y-51.811
X109.6Y-119.7
X111.9Y-100.8
X112.5Y-48.2
X112.6Y-49.6
X113.0Y-99.9
X116.0Y-94.6
X118.6Y-114.9
X119.2Y-118.1
X120.3Y-97.0
X121.25Y-96.5
X129.9Y-104.3
X133.7Y-103.7
X136.5Y-113.75
X137.1Y-105.25
X137.5Y-82.75
X137.5Y-116.0
X137.6Y-83.7
X137.7Y-91.5
X138.25Y-105.0
X138.4Y-82.9
X138.4Y-92.4
X138.7Y-91.4
X139.25Y-83.25
X139.4Y-92.1
X145.0Y-97.0
X146.25Y-99.25
X146.5Y-141.2
X147.5Y-114.4
X147.7Y-151.1
X148.2Y-142.5
X149.7Y-113.6
X150.2Y-51.6
X151.3Y-143.3
T3
X50.4Y-154.5
X50.5Y-151.5
X51.0Y-146.25
X54.5Y-155.9
X55.75Y-147.0
X59.0Y-148.9
X61.75Y-152.25
X61.794Y-153.861
X62.25Y-100.0
X62.5Y-103.75
X64.25Y-106.5
X66.25Y-144.0
X68.75Y-148.0
X74.0Y-155.5
X74.1Y-132.5
X76.25Y-155.5
X76.75Y-148.0
X82.2Y-132.4
X85.25Y-150.0
X90.4Y-132.5
X98.4Y-132.5
X98.9Y-125.4
X101.0Y-102.0
X101.75Y-107.75
X106.25Y-109.5
X106.5Y-132.5
X107.4Y-56.0
X111.9Y-129.7
X112.7Y-112.2
X114.0Y-101.75
X114.5Y-107.049
X114.6Y-132.4
X114.7Y-116.5
X119.029Y-108.529
X119.4Y-121.1
X122.8Y-132.4
X136.3Y-100.4
X142.75Y-100.5
X145.0Y-93.75
X145.75Y-93.0
X146.0Y-94.0
X146.0Y-95.0
T4
X75.0Y-146.75
X77.5Y-151.75
X78.25Y-77.0
X79.6Y-56.5
X79.8Y-58.0
X80.25Y-151.75
X81.0Y-56.7
X81.2Y-58.0
X87.75Y-76.0
X97.0Y-113.5
X102.25Y-101.25
X104.5Y-83.5
X106.4Y-111.8
X106.5Y-122.25
X108.1Y-134.3
X109.25Y-113.5
X110.0Y-121.25
X110.75Y-122.0
X111.0Y-121.0
X115.0Y-100.25
X118.25Y-111.0
X120.938Y-112.687
X123.75Y-114.75
X123.938Y-116.187
X124.188Y-112.437
X127.0Y-115.25
X127.188Y-112.687
X128.75Y-110.5
X135.0Y-124.0
X143.25Y-110.25
X149.5Y-124.5
X152.1Y-53.9
T6
X51.0Y-56.25
X51.0Y-65.0
X52.5Y-51.5
X55.25Y-76.0
X55.5Y-46.25
X56.25Y-75.0
X57.25Y-76.0
X58.25Y-56.25
X58.25Y-65.25
X60.5Y-56.75
X69.5Y-46.25
X70.75Y-46.7
X71.5Y-58.25
X72.0Y-46.25
X73.75Y-59.5
X84.0Y-79.0
X89.0Y-79.25
X98.75Y-117.5
X103.2Y-116.5
X106.0Y-125.75
X106.2Y-114.4
X110.2Y-58.2
X111.0Y-117.0
X115.75Y-122.0
X125.4Y-109.5
X130.0Y-126.25
X130.0Y-133.5
X134.25Y-127.0
X135.25Y-136.75
X137.5Y-131.0
X137.5Y-133.75
X138.75Y-127.75
X139.75Y-108.75
X142.0Y-124.25
X143.75Y-134.75
X144.5Y-126.0
X149.25Y-126.5
X149.5Y-130.75
X151.5Y-136.75
X152.0Y-133.5
X153.25Y-128.0
X156.25Y-124.5
T7
X87.25Y-57.966
X88.52Y-55.426
X89.79Y-57.966
X91.06Y-55.426
X92.33Y-57.966
X93.6Y-55.426
X94.87Y-57.966
X96.14Y-55.426
T8
X84.11Y-155.54
X85.38Y-153.0
X86.65Y-155.54
X87.92Y-153.0
X89.19Y-155.54
X90.46Y-153.0
X91.73Y-155.54
X93.0Y-153.0
X101.61Y-155.54
X102.88Y-153.0
X104.15Y-155.54
X105.42Y-153.0
X106.69Y-155.54
X107.96Y-153.0
X109.23Y-155.54
X110.5Y-153.0
X119.11Y-155.54
X120.38Y-153.0
X121.65Y-155.54
X122.92Y-153.0
X124.19Y-155.54
X125.46Y-153.0
X126.73Y-155.54
X128.0Y-153.0
X136.61Y-155.54
X137.88Y-153.0
X139.15Y-155.54
X140.42Y-153.0
X141.69Y-155.54
X142.96Y-153.0
X144.23Y-155.54
X145.5Y-153.0
T9
X120.0Y-51.21
X122.5Y-51.21
X124.5Y-51.21
X127.0Y-51.21
T10
X42.0Y-71.5
X42.0Y-74.04
X42.0Y-76.58
X42.0Y-79.12
X61.0Y-110.827
X61.0Y-126.067
X63.54Y-110.827
X63.54Y-126.067
X66.08Y-110.827
X66.08Y-126.067
X68.62Y-110.827
X68.62Y-126.067
X71.16Y-110.827
X71.16Y-126.067
X73.7Y-110.827
X73.7Y-126.067
T11
X85.065Y-44.176
X87.605Y-44.176
X95.775Y-44.176
X98.315Y-44.176
T12
X45.75Y-83.88
X45.75Y-86.42
X45.75Y-88.96
X45.75Y-91.5
X53.75Y-83.88
X53.75Y-86.42
X53.75Y-88.96
X53.75Y-91.5
X61.75Y-83.88
X61.75Y-86.42
X61.75Y-88.96
X61.75Y-91.5
X69.75Y-83.88
X69.75Y-86.42
X69.75Y-88.96
X69.75Y-91.5
X69.75Y-98.88
X69.75Y-101.42
X69.75Y-103.96
X69.75Y-106.5
X72.74Y-140.957
X75.28Y-140.957
X77.75Y-83.88
X77.75Y-86.42
X77.75Y-88.96
X77.75Y-91.5
X77.75Y-98.88
X77.75Y-101.42
X77.75Y-103.96
X77.75Y-106.5
X77.82Y-140.957
X78.1Y-72.615
X80.64Y-72.615
X83.18Y-72.615
X85.75Y-83.88
X85.75Y-86.42
X85.75Y-88.96
X85.75Y-91.5
X85.75Y-98.88
X85.75Y-101.42
X85.75Y-103.96
X85.75Y-106.5
T13
X43.25Y-135.0
X47.949Y-135.0
X52.648Y-135.0
X58.5Y-135.0
X63.199Y-135.0
X67.898Y-135.0
T14
X83.945Y-52.126
X99.435Y-52.126
T15
X116.93Y-48.5
X130.07Y-48.5
T16
X43.6Y-54.3
X43.6Y-64.3
T5
X103.85Y-41.573G85X103.85Y-40.973
G05
X103.85Y-46.003G85X103.85Y-44.903
G05
X112.49Y-41.573G85X112.49Y-40.973
G05
X112.49Y-46.003G85X112.49Y-44.903
G05
T8
X133.71Y-42.729G85X133.71Y-41.529
G05
X133.71Y-48.989G85X133.71Y-47.189
G05
X148.21Y-42.729G85X148.21Y-41.529
G05
X148.21Y-48.989G85X148.21Y-47.189
G05
T0
M30
