G04 #@! TF.GenerationSoftware,KiCad,Pcbnew,6.0.2+dfsg-1*
G04 #@! TF.CreationDate,2022-11-23T20:56:24-08:00*
G04 #@! TF.ProjectId,cm4-robot,636d342d-726f-4626-9f74-2e6b69636164,rev?*
G04 #@! TF.SameCoordinates,Original*
G04 #@! TF.FileFunction,Soldermask,Top*
G04 #@! TF.FilePolarity,Negative*
%FSLAX46Y46*%
G04 Gerber Fmt 4.6, Leading zero omitted, Abs format (unit mm)*
G04 Created by KiCad (PCBNEW 6.0.2+dfsg-1) date 2022-11-23 20:56:24*
%MOMM*%
%LPD*%
G01*
G04 APERTURE LIST*
G04 Aperture macros list*
%AMRoundRect*
0 Rectangle with rounded corners*
0 $1 Rounding radius*
0 $2 $3 $4 $5 $6 $7 $8 $9 X,Y pos of 4 corners*
0 Add a 4 corners polygon primitive as box body*
4,1,4,$2,$3,$4,$5,$6,$7,$8,$9,$2,$3,0*
0 Add four circle primitives for the rounded corners*
1,1,$1+$1,$2,$3*
1,1,$1+$1,$4,$5*
1,1,$1+$1,$6,$7*
1,1,$1+$1,$8,$9*
0 Add four rect primitives between the rounded corners*
20,1,$1+$1,$2,$3,$4,$5,0*
20,1,$1+$1,$4,$5,$6,$7,0*
20,1,$1+$1,$6,$7,$8,$9,0*
20,1,$1+$1,$8,$9,$2,$3,0*%
%AMFreePoly0*
4,1,22,0.500000,-0.750000,0.000000,-0.750000,0.000000,-0.745033,-0.079941,-0.743568,-0.215256,-0.701293,-0.333266,-0.622738,-0.424486,-0.514219,-0.481581,-0.384460,-0.499164,-0.250000,-0.500000,-0.250000,-0.500000,0.250000,-0.499164,0.250000,-0.499963,0.256109,-0.478152,0.396186,-0.417904,0.524511,-0.324060,0.630769,-0.204165,0.706417,-0.067858,0.745374,0.000000,0.744959,0.000000,0.750000,
0.500000,0.750000,0.500000,-0.750000,0.500000,-0.750000,$1*%
%AMFreePoly1*
4,1,20,0.000000,0.744959,0.073905,0.744508,0.209726,0.703889,0.328688,0.626782,0.421226,0.519385,0.479903,0.390333,0.500000,0.250000,0.500000,-0.250000,0.499851,-0.262216,0.476331,-0.402017,0.414519,-0.529596,0.319384,-0.634700,0.198574,-0.708877,0.061801,-0.746166,0.000000,-0.745033,0.000000,-0.750000,-0.500000,-0.750000,-0.500000,0.750000,0.000000,0.750000,0.000000,0.744959,
0.000000,0.744959,$1*%
%AMFreePoly2*
4,1,22,0.550000,-0.750000,0.000000,-0.750000,0.000000,-0.745033,-0.079941,-0.743568,-0.215256,-0.701293,-0.333266,-0.622738,-0.424486,-0.514219,-0.481581,-0.384460,-0.499164,-0.250000,-0.500000,-0.250000,-0.500000,0.250000,-0.499164,0.250000,-0.499963,0.256109,-0.478152,0.396186,-0.417904,0.524511,-0.324060,0.630769,-0.204165,0.706417,-0.067858,0.745374,0.000000,0.744959,0.000000,0.750000,
0.550000,0.750000,0.550000,-0.750000,0.550000,-0.750000,$1*%
%AMFreePoly3*
4,1,20,0.000000,0.744959,0.073905,0.744508,0.209726,0.703889,0.328688,0.626782,0.421226,0.519385,0.479903,0.390333,0.500000,0.250000,0.500000,-0.250000,0.499851,-0.262216,0.476331,-0.402017,0.414519,-0.529596,0.319384,-0.634700,0.198574,-0.708877,0.061801,-0.746166,0.000000,-0.745033,0.000000,-0.750000,-0.550000,-0.750000,-0.550000,0.750000,0.000000,0.750000,0.000000,0.744959,
0.000000,0.744959,$1*%
G04 Aperture macros list end*
%ADD10RoundRect,0.250000X0.845000X-0.620000X0.845000X0.620000X-0.845000X0.620000X-0.845000X-0.620000X0*%
%ADD11O,2.190000X1.740000*%
%ADD12RoundRect,0.200000X-0.200000X-0.275000X0.200000X-0.275000X0.200000X0.275000X-0.200000X0.275000X0*%
%ADD13C,3.650000*%
%ADD14R,1.500000X1.500000*%
%ADD15C,1.500000*%
%ADD16C,3.700000*%
%ADD17R,0.600000X0.450000*%
%ADD18R,1.400000X1.200000*%
%ADD19FreePoly0,180.000000*%
%ADD20FreePoly1,180.000000*%
%ADD21RoundRect,0.250000X1.075000X-0.375000X1.075000X0.375000X-1.075000X0.375000X-1.075000X-0.375000X0*%
%ADD22RoundRect,0.250000X-1.000000X1.750000X-1.000000X-1.750000X1.000000X-1.750000X1.000000X1.750000X0*%
%ADD23R,2.500000X2.300000*%
%ADD24R,0.228600X0.711200*%
%ADD25R,1.500000X1.000000*%
%ADD26RoundRect,0.225000X-0.250000X0.225000X-0.250000X-0.225000X0.250000X-0.225000X0.250000X0.225000X0*%
%ADD27C,6.500000*%
%ADD28RoundRect,0.200000X0.200000X0.275000X-0.200000X0.275000X-0.200000X-0.275000X0.200000X-0.275000X0*%
%ADD29RoundRect,0.225000X0.250000X-0.225000X0.250000X0.225000X-0.250000X0.225000X-0.250000X-0.225000X0*%
%ADD30RoundRect,0.225000X-0.225000X-0.250000X0.225000X-0.250000X0.225000X0.250000X-0.225000X0.250000X0*%
%ADD31FreePoly2,180.000000*%
%ADD32R,1.000000X1.500000*%
%ADD33FreePoly3,180.000000*%
%ADD34RoundRect,0.070000X-0.300000X0.650000X-0.300000X-0.650000X0.300000X-0.650000X0.300000X0.650000X0*%
%ADD35R,0.650000X0.400000*%
%ADD36R,1.200000X1.400000*%
%ADD37RoundRect,0.250000X1.000000X-1.750000X1.000000X1.750000X-1.000000X1.750000X-1.000000X-1.750000X0*%
%ADD38RoundRect,0.150000X-0.587500X-0.150000X0.587500X-0.150000X0.587500X0.150000X-0.587500X0.150000X0*%
%ADD39RoundRect,0.250000X0.375000X0.625000X-0.375000X0.625000X-0.375000X-0.625000X0.375000X-0.625000X0*%
%ADD40RoundRect,0.225000X0.225000X0.250000X-0.225000X0.250000X-0.225000X-0.250000X0.225000X-0.250000X0*%
%ADD41RoundRect,0.070000X0.300000X-0.650000X0.300000X0.650000X-0.300000X0.650000X-0.300000X-0.650000X0*%
%ADD42C,3.250000*%
%ADD43R,1.398000X1.398000*%
%ADD44C,1.398000*%
%ADD45C,1.530000*%
%ADD46C,2.445000*%
%ADD47RoundRect,0.200000X0.275000X-0.200000X0.275000X0.200000X-0.275000X0.200000X-0.275000X-0.200000X0*%
%ADD48R,0.300000X2.600000*%
%ADD49O,1.700000X3.400000*%
%ADD50O,1.500000X3.000000*%
%ADD51RoundRect,0.070000X0.300000X0.525000X-0.300000X0.525000X-0.300000X-0.525000X0.300000X-0.525000X0*%
%ADD52RoundRect,0.200000X-0.275000X0.200000X-0.275000X-0.200000X0.275000X-0.200000X0.275000X0.200000X0*%
%ADD53RoundRect,0.150000X0.150000X-0.875000X0.150000X0.875000X-0.150000X0.875000X-0.150000X-0.875000X0*%
%ADD54RoundRect,0.250000X0.620000X0.845000X-0.620000X0.845000X-0.620000X-0.845000X0.620000X-0.845000X0*%
%ADD55O,1.740000X2.190000*%
%ADD56FreePoly0,0.000000*%
%ADD57FreePoly1,0.000000*%
%ADD58R,0.400000X0.650000*%
%ADD59RoundRect,0.150000X-0.825000X-0.150000X0.825000X-0.150000X0.825000X0.150000X-0.825000X0.150000X0*%
%ADD60RoundRect,0.250000X-0.250000X-0.475000X0.250000X-0.475000X0.250000X0.475000X-0.250000X0.475000X0*%
%ADD61R,2.300000X2.300000*%
%ADD62C,2.300000*%
%ADD63R,4.600000X1.100000*%
%ADD64R,9.400000X10.800000*%
%ADD65RoundRect,0.150000X-0.150000X0.750000X-0.150000X-0.750000X0.150000X-0.750000X0.150000X0.750000X0*%
%ADD66RoundRect,0.243750X0.243750X0.456250X-0.243750X0.456250X-0.243750X-0.456250X0.243750X-0.456250X0*%
%ADD67R,1.200000X1.000000*%
%ADD68C,1.900000*%
%ADD69C,1.700000*%
%ADD70C,3.300000*%
%ADD71RoundRect,0.250000X0.250000X0.475000X-0.250000X0.475000X-0.250000X-0.475000X0.250000X-0.475000X0*%
%ADD72RoundRect,0.250000X-1.500000X-0.550000X1.500000X-0.550000X1.500000X0.550000X-1.500000X0.550000X0*%
%ADD73RoundRect,0.150000X0.150000X-0.587500X0.150000X0.587500X-0.150000X0.587500X-0.150000X-0.587500X0*%
%ADD74C,0.650000*%
%ADD75R,0.300000X1.150000*%
%ADD76O,1.000000X2.100000*%
%ADD77O,1.000000X1.600000*%
%ADD78RoundRect,0.243750X0.456250X-0.243750X0.456250X0.243750X-0.456250X0.243750X-0.456250X-0.243750X0*%
%ADD79RoundRect,0.100000X0.100000X-0.637500X0.100000X0.637500X-0.100000X0.637500X-0.100000X-0.637500X0*%
%ADD80R,1.700000X1.700000*%
%ADD81O,1.700000X1.700000*%
%ADD82R,1.358900X0.279400*%
%ADD83R,0.900000X1.200000*%
%ADD84RoundRect,0.150000X0.150000X-0.725000X0.150000X0.725000X-0.150000X0.725000X-0.150000X-0.725000X0*%
%ADD85C,2.700000*%
%ADD86R,0.200000X0.700000*%
%ADD87RoundRect,0.150000X-0.150000X0.512500X-0.150000X-0.512500X0.150000X-0.512500X0.150000X0.512500X0*%
%ADD88R,3.149600X5.308600*%
%ADD89R,3.800000X2.000000*%
G04 APERTURE END LIST*
D10*
X61750000Y-91500000D03*
D11*
X61750000Y-88960000D03*
X61750000Y-86420000D03*
X61750000Y-83880000D03*
D12*
X62636000Y-151613000D03*
X64286000Y-151613000D03*
D13*
X111770000Y-146650000D03*
X100340000Y-146650000D03*
D14*
X110500000Y-153000000D03*
D15*
X109230000Y-155540000D03*
X107960000Y-153000000D03*
X106690000Y-155540000D03*
X105420000Y-153000000D03*
X104150000Y-155540000D03*
X102880000Y-153000000D03*
X101610000Y-155540000D03*
D10*
X69750000Y-91500000D03*
D11*
X69750000Y-88960000D03*
X69750000Y-86420000D03*
X69750000Y-83880000D03*
D16*
X44500000Y-153500000D03*
D17*
X58128000Y-148094000D03*
X56028000Y-148094000D03*
D18*
X102115000Y-113269000D03*
X99915000Y-113269000D03*
X99915000Y-114969000D03*
X102115000Y-114969000D03*
D19*
X53200000Y-155050000D03*
D20*
X51900000Y-155050000D03*
D13*
X135340000Y-146650000D03*
X146770000Y-146650000D03*
D14*
X145500000Y-153000000D03*
D15*
X144230000Y-155540000D03*
X142960000Y-153000000D03*
X141690000Y-155540000D03*
X140420000Y-153000000D03*
X139150000Y-155540000D03*
X137880000Y-153000000D03*
X136610000Y-155540000D03*
D21*
X56262000Y-52608000D03*
X56262000Y-49808000D03*
D22*
X62099000Y-69208000D03*
X62099000Y-77208000D03*
D23*
X69596000Y-71756000D03*
X73896000Y-71756000D03*
D24*
X122950002Y-59500001D03*
X122950002Y-62579999D03*
X123350001Y-59500001D03*
X123350001Y-62579999D03*
X123750000Y-59500001D03*
X123750000Y-62579999D03*
X124150002Y-59500001D03*
X124150002Y-62579999D03*
X124550001Y-59500001D03*
X124550001Y-62579999D03*
X124950000Y-59500001D03*
X124950000Y-62579999D03*
X125350002Y-59500001D03*
X125350002Y-62579999D03*
X125750001Y-59500001D03*
X125750001Y-62579999D03*
X126150001Y-59500001D03*
X126150001Y-62579999D03*
X126550000Y-59500001D03*
X126550000Y-62579999D03*
X126950001Y-59500001D03*
X126950001Y-62579999D03*
X127350001Y-59500001D03*
X127350001Y-62579999D03*
X127750000Y-59500001D03*
X127750000Y-62579999D03*
X128150002Y-59500001D03*
X128150002Y-62579999D03*
X128550001Y-59500001D03*
X128550001Y-62579999D03*
X128950000Y-59500001D03*
X128950000Y-62579999D03*
X129350002Y-59500001D03*
X129350002Y-62579999D03*
X129750001Y-59500001D03*
X129750001Y-62579999D03*
X130150000Y-59500001D03*
X130150000Y-62579999D03*
X130549999Y-59500001D03*
X130549999Y-62579999D03*
X130950001Y-59500001D03*
X130950001Y-62579999D03*
X131350000Y-59500001D03*
X131350000Y-62579999D03*
X131749999Y-59500001D03*
X131749999Y-62579999D03*
X132150001Y-59500001D03*
X132150001Y-62579999D03*
X132550000Y-59500001D03*
X132550000Y-62579999D03*
X132950000Y-59500001D03*
X132950000Y-62579999D03*
X133350001Y-59500001D03*
X133350001Y-62579999D03*
X133750001Y-59500001D03*
X133750001Y-62579999D03*
X134150000Y-59500001D03*
X134150000Y-62579999D03*
X134549999Y-59500001D03*
X134549999Y-62579999D03*
X134950001Y-59500001D03*
X134950001Y-62579999D03*
X135350000Y-59500001D03*
X135350000Y-62579999D03*
X135749999Y-59500001D03*
X135749999Y-62579999D03*
X136150001Y-59500001D03*
X136150001Y-62579999D03*
X136550000Y-59500001D03*
X136550000Y-62579999D03*
X136949999Y-59500001D03*
X136949999Y-62579999D03*
X137349998Y-59500001D03*
X137349998Y-62579999D03*
X137750000Y-59500001D03*
X137750000Y-62579999D03*
X138149999Y-59500001D03*
X138149999Y-62579999D03*
X138549999Y-59500001D03*
X138549999Y-62579999D03*
X138950000Y-59500001D03*
X138950000Y-62579999D03*
X139349999Y-59500001D03*
X139349999Y-62579999D03*
X139749999Y-59500001D03*
X139749999Y-62579999D03*
X140150000Y-59500001D03*
X140150000Y-62579999D03*
X140550000Y-59500001D03*
X140550000Y-62579999D03*
X140949999Y-59500001D03*
X140949999Y-62579999D03*
X141349998Y-59500001D03*
X141349998Y-62579999D03*
X141750000Y-59500001D03*
X141750000Y-62579999D03*
X142149999Y-59500001D03*
X142149999Y-62579999D03*
X142549998Y-59500001D03*
X142549998Y-62579999D03*
D25*
X102150000Y-135650000D03*
X102150000Y-132450000D03*
X97250000Y-132450000D03*
X97250000Y-135650000D03*
D26*
X136250000Y-124475000D03*
X136250000Y-126025000D03*
D27*
X43600000Y-64300000D03*
D12*
X93206000Y-91223000D03*
X94856000Y-91223000D03*
D28*
X64286000Y-150036000D03*
X62636000Y-150036000D03*
D29*
X110066000Y-116220000D03*
X110066000Y-114670000D03*
D28*
X111697000Y-48203000D03*
X110047000Y-48203000D03*
D30*
X88787000Y-61334000D03*
X90337000Y-61334000D03*
D31*
X77150000Y-77700000D03*
D32*
X75850000Y-77700000D03*
D33*
X74550000Y-77700000D03*
D34*
X153168000Y-140255000D03*
X151268000Y-140255000D03*
X152218000Y-142355000D03*
D18*
X114552000Y-113521000D03*
X112352000Y-113521000D03*
X112352000Y-115221000D03*
X114552000Y-115221000D03*
D26*
X136353000Y-129269000D03*
X136353000Y-130819000D03*
D35*
X93111000Y-82409000D03*
X93111000Y-83059000D03*
X93111000Y-83709000D03*
X95011000Y-83709000D03*
X95011000Y-82409000D03*
D36*
X140800000Y-126481000D03*
X140800000Y-124281000D03*
X139100000Y-124281000D03*
X139100000Y-126481000D03*
D29*
X105533000Y-113505000D03*
X105533000Y-111955000D03*
D37*
X76556000Y-52038000D03*
X76556000Y-44038000D03*
D28*
X112233000Y-56726000D03*
X110583000Y-56726000D03*
D38*
X60613500Y-97399000D03*
X60613500Y-99299000D03*
X62488500Y-98349000D03*
D12*
X154985000Y-142250000D03*
X156635000Y-142250000D03*
D39*
X151151000Y-55145000D03*
X148351000Y-55145000D03*
D40*
X52335600Y-44626600D03*
X50785600Y-44626600D03*
D30*
X126519000Y-109512000D03*
X128069000Y-109512000D03*
D25*
X118350000Y-135650000D03*
X118350000Y-132450000D03*
X113450000Y-132450000D03*
X113450000Y-135650000D03*
D19*
X53200000Y-152050000D03*
D20*
X51900000Y-152050000D03*
D30*
X148727000Y-52742000D03*
X150277000Y-52742000D03*
D41*
X151268000Y-146305000D03*
X153168000Y-146305000D03*
X152218000Y-144205000D03*
D38*
X60613500Y-101223000D03*
X60613500Y-103123000D03*
X62488500Y-102173000D03*
D25*
X77750000Y-135650000D03*
X77750000Y-132450000D03*
X72850000Y-132450000D03*
X72850000Y-135650000D03*
D10*
X77750000Y-106500000D03*
D11*
X77750000Y-103960000D03*
X77750000Y-101420000D03*
X77750000Y-98880000D03*
D42*
X85975000Y-49076000D03*
X97405000Y-49076000D03*
D43*
X96140000Y-55426000D03*
D44*
X94870000Y-57966000D03*
X93600000Y-55426000D03*
X92330000Y-57966000D03*
X91060000Y-55426000D03*
X89790000Y-57966000D03*
X88520000Y-55426000D03*
X87250000Y-57966000D03*
D45*
X98315000Y-44176000D03*
X95775000Y-44176000D03*
X87605000Y-44176000D03*
X85065000Y-44176000D03*
D46*
X99435000Y-52126000D03*
X83945000Y-52126000D03*
D47*
X124890000Y-117911000D03*
X124890000Y-116261000D03*
D48*
X136460000Y-48849000D03*
X136960000Y-48849000D03*
X137460000Y-48849000D03*
X137960000Y-48849000D03*
X138460000Y-48849000D03*
X138960000Y-48849000D03*
X139460000Y-48849000D03*
X139960000Y-48849000D03*
X140460000Y-48849000D03*
X140960000Y-48849000D03*
X141460000Y-48849000D03*
X141960000Y-48849000D03*
X142460000Y-48849000D03*
X142960000Y-48849000D03*
X143460000Y-48849000D03*
X143960000Y-48849000D03*
X144460000Y-48849000D03*
X144960000Y-48849000D03*
X145460000Y-48849000D03*
D49*
X148210000Y-48089000D03*
D50*
X148210000Y-42129000D03*
D49*
X133710000Y-48089000D03*
D50*
X133710000Y-42129000D03*
D51*
X53567000Y-50192000D03*
X52617000Y-50192000D03*
X51667000Y-50192000D03*
X51667000Y-52892000D03*
X53567000Y-52892000D03*
D12*
X57074000Y-101234000D03*
X58724000Y-101234000D03*
X62636000Y-148436000D03*
X64286000Y-148436000D03*
D35*
X93153000Y-88117000D03*
X93153000Y-88767000D03*
X93153000Y-89417000D03*
X95053000Y-89417000D03*
X95053000Y-88117000D03*
D12*
X48621000Y-145218000D03*
X50271000Y-145218000D03*
D26*
X116412000Y-113453000D03*
X116412000Y-115003000D03*
D52*
X97824000Y-111252000D03*
X97824000Y-112902000D03*
D53*
X130209000Y-121401000D03*
X131479000Y-121401000D03*
X132749000Y-121401000D03*
X134019000Y-121401000D03*
X135289000Y-121401000D03*
X136559000Y-121401000D03*
X137829000Y-121401000D03*
X139099000Y-121401000D03*
X140369000Y-121401000D03*
X140369000Y-112101000D03*
X139099000Y-112101000D03*
X137829000Y-112101000D03*
X136559000Y-112101000D03*
X135289000Y-112101000D03*
X134019000Y-112101000D03*
X132749000Y-112101000D03*
X131479000Y-112101000D03*
X130209000Y-112101000D03*
D30*
X54128000Y-44635800D03*
X55678000Y-44635800D03*
D16*
X44500000Y-44500000D03*
D27*
X43600000Y-54300000D03*
D10*
X45750000Y-91500000D03*
D11*
X45750000Y-88960000D03*
X45750000Y-86420000D03*
X45750000Y-83880000D03*
D26*
X150872000Y-133816000D03*
X150872000Y-135366000D03*
D28*
X64286000Y-154790000D03*
X62636000Y-154790000D03*
D40*
X140360000Y-128794000D03*
X138810000Y-128794000D03*
D29*
X97846000Y-116092000D03*
X97846000Y-114542000D03*
D28*
X94475000Y-94489000D03*
X92825000Y-94489000D03*
D54*
X83180000Y-72615000D03*
D55*
X80640000Y-72615000D03*
X78100000Y-72615000D03*
D56*
X55900000Y-155050000D03*
D57*
X57200000Y-155050000D03*
D58*
X126186000Y-112624000D03*
X125536000Y-112624000D03*
X124886000Y-112624000D03*
X124886000Y-114524000D03*
X126186000Y-114524000D03*
D59*
X66891000Y-148643000D03*
X66891000Y-149913000D03*
X66891000Y-151183000D03*
X66891000Y-152453000D03*
X66891000Y-153723000D03*
X66891000Y-154993000D03*
X66891000Y-156263000D03*
X71841000Y-156263000D03*
X71841000Y-154993000D03*
X71841000Y-153723000D03*
X71841000Y-152453000D03*
X71841000Y-151183000D03*
X71841000Y-149913000D03*
X71841000Y-148643000D03*
D36*
X155119000Y-126651000D03*
X155119000Y-124451000D03*
X153419000Y-124451000D03*
X153419000Y-126651000D03*
D60*
X140550000Y-99250000D03*
X142450000Y-99250000D03*
D61*
X58500000Y-135000000D03*
D62*
X63199000Y-135000000D03*
X67898000Y-135000000D03*
D17*
X74027000Y-156423000D03*
X76127000Y-156423000D03*
D63*
X63781000Y-64096000D03*
X63781000Y-62396000D03*
D64*
X54631000Y-60696000D03*
D63*
X63781000Y-60696000D03*
X63781000Y-58996000D03*
X63781000Y-57296000D03*
D58*
X122909000Y-112629000D03*
X122259000Y-112629000D03*
X121609000Y-112629000D03*
X121609000Y-114529000D03*
X122909000Y-114529000D03*
D65*
X148292000Y-124297000D03*
X147022000Y-124297000D03*
X145752000Y-124297000D03*
X144482000Y-124297000D03*
X144482000Y-134947000D03*
X145752000Y-134947000D03*
X147022000Y-134947000D03*
X148292000Y-134947000D03*
D37*
X65016000Y-52038000D03*
X65016000Y-44038000D03*
D52*
X106282000Y-48501000D03*
X106282000Y-50151000D03*
D28*
X145764000Y-109512000D03*
X144114000Y-109512000D03*
D35*
X74125000Y-151070000D03*
X74125000Y-151720000D03*
X74125000Y-152370000D03*
X76025000Y-152370000D03*
X76025000Y-151070000D03*
D66*
X46937500Y-99750000D03*
X45062500Y-99750000D03*
D10*
X69750000Y-106500000D03*
D11*
X69750000Y-103960000D03*
X69750000Y-101420000D03*
X69750000Y-98880000D03*
D12*
X57074000Y-105039000D03*
X58724000Y-105039000D03*
X50336000Y-46602000D03*
X51986000Y-46602000D03*
D10*
X85750000Y-106500000D03*
D11*
X85750000Y-103960000D03*
X85750000Y-101420000D03*
X85750000Y-98880000D03*
D28*
X156675000Y-144350000D03*
X155025000Y-144350000D03*
X64286000Y-153240000D03*
X62636000Y-153240000D03*
D47*
X122884000Y-117894000D03*
X122884000Y-116244000D03*
D22*
X50800000Y-69191000D03*
X50800000Y-77191000D03*
D67*
X43124000Y-106171000D03*
X50524000Y-106171000D03*
D68*
X127000000Y-51210000D03*
D69*
X124500000Y-51210000D03*
X122500000Y-51210000D03*
D68*
X120000000Y-51210000D03*
D70*
X130070000Y-48500000D03*
X116930000Y-48500000D03*
D17*
X68253000Y-145123000D03*
X66153000Y-145123000D03*
D16*
X153500000Y-44500000D03*
D25*
X126450000Y-135650000D03*
X126450000Y-132450000D03*
X121550000Y-132450000D03*
X121550000Y-135650000D03*
D12*
X110573000Y-55148000D03*
X112223000Y-55148000D03*
D10*
X85750000Y-91500000D03*
D11*
X85750000Y-88960000D03*
X85750000Y-86420000D03*
X85750000Y-83880000D03*
D10*
X53750000Y-91500000D03*
D11*
X53750000Y-88960000D03*
X53750000Y-86420000D03*
X53750000Y-83880000D03*
D16*
X153500000Y-153500000D03*
D12*
X86309000Y-70403000D03*
X87959000Y-70403000D03*
D71*
X138950000Y-99250000D03*
X137050000Y-99250000D03*
D72*
X110662000Y-123675000D03*
X116062000Y-123675000D03*
D73*
X104036000Y-55389500D03*
X105936000Y-55389500D03*
X104986000Y-53514500D03*
D26*
X150745000Y-129019000D03*
X150745000Y-130569000D03*
D12*
X85971000Y-63672000D03*
X87621000Y-63672000D03*
X69386000Y-146993000D03*
X71036000Y-146993000D03*
X57147000Y-97427000D03*
X58797000Y-97427000D03*
D26*
X150750000Y-124215000D03*
X150750000Y-125765000D03*
D12*
X62636000Y-156363000D03*
X64286000Y-156363000D03*
X98397000Y-61618000D03*
X100047000Y-61618000D03*
D54*
X77820000Y-140957000D03*
D55*
X75280000Y-140957000D03*
X72740000Y-140957000D03*
D29*
X108331000Y-55847000D03*
X108331000Y-54297000D03*
D28*
X94750000Y-85540000D03*
X93100000Y-85540000D03*
D13*
X94270000Y-146650000D03*
X82840000Y-146650000D03*
D14*
X93000000Y-153000000D03*
D15*
X91730000Y-155540000D03*
X90460000Y-153000000D03*
X89190000Y-155540000D03*
X87920000Y-153000000D03*
X86650000Y-155540000D03*
X85380000Y-153000000D03*
X84110000Y-155540000D03*
D61*
X43250000Y-135000000D03*
D62*
X47949000Y-135000000D03*
X52648000Y-135000000D03*
D14*
X61000000Y-126067000D03*
D15*
X63540000Y-126067000D03*
X66080000Y-126067000D03*
X68620000Y-126067000D03*
X71160000Y-126067000D03*
X73700000Y-126067000D03*
X73700000Y-110827000D03*
X71160000Y-110827000D03*
X68620000Y-110827000D03*
X66080000Y-110827000D03*
X63540000Y-110827000D03*
X61000000Y-110827000D03*
D28*
X52305000Y-48334000D03*
X50655000Y-48334000D03*
D66*
X46937500Y-96750000D03*
X45062500Y-96750000D03*
D28*
X104839000Y-101267000D03*
X103189000Y-101267000D03*
D52*
X110022000Y-111502000D03*
X110022000Y-113152000D03*
D74*
X105280000Y-44953000D03*
X111060000Y-44953000D03*
D75*
X111520000Y-46018000D03*
X110720000Y-46018000D03*
X109420000Y-46018000D03*
X108420000Y-46018000D03*
X107920000Y-46018000D03*
X106920000Y-46018000D03*
X105620000Y-46018000D03*
X104820000Y-46018000D03*
X105120000Y-46018000D03*
X105920000Y-46018000D03*
X106420000Y-46018000D03*
X107420000Y-46018000D03*
X108920000Y-46018000D03*
X109920000Y-46018000D03*
X110420000Y-46018000D03*
X111220000Y-46018000D03*
D76*
X112490000Y-45453000D03*
D77*
X103850000Y-41273000D03*
D76*
X103850000Y-45453000D03*
D77*
X112490000Y-41273000D03*
D38*
X60613500Y-105041000D03*
X60613500Y-106941000D03*
X62488500Y-105991000D03*
D60*
X74290000Y-149030000D03*
X76190000Y-149030000D03*
D56*
X55900000Y-152050000D03*
D57*
X57200000Y-152050000D03*
D29*
X49571000Y-53000000D03*
X49571000Y-51450000D03*
D12*
X66236000Y-146993000D03*
X67886000Y-146993000D03*
D53*
X144682000Y-121397000D03*
X145952000Y-121397000D03*
X147222000Y-121397000D03*
X148492000Y-121397000D03*
X149762000Y-121397000D03*
X151032000Y-121397000D03*
X152302000Y-121397000D03*
X153572000Y-121397000D03*
X154842000Y-121397000D03*
X154842000Y-112097000D03*
X153572000Y-112097000D03*
X152302000Y-112097000D03*
X151032000Y-112097000D03*
X149762000Y-112097000D03*
X148492000Y-112097000D03*
X147222000Y-112097000D03*
X145952000Y-112097000D03*
X144682000Y-112097000D03*
D25*
X85850000Y-135650000D03*
X85850000Y-132450000D03*
X80950000Y-132450000D03*
X80950000Y-135650000D03*
D13*
X129270000Y-146650000D03*
X117840000Y-146650000D03*
D14*
X128000000Y-153000000D03*
D15*
X126730000Y-155540000D03*
X125460000Y-153000000D03*
X124190000Y-155540000D03*
X122920000Y-153000000D03*
X121650000Y-155540000D03*
X120380000Y-153000000D03*
X119110000Y-155540000D03*
D25*
X93950000Y-135650000D03*
X93950000Y-132450000D03*
X89050000Y-132450000D03*
X89050000Y-135650000D03*
D65*
X133771000Y-124424000D03*
X132501000Y-124424000D03*
X131231000Y-124424000D03*
X129961000Y-124424000D03*
X129961000Y-135074000D03*
X131231000Y-135074000D03*
X132501000Y-135074000D03*
X133771000Y-135074000D03*
D25*
X110250000Y-135650000D03*
X110250000Y-132450000D03*
X105350000Y-132450000D03*
X105350000Y-135650000D03*
D10*
X77750000Y-91500000D03*
D11*
X77750000Y-88960000D03*
X77750000Y-86420000D03*
X77750000Y-83880000D03*
D78*
X121430000Y-121466500D03*
X121430000Y-119591500D03*
D40*
X154731000Y-128927000D03*
X153181000Y-128927000D03*
D26*
X136497000Y-134089000D03*
X136497000Y-135639000D03*
D28*
X131240000Y-109512000D03*
X129590000Y-109512000D03*
D79*
X96775000Y-109362500D03*
X97425000Y-109362500D03*
X98075000Y-109362500D03*
X98725000Y-109362500D03*
X99375000Y-109362500D03*
X100025000Y-109362500D03*
X100675000Y-109362500D03*
X101325000Y-109362500D03*
X101975000Y-109362500D03*
X102625000Y-109362500D03*
X103275000Y-109362500D03*
X103925000Y-109362500D03*
X104575000Y-109362500D03*
X105225000Y-109362500D03*
X105225000Y-103637500D03*
X104575000Y-103637500D03*
X103925000Y-103637500D03*
X103275000Y-103637500D03*
X102625000Y-103637500D03*
X101975000Y-103637500D03*
X101325000Y-103637500D03*
X100675000Y-103637500D03*
X100025000Y-103637500D03*
X99375000Y-103637500D03*
X98725000Y-103637500D03*
X98075000Y-103637500D03*
X97425000Y-103637500D03*
X96775000Y-103637500D03*
D80*
X42000000Y-71500000D03*
D81*
X42000000Y-74040000D03*
X42000000Y-76580000D03*
X42000000Y-79120000D03*
D30*
X140814000Y-109512000D03*
X142364000Y-109512000D03*
D24*
X122950002Y-93420001D03*
X122950002Y-96499999D03*
X123350001Y-93420001D03*
X123350001Y-96499999D03*
X123750000Y-93420001D03*
X123750000Y-96499999D03*
X124150002Y-93420001D03*
X124150002Y-96499999D03*
X124550001Y-93420001D03*
X124550001Y-96499999D03*
X124950000Y-93420001D03*
X124950000Y-96499999D03*
X125350002Y-93420001D03*
X125350002Y-96499999D03*
X125750001Y-93420001D03*
X125750001Y-96499999D03*
X126150001Y-93420001D03*
X126150001Y-96499999D03*
X126550000Y-93420001D03*
X126550000Y-96499999D03*
X126950001Y-93420001D03*
X126950001Y-96499999D03*
X127350001Y-93420001D03*
X127350001Y-96499999D03*
X127750000Y-93420001D03*
X127750000Y-96499999D03*
X128150002Y-93420001D03*
X128150002Y-96499999D03*
X128550001Y-93420001D03*
X128550001Y-96499999D03*
X128950000Y-93420001D03*
X128950000Y-96499999D03*
X129350002Y-93420001D03*
X129350002Y-96499999D03*
X129750001Y-93420001D03*
X129750001Y-96499999D03*
X130150000Y-93420001D03*
X130150000Y-96499999D03*
X130549999Y-93420001D03*
X130549999Y-96499999D03*
X130950001Y-93420001D03*
X130950001Y-96499999D03*
X131350000Y-93420001D03*
X131350000Y-96499999D03*
X131749999Y-93420001D03*
X131749999Y-96499999D03*
X132150001Y-93420001D03*
X132150001Y-96499999D03*
X132550000Y-93420001D03*
X132550000Y-96499999D03*
X132950000Y-93420001D03*
X132950000Y-96499999D03*
X133350001Y-93420001D03*
X133350001Y-96499999D03*
X133750001Y-93420001D03*
X133750001Y-96499999D03*
X134150000Y-93420001D03*
X134150000Y-96499999D03*
X134549999Y-93420001D03*
X134549999Y-96499999D03*
X134950001Y-93420001D03*
X134950001Y-96499999D03*
X135350000Y-93420001D03*
X135350000Y-96499999D03*
X135749999Y-93420001D03*
X135749999Y-96499999D03*
X136150001Y-93420001D03*
X136150001Y-96499999D03*
X136550000Y-93420001D03*
X136550000Y-96499999D03*
X136949999Y-93420001D03*
X136949999Y-96499999D03*
X137349998Y-93420001D03*
X137349998Y-96499999D03*
X137750000Y-93420001D03*
X137750000Y-96499999D03*
X138149999Y-93420001D03*
X138149999Y-96499999D03*
X138549999Y-93420001D03*
X138549999Y-96499999D03*
X138950000Y-93420001D03*
X138950000Y-96499999D03*
X139349999Y-93420001D03*
X139349999Y-96499999D03*
X139749999Y-93420001D03*
X139749999Y-96499999D03*
X140150000Y-93420001D03*
X140150000Y-96499999D03*
X140550000Y-93420001D03*
X140550000Y-96499999D03*
X140949999Y-93420001D03*
X140949999Y-96499999D03*
X141349998Y-93420001D03*
X141349998Y-96499999D03*
X141750000Y-93420001D03*
X141750000Y-96499999D03*
X142149999Y-93420001D03*
X142149999Y-96499999D03*
X142549998Y-93420001D03*
X142549998Y-96499999D03*
D82*
X112848550Y-52262001D03*
X112848550Y-51761999D03*
X112848550Y-51262000D03*
X112848550Y-50762001D03*
X112848550Y-50261999D03*
X108441650Y-50261999D03*
X108441650Y-50762001D03*
X108441650Y-51262000D03*
X108441650Y-51761999D03*
X108441650Y-52262001D03*
D28*
X94709000Y-70369000D03*
X93059000Y-70369000D03*
D29*
X118031000Y-114141000D03*
X118031000Y-112591000D03*
D66*
X46442500Y-145203000D03*
X44567500Y-145203000D03*
D83*
X53898000Y-46713200D03*
X57198000Y-46713200D03*
D84*
X95187000Y-126753000D03*
X96457000Y-126753000D03*
X97727000Y-126753000D03*
X98997000Y-126753000D03*
X100267000Y-126753000D03*
X101537000Y-126753000D03*
X102807000Y-126753000D03*
X104077000Y-126753000D03*
X104077000Y-121603000D03*
X102807000Y-121603000D03*
X101537000Y-121603000D03*
X100267000Y-121603000D03*
X98997000Y-121603000D03*
X97727000Y-121603000D03*
X96457000Y-121603000D03*
X95187000Y-121603000D03*
D28*
X117627000Y-101083000D03*
X115977000Y-101083000D03*
D79*
X109775000Y-109362500D03*
X110425000Y-109362500D03*
X111075000Y-109362500D03*
X111725000Y-109362500D03*
X112375000Y-109362500D03*
X113025000Y-109362500D03*
X113675000Y-109362500D03*
X114325000Y-109362500D03*
X114975000Y-109362500D03*
X115625000Y-109362500D03*
X116275000Y-109362500D03*
X116925000Y-109362500D03*
X117575000Y-109362500D03*
X118225000Y-109362500D03*
X118225000Y-103637500D03*
X117575000Y-103637500D03*
X116925000Y-103637500D03*
X116275000Y-103637500D03*
X115625000Y-103637500D03*
X114975000Y-103637500D03*
X114325000Y-103637500D03*
X113675000Y-103637500D03*
X113025000Y-103637500D03*
X112375000Y-103637500D03*
X111725000Y-103637500D03*
X111075000Y-103637500D03*
X110425000Y-103637500D03*
X109775000Y-103637500D03*
D26*
X103943000Y-113394000D03*
X103943000Y-114944000D03*
D78*
X126338000Y-121478500D03*
X126338000Y-119603500D03*
D31*
X88775125Y-77700000D03*
D32*
X87475125Y-77700000D03*
D33*
X86175125Y-77700000D03*
D17*
X58133000Y-145947000D03*
X56033000Y-145947000D03*
D85*
X154250000Y-94500000D03*
X154250000Y-61500000D03*
X106250000Y-94500000D03*
X106250000Y-61500000D03*
D86*
X122950000Y-96500000D03*
X122950000Y-93420000D03*
X123350000Y-96500000D03*
X123350000Y-93420000D03*
X123750000Y-96500000D03*
X123750000Y-93420000D03*
X124150000Y-96500000D03*
X124150000Y-93420000D03*
X124550000Y-96500000D03*
X124550000Y-93420000D03*
X124950000Y-96500000D03*
X124950000Y-93420000D03*
X125350000Y-96500000D03*
X125350000Y-93420000D03*
X125750000Y-96500000D03*
X125750000Y-93420000D03*
X126150000Y-96500000D03*
X126150000Y-93420000D03*
X126550000Y-96500000D03*
X126550000Y-93420000D03*
X126950000Y-96500000D03*
X126950000Y-93420000D03*
X127350000Y-96500000D03*
X127350000Y-93420000D03*
X127750000Y-96500000D03*
X127750000Y-93420000D03*
X128150000Y-96500000D03*
X128150000Y-93420000D03*
X128550000Y-96500000D03*
X128550000Y-93420000D03*
X128950000Y-96500000D03*
X128950000Y-93420000D03*
X129350000Y-96500000D03*
X129350000Y-93420000D03*
X129750000Y-96500000D03*
X129750000Y-93420000D03*
X130150000Y-96500000D03*
X130150000Y-93420000D03*
X130550000Y-96500000D03*
X130550000Y-93420000D03*
X130950000Y-96500000D03*
X130950000Y-93420000D03*
X131350000Y-96500000D03*
X131350000Y-93420000D03*
X131750000Y-96500000D03*
X131750000Y-93420000D03*
X132150000Y-96500000D03*
X132150000Y-93420000D03*
X132550000Y-96500000D03*
X132550000Y-93420000D03*
X132950000Y-96500000D03*
X132950000Y-93420000D03*
X133350000Y-96500000D03*
X133350000Y-93420000D03*
X133750000Y-96500000D03*
X133750000Y-93420000D03*
X134150000Y-96500000D03*
X134150000Y-93420000D03*
X134550000Y-96500000D03*
X134550000Y-93420000D03*
X134950000Y-96500000D03*
X134950000Y-93420000D03*
X135350000Y-96500000D03*
X135350000Y-93420000D03*
X135750000Y-96500000D03*
X135750000Y-93420000D03*
X136150000Y-96500000D03*
X136150000Y-93420000D03*
X136550000Y-96500000D03*
X136550000Y-93420000D03*
X136950000Y-96500000D03*
X136950000Y-93420000D03*
X137350000Y-96500000D03*
X137350000Y-93420000D03*
X137750000Y-96500000D03*
X137750000Y-93420000D03*
X138150000Y-96500000D03*
X138150000Y-93420000D03*
X138550000Y-96500000D03*
X138550000Y-93420000D03*
X138950000Y-96500000D03*
X138950000Y-93420000D03*
X139350000Y-96500000D03*
X139350000Y-93420000D03*
X139750000Y-96500000D03*
X139750000Y-93420000D03*
X140150000Y-96500000D03*
X140150000Y-93420000D03*
X140550000Y-96500000D03*
X140550000Y-93420000D03*
X140950000Y-96500000D03*
X140950000Y-93420000D03*
X141350000Y-96500000D03*
X141350000Y-93420000D03*
X141750000Y-96500000D03*
X141750000Y-93420000D03*
X142150000Y-96500000D03*
X142150000Y-93420000D03*
X142550000Y-96500000D03*
X142550000Y-93420000D03*
X122950000Y-62580000D03*
X122950000Y-59500000D03*
X123350000Y-62580000D03*
X123350000Y-59500000D03*
X123750000Y-62580000D03*
X123750000Y-59500000D03*
X124150000Y-62580000D03*
X124150000Y-59500000D03*
X124550000Y-62580000D03*
X124550000Y-59500000D03*
X124950000Y-62580000D03*
X124950000Y-59500000D03*
X125350000Y-62580000D03*
X125350000Y-59500000D03*
X125750000Y-62580000D03*
X125750000Y-59500000D03*
X126150000Y-62580000D03*
X126150000Y-59500000D03*
X126550000Y-62580000D03*
X126550000Y-59500000D03*
X126950000Y-62580000D03*
X126950000Y-59500000D03*
X127350000Y-62580000D03*
X127350000Y-59500000D03*
X127750000Y-62580000D03*
X127750000Y-59500000D03*
X128150000Y-62580000D03*
X128150000Y-59500000D03*
X128550000Y-62580000D03*
X128550000Y-59500000D03*
X128950000Y-62580000D03*
X128950000Y-59500000D03*
X129350000Y-62580000D03*
X129350000Y-59500000D03*
X129750000Y-62580000D03*
X129750000Y-59500000D03*
X130150000Y-62580000D03*
X130150000Y-59500000D03*
X130550000Y-62580000D03*
X130550000Y-59500000D03*
X130950000Y-62580000D03*
X130950000Y-59500000D03*
X131350000Y-62580000D03*
X131350000Y-59500000D03*
X131750000Y-62580000D03*
X131750000Y-59500000D03*
X132150000Y-62580000D03*
X132150000Y-59500000D03*
X132550000Y-62580000D03*
X132550000Y-59500000D03*
X132950000Y-62580000D03*
X132950000Y-59500000D03*
X133350000Y-62580000D03*
X133350000Y-59500000D03*
X133750000Y-62580000D03*
X133750000Y-59500000D03*
X134150000Y-62580000D03*
X134150000Y-59500000D03*
X134550000Y-62580000D03*
X134550000Y-59500000D03*
X134950000Y-62580000D03*
X134950000Y-59500000D03*
X135350000Y-62580000D03*
X135350000Y-59500000D03*
X135750000Y-62580000D03*
X135750000Y-59500000D03*
X136150000Y-62580000D03*
X136150000Y-59500000D03*
X136550000Y-62580000D03*
X136550000Y-59500000D03*
X136950000Y-62580000D03*
X136950000Y-59500000D03*
X137350000Y-62580000D03*
X137350000Y-59500000D03*
X137750000Y-62580000D03*
X137750000Y-59500000D03*
X138150000Y-62580000D03*
X138150000Y-59500000D03*
X138550000Y-62580000D03*
X138550000Y-59500000D03*
X138950000Y-62580000D03*
X138950000Y-59500000D03*
X139350000Y-62580000D03*
X139350000Y-59500000D03*
X139750000Y-62580000D03*
X139750000Y-59500000D03*
X140150000Y-62580000D03*
X140150000Y-59500000D03*
X140550000Y-62580000D03*
X140550000Y-59500000D03*
X140950000Y-62580000D03*
X140950000Y-59500000D03*
X141350000Y-62580000D03*
X141350000Y-59500000D03*
X141750000Y-62580000D03*
X141750000Y-59500000D03*
X142150000Y-62580000D03*
X142150000Y-59500000D03*
X142550000Y-62580000D03*
X142550000Y-59500000D03*
D26*
X106352000Y-123110000D03*
X106352000Y-124660000D03*
D87*
X104366000Y-48702500D03*
X103416000Y-48702500D03*
X102466000Y-48702500D03*
X102466000Y-50977500D03*
X103416000Y-50977500D03*
X104366000Y-50977500D03*
D73*
X89510000Y-72485500D03*
X91410000Y-72485500D03*
X90460000Y-70610500D03*
D88*
X68579300Y-62430000D03*
X79526700Y-62430000D03*
D58*
X92638000Y-64435000D03*
X91988000Y-64435000D03*
X91338000Y-64435000D03*
X91338000Y-66335000D03*
X91988000Y-66335000D03*
X92638000Y-66335000D03*
D89*
X93990000Y-97579000D03*
D66*
X46937500Y-102750000D03*
X45062500Y-102750000D03*
M02*
