%FSLAX45Y45*%
G04 Gerber Fmt 4.5, Leading zero omitted, Abs format (unit mm)*
G04 Created by KiCad (PCBNEW 6.0.2+dfsg-1) date 2022-12-10 00:50:00*
%MOMM*%
%LPD*%
G01*
G04 APERTURE LIST*
%TA.AperFunction,Profile*%
%ADD10C,0.100000*%
%TD*%
%TA.AperFunction,Profile*%
%ADD11C,0.150000*%
%TD*%
%ADD12C,0.200000*%
%ADD13C,0.065000*%
%ADD14C,0.270000*%
%ADD15C,0.325000*%
%ADD16C,0.370000*%
G04 APERTURE END LIST*
D10*
X15800000Y-4400000D02*
X15800000Y-14300000D01*
X4000000Y-14300000D02*
X4000000Y-4400000D01*
X4400000Y-4000000D02*
X15400000Y-4000000D01*
X15400000Y-14700000D02*
X4400000Y-14700000D01*
D11*
X15400000Y-14700000D02*
G75*
G03*
X15800000Y-14300000I0J400000D01*
G01*
X4400000Y-4000000D02*
G75*
G03*
X4000000Y-4400000I0J-400000D01*
G01*
X4000000Y-14300000D02*
G75*
G03*
X4400000Y-14700000I400000J0D01*
G01*
X15800000Y-4400000D02*
G75*
G03*
X15400000Y-4000000I-400000J0D01*
G01*
D12*
D13*
X10495500Y-4462800D02*
X10560500Y-4527800D01*
X10560500Y-4462800D02*
X10495500Y-4527800D01*
X11073500Y-4462800D02*
X11138500Y-4527800D01*
X11138500Y-4462800D02*
X11073500Y-4527800D01*
D14*
X10760000Y-6150000D02*
G75*
G03*
X10760000Y-6150000I-135000J0D01*
G01*
X10760000Y-9450000D02*
G75*
G03*
X10760000Y-9450000I-135000J0D01*
G01*
X15560000Y-6150000D02*
G75*
G03*
X15560000Y-6150000I-135000J0D01*
G01*
X15560000Y-9450000D02*
G75*
G03*
X15560000Y-9450000I-135000J0D01*
G01*
D15*
X8597500Y-4745100D02*
X8597500Y-5070100D01*
X8435000Y-4907600D02*
X8760000Y-4907600D01*
X9223000Y-13786500D02*
X9223000Y-14111500D01*
X9060500Y-13949000D02*
X9385500Y-13949000D01*
X9740500Y-4745100D02*
X9740500Y-5070100D01*
X9578000Y-4907600D02*
X9903000Y-4907600D01*
X10493000Y-13786500D02*
X10493000Y-14111500D01*
X10330500Y-13949000D02*
X10655500Y-13949000D01*
X11207000Y-13786500D02*
X11207000Y-14111500D01*
X11044500Y-13949000D02*
X11369500Y-13949000D01*
X12477000Y-13786500D02*
X12477000Y-14111500D01*
X12314500Y-13949000D02*
X12639500Y-13949000D01*
D16*
X4580816Y-4580816D02*
X4580816Y-4319184D01*
X4319184Y-4319184D01*
X4319184Y-4580816D01*
X4580816Y-4580816D01*
X4580816Y-14380816D02*
X4580816Y-14119184D01*
X4319184Y-14119184D01*
X4319184Y-14380816D01*
X4580816Y-14380816D01*
X15480816Y-4580816D02*
X15480816Y-4319184D01*
X15219184Y-4319184D01*
X15219184Y-4580816D01*
X15480816Y-4580816D01*
X15480816Y-14380816D02*
X15480816Y-14119184D01*
X15219184Y-14119184D01*
X15219184Y-14380816D01*
X15480816Y-14380816D01*
D12*
X4250119Y-15017976D02*
X4250119Y-14817976D01*
X4297738Y-14817976D01*
X4326310Y-14827500D01*
X4345357Y-14846548D01*
X4354881Y-14865595D01*
X4364405Y-14903690D01*
X4364405Y-14932262D01*
X4354881Y-14970357D01*
X4345357Y-14989405D01*
X4326310Y-15008452D01*
X4297738Y-15017976D01*
X4250119Y-15017976D01*
X4450119Y-15017976D02*
X4450119Y-14884643D01*
X4450119Y-14922738D02*
X4459643Y-14903690D01*
X4469167Y-14894167D01*
X4488214Y-14884643D01*
X4507262Y-14884643D01*
X4573929Y-15017976D02*
X4573929Y-14884643D01*
X4573929Y-14817976D02*
X4564405Y-14827500D01*
X4573929Y-14837024D01*
X4583452Y-14827500D01*
X4573929Y-14817976D01*
X4573929Y-14837024D01*
X4697738Y-15017976D02*
X4678690Y-15008452D01*
X4669167Y-14989405D01*
X4669167Y-14817976D01*
X4802500Y-15017976D02*
X4783452Y-15008452D01*
X4773929Y-14989405D01*
X4773929Y-14817976D01*
X5031071Y-15017976D02*
X5031071Y-14817976D01*
X5097738Y-14960833D01*
X5164405Y-14817976D01*
X5164405Y-15017976D01*
X5345357Y-15017976D02*
X5345357Y-14913214D01*
X5335833Y-14894167D01*
X5316786Y-14884643D01*
X5278690Y-14884643D01*
X5259643Y-14894167D01*
X5345357Y-15008452D02*
X5326310Y-15017976D01*
X5278690Y-15017976D01*
X5259643Y-15008452D01*
X5250119Y-14989405D01*
X5250119Y-14970357D01*
X5259643Y-14951309D01*
X5278690Y-14941786D01*
X5326310Y-14941786D01*
X5345357Y-14932262D01*
X5440595Y-14884643D02*
X5440595Y-15084643D01*
X5440595Y-14894167D02*
X5459643Y-14884643D01*
X5497738Y-14884643D01*
X5516786Y-14894167D01*
X5526310Y-14903690D01*
X5535833Y-14922738D01*
X5535833Y-14979881D01*
X5526310Y-14998928D01*
X5516786Y-15008452D01*
X5497738Y-15017976D01*
X5459643Y-15017976D01*
X5440595Y-15008452D01*
X5621548Y-14998928D02*
X5631071Y-15008452D01*
X5621548Y-15017976D01*
X5612024Y-15008452D01*
X5621548Y-14998928D01*
X5621548Y-15017976D01*
X5621548Y-14894167D02*
X5631071Y-14903690D01*
X5621548Y-14913214D01*
X5612024Y-14903690D01*
X5621548Y-14894167D01*
X5621548Y-14913214D01*
D13*
X3927500Y-15315000D02*
X3992500Y-15380000D01*
X3992500Y-15315000D02*
X3927500Y-15380000D01*
D12*
X4288214Y-15237976D02*
X4307262Y-15237976D01*
X4326310Y-15247500D01*
X4335833Y-15257024D01*
X4345357Y-15276071D01*
X4354881Y-15314167D01*
X4354881Y-15361786D01*
X4345357Y-15399881D01*
X4335833Y-15418928D01*
X4326310Y-15428452D01*
X4307262Y-15437976D01*
X4288214Y-15437976D01*
X4269167Y-15428452D01*
X4259643Y-15418928D01*
X4250119Y-15399881D01*
X4240595Y-15361786D01*
X4240595Y-15314167D01*
X4250119Y-15276071D01*
X4259643Y-15257024D01*
X4269167Y-15247500D01*
X4288214Y-15237976D01*
X4440595Y-15418928D02*
X4450119Y-15428452D01*
X4440595Y-15437976D01*
X4431071Y-15428452D01*
X4440595Y-15418928D01*
X4440595Y-15437976D01*
X4621548Y-15237976D02*
X4583452Y-15237976D01*
X4564405Y-15247500D01*
X4554881Y-15257024D01*
X4535833Y-15285595D01*
X4526310Y-15323690D01*
X4526310Y-15399881D01*
X4535833Y-15418928D01*
X4545357Y-15428452D01*
X4564405Y-15437976D01*
X4602500Y-15437976D01*
X4621548Y-15428452D01*
X4631071Y-15418928D01*
X4640595Y-15399881D01*
X4640595Y-15352262D01*
X4631071Y-15333214D01*
X4621548Y-15323690D01*
X4602500Y-15314167D01*
X4564405Y-15314167D01*
X4545357Y-15323690D01*
X4535833Y-15333214D01*
X4526310Y-15352262D01*
X4821548Y-15237976D02*
X4726310Y-15237976D01*
X4716786Y-15333214D01*
X4726310Y-15323690D01*
X4745357Y-15314167D01*
X4792976Y-15314167D01*
X4812024Y-15323690D01*
X4821548Y-15333214D01*
X4831071Y-15352262D01*
X4831071Y-15399881D01*
X4821548Y-15418928D01*
X4812024Y-15428452D01*
X4792976Y-15437976D01*
X4745357Y-15437976D01*
X4726310Y-15428452D01*
X4716786Y-15418928D01*
X4954881Y-15237976D02*
X4973929Y-15237976D01*
X4992976Y-15247500D01*
X5002500Y-15257024D01*
X5012024Y-15276071D01*
X5021548Y-15314167D01*
X5021548Y-15361786D01*
X5012024Y-15399881D01*
X5002500Y-15418928D01*
X4992976Y-15428452D01*
X4973929Y-15437976D01*
X4954881Y-15437976D01*
X4935833Y-15428452D01*
X4926310Y-15418928D01*
X4916786Y-15399881D01*
X4907262Y-15361786D01*
X4907262Y-15314167D01*
X4916786Y-15276071D01*
X4926310Y-15257024D01*
X4935833Y-15247500D01*
X4954881Y-15237976D01*
X5107262Y-15437976D02*
X5107262Y-15304643D01*
X5107262Y-15323690D02*
X5116786Y-15314167D01*
X5135833Y-15304643D01*
X5164405Y-15304643D01*
X5183452Y-15314167D01*
X5192976Y-15333214D01*
X5192976Y-15437976D01*
X5192976Y-15333214D02*
X5202500Y-15314167D01*
X5221548Y-15304643D01*
X5250119Y-15304643D01*
X5269167Y-15314167D01*
X5278690Y-15333214D01*
X5278690Y-15437976D01*
X5373929Y-15437976D02*
X5373929Y-15304643D01*
X5373929Y-15323690D02*
X5383452Y-15314167D01*
X5402500Y-15304643D01*
X5431071Y-15304643D01*
X5450119Y-15314167D01*
X5459643Y-15333214D01*
X5459643Y-15437976D01*
X5459643Y-15333214D02*
X5469167Y-15314167D01*
X5488214Y-15304643D01*
X5516786Y-15304643D01*
X5535833Y-15314167D01*
X5545357Y-15333214D01*
X5545357Y-15437976D01*
X5935833Y-15228452D02*
X5764405Y-15485595D01*
X6192976Y-15237976D02*
X6212024Y-15237976D01*
X6231071Y-15247500D01*
X6240595Y-15257024D01*
X6250119Y-15276071D01*
X6259643Y-15314167D01*
X6259643Y-15361786D01*
X6250119Y-15399881D01*
X6240595Y-15418928D01*
X6231071Y-15428452D01*
X6212024Y-15437976D01*
X6192976Y-15437976D01*
X6173928Y-15428452D01*
X6164405Y-15418928D01*
X6154881Y-15399881D01*
X6145357Y-15361786D01*
X6145357Y-15314167D01*
X6154881Y-15276071D01*
X6164405Y-15257024D01*
X6173928Y-15247500D01*
X6192976Y-15237976D01*
X6345357Y-15418928D02*
X6354881Y-15428452D01*
X6345357Y-15437976D01*
X6335833Y-15428452D01*
X6345357Y-15418928D01*
X6345357Y-15437976D01*
X6478690Y-15237976D02*
X6497738Y-15237976D01*
X6516786Y-15247500D01*
X6526309Y-15257024D01*
X6535833Y-15276071D01*
X6545357Y-15314167D01*
X6545357Y-15361786D01*
X6535833Y-15399881D01*
X6526309Y-15418928D01*
X6516786Y-15428452D01*
X6497738Y-15437976D01*
X6478690Y-15437976D01*
X6459643Y-15428452D01*
X6450119Y-15418928D01*
X6440595Y-15399881D01*
X6431071Y-15361786D01*
X6431071Y-15314167D01*
X6440595Y-15276071D01*
X6450119Y-15257024D01*
X6459643Y-15247500D01*
X6478690Y-15237976D01*
X6621548Y-15257024D02*
X6631071Y-15247500D01*
X6650119Y-15237976D01*
X6697738Y-15237976D01*
X6716786Y-15247500D01*
X6726309Y-15257024D01*
X6735833Y-15276071D01*
X6735833Y-15295119D01*
X6726309Y-15323690D01*
X6612024Y-15437976D01*
X6735833Y-15437976D01*
X6916786Y-15237976D02*
X6821548Y-15237976D01*
X6812024Y-15333214D01*
X6821548Y-15323690D01*
X6840595Y-15314167D01*
X6888214Y-15314167D01*
X6907262Y-15323690D01*
X6916786Y-15333214D01*
X6926309Y-15352262D01*
X6926309Y-15399881D01*
X6916786Y-15418928D01*
X6907262Y-15428452D01*
X6888214Y-15437976D01*
X6840595Y-15437976D01*
X6821548Y-15428452D01*
X6812024Y-15418928D01*
X7097738Y-15237976D02*
X7059643Y-15237976D01*
X7040595Y-15247500D01*
X7031071Y-15257024D01*
X7012024Y-15285595D01*
X7002500Y-15323690D01*
X7002500Y-15399881D01*
X7012024Y-15418928D01*
X7021548Y-15428452D01*
X7040595Y-15437976D01*
X7078690Y-15437976D01*
X7097738Y-15428452D01*
X7107262Y-15418928D01*
X7116786Y-15399881D01*
X7116786Y-15352262D01*
X7107262Y-15333214D01*
X7097738Y-15323690D01*
X7078690Y-15314167D01*
X7040595Y-15314167D01*
X7021548Y-15323690D01*
X7012024Y-15333214D01*
X7002500Y-15352262D01*
X7192976Y-15237976D02*
X7192976Y-15276071D01*
X7269167Y-15237976D02*
X7269167Y-15276071D01*
X7564405Y-15514167D02*
X7554881Y-15504643D01*
X7535833Y-15476071D01*
X7526309Y-15457024D01*
X7516786Y-15428452D01*
X7507262Y-15380833D01*
X7507262Y-15342738D01*
X7516786Y-15295119D01*
X7526309Y-15266548D01*
X7535833Y-15247500D01*
X7554881Y-15218928D01*
X7564405Y-15209405D01*
X7631071Y-15257024D02*
X7640595Y-15247500D01*
X7659643Y-15237976D01*
X7707262Y-15237976D01*
X7726309Y-15247500D01*
X7735833Y-15257024D01*
X7745357Y-15276071D01*
X7745357Y-15295119D01*
X7735833Y-15323690D01*
X7621548Y-15437976D01*
X7745357Y-15437976D01*
X7983452Y-15437976D02*
X7983452Y-15237976D01*
X8069167Y-15437976D02*
X8069167Y-15333214D01*
X8059643Y-15314167D01*
X8040595Y-15304643D01*
X8012024Y-15304643D01*
X7992976Y-15314167D01*
X7983452Y-15323690D01*
X8192976Y-15437976D02*
X8173928Y-15428452D01*
X8164405Y-15418928D01*
X8154881Y-15399881D01*
X8154881Y-15342738D01*
X8164405Y-15323690D01*
X8173928Y-15314167D01*
X8192976Y-15304643D01*
X8221548Y-15304643D01*
X8240595Y-15314167D01*
X8250119Y-15323690D01*
X8259643Y-15342738D01*
X8259643Y-15399881D01*
X8250119Y-15418928D01*
X8240595Y-15428452D01*
X8221548Y-15437976D01*
X8192976Y-15437976D01*
X8373928Y-15437976D02*
X8354881Y-15428452D01*
X8345357Y-15409405D01*
X8345357Y-15237976D01*
X8526310Y-15428452D02*
X8507262Y-15437976D01*
X8469167Y-15437976D01*
X8450119Y-15428452D01*
X8440595Y-15409405D01*
X8440595Y-15333214D01*
X8450119Y-15314167D01*
X8469167Y-15304643D01*
X8507262Y-15304643D01*
X8526310Y-15314167D01*
X8535833Y-15333214D01*
X8535833Y-15352262D01*
X8440595Y-15371309D01*
X8612024Y-15428452D02*
X8631071Y-15437976D01*
X8669167Y-15437976D01*
X8688214Y-15428452D01*
X8697738Y-15409405D01*
X8697738Y-15399881D01*
X8688214Y-15380833D01*
X8669167Y-15371309D01*
X8640595Y-15371309D01*
X8621548Y-15361786D01*
X8612024Y-15342738D01*
X8612024Y-15333214D01*
X8621548Y-15314167D01*
X8640595Y-15304643D01*
X8669167Y-15304643D01*
X8688214Y-15314167D01*
X8764405Y-15514167D02*
X8773929Y-15504643D01*
X8792976Y-15476071D01*
X8802500Y-15457024D01*
X8812024Y-15428452D01*
X8821548Y-15380833D01*
X8821548Y-15342738D01*
X8812024Y-15295119D01*
X8802500Y-15266548D01*
X8792976Y-15247500D01*
X8773929Y-15218928D01*
X8764405Y-15209405D01*
X9126310Y-15514167D02*
X9116786Y-15504643D01*
X9097738Y-15476071D01*
X9088214Y-15457024D01*
X9078690Y-15428452D01*
X9069167Y-15380833D01*
X9069167Y-15342738D01*
X9078690Y-15295119D01*
X9088214Y-15266548D01*
X9097738Y-15247500D01*
X9116786Y-15218928D01*
X9126310Y-15209405D01*
X9202500Y-15304643D02*
X9202500Y-15437976D01*
X9202500Y-15323690D02*
X9212024Y-15314167D01*
X9231071Y-15304643D01*
X9259643Y-15304643D01*
X9278690Y-15314167D01*
X9288214Y-15333214D01*
X9288214Y-15437976D01*
X9412024Y-15437976D02*
X9392976Y-15428452D01*
X9383452Y-15418928D01*
X9373929Y-15399881D01*
X9373929Y-15342738D01*
X9383452Y-15323690D01*
X9392976Y-15314167D01*
X9412024Y-15304643D01*
X9440595Y-15304643D01*
X9459643Y-15314167D01*
X9469167Y-15323690D01*
X9478690Y-15342738D01*
X9478690Y-15399881D01*
X9469167Y-15418928D01*
X9459643Y-15428452D01*
X9440595Y-15437976D01*
X9412024Y-15437976D01*
X9535833Y-15304643D02*
X9612024Y-15304643D01*
X9564405Y-15237976D02*
X9564405Y-15409405D01*
X9573929Y-15428452D01*
X9592976Y-15437976D01*
X9612024Y-15437976D01*
X9831071Y-15304643D02*
X9831071Y-15504643D01*
X9831071Y-15314167D02*
X9850119Y-15304643D01*
X9888214Y-15304643D01*
X9907262Y-15314167D01*
X9916786Y-15323690D01*
X9926310Y-15342738D01*
X9926310Y-15399881D01*
X9916786Y-15418928D01*
X9907262Y-15428452D01*
X9888214Y-15437976D01*
X9850119Y-15437976D01*
X9831071Y-15428452D01*
X10040595Y-15437976D02*
X10021548Y-15428452D01*
X10012024Y-15409405D01*
X10012024Y-15237976D01*
X10202500Y-15437976D02*
X10202500Y-15333214D01*
X10192976Y-15314167D01*
X10173929Y-15304643D01*
X10135833Y-15304643D01*
X10116786Y-15314167D01*
X10202500Y-15428452D02*
X10183452Y-15437976D01*
X10135833Y-15437976D01*
X10116786Y-15428452D01*
X10107262Y-15409405D01*
X10107262Y-15390357D01*
X10116786Y-15371309D01*
X10135833Y-15361786D01*
X10183452Y-15361786D01*
X10202500Y-15352262D01*
X10269167Y-15304643D02*
X10345357Y-15304643D01*
X10297738Y-15237976D02*
X10297738Y-15409405D01*
X10307262Y-15428452D01*
X10326310Y-15437976D01*
X10345357Y-15437976D01*
X10488214Y-15428452D02*
X10469167Y-15437976D01*
X10431071Y-15437976D01*
X10412024Y-15428452D01*
X10402500Y-15409405D01*
X10402500Y-15333214D01*
X10412024Y-15314167D01*
X10431071Y-15304643D01*
X10469167Y-15304643D01*
X10488214Y-15314167D01*
X10497738Y-15333214D01*
X10497738Y-15352262D01*
X10402500Y-15371309D01*
X10669167Y-15437976D02*
X10669167Y-15237976D01*
X10669167Y-15428452D02*
X10650119Y-15437976D01*
X10612024Y-15437976D01*
X10592976Y-15428452D01*
X10583452Y-15418928D01*
X10573929Y-15399881D01*
X10573929Y-15342738D01*
X10583452Y-15323690D01*
X10592976Y-15314167D01*
X10612024Y-15304643D01*
X10650119Y-15304643D01*
X10669167Y-15314167D01*
X10745357Y-15514167D02*
X10754881Y-15504643D01*
X10773929Y-15476071D01*
X10783452Y-15457024D01*
X10792976Y-15428452D01*
X10802500Y-15380833D01*
X10802500Y-15342738D01*
X10792976Y-15295119D01*
X10783452Y-15266548D01*
X10773929Y-15247500D01*
X10754881Y-15218928D01*
X10745357Y-15209405D01*
X3992500Y-15611500D02*
G75*
G03*
X3992500Y-15611500I-100000J0D01*
G01*
X4240595Y-15521024D02*
X4250119Y-15511500D01*
X4269167Y-15501976D01*
X4316786Y-15501976D01*
X4335833Y-15511500D01*
X4345357Y-15521024D01*
X4354881Y-15540071D01*
X4354881Y-15559119D01*
X4345357Y-15587690D01*
X4231071Y-15701976D01*
X4354881Y-15701976D01*
X4440595Y-15682928D02*
X4450119Y-15692452D01*
X4440595Y-15701976D01*
X4431071Y-15692452D01*
X4440595Y-15682928D01*
X4440595Y-15701976D01*
X4516786Y-15501976D02*
X4650119Y-15501976D01*
X4564405Y-15701976D01*
X4764405Y-15501976D02*
X4783452Y-15501976D01*
X4802500Y-15511500D01*
X4812024Y-15521024D01*
X4821548Y-15540071D01*
X4831071Y-15578167D01*
X4831071Y-15625786D01*
X4821548Y-15663881D01*
X4812024Y-15682928D01*
X4802500Y-15692452D01*
X4783452Y-15701976D01*
X4764405Y-15701976D01*
X4745357Y-15692452D01*
X4735833Y-15682928D01*
X4726310Y-15663881D01*
X4716786Y-15625786D01*
X4716786Y-15578167D01*
X4726310Y-15540071D01*
X4735833Y-15521024D01*
X4745357Y-15511500D01*
X4764405Y-15501976D01*
X4954881Y-15501976D02*
X4973929Y-15501976D01*
X4992976Y-15511500D01*
X5002500Y-15521024D01*
X5012024Y-15540071D01*
X5021548Y-15578167D01*
X5021548Y-15625786D01*
X5012024Y-15663881D01*
X5002500Y-15682928D01*
X4992976Y-15692452D01*
X4973929Y-15701976D01*
X4954881Y-15701976D01*
X4935833Y-15692452D01*
X4926310Y-15682928D01*
X4916786Y-15663881D01*
X4907262Y-15625786D01*
X4907262Y-15578167D01*
X4916786Y-15540071D01*
X4926310Y-15521024D01*
X4935833Y-15511500D01*
X4954881Y-15501976D01*
X5107262Y-15701976D02*
X5107262Y-15568643D01*
X5107262Y-15587690D02*
X5116786Y-15578167D01*
X5135833Y-15568643D01*
X5164405Y-15568643D01*
X5183452Y-15578167D01*
X5192976Y-15597214D01*
X5192976Y-15701976D01*
X5192976Y-15597214D02*
X5202500Y-15578167D01*
X5221548Y-15568643D01*
X5250119Y-15568643D01*
X5269167Y-15578167D01*
X5278690Y-15597214D01*
X5278690Y-15701976D01*
X5373929Y-15701976D02*
X5373929Y-15568643D01*
X5373929Y-15587690D02*
X5383452Y-15578167D01*
X5402500Y-15568643D01*
X5431071Y-15568643D01*
X5450119Y-15578167D01*
X5459643Y-15597214D01*
X5459643Y-15701976D01*
X5459643Y-15597214D02*
X5469167Y-15578167D01*
X5488214Y-15568643D01*
X5516786Y-15568643D01*
X5535833Y-15578167D01*
X5545357Y-15597214D01*
X5545357Y-15701976D01*
X5935833Y-15492452D02*
X5764405Y-15749595D01*
X6192976Y-15501976D02*
X6212024Y-15501976D01*
X6231071Y-15511500D01*
X6240595Y-15521024D01*
X6250119Y-15540071D01*
X6259643Y-15578167D01*
X6259643Y-15625786D01*
X6250119Y-15663881D01*
X6240595Y-15682928D01*
X6231071Y-15692452D01*
X6212024Y-15701976D01*
X6192976Y-15701976D01*
X6173928Y-15692452D01*
X6164405Y-15682928D01*
X6154881Y-15663881D01*
X6145357Y-15625786D01*
X6145357Y-15578167D01*
X6154881Y-15540071D01*
X6164405Y-15521024D01*
X6173928Y-15511500D01*
X6192976Y-15501976D01*
X6345357Y-15682928D02*
X6354881Y-15692452D01*
X6345357Y-15701976D01*
X6335833Y-15692452D01*
X6345357Y-15682928D01*
X6345357Y-15701976D01*
X6545357Y-15701976D02*
X6431071Y-15701976D01*
X6488214Y-15701976D02*
X6488214Y-15501976D01*
X6469167Y-15530548D01*
X6450119Y-15549595D01*
X6431071Y-15559119D01*
X6669167Y-15501976D02*
X6688214Y-15501976D01*
X6707262Y-15511500D01*
X6716786Y-15521024D01*
X6726309Y-15540071D01*
X6735833Y-15578167D01*
X6735833Y-15625786D01*
X6726309Y-15663881D01*
X6716786Y-15682928D01*
X6707262Y-15692452D01*
X6688214Y-15701976D01*
X6669167Y-15701976D01*
X6650119Y-15692452D01*
X6640595Y-15682928D01*
X6631071Y-15663881D01*
X6621548Y-15625786D01*
X6621548Y-15578167D01*
X6631071Y-15540071D01*
X6640595Y-15521024D01*
X6650119Y-15511500D01*
X6669167Y-15501976D01*
X6907262Y-15501976D02*
X6869167Y-15501976D01*
X6850119Y-15511500D01*
X6840595Y-15521024D01*
X6821548Y-15549595D01*
X6812024Y-15587690D01*
X6812024Y-15663881D01*
X6821548Y-15682928D01*
X6831071Y-15692452D01*
X6850119Y-15701976D01*
X6888214Y-15701976D01*
X6907262Y-15692452D01*
X6916786Y-15682928D01*
X6926309Y-15663881D01*
X6926309Y-15616262D01*
X6916786Y-15597214D01*
X6907262Y-15587690D01*
X6888214Y-15578167D01*
X6850119Y-15578167D01*
X6831071Y-15587690D01*
X6821548Y-15597214D01*
X6812024Y-15616262D01*
X6992976Y-15501976D02*
X7116786Y-15501976D01*
X7050119Y-15578167D01*
X7078690Y-15578167D01*
X7097738Y-15587690D01*
X7107262Y-15597214D01*
X7116786Y-15616262D01*
X7116786Y-15663881D01*
X7107262Y-15682928D01*
X7097738Y-15692452D01*
X7078690Y-15701976D01*
X7021548Y-15701976D01*
X7002500Y-15692452D01*
X6992976Y-15682928D01*
X7192976Y-15501976D02*
X7192976Y-15540071D01*
X7269167Y-15501976D02*
X7269167Y-15540071D01*
X7564405Y-15778167D02*
X7554881Y-15768643D01*
X7535833Y-15740071D01*
X7526309Y-15721024D01*
X7516786Y-15692452D01*
X7507262Y-15644833D01*
X7507262Y-15606738D01*
X7516786Y-15559119D01*
X7526309Y-15530548D01*
X7535833Y-15511500D01*
X7554881Y-15482928D01*
X7564405Y-15473405D01*
X7726309Y-15568643D02*
X7726309Y-15701976D01*
X7678690Y-15492452D02*
X7631071Y-15635309D01*
X7754881Y-15635309D01*
X7983452Y-15701976D02*
X7983452Y-15501976D01*
X8069167Y-15701976D02*
X8069167Y-15597214D01*
X8059643Y-15578167D01*
X8040595Y-15568643D01*
X8012024Y-15568643D01*
X7992976Y-15578167D01*
X7983452Y-15587690D01*
X8192976Y-15701976D02*
X8173928Y-15692452D01*
X8164405Y-15682928D01*
X8154881Y-15663881D01*
X8154881Y-15606738D01*
X8164405Y-15587690D01*
X8173928Y-15578167D01*
X8192976Y-15568643D01*
X8221548Y-15568643D01*
X8240595Y-15578167D01*
X8250119Y-15587690D01*
X8259643Y-15606738D01*
X8259643Y-15663881D01*
X8250119Y-15682928D01*
X8240595Y-15692452D01*
X8221548Y-15701976D01*
X8192976Y-15701976D01*
X8373928Y-15701976D02*
X8354881Y-15692452D01*
X8345357Y-15673405D01*
X8345357Y-15501976D01*
X8526310Y-15692452D02*
X8507262Y-15701976D01*
X8469167Y-15701976D01*
X8450119Y-15692452D01*
X8440595Y-15673405D01*
X8440595Y-15597214D01*
X8450119Y-15578167D01*
X8469167Y-15568643D01*
X8507262Y-15568643D01*
X8526310Y-15578167D01*
X8535833Y-15597214D01*
X8535833Y-15616262D01*
X8440595Y-15635309D01*
X8612024Y-15692452D02*
X8631071Y-15701976D01*
X8669167Y-15701976D01*
X8688214Y-15692452D01*
X8697738Y-15673405D01*
X8697738Y-15663881D01*
X8688214Y-15644833D01*
X8669167Y-15635309D01*
X8640595Y-15635309D01*
X8621548Y-15625786D01*
X8612024Y-15606738D01*
X8612024Y-15597214D01*
X8621548Y-15578167D01*
X8640595Y-15568643D01*
X8669167Y-15568643D01*
X8688214Y-15578167D01*
X8764405Y-15778167D02*
X8773929Y-15768643D01*
X8792976Y-15740071D01*
X8802500Y-15721024D01*
X8812024Y-15692452D01*
X8821548Y-15644833D01*
X8821548Y-15606738D01*
X8812024Y-15559119D01*
X8802500Y-15530548D01*
X8792976Y-15511500D01*
X8773929Y-15482928D01*
X8764405Y-15473405D01*
X9126310Y-15778167D02*
X9116786Y-15768643D01*
X9097738Y-15740071D01*
X9088214Y-15721024D01*
X9078690Y-15692452D01*
X9069167Y-15644833D01*
X9069167Y-15606738D01*
X9078690Y-15559119D01*
X9088214Y-15530548D01*
X9097738Y-15511500D01*
X9116786Y-15482928D01*
X9126310Y-15473405D01*
X9202500Y-15568643D02*
X9202500Y-15701976D01*
X9202500Y-15587690D02*
X9212024Y-15578167D01*
X9231071Y-15568643D01*
X9259643Y-15568643D01*
X9278690Y-15578167D01*
X9288214Y-15597214D01*
X9288214Y-15701976D01*
X9412024Y-15701976D02*
X9392976Y-15692452D01*
X9383452Y-15682928D01*
X9373929Y-15663881D01*
X9373929Y-15606738D01*
X9383452Y-15587690D01*
X9392976Y-15578167D01*
X9412024Y-15568643D01*
X9440595Y-15568643D01*
X9459643Y-15578167D01*
X9469167Y-15587690D01*
X9478690Y-15606738D01*
X9478690Y-15663881D01*
X9469167Y-15682928D01*
X9459643Y-15692452D01*
X9440595Y-15701976D01*
X9412024Y-15701976D01*
X9535833Y-15568643D02*
X9612024Y-15568643D01*
X9564405Y-15501976D02*
X9564405Y-15673405D01*
X9573929Y-15692452D01*
X9592976Y-15701976D01*
X9612024Y-15701976D01*
X9831071Y-15568643D02*
X9831071Y-15768643D01*
X9831071Y-15578167D02*
X9850119Y-15568643D01*
X9888214Y-15568643D01*
X9907262Y-15578167D01*
X9916786Y-15587690D01*
X9926310Y-15606738D01*
X9926310Y-15663881D01*
X9916786Y-15682928D01*
X9907262Y-15692452D01*
X9888214Y-15701976D01*
X9850119Y-15701976D01*
X9831071Y-15692452D01*
X10040595Y-15701976D02*
X10021548Y-15692452D01*
X10012024Y-15673405D01*
X10012024Y-15501976D01*
X10202500Y-15701976D02*
X10202500Y-15597214D01*
X10192976Y-15578167D01*
X10173929Y-15568643D01*
X10135833Y-15568643D01*
X10116786Y-15578167D01*
X10202500Y-15692452D02*
X10183452Y-15701976D01*
X10135833Y-15701976D01*
X10116786Y-15692452D01*
X10107262Y-15673405D01*
X10107262Y-15654357D01*
X10116786Y-15635309D01*
X10135833Y-15625786D01*
X10183452Y-15625786D01*
X10202500Y-15616262D01*
X10269167Y-15568643D02*
X10345357Y-15568643D01*
X10297738Y-15501976D02*
X10297738Y-15673405D01*
X10307262Y-15692452D01*
X10326310Y-15701976D01*
X10345357Y-15701976D01*
X10488214Y-15692452D02*
X10469167Y-15701976D01*
X10431071Y-15701976D01*
X10412024Y-15692452D01*
X10402500Y-15673405D01*
X10402500Y-15597214D01*
X10412024Y-15578167D01*
X10431071Y-15568643D01*
X10469167Y-15568643D01*
X10488214Y-15578167D01*
X10497738Y-15597214D01*
X10497738Y-15616262D01*
X10402500Y-15635309D01*
X10669167Y-15701976D02*
X10669167Y-15501976D01*
X10669167Y-15692452D02*
X10650119Y-15701976D01*
X10612024Y-15701976D01*
X10592976Y-15692452D01*
X10583452Y-15682928D01*
X10573929Y-15663881D01*
X10573929Y-15606738D01*
X10583452Y-15587690D01*
X10592976Y-15578167D01*
X10612024Y-15568643D01*
X10650119Y-15568643D01*
X10669167Y-15578167D01*
X10745357Y-15778167D02*
X10754881Y-15768643D01*
X10773929Y-15740071D01*
X10783452Y-15721024D01*
X10792976Y-15692452D01*
X10802500Y-15644833D01*
X10802500Y-15606738D01*
X10792976Y-15559119D01*
X10783452Y-15530548D01*
X10773929Y-15511500D01*
X10754881Y-15482928D01*
X10745357Y-15473405D01*
X3892500Y-15831500D02*
X3892500Y-16031500D01*
X3792500Y-15931500D02*
X3992500Y-15931500D01*
X4231071Y-15821976D02*
X4354881Y-15821976D01*
X4288214Y-15898167D01*
X4316786Y-15898167D01*
X4335833Y-15907690D01*
X4345357Y-15917214D01*
X4354881Y-15936262D01*
X4354881Y-15983881D01*
X4345357Y-16002928D01*
X4335833Y-16012452D01*
X4316786Y-16021976D01*
X4259643Y-16021976D01*
X4240595Y-16012452D01*
X4231071Y-16002928D01*
X4440595Y-16002928D02*
X4450119Y-16012452D01*
X4440595Y-16021976D01*
X4431071Y-16012452D01*
X4440595Y-16002928D01*
X4440595Y-16021976D01*
X4526310Y-15841024D02*
X4535833Y-15831500D01*
X4554881Y-15821976D01*
X4602500Y-15821976D01*
X4621548Y-15831500D01*
X4631071Y-15841024D01*
X4640595Y-15860071D01*
X4640595Y-15879119D01*
X4631071Y-15907690D01*
X4516786Y-16021976D01*
X4640595Y-16021976D01*
X4821548Y-15821976D02*
X4726310Y-15821976D01*
X4716786Y-15917214D01*
X4726310Y-15907690D01*
X4745357Y-15898167D01*
X4792976Y-15898167D01*
X4812024Y-15907690D01*
X4821548Y-15917214D01*
X4831071Y-15936262D01*
X4831071Y-15983881D01*
X4821548Y-16002928D01*
X4812024Y-16012452D01*
X4792976Y-16021976D01*
X4745357Y-16021976D01*
X4726310Y-16012452D01*
X4716786Y-16002928D01*
X4954881Y-15821976D02*
X4973929Y-15821976D01*
X4992976Y-15831500D01*
X5002500Y-15841024D01*
X5012024Y-15860071D01*
X5021548Y-15898167D01*
X5021548Y-15945786D01*
X5012024Y-15983881D01*
X5002500Y-16002928D01*
X4992976Y-16012452D01*
X4973929Y-16021976D01*
X4954881Y-16021976D01*
X4935833Y-16012452D01*
X4926310Y-16002928D01*
X4916786Y-15983881D01*
X4907262Y-15945786D01*
X4907262Y-15898167D01*
X4916786Y-15860071D01*
X4926310Y-15841024D01*
X4935833Y-15831500D01*
X4954881Y-15821976D01*
X5107262Y-16021976D02*
X5107262Y-15888643D01*
X5107262Y-15907690D02*
X5116786Y-15898167D01*
X5135833Y-15888643D01*
X5164405Y-15888643D01*
X5183452Y-15898167D01*
X5192976Y-15917214D01*
X5192976Y-16021976D01*
X5192976Y-15917214D02*
X5202500Y-15898167D01*
X5221548Y-15888643D01*
X5250119Y-15888643D01*
X5269167Y-15898167D01*
X5278690Y-15917214D01*
X5278690Y-16021976D01*
X5373929Y-16021976D02*
X5373929Y-15888643D01*
X5373929Y-15907690D02*
X5383452Y-15898167D01*
X5402500Y-15888643D01*
X5431071Y-15888643D01*
X5450119Y-15898167D01*
X5459643Y-15917214D01*
X5459643Y-16021976D01*
X5459643Y-15917214D02*
X5469167Y-15898167D01*
X5488214Y-15888643D01*
X5516786Y-15888643D01*
X5535833Y-15898167D01*
X5545357Y-15917214D01*
X5545357Y-16021976D01*
X5935833Y-15812452D02*
X5764405Y-16069595D01*
X6192976Y-15821976D02*
X6212024Y-15821976D01*
X6231071Y-15831500D01*
X6240595Y-15841024D01*
X6250119Y-15860071D01*
X6259643Y-15898167D01*
X6259643Y-15945786D01*
X6250119Y-15983881D01*
X6240595Y-16002928D01*
X6231071Y-16012452D01*
X6212024Y-16021976D01*
X6192976Y-16021976D01*
X6173928Y-16012452D01*
X6164405Y-16002928D01*
X6154881Y-15983881D01*
X6145357Y-15945786D01*
X6145357Y-15898167D01*
X6154881Y-15860071D01*
X6164405Y-15841024D01*
X6173928Y-15831500D01*
X6192976Y-15821976D01*
X6345357Y-16002928D02*
X6354881Y-16012452D01*
X6345357Y-16021976D01*
X6335833Y-16012452D01*
X6345357Y-16002928D01*
X6345357Y-16021976D01*
X6545357Y-16021976D02*
X6431071Y-16021976D01*
X6488214Y-16021976D02*
X6488214Y-15821976D01*
X6469167Y-15850548D01*
X6450119Y-15869595D01*
X6431071Y-15879119D01*
X6621548Y-15841024D02*
X6631071Y-15831500D01*
X6650119Y-15821976D01*
X6697738Y-15821976D01*
X6716786Y-15831500D01*
X6726309Y-15841024D01*
X6735833Y-15860071D01*
X6735833Y-15879119D01*
X6726309Y-15907690D01*
X6612024Y-16021976D01*
X6735833Y-16021976D01*
X6850119Y-15907690D02*
X6831071Y-15898167D01*
X6821548Y-15888643D01*
X6812024Y-15869595D01*
X6812024Y-15860071D01*
X6821548Y-15841024D01*
X6831071Y-15831500D01*
X6850119Y-15821976D01*
X6888214Y-15821976D01*
X6907262Y-15831500D01*
X6916786Y-15841024D01*
X6926309Y-15860071D01*
X6926309Y-15869595D01*
X6916786Y-15888643D01*
X6907262Y-15898167D01*
X6888214Y-15907690D01*
X6850119Y-15907690D01*
X6831071Y-15917214D01*
X6821548Y-15926738D01*
X6812024Y-15945786D01*
X6812024Y-15983881D01*
X6821548Y-16002928D01*
X6831071Y-16012452D01*
X6850119Y-16021976D01*
X6888214Y-16021976D01*
X6907262Y-16012452D01*
X6916786Y-16002928D01*
X6926309Y-15983881D01*
X6926309Y-15945786D01*
X6916786Y-15926738D01*
X6907262Y-15917214D01*
X6888214Y-15907690D01*
X7050119Y-15821976D02*
X7069167Y-15821976D01*
X7088214Y-15831500D01*
X7097738Y-15841024D01*
X7107262Y-15860071D01*
X7116786Y-15898167D01*
X7116786Y-15945786D01*
X7107262Y-15983881D01*
X7097738Y-16002928D01*
X7088214Y-16012452D01*
X7069167Y-16021976D01*
X7050119Y-16021976D01*
X7031071Y-16012452D01*
X7021548Y-16002928D01*
X7012024Y-15983881D01*
X7002500Y-15945786D01*
X7002500Y-15898167D01*
X7012024Y-15860071D01*
X7021548Y-15841024D01*
X7031071Y-15831500D01*
X7050119Y-15821976D01*
X7192976Y-15821976D02*
X7192976Y-15860071D01*
X7269167Y-15821976D02*
X7269167Y-15860071D01*
X7564405Y-16098167D02*
X7554881Y-16088643D01*
X7535833Y-16060071D01*
X7526309Y-16041024D01*
X7516786Y-16012452D01*
X7507262Y-15964833D01*
X7507262Y-15926738D01*
X7516786Y-15879119D01*
X7526309Y-15850548D01*
X7535833Y-15831500D01*
X7554881Y-15802928D01*
X7564405Y-15793405D01*
X7726309Y-15821976D02*
X7688214Y-15821976D01*
X7669167Y-15831500D01*
X7659643Y-15841024D01*
X7640595Y-15869595D01*
X7631071Y-15907690D01*
X7631071Y-15983881D01*
X7640595Y-16002928D01*
X7650119Y-16012452D01*
X7669167Y-16021976D01*
X7707262Y-16021976D01*
X7726309Y-16012452D01*
X7735833Y-16002928D01*
X7745357Y-15983881D01*
X7745357Y-15936262D01*
X7735833Y-15917214D01*
X7726309Y-15907690D01*
X7707262Y-15898167D01*
X7669167Y-15898167D01*
X7650119Y-15907690D01*
X7640595Y-15917214D01*
X7631071Y-15936262D01*
X7983452Y-16021976D02*
X7983452Y-15821976D01*
X8069167Y-16021976D02*
X8069167Y-15917214D01*
X8059643Y-15898167D01*
X8040595Y-15888643D01*
X8012024Y-15888643D01*
X7992976Y-15898167D01*
X7983452Y-15907690D01*
X8192976Y-16021976D02*
X8173928Y-16012452D01*
X8164405Y-16002928D01*
X8154881Y-15983881D01*
X8154881Y-15926738D01*
X8164405Y-15907690D01*
X8173928Y-15898167D01*
X8192976Y-15888643D01*
X8221548Y-15888643D01*
X8240595Y-15898167D01*
X8250119Y-15907690D01*
X8259643Y-15926738D01*
X8259643Y-15983881D01*
X8250119Y-16002928D01*
X8240595Y-16012452D01*
X8221548Y-16021976D01*
X8192976Y-16021976D01*
X8373928Y-16021976D02*
X8354881Y-16012452D01*
X8345357Y-15993405D01*
X8345357Y-15821976D01*
X8526310Y-16012452D02*
X8507262Y-16021976D01*
X8469167Y-16021976D01*
X8450119Y-16012452D01*
X8440595Y-15993405D01*
X8440595Y-15917214D01*
X8450119Y-15898167D01*
X8469167Y-15888643D01*
X8507262Y-15888643D01*
X8526310Y-15898167D01*
X8535833Y-15917214D01*
X8535833Y-15936262D01*
X8440595Y-15955309D01*
X8612024Y-16012452D02*
X8631071Y-16021976D01*
X8669167Y-16021976D01*
X8688214Y-16012452D01*
X8697738Y-15993405D01*
X8697738Y-15983881D01*
X8688214Y-15964833D01*
X8669167Y-15955309D01*
X8640595Y-15955309D01*
X8621548Y-15945786D01*
X8612024Y-15926738D01*
X8612024Y-15917214D01*
X8621548Y-15898167D01*
X8640595Y-15888643D01*
X8669167Y-15888643D01*
X8688214Y-15898167D01*
X8764405Y-16098167D02*
X8773929Y-16088643D01*
X8792976Y-16060071D01*
X8802500Y-16041024D01*
X8812024Y-16012452D01*
X8821548Y-15964833D01*
X8821548Y-15926738D01*
X8812024Y-15879119D01*
X8802500Y-15850548D01*
X8792976Y-15831500D01*
X8773929Y-15802928D01*
X8764405Y-15793405D01*
X9126310Y-16098167D02*
X9116786Y-16088643D01*
X9097738Y-16060071D01*
X9088214Y-16041024D01*
X9078690Y-16012452D01*
X9069167Y-15964833D01*
X9069167Y-15926738D01*
X9078690Y-15879119D01*
X9088214Y-15850548D01*
X9097738Y-15831500D01*
X9116786Y-15802928D01*
X9126310Y-15793405D01*
X9202500Y-15888643D02*
X9202500Y-16021976D01*
X9202500Y-15907690D02*
X9212024Y-15898167D01*
X9231071Y-15888643D01*
X9259643Y-15888643D01*
X9278690Y-15898167D01*
X9288214Y-15917214D01*
X9288214Y-16021976D01*
X9412024Y-16021976D02*
X9392976Y-16012452D01*
X9383452Y-16002928D01*
X9373929Y-15983881D01*
X9373929Y-15926738D01*
X9383452Y-15907690D01*
X9392976Y-15898167D01*
X9412024Y-15888643D01*
X9440595Y-15888643D01*
X9459643Y-15898167D01*
X9469167Y-15907690D01*
X9478690Y-15926738D01*
X9478690Y-15983881D01*
X9469167Y-16002928D01*
X9459643Y-16012452D01*
X9440595Y-16021976D01*
X9412024Y-16021976D01*
X9535833Y-15888643D02*
X9612024Y-15888643D01*
X9564405Y-15821976D02*
X9564405Y-15993405D01*
X9573929Y-16012452D01*
X9592976Y-16021976D01*
X9612024Y-16021976D01*
X9831071Y-15888643D02*
X9831071Y-16088643D01*
X9831071Y-15898167D02*
X9850119Y-15888643D01*
X9888214Y-15888643D01*
X9907262Y-15898167D01*
X9916786Y-15907690D01*
X9926310Y-15926738D01*
X9926310Y-15983881D01*
X9916786Y-16002928D01*
X9907262Y-16012452D01*
X9888214Y-16021976D01*
X9850119Y-16021976D01*
X9831071Y-16012452D01*
X10040595Y-16021976D02*
X10021548Y-16012452D01*
X10012024Y-15993405D01*
X10012024Y-15821976D01*
X10202500Y-16021976D02*
X10202500Y-15917214D01*
X10192976Y-15898167D01*
X10173929Y-15888643D01*
X10135833Y-15888643D01*
X10116786Y-15898167D01*
X10202500Y-16012452D02*
X10183452Y-16021976D01*
X10135833Y-16021976D01*
X10116786Y-16012452D01*
X10107262Y-15993405D01*
X10107262Y-15974357D01*
X10116786Y-15955309D01*
X10135833Y-15945786D01*
X10183452Y-15945786D01*
X10202500Y-15936262D01*
X10269167Y-15888643D02*
X10345357Y-15888643D01*
X10297738Y-15821976D02*
X10297738Y-15993405D01*
X10307262Y-16012452D01*
X10326310Y-16021976D01*
X10345357Y-16021976D01*
X10488214Y-16012452D02*
X10469167Y-16021976D01*
X10431071Y-16021976D01*
X10412024Y-16012452D01*
X10402500Y-15993405D01*
X10402500Y-15917214D01*
X10412024Y-15898167D01*
X10431071Y-15888643D01*
X10469167Y-15888643D01*
X10488214Y-15898167D01*
X10497738Y-15917214D01*
X10497738Y-15936262D01*
X10402500Y-15955309D01*
X10669167Y-16021976D02*
X10669167Y-15821976D01*
X10669167Y-16012452D02*
X10650119Y-16021976D01*
X10612024Y-16021976D01*
X10592976Y-16012452D01*
X10583452Y-16002928D01*
X10573929Y-15983881D01*
X10573929Y-15926738D01*
X10583452Y-15907690D01*
X10592976Y-15898167D01*
X10612024Y-15888643D01*
X10650119Y-15888643D01*
X10669167Y-15898167D01*
X10745357Y-16098167D02*
X10754881Y-16088643D01*
X10773929Y-16060071D01*
X10783452Y-16041024D01*
X10792976Y-16012452D01*
X10802500Y-15964833D01*
X10802500Y-15926738D01*
X10792976Y-15879119D01*
X10783452Y-15850548D01*
X10773929Y-15831500D01*
X10754881Y-15802928D01*
X10745357Y-15793405D01*
X3963211Y-16322211D02*
X3963211Y-16180789D01*
X3821789Y-16180789D01*
X3821789Y-16322211D01*
X3963211Y-16322211D01*
X4231071Y-16141976D02*
X4354881Y-16141976D01*
X4288214Y-16218167D01*
X4316786Y-16218167D01*
X4335833Y-16227690D01*
X4345357Y-16237214D01*
X4354881Y-16256262D01*
X4354881Y-16303881D01*
X4345357Y-16322928D01*
X4335833Y-16332452D01*
X4316786Y-16341976D01*
X4259643Y-16341976D01*
X4240595Y-16332452D01*
X4231071Y-16322928D01*
X4440595Y-16322928D02*
X4450119Y-16332452D01*
X4440595Y-16341976D01*
X4431071Y-16332452D01*
X4440595Y-16322928D01*
X4440595Y-16341976D01*
X4516786Y-16141976D02*
X4650119Y-16141976D01*
X4564405Y-16341976D01*
X4764405Y-16141976D02*
X4783452Y-16141976D01*
X4802500Y-16151500D01*
X4812024Y-16161024D01*
X4821548Y-16180071D01*
X4831071Y-16218167D01*
X4831071Y-16265786D01*
X4821548Y-16303881D01*
X4812024Y-16322928D01*
X4802500Y-16332452D01*
X4783452Y-16341976D01*
X4764405Y-16341976D01*
X4745357Y-16332452D01*
X4735833Y-16322928D01*
X4726310Y-16303881D01*
X4716786Y-16265786D01*
X4716786Y-16218167D01*
X4726310Y-16180071D01*
X4735833Y-16161024D01*
X4745357Y-16151500D01*
X4764405Y-16141976D01*
X4954881Y-16141976D02*
X4973929Y-16141976D01*
X4992976Y-16151500D01*
X5002500Y-16161024D01*
X5012024Y-16180071D01*
X5021548Y-16218167D01*
X5021548Y-16265786D01*
X5012024Y-16303881D01*
X5002500Y-16322928D01*
X4992976Y-16332452D01*
X4973929Y-16341976D01*
X4954881Y-16341976D01*
X4935833Y-16332452D01*
X4926310Y-16322928D01*
X4916786Y-16303881D01*
X4907262Y-16265786D01*
X4907262Y-16218167D01*
X4916786Y-16180071D01*
X4926310Y-16161024D01*
X4935833Y-16151500D01*
X4954881Y-16141976D01*
X5107262Y-16341976D02*
X5107262Y-16208643D01*
X5107262Y-16227690D02*
X5116786Y-16218167D01*
X5135833Y-16208643D01*
X5164405Y-16208643D01*
X5183452Y-16218167D01*
X5192976Y-16237214D01*
X5192976Y-16341976D01*
X5192976Y-16237214D02*
X5202500Y-16218167D01*
X5221548Y-16208643D01*
X5250119Y-16208643D01*
X5269167Y-16218167D01*
X5278690Y-16237214D01*
X5278690Y-16341976D01*
X5373929Y-16341976D02*
X5373929Y-16208643D01*
X5373929Y-16227690D02*
X5383452Y-16218167D01*
X5402500Y-16208643D01*
X5431071Y-16208643D01*
X5450119Y-16218167D01*
X5459643Y-16237214D01*
X5459643Y-16341976D01*
X5459643Y-16237214D02*
X5469167Y-16218167D01*
X5488214Y-16208643D01*
X5516786Y-16208643D01*
X5535833Y-16218167D01*
X5545357Y-16237214D01*
X5545357Y-16341976D01*
X5935833Y-16132452D02*
X5764405Y-16389595D01*
X6192976Y-16141976D02*
X6212024Y-16141976D01*
X6231071Y-16151500D01*
X6240595Y-16161024D01*
X6250119Y-16180071D01*
X6259643Y-16218167D01*
X6259643Y-16265786D01*
X6250119Y-16303881D01*
X6240595Y-16322928D01*
X6231071Y-16332452D01*
X6212024Y-16341976D01*
X6192976Y-16341976D01*
X6173928Y-16332452D01*
X6164405Y-16322928D01*
X6154881Y-16303881D01*
X6145357Y-16265786D01*
X6145357Y-16218167D01*
X6154881Y-16180071D01*
X6164405Y-16161024D01*
X6173928Y-16151500D01*
X6192976Y-16141976D01*
X6345357Y-16322928D02*
X6354881Y-16332452D01*
X6345357Y-16341976D01*
X6335833Y-16332452D01*
X6345357Y-16322928D01*
X6345357Y-16341976D01*
X6545357Y-16341976D02*
X6431071Y-16341976D01*
X6488214Y-16341976D02*
X6488214Y-16141976D01*
X6469167Y-16170548D01*
X6450119Y-16189595D01*
X6431071Y-16199119D01*
X6716786Y-16208643D02*
X6716786Y-16341976D01*
X6669167Y-16132452D02*
X6621548Y-16275309D01*
X6745357Y-16275309D01*
X6916786Y-16141976D02*
X6821548Y-16141976D01*
X6812024Y-16237214D01*
X6821548Y-16227690D01*
X6840595Y-16218167D01*
X6888214Y-16218167D01*
X6907262Y-16227690D01*
X6916786Y-16237214D01*
X6926309Y-16256262D01*
X6926309Y-16303881D01*
X6916786Y-16322928D01*
X6907262Y-16332452D01*
X6888214Y-16341976D01*
X6840595Y-16341976D01*
X6821548Y-16332452D01*
X6812024Y-16322928D01*
X6992976Y-16141976D02*
X7126309Y-16141976D01*
X7040595Y-16341976D01*
X7192976Y-16141976D02*
X7192976Y-16180071D01*
X7269167Y-16141976D02*
X7269167Y-16180071D01*
X7564405Y-16418167D02*
X7554881Y-16408643D01*
X7535833Y-16380071D01*
X7526309Y-16361024D01*
X7516786Y-16332452D01*
X7507262Y-16284833D01*
X7507262Y-16246738D01*
X7516786Y-16199119D01*
X7526309Y-16170548D01*
X7535833Y-16151500D01*
X7554881Y-16122928D01*
X7564405Y-16113405D01*
X7726309Y-16208643D02*
X7726309Y-16341976D01*
X7678690Y-16132452D02*
X7631071Y-16275309D01*
X7754881Y-16275309D01*
X7983452Y-16341976D02*
X7983452Y-16141976D01*
X8069167Y-16341976D02*
X8069167Y-16237214D01*
X8059643Y-16218167D01*
X8040595Y-16208643D01*
X8012024Y-16208643D01*
X7992976Y-16218167D01*
X7983452Y-16227690D01*
X8192976Y-16341976D02*
X8173928Y-16332452D01*
X8164405Y-16322928D01*
X8154881Y-16303881D01*
X8154881Y-16246738D01*
X8164405Y-16227690D01*
X8173928Y-16218167D01*
X8192976Y-16208643D01*
X8221548Y-16208643D01*
X8240595Y-16218167D01*
X8250119Y-16227690D01*
X8259643Y-16246738D01*
X8259643Y-16303881D01*
X8250119Y-16322928D01*
X8240595Y-16332452D01*
X8221548Y-16341976D01*
X8192976Y-16341976D01*
X8373928Y-16341976D02*
X8354881Y-16332452D01*
X8345357Y-16313405D01*
X8345357Y-16141976D01*
X8526310Y-16332452D02*
X8507262Y-16341976D01*
X8469167Y-16341976D01*
X8450119Y-16332452D01*
X8440595Y-16313405D01*
X8440595Y-16237214D01*
X8450119Y-16218167D01*
X8469167Y-16208643D01*
X8507262Y-16208643D01*
X8526310Y-16218167D01*
X8535833Y-16237214D01*
X8535833Y-16256262D01*
X8440595Y-16275309D01*
X8612024Y-16332452D02*
X8631071Y-16341976D01*
X8669167Y-16341976D01*
X8688214Y-16332452D01*
X8697738Y-16313405D01*
X8697738Y-16303881D01*
X8688214Y-16284833D01*
X8669167Y-16275309D01*
X8640595Y-16275309D01*
X8621548Y-16265786D01*
X8612024Y-16246738D01*
X8612024Y-16237214D01*
X8621548Y-16218167D01*
X8640595Y-16208643D01*
X8669167Y-16208643D01*
X8688214Y-16218167D01*
X8764405Y-16418167D02*
X8773929Y-16408643D01*
X8792976Y-16380071D01*
X8802500Y-16361024D01*
X8812024Y-16332452D01*
X8821548Y-16284833D01*
X8821548Y-16246738D01*
X8812024Y-16199119D01*
X8802500Y-16170548D01*
X8792976Y-16151500D01*
X8773929Y-16122928D01*
X8764405Y-16113405D01*
X9126310Y-16418167D02*
X9116786Y-16408643D01*
X9097738Y-16380071D01*
X9088214Y-16361024D01*
X9078690Y-16332452D01*
X9069167Y-16284833D01*
X9069167Y-16246738D01*
X9078690Y-16199119D01*
X9088214Y-16170548D01*
X9097738Y-16151500D01*
X9116786Y-16122928D01*
X9126310Y-16113405D01*
X9202500Y-16208643D02*
X9202500Y-16341976D01*
X9202500Y-16227690D02*
X9212024Y-16218167D01*
X9231071Y-16208643D01*
X9259643Y-16208643D01*
X9278690Y-16218167D01*
X9288214Y-16237214D01*
X9288214Y-16341976D01*
X9412024Y-16341976D02*
X9392976Y-16332452D01*
X9383452Y-16322928D01*
X9373929Y-16303881D01*
X9373929Y-16246738D01*
X9383452Y-16227690D01*
X9392976Y-16218167D01*
X9412024Y-16208643D01*
X9440595Y-16208643D01*
X9459643Y-16218167D01*
X9469167Y-16227690D01*
X9478690Y-16246738D01*
X9478690Y-16303881D01*
X9469167Y-16322928D01*
X9459643Y-16332452D01*
X9440595Y-16341976D01*
X9412024Y-16341976D01*
X9535833Y-16208643D02*
X9612024Y-16208643D01*
X9564405Y-16141976D02*
X9564405Y-16313405D01*
X9573929Y-16332452D01*
X9592976Y-16341976D01*
X9612024Y-16341976D01*
X9831071Y-16208643D02*
X9831071Y-16408643D01*
X9831071Y-16218167D02*
X9850119Y-16208643D01*
X9888214Y-16208643D01*
X9907262Y-16218167D01*
X9916786Y-16227690D01*
X9926310Y-16246738D01*
X9926310Y-16303881D01*
X9916786Y-16322928D01*
X9907262Y-16332452D01*
X9888214Y-16341976D01*
X9850119Y-16341976D01*
X9831071Y-16332452D01*
X10040595Y-16341976D02*
X10021548Y-16332452D01*
X10012024Y-16313405D01*
X10012024Y-16141976D01*
X10202500Y-16341976D02*
X10202500Y-16237214D01*
X10192976Y-16218167D01*
X10173929Y-16208643D01*
X10135833Y-16208643D01*
X10116786Y-16218167D01*
X10202500Y-16332452D02*
X10183452Y-16341976D01*
X10135833Y-16341976D01*
X10116786Y-16332452D01*
X10107262Y-16313405D01*
X10107262Y-16294357D01*
X10116786Y-16275309D01*
X10135833Y-16265786D01*
X10183452Y-16265786D01*
X10202500Y-16256262D01*
X10269167Y-16208643D02*
X10345357Y-16208643D01*
X10297738Y-16141976D02*
X10297738Y-16313405D01*
X10307262Y-16332452D01*
X10326310Y-16341976D01*
X10345357Y-16341976D01*
X10488214Y-16332452D02*
X10469167Y-16341976D01*
X10431071Y-16341976D01*
X10412024Y-16332452D01*
X10402500Y-16313405D01*
X10402500Y-16237214D01*
X10412024Y-16218167D01*
X10431071Y-16208643D01*
X10469167Y-16208643D01*
X10488214Y-16218167D01*
X10497738Y-16237214D01*
X10497738Y-16256262D01*
X10402500Y-16275309D01*
X10669167Y-16341976D02*
X10669167Y-16141976D01*
X10669167Y-16332452D02*
X10650119Y-16341976D01*
X10612024Y-16341976D01*
X10592976Y-16332452D01*
X10583452Y-16322928D01*
X10573929Y-16303881D01*
X10573929Y-16246738D01*
X10583452Y-16227690D01*
X10592976Y-16218167D01*
X10612024Y-16208643D01*
X10650119Y-16208643D01*
X10669167Y-16218167D01*
X10745357Y-16418167D02*
X10754881Y-16408643D01*
X10773929Y-16380071D01*
X10783452Y-16361024D01*
X10792976Y-16332452D01*
X10802500Y-16284833D01*
X10802500Y-16246738D01*
X10792976Y-16199119D01*
X10783452Y-16170548D01*
X10773929Y-16151500D01*
X10754881Y-16122928D01*
X10745357Y-16113405D01*
M02*
