%FSLAX45Y45*%
G04 Gerber Fmt 4.5, Leading zero omitted, Abs format (unit mm)*
G04 Created by KiCad (PCBNEW 6.0.2+dfsg-1) date 2022-11-23 20:56:26*
%MOMM*%
%LPD*%
G01*
G04 APERTURE LIST*
%TA.AperFunction,Profile*%
%ADD10C,0.100000*%
%TD*%
%TA.AperFunction,Profile*%
%ADD11C,0.150000*%
%TD*%
%ADD12C,0.200000*%
%ADD13C,0.025000*%
%ADD14C,0.040000*%
%ADD15C,0.050000*%
%ADD16C,0.060000*%
%ADD17C,0.080000*%
%ADD18C,0.089000*%
%ADD19C,0.090000*%
%ADD20C,0.092000*%
%ADD21C,0.100000*%
%ADD22C,0.102000*%
%ADD23C,0.119000*%
%ADD24C,0.160020*%
%ADD25C,0.163000*%
%ADD26C,0.230000*%
%ADD27C,0.400000*%
G04 APERTURE END LIST*
D10*
X15800000Y-4400000D02*
X15800000Y-15400000D01*
X4000000Y-15400000D02*
X4000000Y-4400000D01*
X4400000Y-4000000D02*
X15400000Y-4000000D01*
X15400000Y-15800000D02*
X4400000Y-15800000D01*
D11*
X15400000Y-15800000D02*
G75*
G03*
X15800000Y-15400000I0J400000D01*
G01*
X4400000Y-4000000D02*
G75*
G03*
X4000000Y-4400000I0J-400000D01*
G01*
X4000000Y-15400000D02*
G75*
G03*
X4400000Y-15800000I400000J0D01*
G01*
X15800000Y-4400000D02*
G75*
G03*
X15400000Y-4000000I-400000J0D01*
G01*
D12*
D13*
X4812500Y-9562500D02*
X4837500Y-9587500D01*
X4837500Y-9562500D02*
X4812500Y-9587500D01*
X4937500Y-9837500D02*
X4962500Y-9862500D01*
X4962500Y-9837500D02*
X4937500Y-9862500D01*
X5112500Y-9687500D02*
X5137500Y-9712500D01*
X5137500Y-9687500D02*
X5112500Y-9712500D01*
X5487500Y-9712500D02*
X5512500Y-9737500D01*
X5512500Y-9712500D02*
X5487500Y-9737500D01*
X5562500Y-9662500D02*
X5587500Y-9687500D01*
X5587500Y-9662500D02*
X5562500Y-9687500D01*
X5677500Y-9612500D02*
X5702500Y-9637500D01*
X5702500Y-9612500D02*
X5677500Y-9637500D01*
X6187500Y-15037500D02*
X6212500Y-15062500D01*
X6212500Y-15037500D02*
X6187500Y-15062500D01*
X7007500Y-15097500D02*
X7032500Y-15122500D01*
X7032500Y-15097500D02*
X7007500Y-15122500D01*
X7412500Y-7962500D02*
X7437500Y-7987500D01*
X7437500Y-7962500D02*
X7412500Y-7987500D01*
X7737500Y-15312500D02*
X7762500Y-15337500D01*
X7762500Y-15312500D02*
X7737500Y-15337500D01*
X7937500Y-15387500D02*
X7962500Y-15412500D01*
X7962500Y-15387500D02*
X7937500Y-15412500D01*
X8187500Y-15162500D02*
X8212500Y-15187500D01*
X8212500Y-15162500D02*
X8187500Y-15187500D01*
X8687500Y-7337500D02*
X8712500Y-7362500D01*
X8712500Y-7337500D02*
X8687500Y-7362500D01*
X9087500Y-6662500D02*
X9112500Y-6687500D01*
X9112500Y-6662500D02*
X9087500Y-6687500D01*
X9162500Y-6337500D02*
X9187500Y-6362500D01*
X9187500Y-6337500D02*
X9162500Y-6362500D01*
X9162500Y-6937500D02*
X9187500Y-6962500D01*
X9187500Y-6937500D02*
X9162500Y-6962500D01*
X9187500Y-6212500D02*
X9212500Y-6237500D01*
X9212500Y-6212500D02*
X9187500Y-6237500D01*
X9187500Y-7337500D02*
X9212500Y-7362500D01*
X9212500Y-7337500D02*
X9187500Y-7362500D01*
X9187500Y-9487500D02*
X9212500Y-9512500D01*
X9212500Y-9487500D02*
X9187500Y-9512500D01*
X9217500Y-7847500D02*
X9242500Y-7872500D01*
X9242500Y-7847500D02*
X9217500Y-7872500D01*
X9262500Y-8162500D02*
X9287500Y-8187500D01*
X9287500Y-8162500D02*
X9262500Y-8187500D01*
X9312500Y-6662500D02*
X9337500Y-6687500D01*
X9337500Y-6662500D02*
X9312500Y-6687500D01*
X9362500Y-6537500D02*
X9387500Y-6562500D01*
X9387500Y-6537500D02*
X9362500Y-6562500D01*
X9362500Y-8287500D02*
X9387500Y-8312500D01*
X9387500Y-8287500D02*
X9362500Y-8312500D01*
X9362500Y-15162500D02*
X9387500Y-15187500D01*
X9387500Y-15162500D02*
X9362500Y-15187500D01*
X9437500Y-6237500D02*
X9462500Y-6262500D01*
X9462500Y-6237500D02*
X9437500Y-6262500D01*
X9512500Y-6187500D02*
X9537500Y-6212500D01*
X9537500Y-6187500D02*
X9512500Y-6212500D01*
X9612500Y-6712500D02*
X9637500Y-6737500D01*
X9637500Y-6712500D02*
X9612500Y-6737500D01*
X9712500Y-6362500D02*
X9737500Y-6387500D01*
X9737500Y-6362500D02*
X9712500Y-6387500D01*
X9887500Y-10537500D02*
X9912500Y-10562500D01*
X9912500Y-10537500D02*
X9887500Y-10562500D01*
X9947500Y-9187500D02*
X9972500Y-9212500D01*
X9972500Y-9187500D02*
X9947500Y-9212500D01*
X9987500Y-6337500D02*
X10012500Y-6362500D01*
X10012500Y-6337500D02*
X9987500Y-6362500D01*
X9987500Y-10537500D02*
X10012500Y-10562500D01*
X10012500Y-10537500D02*
X9987500Y-10562500D01*
X10112500Y-15137500D02*
X10137500Y-15162500D01*
X10137500Y-15137500D02*
X10112500Y-15162500D01*
X10157500Y-9007500D02*
X10182500Y-9032500D01*
X10182500Y-9007500D02*
X10157500Y-9032500D01*
X10187500Y-8187500D02*
X10212500Y-8212500D01*
X10212500Y-8187500D02*
X10187500Y-8212500D01*
X10212500Y-7462500D02*
X10237500Y-7487500D01*
X10237500Y-7462500D02*
X10212500Y-7487500D01*
X10797500Y-4447500D02*
X10822500Y-4472500D01*
X10822500Y-4447500D02*
X10797500Y-4472500D01*
X10807500Y-4947500D02*
X10832500Y-4972500D01*
X10832500Y-4947500D02*
X10807500Y-4972500D01*
X10837500Y-10712500D02*
X10862500Y-10737500D01*
X10862500Y-10712500D02*
X10837500Y-10737500D01*
X10862500Y-10962500D02*
X10887500Y-10987500D01*
X10887500Y-10962500D02*
X10862500Y-10987500D01*
X10862500Y-11037500D02*
X10887500Y-11062500D01*
X10887500Y-11037500D02*
X10862500Y-11062500D01*
X10865019Y-10796221D02*
X10890019Y-10821221D01*
X10890019Y-10796221D02*
X10865019Y-10821221D01*
X10917500Y-4447500D02*
X10942500Y-4472500D01*
X10942500Y-4447500D02*
X10917500Y-4472500D01*
X11042751Y-5052249D02*
X11067751Y-5077249D01*
X11067751Y-5052249D02*
X11042751Y-5077249D01*
X11097500Y-4977500D02*
X11122500Y-5002500D01*
X11122500Y-4977500D02*
X11097500Y-5002500D01*
X11407500Y-5067500D02*
X11432500Y-5092500D01*
X11432500Y-5067500D02*
X11407500Y-5092500D01*
X11407500Y-5227500D02*
X11432500Y-5252500D01*
X11432500Y-5227500D02*
X11407500Y-5252500D01*
X11447500Y-5447500D02*
X11472500Y-5472500D01*
X11472500Y-5447500D02*
X11447500Y-5472500D01*
X11462751Y-5647500D02*
X11487751Y-5672500D01*
X11487751Y-5647500D02*
X11462751Y-5672500D01*
X11512500Y-7612500D02*
X11537500Y-7637500D01*
X11537500Y-7612500D02*
X11512500Y-7637500D01*
X11527500Y-5587500D02*
X11552500Y-5612500D01*
X11552500Y-5587500D02*
X11527500Y-5612500D01*
X11587500Y-7737500D02*
X11612500Y-7762500D01*
X11612500Y-7737500D02*
X11587500Y-7762500D01*
X11662500Y-8062500D02*
X11687500Y-8087500D01*
X11687500Y-8062500D02*
X11662500Y-8087500D01*
X11677500Y-10707500D02*
X11702500Y-10732500D01*
X11702500Y-10707500D02*
X11677500Y-10732500D01*
X11677500Y-11077500D02*
X11702500Y-11102500D01*
X11702500Y-11077500D02*
X11677500Y-11102500D01*
X11687500Y-10787500D02*
X11712500Y-10812500D01*
X11712500Y-10787500D02*
X11687500Y-10812500D01*
X11687500Y-15187500D02*
X11712500Y-15212500D01*
X11712500Y-15187500D02*
X11687500Y-15212500D01*
X11837500Y-7887500D02*
X11862500Y-7912500D01*
X11862500Y-7887500D02*
X11837500Y-7912500D01*
X11837500Y-15062500D02*
X11862500Y-15087500D01*
X11862500Y-15062500D02*
X11837500Y-15087500D01*
X11862500Y-10112500D02*
X11887500Y-10137500D01*
X11887500Y-10112500D02*
X11862500Y-10137500D01*
X11937500Y-10412500D02*
X11962500Y-10437500D01*
X11962500Y-10412500D02*
X11937500Y-10437500D01*
X11987500Y-10737500D02*
X12012500Y-10762500D01*
X12012500Y-10737500D02*
X11987500Y-10762500D01*
X12037500Y-10062500D02*
X12062500Y-10087500D01*
X12062500Y-10062500D02*
X12037500Y-10087500D01*
X12062500Y-10387500D02*
X12087500Y-10412500D01*
X12087500Y-10387500D02*
X12062500Y-10412500D01*
X12112500Y-10112500D02*
X12137500Y-10137500D01*
X12137500Y-10112500D02*
X12112500Y-10137500D01*
X12137500Y-7462500D02*
X12162500Y-7487500D01*
X12162500Y-7462500D02*
X12137500Y-7487500D01*
X12212500Y-9637500D02*
X12237500Y-9662500D01*
X12237500Y-9637500D02*
X12212500Y-9662500D01*
X12237500Y-9262500D02*
X12262500Y-9287500D01*
X12262500Y-9262500D02*
X12237500Y-9287500D01*
X12237500Y-10762500D02*
X12262500Y-10787500D01*
X12262500Y-10762500D02*
X12237500Y-10787500D01*
X12312500Y-9212500D02*
X12337500Y-9237500D01*
X12337500Y-9212500D02*
X12312500Y-9237500D01*
X12337500Y-9737500D02*
X12362500Y-9762500D01*
X12362500Y-9737500D02*
X12337500Y-9762500D01*
X12387500Y-5812500D02*
X12412500Y-5837500D01*
X12412500Y-5812500D02*
X12387500Y-5837500D01*
X12412500Y-6337500D02*
X12437500Y-6362500D01*
X12437500Y-6337500D02*
X12412500Y-6362500D01*
X12412500Y-9562500D02*
X12437500Y-9587500D01*
X12437500Y-9562500D02*
X12412500Y-9587500D01*
X12487500Y-9112500D02*
X12512500Y-9137500D01*
X12512500Y-9112500D02*
X12487500Y-9137500D01*
X12487500Y-9412500D02*
X12512500Y-9437500D01*
X12512500Y-9412500D02*
X12487500Y-9437500D01*
X12487500Y-9562500D02*
X12512500Y-9587500D01*
X12512500Y-9562500D02*
X12487500Y-9587500D01*
X12487500Y-9737500D02*
X12512500Y-9762500D01*
X12512500Y-9737500D02*
X12487500Y-9762500D01*
X12512500Y-5812500D02*
X12537500Y-5837500D01*
X12537500Y-5812500D02*
X12512500Y-5837500D01*
X12537500Y-6337500D02*
X12562500Y-6362500D01*
X12562500Y-6337500D02*
X12537500Y-6362500D01*
X12537500Y-8037500D02*
X12562500Y-8062500D01*
X12562500Y-8037500D02*
X12537500Y-8062500D01*
X12577500Y-10057500D02*
X12602500Y-10082500D01*
X12602500Y-10057500D02*
X12577500Y-10082500D01*
X12597500Y-9947500D02*
X12622500Y-9972500D01*
X12622500Y-9947500D02*
X12597500Y-9972500D01*
X12607500Y-9227500D02*
X12632500Y-9252500D01*
X12632500Y-9227500D02*
X12607500Y-9252500D01*
X12637500Y-5812500D02*
X12662500Y-5837500D01*
X12662500Y-5812500D02*
X12637500Y-5837500D01*
X12637500Y-6337500D02*
X12662500Y-6362500D01*
X12662500Y-6337500D02*
X12637500Y-6362500D01*
X12637500Y-10137500D02*
X12662500Y-10162500D01*
X12662500Y-10137500D02*
X12637500Y-10162500D01*
X12657500Y-9157500D02*
X12682500Y-9182500D01*
X12682500Y-9157500D02*
X12657500Y-9182500D01*
X12667500Y-10537500D02*
X12692500Y-10562500D01*
X12692500Y-10537500D02*
X12667500Y-10562500D01*
X12712500Y-10087500D02*
X12737500Y-10112500D01*
X12737500Y-10087500D02*
X12712500Y-10112500D01*
X12747500Y-9237500D02*
X12772500Y-9262500D01*
X12772500Y-9237500D02*
X12747500Y-9262500D01*
X12762500Y-5812500D02*
X12787500Y-5837500D01*
X12787500Y-5812500D02*
X12762500Y-5837500D01*
X12762500Y-6337500D02*
X12787500Y-6362500D01*
X12787500Y-6337500D02*
X12762500Y-6362500D01*
X12777500Y-9097500D02*
X12802500Y-9122500D01*
X12802500Y-9097500D02*
X12777500Y-9122500D01*
X12812500Y-10112500D02*
X12837500Y-10137500D01*
X12837500Y-10112500D02*
X12812500Y-10137500D01*
X12837500Y-9412500D02*
X12862500Y-9437500D01*
X12862500Y-9412500D02*
X12837500Y-9437500D01*
X12862500Y-9237500D02*
X12887500Y-9262500D01*
X12887500Y-9237500D02*
X12862500Y-9262500D01*
X12862500Y-9912500D02*
X12887500Y-9937500D01*
X12887500Y-9912500D02*
X12862500Y-9937500D01*
X12862500Y-9987500D02*
X12887500Y-10012500D01*
X12887500Y-9987500D02*
X12862500Y-10012500D01*
X12887500Y-5812500D02*
X12912500Y-5837500D01*
X12912500Y-5812500D02*
X12887500Y-5837500D01*
X12887500Y-6337500D02*
X12912500Y-6362500D01*
X12912500Y-6337500D02*
X12887500Y-6362500D01*
X12912500Y-8612500D02*
X12937500Y-8637500D01*
X12937500Y-8612500D02*
X12912500Y-8637500D01*
X12912500Y-8687500D02*
X12937500Y-8712500D01*
X12937500Y-8687500D02*
X12912500Y-8712500D01*
X12927500Y-9847500D02*
X12952500Y-9872500D01*
X12952500Y-9847500D02*
X12927500Y-9872500D01*
X12937500Y-8487500D02*
X12962500Y-8512500D01*
X12962500Y-8487500D02*
X12937500Y-8512500D01*
X12947500Y-9487500D02*
X12972500Y-9512500D01*
X12972500Y-9487500D02*
X12947500Y-9512500D01*
X12987500Y-6337500D02*
X13012500Y-6362500D01*
X13012500Y-6337500D02*
X12987500Y-6362500D01*
X12987500Y-8937500D02*
X13012500Y-8962500D01*
X13012500Y-8937500D02*
X12987500Y-8962500D01*
X13012500Y-5812500D02*
X13037500Y-5837500D01*
X13037500Y-5812500D02*
X13012500Y-5837500D01*
X13027500Y-9487500D02*
X13052500Y-9512500D01*
X13052500Y-9487500D02*
X13027500Y-9512500D01*
X13037500Y-15187500D02*
X13062500Y-15212500D01*
X13062500Y-15187500D02*
X13037500Y-15212500D01*
X13057500Y-9187500D02*
X13082500Y-9212500D01*
X13082500Y-9187500D02*
X13057500Y-9212500D01*
X13087500Y-9537500D02*
X13112500Y-9562500D01*
X13112500Y-9537500D02*
X13087500Y-9562500D01*
X13107500Y-9967500D02*
X13132500Y-9992500D01*
X13132500Y-9967500D02*
X13107500Y-9992500D01*
X13112500Y-9462500D02*
X13137500Y-9487500D01*
X13137500Y-9462500D02*
X13112500Y-9487500D01*
X13112500Y-13662500D02*
X13137500Y-13687500D01*
X13137500Y-13662500D02*
X13112500Y-13687500D01*
X13137500Y-5812500D02*
X13162500Y-5837500D01*
X13162500Y-5812500D02*
X13137500Y-5837500D01*
X13162500Y-9187500D02*
X13187500Y-9212500D01*
X13187500Y-9187500D02*
X13162500Y-9212500D01*
X13197500Y-9967500D02*
X13222500Y-9992500D01*
X13222500Y-9967500D02*
X13197500Y-9992500D01*
X13207500Y-9517500D02*
X13232500Y-9542500D01*
X13232500Y-9517500D02*
X13207500Y-9542500D01*
X13207500Y-10067500D02*
X13232500Y-10092500D01*
X13232500Y-10067500D02*
X13207500Y-10092500D01*
X13212500Y-9062500D02*
X13237500Y-9087500D01*
X13237500Y-9062500D02*
X13212500Y-9087500D01*
X13212500Y-14187500D02*
X13237500Y-14212500D01*
X13237500Y-14187500D02*
X13212500Y-14212500D01*
X13262500Y-5812500D02*
X13287500Y-5837500D01*
X13287500Y-5812500D02*
X13262500Y-5837500D01*
X13277500Y-6137500D02*
X13302500Y-6162500D01*
X13302500Y-6137500D02*
X13277500Y-6162500D01*
X13277500Y-9397500D02*
X13302500Y-9422500D01*
X13302500Y-9397500D02*
X13277500Y-9422500D01*
X13277500Y-9477500D02*
X13302500Y-9502500D01*
X13302500Y-9477500D02*
X13277500Y-9502500D01*
X13297500Y-6337500D02*
X13322500Y-6362500D01*
X13322500Y-6337500D02*
X13297500Y-6362500D01*
X13337500Y-9537500D02*
X13362500Y-9562500D01*
X13362500Y-9537500D02*
X13337500Y-9562500D01*
X13362500Y-15262500D02*
X13387500Y-15287500D01*
X13387500Y-15262500D02*
X13362500Y-15287500D01*
X13387500Y-5812500D02*
X13412500Y-5837500D01*
X13412500Y-5812500D02*
X13387500Y-5837500D01*
X13387500Y-6387500D02*
X13412500Y-6412500D01*
X13412500Y-6387500D02*
X13387500Y-6412500D01*
X13397500Y-9757500D02*
X13422500Y-9782500D01*
X13422500Y-9757500D02*
X13397500Y-9782500D01*
X13412500Y-9412500D02*
X13437500Y-9437500D01*
X13437500Y-9412500D02*
X13412500Y-9437500D01*
X13412500Y-9537500D02*
X13437500Y-9562500D01*
X13437500Y-9537500D02*
X13412500Y-9562500D01*
X13462500Y-6337500D02*
X13487500Y-6362500D01*
X13487500Y-6337500D02*
X13462500Y-6362500D01*
X13462500Y-9012500D02*
X13487500Y-9037500D01*
X13487500Y-9012500D02*
X13462500Y-9037500D01*
X13487500Y-5812500D02*
X13512500Y-5837500D01*
X13512500Y-5812500D02*
X13487500Y-5837500D01*
X13512500Y-9437500D02*
X13537500Y-9462500D01*
X13537500Y-9437500D02*
X13512500Y-9462500D01*
X13557500Y-9237500D02*
X13582500Y-9262500D01*
X13582500Y-9237500D02*
X13557500Y-9262500D01*
X13587500Y-5812500D02*
X13612500Y-5837500D01*
X13612500Y-5812500D02*
X13587500Y-5837500D01*
X13587500Y-6337500D02*
X13612500Y-6362500D01*
X13612500Y-6337500D02*
X13587500Y-6362500D01*
X13597500Y-9747500D02*
X13622500Y-9772500D01*
X13622500Y-9747500D02*
X13597500Y-9772500D01*
X13686922Y-9212789D02*
X13711922Y-9237789D01*
X13711922Y-9212789D02*
X13686922Y-9237789D01*
X13687500Y-4657500D02*
X13712500Y-4682500D01*
X13712500Y-4657500D02*
X13687500Y-4682500D01*
X13687500Y-9562500D02*
X13712500Y-9587500D01*
X13712500Y-9562500D02*
X13687500Y-9587500D01*
X13712500Y-6337500D02*
X13737500Y-6362500D01*
X13737500Y-6337500D02*
X13712500Y-6362500D01*
X13738191Y-6038191D02*
X13763191Y-6063191D01*
X13763191Y-6038191D02*
X13738191Y-6063191D01*
X13837500Y-4657500D02*
X13862500Y-4682500D01*
X13862500Y-4657500D02*
X13837500Y-4682500D01*
X13837500Y-6037500D02*
X13862500Y-6062500D01*
X13862500Y-6037500D02*
X13837500Y-6062500D01*
X13837500Y-6337500D02*
X13862500Y-6362500D01*
X13862500Y-6337500D02*
X13837500Y-6362500D01*
X13962500Y-6037500D02*
X13987500Y-6062500D01*
X13987500Y-6037500D02*
X13962500Y-6062500D01*
X13962500Y-6337500D02*
X13987500Y-6362500D01*
X13987500Y-6337500D02*
X13962500Y-6362500D01*
X13987500Y-4657500D02*
X14012500Y-4682500D01*
X14012500Y-4657500D02*
X13987500Y-4682500D01*
X14087500Y-6037500D02*
X14112500Y-6062500D01*
X14112500Y-6037500D02*
X14087500Y-6062500D01*
X14087500Y-6337500D02*
X14112500Y-6362500D01*
X14112500Y-6337500D02*
X14087500Y-6362500D01*
X14137500Y-4657500D02*
X14162500Y-4682500D01*
X14162500Y-4657500D02*
X14137500Y-4682500D01*
X14167500Y-14887500D02*
X14192500Y-14912500D01*
X14192500Y-14887500D02*
X14167500Y-14912500D01*
X14187500Y-6037500D02*
X14212500Y-6062500D01*
X14212500Y-6037500D02*
X14187500Y-6062500D01*
X14187500Y-6337500D02*
X14212500Y-6362500D01*
X14212500Y-6337500D02*
X14187500Y-6362500D01*
X14212500Y-9212500D02*
X14237500Y-9237500D01*
X14237500Y-9212500D02*
X14212500Y-9237500D01*
X14247500Y-5377500D02*
X14272500Y-5402500D01*
X14272500Y-5377500D02*
X14247500Y-5402500D01*
X14247500Y-14297500D02*
X14272500Y-14322500D01*
X14272500Y-14297500D02*
X14247500Y-14322500D01*
X14367500Y-14257500D02*
X14392500Y-14282500D01*
X14392500Y-14257500D02*
X14367500Y-14282500D01*
X14427500Y-4657500D02*
X14452500Y-4682500D01*
X14452500Y-4657500D02*
X14427500Y-4682500D01*
X14547500Y-5127500D02*
X14572500Y-5152500D01*
X14572500Y-5127500D02*
X14547500Y-5152500D01*
D14*
X4450000Y-7870000D02*
G75*
G03*
X4450000Y-7870000I-20000J0D01*
G01*
X4550000Y-7830000D02*
G75*
G03*
X4550000Y-7830000I-20000J0D01*
G01*
X5195000Y-9450000D02*
G75*
G03*
X5195000Y-9450000I-20000J0D01*
G01*
X5240000Y-4560000D02*
G75*
G03*
X5240000Y-4560000I-20000J0D01*
G01*
X5330000Y-4560000D02*
G75*
G03*
X5330000Y-4560000I-20000J0D01*
G01*
X5410000Y-4560000D02*
G75*
G03*
X5410000Y-4560000I-20000J0D01*
G01*
X6520000Y-14875000D02*
G75*
G03*
X6520000Y-14875000I-20000J0D01*
G01*
X6520000Y-15175000D02*
G75*
G03*
X6520000Y-15175000I-20000J0D01*
G01*
X6545000Y-15625000D02*
G75*
G03*
X6545000Y-15625000I-20000J0D01*
G01*
X7220000Y-14625000D02*
G75*
G03*
X7220000Y-14625000I-20000J0D01*
G01*
X7245000Y-8875000D02*
G75*
G03*
X7245000Y-8875000I-20000J0D01*
G01*
X7420000Y-8500000D02*
G75*
G03*
X7420000Y-8500000I-20000J0D01*
G01*
X7520000Y-15150000D02*
G75*
G03*
X7520000Y-15150000I-20000J0D01*
G01*
X7620000Y-12275000D02*
G75*
G03*
X7620000Y-12275000I-20000J0D01*
G01*
X8845000Y-6050000D02*
G75*
G03*
X8845000Y-6050000I-20000J0D01*
G01*
X8895000Y-8500000D02*
G75*
G03*
X8895000Y-8500000I-20000J0D01*
G01*
X9045000Y-6025000D02*
G75*
G03*
X9045000Y-6025000I-20000J0D01*
G01*
X9220000Y-6525000D02*
G75*
G03*
X9220000Y-6525000I-20000J0D01*
G01*
X9220000Y-10720000D02*
G75*
G03*
X9220000Y-10720000I-20000J0D01*
G01*
X9245000Y-10050000D02*
G75*
G03*
X9245000Y-10050000I-20000J0D01*
G01*
X9250000Y-8360000D02*
G75*
G03*
X9250000Y-8360000I-20000J0D01*
G01*
X9260000Y-8625000D02*
G75*
G03*
X9260000Y-8625000I-20000J0D01*
G01*
X9270000Y-8775000D02*
G75*
G03*
X9270000Y-8775000I-20000J0D01*
G01*
X9270000Y-9000000D02*
G75*
G03*
X9270000Y-9000000I-20000J0D01*
G01*
X9420000Y-9210000D02*
G75*
G03*
X9420000Y-9210000I-20000J0D01*
G01*
X9445000Y-8700000D02*
G75*
G03*
X9445000Y-8700000I-20000J0D01*
G01*
X9490000Y-10380000D02*
G75*
G03*
X9490000Y-10380000I-20000J0D01*
G01*
X9620000Y-8825000D02*
G75*
G03*
X9620000Y-8825000I-20000J0D01*
G01*
X9670000Y-12810000D02*
G75*
G03*
X9670000Y-12810000I-20000J0D01*
G01*
X10010000Y-12325000D02*
G75*
G03*
X10010000Y-12325000I-20000J0D01*
G01*
X10040000Y-11210000D02*
G75*
G03*
X10040000Y-11210000I-20000J0D01*
G01*
X10050000Y-12510000D02*
G75*
G03*
X10050000Y-12510000I-20000J0D01*
G01*
X10120000Y-12340000D02*
G75*
G03*
X10120000Y-12340000I-20000J0D01*
G01*
X10170000Y-12510000D02*
G75*
G03*
X10170000Y-12510000I-20000J0D01*
G01*
X10240000Y-5640000D02*
G75*
G03*
X10240000Y-5640000I-20000J0D01*
G01*
X10260000Y-4760000D02*
G75*
G03*
X10260000Y-4760000I-20000J0D01*
G01*
X10260000Y-12840000D02*
G75*
G03*
X10260000Y-12840000I-20000J0D01*
G01*
X10320000Y-12520000D02*
G75*
G03*
X10320000Y-12520000I-20000J0D01*
G01*
X10360000Y-4760000D02*
G75*
G03*
X10360000Y-4760000I-20000J0D01*
G01*
X10460000Y-5300000D02*
G75*
G03*
X10460000Y-5300000I-20000J0D01*
G01*
X10520000Y-4900000D02*
G75*
G03*
X10520000Y-4900000I-20000J0D01*
G01*
X10520000Y-8850000D02*
G75*
G03*
X10520000Y-8850000I-20000J0D01*
G01*
X10560000Y-12810000D02*
G75*
G03*
X10560000Y-12810000I-20000J0D01*
G01*
X10595000Y-10175000D02*
G75*
G03*
X10595000Y-10175000I-20000J0D01*
G01*
X10620000Y-5300000D02*
G75*
G03*
X10620000Y-5300000I-20000J0D01*
G01*
X10640000Y-5380000D02*
G75*
G03*
X10640000Y-5380000I-20000J0D01*
G01*
X10695000Y-5275000D02*
G75*
G03*
X10695000Y-5275000I-20000J0D01*
G01*
X10695000Y-6975000D02*
G75*
G03*
X10695000Y-6975000I-20000J0D01*
G01*
X10720000Y-4960000D02*
G75*
G03*
X10720000Y-4960000I-20000J0D01*
G01*
X10720000Y-5400000D02*
G75*
G03*
X10720000Y-5400000I-20000J0D01*
G01*
X10720000Y-8875000D02*
G75*
G03*
X10720000Y-8875000I-20000J0D01*
G01*
X10750000Y-5330000D02*
G75*
G03*
X10750000Y-5330000I-20000J0D01*
G01*
X10920000Y-5420000D02*
G75*
G03*
X10920000Y-5420000I-20000J0D01*
G01*
X10970000Y-8960000D02*
G75*
G03*
X10970000Y-8960000I-20000J0D01*
G01*
X10980000Y-5181150D02*
G75*
G03*
X10980000Y-5181150I-20000J0D01*
G01*
X10980000Y-11970000D02*
G75*
G03*
X10980000Y-11970000I-20000J0D01*
G01*
X11210000Y-10080000D02*
G75*
G03*
X11210000Y-10080000I-20000J0D01*
G01*
X11270000Y-4820000D02*
G75*
G03*
X11270000Y-4820000I-20000J0D01*
G01*
X11280000Y-4960000D02*
G75*
G03*
X11280000Y-4960000I-20000J0D01*
G01*
X11320000Y-9990000D02*
G75*
G03*
X11320000Y-9990000I-20000J0D01*
G01*
X11620000Y-9460000D02*
G75*
G03*
X11620000Y-9460000I-20000J0D01*
G01*
X11880000Y-11490000D02*
G75*
G03*
X11880000Y-11490000I-20000J0D01*
G01*
X11940000Y-11810000D02*
G75*
G03*
X11940000Y-11810000I-20000J0D01*
G01*
X12050000Y-9700000D02*
G75*
G03*
X12050000Y-9700000I-20000J0D01*
G01*
X12145000Y-9650000D02*
G75*
G03*
X12145000Y-9650000I-20000J0D01*
G01*
X13010000Y-10430000D02*
G75*
G03*
X13010000Y-10430000I-20000J0D01*
G01*
X13390000Y-10370000D02*
G75*
G03*
X13390000Y-10370000I-20000J0D01*
G01*
X13670000Y-11375000D02*
G75*
G03*
X13670000Y-11375000I-20000J0D01*
G01*
X13730000Y-10525000D02*
G75*
G03*
X13730000Y-10525000I-20000J0D01*
G01*
X13770000Y-8275000D02*
G75*
G03*
X13770000Y-8275000I-20000J0D01*
G01*
X13770000Y-11600000D02*
G75*
G03*
X13770000Y-11600000I-20000J0D01*
G01*
X13780000Y-8370000D02*
G75*
G03*
X13780000Y-8370000I-20000J0D01*
G01*
X13790000Y-9150000D02*
G75*
G03*
X13790000Y-9150000I-20000J0D01*
G01*
X13845000Y-10500000D02*
G75*
G03*
X13845000Y-10500000I-20000J0D01*
G01*
X13860000Y-8290000D02*
G75*
G03*
X13860000Y-8290000I-20000J0D01*
G01*
X13860000Y-9240000D02*
G75*
G03*
X13860000Y-9240000I-20000J0D01*
G01*
X13890000Y-9140000D02*
G75*
G03*
X13890000Y-9140000I-20000J0D01*
G01*
X13945000Y-8325000D02*
G75*
G03*
X13945000Y-8325000I-20000J0D01*
G01*
X13960000Y-9210000D02*
G75*
G03*
X13960000Y-9210000I-20000J0D01*
G01*
X14520000Y-9700000D02*
G75*
G03*
X14520000Y-9700000I-20000J0D01*
G01*
X14645000Y-9925000D02*
G75*
G03*
X14645000Y-9925000I-20000J0D01*
G01*
X14670000Y-14120000D02*
G75*
G03*
X14670000Y-14120000I-20000J0D01*
G01*
X14770000Y-11440000D02*
G75*
G03*
X14770000Y-11440000I-20000J0D01*
G01*
X14790000Y-15110000D02*
G75*
G03*
X14790000Y-15110000I-20000J0D01*
G01*
X14840000Y-14250000D02*
G75*
G03*
X14840000Y-14250000I-20000J0D01*
G01*
X14990000Y-11360000D02*
G75*
G03*
X14990000Y-11360000I-20000J0D01*
G01*
X15040000Y-5160000D02*
G75*
G03*
X15040000Y-5160000I-20000J0D01*
G01*
X15150000Y-14330000D02*
G75*
G03*
X15150000Y-14330000I-20000J0D01*
G01*
D15*
X5040000Y-15425000D02*
X5040000Y-15475000D01*
X5015000Y-15450000D02*
X5065000Y-15450000D01*
X5050000Y-15125000D02*
X5050000Y-15175000D01*
X5025000Y-15150000D02*
X5075000Y-15150000D01*
X5100000Y-14600000D02*
X5100000Y-14650000D01*
X5075000Y-14625000D02*
X5125000Y-14625000D01*
X5450000Y-15565000D02*
X5450000Y-15615000D01*
X5425000Y-15590000D02*
X5475000Y-15590000D01*
X5575000Y-14675000D02*
X5575000Y-14725000D01*
X5550000Y-14700000D02*
X5600000Y-14700000D01*
X5900000Y-14865000D02*
X5900000Y-14915000D01*
X5875000Y-14890000D02*
X5925000Y-14890000D01*
X6175000Y-15200000D02*
X6175000Y-15250000D01*
X6150000Y-15225000D02*
X6200000Y-15225000D01*
X6179384Y-15361112D02*
X6179384Y-15411112D01*
X6154384Y-15386112D02*
X6204384Y-15386112D01*
X6225000Y-9975000D02*
X6225000Y-10025000D01*
X6200000Y-10000000D02*
X6250000Y-10000000D01*
X6250000Y-10350000D02*
X6250000Y-10400000D01*
X6225000Y-10375000D02*
X6275000Y-10375000D01*
X6425000Y-10625000D02*
X6425000Y-10675000D01*
X6400000Y-10650000D02*
X6450000Y-10650000D01*
X6625000Y-14375000D02*
X6625000Y-14425000D01*
X6600000Y-14400000D02*
X6650000Y-14400000D01*
X6875000Y-14775000D02*
X6875000Y-14825000D01*
X6850000Y-14800000D02*
X6900000Y-14800000D01*
X7400000Y-15525000D02*
X7400000Y-15575000D01*
X7375000Y-15550000D02*
X7425000Y-15550000D01*
X7410000Y-13225000D02*
X7410000Y-13275000D01*
X7385000Y-13250000D02*
X7435000Y-13250000D01*
X7625000Y-15525000D02*
X7625000Y-15575000D01*
X7600000Y-15550000D02*
X7650000Y-15550000D01*
X7675000Y-14775000D02*
X7675000Y-14825000D01*
X7650000Y-14800000D02*
X7700000Y-14800000D01*
X8220000Y-13215000D02*
X8220000Y-13265000D01*
X8195000Y-13240000D02*
X8245000Y-13240000D01*
X8525000Y-14975000D02*
X8525000Y-15025000D01*
X8500000Y-15000000D02*
X8550000Y-15000000D01*
X9040000Y-13225000D02*
X9040000Y-13275000D01*
X9015000Y-13250000D02*
X9065000Y-13250000D01*
X9840000Y-13225000D02*
X9840000Y-13275000D01*
X9815000Y-13250000D02*
X9865000Y-13250000D01*
X9890000Y-12515000D02*
X9890000Y-12565000D01*
X9865000Y-12540000D02*
X9915000Y-12540000D01*
X10100000Y-10175000D02*
X10100000Y-10225000D01*
X10075000Y-10200000D02*
X10125000Y-10200000D01*
X10175000Y-10750000D02*
X10175000Y-10800000D01*
X10150000Y-10775000D02*
X10200000Y-10775000D01*
X10625000Y-10925000D02*
X10625000Y-10975000D01*
X10600000Y-10950000D02*
X10650000Y-10950000D01*
X10650000Y-13225000D02*
X10650000Y-13275000D01*
X10625000Y-13250000D02*
X10675000Y-13250000D01*
X10740000Y-5575000D02*
X10740000Y-5625000D01*
X10715000Y-5600000D02*
X10765000Y-5600000D01*
X11190000Y-12945000D02*
X11190000Y-12995000D01*
X11165000Y-12970000D02*
X11215000Y-12970000D01*
X11270000Y-11195000D02*
X11270000Y-11245000D01*
X11245000Y-11220000D02*
X11295000Y-11220000D01*
X11400000Y-10150000D02*
X11400000Y-10200000D01*
X11375000Y-10175000D02*
X11425000Y-10175000D01*
X11450000Y-10679950D02*
X11450000Y-10729950D01*
X11425000Y-10704950D02*
X11475000Y-10704950D01*
X11460000Y-13215000D02*
X11460000Y-13265000D01*
X11435000Y-13240000D02*
X11485000Y-13240000D01*
X11470000Y-11625000D02*
X11470000Y-11675000D01*
X11445000Y-11650000D02*
X11495000Y-11650000D01*
X11902854Y-10827854D02*
X11902854Y-10877854D01*
X11877854Y-10852854D02*
X11927854Y-10852854D01*
X11940000Y-12085000D02*
X11940000Y-12135000D01*
X11915000Y-12110000D02*
X11965000Y-12110000D01*
X12280000Y-13215000D02*
X12280000Y-13265000D01*
X12255000Y-13240000D02*
X12305000Y-13240000D01*
X13630000Y-10015000D02*
X13630000Y-10065000D01*
X13605000Y-10040000D02*
X13655000Y-10040000D01*
X14275000Y-10025000D02*
X14275000Y-10075000D01*
X14250000Y-10050000D02*
X14300000Y-10050000D01*
X14500000Y-9350000D02*
X14500000Y-9400000D01*
X14475000Y-9375000D02*
X14525000Y-9375000D01*
X14575000Y-9275000D02*
X14575000Y-9325000D01*
X14550000Y-9300000D02*
X14600000Y-9300000D01*
X14600000Y-9375000D02*
X14600000Y-9425000D01*
X14575000Y-9400000D02*
X14625000Y-9400000D01*
X14600000Y-9475000D02*
X14600000Y-9525000D01*
X14575000Y-9500000D02*
X14625000Y-9500000D01*
D16*
X7521213Y-14696213D02*
X7521213Y-14653787D01*
X7478787Y-14653787D01*
X7478787Y-14696213D01*
X7521213Y-14696213D01*
X7771213Y-15196213D02*
X7771213Y-15153787D01*
X7728787Y-15153787D01*
X7728787Y-15196213D01*
X7771213Y-15196213D01*
X7846213Y-7721213D02*
X7846213Y-7678787D01*
X7803787Y-7678787D01*
X7803787Y-7721213D01*
X7846213Y-7721213D01*
X7981213Y-5671213D02*
X7981213Y-5628787D01*
X7938787Y-5628787D01*
X7938787Y-5671213D01*
X7981213Y-5671213D01*
X8001213Y-5821213D02*
X8001213Y-5778787D01*
X7958787Y-5778787D01*
X7958787Y-5821213D01*
X8001213Y-5821213D01*
X8046213Y-15196213D02*
X8046213Y-15153787D01*
X8003787Y-15153787D01*
X8003787Y-15196213D01*
X8046213Y-15196213D01*
X8121213Y-5691213D02*
X8121213Y-5648787D01*
X8078787Y-5648787D01*
X8078787Y-5691213D01*
X8121213Y-5691213D01*
X8141213Y-5821213D02*
X8141213Y-5778787D01*
X8098787Y-5778787D01*
X8098787Y-5821213D01*
X8141213Y-5821213D01*
X8796213Y-7621213D02*
X8796213Y-7578787D01*
X8753787Y-7578787D01*
X8753787Y-7621213D01*
X8796213Y-7621213D01*
X9721213Y-11371213D02*
X9721213Y-11328787D01*
X9678787Y-11328787D01*
X9678787Y-11371213D01*
X9721213Y-11371213D01*
X10246213Y-10146213D02*
X10246213Y-10103787D01*
X10203787Y-10103787D01*
X10203787Y-10146213D01*
X10246213Y-10146213D01*
X10471213Y-8371213D02*
X10471213Y-8328787D01*
X10428787Y-8328787D01*
X10428787Y-8371213D01*
X10471213Y-8371213D01*
X10661213Y-11201213D02*
X10661213Y-11158787D01*
X10618787Y-11158787D01*
X10618787Y-11201213D01*
X10661213Y-11201213D01*
X10671213Y-12246213D02*
X10671213Y-12203787D01*
X10628787Y-12203787D01*
X10628787Y-12246213D01*
X10671213Y-12246213D01*
X10831213Y-13451213D02*
X10831213Y-13408787D01*
X10788787Y-13408787D01*
X10788787Y-13451213D01*
X10831213Y-13451213D01*
X10946213Y-11371213D02*
X10946213Y-11328787D01*
X10903787Y-11328787D01*
X10903787Y-11371213D01*
X10946213Y-11371213D01*
X11021213Y-12146213D02*
X11021213Y-12103787D01*
X10978787Y-12103787D01*
X10978787Y-12146213D01*
X11021213Y-12146213D01*
X11096213Y-12221213D02*
X11096213Y-12178787D01*
X11053787Y-12178787D01*
X11053787Y-12221213D01*
X11096213Y-12221213D01*
X11121213Y-12121213D02*
X11121213Y-12078787D01*
X11078787Y-12078787D01*
X11078787Y-12121213D01*
X11121213Y-12121213D01*
X11521213Y-10046213D02*
X11521213Y-10003787D01*
X11478787Y-10003787D01*
X11478787Y-10046213D01*
X11521213Y-10046213D01*
X11846213Y-11121213D02*
X11846213Y-11078787D01*
X11803787Y-11078787D01*
X11803787Y-11121213D01*
X11846213Y-11121213D01*
X12115013Y-11289913D02*
X12115013Y-11247487D01*
X12072587Y-11247487D01*
X12072587Y-11289913D01*
X12115013Y-11289913D01*
X12396213Y-11496213D02*
X12396213Y-11453787D01*
X12353787Y-11453787D01*
X12353787Y-11496213D01*
X12396213Y-11496213D01*
X12415013Y-11639913D02*
X12415013Y-11597487D01*
X12372587Y-11597487D01*
X12372587Y-11639913D01*
X12415013Y-11639913D01*
X12440013Y-11264913D02*
X12440013Y-11222487D01*
X12397587Y-11222487D01*
X12397587Y-11264913D01*
X12440013Y-11264913D01*
X12721213Y-11546213D02*
X12721213Y-11503787D01*
X12678787Y-11503787D01*
X12678787Y-11546213D01*
X12721213Y-11546213D01*
X12740013Y-11289913D02*
X12740013Y-11247487D01*
X12697587Y-11247487D01*
X12697587Y-11289913D01*
X12740013Y-11289913D01*
X12896213Y-11071213D02*
X12896213Y-11028787D01*
X12853787Y-11028787D01*
X12853787Y-11071213D01*
X12896213Y-11071213D01*
X13521213Y-12421213D02*
X13521213Y-12378787D01*
X13478787Y-12378787D01*
X13478787Y-12421213D01*
X13521213Y-12421213D01*
X14346213Y-11046213D02*
X14346213Y-11003787D01*
X14303787Y-11003787D01*
X14303787Y-11046213D01*
X14346213Y-11046213D01*
X14971213Y-12471213D02*
X14971213Y-12428787D01*
X14928787Y-12428787D01*
X14928787Y-12471213D01*
X14971213Y-12471213D01*
X15231213Y-5411213D02*
X15231213Y-5368787D01*
X15188787Y-5368787D01*
X15188787Y-5411213D01*
X15231213Y-5411213D01*
X10385000Y-4157300D02*
X10415000Y-4127300D01*
X10385000Y-4097300D01*
X10355000Y-4127300D01*
X10385000Y-4157300D01*
D12*
X10405000Y-4157300D02*
X10405000Y-4097300D01*
X10365000Y-4157300D02*
X10365000Y-4097300D01*
X10405000Y-4097300D02*
G75*
G03*
X10365000Y-4097300I-20000J0D01*
G01*
X10365000Y-4157300D02*
G75*
G03*
X10405000Y-4157300I20000J0D01*
G01*
D16*
X10385000Y-4575300D02*
X10415000Y-4545300D01*
X10385000Y-4515300D01*
X10355000Y-4545300D01*
X10385000Y-4575300D01*
D12*
X10405000Y-4600300D02*
X10405000Y-4490300D01*
X10365000Y-4600300D02*
X10365000Y-4490300D01*
X10405000Y-4490300D02*
G75*
G03*
X10365000Y-4490300I-20000J0D01*
G01*
X10365000Y-4600300D02*
G75*
G03*
X10405000Y-4600300I20000J0D01*
G01*
D16*
X11249000Y-4157300D02*
X11279000Y-4127300D01*
X11249000Y-4097300D01*
X11219000Y-4127300D01*
X11249000Y-4157300D01*
D12*
X11269000Y-4157300D02*
X11269000Y-4097300D01*
X11229000Y-4157300D02*
X11229000Y-4097300D01*
X11269000Y-4097300D02*
G75*
G03*
X11229000Y-4097300I-20000J0D01*
G01*
X11229000Y-4157300D02*
G75*
G03*
X11269000Y-4157300I20000J0D01*
G01*
D16*
X11249000Y-4575300D02*
X11279000Y-4545300D01*
X11249000Y-4515300D01*
X11219000Y-4545300D01*
X11249000Y-4575300D01*
D12*
X11269000Y-4600300D02*
X11269000Y-4490300D01*
X11229000Y-4600300D02*
X11229000Y-4490300D01*
X11269000Y-4490300D02*
G75*
G03*
X11229000Y-4490300I-20000J0D01*
G01*
X11229000Y-4600300D02*
G75*
G03*
X11269000Y-4600300I20000J0D01*
G01*
D17*
X5060000Y-5585000D02*
X5140000Y-5665000D01*
X5140000Y-5585000D02*
X5060000Y-5665000D01*
X5140000Y-5625000D02*
G75*
G03*
X5140000Y-5625000I-40000J0D01*
G01*
X5060000Y-6460000D02*
X5140000Y-6540000D01*
X5140000Y-6460000D02*
X5060000Y-6540000D01*
X5140000Y-6500000D02*
G75*
G03*
X5140000Y-6500000I-40000J0D01*
G01*
X5210000Y-5110000D02*
X5290000Y-5190000D01*
X5290000Y-5110000D02*
X5210000Y-5190000D01*
X5290000Y-5150000D02*
G75*
G03*
X5290000Y-5150000I-40000J0D01*
G01*
X5485000Y-7560000D02*
X5565000Y-7640000D01*
X5565000Y-7560000D02*
X5485000Y-7640000D01*
X5565000Y-7600000D02*
G75*
G03*
X5565000Y-7600000I-40000J0D01*
G01*
X5510000Y-4585000D02*
X5590000Y-4665000D01*
X5590000Y-4585000D02*
X5510000Y-4665000D01*
X5590000Y-4625000D02*
G75*
G03*
X5590000Y-4625000I-40000J0D01*
G01*
X5585000Y-7460000D02*
X5665000Y-7540000D01*
X5665000Y-7460000D02*
X5585000Y-7540000D01*
X5665000Y-7500000D02*
G75*
G03*
X5665000Y-7500000I-40000J0D01*
G01*
X5685000Y-7560000D02*
X5765000Y-7640000D01*
X5765000Y-7560000D02*
X5685000Y-7640000D01*
X5765000Y-7600000D02*
G75*
G03*
X5765000Y-7600000I-40000J0D01*
G01*
X5785000Y-5585000D02*
X5865000Y-5665000D01*
X5865000Y-5585000D02*
X5785000Y-5665000D01*
X5865000Y-5625000D02*
G75*
G03*
X5865000Y-5625000I-40000J0D01*
G01*
X5785000Y-6485000D02*
X5865000Y-6565000D01*
X5865000Y-6485000D02*
X5785000Y-6565000D01*
X5865000Y-6525000D02*
G75*
G03*
X5865000Y-6525000I-40000J0D01*
G01*
X6010000Y-5635000D02*
X6090000Y-5715000D01*
X6090000Y-5635000D02*
X6010000Y-5715000D01*
X6090000Y-5675000D02*
G75*
G03*
X6090000Y-5675000I-40000J0D01*
G01*
X6910000Y-4585000D02*
X6990000Y-4665000D01*
X6990000Y-4585000D02*
X6910000Y-4665000D01*
X6990000Y-4625000D02*
G75*
G03*
X6990000Y-4625000I-40000J0D01*
G01*
X7035000Y-4630000D02*
X7115000Y-4710000D01*
X7115000Y-4630000D02*
X7035000Y-4710000D01*
X7115000Y-4670000D02*
G75*
G03*
X7115000Y-4670000I-40000J0D01*
G01*
X7110000Y-5785000D02*
X7190000Y-5865000D01*
X7190000Y-5785000D02*
X7110000Y-5865000D01*
X7190000Y-5825000D02*
G75*
G03*
X7190000Y-5825000I-40000J0D01*
G01*
X7160000Y-4585000D02*
X7240000Y-4665000D01*
X7240000Y-4585000D02*
X7160000Y-4665000D01*
X7240000Y-4625000D02*
G75*
G03*
X7240000Y-4625000I-40000J0D01*
G01*
X7335000Y-5910000D02*
X7415000Y-5990000D01*
X7415000Y-5910000D02*
X7335000Y-5990000D01*
X7415000Y-5950000D02*
G75*
G03*
X7415000Y-5950000I-40000J0D01*
G01*
X8360000Y-7860000D02*
X8440000Y-7940000D01*
X8440000Y-7860000D02*
X8360000Y-7940000D01*
X8440000Y-7900000D02*
G75*
G03*
X8440000Y-7900000I-40000J0D01*
G01*
X8860000Y-7885000D02*
X8940000Y-7965000D01*
X8940000Y-7885000D02*
X8860000Y-7965000D01*
X8940000Y-7925000D02*
G75*
G03*
X8940000Y-7925000I-40000J0D01*
G01*
X9835000Y-11710000D02*
X9915000Y-11790000D01*
X9915000Y-11710000D02*
X9835000Y-11790000D01*
X9915000Y-11750000D02*
G75*
G03*
X9915000Y-11750000I-40000J0D01*
G01*
X10280000Y-11610000D02*
X10360000Y-11690000D01*
X10360000Y-11610000D02*
X10280000Y-11690000D01*
X10360000Y-11650000D02*
G75*
G03*
X10360000Y-11650000I-40000J0D01*
G01*
X10560000Y-12535000D02*
X10640000Y-12615000D01*
X10640000Y-12535000D02*
X10560000Y-12615000D01*
X10640000Y-12575000D02*
G75*
G03*
X10640000Y-12575000I-40000J0D01*
G01*
X10580000Y-11400000D02*
X10660000Y-11480000D01*
X10660000Y-11400000D02*
X10580000Y-11480000D01*
X10660000Y-11440000D02*
G75*
G03*
X10660000Y-11440000I-40000J0D01*
G01*
X10980000Y-5780000D02*
X11060000Y-5860000D01*
X11060000Y-5780000D02*
X10980000Y-5860000D01*
X11060000Y-5820000D02*
G75*
G03*
X11060000Y-5820000I-40000J0D01*
G01*
X11060000Y-11660000D02*
X11140000Y-11740000D01*
X11140000Y-11660000D02*
X11060000Y-11740000D01*
X11140000Y-11700000D02*
G75*
G03*
X11140000Y-11700000I-40000J0D01*
G01*
X11535000Y-12160000D02*
X11615000Y-12240000D01*
X11615000Y-12160000D02*
X11535000Y-12240000D01*
X11615000Y-12200000D02*
G75*
G03*
X11615000Y-12200000I-40000J0D01*
G01*
X12500000Y-10910000D02*
X12580000Y-10990000D01*
X12580000Y-10910000D02*
X12500000Y-10990000D01*
X12580000Y-10950000D02*
G75*
G03*
X12580000Y-10950000I-40000J0D01*
G01*
X12960000Y-12585000D02*
X13040000Y-12665000D01*
X13040000Y-12585000D02*
X12960000Y-12665000D01*
X13040000Y-12625000D02*
G75*
G03*
X13040000Y-12625000I-40000J0D01*
G01*
X12960000Y-13310000D02*
X13040000Y-13390000D01*
X13040000Y-13310000D02*
X12960000Y-13390000D01*
X13040000Y-13350000D02*
G75*
G03*
X13040000Y-13350000I-40000J0D01*
G01*
X13385000Y-12660000D02*
X13465000Y-12740000D01*
X13465000Y-12660000D02*
X13385000Y-12740000D01*
X13465000Y-12700000D02*
G75*
G03*
X13465000Y-12700000I-40000J0D01*
G01*
X13485000Y-13635000D02*
X13565000Y-13715000D01*
X13565000Y-13635000D02*
X13485000Y-13715000D01*
X13565000Y-13675000D02*
G75*
G03*
X13565000Y-13675000I-40000J0D01*
G01*
X13710000Y-13060000D02*
X13790000Y-13140000D01*
X13790000Y-13060000D02*
X13710000Y-13140000D01*
X13790000Y-13100000D02*
G75*
G03*
X13790000Y-13100000I-40000J0D01*
G01*
X13710000Y-13335000D02*
X13790000Y-13415000D01*
X13790000Y-13335000D02*
X13710000Y-13415000D01*
X13790000Y-13375000D02*
G75*
G03*
X13790000Y-13375000I-40000J0D01*
G01*
X13835000Y-12735000D02*
X13915000Y-12815000D01*
X13915000Y-12735000D02*
X13835000Y-12815000D01*
X13915000Y-12775000D02*
G75*
G03*
X13915000Y-12775000I-40000J0D01*
G01*
X13935000Y-10835000D02*
X14015000Y-10915000D01*
X14015000Y-10835000D02*
X13935000Y-10915000D01*
X14015000Y-10875000D02*
G75*
G03*
X14015000Y-10875000I-40000J0D01*
G01*
X14160000Y-12385000D02*
X14240000Y-12465000D01*
X14240000Y-12385000D02*
X14160000Y-12465000D01*
X14240000Y-12425000D02*
G75*
G03*
X14240000Y-12425000I-40000J0D01*
G01*
X14335000Y-13435000D02*
X14415000Y-13515000D01*
X14415000Y-13435000D02*
X14335000Y-13515000D01*
X14415000Y-13475000D02*
G75*
G03*
X14415000Y-13475000I-40000J0D01*
G01*
X14410000Y-12560000D02*
X14490000Y-12640000D01*
X14490000Y-12560000D02*
X14410000Y-12640000D01*
X14490000Y-12600000D02*
G75*
G03*
X14490000Y-12600000I-40000J0D01*
G01*
X14885000Y-12610000D02*
X14965000Y-12690000D01*
X14965000Y-12610000D02*
X14885000Y-12690000D01*
X14965000Y-12650000D02*
G75*
G03*
X14965000Y-12650000I-40000J0D01*
G01*
X14910000Y-13035000D02*
X14990000Y-13115000D01*
X14990000Y-13035000D02*
X14910000Y-13115000D01*
X14990000Y-13075000D02*
G75*
G03*
X14990000Y-13075000I-40000J0D01*
G01*
X15110000Y-13635000D02*
X15190000Y-13715000D01*
X15190000Y-13635000D02*
X15110000Y-13715000D01*
X15190000Y-13675000D02*
G75*
G03*
X15190000Y-13675000I-40000J0D01*
G01*
X15160000Y-13310000D02*
X15240000Y-13390000D01*
X15240000Y-13310000D02*
X15160000Y-13390000D01*
X15240000Y-13350000D02*
G75*
G03*
X15240000Y-13350000I-40000J0D01*
G01*
X15285000Y-12760000D02*
X15365000Y-12840000D01*
X15365000Y-12760000D02*
X15285000Y-12840000D01*
X15365000Y-12800000D02*
G75*
G03*
X15365000Y-12800000I-40000J0D01*
G01*
X15585000Y-12410000D02*
X15665000Y-12490000D01*
X15665000Y-12410000D02*
X15585000Y-12490000D01*
X15665000Y-12450000D02*
G75*
G03*
X15665000Y-12450000I-40000J0D01*
G01*
D18*
X8680500Y-5752100D02*
X8769500Y-5841100D01*
X8769500Y-5752100D02*
X8680500Y-5841100D01*
X8725000Y-5752100D02*
X8725000Y-5841100D01*
X8680500Y-5796600D02*
X8769500Y-5796600D01*
X8807500Y-5498100D02*
X8896500Y-5587100D01*
X8896500Y-5498100D02*
X8807500Y-5587100D01*
X8852000Y-5498100D02*
X8852000Y-5587100D01*
X8807500Y-5542600D02*
X8896500Y-5542600D01*
X8934500Y-5752100D02*
X9023500Y-5841100D01*
X9023500Y-5752100D02*
X8934500Y-5841100D01*
X8979000Y-5752100D02*
X8979000Y-5841100D01*
X8934500Y-5796600D02*
X9023500Y-5796600D01*
X9061500Y-5498100D02*
X9150500Y-5587100D01*
X9150500Y-5498100D02*
X9061500Y-5587100D01*
X9106000Y-5498100D02*
X9106000Y-5587100D01*
X9061500Y-5542600D02*
X9150500Y-5542600D01*
X9188500Y-5752100D02*
X9277500Y-5841100D01*
X9277500Y-5752100D02*
X9188500Y-5841100D01*
X9233000Y-5752100D02*
X9233000Y-5841100D01*
X9188500Y-5796600D02*
X9277500Y-5796600D01*
X9315500Y-5498100D02*
X9404500Y-5587100D01*
X9404500Y-5498100D02*
X9315500Y-5587100D01*
X9360000Y-5498100D02*
X9360000Y-5587100D01*
X9315500Y-5542600D02*
X9404500Y-5542600D01*
X9442500Y-5752100D02*
X9531500Y-5841100D01*
X9531500Y-5752100D02*
X9442500Y-5841100D01*
X9487000Y-5752100D02*
X9487000Y-5841100D01*
X9442500Y-5796600D02*
X9531500Y-5796600D01*
X9569500Y-5498100D02*
X9658500Y-5587100D01*
X9658500Y-5498100D02*
X9569500Y-5587100D01*
X9614000Y-5498100D02*
X9614000Y-5587100D01*
X9569500Y-5542600D02*
X9658500Y-5542600D01*
D19*
X8366000Y-15509000D02*
X8456000Y-15599000D01*
X8456000Y-15509000D02*
X8366000Y-15599000D01*
X8442820Y-15585820D02*
X8442820Y-15522180D01*
X8379180Y-15522180D01*
X8379180Y-15585820D01*
X8442820Y-15585820D01*
X8493000Y-15255000D02*
X8583000Y-15345000D01*
X8583000Y-15255000D02*
X8493000Y-15345000D01*
X8569820Y-15331820D02*
X8569820Y-15268180D01*
X8506180Y-15268180D01*
X8506180Y-15331820D01*
X8569820Y-15331820D01*
X8620000Y-15509000D02*
X8710000Y-15599000D01*
X8710000Y-15509000D02*
X8620000Y-15599000D01*
X8696820Y-15585820D02*
X8696820Y-15522180D01*
X8633180Y-15522180D01*
X8633180Y-15585820D01*
X8696820Y-15585820D01*
X8747000Y-15255000D02*
X8837000Y-15345000D01*
X8837000Y-15255000D02*
X8747000Y-15345000D01*
X8823820Y-15331820D02*
X8823820Y-15268180D01*
X8760180Y-15268180D01*
X8760180Y-15331820D01*
X8823820Y-15331820D01*
X8874000Y-15509000D02*
X8964000Y-15599000D01*
X8964000Y-15509000D02*
X8874000Y-15599000D01*
X8950820Y-15585820D02*
X8950820Y-15522180D01*
X8887180Y-15522180D01*
X8887180Y-15585820D01*
X8950820Y-15585820D01*
X9001000Y-15255000D02*
X9091000Y-15345000D01*
X9091000Y-15255000D02*
X9001000Y-15345000D01*
X9077820Y-15331820D02*
X9077820Y-15268180D01*
X9014180Y-15268180D01*
X9014180Y-15331820D01*
X9077820Y-15331820D01*
X9128000Y-15509000D02*
X9218000Y-15599000D01*
X9218000Y-15509000D02*
X9128000Y-15599000D01*
X9204820Y-15585820D02*
X9204820Y-15522180D01*
X9141180Y-15522180D01*
X9141180Y-15585820D01*
X9204820Y-15585820D01*
X9255000Y-15255000D02*
X9345000Y-15345000D01*
X9345000Y-15255000D02*
X9255000Y-15345000D01*
X9331820Y-15331820D02*
X9331820Y-15268180D01*
X9268180Y-15268180D01*
X9268180Y-15331820D01*
X9331820Y-15331820D01*
X10116000Y-15509000D02*
X10206000Y-15599000D01*
X10206000Y-15509000D02*
X10116000Y-15599000D01*
X10192820Y-15585820D02*
X10192820Y-15522180D01*
X10129180Y-15522180D01*
X10129180Y-15585820D01*
X10192820Y-15585820D01*
X10243000Y-15255000D02*
X10333000Y-15345000D01*
X10333000Y-15255000D02*
X10243000Y-15345000D01*
X10319820Y-15331820D02*
X10319820Y-15268180D01*
X10256180Y-15268180D01*
X10256180Y-15331820D01*
X10319820Y-15331820D01*
X10370000Y-15509000D02*
X10460000Y-15599000D01*
X10460000Y-15509000D02*
X10370000Y-15599000D01*
X10446820Y-15585820D02*
X10446820Y-15522180D01*
X10383180Y-15522180D01*
X10383180Y-15585820D01*
X10446820Y-15585820D01*
X10497000Y-15255000D02*
X10587000Y-15345000D01*
X10587000Y-15255000D02*
X10497000Y-15345000D01*
X10573820Y-15331820D02*
X10573820Y-15268180D01*
X10510180Y-15268180D01*
X10510180Y-15331820D01*
X10573820Y-15331820D01*
X10624000Y-15509000D02*
X10714000Y-15599000D01*
X10714000Y-15509000D02*
X10624000Y-15599000D01*
X10700820Y-15585820D02*
X10700820Y-15522180D01*
X10637180Y-15522180D01*
X10637180Y-15585820D01*
X10700820Y-15585820D01*
X10751000Y-15255000D02*
X10841000Y-15345000D01*
X10841000Y-15255000D02*
X10751000Y-15345000D01*
X10827820Y-15331820D02*
X10827820Y-15268180D01*
X10764180Y-15268180D01*
X10764180Y-15331820D01*
X10827820Y-15331820D01*
X10878000Y-15509000D02*
X10968000Y-15599000D01*
X10968000Y-15509000D02*
X10878000Y-15599000D01*
X10954820Y-15585820D02*
X10954820Y-15522180D01*
X10891180Y-15522180D01*
X10891180Y-15585820D01*
X10954820Y-15585820D01*
X11005000Y-15255000D02*
X11095000Y-15345000D01*
X11095000Y-15255000D02*
X11005000Y-15345000D01*
X11081820Y-15331820D02*
X11081820Y-15268180D01*
X11018180Y-15268180D01*
X11018180Y-15331820D01*
X11081820Y-15331820D01*
X11866000Y-15509000D02*
X11956000Y-15599000D01*
X11956000Y-15509000D02*
X11866000Y-15599000D01*
X11942820Y-15585820D02*
X11942820Y-15522180D01*
X11879180Y-15522180D01*
X11879180Y-15585820D01*
X11942820Y-15585820D01*
X11993000Y-15255000D02*
X12083000Y-15345000D01*
X12083000Y-15255000D02*
X11993000Y-15345000D01*
X12069820Y-15331820D02*
X12069820Y-15268180D01*
X12006180Y-15268180D01*
X12006180Y-15331820D01*
X12069820Y-15331820D01*
X12120000Y-15509000D02*
X12210000Y-15599000D01*
X12210000Y-15509000D02*
X12120000Y-15599000D01*
X12196820Y-15585820D02*
X12196820Y-15522180D01*
X12133180Y-15522180D01*
X12133180Y-15585820D01*
X12196820Y-15585820D01*
X12247000Y-15255000D02*
X12337000Y-15345000D01*
X12337000Y-15255000D02*
X12247000Y-15345000D01*
X12323820Y-15331820D02*
X12323820Y-15268180D01*
X12260180Y-15268180D01*
X12260180Y-15331820D01*
X12323820Y-15331820D01*
X12374000Y-15509000D02*
X12464000Y-15599000D01*
X12464000Y-15509000D02*
X12374000Y-15599000D01*
X12450820Y-15585820D02*
X12450820Y-15522180D01*
X12387180Y-15522180D01*
X12387180Y-15585820D01*
X12450820Y-15585820D01*
X12501000Y-15255000D02*
X12591000Y-15345000D01*
X12591000Y-15255000D02*
X12501000Y-15345000D01*
X12577820Y-15331820D02*
X12577820Y-15268180D01*
X12514180Y-15268180D01*
X12514180Y-15331820D01*
X12577820Y-15331820D01*
X12628000Y-15509000D02*
X12718000Y-15599000D01*
X12718000Y-15509000D02*
X12628000Y-15599000D01*
X12704820Y-15585820D02*
X12704820Y-15522180D01*
X12641180Y-15522180D01*
X12641180Y-15585820D01*
X12704820Y-15585820D01*
X12755000Y-15255000D02*
X12845000Y-15345000D01*
X12845000Y-15255000D02*
X12755000Y-15345000D01*
X12831820Y-15331820D02*
X12831820Y-15268180D01*
X12768180Y-15268180D01*
X12768180Y-15331820D01*
X12831820Y-15331820D01*
X13326000Y-4167900D02*
X13416000Y-4257900D01*
X13416000Y-4167900D02*
X13326000Y-4257900D01*
X13402820Y-4244720D02*
X13402820Y-4181080D01*
X13339180Y-4181080D01*
X13339180Y-4244720D01*
X13402820Y-4244720D01*
D12*
X13406000Y-4272900D02*
X13406000Y-4152900D01*
X13336000Y-4272900D02*
X13336000Y-4152900D01*
X13406000Y-4152900D02*
G75*
G03*
X13336000Y-4152900I-35000J0D01*
G01*
X13336000Y-4272900D02*
G75*
G03*
X13406000Y-4272900I35000J0D01*
G01*
D19*
X13326000Y-4763900D02*
X13416000Y-4853900D01*
X13416000Y-4763900D02*
X13326000Y-4853900D01*
X13402820Y-4840720D02*
X13402820Y-4777080D01*
X13339180Y-4777080D01*
X13339180Y-4840720D01*
X13402820Y-4840720D01*
D12*
X13406000Y-4898900D02*
X13406000Y-4718900D01*
X13336000Y-4898900D02*
X13336000Y-4718900D01*
X13406000Y-4718900D02*
G75*
G03*
X13336000Y-4718900I-35000J0D01*
G01*
X13336000Y-4898900D02*
G75*
G03*
X13406000Y-4898900I35000J0D01*
G01*
D19*
X13616000Y-15509000D02*
X13706000Y-15599000D01*
X13706000Y-15509000D02*
X13616000Y-15599000D01*
X13692820Y-15585820D02*
X13692820Y-15522180D01*
X13629180Y-15522180D01*
X13629180Y-15585820D01*
X13692820Y-15585820D01*
X13743000Y-15255000D02*
X13833000Y-15345000D01*
X13833000Y-15255000D02*
X13743000Y-15345000D01*
X13819820Y-15331820D02*
X13819820Y-15268180D01*
X13756180Y-15268180D01*
X13756180Y-15331820D01*
X13819820Y-15331820D01*
X13870000Y-15509000D02*
X13960000Y-15599000D01*
X13960000Y-15509000D02*
X13870000Y-15599000D01*
X13946820Y-15585820D02*
X13946820Y-15522180D01*
X13883180Y-15522180D01*
X13883180Y-15585820D01*
X13946820Y-15585820D01*
X13997000Y-15255000D02*
X14087000Y-15345000D01*
X14087000Y-15255000D02*
X13997000Y-15345000D01*
X14073820Y-15331820D02*
X14073820Y-15268180D01*
X14010180Y-15268180D01*
X14010180Y-15331820D01*
X14073820Y-15331820D01*
X14124000Y-15509000D02*
X14214000Y-15599000D01*
X14214000Y-15509000D02*
X14124000Y-15599000D01*
X14200820Y-15585820D02*
X14200820Y-15522180D01*
X14137180Y-15522180D01*
X14137180Y-15585820D01*
X14200820Y-15585820D01*
X14251000Y-15255000D02*
X14341000Y-15345000D01*
X14341000Y-15255000D02*
X14251000Y-15345000D01*
X14327820Y-15331820D02*
X14327820Y-15268180D01*
X14264180Y-15268180D01*
X14264180Y-15331820D01*
X14327820Y-15331820D01*
X14378000Y-15509000D02*
X14468000Y-15599000D01*
X14468000Y-15509000D02*
X14378000Y-15599000D01*
X14454820Y-15585820D02*
X14454820Y-15522180D01*
X14391180Y-15522180D01*
X14391180Y-15585820D01*
X14454820Y-15585820D01*
X14505000Y-15255000D02*
X14595000Y-15345000D01*
X14595000Y-15255000D02*
X14505000Y-15345000D01*
X14581820Y-15331820D02*
X14581820Y-15268180D01*
X14518180Y-15268180D01*
X14518180Y-15331820D01*
X14581820Y-15331820D01*
X14776000Y-4167900D02*
X14866000Y-4257900D01*
X14866000Y-4167900D02*
X14776000Y-4257900D01*
X14852820Y-4244720D02*
X14852820Y-4181080D01*
X14789180Y-4181080D01*
X14789180Y-4244720D01*
X14852820Y-4244720D01*
D12*
X14856000Y-4272900D02*
X14856000Y-4152900D01*
X14786000Y-4272900D02*
X14786000Y-4152900D01*
X14856000Y-4152900D02*
G75*
G03*
X14786000Y-4152900I-35000J0D01*
G01*
X14786000Y-4272900D02*
G75*
G03*
X14856000Y-4272900I35000J0D01*
G01*
D19*
X14776000Y-4763900D02*
X14866000Y-4853900D01*
X14866000Y-4763900D02*
X14776000Y-4853900D01*
X14852820Y-4840720D02*
X14852820Y-4777080D01*
X14789180Y-4777080D01*
X14789180Y-4840720D01*
X14852820Y-4840720D01*
D12*
X14856000Y-4898900D02*
X14856000Y-4718900D01*
X14786000Y-4898900D02*
X14786000Y-4718900D01*
X14856000Y-4718900D02*
G75*
G03*
X14786000Y-4718900I-35000J0D01*
G01*
X14786000Y-4898900D02*
G75*
G03*
X14856000Y-4898900I35000J0D01*
G01*
D20*
X11954000Y-5075000D02*
X12046000Y-5167000D01*
X12046000Y-5075000D02*
X11954000Y-5167000D01*
X12000000Y-5167000D02*
X12046000Y-5121000D01*
X12000000Y-5075000D01*
X11954000Y-5121000D01*
X12000000Y-5167000D01*
X12204000Y-5075000D02*
X12296000Y-5167000D01*
X12296000Y-5075000D02*
X12204000Y-5167000D01*
X12250000Y-5167000D02*
X12296000Y-5121000D01*
X12250000Y-5075000D01*
X12204000Y-5121000D01*
X12250000Y-5167000D01*
X12404000Y-5075000D02*
X12496000Y-5167000D01*
X12496000Y-5075000D02*
X12404000Y-5167000D01*
X12450000Y-5167000D02*
X12496000Y-5121000D01*
X12450000Y-5075000D01*
X12404000Y-5121000D01*
X12450000Y-5167000D01*
X12654000Y-5075000D02*
X12746000Y-5167000D01*
X12746000Y-5075000D02*
X12654000Y-5167000D01*
X12700000Y-5167000D02*
X12746000Y-5121000D01*
X12700000Y-5075000D01*
X12654000Y-5121000D01*
X12700000Y-5167000D01*
D21*
X4200000Y-7100000D02*
X4200000Y-7200000D01*
X4150000Y-7150000D02*
X4250000Y-7150000D01*
X4250000Y-7150000D02*
G75*
G03*
X4250000Y-7150000I-50000J0D01*
G01*
X4200000Y-7354000D02*
X4200000Y-7454000D01*
X4150000Y-7404000D02*
X4250000Y-7404000D01*
X4250000Y-7404000D02*
G75*
G03*
X4250000Y-7404000I-50000J0D01*
G01*
X4200000Y-7608000D02*
X4200000Y-7708000D01*
X4150000Y-7658000D02*
X4250000Y-7658000D01*
X4250000Y-7658000D02*
G75*
G03*
X4250000Y-7658000I-50000J0D01*
G01*
X4200000Y-7862000D02*
X4200000Y-7962000D01*
X4150000Y-7912000D02*
X4250000Y-7912000D01*
X4250000Y-7912000D02*
G75*
G03*
X4250000Y-7912000I-50000J0D01*
G01*
X6100000Y-11032700D02*
X6100000Y-11132700D01*
X6050000Y-11082700D02*
X6150000Y-11082700D01*
X6150000Y-11082700D02*
G75*
G03*
X6150000Y-11082700I-50000J0D01*
G01*
X6100000Y-12556700D02*
X6100000Y-12656700D01*
X6050000Y-12606700D02*
X6150000Y-12606700D01*
X6150000Y-12606700D02*
G75*
G03*
X6150000Y-12606700I-50000J0D01*
G01*
X6354000Y-11032700D02*
X6354000Y-11132700D01*
X6304000Y-11082700D02*
X6404000Y-11082700D01*
X6404000Y-11082700D02*
G75*
G03*
X6404000Y-11082700I-50000J0D01*
G01*
X6354000Y-12556700D02*
X6354000Y-12656700D01*
X6304000Y-12606700D02*
X6404000Y-12606700D01*
X6404000Y-12606700D02*
G75*
G03*
X6404000Y-12606700I-50000J0D01*
G01*
X6608000Y-11032700D02*
X6608000Y-11132700D01*
X6558000Y-11082700D02*
X6658000Y-11082700D01*
X6658000Y-11082700D02*
G75*
G03*
X6658000Y-11082700I-50000J0D01*
G01*
X6608000Y-12556700D02*
X6608000Y-12656700D01*
X6558000Y-12606700D02*
X6658000Y-12606700D01*
X6658000Y-12606700D02*
G75*
G03*
X6658000Y-12606700I-50000J0D01*
G01*
X6862000Y-11032700D02*
X6862000Y-11132700D01*
X6812000Y-11082700D02*
X6912000Y-11082700D01*
X6912000Y-11082700D02*
G75*
G03*
X6912000Y-11082700I-50000J0D01*
G01*
X6862000Y-12556700D02*
X6862000Y-12656700D01*
X6812000Y-12606700D02*
X6912000Y-12606700D01*
X6912000Y-12606700D02*
G75*
G03*
X6912000Y-12606700I-50000J0D01*
G01*
X7116000Y-11032700D02*
X7116000Y-11132700D01*
X7066000Y-11082700D02*
X7166000Y-11082700D01*
X7166000Y-11082700D02*
G75*
G03*
X7166000Y-11082700I-50000J0D01*
G01*
X7116000Y-12556700D02*
X7116000Y-12656700D01*
X7066000Y-12606700D02*
X7166000Y-12606700D01*
X7166000Y-12606700D02*
G75*
G03*
X7166000Y-12606700I-50000J0D01*
G01*
X7370000Y-11032700D02*
X7370000Y-11132700D01*
X7320000Y-11082700D02*
X7420000Y-11082700D01*
X7420000Y-11082700D02*
G75*
G03*
X7420000Y-11082700I-50000J0D01*
G01*
X7370000Y-12556700D02*
X7370000Y-12656700D01*
X7320000Y-12606700D02*
X7420000Y-12606700D01*
X7420000Y-12606700D02*
G75*
G03*
X7420000Y-12606700I-50000J0D01*
G01*
D22*
X8542563Y-4453663D02*
X8542563Y-4381537D01*
X8470437Y-4381537D01*
X8470437Y-4453663D01*
X8542563Y-4453663D01*
X8557500Y-4417600D02*
G75*
G03*
X8557500Y-4417600I-51000J0D01*
G01*
X8796563Y-4453663D02*
X8796563Y-4381537D01*
X8724437Y-4381537D01*
X8724437Y-4453663D01*
X8796563Y-4453663D01*
X8811500Y-4417600D02*
G75*
G03*
X8811500Y-4417600I-51000J0D01*
G01*
X9613563Y-4453663D02*
X9613563Y-4381537D01*
X9541437Y-4381537D01*
X9541437Y-4453663D01*
X9613563Y-4453663D01*
X9628500Y-4417600D02*
G75*
G03*
X9628500Y-4417600I-51000J0D01*
G01*
X9867563Y-4453663D02*
X9867563Y-4381537D01*
X9795437Y-4381537D01*
X9795437Y-4453663D01*
X9867563Y-4453663D01*
X9882500Y-4417600D02*
G75*
G03*
X9882500Y-4417600I-51000J0D01*
G01*
D23*
X4575000Y-8447500D02*
X4634500Y-8388000D01*
X4575000Y-8328500D01*
X4515500Y-8388000D01*
X4575000Y-8447500D01*
X4634500Y-8388000D02*
G75*
G03*
X4634500Y-8388000I-59500J0D01*
G01*
X4575000Y-8701500D02*
X4634500Y-8642000D01*
X4575000Y-8582500D01*
X4515500Y-8642000D01*
X4575000Y-8701500D01*
X4634500Y-8642000D02*
G75*
G03*
X4634500Y-8642000I-59500J0D01*
G01*
X4575000Y-8955500D02*
X4634500Y-8896000D01*
X4575000Y-8836500D01*
X4515500Y-8896000D01*
X4575000Y-8955500D01*
X4634500Y-8896000D02*
G75*
G03*
X4634500Y-8896000I-59500J0D01*
G01*
X4575000Y-9209500D02*
X4634500Y-9150000D01*
X4575000Y-9090500D01*
X4515500Y-9150000D01*
X4575000Y-9209500D01*
X4634500Y-9150000D02*
G75*
G03*
X4634500Y-9150000I-59500J0D01*
G01*
X5375000Y-8447500D02*
X5434500Y-8388000D01*
X5375000Y-8328500D01*
X5315500Y-8388000D01*
X5375000Y-8447500D01*
X5434500Y-8388000D02*
G75*
G03*
X5434500Y-8388000I-59500J0D01*
G01*
X5375000Y-8701500D02*
X5434500Y-8642000D01*
X5375000Y-8582500D01*
X5315500Y-8642000D01*
X5375000Y-8701500D01*
X5434500Y-8642000D02*
G75*
G03*
X5434500Y-8642000I-59500J0D01*
G01*
X5375000Y-8955500D02*
X5434500Y-8896000D01*
X5375000Y-8836500D01*
X5315500Y-8896000D01*
X5375000Y-8955500D01*
X5434500Y-8896000D02*
G75*
G03*
X5434500Y-8896000I-59500J0D01*
G01*
X5375000Y-9209500D02*
X5434500Y-9150000D01*
X5375000Y-9090500D01*
X5315500Y-9150000D01*
X5375000Y-9209500D01*
X5434500Y-9150000D02*
G75*
G03*
X5434500Y-9150000I-59500J0D01*
G01*
X6175000Y-8447500D02*
X6234500Y-8388000D01*
X6175000Y-8328500D01*
X6115500Y-8388000D01*
X6175000Y-8447500D01*
X6234500Y-8388000D02*
G75*
G03*
X6234500Y-8388000I-59500J0D01*
G01*
X6175000Y-8701500D02*
X6234500Y-8642000D01*
X6175000Y-8582500D01*
X6115500Y-8642000D01*
X6175000Y-8701500D01*
X6234500Y-8642000D02*
G75*
G03*
X6234500Y-8642000I-59500J0D01*
G01*
X6175000Y-8955500D02*
X6234500Y-8896000D01*
X6175000Y-8836500D01*
X6115500Y-8896000D01*
X6175000Y-8955500D01*
X6234500Y-8896000D02*
G75*
G03*
X6234500Y-8896000I-59500J0D01*
G01*
X6175000Y-9209500D02*
X6234500Y-9150000D01*
X6175000Y-9090500D01*
X6115500Y-9150000D01*
X6175000Y-9209500D01*
X6234500Y-9150000D02*
G75*
G03*
X6234500Y-9150000I-59500J0D01*
G01*
X6975000Y-8447500D02*
X7034500Y-8388000D01*
X6975000Y-8328500D01*
X6915500Y-8388000D01*
X6975000Y-8447500D01*
X7034500Y-8388000D02*
G75*
G03*
X7034500Y-8388000I-59500J0D01*
G01*
X6975000Y-8701500D02*
X7034500Y-8642000D01*
X6975000Y-8582500D01*
X6915500Y-8642000D01*
X6975000Y-8701500D01*
X7034500Y-8642000D02*
G75*
G03*
X7034500Y-8642000I-59500J0D01*
G01*
X6975000Y-8955500D02*
X7034500Y-8896000D01*
X6975000Y-8836500D01*
X6915500Y-8896000D01*
X6975000Y-8955500D01*
X7034500Y-8896000D02*
G75*
G03*
X7034500Y-8896000I-59500J0D01*
G01*
X6975000Y-9209500D02*
X7034500Y-9150000D01*
X6975000Y-9090500D01*
X6915500Y-9150000D01*
X6975000Y-9209500D01*
X7034500Y-9150000D02*
G75*
G03*
X7034500Y-9150000I-59500J0D01*
G01*
X6975000Y-9947500D02*
X7034500Y-9888000D01*
X6975000Y-9828500D01*
X6915500Y-9888000D01*
X6975000Y-9947500D01*
X7034500Y-9888000D02*
G75*
G03*
X7034500Y-9888000I-59500J0D01*
G01*
X6975000Y-10201500D02*
X7034500Y-10142000D01*
X6975000Y-10082500D01*
X6915500Y-10142000D01*
X6975000Y-10201500D01*
X7034500Y-10142000D02*
G75*
G03*
X7034500Y-10142000I-59500J0D01*
G01*
X6975000Y-10455500D02*
X7034500Y-10396000D01*
X6975000Y-10336500D01*
X6915500Y-10396000D01*
X6975000Y-10455500D01*
X7034500Y-10396000D02*
G75*
G03*
X7034500Y-10396000I-59500J0D01*
G01*
X6975000Y-10709500D02*
X7034500Y-10650000D01*
X6975000Y-10590500D01*
X6915500Y-10650000D01*
X6975000Y-10709500D01*
X7034500Y-10650000D02*
G75*
G03*
X7034500Y-10650000I-59500J0D01*
G01*
X7274000Y-14155200D02*
X7333500Y-14095700D01*
X7274000Y-14036200D01*
X7214500Y-14095700D01*
X7274000Y-14155200D01*
X7333500Y-14095700D02*
G75*
G03*
X7333500Y-14095700I-59500J0D01*
G01*
X7528000Y-14155200D02*
X7587500Y-14095700D01*
X7528000Y-14036200D01*
X7468500Y-14095700D01*
X7528000Y-14155200D01*
X7587500Y-14095700D02*
G75*
G03*
X7587500Y-14095700I-59500J0D01*
G01*
X7775000Y-8447500D02*
X7834500Y-8388000D01*
X7775000Y-8328500D01*
X7715500Y-8388000D01*
X7775000Y-8447500D01*
X7834500Y-8388000D02*
G75*
G03*
X7834500Y-8388000I-59500J0D01*
G01*
X7775000Y-8701500D02*
X7834500Y-8642000D01*
X7775000Y-8582500D01*
X7715500Y-8642000D01*
X7775000Y-8701500D01*
X7834500Y-8642000D02*
G75*
G03*
X7834500Y-8642000I-59500J0D01*
G01*
X7775000Y-8955500D02*
X7834500Y-8896000D01*
X7775000Y-8836500D01*
X7715500Y-8896000D01*
X7775000Y-8955500D01*
X7834500Y-8896000D02*
G75*
G03*
X7834500Y-8896000I-59500J0D01*
G01*
X7775000Y-9209500D02*
X7834500Y-9150000D01*
X7775000Y-9090500D01*
X7715500Y-9150000D01*
X7775000Y-9209500D01*
X7834500Y-9150000D02*
G75*
G03*
X7834500Y-9150000I-59500J0D01*
G01*
X7775000Y-9947500D02*
X7834500Y-9888000D01*
X7775000Y-9828500D01*
X7715500Y-9888000D01*
X7775000Y-9947500D01*
X7834500Y-9888000D02*
G75*
G03*
X7834500Y-9888000I-59500J0D01*
G01*
X7775000Y-10201500D02*
X7834500Y-10142000D01*
X7775000Y-10082500D01*
X7715500Y-10142000D01*
X7775000Y-10201500D01*
X7834500Y-10142000D02*
G75*
G03*
X7834500Y-10142000I-59500J0D01*
G01*
X7775000Y-10455500D02*
X7834500Y-10396000D01*
X7775000Y-10336500D01*
X7715500Y-10396000D01*
X7775000Y-10455500D01*
X7834500Y-10396000D02*
G75*
G03*
X7834500Y-10396000I-59500J0D01*
G01*
X7775000Y-10709500D02*
X7834500Y-10650000D01*
X7775000Y-10590500D01*
X7715500Y-10650000D01*
X7775000Y-10709500D01*
X7834500Y-10650000D02*
G75*
G03*
X7834500Y-10650000I-59500J0D01*
G01*
X7782000Y-14155200D02*
X7841500Y-14095700D01*
X7782000Y-14036200D01*
X7722500Y-14095700D01*
X7782000Y-14155200D01*
X7841500Y-14095700D02*
G75*
G03*
X7841500Y-14095700I-59500J0D01*
G01*
X7810000Y-7321000D02*
X7869500Y-7261500D01*
X7810000Y-7202000D01*
X7750500Y-7261500D01*
X7810000Y-7321000D01*
X7869500Y-7261500D02*
G75*
G03*
X7869500Y-7261500I-59500J0D01*
G01*
X8064000Y-7321000D02*
X8123500Y-7261500D01*
X8064000Y-7202000D01*
X8004500Y-7261500D01*
X8064000Y-7321000D01*
X8123500Y-7261500D02*
G75*
G03*
X8123500Y-7261500I-59500J0D01*
G01*
X8318000Y-7321000D02*
X8377500Y-7261500D01*
X8318000Y-7202000D01*
X8258500Y-7261500D01*
X8318000Y-7321000D01*
X8377500Y-7261500D02*
G75*
G03*
X8377500Y-7261500I-59500J0D01*
G01*
X8575000Y-8447500D02*
X8634500Y-8388000D01*
X8575000Y-8328500D01*
X8515500Y-8388000D01*
X8575000Y-8447500D01*
X8634500Y-8388000D02*
G75*
G03*
X8634500Y-8388000I-59500J0D01*
G01*
X8575000Y-8701500D02*
X8634500Y-8642000D01*
X8575000Y-8582500D01*
X8515500Y-8642000D01*
X8575000Y-8701500D01*
X8634500Y-8642000D02*
G75*
G03*
X8634500Y-8642000I-59500J0D01*
G01*
X8575000Y-8955500D02*
X8634500Y-8896000D01*
X8575000Y-8836500D01*
X8515500Y-8896000D01*
X8575000Y-8955500D01*
X8634500Y-8896000D02*
G75*
G03*
X8634500Y-8896000I-59500J0D01*
G01*
X8575000Y-9209500D02*
X8634500Y-9150000D01*
X8575000Y-9090500D01*
X8515500Y-9150000D01*
X8575000Y-9209500D01*
X8634500Y-9150000D02*
G75*
G03*
X8634500Y-9150000I-59500J0D01*
G01*
X8575000Y-9947500D02*
X8634500Y-9888000D01*
X8575000Y-9828500D01*
X8515500Y-9888000D01*
X8575000Y-9947500D01*
X8634500Y-9888000D02*
G75*
G03*
X8634500Y-9888000I-59500J0D01*
G01*
X8575000Y-10201500D02*
X8634500Y-10142000D01*
X8575000Y-10082500D01*
X8515500Y-10142000D01*
X8575000Y-10201500D01*
X8634500Y-10142000D02*
G75*
G03*
X8634500Y-10142000I-59500J0D01*
G01*
X8575000Y-10455500D02*
X8634500Y-10396000D01*
X8575000Y-10336500D01*
X8515500Y-10396000D01*
X8575000Y-10455500D01*
X8634500Y-10396000D02*
G75*
G03*
X8634500Y-10396000I-59500J0D01*
G01*
X8575000Y-10709500D02*
X8634500Y-10650000D01*
X8575000Y-10590500D01*
X8515500Y-10650000D01*
X8575000Y-10709500D01*
X8634500Y-10650000D02*
G75*
G03*
X8634500Y-10650000I-59500J0D01*
G01*
D24*
X4325000Y-13419990D02*
X4325000Y-13580010D01*
X4244990Y-13500000D02*
X4405010Y-13500000D01*
X4381576Y-13556576D02*
X4381576Y-13443424D01*
X4268424Y-13443424D01*
X4268424Y-13556576D01*
X4381576Y-13556576D01*
X4794900Y-13419990D02*
X4794900Y-13580010D01*
X4714890Y-13500000D02*
X4874910Y-13500000D01*
X4851476Y-13556576D02*
X4851476Y-13443424D01*
X4738324Y-13443424D01*
X4738324Y-13556576D01*
X4851476Y-13556576D01*
X5264800Y-13419990D02*
X5264800Y-13580010D01*
X5184790Y-13500000D02*
X5344810Y-13500000D01*
X5321376Y-13556576D02*
X5321376Y-13443424D01*
X5208224Y-13443424D01*
X5208224Y-13556576D01*
X5321376Y-13556576D01*
X5850000Y-13419990D02*
X5850000Y-13580010D01*
X5769990Y-13500000D02*
X5930010Y-13500000D01*
X5906576Y-13556576D02*
X5906576Y-13443424D01*
X5793424Y-13443424D01*
X5793424Y-13556576D01*
X5906576Y-13556576D01*
X6319900Y-13419990D02*
X6319900Y-13580010D01*
X6239890Y-13500000D02*
X6399910Y-13500000D01*
X6376476Y-13556576D02*
X6376476Y-13443424D01*
X6263324Y-13443424D01*
X6263324Y-13556576D01*
X6376476Y-13556576D01*
X6789800Y-13419990D02*
X6789800Y-13580010D01*
X6709790Y-13500000D02*
X6869810Y-13500000D01*
X6846376Y-13556576D02*
X6846376Y-13443424D01*
X6733224Y-13443424D01*
X6733224Y-13556576D01*
X6846376Y-13556576D01*
D25*
X8394500Y-5131100D02*
X8394500Y-5294100D01*
X8313000Y-5212600D02*
X8476000Y-5212600D01*
X8394500Y-5294100D02*
X8476000Y-5212600D01*
X8394500Y-5131100D01*
X8313000Y-5212600D01*
X8394500Y-5294100D01*
X9943500Y-5131100D02*
X9943500Y-5294100D01*
X9862000Y-5212600D02*
X10025000Y-5212600D01*
X9943500Y-5294100D02*
X10025000Y-5212600D01*
X9943500Y-5131100D01*
X9862000Y-5212600D01*
X9943500Y-5294100D01*
D26*
X11693000Y-4965000D02*
X11808000Y-4850000D01*
X11693000Y-4735000D01*
X11578000Y-4850000D01*
X11693000Y-4965000D01*
X11774318Y-4931318D02*
X11774318Y-4768682D01*
X11611682Y-4768682D01*
X11611682Y-4931318D01*
X11774318Y-4931318D01*
X13007000Y-4965000D02*
X13122000Y-4850000D01*
X13007000Y-4735000D01*
X12892000Y-4850000D01*
X13007000Y-4965000D01*
X13088318Y-4931318D02*
X13088318Y-4768682D01*
X12925682Y-4768682D01*
X12925682Y-4931318D01*
X13088318Y-4931318D01*
D27*
X4160000Y-5230000D02*
X4560000Y-5630000D01*
X4560000Y-5230000D02*
X4160000Y-5630000D01*
X4360000Y-5230000D02*
X4360000Y-5630000D01*
X4160000Y-5430000D02*
X4560000Y-5430000D01*
X4560000Y-5430000D02*
G75*
G03*
X4560000Y-5430000I-200000J0D01*
G01*
X4160000Y-6230000D02*
X4560000Y-6630000D01*
X4560000Y-6230000D02*
X4160000Y-6630000D01*
X4360000Y-6230000D02*
X4360000Y-6630000D01*
X4160000Y-6430000D02*
X4560000Y-6430000D01*
X4560000Y-6430000D02*
G75*
G03*
X4560000Y-6430000I-200000J0D01*
G01*
D12*
X4250119Y-16117976D02*
X4250119Y-15917976D01*
X4297738Y-15917976D01*
X4326310Y-15927500D01*
X4345357Y-15946548D01*
X4354881Y-15965595D01*
X4364405Y-16003690D01*
X4364405Y-16032262D01*
X4354881Y-16070357D01*
X4345357Y-16089405D01*
X4326310Y-16108452D01*
X4297738Y-16117976D01*
X4250119Y-16117976D01*
X4450119Y-16117976D02*
X4450119Y-15984643D01*
X4450119Y-16022738D02*
X4459643Y-16003690D01*
X4469167Y-15994167D01*
X4488214Y-15984643D01*
X4507262Y-15984643D01*
X4573929Y-16117976D02*
X4573929Y-15984643D01*
X4573929Y-15917976D02*
X4564405Y-15927500D01*
X4573929Y-15937024D01*
X4583452Y-15927500D01*
X4573929Y-15917976D01*
X4573929Y-15937024D01*
X4697738Y-16117976D02*
X4678690Y-16108452D01*
X4669167Y-16089405D01*
X4669167Y-15917976D01*
X4802500Y-16117976D02*
X4783452Y-16108452D01*
X4773929Y-16089405D01*
X4773929Y-15917976D01*
X5031071Y-16117976D02*
X5031071Y-15917976D01*
X5097738Y-16060833D01*
X5164405Y-15917976D01*
X5164405Y-16117976D01*
X5345357Y-16117976D02*
X5345357Y-16013214D01*
X5335833Y-15994167D01*
X5316786Y-15984643D01*
X5278690Y-15984643D01*
X5259643Y-15994167D01*
X5345357Y-16108452D02*
X5326310Y-16117976D01*
X5278690Y-16117976D01*
X5259643Y-16108452D01*
X5250119Y-16089405D01*
X5250119Y-16070357D01*
X5259643Y-16051309D01*
X5278690Y-16041786D01*
X5326310Y-16041786D01*
X5345357Y-16032262D01*
X5440595Y-15984643D02*
X5440595Y-16184643D01*
X5440595Y-15994167D02*
X5459643Y-15984643D01*
X5497738Y-15984643D01*
X5516786Y-15994167D01*
X5526310Y-16003690D01*
X5535833Y-16022738D01*
X5535833Y-16079881D01*
X5526310Y-16098928D01*
X5516786Y-16108452D01*
X5497738Y-16117976D01*
X5459643Y-16117976D01*
X5440595Y-16108452D01*
X5621548Y-16098928D02*
X5631071Y-16108452D01*
X5621548Y-16117976D01*
X5612024Y-16108452D01*
X5621548Y-16098928D01*
X5621548Y-16117976D01*
X5621548Y-15994167D02*
X5631071Y-16003690D01*
X5621548Y-16013214D01*
X5612024Y-16003690D01*
X5621548Y-15994167D01*
X5621548Y-16013214D01*
D13*
X3967500Y-16435000D02*
X3992500Y-16460000D01*
X3992500Y-16435000D02*
X3967500Y-16460000D01*
D12*
X4288214Y-16337976D02*
X4307262Y-16337976D01*
X4326310Y-16347500D01*
X4335833Y-16357024D01*
X4345357Y-16376071D01*
X4354881Y-16414167D01*
X4354881Y-16461786D01*
X4345357Y-16499881D01*
X4335833Y-16518928D01*
X4326310Y-16528452D01*
X4307262Y-16537976D01*
X4288214Y-16537976D01*
X4269167Y-16528452D01*
X4259643Y-16518928D01*
X4250119Y-16499881D01*
X4240595Y-16461786D01*
X4240595Y-16414167D01*
X4250119Y-16376071D01*
X4259643Y-16357024D01*
X4269167Y-16347500D01*
X4288214Y-16337976D01*
X4440595Y-16518928D02*
X4450119Y-16528452D01*
X4440595Y-16537976D01*
X4431071Y-16528452D01*
X4440595Y-16518928D01*
X4440595Y-16537976D01*
X4526310Y-16357024D02*
X4535833Y-16347500D01*
X4554881Y-16337976D01*
X4602500Y-16337976D01*
X4621548Y-16347500D01*
X4631071Y-16357024D01*
X4640595Y-16376071D01*
X4640595Y-16395119D01*
X4631071Y-16423690D01*
X4516786Y-16537976D01*
X4640595Y-16537976D01*
X4821548Y-16337976D02*
X4726310Y-16337976D01*
X4716786Y-16433214D01*
X4726310Y-16423690D01*
X4745357Y-16414167D01*
X4792976Y-16414167D01*
X4812024Y-16423690D01*
X4821548Y-16433214D01*
X4831071Y-16452262D01*
X4831071Y-16499881D01*
X4821548Y-16518928D01*
X4812024Y-16528452D01*
X4792976Y-16537976D01*
X4745357Y-16537976D01*
X4726310Y-16528452D01*
X4716786Y-16518928D01*
X4954881Y-16337976D02*
X4973929Y-16337976D01*
X4992976Y-16347500D01*
X5002500Y-16357024D01*
X5012024Y-16376071D01*
X5021548Y-16414167D01*
X5021548Y-16461786D01*
X5012024Y-16499881D01*
X5002500Y-16518928D01*
X4992976Y-16528452D01*
X4973929Y-16537976D01*
X4954881Y-16537976D01*
X4935833Y-16528452D01*
X4926310Y-16518928D01*
X4916786Y-16499881D01*
X4907262Y-16461786D01*
X4907262Y-16414167D01*
X4916786Y-16376071D01*
X4926310Y-16357024D01*
X4935833Y-16347500D01*
X4954881Y-16337976D01*
X5107262Y-16537976D02*
X5107262Y-16404643D01*
X5107262Y-16423690D02*
X5116786Y-16414167D01*
X5135833Y-16404643D01*
X5164405Y-16404643D01*
X5183452Y-16414167D01*
X5192976Y-16433214D01*
X5192976Y-16537976D01*
X5192976Y-16433214D02*
X5202500Y-16414167D01*
X5221548Y-16404643D01*
X5250119Y-16404643D01*
X5269167Y-16414167D01*
X5278690Y-16433214D01*
X5278690Y-16537976D01*
X5373929Y-16537976D02*
X5373929Y-16404643D01*
X5373929Y-16423690D02*
X5383452Y-16414167D01*
X5402500Y-16404643D01*
X5431071Y-16404643D01*
X5450119Y-16414167D01*
X5459643Y-16433214D01*
X5459643Y-16537976D01*
X5459643Y-16433214D02*
X5469167Y-16414167D01*
X5488214Y-16404643D01*
X5516786Y-16404643D01*
X5535833Y-16414167D01*
X5545357Y-16433214D01*
X5545357Y-16537976D01*
X5935833Y-16328452D02*
X5764405Y-16585595D01*
X6192976Y-16337976D02*
X6212024Y-16337976D01*
X6231071Y-16347500D01*
X6240595Y-16357024D01*
X6250119Y-16376071D01*
X6259643Y-16414167D01*
X6259643Y-16461786D01*
X6250119Y-16499881D01*
X6240595Y-16518928D01*
X6231071Y-16528452D01*
X6212024Y-16537976D01*
X6192976Y-16537976D01*
X6173928Y-16528452D01*
X6164405Y-16518928D01*
X6154881Y-16499881D01*
X6145357Y-16461786D01*
X6145357Y-16414167D01*
X6154881Y-16376071D01*
X6164405Y-16357024D01*
X6173928Y-16347500D01*
X6192976Y-16337976D01*
X6345357Y-16518928D02*
X6354881Y-16528452D01*
X6345357Y-16537976D01*
X6335833Y-16528452D01*
X6345357Y-16518928D01*
X6345357Y-16537976D01*
X6478690Y-16337976D02*
X6497738Y-16337976D01*
X6516786Y-16347500D01*
X6526309Y-16357024D01*
X6535833Y-16376071D01*
X6545357Y-16414167D01*
X6545357Y-16461786D01*
X6535833Y-16499881D01*
X6526309Y-16518928D01*
X6516786Y-16528452D01*
X6497738Y-16537976D01*
X6478690Y-16537976D01*
X6459643Y-16528452D01*
X6450119Y-16518928D01*
X6440595Y-16499881D01*
X6431071Y-16461786D01*
X6431071Y-16414167D01*
X6440595Y-16376071D01*
X6450119Y-16357024D01*
X6459643Y-16347500D01*
X6478690Y-16337976D01*
X6669167Y-16337976D02*
X6688214Y-16337976D01*
X6707262Y-16347500D01*
X6716786Y-16357024D01*
X6726309Y-16376071D01*
X6735833Y-16414167D01*
X6735833Y-16461786D01*
X6726309Y-16499881D01*
X6716786Y-16518928D01*
X6707262Y-16528452D01*
X6688214Y-16537976D01*
X6669167Y-16537976D01*
X6650119Y-16528452D01*
X6640595Y-16518928D01*
X6631071Y-16499881D01*
X6621548Y-16461786D01*
X6621548Y-16414167D01*
X6631071Y-16376071D01*
X6640595Y-16357024D01*
X6650119Y-16347500D01*
X6669167Y-16337976D01*
X6831071Y-16537976D02*
X6869167Y-16537976D01*
X6888214Y-16528452D01*
X6897738Y-16518928D01*
X6916786Y-16490357D01*
X6926309Y-16452262D01*
X6926309Y-16376071D01*
X6916786Y-16357024D01*
X6907262Y-16347500D01*
X6888214Y-16337976D01*
X6850119Y-16337976D01*
X6831071Y-16347500D01*
X6821548Y-16357024D01*
X6812024Y-16376071D01*
X6812024Y-16423690D01*
X6821548Y-16442738D01*
X6831071Y-16452262D01*
X6850119Y-16461786D01*
X6888214Y-16461786D01*
X6907262Y-16452262D01*
X6916786Y-16442738D01*
X6926309Y-16423690D01*
X7040595Y-16423690D02*
X7021548Y-16414167D01*
X7012024Y-16404643D01*
X7002500Y-16385595D01*
X7002500Y-16376071D01*
X7012024Y-16357024D01*
X7021548Y-16347500D01*
X7040595Y-16337976D01*
X7078690Y-16337976D01*
X7097738Y-16347500D01*
X7107262Y-16357024D01*
X7116786Y-16376071D01*
X7116786Y-16385595D01*
X7107262Y-16404643D01*
X7097738Y-16414167D01*
X7078690Y-16423690D01*
X7040595Y-16423690D01*
X7021548Y-16433214D01*
X7012024Y-16442738D01*
X7002500Y-16461786D01*
X7002500Y-16499881D01*
X7012024Y-16518928D01*
X7021548Y-16528452D01*
X7040595Y-16537976D01*
X7078690Y-16537976D01*
X7097738Y-16528452D01*
X7107262Y-16518928D01*
X7116786Y-16499881D01*
X7116786Y-16461786D01*
X7107262Y-16442738D01*
X7097738Y-16433214D01*
X7078690Y-16423690D01*
X7192976Y-16337976D02*
X7192976Y-16376071D01*
X7269167Y-16337976D02*
X7269167Y-16376071D01*
X7564405Y-16614167D02*
X7554881Y-16604643D01*
X7535833Y-16576071D01*
X7526309Y-16557024D01*
X7516786Y-16528452D01*
X7507262Y-16480833D01*
X7507262Y-16442738D01*
X7516786Y-16395119D01*
X7526309Y-16366548D01*
X7535833Y-16347500D01*
X7554881Y-16318928D01*
X7564405Y-16309405D01*
X7745357Y-16537976D02*
X7631071Y-16537976D01*
X7688214Y-16537976D02*
X7688214Y-16337976D01*
X7669167Y-16366548D01*
X7650119Y-16385595D01*
X7631071Y-16395119D01*
X7916786Y-16337976D02*
X7878690Y-16337976D01*
X7859643Y-16347500D01*
X7850119Y-16357024D01*
X7831071Y-16385595D01*
X7821548Y-16423690D01*
X7821548Y-16499881D01*
X7831071Y-16518928D01*
X7840595Y-16528452D01*
X7859643Y-16537976D01*
X7897738Y-16537976D01*
X7916786Y-16528452D01*
X7926309Y-16518928D01*
X7935833Y-16499881D01*
X7935833Y-16452262D01*
X7926309Y-16433214D01*
X7916786Y-16423690D01*
X7897738Y-16414167D01*
X7859643Y-16414167D01*
X7840595Y-16423690D01*
X7831071Y-16433214D01*
X7821548Y-16452262D01*
X8002500Y-16337976D02*
X8135833Y-16337976D01*
X8050119Y-16537976D01*
X8364405Y-16537976D02*
X8364405Y-16337976D01*
X8450119Y-16537976D02*
X8450119Y-16433214D01*
X8440595Y-16414167D01*
X8421548Y-16404643D01*
X8392976Y-16404643D01*
X8373928Y-16414167D01*
X8364405Y-16423690D01*
X8573929Y-16537976D02*
X8554881Y-16528452D01*
X8545357Y-16518928D01*
X8535833Y-16499881D01*
X8535833Y-16442738D01*
X8545357Y-16423690D01*
X8554881Y-16414167D01*
X8573929Y-16404643D01*
X8602500Y-16404643D01*
X8621548Y-16414167D01*
X8631071Y-16423690D01*
X8640595Y-16442738D01*
X8640595Y-16499881D01*
X8631071Y-16518928D01*
X8621548Y-16528452D01*
X8602500Y-16537976D01*
X8573929Y-16537976D01*
X8754881Y-16537976D02*
X8735833Y-16528452D01*
X8726310Y-16509405D01*
X8726310Y-16337976D01*
X8907262Y-16528452D02*
X8888214Y-16537976D01*
X8850119Y-16537976D01*
X8831071Y-16528452D01*
X8821548Y-16509405D01*
X8821548Y-16433214D01*
X8831071Y-16414167D01*
X8850119Y-16404643D01*
X8888214Y-16404643D01*
X8907262Y-16414167D01*
X8916786Y-16433214D01*
X8916786Y-16452262D01*
X8821548Y-16471309D01*
X8992976Y-16528452D02*
X9012024Y-16537976D01*
X9050119Y-16537976D01*
X9069167Y-16528452D01*
X9078690Y-16509405D01*
X9078690Y-16499881D01*
X9069167Y-16480833D01*
X9050119Y-16471309D01*
X9021548Y-16471309D01*
X9002500Y-16461786D01*
X8992976Y-16442738D01*
X8992976Y-16433214D01*
X9002500Y-16414167D01*
X9021548Y-16404643D01*
X9050119Y-16404643D01*
X9069167Y-16414167D01*
X9145357Y-16614167D02*
X9154881Y-16604643D01*
X9173929Y-16576071D01*
X9183452Y-16557024D01*
X9192976Y-16528452D01*
X9202500Y-16480833D01*
X9202500Y-16442738D01*
X9192976Y-16395119D01*
X9183452Y-16366548D01*
X9173929Y-16347500D01*
X9154881Y-16318928D01*
X9145357Y-16309405D01*
D14*
X3992500Y-16711500D02*
G75*
G03*
X3992500Y-16711500I-20000J0D01*
G01*
D12*
X4288214Y-16601976D02*
X4307262Y-16601976D01*
X4326310Y-16611500D01*
X4335833Y-16621024D01*
X4345357Y-16640071D01*
X4354881Y-16678167D01*
X4354881Y-16725786D01*
X4345357Y-16763881D01*
X4335833Y-16782929D01*
X4326310Y-16792452D01*
X4307262Y-16801976D01*
X4288214Y-16801976D01*
X4269167Y-16792452D01*
X4259643Y-16782929D01*
X4250119Y-16763881D01*
X4240595Y-16725786D01*
X4240595Y-16678167D01*
X4250119Y-16640071D01*
X4259643Y-16621024D01*
X4269167Y-16611500D01*
X4288214Y-16601976D01*
X4440595Y-16782929D02*
X4450119Y-16792452D01*
X4440595Y-16801976D01*
X4431071Y-16792452D01*
X4440595Y-16782929D01*
X4440595Y-16801976D01*
X4621548Y-16668643D02*
X4621548Y-16801976D01*
X4573929Y-16592452D02*
X4526310Y-16735309D01*
X4650119Y-16735309D01*
X4764405Y-16601976D02*
X4783452Y-16601976D01*
X4802500Y-16611500D01*
X4812024Y-16621024D01*
X4821548Y-16640071D01*
X4831071Y-16678167D01*
X4831071Y-16725786D01*
X4821548Y-16763881D01*
X4812024Y-16782929D01*
X4802500Y-16792452D01*
X4783452Y-16801976D01*
X4764405Y-16801976D01*
X4745357Y-16792452D01*
X4735833Y-16782929D01*
X4726310Y-16763881D01*
X4716786Y-16725786D01*
X4716786Y-16678167D01*
X4726310Y-16640071D01*
X4735833Y-16621024D01*
X4745357Y-16611500D01*
X4764405Y-16601976D01*
X4954881Y-16601976D02*
X4973929Y-16601976D01*
X4992976Y-16611500D01*
X5002500Y-16621024D01*
X5012024Y-16640071D01*
X5021548Y-16678167D01*
X5021548Y-16725786D01*
X5012024Y-16763881D01*
X5002500Y-16782929D01*
X4992976Y-16792452D01*
X4973929Y-16801976D01*
X4954881Y-16801976D01*
X4935833Y-16792452D01*
X4926310Y-16782929D01*
X4916786Y-16763881D01*
X4907262Y-16725786D01*
X4907262Y-16678167D01*
X4916786Y-16640071D01*
X4926310Y-16621024D01*
X4935833Y-16611500D01*
X4954881Y-16601976D01*
X5107262Y-16801976D02*
X5107262Y-16668643D01*
X5107262Y-16687690D02*
X5116786Y-16678167D01*
X5135833Y-16668643D01*
X5164405Y-16668643D01*
X5183452Y-16678167D01*
X5192976Y-16697214D01*
X5192976Y-16801976D01*
X5192976Y-16697214D02*
X5202500Y-16678167D01*
X5221548Y-16668643D01*
X5250119Y-16668643D01*
X5269167Y-16678167D01*
X5278690Y-16697214D01*
X5278690Y-16801976D01*
X5373929Y-16801976D02*
X5373929Y-16668643D01*
X5373929Y-16687690D02*
X5383452Y-16678167D01*
X5402500Y-16668643D01*
X5431071Y-16668643D01*
X5450119Y-16678167D01*
X5459643Y-16697214D01*
X5459643Y-16801976D01*
X5459643Y-16697214D02*
X5469167Y-16678167D01*
X5488214Y-16668643D01*
X5516786Y-16668643D01*
X5535833Y-16678167D01*
X5545357Y-16697214D01*
X5545357Y-16801976D01*
X5935833Y-16592452D02*
X5764405Y-16849595D01*
X6192976Y-16601976D02*
X6212024Y-16601976D01*
X6231071Y-16611500D01*
X6240595Y-16621024D01*
X6250119Y-16640071D01*
X6259643Y-16678167D01*
X6259643Y-16725786D01*
X6250119Y-16763881D01*
X6240595Y-16782929D01*
X6231071Y-16792452D01*
X6212024Y-16801976D01*
X6192976Y-16801976D01*
X6173928Y-16792452D01*
X6164405Y-16782929D01*
X6154881Y-16763881D01*
X6145357Y-16725786D01*
X6145357Y-16678167D01*
X6154881Y-16640071D01*
X6164405Y-16621024D01*
X6173928Y-16611500D01*
X6192976Y-16601976D01*
X6345357Y-16782929D02*
X6354881Y-16792452D01*
X6345357Y-16801976D01*
X6335833Y-16792452D01*
X6345357Y-16782929D01*
X6345357Y-16801976D01*
X6478690Y-16601976D02*
X6497738Y-16601976D01*
X6516786Y-16611500D01*
X6526309Y-16621024D01*
X6535833Y-16640071D01*
X6545357Y-16678167D01*
X6545357Y-16725786D01*
X6535833Y-16763881D01*
X6526309Y-16782929D01*
X6516786Y-16792452D01*
X6497738Y-16801976D01*
X6478690Y-16801976D01*
X6459643Y-16792452D01*
X6450119Y-16782929D01*
X6440595Y-16763881D01*
X6431071Y-16725786D01*
X6431071Y-16678167D01*
X6440595Y-16640071D01*
X6450119Y-16621024D01*
X6459643Y-16611500D01*
X6478690Y-16601976D01*
X6735833Y-16801976D02*
X6621548Y-16801976D01*
X6678690Y-16801976D02*
X6678690Y-16601976D01*
X6659643Y-16630548D01*
X6640595Y-16649595D01*
X6621548Y-16659119D01*
X6916786Y-16601976D02*
X6821548Y-16601976D01*
X6812024Y-16697214D01*
X6821548Y-16687690D01*
X6840595Y-16678167D01*
X6888214Y-16678167D01*
X6907262Y-16687690D01*
X6916786Y-16697214D01*
X6926309Y-16716262D01*
X6926309Y-16763881D01*
X6916786Y-16782929D01*
X6907262Y-16792452D01*
X6888214Y-16801976D01*
X6840595Y-16801976D01*
X6821548Y-16792452D01*
X6812024Y-16782929D01*
X6992976Y-16601976D02*
X7126309Y-16601976D01*
X7040595Y-16801976D01*
X7192976Y-16601976D02*
X7192976Y-16640071D01*
X7269167Y-16601976D02*
X7269167Y-16640071D01*
X7564405Y-16878167D02*
X7554881Y-16868643D01*
X7535833Y-16840071D01*
X7526309Y-16821024D01*
X7516786Y-16792452D01*
X7507262Y-16744833D01*
X7507262Y-16706738D01*
X7516786Y-16659119D01*
X7526309Y-16630548D01*
X7535833Y-16611500D01*
X7554881Y-16582928D01*
X7564405Y-16573405D01*
X7669167Y-16687690D02*
X7650119Y-16678167D01*
X7640595Y-16668643D01*
X7631071Y-16649595D01*
X7631071Y-16640071D01*
X7640595Y-16621024D01*
X7650119Y-16611500D01*
X7669167Y-16601976D01*
X7707262Y-16601976D01*
X7726309Y-16611500D01*
X7735833Y-16621024D01*
X7745357Y-16640071D01*
X7745357Y-16649595D01*
X7735833Y-16668643D01*
X7726309Y-16678167D01*
X7707262Y-16687690D01*
X7669167Y-16687690D01*
X7650119Y-16697214D01*
X7640595Y-16706738D01*
X7631071Y-16725786D01*
X7631071Y-16763881D01*
X7640595Y-16782929D01*
X7650119Y-16792452D01*
X7669167Y-16801976D01*
X7707262Y-16801976D01*
X7726309Y-16792452D01*
X7735833Y-16782929D01*
X7745357Y-16763881D01*
X7745357Y-16725786D01*
X7735833Y-16706738D01*
X7726309Y-16697214D01*
X7707262Y-16687690D01*
X7859643Y-16687690D02*
X7840595Y-16678167D01*
X7831071Y-16668643D01*
X7821548Y-16649595D01*
X7821548Y-16640071D01*
X7831071Y-16621024D01*
X7840595Y-16611500D01*
X7859643Y-16601976D01*
X7897738Y-16601976D01*
X7916786Y-16611500D01*
X7926309Y-16621024D01*
X7935833Y-16640071D01*
X7935833Y-16649595D01*
X7926309Y-16668643D01*
X7916786Y-16678167D01*
X7897738Y-16687690D01*
X7859643Y-16687690D01*
X7840595Y-16697214D01*
X7831071Y-16706738D01*
X7821548Y-16725786D01*
X7821548Y-16763881D01*
X7831071Y-16782929D01*
X7840595Y-16792452D01*
X7859643Y-16801976D01*
X7897738Y-16801976D01*
X7916786Y-16792452D01*
X7926309Y-16782929D01*
X7935833Y-16763881D01*
X7935833Y-16725786D01*
X7926309Y-16706738D01*
X7916786Y-16697214D01*
X7897738Y-16687690D01*
X8173928Y-16801976D02*
X8173928Y-16601976D01*
X8259643Y-16801976D02*
X8259643Y-16697214D01*
X8250119Y-16678167D01*
X8231071Y-16668643D01*
X8202500Y-16668643D01*
X8183452Y-16678167D01*
X8173928Y-16687690D01*
X8383452Y-16801976D02*
X8364405Y-16792452D01*
X8354881Y-16782929D01*
X8345357Y-16763881D01*
X8345357Y-16706738D01*
X8354881Y-16687690D01*
X8364405Y-16678167D01*
X8383452Y-16668643D01*
X8412024Y-16668643D01*
X8431071Y-16678167D01*
X8440595Y-16687690D01*
X8450119Y-16706738D01*
X8450119Y-16763881D01*
X8440595Y-16782929D01*
X8431071Y-16792452D01*
X8412024Y-16801976D01*
X8383452Y-16801976D01*
X8564405Y-16801976D02*
X8545357Y-16792452D01*
X8535833Y-16773405D01*
X8535833Y-16601976D01*
X8716786Y-16792452D02*
X8697738Y-16801976D01*
X8659643Y-16801976D01*
X8640595Y-16792452D01*
X8631071Y-16773405D01*
X8631071Y-16697214D01*
X8640595Y-16678167D01*
X8659643Y-16668643D01*
X8697738Y-16668643D01*
X8716786Y-16678167D01*
X8726310Y-16697214D01*
X8726310Y-16716262D01*
X8631071Y-16735309D01*
X8802500Y-16792452D02*
X8821548Y-16801976D01*
X8859643Y-16801976D01*
X8878690Y-16792452D01*
X8888214Y-16773405D01*
X8888214Y-16763881D01*
X8878690Y-16744833D01*
X8859643Y-16735309D01*
X8831071Y-16735309D01*
X8812024Y-16725786D01*
X8802500Y-16706738D01*
X8802500Y-16697214D01*
X8812024Y-16678167D01*
X8831071Y-16668643D01*
X8859643Y-16668643D01*
X8878690Y-16678167D01*
X8954881Y-16878167D02*
X8964405Y-16868643D01*
X8983452Y-16840071D01*
X8992976Y-16821024D01*
X9002500Y-16792452D01*
X9012024Y-16744833D01*
X9012024Y-16706738D01*
X9002500Y-16659119D01*
X8992976Y-16630548D01*
X8983452Y-16611500D01*
X8964405Y-16582928D01*
X8954881Y-16573405D01*
D15*
X3967500Y-16950500D02*
X3967500Y-17000500D01*
X3942500Y-16975500D02*
X3992500Y-16975500D01*
D12*
X4288214Y-16865976D02*
X4307262Y-16865976D01*
X4326310Y-16875500D01*
X4335833Y-16885024D01*
X4345357Y-16904071D01*
X4354881Y-16942167D01*
X4354881Y-16989786D01*
X4345357Y-17027881D01*
X4335833Y-17046929D01*
X4326310Y-17056452D01*
X4307262Y-17065976D01*
X4288214Y-17065976D01*
X4269167Y-17056452D01*
X4259643Y-17046929D01*
X4250119Y-17027881D01*
X4240595Y-16989786D01*
X4240595Y-16942167D01*
X4250119Y-16904071D01*
X4259643Y-16885024D01*
X4269167Y-16875500D01*
X4288214Y-16865976D01*
X4440595Y-17046929D02*
X4450119Y-17056452D01*
X4440595Y-17065976D01*
X4431071Y-17056452D01*
X4440595Y-17046929D01*
X4440595Y-17065976D01*
X4631071Y-16865976D02*
X4535833Y-16865976D01*
X4526310Y-16961214D01*
X4535833Y-16951690D01*
X4554881Y-16942167D01*
X4602500Y-16942167D01*
X4621548Y-16951690D01*
X4631071Y-16961214D01*
X4640595Y-16980262D01*
X4640595Y-17027881D01*
X4631071Y-17046929D01*
X4621548Y-17056452D01*
X4602500Y-17065976D01*
X4554881Y-17065976D01*
X4535833Y-17056452D01*
X4526310Y-17046929D01*
X4764405Y-16865976D02*
X4783452Y-16865976D01*
X4802500Y-16875500D01*
X4812024Y-16885024D01*
X4821548Y-16904071D01*
X4831071Y-16942167D01*
X4831071Y-16989786D01*
X4821548Y-17027881D01*
X4812024Y-17046929D01*
X4802500Y-17056452D01*
X4783452Y-17065976D01*
X4764405Y-17065976D01*
X4745357Y-17056452D01*
X4735833Y-17046929D01*
X4726310Y-17027881D01*
X4716786Y-16989786D01*
X4716786Y-16942167D01*
X4726310Y-16904071D01*
X4735833Y-16885024D01*
X4745357Y-16875500D01*
X4764405Y-16865976D01*
X4954881Y-16865976D02*
X4973929Y-16865976D01*
X4992976Y-16875500D01*
X5002500Y-16885024D01*
X5012024Y-16904071D01*
X5021548Y-16942167D01*
X5021548Y-16989786D01*
X5012024Y-17027881D01*
X5002500Y-17046929D01*
X4992976Y-17056452D01*
X4973929Y-17065976D01*
X4954881Y-17065976D01*
X4935833Y-17056452D01*
X4926310Y-17046929D01*
X4916786Y-17027881D01*
X4907262Y-16989786D01*
X4907262Y-16942167D01*
X4916786Y-16904071D01*
X4926310Y-16885024D01*
X4935833Y-16875500D01*
X4954881Y-16865976D01*
X5107262Y-17065976D02*
X5107262Y-16932643D01*
X5107262Y-16951690D02*
X5116786Y-16942167D01*
X5135833Y-16932643D01*
X5164405Y-16932643D01*
X5183452Y-16942167D01*
X5192976Y-16961214D01*
X5192976Y-17065976D01*
X5192976Y-16961214D02*
X5202500Y-16942167D01*
X5221548Y-16932643D01*
X5250119Y-16932643D01*
X5269167Y-16942167D01*
X5278690Y-16961214D01*
X5278690Y-17065976D01*
X5373929Y-17065976D02*
X5373929Y-16932643D01*
X5373929Y-16951690D02*
X5383452Y-16942167D01*
X5402500Y-16932643D01*
X5431071Y-16932643D01*
X5450119Y-16942167D01*
X5459643Y-16961214D01*
X5459643Y-17065976D01*
X5459643Y-16961214D02*
X5469167Y-16942167D01*
X5488214Y-16932643D01*
X5516786Y-16932643D01*
X5535833Y-16942167D01*
X5545357Y-16961214D01*
X5545357Y-17065976D01*
X5935833Y-16856452D02*
X5764405Y-17113595D01*
X6192976Y-16865976D02*
X6212024Y-16865976D01*
X6231071Y-16875500D01*
X6240595Y-16885024D01*
X6250119Y-16904071D01*
X6259643Y-16942167D01*
X6259643Y-16989786D01*
X6250119Y-17027881D01*
X6240595Y-17046929D01*
X6231071Y-17056452D01*
X6212024Y-17065976D01*
X6192976Y-17065976D01*
X6173928Y-17056452D01*
X6164405Y-17046929D01*
X6154881Y-17027881D01*
X6145357Y-16989786D01*
X6145357Y-16942167D01*
X6154881Y-16904071D01*
X6164405Y-16885024D01*
X6173928Y-16875500D01*
X6192976Y-16865976D01*
X6345357Y-17046929D02*
X6354881Y-17056452D01*
X6345357Y-17065976D01*
X6335833Y-17056452D01*
X6345357Y-17046929D01*
X6345357Y-17065976D01*
X6478690Y-16865976D02*
X6497738Y-16865976D01*
X6516786Y-16875500D01*
X6526309Y-16885024D01*
X6535833Y-16904071D01*
X6545357Y-16942167D01*
X6545357Y-16989786D01*
X6535833Y-17027881D01*
X6526309Y-17046929D01*
X6516786Y-17056452D01*
X6497738Y-17065976D01*
X6478690Y-17065976D01*
X6459643Y-17056452D01*
X6450119Y-17046929D01*
X6440595Y-17027881D01*
X6431071Y-16989786D01*
X6431071Y-16942167D01*
X6440595Y-16904071D01*
X6450119Y-16885024D01*
X6459643Y-16875500D01*
X6478690Y-16865976D01*
X6735833Y-17065976D02*
X6621548Y-17065976D01*
X6678690Y-17065976D02*
X6678690Y-16865976D01*
X6659643Y-16894548D01*
X6640595Y-16913595D01*
X6621548Y-16923119D01*
X6831071Y-17065976D02*
X6869167Y-17065976D01*
X6888214Y-17056452D01*
X6897738Y-17046929D01*
X6916786Y-17018357D01*
X6926309Y-16980262D01*
X6926309Y-16904071D01*
X6916786Y-16885024D01*
X6907262Y-16875500D01*
X6888214Y-16865976D01*
X6850119Y-16865976D01*
X6831071Y-16875500D01*
X6821548Y-16885024D01*
X6812024Y-16904071D01*
X6812024Y-16951690D01*
X6821548Y-16970738D01*
X6831071Y-16980262D01*
X6850119Y-16989786D01*
X6888214Y-16989786D01*
X6907262Y-16980262D01*
X6916786Y-16970738D01*
X6926309Y-16951690D01*
X6992976Y-16865976D02*
X7126309Y-16865976D01*
X7040595Y-17065976D01*
X7192976Y-16865976D02*
X7192976Y-16904071D01*
X7269167Y-16865976D02*
X7269167Y-16904071D01*
X7564405Y-17142167D02*
X7554881Y-17132643D01*
X7535833Y-17104071D01*
X7526309Y-17085024D01*
X7516786Y-17056452D01*
X7507262Y-17008833D01*
X7507262Y-16970738D01*
X7516786Y-16923119D01*
X7526309Y-16894548D01*
X7535833Y-16875500D01*
X7554881Y-16846929D01*
X7564405Y-16837405D01*
X7726309Y-16932643D02*
X7726309Y-17065976D01*
X7678690Y-16856452D02*
X7631071Y-16999310D01*
X7754881Y-16999310D01*
X7821548Y-16885024D02*
X7831071Y-16875500D01*
X7850119Y-16865976D01*
X7897738Y-16865976D01*
X7916786Y-16875500D01*
X7926309Y-16885024D01*
X7935833Y-16904071D01*
X7935833Y-16923119D01*
X7926309Y-16951690D01*
X7812024Y-17065976D01*
X7935833Y-17065976D01*
X8173928Y-17065976D02*
X8173928Y-16865976D01*
X8259643Y-17065976D02*
X8259643Y-16961214D01*
X8250119Y-16942167D01*
X8231071Y-16932643D01*
X8202500Y-16932643D01*
X8183452Y-16942167D01*
X8173928Y-16951690D01*
X8383452Y-17065976D02*
X8364405Y-17056452D01*
X8354881Y-17046929D01*
X8345357Y-17027881D01*
X8345357Y-16970738D01*
X8354881Y-16951690D01*
X8364405Y-16942167D01*
X8383452Y-16932643D01*
X8412024Y-16932643D01*
X8431071Y-16942167D01*
X8440595Y-16951690D01*
X8450119Y-16970738D01*
X8450119Y-17027881D01*
X8440595Y-17046929D01*
X8431071Y-17056452D01*
X8412024Y-17065976D01*
X8383452Y-17065976D01*
X8564405Y-17065976D02*
X8545357Y-17056452D01*
X8535833Y-17037405D01*
X8535833Y-16865976D01*
X8716786Y-17056452D02*
X8697738Y-17065976D01*
X8659643Y-17065976D01*
X8640595Y-17056452D01*
X8631071Y-17037405D01*
X8631071Y-16961214D01*
X8640595Y-16942167D01*
X8659643Y-16932643D01*
X8697738Y-16932643D01*
X8716786Y-16942167D01*
X8726310Y-16961214D01*
X8726310Y-16980262D01*
X8631071Y-16999310D01*
X8802500Y-17056452D02*
X8821548Y-17065976D01*
X8859643Y-17065976D01*
X8878690Y-17056452D01*
X8888214Y-17037405D01*
X8888214Y-17027881D01*
X8878690Y-17008833D01*
X8859643Y-16999310D01*
X8831071Y-16999310D01*
X8812024Y-16989786D01*
X8802500Y-16970738D01*
X8802500Y-16961214D01*
X8812024Y-16942167D01*
X8831071Y-16932643D01*
X8859643Y-16932643D01*
X8878690Y-16942167D01*
X8954881Y-17142167D02*
X8964405Y-17132643D01*
X8983452Y-17104071D01*
X8992976Y-17085024D01*
X9002500Y-17056452D01*
X9012024Y-17008833D01*
X9012024Y-16970738D01*
X9002500Y-16923119D01*
X8992976Y-16894548D01*
X8983452Y-16875500D01*
X8964405Y-16846929D01*
X8954881Y-16837405D01*
D16*
X3983713Y-17260713D02*
X3983713Y-17218287D01*
X3941287Y-17218287D01*
X3941287Y-17260713D01*
X3983713Y-17260713D01*
D12*
X4288214Y-17129976D02*
X4307262Y-17129976D01*
X4326310Y-17139500D01*
X4335833Y-17149024D01*
X4345357Y-17168071D01*
X4354881Y-17206167D01*
X4354881Y-17253786D01*
X4345357Y-17291881D01*
X4335833Y-17310929D01*
X4326310Y-17320452D01*
X4307262Y-17329976D01*
X4288214Y-17329976D01*
X4269167Y-17320452D01*
X4259643Y-17310929D01*
X4250119Y-17291881D01*
X4240595Y-17253786D01*
X4240595Y-17206167D01*
X4250119Y-17168071D01*
X4259643Y-17149024D01*
X4269167Y-17139500D01*
X4288214Y-17129976D01*
X4440595Y-17310929D02*
X4450119Y-17320452D01*
X4440595Y-17329976D01*
X4431071Y-17320452D01*
X4440595Y-17310929D01*
X4440595Y-17329976D01*
X4621548Y-17129976D02*
X4583452Y-17129976D01*
X4564405Y-17139500D01*
X4554881Y-17149024D01*
X4535833Y-17177595D01*
X4526310Y-17215690D01*
X4526310Y-17291881D01*
X4535833Y-17310929D01*
X4545357Y-17320452D01*
X4564405Y-17329976D01*
X4602500Y-17329976D01*
X4621548Y-17320452D01*
X4631071Y-17310929D01*
X4640595Y-17291881D01*
X4640595Y-17244262D01*
X4631071Y-17225214D01*
X4621548Y-17215690D01*
X4602500Y-17206167D01*
X4564405Y-17206167D01*
X4545357Y-17215690D01*
X4535833Y-17225214D01*
X4526310Y-17244262D01*
X4764405Y-17129976D02*
X4783452Y-17129976D01*
X4802500Y-17139500D01*
X4812024Y-17149024D01*
X4821548Y-17168071D01*
X4831071Y-17206167D01*
X4831071Y-17253786D01*
X4821548Y-17291881D01*
X4812024Y-17310929D01*
X4802500Y-17320452D01*
X4783452Y-17329976D01*
X4764405Y-17329976D01*
X4745357Y-17320452D01*
X4735833Y-17310929D01*
X4726310Y-17291881D01*
X4716786Y-17253786D01*
X4716786Y-17206167D01*
X4726310Y-17168071D01*
X4735833Y-17149024D01*
X4745357Y-17139500D01*
X4764405Y-17129976D01*
X4954881Y-17129976D02*
X4973929Y-17129976D01*
X4992976Y-17139500D01*
X5002500Y-17149024D01*
X5012024Y-17168071D01*
X5021548Y-17206167D01*
X5021548Y-17253786D01*
X5012024Y-17291881D01*
X5002500Y-17310929D01*
X4992976Y-17320452D01*
X4973929Y-17329976D01*
X4954881Y-17329976D01*
X4935833Y-17320452D01*
X4926310Y-17310929D01*
X4916786Y-17291881D01*
X4907262Y-17253786D01*
X4907262Y-17206167D01*
X4916786Y-17168071D01*
X4926310Y-17149024D01*
X4935833Y-17139500D01*
X4954881Y-17129976D01*
X5107262Y-17329976D02*
X5107262Y-17196643D01*
X5107262Y-17215690D02*
X5116786Y-17206167D01*
X5135833Y-17196643D01*
X5164405Y-17196643D01*
X5183452Y-17206167D01*
X5192976Y-17225214D01*
X5192976Y-17329976D01*
X5192976Y-17225214D02*
X5202500Y-17206167D01*
X5221548Y-17196643D01*
X5250119Y-17196643D01*
X5269167Y-17206167D01*
X5278690Y-17225214D01*
X5278690Y-17329976D01*
X5373929Y-17329976D02*
X5373929Y-17196643D01*
X5373929Y-17215690D02*
X5383452Y-17206167D01*
X5402500Y-17196643D01*
X5431071Y-17196643D01*
X5450119Y-17206167D01*
X5459643Y-17225214D01*
X5459643Y-17329976D01*
X5459643Y-17225214D02*
X5469167Y-17206167D01*
X5488214Y-17196643D01*
X5516786Y-17196643D01*
X5535833Y-17206167D01*
X5545357Y-17225214D01*
X5545357Y-17329976D01*
X5935833Y-17120452D02*
X5764405Y-17377595D01*
X6192976Y-17129976D02*
X6212024Y-17129976D01*
X6231071Y-17139500D01*
X6240595Y-17149024D01*
X6250119Y-17168071D01*
X6259643Y-17206167D01*
X6259643Y-17253786D01*
X6250119Y-17291881D01*
X6240595Y-17310929D01*
X6231071Y-17320452D01*
X6212024Y-17329976D01*
X6192976Y-17329976D01*
X6173928Y-17320452D01*
X6164405Y-17310929D01*
X6154881Y-17291881D01*
X6145357Y-17253786D01*
X6145357Y-17206167D01*
X6154881Y-17168071D01*
X6164405Y-17149024D01*
X6173928Y-17139500D01*
X6192976Y-17129976D01*
X6345357Y-17310929D02*
X6354881Y-17320452D01*
X6345357Y-17329976D01*
X6335833Y-17320452D01*
X6345357Y-17310929D01*
X6345357Y-17329976D01*
X6478690Y-17129976D02*
X6497738Y-17129976D01*
X6516786Y-17139500D01*
X6526309Y-17149024D01*
X6535833Y-17168071D01*
X6545357Y-17206167D01*
X6545357Y-17253786D01*
X6535833Y-17291881D01*
X6526309Y-17310929D01*
X6516786Y-17320452D01*
X6497738Y-17329976D01*
X6478690Y-17329976D01*
X6459643Y-17320452D01*
X6450119Y-17310929D01*
X6440595Y-17291881D01*
X6431071Y-17253786D01*
X6431071Y-17206167D01*
X6440595Y-17168071D01*
X6450119Y-17149024D01*
X6459643Y-17139500D01*
X6478690Y-17129976D01*
X6621548Y-17149024D02*
X6631071Y-17139500D01*
X6650119Y-17129976D01*
X6697738Y-17129976D01*
X6716786Y-17139500D01*
X6726309Y-17149024D01*
X6735833Y-17168071D01*
X6735833Y-17187119D01*
X6726309Y-17215690D01*
X6612024Y-17329976D01*
X6735833Y-17329976D01*
X6802500Y-17129976D02*
X6926309Y-17129976D01*
X6859643Y-17206167D01*
X6888214Y-17206167D01*
X6907262Y-17215690D01*
X6916786Y-17225214D01*
X6926309Y-17244262D01*
X6926309Y-17291881D01*
X6916786Y-17310929D01*
X6907262Y-17320452D01*
X6888214Y-17329976D01*
X6831071Y-17329976D01*
X6812024Y-17320452D01*
X6802500Y-17310929D01*
X7097738Y-17129976D02*
X7059643Y-17129976D01*
X7040595Y-17139500D01*
X7031071Y-17149024D01*
X7012024Y-17177595D01*
X7002500Y-17215690D01*
X7002500Y-17291881D01*
X7012024Y-17310929D01*
X7021548Y-17320452D01*
X7040595Y-17329976D01*
X7078690Y-17329976D01*
X7097738Y-17320452D01*
X7107262Y-17310929D01*
X7116786Y-17291881D01*
X7116786Y-17244262D01*
X7107262Y-17225214D01*
X7097738Y-17215690D01*
X7078690Y-17206167D01*
X7040595Y-17206167D01*
X7021548Y-17215690D01*
X7012024Y-17225214D01*
X7002500Y-17244262D01*
X7192976Y-17129976D02*
X7192976Y-17168071D01*
X7269167Y-17129976D02*
X7269167Y-17168071D01*
X7564405Y-17406167D02*
X7554881Y-17396643D01*
X7535833Y-17368071D01*
X7526309Y-17349024D01*
X7516786Y-17320452D01*
X7507262Y-17272833D01*
X7507262Y-17234738D01*
X7516786Y-17187119D01*
X7526309Y-17158548D01*
X7535833Y-17139500D01*
X7554881Y-17110929D01*
X7564405Y-17101405D01*
X7621548Y-17129976D02*
X7745357Y-17129976D01*
X7678690Y-17206167D01*
X7707262Y-17206167D01*
X7726309Y-17215690D01*
X7735833Y-17225214D01*
X7745357Y-17244262D01*
X7745357Y-17291881D01*
X7735833Y-17310929D01*
X7726309Y-17320452D01*
X7707262Y-17329976D01*
X7650119Y-17329976D01*
X7631071Y-17320452D01*
X7621548Y-17310929D01*
X7821548Y-17149024D02*
X7831071Y-17139500D01*
X7850119Y-17129976D01*
X7897738Y-17129976D01*
X7916786Y-17139500D01*
X7926309Y-17149024D01*
X7935833Y-17168071D01*
X7935833Y-17187119D01*
X7926309Y-17215690D01*
X7812024Y-17329976D01*
X7935833Y-17329976D01*
X8173928Y-17329976D02*
X8173928Y-17129976D01*
X8259643Y-17329976D02*
X8259643Y-17225214D01*
X8250119Y-17206167D01*
X8231071Y-17196643D01*
X8202500Y-17196643D01*
X8183452Y-17206167D01*
X8173928Y-17215690D01*
X8383452Y-17329976D02*
X8364405Y-17320452D01*
X8354881Y-17310929D01*
X8345357Y-17291881D01*
X8345357Y-17234738D01*
X8354881Y-17215690D01*
X8364405Y-17206167D01*
X8383452Y-17196643D01*
X8412024Y-17196643D01*
X8431071Y-17206167D01*
X8440595Y-17215690D01*
X8450119Y-17234738D01*
X8450119Y-17291881D01*
X8440595Y-17310929D01*
X8431071Y-17320452D01*
X8412024Y-17329976D01*
X8383452Y-17329976D01*
X8564405Y-17329976D02*
X8545357Y-17320452D01*
X8535833Y-17301405D01*
X8535833Y-17129976D01*
X8716786Y-17320452D02*
X8697738Y-17329976D01*
X8659643Y-17329976D01*
X8640595Y-17320452D01*
X8631071Y-17301405D01*
X8631071Y-17225214D01*
X8640595Y-17206167D01*
X8659643Y-17196643D01*
X8697738Y-17196643D01*
X8716786Y-17206167D01*
X8726310Y-17225214D01*
X8726310Y-17244262D01*
X8631071Y-17263310D01*
X8802500Y-17320452D02*
X8821548Y-17329976D01*
X8859643Y-17329976D01*
X8878690Y-17320452D01*
X8888214Y-17301405D01*
X8888214Y-17291881D01*
X8878690Y-17272833D01*
X8859643Y-17263310D01*
X8831071Y-17263310D01*
X8812024Y-17253786D01*
X8802500Y-17234738D01*
X8802500Y-17225214D01*
X8812024Y-17206167D01*
X8831071Y-17196643D01*
X8859643Y-17196643D01*
X8878690Y-17206167D01*
X8954881Y-17406167D02*
X8964405Y-17396643D01*
X8983452Y-17368071D01*
X8992976Y-17349024D01*
X9002500Y-17320452D01*
X9012024Y-17272833D01*
X9012024Y-17234738D01*
X9002500Y-17187119D01*
X8992976Y-17158548D01*
X8983452Y-17139500D01*
X8964405Y-17110929D01*
X8954881Y-17101405D01*
D16*
X3962500Y-17533500D02*
X3992500Y-17503500D01*
X3962500Y-17473500D01*
X3932500Y-17503500D01*
X3962500Y-17533500D01*
D12*
X4288214Y-17393976D02*
X4307262Y-17393976D01*
X4326310Y-17403500D01*
X4335833Y-17413024D01*
X4345357Y-17432071D01*
X4354881Y-17470167D01*
X4354881Y-17517786D01*
X4345357Y-17555881D01*
X4335833Y-17574929D01*
X4326310Y-17584452D01*
X4307262Y-17593976D01*
X4288214Y-17593976D01*
X4269167Y-17584452D01*
X4259643Y-17574929D01*
X4250119Y-17555881D01*
X4240595Y-17517786D01*
X4240595Y-17470167D01*
X4250119Y-17432071D01*
X4259643Y-17413024D01*
X4269167Y-17403500D01*
X4288214Y-17393976D01*
X4440595Y-17574929D02*
X4450119Y-17584452D01*
X4440595Y-17593976D01*
X4431071Y-17584452D01*
X4440595Y-17574929D01*
X4440595Y-17593976D01*
X4621548Y-17393976D02*
X4583452Y-17393976D01*
X4564405Y-17403500D01*
X4554881Y-17413024D01*
X4535833Y-17441595D01*
X4526310Y-17479690D01*
X4526310Y-17555881D01*
X4535833Y-17574929D01*
X4545357Y-17584452D01*
X4564405Y-17593976D01*
X4602500Y-17593976D01*
X4621548Y-17584452D01*
X4631071Y-17574929D01*
X4640595Y-17555881D01*
X4640595Y-17508262D01*
X4631071Y-17489214D01*
X4621548Y-17479690D01*
X4602500Y-17470167D01*
X4564405Y-17470167D01*
X4545357Y-17479690D01*
X4535833Y-17489214D01*
X4526310Y-17508262D01*
X4764405Y-17393976D02*
X4783452Y-17393976D01*
X4802500Y-17403500D01*
X4812024Y-17413024D01*
X4821548Y-17432071D01*
X4831071Y-17470167D01*
X4831071Y-17517786D01*
X4821548Y-17555881D01*
X4812024Y-17574929D01*
X4802500Y-17584452D01*
X4783452Y-17593976D01*
X4764405Y-17593976D01*
X4745357Y-17584452D01*
X4735833Y-17574929D01*
X4726310Y-17555881D01*
X4716786Y-17517786D01*
X4716786Y-17470167D01*
X4726310Y-17432071D01*
X4735833Y-17413024D01*
X4745357Y-17403500D01*
X4764405Y-17393976D01*
X4954881Y-17393976D02*
X4973929Y-17393976D01*
X4992976Y-17403500D01*
X5002500Y-17413024D01*
X5012024Y-17432071D01*
X5021548Y-17470167D01*
X5021548Y-17517786D01*
X5012024Y-17555881D01*
X5002500Y-17574929D01*
X4992976Y-17584452D01*
X4973929Y-17593976D01*
X4954881Y-17593976D01*
X4935833Y-17584452D01*
X4926310Y-17574929D01*
X4916786Y-17555881D01*
X4907262Y-17517786D01*
X4907262Y-17470167D01*
X4916786Y-17432071D01*
X4926310Y-17413024D01*
X4935833Y-17403500D01*
X4954881Y-17393976D01*
X5107262Y-17593976D02*
X5107262Y-17460643D01*
X5107262Y-17479690D02*
X5116786Y-17470167D01*
X5135833Y-17460643D01*
X5164405Y-17460643D01*
X5183452Y-17470167D01*
X5192976Y-17489214D01*
X5192976Y-17593976D01*
X5192976Y-17489214D02*
X5202500Y-17470167D01*
X5221548Y-17460643D01*
X5250119Y-17460643D01*
X5269167Y-17470167D01*
X5278690Y-17489214D01*
X5278690Y-17593976D01*
X5373929Y-17593976D02*
X5373929Y-17460643D01*
X5373929Y-17479690D02*
X5383452Y-17470167D01*
X5402500Y-17460643D01*
X5431071Y-17460643D01*
X5450119Y-17470167D01*
X5459643Y-17489214D01*
X5459643Y-17593976D01*
X5459643Y-17489214D02*
X5469167Y-17470167D01*
X5488214Y-17460643D01*
X5516786Y-17460643D01*
X5535833Y-17470167D01*
X5545357Y-17489214D01*
X5545357Y-17593976D01*
X5935833Y-17384452D02*
X5764405Y-17641595D01*
X6192976Y-17393976D02*
X6212024Y-17393976D01*
X6231071Y-17403500D01*
X6240595Y-17413024D01*
X6250119Y-17432071D01*
X6259643Y-17470167D01*
X6259643Y-17517786D01*
X6250119Y-17555881D01*
X6240595Y-17574929D01*
X6231071Y-17584452D01*
X6212024Y-17593976D01*
X6192976Y-17593976D01*
X6173928Y-17584452D01*
X6164405Y-17574929D01*
X6154881Y-17555881D01*
X6145357Y-17517786D01*
X6145357Y-17470167D01*
X6154881Y-17432071D01*
X6164405Y-17413024D01*
X6173928Y-17403500D01*
X6192976Y-17393976D01*
X6345357Y-17574929D02*
X6354881Y-17584452D01*
X6345357Y-17593976D01*
X6335833Y-17584452D01*
X6345357Y-17574929D01*
X6345357Y-17593976D01*
X6478690Y-17393976D02*
X6497738Y-17393976D01*
X6516786Y-17403500D01*
X6526309Y-17413024D01*
X6535833Y-17432071D01*
X6545357Y-17470167D01*
X6545357Y-17517786D01*
X6535833Y-17555881D01*
X6526309Y-17574929D01*
X6516786Y-17584452D01*
X6497738Y-17593976D01*
X6478690Y-17593976D01*
X6459643Y-17584452D01*
X6450119Y-17574929D01*
X6440595Y-17555881D01*
X6431071Y-17517786D01*
X6431071Y-17470167D01*
X6440595Y-17432071D01*
X6450119Y-17413024D01*
X6459643Y-17403500D01*
X6478690Y-17393976D01*
X6621548Y-17413024D02*
X6631071Y-17403500D01*
X6650119Y-17393976D01*
X6697738Y-17393976D01*
X6716786Y-17403500D01*
X6726309Y-17413024D01*
X6735833Y-17432071D01*
X6735833Y-17451119D01*
X6726309Y-17479690D01*
X6612024Y-17593976D01*
X6735833Y-17593976D01*
X6802500Y-17393976D02*
X6926309Y-17393976D01*
X6859643Y-17470167D01*
X6888214Y-17470167D01*
X6907262Y-17479690D01*
X6916786Y-17489214D01*
X6926309Y-17508262D01*
X6926309Y-17555881D01*
X6916786Y-17574929D01*
X6907262Y-17584452D01*
X6888214Y-17593976D01*
X6831071Y-17593976D01*
X6812024Y-17584452D01*
X6802500Y-17574929D01*
X7097738Y-17393976D02*
X7059643Y-17393976D01*
X7040595Y-17403500D01*
X7031071Y-17413024D01*
X7012024Y-17441595D01*
X7002500Y-17479690D01*
X7002500Y-17555881D01*
X7012024Y-17574929D01*
X7021548Y-17584452D01*
X7040595Y-17593976D01*
X7078690Y-17593976D01*
X7097738Y-17584452D01*
X7107262Y-17574929D01*
X7116786Y-17555881D01*
X7116786Y-17508262D01*
X7107262Y-17489214D01*
X7097738Y-17479690D01*
X7078690Y-17470167D01*
X7040595Y-17470167D01*
X7021548Y-17479690D01*
X7012024Y-17489214D01*
X7002500Y-17508262D01*
X7192976Y-17393976D02*
X7192976Y-17432071D01*
X7269167Y-17393976D02*
X7269167Y-17432071D01*
X7564405Y-17670167D02*
X7554881Y-17660643D01*
X7535833Y-17632071D01*
X7526309Y-17613024D01*
X7516786Y-17584452D01*
X7507262Y-17536833D01*
X7507262Y-17498738D01*
X7516786Y-17451119D01*
X7526309Y-17422548D01*
X7535833Y-17403500D01*
X7554881Y-17374929D01*
X7564405Y-17365405D01*
X7678690Y-17393976D02*
X7697738Y-17393976D01*
X7716786Y-17403500D01*
X7726309Y-17413024D01*
X7735833Y-17432071D01*
X7745357Y-17470167D01*
X7745357Y-17517786D01*
X7735833Y-17555881D01*
X7726309Y-17574929D01*
X7716786Y-17584452D01*
X7697738Y-17593976D01*
X7678690Y-17593976D01*
X7659643Y-17584452D01*
X7650119Y-17574929D01*
X7640595Y-17555881D01*
X7631071Y-17517786D01*
X7631071Y-17470167D01*
X7640595Y-17432071D01*
X7650119Y-17413024D01*
X7659643Y-17403500D01*
X7678690Y-17393976D01*
X7983452Y-17593976D02*
X7983452Y-17393976D01*
X8069167Y-17593976D02*
X8069167Y-17489214D01*
X8059643Y-17470167D01*
X8040595Y-17460643D01*
X8012024Y-17460643D01*
X7992976Y-17470167D01*
X7983452Y-17479690D01*
X8192976Y-17593976D02*
X8173928Y-17584452D01*
X8164405Y-17574929D01*
X8154881Y-17555881D01*
X8154881Y-17498738D01*
X8164405Y-17479690D01*
X8173928Y-17470167D01*
X8192976Y-17460643D01*
X8221548Y-17460643D01*
X8240595Y-17470167D01*
X8250119Y-17479690D01*
X8259643Y-17498738D01*
X8259643Y-17555881D01*
X8250119Y-17574929D01*
X8240595Y-17584452D01*
X8221548Y-17593976D01*
X8192976Y-17593976D01*
X8373928Y-17593976D02*
X8354881Y-17584452D01*
X8345357Y-17565405D01*
X8345357Y-17393976D01*
X8526310Y-17584452D02*
X8507262Y-17593976D01*
X8469167Y-17593976D01*
X8450119Y-17584452D01*
X8440595Y-17565405D01*
X8440595Y-17489214D01*
X8450119Y-17470167D01*
X8469167Y-17460643D01*
X8507262Y-17460643D01*
X8526310Y-17470167D01*
X8535833Y-17489214D01*
X8535833Y-17508262D01*
X8440595Y-17527310D01*
X8612024Y-17584452D02*
X8631071Y-17593976D01*
X8669167Y-17593976D01*
X8688214Y-17584452D01*
X8697738Y-17565405D01*
X8697738Y-17555881D01*
X8688214Y-17536833D01*
X8669167Y-17527310D01*
X8640595Y-17527310D01*
X8621548Y-17517786D01*
X8612024Y-17498738D01*
X8612024Y-17489214D01*
X8621548Y-17470167D01*
X8640595Y-17460643D01*
X8669167Y-17460643D01*
X8688214Y-17470167D01*
X8935833Y-17517786D02*
X9088214Y-17517786D01*
X9012024Y-17593976D02*
X9012024Y-17441595D01*
X9421548Y-17460643D02*
X9421548Y-17593976D01*
X9373929Y-17384452D02*
X9326310Y-17527310D01*
X9450119Y-17527310D01*
X9669167Y-17584452D02*
X9688214Y-17593976D01*
X9726310Y-17593976D01*
X9745357Y-17584452D01*
X9754881Y-17565405D01*
X9754881Y-17555881D01*
X9745357Y-17536833D01*
X9726310Y-17527310D01*
X9697738Y-17527310D01*
X9678690Y-17517786D01*
X9669167Y-17498738D01*
X9669167Y-17489214D01*
X9678690Y-17470167D01*
X9697738Y-17460643D01*
X9726310Y-17460643D01*
X9745357Y-17470167D01*
X9869167Y-17593976D02*
X9850119Y-17584452D01*
X9840595Y-17565405D01*
X9840595Y-17393976D01*
X9973929Y-17593976D02*
X9954881Y-17584452D01*
X9945357Y-17574929D01*
X9935833Y-17555881D01*
X9935833Y-17498738D01*
X9945357Y-17479690D01*
X9954881Y-17470167D01*
X9973929Y-17460643D01*
X10002500Y-17460643D01*
X10021548Y-17470167D01*
X10031071Y-17479690D01*
X10040595Y-17498738D01*
X10040595Y-17555881D01*
X10031071Y-17574929D01*
X10021548Y-17584452D01*
X10002500Y-17593976D01*
X9973929Y-17593976D01*
X10097738Y-17460643D02*
X10173929Y-17460643D01*
X10126310Y-17393976D02*
X10126310Y-17565405D01*
X10135833Y-17584452D01*
X10154881Y-17593976D01*
X10173929Y-17593976D01*
X10231071Y-17584452D02*
X10250119Y-17593976D01*
X10288214Y-17593976D01*
X10307262Y-17584452D01*
X10316786Y-17565405D01*
X10316786Y-17555881D01*
X10307262Y-17536833D01*
X10288214Y-17527310D01*
X10259643Y-17527310D01*
X10240595Y-17517786D01*
X10231071Y-17498738D01*
X10231071Y-17489214D01*
X10240595Y-17470167D01*
X10259643Y-17460643D01*
X10288214Y-17460643D01*
X10307262Y-17470167D01*
X10383452Y-17670167D02*
X10392976Y-17660643D01*
X10412024Y-17632071D01*
X10421548Y-17613024D01*
X10431071Y-17584452D01*
X10440595Y-17536833D01*
X10440595Y-17498738D01*
X10431071Y-17451119D01*
X10421548Y-17422548D01*
X10412024Y-17403500D01*
X10392976Y-17374929D01*
X10383452Y-17365405D01*
D17*
X3912500Y-17727500D02*
X3992500Y-17807500D01*
X3992500Y-17727500D02*
X3912500Y-17807500D01*
X3992500Y-17767500D02*
G75*
G03*
X3992500Y-17767500I-40000J0D01*
G01*
D12*
X4288214Y-17657976D02*
X4307262Y-17657976D01*
X4326310Y-17667500D01*
X4335833Y-17677024D01*
X4345357Y-17696071D01*
X4354881Y-17734167D01*
X4354881Y-17781786D01*
X4345357Y-17819881D01*
X4335833Y-17838929D01*
X4326310Y-17848452D01*
X4307262Y-17857976D01*
X4288214Y-17857976D01*
X4269167Y-17848452D01*
X4259643Y-17838929D01*
X4250119Y-17819881D01*
X4240595Y-17781786D01*
X4240595Y-17734167D01*
X4250119Y-17696071D01*
X4259643Y-17677024D01*
X4269167Y-17667500D01*
X4288214Y-17657976D01*
X4440595Y-17838929D02*
X4450119Y-17848452D01*
X4440595Y-17857976D01*
X4431071Y-17848452D01*
X4440595Y-17838929D01*
X4440595Y-17857976D01*
X4564405Y-17743690D02*
X4545357Y-17734167D01*
X4535833Y-17724643D01*
X4526310Y-17705595D01*
X4526310Y-17696071D01*
X4535833Y-17677024D01*
X4545357Y-17667500D01*
X4564405Y-17657976D01*
X4602500Y-17657976D01*
X4621548Y-17667500D01*
X4631071Y-17677024D01*
X4640595Y-17696071D01*
X4640595Y-17705595D01*
X4631071Y-17724643D01*
X4621548Y-17734167D01*
X4602500Y-17743690D01*
X4564405Y-17743690D01*
X4545357Y-17753214D01*
X4535833Y-17762738D01*
X4526310Y-17781786D01*
X4526310Y-17819881D01*
X4535833Y-17838929D01*
X4545357Y-17848452D01*
X4564405Y-17857976D01*
X4602500Y-17857976D01*
X4621548Y-17848452D01*
X4631071Y-17838929D01*
X4640595Y-17819881D01*
X4640595Y-17781786D01*
X4631071Y-17762738D01*
X4621548Y-17753214D01*
X4602500Y-17743690D01*
X4764405Y-17657976D02*
X4783452Y-17657976D01*
X4802500Y-17667500D01*
X4812024Y-17677024D01*
X4821548Y-17696071D01*
X4831071Y-17734167D01*
X4831071Y-17781786D01*
X4821548Y-17819881D01*
X4812024Y-17838929D01*
X4802500Y-17848452D01*
X4783452Y-17857976D01*
X4764405Y-17857976D01*
X4745357Y-17848452D01*
X4735833Y-17838929D01*
X4726310Y-17819881D01*
X4716786Y-17781786D01*
X4716786Y-17734167D01*
X4726310Y-17696071D01*
X4735833Y-17677024D01*
X4745357Y-17667500D01*
X4764405Y-17657976D01*
X4954881Y-17657976D02*
X4973929Y-17657976D01*
X4992976Y-17667500D01*
X5002500Y-17677024D01*
X5012024Y-17696071D01*
X5021548Y-17734167D01*
X5021548Y-17781786D01*
X5012024Y-17819881D01*
X5002500Y-17838929D01*
X4992976Y-17848452D01*
X4973929Y-17857976D01*
X4954881Y-17857976D01*
X4935833Y-17848452D01*
X4926310Y-17838929D01*
X4916786Y-17819881D01*
X4907262Y-17781786D01*
X4907262Y-17734167D01*
X4916786Y-17696071D01*
X4926310Y-17677024D01*
X4935833Y-17667500D01*
X4954881Y-17657976D01*
X5107262Y-17857976D02*
X5107262Y-17724643D01*
X5107262Y-17743690D02*
X5116786Y-17734167D01*
X5135833Y-17724643D01*
X5164405Y-17724643D01*
X5183452Y-17734167D01*
X5192976Y-17753214D01*
X5192976Y-17857976D01*
X5192976Y-17753214D02*
X5202500Y-17734167D01*
X5221548Y-17724643D01*
X5250119Y-17724643D01*
X5269167Y-17734167D01*
X5278690Y-17753214D01*
X5278690Y-17857976D01*
X5373929Y-17857976D02*
X5373929Y-17724643D01*
X5373929Y-17743690D02*
X5383452Y-17734167D01*
X5402500Y-17724643D01*
X5431071Y-17724643D01*
X5450119Y-17734167D01*
X5459643Y-17753214D01*
X5459643Y-17857976D01*
X5459643Y-17753214D02*
X5469167Y-17734167D01*
X5488214Y-17724643D01*
X5516786Y-17724643D01*
X5535833Y-17734167D01*
X5545357Y-17753214D01*
X5545357Y-17857976D01*
X5935833Y-17648452D02*
X5764405Y-17905595D01*
X6192976Y-17657976D02*
X6212024Y-17657976D01*
X6231071Y-17667500D01*
X6240595Y-17677024D01*
X6250119Y-17696071D01*
X6259643Y-17734167D01*
X6259643Y-17781786D01*
X6250119Y-17819881D01*
X6240595Y-17838929D01*
X6231071Y-17848452D01*
X6212024Y-17857976D01*
X6192976Y-17857976D01*
X6173928Y-17848452D01*
X6164405Y-17838929D01*
X6154881Y-17819881D01*
X6145357Y-17781786D01*
X6145357Y-17734167D01*
X6154881Y-17696071D01*
X6164405Y-17677024D01*
X6173928Y-17667500D01*
X6192976Y-17657976D01*
X6345357Y-17838929D02*
X6354881Y-17848452D01*
X6345357Y-17857976D01*
X6335833Y-17848452D01*
X6345357Y-17838929D01*
X6345357Y-17857976D01*
X6478690Y-17657976D02*
X6497738Y-17657976D01*
X6516786Y-17667500D01*
X6526309Y-17677024D01*
X6535833Y-17696071D01*
X6545357Y-17734167D01*
X6545357Y-17781786D01*
X6535833Y-17819881D01*
X6526309Y-17838929D01*
X6516786Y-17848452D01*
X6497738Y-17857976D01*
X6478690Y-17857976D01*
X6459643Y-17848452D01*
X6450119Y-17838929D01*
X6440595Y-17819881D01*
X6431071Y-17781786D01*
X6431071Y-17734167D01*
X6440595Y-17696071D01*
X6450119Y-17677024D01*
X6459643Y-17667500D01*
X6478690Y-17657976D01*
X6612024Y-17657976D02*
X6735833Y-17657976D01*
X6669167Y-17734167D01*
X6697738Y-17734167D01*
X6716786Y-17743690D01*
X6726309Y-17753214D01*
X6735833Y-17772262D01*
X6735833Y-17819881D01*
X6726309Y-17838929D01*
X6716786Y-17848452D01*
X6697738Y-17857976D01*
X6640595Y-17857976D01*
X6621548Y-17848452D01*
X6612024Y-17838929D01*
X6926309Y-17857976D02*
X6812024Y-17857976D01*
X6869167Y-17857976D02*
X6869167Y-17657976D01*
X6850119Y-17686548D01*
X6831071Y-17705595D01*
X6812024Y-17715119D01*
X7107262Y-17657976D02*
X7012024Y-17657976D01*
X7002500Y-17753214D01*
X7012024Y-17743690D01*
X7031071Y-17734167D01*
X7078690Y-17734167D01*
X7097738Y-17743690D01*
X7107262Y-17753214D01*
X7116786Y-17772262D01*
X7116786Y-17819881D01*
X7107262Y-17838929D01*
X7097738Y-17848452D01*
X7078690Y-17857976D01*
X7031071Y-17857976D01*
X7012024Y-17848452D01*
X7002500Y-17838929D01*
X7192976Y-17657976D02*
X7192976Y-17696071D01*
X7269167Y-17657976D02*
X7269167Y-17696071D01*
X7564405Y-17934167D02*
X7554881Y-17924643D01*
X7535833Y-17896071D01*
X7526309Y-17877024D01*
X7516786Y-17848452D01*
X7507262Y-17800833D01*
X7507262Y-17762738D01*
X7516786Y-17715119D01*
X7526309Y-17686548D01*
X7535833Y-17667500D01*
X7554881Y-17638929D01*
X7564405Y-17629405D01*
X7726309Y-17724643D02*
X7726309Y-17857976D01*
X7678690Y-17648452D02*
X7631071Y-17791310D01*
X7754881Y-17791310D01*
X7821548Y-17677024D02*
X7831071Y-17667500D01*
X7850119Y-17657976D01*
X7897738Y-17657976D01*
X7916786Y-17667500D01*
X7926309Y-17677024D01*
X7935833Y-17696071D01*
X7935833Y-17715119D01*
X7926309Y-17743690D01*
X7812024Y-17857976D01*
X7935833Y-17857976D01*
X8173928Y-17857976D02*
X8173928Y-17657976D01*
X8259643Y-17857976D02*
X8259643Y-17753214D01*
X8250119Y-17734167D01*
X8231071Y-17724643D01*
X8202500Y-17724643D01*
X8183452Y-17734167D01*
X8173928Y-17743690D01*
X8383452Y-17857976D02*
X8364405Y-17848452D01*
X8354881Y-17838929D01*
X8345357Y-17819881D01*
X8345357Y-17762738D01*
X8354881Y-17743690D01*
X8364405Y-17734167D01*
X8383452Y-17724643D01*
X8412024Y-17724643D01*
X8431071Y-17734167D01*
X8440595Y-17743690D01*
X8450119Y-17762738D01*
X8450119Y-17819881D01*
X8440595Y-17838929D01*
X8431071Y-17848452D01*
X8412024Y-17857976D01*
X8383452Y-17857976D01*
X8564405Y-17857976D02*
X8545357Y-17848452D01*
X8535833Y-17829405D01*
X8535833Y-17657976D01*
X8716786Y-17848452D02*
X8697738Y-17857976D01*
X8659643Y-17857976D01*
X8640595Y-17848452D01*
X8631071Y-17829405D01*
X8631071Y-17753214D01*
X8640595Y-17734167D01*
X8659643Y-17724643D01*
X8697738Y-17724643D01*
X8716786Y-17734167D01*
X8726310Y-17753214D01*
X8726310Y-17772262D01*
X8631071Y-17791310D01*
X8802500Y-17848452D02*
X8821548Y-17857976D01*
X8859643Y-17857976D01*
X8878690Y-17848452D01*
X8888214Y-17829405D01*
X8888214Y-17819881D01*
X8878690Y-17800833D01*
X8859643Y-17791310D01*
X8831071Y-17791310D01*
X8812024Y-17781786D01*
X8802500Y-17762738D01*
X8802500Y-17753214D01*
X8812024Y-17734167D01*
X8831071Y-17724643D01*
X8859643Y-17724643D01*
X8878690Y-17734167D01*
X8954881Y-17934167D02*
X8964405Y-17924643D01*
X8983452Y-17896071D01*
X8992976Y-17877024D01*
X9002500Y-17848452D01*
X9012024Y-17800833D01*
X9012024Y-17762738D01*
X9002500Y-17715119D01*
X8992976Y-17686548D01*
X8983452Y-17667500D01*
X8964405Y-17638929D01*
X8954881Y-17629405D01*
D18*
X3903500Y-17987000D02*
X3992500Y-18076000D01*
X3992500Y-17987000D02*
X3903500Y-18076000D01*
X3948000Y-17987000D02*
X3948000Y-18076000D01*
X3903500Y-18031500D02*
X3992500Y-18031500D01*
D12*
X4288214Y-17921976D02*
X4307262Y-17921976D01*
X4326310Y-17931500D01*
X4335833Y-17941024D01*
X4345357Y-17960071D01*
X4354881Y-17998167D01*
X4354881Y-18045786D01*
X4345357Y-18083881D01*
X4335833Y-18102929D01*
X4326310Y-18112452D01*
X4307262Y-18121976D01*
X4288214Y-18121976D01*
X4269167Y-18112452D01*
X4259643Y-18102929D01*
X4250119Y-18083881D01*
X4240595Y-18045786D01*
X4240595Y-17998167D01*
X4250119Y-17960071D01*
X4259643Y-17941024D01*
X4269167Y-17931500D01*
X4288214Y-17921976D01*
X4440595Y-18102929D02*
X4450119Y-18112452D01*
X4440595Y-18121976D01*
X4431071Y-18112452D01*
X4440595Y-18102929D01*
X4440595Y-18121976D01*
X4564405Y-18007690D02*
X4545357Y-17998167D01*
X4535833Y-17988643D01*
X4526310Y-17969595D01*
X4526310Y-17960071D01*
X4535833Y-17941024D01*
X4545357Y-17931500D01*
X4564405Y-17921976D01*
X4602500Y-17921976D01*
X4621548Y-17931500D01*
X4631071Y-17941024D01*
X4640595Y-17960071D01*
X4640595Y-17969595D01*
X4631071Y-17988643D01*
X4621548Y-17998167D01*
X4602500Y-18007690D01*
X4564405Y-18007690D01*
X4545357Y-18017214D01*
X4535833Y-18026738D01*
X4526310Y-18045786D01*
X4526310Y-18083881D01*
X4535833Y-18102929D01*
X4545357Y-18112452D01*
X4564405Y-18121976D01*
X4602500Y-18121976D01*
X4621548Y-18112452D01*
X4631071Y-18102929D01*
X4640595Y-18083881D01*
X4640595Y-18045786D01*
X4631071Y-18026738D01*
X4621548Y-18017214D01*
X4602500Y-18007690D01*
X4735833Y-18121976D02*
X4773929Y-18121976D01*
X4792976Y-18112452D01*
X4802500Y-18102929D01*
X4821548Y-18074357D01*
X4831071Y-18036262D01*
X4831071Y-17960071D01*
X4821548Y-17941024D01*
X4812024Y-17931500D01*
X4792976Y-17921976D01*
X4754881Y-17921976D01*
X4735833Y-17931500D01*
X4726310Y-17941024D01*
X4716786Y-17960071D01*
X4716786Y-18007690D01*
X4726310Y-18026738D01*
X4735833Y-18036262D01*
X4754881Y-18045786D01*
X4792976Y-18045786D01*
X4812024Y-18036262D01*
X4821548Y-18026738D01*
X4831071Y-18007690D01*
X4954881Y-17921976D02*
X4973929Y-17921976D01*
X4992976Y-17931500D01*
X5002500Y-17941024D01*
X5012024Y-17960071D01*
X5021548Y-17998167D01*
X5021548Y-18045786D01*
X5012024Y-18083881D01*
X5002500Y-18102929D01*
X4992976Y-18112452D01*
X4973929Y-18121976D01*
X4954881Y-18121976D01*
X4935833Y-18112452D01*
X4926310Y-18102929D01*
X4916786Y-18083881D01*
X4907262Y-18045786D01*
X4907262Y-17998167D01*
X4916786Y-17960071D01*
X4926310Y-17941024D01*
X4935833Y-17931500D01*
X4954881Y-17921976D01*
X5107262Y-18121976D02*
X5107262Y-17988643D01*
X5107262Y-18007690D02*
X5116786Y-17998167D01*
X5135833Y-17988643D01*
X5164405Y-17988643D01*
X5183452Y-17998167D01*
X5192976Y-18017214D01*
X5192976Y-18121976D01*
X5192976Y-18017214D02*
X5202500Y-17998167D01*
X5221548Y-17988643D01*
X5250119Y-17988643D01*
X5269167Y-17998167D01*
X5278690Y-18017214D01*
X5278690Y-18121976D01*
X5373929Y-18121976D02*
X5373929Y-17988643D01*
X5373929Y-18007690D02*
X5383452Y-17998167D01*
X5402500Y-17988643D01*
X5431071Y-17988643D01*
X5450119Y-17998167D01*
X5459643Y-18017214D01*
X5459643Y-18121976D01*
X5459643Y-18017214D02*
X5469167Y-17998167D01*
X5488214Y-17988643D01*
X5516786Y-17988643D01*
X5535833Y-17998167D01*
X5545357Y-18017214D01*
X5545357Y-18121976D01*
X5935833Y-17912452D02*
X5764405Y-18169595D01*
X6192976Y-17921976D02*
X6212024Y-17921976D01*
X6231071Y-17931500D01*
X6240595Y-17941024D01*
X6250119Y-17960071D01*
X6259643Y-17998167D01*
X6259643Y-18045786D01*
X6250119Y-18083881D01*
X6240595Y-18102929D01*
X6231071Y-18112452D01*
X6212024Y-18121976D01*
X6192976Y-18121976D01*
X6173928Y-18112452D01*
X6164405Y-18102929D01*
X6154881Y-18083881D01*
X6145357Y-18045786D01*
X6145357Y-17998167D01*
X6154881Y-17960071D01*
X6164405Y-17941024D01*
X6173928Y-17931500D01*
X6192976Y-17921976D01*
X6345357Y-18102929D02*
X6354881Y-18112452D01*
X6345357Y-18121976D01*
X6335833Y-18112452D01*
X6345357Y-18102929D01*
X6345357Y-18121976D01*
X6478690Y-17921976D02*
X6497738Y-17921976D01*
X6516786Y-17931500D01*
X6526309Y-17941024D01*
X6535833Y-17960071D01*
X6545357Y-17998167D01*
X6545357Y-18045786D01*
X6535833Y-18083881D01*
X6526309Y-18102929D01*
X6516786Y-18112452D01*
X6497738Y-18121976D01*
X6478690Y-18121976D01*
X6459643Y-18112452D01*
X6450119Y-18102929D01*
X6440595Y-18083881D01*
X6431071Y-18045786D01*
X6431071Y-17998167D01*
X6440595Y-17960071D01*
X6450119Y-17941024D01*
X6459643Y-17931500D01*
X6478690Y-17921976D01*
X6612024Y-17921976D02*
X6735833Y-17921976D01*
X6669167Y-17998167D01*
X6697738Y-17998167D01*
X6716786Y-18007690D01*
X6726309Y-18017214D01*
X6735833Y-18036262D01*
X6735833Y-18083881D01*
X6726309Y-18102929D01*
X6716786Y-18112452D01*
X6697738Y-18121976D01*
X6640595Y-18121976D01*
X6621548Y-18112452D01*
X6612024Y-18102929D01*
X6916786Y-17921976D02*
X6821548Y-17921976D01*
X6812024Y-18017214D01*
X6821548Y-18007690D01*
X6840595Y-17998167D01*
X6888214Y-17998167D01*
X6907262Y-18007690D01*
X6916786Y-18017214D01*
X6926309Y-18036262D01*
X6926309Y-18083881D01*
X6916786Y-18102929D01*
X6907262Y-18112452D01*
X6888214Y-18121976D01*
X6840595Y-18121976D01*
X6821548Y-18112452D01*
X6812024Y-18102929D01*
X7050119Y-17921976D02*
X7069167Y-17921976D01*
X7088214Y-17931500D01*
X7097738Y-17941024D01*
X7107262Y-17960071D01*
X7116786Y-17998167D01*
X7116786Y-18045786D01*
X7107262Y-18083881D01*
X7097738Y-18102929D01*
X7088214Y-18112452D01*
X7069167Y-18121976D01*
X7050119Y-18121976D01*
X7031071Y-18112452D01*
X7021548Y-18102929D01*
X7012024Y-18083881D01*
X7002500Y-18045786D01*
X7002500Y-17998167D01*
X7012024Y-17960071D01*
X7021548Y-17941024D01*
X7031071Y-17931500D01*
X7050119Y-17921976D01*
X7192976Y-17921976D02*
X7192976Y-17960071D01*
X7269167Y-17921976D02*
X7269167Y-17960071D01*
X7564405Y-18198167D02*
X7554881Y-18188643D01*
X7535833Y-18160071D01*
X7526309Y-18141024D01*
X7516786Y-18112452D01*
X7507262Y-18064833D01*
X7507262Y-18026738D01*
X7516786Y-17979119D01*
X7526309Y-17950548D01*
X7535833Y-17931500D01*
X7554881Y-17902929D01*
X7564405Y-17893405D01*
X7669167Y-18007690D02*
X7650119Y-17998167D01*
X7640595Y-17988643D01*
X7631071Y-17969595D01*
X7631071Y-17960071D01*
X7640595Y-17941024D01*
X7650119Y-17931500D01*
X7669167Y-17921976D01*
X7707262Y-17921976D01*
X7726309Y-17931500D01*
X7735833Y-17941024D01*
X7745357Y-17960071D01*
X7745357Y-17969595D01*
X7735833Y-17988643D01*
X7726309Y-17998167D01*
X7707262Y-18007690D01*
X7669167Y-18007690D01*
X7650119Y-18017214D01*
X7640595Y-18026738D01*
X7631071Y-18045786D01*
X7631071Y-18083881D01*
X7640595Y-18102929D01*
X7650119Y-18112452D01*
X7669167Y-18121976D01*
X7707262Y-18121976D01*
X7726309Y-18112452D01*
X7735833Y-18102929D01*
X7745357Y-18083881D01*
X7745357Y-18045786D01*
X7735833Y-18026738D01*
X7726309Y-18017214D01*
X7707262Y-18007690D01*
X7983452Y-18121976D02*
X7983452Y-17921976D01*
X8069167Y-18121976D02*
X8069167Y-18017214D01*
X8059643Y-17998167D01*
X8040595Y-17988643D01*
X8012024Y-17988643D01*
X7992976Y-17998167D01*
X7983452Y-18007690D01*
X8192976Y-18121976D02*
X8173928Y-18112452D01*
X8164405Y-18102929D01*
X8154881Y-18083881D01*
X8154881Y-18026738D01*
X8164405Y-18007690D01*
X8173928Y-17998167D01*
X8192976Y-17988643D01*
X8221548Y-17988643D01*
X8240595Y-17998167D01*
X8250119Y-18007690D01*
X8259643Y-18026738D01*
X8259643Y-18083881D01*
X8250119Y-18102929D01*
X8240595Y-18112452D01*
X8221548Y-18121976D01*
X8192976Y-18121976D01*
X8373928Y-18121976D02*
X8354881Y-18112452D01*
X8345357Y-18093405D01*
X8345357Y-17921976D01*
X8526310Y-18112452D02*
X8507262Y-18121976D01*
X8469167Y-18121976D01*
X8450119Y-18112452D01*
X8440595Y-18093405D01*
X8440595Y-18017214D01*
X8450119Y-17998167D01*
X8469167Y-17988643D01*
X8507262Y-17988643D01*
X8526310Y-17998167D01*
X8535833Y-18017214D01*
X8535833Y-18036262D01*
X8440595Y-18055310D01*
X8612024Y-18112452D02*
X8631071Y-18121976D01*
X8669167Y-18121976D01*
X8688214Y-18112452D01*
X8697738Y-18093405D01*
X8697738Y-18083881D01*
X8688214Y-18064833D01*
X8669167Y-18055310D01*
X8640595Y-18055310D01*
X8621548Y-18045786D01*
X8612024Y-18026738D01*
X8612024Y-18017214D01*
X8621548Y-17998167D01*
X8640595Y-17988643D01*
X8669167Y-17988643D01*
X8688214Y-17998167D01*
X8764405Y-18198167D02*
X8773929Y-18188643D01*
X8792976Y-18160071D01*
X8802500Y-18141024D01*
X8812024Y-18112452D01*
X8821548Y-18064833D01*
X8821548Y-18026738D01*
X8812024Y-17979119D01*
X8802500Y-17950548D01*
X8792976Y-17931500D01*
X8773929Y-17902929D01*
X8764405Y-17893405D01*
D19*
X3902500Y-18250500D02*
X3992500Y-18340500D01*
X3992500Y-18250500D02*
X3902500Y-18340500D01*
X3979320Y-18327320D02*
X3979320Y-18263680D01*
X3915680Y-18263680D01*
X3915680Y-18327320D01*
X3979320Y-18327320D01*
D12*
X4288214Y-18185976D02*
X4307262Y-18185976D01*
X4326310Y-18195500D01*
X4335833Y-18205024D01*
X4345357Y-18224071D01*
X4354881Y-18262167D01*
X4354881Y-18309786D01*
X4345357Y-18347881D01*
X4335833Y-18366929D01*
X4326310Y-18376452D01*
X4307262Y-18385976D01*
X4288214Y-18385976D01*
X4269167Y-18376452D01*
X4259643Y-18366929D01*
X4250119Y-18347881D01*
X4240595Y-18309786D01*
X4240595Y-18262167D01*
X4250119Y-18224071D01*
X4259643Y-18205024D01*
X4269167Y-18195500D01*
X4288214Y-18185976D01*
X4440595Y-18366929D02*
X4450119Y-18376452D01*
X4440595Y-18385976D01*
X4431071Y-18376452D01*
X4440595Y-18366929D01*
X4440595Y-18385976D01*
X4545357Y-18385976D02*
X4583452Y-18385976D01*
X4602500Y-18376452D01*
X4612024Y-18366929D01*
X4631071Y-18338357D01*
X4640595Y-18300262D01*
X4640595Y-18224071D01*
X4631071Y-18205024D01*
X4621548Y-18195500D01*
X4602500Y-18185976D01*
X4564405Y-18185976D01*
X4545357Y-18195500D01*
X4535833Y-18205024D01*
X4526310Y-18224071D01*
X4526310Y-18271690D01*
X4535833Y-18290738D01*
X4545357Y-18300262D01*
X4564405Y-18309786D01*
X4602500Y-18309786D01*
X4621548Y-18300262D01*
X4631071Y-18290738D01*
X4640595Y-18271690D01*
X4764405Y-18185976D02*
X4783452Y-18185976D01*
X4802500Y-18195500D01*
X4812024Y-18205024D01*
X4821548Y-18224071D01*
X4831071Y-18262167D01*
X4831071Y-18309786D01*
X4821548Y-18347881D01*
X4812024Y-18366929D01*
X4802500Y-18376452D01*
X4783452Y-18385976D01*
X4764405Y-18385976D01*
X4745357Y-18376452D01*
X4735833Y-18366929D01*
X4726310Y-18347881D01*
X4716786Y-18309786D01*
X4716786Y-18262167D01*
X4726310Y-18224071D01*
X4735833Y-18205024D01*
X4745357Y-18195500D01*
X4764405Y-18185976D01*
X4954881Y-18185976D02*
X4973929Y-18185976D01*
X4992976Y-18195500D01*
X5002500Y-18205024D01*
X5012024Y-18224071D01*
X5021548Y-18262167D01*
X5021548Y-18309786D01*
X5012024Y-18347881D01*
X5002500Y-18366929D01*
X4992976Y-18376452D01*
X4973929Y-18385976D01*
X4954881Y-18385976D01*
X4935833Y-18376452D01*
X4926310Y-18366929D01*
X4916786Y-18347881D01*
X4907262Y-18309786D01*
X4907262Y-18262167D01*
X4916786Y-18224071D01*
X4926310Y-18205024D01*
X4935833Y-18195500D01*
X4954881Y-18185976D01*
X5107262Y-18385976D02*
X5107262Y-18252643D01*
X5107262Y-18271690D02*
X5116786Y-18262167D01*
X5135833Y-18252643D01*
X5164405Y-18252643D01*
X5183452Y-18262167D01*
X5192976Y-18281214D01*
X5192976Y-18385976D01*
X5192976Y-18281214D02*
X5202500Y-18262167D01*
X5221548Y-18252643D01*
X5250119Y-18252643D01*
X5269167Y-18262167D01*
X5278690Y-18281214D01*
X5278690Y-18385976D01*
X5373929Y-18385976D02*
X5373929Y-18252643D01*
X5373929Y-18271690D02*
X5383452Y-18262167D01*
X5402500Y-18252643D01*
X5431071Y-18252643D01*
X5450119Y-18262167D01*
X5459643Y-18281214D01*
X5459643Y-18385976D01*
X5459643Y-18281214D02*
X5469167Y-18262167D01*
X5488214Y-18252643D01*
X5516786Y-18252643D01*
X5535833Y-18262167D01*
X5545357Y-18281214D01*
X5545357Y-18385976D01*
X5935833Y-18176452D02*
X5764405Y-18433595D01*
X6192976Y-18185976D02*
X6212024Y-18185976D01*
X6231071Y-18195500D01*
X6240595Y-18205024D01*
X6250119Y-18224071D01*
X6259643Y-18262167D01*
X6259643Y-18309786D01*
X6250119Y-18347881D01*
X6240595Y-18366929D01*
X6231071Y-18376452D01*
X6212024Y-18385976D01*
X6192976Y-18385976D01*
X6173928Y-18376452D01*
X6164405Y-18366929D01*
X6154881Y-18347881D01*
X6145357Y-18309786D01*
X6145357Y-18262167D01*
X6154881Y-18224071D01*
X6164405Y-18205024D01*
X6173928Y-18195500D01*
X6192976Y-18185976D01*
X6345357Y-18366929D02*
X6354881Y-18376452D01*
X6345357Y-18385976D01*
X6335833Y-18376452D01*
X6345357Y-18366929D01*
X6345357Y-18385976D01*
X6478690Y-18185976D02*
X6497738Y-18185976D01*
X6516786Y-18195500D01*
X6526309Y-18205024D01*
X6535833Y-18224071D01*
X6545357Y-18262167D01*
X6545357Y-18309786D01*
X6535833Y-18347881D01*
X6526309Y-18366929D01*
X6516786Y-18376452D01*
X6497738Y-18385976D01*
X6478690Y-18385976D01*
X6459643Y-18376452D01*
X6450119Y-18366929D01*
X6440595Y-18347881D01*
X6431071Y-18309786D01*
X6431071Y-18262167D01*
X6440595Y-18224071D01*
X6450119Y-18205024D01*
X6459643Y-18195500D01*
X6478690Y-18185976D01*
X6612024Y-18185976D02*
X6735833Y-18185976D01*
X6669167Y-18262167D01*
X6697738Y-18262167D01*
X6716786Y-18271690D01*
X6726309Y-18281214D01*
X6735833Y-18300262D01*
X6735833Y-18347881D01*
X6726309Y-18366929D01*
X6716786Y-18376452D01*
X6697738Y-18385976D01*
X6640595Y-18385976D01*
X6621548Y-18376452D01*
X6612024Y-18366929D01*
X6916786Y-18185976D02*
X6821548Y-18185976D01*
X6812024Y-18281214D01*
X6821548Y-18271690D01*
X6840595Y-18262167D01*
X6888214Y-18262167D01*
X6907262Y-18271690D01*
X6916786Y-18281214D01*
X6926309Y-18300262D01*
X6926309Y-18347881D01*
X6916786Y-18366929D01*
X6907262Y-18376452D01*
X6888214Y-18385976D01*
X6840595Y-18385976D01*
X6821548Y-18376452D01*
X6812024Y-18366929D01*
X7097738Y-18252643D02*
X7097738Y-18385976D01*
X7050119Y-18176452D02*
X7002500Y-18319310D01*
X7126309Y-18319310D01*
X7192976Y-18185976D02*
X7192976Y-18224071D01*
X7269167Y-18185976D02*
X7269167Y-18224071D01*
X7564405Y-18462167D02*
X7554881Y-18452643D01*
X7535833Y-18424071D01*
X7526309Y-18405024D01*
X7516786Y-18376452D01*
X7507262Y-18328833D01*
X7507262Y-18290738D01*
X7516786Y-18243119D01*
X7526309Y-18214548D01*
X7535833Y-18195500D01*
X7554881Y-18166929D01*
X7564405Y-18157405D01*
X7621548Y-18185976D02*
X7745357Y-18185976D01*
X7678690Y-18262167D01*
X7707262Y-18262167D01*
X7726309Y-18271690D01*
X7735833Y-18281214D01*
X7745357Y-18300262D01*
X7745357Y-18347881D01*
X7735833Y-18366929D01*
X7726309Y-18376452D01*
X7707262Y-18385976D01*
X7650119Y-18385976D01*
X7631071Y-18376452D01*
X7621548Y-18366929D01*
X7821548Y-18205024D02*
X7831071Y-18195500D01*
X7850119Y-18185976D01*
X7897738Y-18185976D01*
X7916786Y-18195500D01*
X7926309Y-18205024D01*
X7935833Y-18224071D01*
X7935833Y-18243119D01*
X7926309Y-18271690D01*
X7812024Y-18385976D01*
X7935833Y-18385976D01*
X8173928Y-18385976D02*
X8173928Y-18185976D01*
X8259643Y-18385976D02*
X8259643Y-18281214D01*
X8250119Y-18262167D01*
X8231071Y-18252643D01*
X8202500Y-18252643D01*
X8183452Y-18262167D01*
X8173928Y-18271690D01*
X8383452Y-18385976D02*
X8364405Y-18376452D01*
X8354881Y-18366929D01*
X8345357Y-18347881D01*
X8345357Y-18290738D01*
X8354881Y-18271690D01*
X8364405Y-18262167D01*
X8383452Y-18252643D01*
X8412024Y-18252643D01*
X8431071Y-18262167D01*
X8440595Y-18271690D01*
X8450119Y-18290738D01*
X8450119Y-18347881D01*
X8440595Y-18366929D01*
X8431071Y-18376452D01*
X8412024Y-18385976D01*
X8383452Y-18385976D01*
X8564405Y-18385976D02*
X8545357Y-18376452D01*
X8535833Y-18357405D01*
X8535833Y-18185976D01*
X8716786Y-18376452D02*
X8697738Y-18385976D01*
X8659643Y-18385976D01*
X8640595Y-18376452D01*
X8631071Y-18357405D01*
X8631071Y-18281214D01*
X8640595Y-18262167D01*
X8659643Y-18252643D01*
X8697738Y-18252643D01*
X8716786Y-18262167D01*
X8726310Y-18281214D01*
X8726310Y-18300262D01*
X8631071Y-18319310D01*
X8802500Y-18376452D02*
X8821548Y-18385976D01*
X8859643Y-18385976D01*
X8878690Y-18376452D01*
X8888214Y-18357405D01*
X8888214Y-18347881D01*
X8878690Y-18328833D01*
X8859643Y-18319310D01*
X8831071Y-18319310D01*
X8812024Y-18309786D01*
X8802500Y-18290738D01*
X8802500Y-18281214D01*
X8812024Y-18262167D01*
X8831071Y-18252643D01*
X8859643Y-18252643D01*
X8878690Y-18262167D01*
X9126310Y-18309786D02*
X9278690Y-18309786D01*
X9202500Y-18385976D02*
X9202500Y-18233595D01*
X9612024Y-18252643D02*
X9612024Y-18385976D01*
X9564405Y-18176452D02*
X9516786Y-18319310D01*
X9640595Y-18319310D01*
X9859643Y-18376452D02*
X9878690Y-18385976D01*
X9916786Y-18385976D01*
X9935833Y-18376452D01*
X9945357Y-18357405D01*
X9945357Y-18347881D01*
X9935833Y-18328833D01*
X9916786Y-18319310D01*
X9888214Y-18319310D01*
X9869167Y-18309786D01*
X9859643Y-18290738D01*
X9859643Y-18281214D01*
X9869167Y-18262167D01*
X9888214Y-18252643D01*
X9916786Y-18252643D01*
X9935833Y-18262167D01*
X10059643Y-18385976D02*
X10040595Y-18376452D01*
X10031071Y-18357405D01*
X10031071Y-18185976D01*
X10164405Y-18385976D02*
X10145357Y-18376452D01*
X10135833Y-18366929D01*
X10126310Y-18347881D01*
X10126310Y-18290738D01*
X10135833Y-18271690D01*
X10145357Y-18262167D01*
X10164405Y-18252643D01*
X10192976Y-18252643D01*
X10212024Y-18262167D01*
X10221548Y-18271690D01*
X10231071Y-18290738D01*
X10231071Y-18347881D01*
X10221548Y-18366929D01*
X10212024Y-18376452D01*
X10192976Y-18385976D01*
X10164405Y-18385976D01*
X10288214Y-18252643D02*
X10364405Y-18252643D01*
X10316786Y-18185976D02*
X10316786Y-18357405D01*
X10326310Y-18376452D01*
X10345357Y-18385976D01*
X10364405Y-18385976D01*
X10421548Y-18376452D02*
X10440595Y-18385976D01*
X10478690Y-18385976D01*
X10497738Y-18376452D01*
X10507262Y-18357405D01*
X10507262Y-18347881D01*
X10497738Y-18328833D01*
X10478690Y-18319310D01*
X10450119Y-18319310D01*
X10431071Y-18309786D01*
X10421548Y-18290738D01*
X10421548Y-18281214D01*
X10431071Y-18262167D01*
X10450119Y-18252643D01*
X10478690Y-18252643D01*
X10497738Y-18262167D01*
X10573929Y-18462167D02*
X10583452Y-18452643D01*
X10602500Y-18424071D01*
X10612024Y-18405024D01*
X10621548Y-18376452D01*
X10631071Y-18328833D01*
X10631071Y-18290738D01*
X10621548Y-18243119D01*
X10612024Y-18214548D01*
X10602500Y-18195500D01*
X10583452Y-18166929D01*
X10573929Y-18157405D01*
D20*
X3900500Y-18513500D02*
X3992500Y-18605500D01*
X3992500Y-18513500D02*
X3900500Y-18605500D01*
X3946500Y-18605500D02*
X3992500Y-18559500D01*
X3946500Y-18513500D01*
X3900500Y-18559500D01*
X3946500Y-18605500D01*
D12*
X4288214Y-18449976D02*
X4307262Y-18449976D01*
X4326310Y-18459500D01*
X4335833Y-18469024D01*
X4345357Y-18488071D01*
X4354881Y-18526167D01*
X4354881Y-18573786D01*
X4345357Y-18611881D01*
X4335833Y-18630929D01*
X4326310Y-18640452D01*
X4307262Y-18649976D01*
X4288214Y-18649976D01*
X4269167Y-18640452D01*
X4259643Y-18630929D01*
X4250119Y-18611881D01*
X4240595Y-18573786D01*
X4240595Y-18526167D01*
X4250119Y-18488071D01*
X4259643Y-18469024D01*
X4269167Y-18459500D01*
X4288214Y-18449976D01*
X4440595Y-18630929D02*
X4450119Y-18640452D01*
X4440595Y-18649976D01*
X4431071Y-18640452D01*
X4440595Y-18630929D01*
X4440595Y-18649976D01*
X4545357Y-18649976D02*
X4583452Y-18649976D01*
X4602500Y-18640452D01*
X4612024Y-18630929D01*
X4631071Y-18602357D01*
X4640595Y-18564262D01*
X4640595Y-18488071D01*
X4631071Y-18469024D01*
X4621548Y-18459500D01*
X4602500Y-18449976D01*
X4564405Y-18449976D01*
X4545357Y-18459500D01*
X4535833Y-18469024D01*
X4526310Y-18488071D01*
X4526310Y-18535690D01*
X4535833Y-18554738D01*
X4545357Y-18564262D01*
X4564405Y-18573786D01*
X4602500Y-18573786D01*
X4621548Y-18564262D01*
X4631071Y-18554738D01*
X4640595Y-18535690D01*
X4716786Y-18469024D02*
X4726310Y-18459500D01*
X4745357Y-18449976D01*
X4792976Y-18449976D01*
X4812024Y-18459500D01*
X4821548Y-18469024D01*
X4831071Y-18488071D01*
X4831071Y-18507119D01*
X4821548Y-18535690D01*
X4707262Y-18649976D01*
X4831071Y-18649976D01*
X4954881Y-18449976D02*
X4973929Y-18449976D01*
X4992976Y-18459500D01*
X5002500Y-18469024D01*
X5012024Y-18488071D01*
X5021548Y-18526167D01*
X5021548Y-18573786D01*
X5012024Y-18611881D01*
X5002500Y-18630929D01*
X4992976Y-18640452D01*
X4973929Y-18649976D01*
X4954881Y-18649976D01*
X4935833Y-18640452D01*
X4926310Y-18630929D01*
X4916786Y-18611881D01*
X4907262Y-18573786D01*
X4907262Y-18526167D01*
X4916786Y-18488071D01*
X4926310Y-18469024D01*
X4935833Y-18459500D01*
X4954881Y-18449976D01*
X5107262Y-18649976D02*
X5107262Y-18516643D01*
X5107262Y-18535690D02*
X5116786Y-18526167D01*
X5135833Y-18516643D01*
X5164405Y-18516643D01*
X5183452Y-18526167D01*
X5192976Y-18545214D01*
X5192976Y-18649976D01*
X5192976Y-18545214D02*
X5202500Y-18526167D01*
X5221548Y-18516643D01*
X5250119Y-18516643D01*
X5269167Y-18526167D01*
X5278690Y-18545214D01*
X5278690Y-18649976D01*
X5373929Y-18649976D02*
X5373929Y-18516643D01*
X5373929Y-18535690D02*
X5383452Y-18526167D01*
X5402500Y-18516643D01*
X5431071Y-18516643D01*
X5450119Y-18526167D01*
X5459643Y-18545214D01*
X5459643Y-18649976D01*
X5459643Y-18545214D02*
X5469167Y-18526167D01*
X5488214Y-18516643D01*
X5516786Y-18516643D01*
X5535833Y-18526167D01*
X5545357Y-18545214D01*
X5545357Y-18649976D01*
X5935833Y-18440452D02*
X5764405Y-18697595D01*
X6192976Y-18449976D02*
X6212024Y-18449976D01*
X6231071Y-18459500D01*
X6240595Y-18469024D01*
X6250119Y-18488071D01*
X6259643Y-18526167D01*
X6259643Y-18573786D01*
X6250119Y-18611881D01*
X6240595Y-18630929D01*
X6231071Y-18640452D01*
X6212024Y-18649976D01*
X6192976Y-18649976D01*
X6173928Y-18640452D01*
X6164405Y-18630929D01*
X6154881Y-18611881D01*
X6145357Y-18573786D01*
X6145357Y-18526167D01*
X6154881Y-18488071D01*
X6164405Y-18469024D01*
X6173928Y-18459500D01*
X6192976Y-18449976D01*
X6345357Y-18630929D02*
X6354881Y-18640452D01*
X6345357Y-18649976D01*
X6335833Y-18640452D01*
X6345357Y-18630929D01*
X6345357Y-18649976D01*
X6478690Y-18449976D02*
X6497738Y-18449976D01*
X6516786Y-18459500D01*
X6526309Y-18469024D01*
X6535833Y-18488071D01*
X6545357Y-18526167D01*
X6545357Y-18573786D01*
X6535833Y-18611881D01*
X6526309Y-18630929D01*
X6516786Y-18640452D01*
X6497738Y-18649976D01*
X6478690Y-18649976D01*
X6459643Y-18640452D01*
X6450119Y-18630929D01*
X6440595Y-18611881D01*
X6431071Y-18573786D01*
X6431071Y-18526167D01*
X6440595Y-18488071D01*
X6450119Y-18469024D01*
X6459643Y-18459500D01*
X6478690Y-18449976D01*
X6612024Y-18449976D02*
X6735833Y-18449976D01*
X6669167Y-18526167D01*
X6697738Y-18526167D01*
X6716786Y-18535690D01*
X6726309Y-18545214D01*
X6735833Y-18564262D01*
X6735833Y-18611881D01*
X6726309Y-18630929D01*
X6716786Y-18640452D01*
X6697738Y-18649976D01*
X6640595Y-18649976D01*
X6621548Y-18640452D01*
X6612024Y-18630929D01*
X6907262Y-18449976D02*
X6869167Y-18449976D01*
X6850119Y-18459500D01*
X6840595Y-18469024D01*
X6821548Y-18497595D01*
X6812024Y-18535690D01*
X6812024Y-18611881D01*
X6821548Y-18630929D01*
X6831071Y-18640452D01*
X6850119Y-18649976D01*
X6888214Y-18649976D01*
X6907262Y-18640452D01*
X6916786Y-18630929D01*
X6926309Y-18611881D01*
X6926309Y-18564262D01*
X6916786Y-18545214D01*
X6907262Y-18535690D01*
X6888214Y-18526167D01*
X6850119Y-18526167D01*
X6831071Y-18535690D01*
X6821548Y-18545214D01*
X6812024Y-18564262D01*
X7002500Y-18469024D02*
X7012024Y-18459500D01*
X7031071Y-18449976D01*
X7078690Y-18449976D01*
X7097738Y-18459500D01*
X7107262Y-18469024D01*
X7116786Y-18488071D01*
X7116786Y-18507119D01*
X7107262Y-18535690D01*
X6992976Y-18649976D01*
X7116786Y-18649976D01*
X7192976Y-18449976D02*
X7192976Y-18488071D01*
X7269167Y-18449976D02*
X7269167Y-18488071D01*
X7564405Y-18726167D02*
X7554881Y-18716643D01*
X7535833Y-18688071D01*
X7526309Y-18669024D01*
X7516786Y-18640452D01*
X7507262Y-18592833D01*
X7507262Y-18554738D01*
X7516786Y-18507119D01*
X7526309Y-18478548D01*
X7535833Y-18459500D01*
X7554881Y-18430929D01*
X7564405Y-18421405D01*
X7726309Y-18516643D02*
X7726309Y-18649976D01*
X7678690Y-18440452D02*
X7631071Y-18583310D01*
X7754881Y-18583310D01*
X7983452Y-18649976D02*
X7983452Y-18449976D01*
X8069167Y-18649976D02*
X8069167Y-18545214D01*
X8059643Y-18526167D01*
X8040595Y-18516643D01*
X8012024Y-18516643D01*
X7992976Y-18526167D01*
X7983452Y-18535690D01*
X8192976Y-18649976D02*
X8173928Y-18640452D01*
X8164405Y-18630929D01*
X8154881Y-18611881D01*
X8154881Y-18554738D01*
X8164405Y-18535690D01*
X8173928Y-18526167D01*
X8192976Y-18516643D01*
X8221548Y-18516643D01*
X8240595Y-18526167D01*
X8250119Y-18535690D01*
X8259643Y-18554738D01*
X8259643Y-18611881D01*
X8250119Y-18630929D01*
X8240595Y-18640452D01*
X8221548Y-18649976D01*
X8192976Y-18649976D01*
X8373928Y-18649976D02*
X8354881Y-18640452D01*
X8345357Y-18621405D01*
X8345357Y-18449976D01*
X8526310Y-18640452D02*
X8507262Y-18649976D01*
X8469167Y-18649976D01*
X8450119Y-18640452D01*
X8440595Y-18621405D01*
X8440595Y-18545214D01*
X8450119Y-18526167D01*
X8469167Y-18516643D01*
X8507262Y-18516643D01*
X8526310Y-18526167D01*
X8535833Y-18545214D01*
X8535833Y-18564262D01*
X8440595Y-18583310D01*
X8612024Y-18640452D02*
X8631071Y-18649976D01*
X8669167Y-18649976D01*
X8688214Y-18640452D01*
X8697738Y-18621405D01*
X8697738Y-18611881D01*
X8688214Y-18592833D01*
X8669167Y-18583310D01*
X8640595Y-18583310D01*
X8621548Y-18573786D01*
X8612024Y-18554738D01*
X8612024Y-18545214D01*
X8621548Y-18526167D01*
X8640595Y-18516643D01*
X8669167Y-18516643D01*
X8688214Y-18526167D01*
X8764405Y-18726167D02*
X8773929Y-18716643D01*
X8792976Y-18688071D01*
X8802500Y-18669024D01*
X8812024Y-18640452D01*
X8821548Y-18592833D01*
X8821548Y-18554738D01*
X8812024Y-18507119D01*
X8802500Y-18478548D01*
X8792976Y-18459500D01*
X8773929Y-18430929D01*
X8764405Y-18421405D01*
D21*
X3942500Y-18773500D02*
X3942500Y-18873500D01*
X3892500Y-18823500D02*
X3992500Y-18823500D01*
X3992500Y-18823500D02*
G75*
G03*
X3992500Y-18823500I-50000J0D01*
G01*
D12*
X4354881Y-18913976D02*
X4240595Y-18913976D01*
X4297738Y-18913976D02*
X4297738Y-18713976D01*
X4278690Y-18742548D01*
X4259643Y-18761595D01*
X4240595Y-18771119D01*
X4440595Y-18894929D02*
X4450119Y-18904452D01*
X4440595Y-18913976D01*
X4431071Y-18904452D01*
X4440595Y-18894929D01*
X4440595Y-18913976D01*
X4573929Y-18713976D02*
X4592976Y-18713976D01*
X4612024Y-18723500D01*
X4621548Y-18733024D01*
X4631071Y-18752071D01*
X4640595Y-18790167D01*
X4640595Y-18837786D01*
X4631071Y-18875881D01*
X4621548Y-18894929D01*
X4612024Y-18904452D01*
X4592976Y-18913976D01*
X4573929Y-18913976D01*
X4554881Y-18904452D01*
X4545357Y-18894929D01*
X4535833Y-18875881D01*
X4526310Y-18837786D01*
X4526310Y-18790167D01*
X4535833Y-18752071D01*
X4545357Y-18733024D01*
X4554881Y-18723500D01*
X4573929Y-18713976D01*
X4764405Y-18713976D02*
X4783452Y-18713976D01*
X4802500Y-18723500D01*
X4812024Y-18733024D01*
X4821548Y-18752071D01*
X4831071Y-18790167D01*
X4831071Y-18837786D01*
X4821548Y-18875881D01*
X4812024Y-18894929D01*
X4802500Y-18904452D01*
X4783452Y-18913976D01*
X4764405Y-18913976D01*
X4745357Y-18904452D01*
X4735833Y-18894929D01*
X4726310Y-18875881D01*
X4716786Y-18837786D01*
X4716786Y-18790167D01*
X4726310Y-18752071D01*
X4735833Y-18733024D01*
X4745357Y-18723500D01*
X4764405Y-18713976D01*
X4954881Y-18713976D02*
X4973929Y-18713976D01*
X4992976Y-18723500D01*
X5002500Y-18733024D01*
X5012024Y-18752071D01*
X5021548Y-18790167D01*
X5021548Y-18837786D01*
X5012024Y-18875881D01*
X5002500Y-18894929D01*
X4992976Y-18904452D01*
X4973929Y-18913976D01*
X4954881Y-18913976D01*
X4935833Y-18904452D01*
X4926310Y-18894929D01*
X4916786Y-18875881D01*
X4907262Y-18837786D01*
X4907262Y-18790167D01*
X4916786Y-18752071D01*
X4926310Y-18733024D01*
X4935833Y-18723500D01*
X4954881Y-18713976D01*
X5107262Y-18913976D02*
X5107262Y-18780643D01*
X5107262Y-18799690D02*
X5116786Y-18790167D01*
X5135833Y-18780643D01*
X5164405Y-18780643D01*
X5183452Y-18790167D01*
X5192976Y-18809214D01*
X5192976Y-18913976D01*
X5192976Y-18809214D02*
X5202500Y-18790167D01*
X5221548Y-18780643D01*
X5250119Y-18780643D01*
X5269167Y-18790167D01*
X5278690Y-18809214D01*
X5278690Y-18913976D01*
X5373929Y-18913976D02*
X5373929Y-18780643D01*
X5373929Y-18799690D02*
X5383452Y-18790167D01*
X5402500Y-18780643D01*
X5431071Y-18780643D01*
X5450119Y-18790167D01*
X5459643Y-18809214D01*
X5459643Y-18913976D01*
X5459643Y-18809214D02*
X5469167Y-18790167D01*
X5488214Y-18780643D01*
X5516786Y-18780643D01*
X5535833Y-18790167D01*
X5545357Y-18809214D01*
X5545357Y-18913976D01*
X5935833Y-18704452D02*
X5764405Y-18961595D01*
X6192976Y-18713976D02*
X6212024Y-18713976D01*
X6231071Y-18723500D01*
X6240595Y-18733024D01*
X6250119Y-18752071D01*
X6259643Y-18790167D01*
X6259643Y-18837786D01*
X6250119Y-18875881D01*
X6240595Y-18894929D01*
X6231071Y-18904452D01*
X6212024Y-18913976D01*
X6192976Y-18913976D01*
X6173928Y-18904452D01*
X6164405Y-18894929D01*
X6154881Y-18875881D01*
X6145357Y-18837786D01*
X6145357Y-18790167D01*
X6154881Y-18752071D01*
X6164405Y-18733024D01*
X6173928Y-18723500D01*
X6192976Y-18713976D01*
X6345357Y-18894929D02*
X6354881Y-18904452D01*
X6345357Y-18913976D01*
X6335833Y-18904452D01*
X6345357Y-18894929D01*
X6345357Y-18913976D01*
X6478690Y-18713976D02*
X6497738Y-18713976D01*
X6516786Y-18723500D01*
X6526309Y-18733024D01*
X6535833Y-18752071D01*
X6545357Y-18790167D01*
X6545357Y-18837786D01*
X6535833Y-18875881D01*
X6526309Y-18894929D01*
X6516786Y-18904452D01*
X6497738Y-18913976D01*
X6478690Y-18913976D01*
X6459643Y-18904452D01*
X6450119Y-18894929D01*
X6440595Y-18875881D01*
X6431071Y-18837786D01*
X6431071Y-18790167D01*
X6440595Y-18752071D01*
X6450119Y-18733024D01*
X6459643Y-18723500D01*
X6478690Y-18713976D01*
X6612024Y-18713976D02*
X6735833Y-18713976D01*
X6669167Y-18790167D01*
X6697738Y-18790167D01*
X6716786Y-18799690D01*
X6726309Y-18809214D01*
X6735833Y-18828262D01*
X6735833Y-18875881D01*
X6726309Y-18894929D01*
X6716786Y-18904452D01*
X6697738Y-18913976D01*
X6640595Y-18913976D01*
X6621548Y-18904452D01*
X6612024Y-18894929D01*
X6831071Y-18913976D02*
X6869167Y-18913976D01*
X6888214Y-18904452D01*
X6897738Y-18894929D01*
X6916786Y-18866357D01*
X6926309Y-18828262D01*
X6926309Y-18752071D01*
X6916786Y-18733024D01*
X6907262Y-18723500D01*
X6888214Y-18713976D01*
X6850119Y-18713976D01*
X6831071Y-18723500D01*
X6821548Y-18733024D01*
X6812024Y-18752071D01*
X6812024Y-18799690D01*
X6821548Y-18818738D01*
X6831071Y-18828262D01*
X6850119Y-18837786D01*
X6888214Y-18837786D01*
X6907262Y-18828262D01*
X6916786Y-18818738D01*
X6926309Y-18799690D01*
X7097738Y-18780643D02*
X7097738Y-18913976D01*
X7050119Y-18704452D02*
X7002500Y-18847310D01*
X7126309Y-18847310D01*
X7192976Y-18713976D02*
X7192976Y-18752071D01*
X7269167Y-18713976D02*
X7269167Y-18752071D01*
X7564405Y-18990167D02*
X7554881Y-18980643D01*
X7535833Y-18952071D01*
X7526309Y-18933024D01*
X7516786Y-18904452D01*
X7507262Y-18856833D01*
X7507262Y-18818738D01*
X7516786Y-18771119D01*
X7526309Y-18742548D01*
X7535833Y-18723500D01*
X7554881Y-18694929D01*
X7564405Y-18685405D01*
X7745357Y-18913976D02*
X7631071Y-18913976D01*
X7688214Y-18913976D02*
X7688214Y-18713976D01*
X7669167Y-18742548D01*
X7650119Y-18761595D01*
X7631071Y-18771119D01*
X7916786Y-18713976D02*
X7878690Y-18713976D01*
X7859643Y-18723500D01*
X7850119Y-18733024D01*
X7831071Y-18761595D01*
X7821548Y-18799690D01*
X7821548Y-18875881D01*
X7831071Y-18894929D01*
X7840595Y-18904452D01*
X7859643Y-18913976D01*
X7897738Y-18913976D01*
X7916786Y-18904452D01*
X7926309Y-18894929D01*
X7935833Y-18875881D01*
X7935833Y-18828262D01*
X7926309Y-18809214D01*
X7916786Y-18799690D01*
X7897738Y-18790167D01*
X7859643Y-18790167D01*
X7840595Y-18799690D01*
X7831071Y-18809214D01*
X7821548Y-18828262D01*
X8173928Y-18913976D02*
X8173928Y-18713976D01*
X8259643Y-18913976D02*
X8259643Y-18809214D01*
X8250119Y-18790167D01*
X8231071Y-18780643D01*
X8202500Y-18780643D01*
X8183452Y-18790167D01*
X8173928Y-18799690D01*
X8383452Y-18913976D02*
X8364405Y-18904452D01*
X8354881Y-18894929D01*
X8345357Y-18875881D01*
X8345357Y-18818738D01*
X8354881Y-18799690D01*
X8364405Y-18790167D01*
X8383452Y-18780643D01*
X8412024Y-18780643D01*
X8431071Y-18790167D01*
X8440595Y-18799690D01*
X8450119Y-18818738D01*
X8450119Y-18875881D01*
X8440595Y-18894929D01*
X8431071Y-18904452D01*
X8412024Y-18913976D01*
X8383452Y-18913976D01*
X8564405Y-18913976D02*
X8545357Y-18904452D01*
X8535833Y-18885405D01*
X8535833Y-18713976D01*
X8716786Y-18904452D02*
X8697738Y-18913976D01*
X8659643Y-18913976D01*
X8640595Y-18904452D01*
X8631071Y-18885405D01*
X8631071Y-18809214D01*
X8640595Y-18790167D01*
X8659643Y-18780643D01*
X8697738Y-18780643D01*
X8716786Y-18790167D01*
X8726310Y-18809214D01*
X8726310Y-18828262D01*
X8631071Y-18847310D01*
X8802500Y-18904452D02*
X8821548Y-18913976D01*
X8859643Y-18913976D01*
X8878690Y-18904452D01*
X8888214Y-18885405D01*
X8888214Y-18875881D01*
X8878690Y-18856833D01*
X8859643Y-18847310D01*
X8831071Y-18847310D01*
X8812024Y-18837786D01*
X8802500Y-18818738D01*
X8802500Y-18809214D01*
X8812024Y-18790167D01*
X8831071Y-18780643D01*
X8859643Y-18780643D01*
X8878690Y-18790167D01*
X8954881Y-18990167D02*
X8964405Y-18980643D01*
X8983452Y-18952071D01*
X8992976Y-18933024D01*
X9002500Y-18904452D01*
X9012024Y-18856833D01*
X9012024Y-18818738D01*
X9002500Y-18771119D01*
X8992976Y-18742548D01*
X8983452Y-18723500D01*
X8964405Y-18694929D01*
X8954881Y-18685405D01*
D22*
X3977563Y-19123563D02*
X3977563Y-19051437D01*
X3905437Y-19051437D01*
X3905437Y-19123563D01*
X3977563Y-19123563D01*
X3992500Y-19087500D02*
G75*
G03*
X3992500Y-19087500I-51000J0D01*
G01*
D12*
X4354881Y-19177976D02*
X4240595Y-19177976D01*
X4297738Y-19177976D02*
X4297738Y-18977976D01*
X4278690Y-19006548D01*
X4259643Y-19025595D01*
X4240595Y-19035119D01*
X4440595Y-19158929D02*
X4450119Y-19168452D01*
X4440595Y-19177976D01*
X4431071Y-19168452D01*
X4440595Y-19158929D01*
X4440595Y-19177976D01*
X4573929Y-18977976D02*
X4592976Y-18977976D01*
X4612024Y-18987500D01*
X4621548Y-18997024D01*
X4631071Y-19016071D01*
X4640595Y-19054167D01*
X4640595Y-19101786D01*
X4631071Y-19139881D01*
X4621548Y-19158929D01*
X4612024Y-19168452D01*
X4592976Y-19177976D01*
X4573929Y-19177976D01*
X4554881Y-19168452D01*
X4545357Y-19158929D01*
X4535833Y-19139881D01*
X4526310Y-19101786D01*
X4526310Y-19054167D01*
X4535833Y-19016071D01*
X4545357Y-18997024D01*
X4554881Y-18987500D01*
X4573929Y-18977976D01*
X4716786Y-18997024D02*
X4726310Y-18987500D01*
X4745357Y-18977976D01*
X4792976Y-18977976D01*
X4812024Y-18987500D01*
X4821548Y-18997024D01*
X4831071Y-19016071D01*
X4831071Y-19035119D01*
X4821548Y-19063690D01*
X4707262Y-19177976D01*
X4831071Y-19177976D01*
X4954881Y-18977976D02*
X4973929Y-18977976D01*
X4992976Y-18987500D01*
X5002500Y-18997024D01*
X5012024Y-19016071D01*
X5021548Y-19054167D01*
X5021548Y-19101786D01*
X5012024Y-19139881D01*
X5002500Y-19158929D01*
X4992976Y-19168452D01*
X4973929Y-19177976D01*
X4954881Y-19177976D01*
X4935833Y-19168452D01*
X4926310Y-19158929D01*
X4916786Y-19139881D01*
X4907262Y-19101786D01*
X4907262Y-19054167D01*
X4916786Y-19016071D01*
X4926310Y-18997024D01*
X4935833Y-18987500D01*
X4954881Y-18977976D01*
X5107262Y-19177976D02*
X5107262Y-19044643D01*
X5107262Y-19063690D02*
X5116786Y-19054167D01*
X5135833Y-19044643D01*
X5164405Y-19044643D01*
X5183452Y-19054167D01*
X5192976Y-19073214D01*
X5192976Y-19177976D01*
X5192976Y-19073214D02*
X5202500Y-19054167D01*
X5221548Y-19044643D01*
X5250119Y-19044643D01*
X5269167Y-19054167D01*
X5278690Y-19073214D01*
X5278690Y-19177976D01*
X5373929Y-19177976D02*
X5373929Y-19044643D01*
X5373929Y-19063690D02*
X5383452Y-19054167D01*
X5402500Y-19044643D01*
X5431071Y-19044643D01*
X5450119Y-19054167D01*
X5459643Y-19073214D01*
X5459643Y-19177976D01*
X5459643Y-19073214D02*
X5469167Y-19054167D01*
X5488214Y-19044643D01*
X5516786Y-19044643D01*
X5535833Y-19054167D01*
X5545357Y-19073214D01*
X5545357Y-19177976D01*
X5935833Y-18968452D02*
X5764405Y-19225595D01*
X6192976Y-18977976D02*
X6212024Y-18977976D01*
X6231071Y-18987500D01*
X6240595Y-18997024D01*
X6250119Y-19016071D01*
X6259643Y-19054167D01*
X6259643Y-19101786D01*
X6250119Y-19139881D01*
X6240595Y-19158929D01*
X6231071Y-19168452D01*
X6212024Y-19177976D01*
X6192976Y-19177976D01*
X6173928Y-19168452D01*
X6164405Y-19158929D01*
X6154881Y-19139881D01*
X6145357Y-19101786D01*
X6145357Y-19054167D01*
X6154881Y-19016071D01*
X6164405Y-18997024D01*
X6173928Y-18987500D01*
X6192976Y-18977976D01*
X6345357Y-19158929D02*
X6354881Y-19168452D01*
X6345357Y-19177976D01*
X6335833Y-19168452D01*
X6345357Y-19158929D01*
X6345357Y-19177976D01*
X6478690Y-18977976D02*
X6497738Y-18977976D01*
X6516786Y-18987500D01*
X6526309Y-18997024D01*
X6535833Y-19016071D01*
X6545357Y-19054167D01*
X6545357Y-19101786D01*
X6535833Y-19139881D01*
X6526309Y-19158929D01*
X6516786Y-19168452D01*
X6497738Y-19177976D01*
X6478690Y-19177976D01*
X6459643Y-19168452D01*
X6450119Y-19158929D01*
X6440595Y-19139881D01*
X6431071Y-19101786D01*
X6431071Y-19054167D01*
X6440595Y-19016071D01*
X6450119Y-18997024D01*
X6459643Y-18987500D01*
X6478690Y-18977976D01*
X6716786Y-19044643D02*
X6716786Y-19177976D01*
X6669167Y-18968452D02*
X6621548Y-19111310D01*
X6745357Y-19111310D01*
X6859643Y-18977976D02*
X6878690Y-18977976D01*
X6897738Y-18987500D01*
X6907262Y-18997024D01*
X6916786Y-19016071D01*
X6926309Y-19054167D01*
X6926309Y-19101786D01*
X6916786Y-19139881D01*
X6907262Y-19158929D01*
X6897738Y-19168452D01*
X6878690Y-19177976D01*
X6859643Y-19177976D01*
X6840595Y-19168452D01*
X6831071Y-19158929D01*
X6821548Y-19139881D01*
X6812024Y-19101786D01*
X6812024Y-19054167D01*
X6821548Y-19016071D01*
X6831071Y-18997024D01*
X6840595Y-18987500D01*
X6859643Y-18977976D01*
X7002500Y-18997024D02*
X7012024Y-18987500D01*
X7031071Y-18977976D01*
X7078690Y-18977976D01*
X7097738Y-18987500D01*
X7107262Y-18997024D01*
X7116786Y-19016071D01*
X7116786Y-19035119D01*
X7107262Y-19063690D01*
X6992976Y-19177976D01*
X7116786Y-19177976D01*
X7192976Y-18977976D02*
X7192976Y-19016071D01*
X7269167Y-18977976D02*
X7269167Y-19016071D01*
X7564405Y-19254167D02*
X7554881Y-19244643D01*
X7535833Y-19216071D01*
X7526309Y-19197024D01*
X7516786Y-19168452D01*
X7507262Y-19120833D01*
X7507262Y-19082738D01*
X7516786Y-19035119D01*
X7526309Y-19006548D01*
X7535833Y-18987500D01*
X7554881Y-18958929D01*
X7564405Y-18949405D01*
X7726309Y-19044643D02*
X7726309Y-19177976D01*
X7678690Y-18968452D02*
X7631071Y-19111310D01*
X7754881Y-19111310D01*
X7983452Y-19177976D02*
X7983452Y-18977976D01*
X8069167Y-19177976D02*
X8069167Y-19073214D01*
X8059643Y-19054167D01*
X8040595Y-19044643D01*
X8012024Y-19044643D01*
X7992976Y-19054167D01*
X7983452Y-19063690D01*
X8192976Y-19177976D02*
X8173928Y-19168452D01*
X8164405Y-19158929D01*
X8154881Y-19139881D01*
X8154881Y-19082738D01*
X8164405Y-19063690D01*
X8173928Y-19054167D01*
X8192976Y-19044643D01*
X8221548Y-19044643D01*
X8240595Y-19054167D01*
X8250119Y-19063690D01*
X8259643Y-19082738D01*
X8259643Y-19139881D01*
X8250119Y-19158929D01*
X8240595Y-19168452D01*
X8221548Y-19177976D01*
X8192976Y-19177976D01*
X8373928Y-19177976D02*
X8354881Y-19168452D01*
X8345357Y-19149405D01*
X8345357Y-18977976D01*
X8526310Y-19168452D02*
X8507262Y-19177976D01*
X8469167Y-19177976D01*
X8450119Y-19168452D01*
X8440595Y-19149405D01*
X8440595Y-19073214D01*
X8450119Y-19054167D01*
X8469167Y-19044643D01*
X8507262Y-19044643D01*
X8526310Y-19054167D01*
X8535833Y-19073214D01*
X8535833Y-19092262D01*
X8440595Y-19111310D01*
X8612024Y-19168452D02*
X8631071Y-19177976D01*
X8669167Y-19177976D01*
X8688214Y-19168452D01*
X8697738Y-19149405D01*
X8697738Y-19139881D01*
X8688214Y-19120833D01*
X8669167Y-19111310D01*
X8640595Y-19111310D01*
X8621548Y-19101786D01*
X8612024Y-19082738D01*
X8612024Y-19073214D01*
X8621548Y-19054167D01*
X8640595Y-19044643D01*
X8669167Y-19044643D01*
X8688214Y-19054167D01*
X8764405Y-19254167D02*
X8773929Y-19244643D01*
X8792976Y-19216071D01*
X8802500Y-19197024D01*
X8812024Y-19168452D01*
X8821548Y-19120833D01*
X8821548Y-19082738D01*
X8812024Y-19035119D01*
X8802500Y-19006548D01*
X8792976Y-18987500D01*
X8773929Y-18958929D01*
X8764405Y-18949405D01*
D23*
X3933000Y-19411000D02*
X3992500Y-19351500D01*
X3933000Y-19292000D01*
X3873500Y-19351500D01*
X3933000Y-19411000D01*
X3992500Y-19351500D02*
G75*
G03*
X3992500Y-19351500I-59500J0D01*
G01*
D12*
X4354881Y-19441976D02*
X4240595Y-19441976D01*
X4297738Y-19441976D02*
X4297738Y-19241976D01*
X4278690Y-19270548D01*
X4259643Y-19289595D01*
X4240595Y-19299119D01*
X4440595Y-19422929D02*
X4450119Y-19432452D01*
X4440595Y-19441976D01*
X4431071Y-19432452D01*
X4440595Y-19422929D01*
X4440595Y-19441976D01*
X4640595Y-19441976D02*
X4526310Y-19441976D01*
X4583452Y-19441976D02*
X4583452Y-19241976D01*
X4564405Y-19270548D01*
X4545357Y-19289595D01*
X4526310Y-19299119D01*
X4735833Y-19441976D02*
X4773929Y-19441976D01*
X4792976Y-19432452D01*
X4802500Y-19422929D01*
X4821548Y-19394357D01*
X4831071Y-19356262D01*
X4831071Y-19280071D01*
X4821548Y-19261024D01*
X4812024Y-19251500D01*
X4792976Y-19241976D01*
X4754881Y-19241976D01*
X4735833Y-19251500D01*
X4726310Y-19261024D01*
X4716786Y-19280071D01*
X4716786Y-19327690D01*
X4726310Y-19346738D01*
X4735833Y-19356262D01*
X4754881Y-19365786D01*
X4792976Y-19365786D01*
X4812024Y-19356262D01*
X4821548Y-19346738D01*
X4831071Y-19327690D01*
X4954881Y-19241976D02*
X4973929Y-19241976D01*
X4992976Y-19251500D01*
X5002500Y-19261024D01*
X5012024Y-19280071D01*
X5021548Y-19318167D01*
X5021548Y-19365786D01*
X5012024Y-19403881D01*
X5002500Y-19422929D01*
X4992976Y-19432452D01*
X4973929Y-19441976D01*
X4954881Y-19441976D01*
X4935833Y-19432452D01*
X4926310Y-19422929D01*
X4916786Y-19403881D01*
X4907262Y-19365786D01*
X4907262Y-19318167D01*
X4916786Y-19280071D01*
X4926310Y-19261024D01*
X4935833Y-19251500D01*
X4954881Y-19241976D01*
X5107262Y-19441976D02*
X5107262Y-19308643D01*
X5107262Y-19327690D02*
X5116786Y-19318167D01*
X5135833Y-19308643D01*
X5164405Y-19308643D01*
X5183452Y-19318167D01*
X5192976Y-19337214D01*
X5192976Y-19441976D01*
X5192976Y-19337214D02*
X5202500Y-19318167D01*
X5221548Y-19308643D01*
X5250119Y-19308643D01*
X5269167Y-19318167D01*
X5278690Y-19337214D01*
X5278690Y-19441976D01*
X5373929Y-19441976D02*
X5373929Y-19308643D01*
X5373929Y-19327690D02*
X5383452Y-19318167D01*
X5402500Y-19308643D01*
X5431071Y-19308643D01*
X5450119Y-19318167D01*
X5459643Y-19337214D01*
X5459643Y-19441976D01*
X5459643Y-19337214D02*
X5469167Y-19318167D01*
X5488214Y-19308643D01*
X5516786Y-19308643D01*
X5535833Y-19318167D01*
X5545357Y-19337214D01*
X5545357Y-19441976D01*
X5935833Y-19232452D02*
X5764405Y-19489595D01*
X6192976Y-19241976D02*
X6212024Y-19241976D01*
X6231071Y-19251500D01*
X6240595Y-19261024D01*
X6250119Y-19280071D01*
X6259643Y-19318167D01*
X6259643Y-19365786D01*
X6250119Y-19403881D01*
X6240595Y-19422929D01*
X6231071Y-19432452D01*
X6212024Y-19441976D01*
X6192976Y-19441976D01*
X6173928Y-19432452D01*
X6164405Y-19422929D01*
X6154881Y-19403881D01*
X6145357Y-19365786D01*
X6145357Y-19318167D01*
X6154881Y-19280071D01*
X6164405Y-19261024D01*
X6173928Y-19251500D01*
X6192976Y-19241976D01*
X6345357Y-19422929D02*
X6354881Y-19432452D01*
X6345357Y-19441976D01*
X6335833Y-19432452D01*
X6345357Y-19422929D01*
X6345357Y-19441976D01*
X6478690Y-19241976D02*
X6497738Y-19241976D01*
X6516786Y-19251500D01*
X6526309Y-19261024D01*
X6535833Y-19280071D01*
X6545357Y-19318167D01*
X6545357Y-19365786D01*
X6535833Y-19403881D01*
X6526309Y-19422929D01*
X6516786Y-19432452D01*
X6497738Y-19441976D01*
X6478690Y-19441976D01*
X6459643Y-19432452D01*
X6450119Y-19422929D01*
X6440595Y-19403881D01*
X6431071Y-19365786D01*
X6431071Y-19318167D01*
X6440595Y-19280071D01*
X6450119Y-19261024D01*
X6459643Y-19251500D01*
X6478690Y-19241976D01*
X6716786Y-19308643D02*
X6716786Y-19441976D01*
X6669167Y-19232452D02*
X6621548Y-19375310D01*
X6745357Y-19375310D01*
X6907262Y-19241976D02*
X6869167Y-19241976D01*
X6850119Y-19251500D01*
X6840595Y-19261024D01*
X6821548Y-19289595D01*
X6812024Y-19327690D01*
X6812024Y-19403881D01*
X6821548Y-19422929D01*
X6831071Y-19432452D01*
X6850119Y-19441976D01*
X6888214Y-19441976D01*
X6907262Y-19432452D01*
X6916786Y-19422929D01*
X6926309Y-19403881D01*
X6926309Y-19356262D01*
X6916786Y-19337214D01*
X6907262Y-19327690D01*
X6888214Y-19318167D01*
X6850119Y-19318167D01*
X6831071Y-19327690D01*
X6821548Y-19337214D01*
X6812024Y-19356262D01*
X7021548Y-19441976D02*
X7059643Y-19441976D01*
X7078690Y-19432452D01*
X7088214Y-19422929D01*
X7107262Y-19394357D01*
X7116786Y-19356262D01*
X7116786Y-19280071D01*
X7107262Y-19261024D01*
X7097738Y-19251500D01*
X7078690Y-19241976D01*
X7040595Y-19241976D01*
X7021548Y-19251500D01*
X7012024Y-19261024D01*
X7002500Y-19280071D01*
X7002500Y-19327690D01*
X7012024Y-19346738D01*
X7021548Y-19356262D01*
X7040595Y-19365786D01*
X7078690Y-19365786D01*
X7097738Y-19356262D01*
X7107262Y-19346738D01*
X7116786Y-19327690D01*
X7192976Y-19241976D02*
X7192976Y-19280071D01*
X7269167Y-19241976D02*
X7269167Y-19280071D01*
X7564405Y-19518167D02*
X7554881Y-19508643D01*
X7535833Y-19480071D01*
X7526309Y-19461024D01*
X7516786Y-19432452D01*
X7507262Y-19384833D01*
X7507262Y-19346738D01*
X7516786Y-19299119D01*
X7526309Y-19270548D01*
X7535833Y-19251500D01*
X7554881Y-19222929D01*
X7564405Y-19213405D01*
X7726309Y-19308643D02*
X7726309Y-19441976D01*
X7678690Y-19232452D02*
X7631071Y-19375310D01*
X7754881Y-19375310D01*
X7821548Y-19261024D02*
X7831071Y-19251500D01*
X7850119Y-19241976D01*
X7897738Y-19241976D01*
X7916786Y-19251500D01*
X7926309Y-19261024D01*
X7935833Y-19280071D01*
X7935833Y-19299119D01*
X7926309Y-19327690D01*
X7812024Y-19441976D01*
X7935833Y-19441976D01*
X8173928Y-19441976D02*
X8173928Y-19241976D01*
X8259643Y-19441976D02*
X8259643Y-19337214D01*
X8250119Y-19318167D01*
X8231071Y-19308643D01*
X8202500Y-19308643D01*
X8183452Y-19318167D01*
X8173928Y-19327690D01*
X8383452Y-19441976D02*
X8364405Y-19432452D01*
X8354881Y-19422929D01*
X8345357Y-19403881D01*
X8345357Y-19346738D01*
X8354881Y-19327690D01*
X8364405Y-19318167D01*
X8383452Y-19308643D01*
X8412024Y-19308643D01*
X8431071Y-19318167D01*
X8440595Y-19327690D01*
X8450119Y-19346738D01*
X8450119Y-19403881D01*
X8440595Y-19422929D01*
X8431071Y-19432452D01*
X8412024Y-19441976D01*
X8383452Y-19441976D01*
X8564405Y-19441976D02*
X8545357Y-19432452D01*
X8535833Y-19413405D01*
X8535833Y-19241976D01*
X8716786Y-19432452D02*
X8697738Y-19441976D01*
X8659643Y-19441976D01*
X8640595Y-19432452D01*
X8631071Y-19413405D01*
X8631071Y-19337214D01*
X8640595Y-19318167D01*
X8659643Y-19308643D01*
X8697738Y-19308643D01*
X8716786Y-19318167D01*
X8726310Y-19337214D01*
X8726310Y-19356262D01*
X8631071Y-19375310D01*
X8802500Y-19432452D02*
X8821548Y-19441976D01*
X8859643Y-19441976D01*
X8878690Y-19432452D01*
X8888214Y-19413405D01*
X8888214Y-19403881D01*
X8878690Y-19384833D01*
X8859643Y-19375310D01*
X8831071Y-19375310D01*
X8812024Y-19365786D01*
X8802500Y-19346738D01*
X8802500Y-19337214D01*
X8812024Y-19318167D01*
X8831071Y-19308643D01*
X8859643Y-19308643D01*
X8878690Y-19318167D01*
X8954881Y-19518167D02*
X8964405Y-19508643D01*
X8983452Y-19480071D01*
X8992976Y-19461024D01*
X9002500Y-19432452D01*
X9012024Y-19384833D01*
X9012024Y-19346738D01*
X9002500Y-19299119D01*
X8992976Y-19270548D01*
X8983452Y-19251500D01*
X8964405Y-19222929D01*
X8954881Y-19213405D01*
D24*
X3912490Y-19535490D02*
X3912490Y-19695510D01*
X3832480Y-19615500D02*
X3992500Y-19615500D01*
X3969066Y-19672076D02*
X3969066Y-19558924D01*
X3855914Y-19558924D01*
X3855914Y-19672076D01*
X3969066Y-19672076D01*
D12*
X4354881Y-19705976D02*
X4240595Y-19705976D01*
X4297738Y-19705976D02*
X4297738Y-19505976D01*
X4278690Y-19534548D01*
X4259643Y-19553595D01*
X4240595Y-19563119D01*
X4440595Y-19686929D02*
X4450119Y-19696452D01*
X4440595Y-19705976D01*
X4431071Y-19696452D01*
X4440595Y-19686929D01*
X4440595Y-19705976D01*
X4621548Y-19505976D02*
X4583452Y-19505976D01*
X4564405Y-19515500D01*
X4554881Y-19525024D01*
X4535833Y-19553595D01*
X4526310Y-19591690D01*
X4526310Y-19667881D01*
X4535833Y-19686929D01*
X4545357Y-19696452D01*
X4564405Y-19705976D01*
X4602500Y-19705976D01*
X4621548Y-19696452D01*
X4631071Y-19686929D01*
X4640595Y-19667881D01*
X4640595Y-19620262D01*
X4631071Y-19601214D01*
X4621548Y-19591690D01*
X4602500Y-19582167D01*
X4564405Y-19582167D01*
X4545357Y-19591690D01*
X4535833Y-19601214D01*
X4526310Y-19620262D01*
X4764405Y-19505976D02*
X4783452Y-19505976D01*
X4802500Y-19515500D01*
X4812024Y-19525024D01*
X4821548Y-19544071D01*
X4831071Y-19582167D01*
X4831071Y-19629786D01*
X4821548Y-19667881D01*
X4812024Y-19686929D01*
X4802500Y-19696452D01*
X4783452Y-19705976D01*
X4764405Y-19705976D01*
X4745357Y-19696452D01*
X4735833Y-19686929D01*
X4726310Y-19667881D01*
X4716786Y-19629786D01*
X4716786Y-19582167D01*
X4726310Y-19544071D01*
X4735833Y-19525024D01*
X4745357Y-19515500D01*
X4764405Y-19505976D01*
X4954881Y-19505976D02*
X4973929Y-19505976D01*
X4992976Y-19515500D01*
X5002500Y-19525024D01*
X5012024Y-19544071D01*
X5021548Y-19582167D01*
X5021548Y-19629786D01*
X5012024Y-19667881D01*
X5002500Y-19686929D01*
X4992976Y-19696452D01*
X4973929Y-19705976D01*
X4954881Y-19705976D01*
X4935833Y-19696452D01*
X4926310Y-19686929D01*
X4916786Y-19667881D01*
X4907262Y-19629786D01*
X4907262Y-19582167D01*
X4916786Y-19544071D01*
X4926310Y-19525024D01*
X4935833Y-19515500D01*
X4954881Y-19505976D01*
X5107262Y-19705976D02*
X5107262Y-19572643D01*
X5107262Y-19591690D02*
X5116786Y-19582167D01*
X5135833Y-19572643D01*
X5164405Y-19572643D01*
X5183452Y-19582167D01*
X5192976Y-19601214D01*
X5192976Y-19705976D01*
X5192976Y-19601214D02*
X5202500Y-19582167D01*
X5221548Y-19572643D01*
X5250119Y-19572643D01*
X5269167Y-19582167D01*
X5278690Y-19601214D01*
X5278690Y-19705976D01*
X5373929Y-19705976D02*
X5373929Y-19572643D01*
X5373929Y-19591690D02*
X5383452Y-19582167D01*
X5402500Y-19572643D01*
X5431071Y-19572643D01*
X5450119Y-19582167D01*
X5459643Y-19601214D01*
X5459643Y-19705976D01*
X5459643Y-19601214D02*
X5469167Y-19582167D01*
X5488214Y-19572643D01*
X5516786Y-19572643D01*
X5535833Y-19582167D01*
X5545357Y-19601214D01*
X5545357Y-19705976D01*
X5935833Y-19496452D02*
X5764405Y-19753595D01*
X6192976Y-19505976D02*
X6212024Y-19505976D01*
X6231071Y-19515500D01*
X6240595Y-19525024D01*
X6250119Y-19544071D01*
X6259643Y-19582167D01*
X6259643Y-19629786D01*
X6250119Y-19667881D01*
X6240595Y-19686929D01*
X6231071Y-19696452D01*
X6212024Y-19705976D01*
X6192976Y-19705976D01*
X6173928Y-19696452D01*
X6164405Y-19686929D01*
X6154881Y-19667881D01*
X6145357Y-19629786D01*
X6145357Y-19582167D01*
X6154881Y-19544071D01*
X6164405Y-19525024D01*
X6173928Y-19515500D01*
X6192976Y-19505976D01*
X6345357Y-19686929D02*
X6354881Y-19696452D01*
X6345357Y-19705976D01*
X6335833Y-19696452D01*
X6345357Y-19686929D01*
X6345357Y-19705976D01*
X6478690Y-19505976D02*
X6497738Y-19505976D01*
X6516786Y-19515500D01*
X6526309Y-19525024D01*
X6535833Y-19544071D01*
X6545357Y-19582167D01*
X6545357Y-19629786D01*
X6535833Y-19667881D01*
X6526309Y-19686929D01*
X6516786Y-19696452D01*
X6497738Y-19705976D01*
X6478690Y-19705976D01*
X6459643Y-19696452D01*
X6450119Y-19686929D01*
X6440595Y-19667881D01*
X6431071Y-19629786D01*
X6431071Y-19582167D01*
X6440595Y-19544071D01*
X6450119Y-19525024D01*
X6459643Y-19515500D01*
X6478690Y-19505976D01*
X6716786Y-19505976D02*
X6678690Y-19505976D01*
X6659643Y-19515500D01*
X6650119Y-19525024D01*
X6631071Y-19553595D01*
X6621548Y-19591690D01*
X6621548Y-19667881D01*
X6631071Y-19686929D01*
X6640595Y-19696452D01*
X6659643Y-19705976D01*
X6697738Y-19705976D01*
X6716786Y-19696452D01*
X6726309Y-19686929D01*
X6735833Y-19667881D01*
X6735833Y-19620262D01*
X6726309Y-19601214D01*
X6716786Y-19591690D01*
X6697738Y-19582167D01*
X6659643Y-19582167D01*
X6640595Y-19591690D01*
X6631071Y-19601214D01*
X6621548Y-19620262D01*
X6802500Y-19505976D02*
X6926309Y-19505976D01*
X6859643Y-19582167D01*
X6888214Y-19582167D01*
X6907262Y-19591690D01*
X6916786Y-19601214D01*
X6926309Y-19620262D01*
X6926309Y-19667881D01*
X6916786Y-19686929D01*
X6907262Y-19696452D01*
X6888214Y-19705976D01*
X6831071Y-19705976D01*
X6812024Y-19696452D01*
X6802500Y-19686929D01*
X7050119Y-19505976D02*
X7069167Y-19505976D01*
X7088214Y-19515500D01*
X7097738Y-19525024D01*
X7107262Y-19544071D01*
X7116786Y-19582167D01*
X7116786Y-19629786D01*
X7107262Y-19667881D01*
X7097738Y-19686929D01*
X7088214Y-19696452D01*
X7069167Y-19705976D01*
X7050119Y-19705976D01*
X7031071Y-19696452D01*
X7021548Y-19686929D01*
X7012024Y-19667881D01*
X7002500Y-19629786D01*
X7002500Y-19582167D01*
X7012024Y-19544071D01*
X7021548Y-19525024D01*
X7031071Y-19515500D01*
X7050119Y-19505976D01*
X7192976Y-19505976D02*
X7192976Y-19544071D01*
X7269167Y-19505976D02*
X7269167Y-19544071D01*
X7564405Y-19782167D02*
X7554881Y-19772643D01*
X7535833Y-19744071D01*
X7526309Y-19725024D01*
X7516786Y-19696452D01*
X7507262Y-19648833D01*
X7507262Y-19610738D01*
X7516786Y-19563119D01*
X7526309Y-19534548D01*
X7535833Y-19515500D01*
X7554881Y-19486929D01*
X7564405Y-19477405D01*
X7726309Y-19505976D02*
X7688214Y-19505976D01*
X7669167Y-19515500D01*
X7659643Y-19525024D01*
X7640595Y-19553595D01*
X7631071Y-19591690D01*
X7631071Y-19667881D01*
X7640595Y-19686929D01*
X7650119Y-19696452D01*
X7669167Y-19705976D01*
X7707262Y-19705976D01*
X7726309Y-19696452D01*
X7735833Y-19686929D01*
X7745357Y-19667881D01*
X7745357Y-19620262D01*
X7735833Y-19601214D01*
X7726309Y-19591690D01*
X7707262Y-19582167D01*
X7669167Y-19582167D01*
X7650119Y-19591690D01*
X7640595Y-19601214D01*
X7631071Y-19620262D01*
X7983452Y-19705976D02*
X7983452Y-19505976D01*
X8069167Y-19705976D02*
X8069167Y-19601214D01*
X8059643Y-19582167D01*
X8040595Y-19572643D01*
X8012024Y-19572643D01*
X7992976Y-19582167D01*
X7983452Y-19591690D01*
X8192976Y-19705976D02*
X8173928Y-19696452D01*
X8164405Y-19686929D01*
X8154881Y-19667881D01*
X8154881Y-19610738D01*
X8164405Y-19591690D01*
X8173928Y-19582167D01*
X8192976Y-19572643D01*
X8221548Y-19572643D01*
X8240595Y-19582167D01*
X8250119Y-19591690D01*
X8259643Y-19610738D01*
X8259643Y-19667881D01*
X8250119Y-19686929D01*
X8240595Y-19696452D01*
X8221548Y-19705976D01*
X8192976Y-19705976D01*
X8373928Y-19705976D02*
X8354881Y-19696452D01*
X8345357Y-19677405D01*
X8345357Y-19505976D01*
X8526310Y-19696452D02*
X8507262Y-19705976D01*
X8469167Y-19705976D01*
X8450119Y-19696452D01*
X8440595Y-19677405D01*
X8440595Y-19601214D01*
X8450119Y-19582167D01*
X8469167Y-19572643D01*
X8507262Y-19572643D01*
X8526310Y-19582167D01*
X8535833Y-19601214D01*
X8535833Y-19620262D01*
X8440595Y-19639310D01*
X8612024Y-19696452D02*
X8631071Y-19705976D01*
X8669167Y-19705976D01*
X8688214Y-19696452D01*
X8697738Y-19677405D01*
X8697738Y-19667881D01*
X8688214Y-19648833D01*
X8669167Y-19639310D01*
X8640595Y-19639310D01*
X8621548Y-19629786D01*
X8612024Y-19610738D01*
X8612024Y-19601214D01*
X8621548Y-19582167D01*
X8640595Y-19572643D01*
X8669167Y-19572643D01*
X8688214Y-19582167D01*
X8764405Y-19782167D02*
X8773929Y-19772643D01*
X8792976Y-19744071D01*
X8802500Y-19725024D01*
X8812024Y-19696452D01*
X8821548Y-19648833D01*
X8821548Y-19610738D01*
X8812024Y-19563119D01*
X8802500Y-19534548D01*
X8792976Y-19515500D01*
X8773929Y-19486929D01*
X8764405Y-19477405D01*
D25*
X3911000Y-19814020D02*
X3911000Y-19977020D01*
X3829500Y-19895520D02*
X3992500Y-19895520D01*
X3911000Y-19977020D02*
X3992500Y-19895520D01*
X3911000Y-19814020D01*
X3829500Y-19895520D01*
X3911000Y-19977020D01*
D12*
X4354881Y-19985996D02*
X4240595Y-19985996D01*
X4297738Y-19985996D02*
X4297738Y-19785996D01*
X4278690Y-19814568D01*
X4259643Y-19833615D01*
X4240595Y-19843139D01*
X4440595Y-19966949D02*
X4450119Y-19976472D01*
X4440595Y-19985996D01*
X4431071Y-19976472D01*
X4440595Y-19966949D01*
X4440595Y-19985996D01*
X4621548Y-19785996D02*
X4583452Y-19785996D01*
X4564405Y-19795520D01*
X4554881Y-19805044D01*
X4535833Y-19833615D01*
X4526310Y-19871710D01*
X4526310Y-19947901D01*
X4535833Y-19966949D01*
X4545357Y-19976472D01*
X4564405Y-19985996D01*
X4602500Y-19985996D01*
X4621548Y-19976472D01*
X4631071Y-19966949D01*
X4640595Y-19947901D01*
X4640595Y-19900282D01*
X4631071Y-19881234D01*
X4621548Y-19871710D01*
X4602500Y-19862187D01*
X4564405Y-19862187D01*
X4545357Y-19871710D01*
X4535833Y-19881234D01*
X4526310Y-19900282D01*
X4707262Y-19785996D02*
X4831071Y-19785996D01*
X4764405Y-19862187D01*
X4792976Y-19862187D01*
X4812024Y-19871710D01*
X4821548Y-19881234D01*
X4831071Y-19900282D01*
X4831071Y-19947901D01*
X4821548Y-19966949D01*
X4812024Y-19976472D01*
X4792976Y-19985996D01*
X4735833Y-19985996D01*
X4716786Y-19976472D01*
X4707262Y-19966949D01*
X4954881Y-19785996D02*
X4973929Y-19785996D01*
X4992976Y-19795520D01*
X5002500Y-19805044D01*
X5012024Y-19824091D01*
X5021548Y-19862187D01*
X5021548Y-19909806D01*
X5012024Y-19947901D01*
X5002500Y-19966949D01*
X4992976Y-19976472D01*
X4973929Y-19985996D01*
X4954881Y-19985996D01*
X4935833Y-19976472D01*
X4926310Y-19966949D01*
X4916786Y-19947901D01*
X4907262Y-19909806D01*
X4907262Y-19862187D01*
X4916786Y-19824091D01*
X4926310Y-19805044D01*
X4935833Y-19795520D01*
X4954881Y-19785996D01*
X5107262Y-19985996D02*
X5107262Y-19852663D01*
X5107262Y-19871710D02*
X5116786Y-19862187D01*
X5135833Y-19852663D01*
X5164405Y-19852663D01*
X5183452Y-19862187D01*
X5192976Y-19881234D01*
X5192976Y-19985996D01*
X5192976Y-19881234D02*
X5202500Y-19862187D01*
X5221548Y-19852663D01*
X5250119Y-19852663D01*
X5269167Y-19862187D01*
X5278690Y-19881234D01*
X5278690Y-19985996D01*
X5373929Y-19985996D02*
X5373929Y-19852663D01*
X5373929Y-19871710D02*
X5383452Y-19862187D01*
X5402500Y-19852663D01*
X5431071Y-19852663D01*
X5450119Y-19862187D01*
X5459643Y-19881234D01*
X5459643Y-19985996D01*
X5459643Y-19881234D02*
X5469167Y-19862187D01*
X5488214Y-19852663D01*
X5516786Y-19852663D01*
X5535833Y-19862187D01*
X5545357Y-19881234D01*
X5545357Y-19985996D01*
X5935833Y-19776472D02*
X5764405Y-20033615D01*
X6192976Y-19785996D02*
X6212024Y-19785996D01*
X6231071Y-19795520D01*
X6240595Y-19805044D01*
X6250119Y-19824091D01*
X6259643Y-19862187D01*
X6259643Y-19909806D01*
X6250119Y-19947901D01*
X6240595Y-19966949D01*
X6231071Y-19976472D01*
X6212024Y-19985996D01*
X6192976Y-19985996D01*
X6173928Y-19976472D01*
X6164405Y-19966949D01*
X6154881Y-19947901D01*
X6145357Y-19909806D01*
X6145357Y-19862187D01*
X6154881Y-19824091D01*
X6164405Y-19805044D01*
X6173928Y-19795520D01*
X6192976Y-19785996D01*
X6345357Y-19966949D02*
X6354881Y-19976472D01*
X6345357Y-19985996D01*
X6335833Y-19976472D01*
X6345357Y-19966949D01*
X6345357Y-19985996D01*
X6478690Y-19785996D02*
X6497738Y-19785996D01*
X6516786Y-19795520D01*
X6526309Y-19805044D01*
X6535833Y-19824091D01*
X6545357Y-19862187D01*
X6545357Y-19909806D01*
X6535833Y-19947901D01*
X6526309Y-19966949D01*
X6516786Y-19976472D01*
X6497738Y-19985996D01*
X6478690Y-19985996D01*
X6459643Y-19976472D01*
X6450119Y-19966949D01*
X6440595Y-19947901D01*
X6431071Y-19909806D01*
X6431071Y-19862187D01*
X6440595Y-19824091D01*
X6450119Y-19805044D01*
X6459643Y-19795520D01*
X6478690Y-19785996D01*
X6716786Y-19785996D02*
X6678690Y-19785996D01*
X6659643Y-19795520D01*
X6650119Y-19805044D01*
X6631071Y-19833615D01*
X6621548Y-19871710D01*
X6621548Y-19947901D01*
X6631071Y-19966949D01*
X6640595Y-19976472D01*
X6659643Y-19985996D01*
X6697738Y-19985996D01*
X6716786Y-19976472D01*
X6726309Y-19966949D01*
X6735833Y-19947901D01*
X6735833Y-19900282D01*
X6726309Y-19881234D01*
X6716786Y-19871710D01*
X6697738Y-19862187D01*
X6659643Y-19862187D01*
X6640595Y-19871710D01*
X6631071Y-19881234D01*
X6621548Y-19900282D01*
X6907262Y-19852663D02*
X6907262Y-19985996D01*
X6859643Y-19776472D02*
X6812024Y-19919330D01*
X6935833Y-19919330D01*
X7002500Y-19805044D02*
X7012024Y-19795520D01*
X7031071Y-19785996D01*
X7078690Y-19785996D01*
X7097738Y-19795520D01*
X7107262Y-19805044D01*
X7116786Y-19824091D01*
X7116786Y-19843139D01*
X7107262Y-19871710D01*
X6992976Y-19985996D01*
X7116786Y-19985996D01*
X7192976Y-19785996D02*
X7192976Y-19824091D01*
X7269167Y-19785996D02*
X7269167Y-19824091D01*
X7564405Y-20062187D02*
X7554881Y-20052663D01*
X7535833Y-20024091D01*
X7526309Y-20005044D01*
X7516786Y-19976472D01*
X7507262Y-19928853D01*
X7507262Y-19890758D01*
X7516786Y-19843139D01*
X7526309Y-19814568D01*
X7535833Y-19795520D01*
X7554881Y-19766949D01*
X7564405Y-19757425D01*
X7631071Y-19805044D02*
X7640595Y-19795520D01*
X7659643Y-19785996D01*
X7707262Y-19785996D01*
X7726309Y-19795520D01*
X7735833Y-19805044D01*
X7745357Y-19824091D01*
X7745357Y-19843139D01*
X7735833Y-19871710D01*
X7621548Y-19985996D01*
X7745357Y-19985996D01*
X7983452Y-19985996D02*
X7983452Y-19785996D01*
X8069167Y-19985996D02*
X8069167Y-19881234D01*
X8059643Y-19862187D01*
X8040595Y-19852663D01*
X8012024Y-19852663D01*
X7992976Y-19862187D01*
X7983452Y-19871710D01*
X8192976Y-19985996D02*
X8173928Y-19976472D01*
X8164405Y-19966949D01*
X8154881Y-19947901D01*
X8154881Y-19890758D01*
X8164405Y-19871710D01*
X8173928Y-19862187D01*
X8192976Y-19852663D01*
X8221548Y-19852663D01*
X8240595Y-19862187D01*
X8250119Y-19871710D01*
X8259643Y-19890758D01*
X8259643Y-19947901D01*
X8250119Y-19966949D01*
X8240595Y-19976472D01*
X8221548Y-19985996D01*
X8192976Y-19985996D01*
X8373928Y-19985996D02*
X8354881Y-19976472D01*
X8345357Y-19957425D01*
X8345357Y-19785996D01*
X8526310Y-19976472D02*
X8507262Y-19985996D01*
X8469167Y-19985996D01*
X8450119Y-19976472D01*
X8440595Y-19957425D01*
X8440595Y-19881234D01*
X8450119Y-19862187D01*
X8469167Y-19852663D01*
X8507262Y-19852663D01*
X8526310Y-19862187D01*
X8535833Y-19881234D01*
X8535833Y-19900282D01*
X8440595Y-19919330D01*
X8612024Y-19976472D02*
X8631071Y-19985996D01*
X8669167Y-19985996D01*
X8688214Y-19976472D01*
X8697738Y-19957425D01*
X8697738Y-19947901D01*
X8688214Y-19928853D01*
X8669167Y-19919330D01*
X8640595Y-19919330D01*
X8621548Y-19909806D01*
X8612024Y-19890758D01*
X8612024Y-19881234D01*
X8621548Y-19862187D01*
X8640595Y-19852663D01*
X8669167Y-19852663D01*
X8688214Y-19862187D01*
X8764405Y-20062187D02*
X8773929Y-20052663D01*
X8792976Y-20024091D01*
X8802500Y-20005044D01*
X8812024Y-19976472D01*
X8821548Y-19928853D01*
X8821548Y-19890758D01*
X8812024Y-19843139D01*
X8802500Y-19814568D01*
X8792976Y-19795520D01*
X8773929Y-19766949D01*
X8764405Y-19757425D01*
X3892500Y-20278520D02*
X3992500Y-20178520D01*
X3892500Y-20078520D01*
X3792500Y-20178520D01*
X3892500Y-20278520D01*
X3963211Y-20249231D02*
X3963211Y-20107809D01*
X3821789Y-20107809D01*
X3821789Y-20249231D01*
X3963211Y-20249231D01*
X4240595Y-20088044D02*
X4250119Y-20078520D01*
X4269167Y-20068996D01*
X4316786Y-20068996D01*
X4335833Y-20078520D01*
X4345357Y-20088044D01*
X4354881Y-20107091D01*
X4354881Y-20126139D01*
X4345357Y-20154710D01*
X4231071Y-20268996D01*
X4354881Y-20268996D01*
X4440595Y-20249949D02*
X4450119Y-20259472D01*
X4440595Y-20268996D01*
X4431071Y-20259472D01*
X4440595Y-20249949D01*
X4440595Y-20268996D01*
X4516786Y-20068996D02*
X4640595Y-20068996D01*
X4573929Y-20145187D01*
X4602500Y-20145187D01*
X4621548Y-20154710D01*
X4631071Y-20164234D01*
X4640595Y-20183282D01*
X4640595Y-20230901D01*
X4631071Y-20249949D01*
X4621548Y-20259472D01*
X4602500Y-20268996D01*
X4545357Y-20268996D01*
X4526310Y-20259472D01*
X4516786Y-20249949D01*
X4764405Y-20068996D02*
X4783452Y-20068996D01*
X4802500Y-20078520D01*
X4812024Y-20088044D01*
X4821548Y-20107091D01*
X4831071Y-20145187D01*
X4831071Y-20192806D01*
X4821548Y-20230901D01*
X4812024Y-20249949D01*
X4802500Y-20259472D01*
X4783452Y-20268996D01*
X4764405Y-20268996D01*
X4745357Y-20259472D01*
X4735833Y-20249949D01*
X4726310Y-20230901D01*
X4716786Y-20192806D01*
X4716786Y-20145187D01*
X4726310Y-20107091D01*
X4735833Y-20088044D01*
X4745357Y-20078520D01*
X4764405Y-20068996D01*
X4954881Y-20068996D02*
X4973929Y-20068996D01*
X4992976Y-20078520D01*
X5002500Y-20088044D01*
X5012024Y-20107091D01*
X5021548Y-20145187D01*
X5021548Y-20192806D01*
X5012024Y-20230901D01*
X5002500Y-20249949D01*
X4992976Y-20259472D01*
X4973929Y-20268996D01*
X4954881Y-20268996D01*
X4935833Y-20259472D01*
X4926310Y-20249949D01*
X4916786Y-20230901D01*
X4907262Y-20192806D01*
X4907262Y-20145187D01*
X4916786Y-20107091D01*
X4926310Y-20088044D01*
X4935833Y-20078520D01*
X4954881Y-20068996D01*
X5107262Y-20268996D02*
X5107262Y-20135663D01*
X5107262Y-20154710D02*
X5116786Y-20145187D01*
X5135833Y-20135663D01*
X5164405Y-20135663D01*
X5183452Y-20145187D01*
X5192976Y-20164234D01*
X5192976Y-20268996D01*
X5192976Y-20164234D02*
X5202500Y-20145187D01*
X5221548Y-20135663D01*
X5250119Y-20135663D01*
X5269167Y-20145187D01*
X5278690Y-20164234D01*
X5278690Y-20268996D01*
X5373929Y-20268996D02*
X5373929Y-20135663D01*
X5373929Y-20154710D02*
X5383452Y-20145187D01*
X5402500Y-20135663D01*
X5431071Y-20135663D01*
X5450119Y-20145187D01*
X5459643Y-20164234D01*
X5459643Y-20268996D01*
X5459643Y-20164234D02*
X5469167Y-20145187D01*
X5488214Y-20135663D01*
X5516786Y-20135663D01*
X5535833Y-20145187D01*
X5545357Y-20164234D01*
X5545357Y-20268996D01*
X5935833Y-20059472D02*
X5764405Y-20316615D01*
X6192976Y-20068996D02*
X6212024Y-20068996D01*
X6231071Y-20078520D01*
X6240595Y-20088044D01*
X6250119Y-20107091D01*
X6259643Y-20145187D01*
X6259643Y-20192806D01*
X6250119Y-20230901D01*
X6240595Y-20249949D01*
X6231071Y-20259472D01*
X6212024Y-20268996D01*
X6192976Y-20268996D01*
X6173928Y-20259472D01*
X6164405Y-20249949D01*
X6154881Y-20230901D01*
X6145357Y-20192806D01*
X6145357Y-20145187D01*
X6154881Y-20107091D01*
X6164405Y-20088044D01*
X6173928Y-20078520D01*
X6192976Y-20068996D01*
X6345357Y-20249949D02*
X6354881Y-20259472D01*
X6345357Y-20268996D01*
X6335833Y-20259472D01*
X6345357Y-20249949D01*
X6345357Y-20268996D01*
X6478690Y-20068996D02*
X6497738Y-20068996D01*
X6516786Y-20078520D01*
X6526309Y-20088044D01*
X6535833Y-20107091D01*
X6545357Y-20145187D01*
X6545357Y-20192806D01*
X6535833Y-20230901D01*
X6526309Y-20249949D01*
X6516786Y-20259472D01*
X6497738Y-20268996D01*
X6478690Y-20268996D01*
X6459643Y-20259472D01*
X6450119Y-20249949D01*
X6440595Y-20230901D01*
X6431071Y-20192806D01*
X6431071Y-20145187D01*
X6440595Y-20107091D01*
X6450119Y-20088044D01*
X6459643Y-20078520D01*
X6478690Y-20068996D01*
X6640595Y-20268996D02*
X6678690Y-20268996D01*
X6697738Y-20259472D01*
X6707262Y-20249949D01*
X6726309Y-20221377D01*
X6735833Y-20183282D01*
X6735833Y-20107091D01*
X6726309Y-20088044D01*
X6716786Y-20078520D01*
X6697738Y-20068996D01*
X6659643Y-20068996D01*
X6640595Y-20078520D01*
X6631071Y-20088044D01*
X6621548Y-20107091D01*
X6621548Y-20154710D01*
X6631071Y-20173758D01*
X6640595Y-20183282D01*
X6659643Y-20192806D01*
X6697738Y-20192806D01*
X6716786Y-20183282D01*
X6726309Y-20173758D01*
X6735833Y-20154710D01*
X6859643Y-20068996D02*
X6878690Y-20068996D01*
X6897738Y-20078520D01*
X6907262Y-20088044D01*
X6916786Y-20107091D01*
X6926309Y-20145187D01*
X6926309Y-20192806D01*
X6916786Y-20230901D01*
X6907262Y-20249949D01*
X6897738Y-20259472D01*
X6878690Y-20268996D01*
X6859643Y-20268996D01*
X6840595Y-20259472D01*
X6831071Y-20249949D01*
X6821548Y-20230901D01*
X6812024Y-20192806D01*
X6812024Y-20145187D01*
X6821548Y-20107091D01*
X6831071Y-20088044D01*
X6840595Y-20078520D01*
X6859643Y-20068996D01*
X7097738Y-20068996D02*
X7059643Y-20068996D01*
X7040595Y-20078520D01*
X7031071Y-20088044D01*
X7012024Y-20116615D01*
X7002500Y-20154710D01*
X7002500Y-20230901D01*
X7012024Y-20249949D01*
X7021548Y-20259472D01*
X7040595Y-20268996D01*
X7078690Y-20268996D01*
X7097738Y-20259472D01*
X7107262Y-20249949D01*
X7116786Y-20230901D01*
X7116786Y-20183282D01*
X7107262Y-20164234D01*
X7097738Y-20154710D01*
X7078690Y-20145187D01*
X7040595Y-20145187D01*
X7021548Y-20154710D01*
X7012024Y-20164234D01*
X7002500Y-20183282D01*
X7192976Y-20068996D02*
X7192976Y-20107091D01*
X7269167Y-20068996D02*
X7269167Y-20107091D01*
X7564405Y-20345187D02*
X7554881Y-20335663D01*
X7535833Y-20307091D01*
X7526309Y-20288044D01*
X7516786Y-20259472D01*
X7507262Y-20211853D01*
X7507262Y-20173758D01*
X7516786Y-20126139D01*
X7526309Y-20097568D01*
X7535833Y-20078520D01*
X7554881Y-20049949D01*
X7564405Y-20040425D01*
X7631071Y-20088044D02*
X7640595Y-20078520D01*
X7659643Y-20068996D01*
X7707262Y-20068996D01*
X7726309Y-20078520D01*
X7735833Y-20088044D01*
X7745357Y-20107091D01*
X7745357Y-20126139D01*
X7735833Y-20154710D01*
X7621548Y-20268996D01*
X7745357Y-20268996D01*
X7983452Y-20268996D02*
X7983452Y-20068996D01*
X8069167Y-20268996D02*
X8069167Y-20164234D01*
X8059643Y-20145187D01*
X8040595Y-20135663D01*
X8012024Y-20135663D01*
X7992976Y-20145187D01*
X7983452Y-20154710D01*
X8192976Y-20268996D02*
X8173928Y-20259472D01*
X8164405Y-20249949D01*
X8154881Y-20230901D01*
X8154881Y-20173758D01*
X8164405Y-20154710D01*
X8173928Y-20145187D01*
X8192976Y-20135663D01*
X8221548Y-20135663D01*
X8240595Y-20145187D01*
X8250119Y-20154710D01*
X8259643Y-20173758D01*
X8259643Y-20230901D01*
X8250119Y-20249949D01*
X8240595Y-20259472D01*
X8221548Y-20268996D01*
X8192976Y-20268996D01*
X8373928Y-20268996D02*
X8354881Y-20259472D01*
X8345357Y-20240425D01*
X8345357Y-20068996D01*
X8526310Y-20259472D02*
X8507262Y-20268996D01*
X8469167Y-20268996D01*
X8450119Y-20259472D01*
X8440595Y-20240425D01*
X8440595Y-20164234D01*
X8450119Y-20145187D01*
X8469167Y-20135663D01*
X8507262Y-20135663D01*
X8526310Y-20145187D01*
X8535833Y-20164234D01*
X8535833Y-20183282D01*
X8440595Y-20202330D01*
X8612024Y-20259472D02*
X8631071Y-20268996D01*
X8669167Y-20268996D01*
X8688214Y-20259472D01*
X8697738Y-20240425D01*
X8697738Y-20230901D01*
X8688214Y-20211853D01*
X8669167Y-20202330D01*
X8640595Y-20202330D01*
X8621548Y-20192806D01*
X8612024Y-20173758D01*
X8612024Y-20164234D01*
X8621548Y-20145187D01*
X8640595Y-20135663D01*
X8669167Y-20135663D01*
X8688214Y-20145187D01*
X8764405Y-20345187D02*
X8773929Y-20335663D01*
X8792976Y-20307091D01*
X8802500Y-20288044D01*
X8812024Y-20259472D01*
X8821548Y-20211853D01*
X8821548Y-20173758D01*
X8812024Y-20126139D01*
X8802500Y-20097568D01*
X8792976Y-20078520D01*
X8773929Y-20049949D01*
X8764405Y-20040425D01*
X3792500Y-20398520D02*
X3992500Y-20598520D01*
X3992500Y-20398520D02*
X3792500Y-20598520D01*
X3892500Y-20398520D02*
X3892500Y-20598520D01*
X3792500Y-20498520D02*
X3992500Y-20498520D01*
X3992500Y-20498520D02*
G75*
G03*
X3992500Y-20498520I-100000J0D01*
G01*
X4335833Y-20455663D02*
X4335833Y-20588996D01*
X4288214Y-20379472D02*
X4240595Y-20522330D01*
X4364405Y-20522330D01*
X4440595Y-20569949D02*
X4450119Y-20579472D01*
X4440595Y-20588996D01*
X4431071Y-20579472D01*
X4440595Y-20569949D01*
X4440595Y-20588996D01*
X4573929Y-20388996D02*
X4592976Y-20388996D01*
X4612024Y-20398520D01*
X4621548Y-20408044D01*
X4631071Y-20427091D01*
X4640595Y-20465187D01*
X4640595Y-20512806D01*
X4631071Y-20550901D01*
X4621548Y-20569949D01*
X4612024Y-20579472D01*
X4592976Y-20588996D01*
X4573929Y-20588996D01*
X4554881Y-20579472D01*
X4545357Y-20569949D01*
X4535833Y-20550901D01*
X4526310Y-20512806D01*
X4526310Y-20465187D01*
X4535833Y-20427091D01*
X4545357Y-20408044D01*
X4554881Y-20398520D01*
X4573929Y-20388996D01*
X4764405Y-20388996D02*
X4783452Y-20388996D01*
X4802500Y-20398520D01*
X4812024Y-20408044D01*
X4821548Y-20427091D01*
X4831071Y-20465187D01*
X4831071Y-20512806D01*
X4821548Y-20550901D01*
X4812024Y-20569949D01*
X4802500Y-20579472D01*
X4783452Y-20588996D01*
X4764405Y-20588996D01*
X4745357Y-20579472D01*
X4735833Y-20569949D01*
X4726310Y-20550901D01*
X4716786Y-20512806D01*
X4716786Y-20465187D01*
X4726310Y-20427091D01*
X4735833Y-20408044D01*
X4745357Y-20398520D01*
X4764405Y-20388996D01*
X4954881Y-20388996D02*
X4973929Y-20388996D01*
X4992976Y-20398520D01*
X5002500Y-20408044D01*
X5012024Y-20427091D01*
X5021548Y-20465187D01*
X5021548Y-20512806D01*
X5012024Y-20550901D01*
X5002500Y-20569949D01*
X4992976Y-20579472D01*
X4973929Y-20588996D01*
X4954881Y-20588996D01*
X4935833Y-20579472D01*
X4926310Y-20569949D01*
X4916786Y-20550901D01*
X4907262Y-20512806D01*
X4907262Y-20465187D01*
X4916786Y-20427091D01*
X4926310Y-20408044D01*
X4935833Y-20398520D01*
X4954881Y-20388996D01*
X5107262Y-20588996D02*
X5107262Y-20455663D01*
X5107262Y-20474710D02*
X5116786Y-20465187D01*
X5135833Y-20455663D01*
X5164405Y-20455663D01*
X5183452Y-20465187D01*
X5192976Y-20484234D01*
X5192976Y-20588996D01*
X5192976Y-20484234D02*
X5202500Y-20465187D01*
X5221548Y-20455663D01*
X5250119Y-20455663D01*
X5269167Y-20465187D01*
X5278690Y-20484234D01*
X5278690Y-20588996D01*
X5373929Y-20588996D02*
X5373929Y-20455663D01*
X5373929Y-20474710D02*
X5383452Y-20465187D01*
X5402500Y-20455663D01*
X5431071Y-20455663D01*
X5450119Y-20465187D01*
X5459643Y-20484234D01*
X5459643Y-20588996D01*
X5459643Y-20484234D02*
X5469167Y-20465187D01*
X5488214Y-20455663D01*
X5516786Y-20455663D01*
X5535833Y-20465187D01*
X5545357Y-20484234D01*
X5545357Y-20588996D01*
X5935833Y-20379472D02*
X5764405Y-20636615D01*
X6192976Y-20388996D02*
X6212024Y-20388996D01*
X6231071Y-20398520D01*
X6240595Y-20408044D01*
X6250119Y-20427091D01*
X6259643Y-20465187D01*
X6259643Y-20512806D01*
X6250119Y-20550901D01*
X6240595Y-20569949D01*
X6231071Y-20579472D01*
X6212024Y-20588996D01*
X6192976Y-20588996D01*
X6173928Y-20579472D01*
X6164405Y-20569949D01*
X6154881Y-20550901D01*
X6145357Y-20512806D01*
X6145357Y-20465187D01*
X6154881Y-20427091D01*
X6164405Y-20408044D01*
X6173928Y-20398520D01*
X6192976Y-20388996D01*
X6345357Y-20569949D02*
X6354881Y-20579472D01*
X6345357Y-20588996D01*
X6335833Y-20579472D01*
X6345357Y-20569949D01*
X6345357Y-20588996D01*
X6545357Y-20588996D02*
X6431071Y-20588996D01*
X6488214Y-20588996D02*
X6488214Y-20388996D01*
X6469167Y-20417568D01*
X6450119Y-20436615D01*
X6431071Y-20446139D01*
X6726309Y-20388996D02*
X6631071Y-20388996D01*
X6621548Y-20484234D01*
X6631071Y-20474710D01*
X6650119Y-20465187D01*
X6697738Y-20465187D01*
X6716786Y-20474710D01*
X6726309Y-20484234D01*
X6735833Y-20503282D01*
X6735833Y-20550901D01*
X6726309Y-20569949D01*
X6716786Y-20579472D01*
X6697738Y-20588996D01*
X6650119Y-20588996D01*
X6631071Y-20579472D01*
X6621548Y-20569949D01*
X6802500Y-20388996D02*
X6935833Y-20388996D01*
X6850119Y-20588996D01*
X7107262Y-20388996D02*
X7012024Y-20388996D01*
X7002500Y-20484234D01*
X7012024Y-20474710D01*
X7031071Y-20465187D01*
X7078690Y-20465187D01*
X7097738Y-20474710D01*
X7107262Y-20484234D01*
X7116786Y-20503282D01*
X7116786Y-20550901D01*
X7107262Y-20569949D01*
X7097738Y-20579472D01*
X7078690Y-20588996D01*
X7031071Y-20588996D01*
X7012024Y-20579472D01*
X7002500Y-20569949D01*
X7192976Y-20388996D02*
X7192976Y-20427091D01*
X7269167Y-20388996D02*
X7269167Y-20427091D01*
X7564405Y-20665187D02*
X7554881Y-20655663D01*
X7535833Y-20627091D01*
X7526309Y-20608044D01*
X7516786Y-20579472D01*
X7507262Y-20531853D01*
X7507262Y-20493758D01*
X7516786Y-20446139D01*
X7526309Y-20417568D01*
X7535833Y-20398520D01*
X7554881Y-20369949D01*
X7564405Y-20360425D01*
X7631071Y-20408044D02*
X7640595Y-20398520D01*
X7659643Y-20388996D01*
X7707262Y-20388996D01*
X7726309Y-20398520D01*
X7735833Y-20408044D01*
X7745357Y-20427091D01*
X7745357Y-20446139D01*
X7735833Y-20474710D01*
X7621548Y-20588996D01*
X7745357Y-20588996D01*
X7983452Y-20588996D02*
X7983452Y-20388996D01*
X8069167Y-20588996D02*
X8069167Y-20484234D01*
X8059643Y-20465187D01*
X8040595Y-20455663D01*
X8012024Y-20455663D01*
X7992976Y-20465187D01*
X7983452Y-20474710D01*
X8192976Y-20588996D02*
X8173928Y-20579472D01*
X8164405Y-20569949D01*
X8154881Y-20550901D01*
X8154881Y-20493758D01*
X8164405Y-20474710D01*
X8173928Y-20465187D01*
X8192976Y-20455663D01*
X8221548Y-20455663D01*
X8240595Y-20465187D01*
X8250119Y-20474710D01*
X8259643Y-20493758D01*
X8259643Y-20550901D01*
X8250119Y-20569949D01*
X8240595Y-20579472D01*
X8221548Y-20588996D01*
X8192976Y-20588996D01*
X8373928Y-20588996D02*
X8354881Y-20579472D01*
X8345357Y-20560425D01*
X8345357Y-20388996D01*
X8526310Y-20579472D02*
X8507262Y-20588996D01*
X8469167Y-20588996D01*
X8450119Y-20579472D01*
X8440595Y-20560425D01*
X8440595Y-20484234D01*
X8450119Y-20465187D01*
X8469167Y-20455663D01*
X8507262Y-20455663D01*
X8526310Y-20465187D01*
X8535833Y-20484234D01*
X8535833Y-20503282D01*
X8440595Y-20522330D01*
X8612024Y-20579472D02*
X8631071Y-20588996D01*
X8669167Y-20588996D01*
X8688214Y-20579472D01*
X8697738Y-20560425D01*
X8697738Y-20550901D01*
X8688214Y-20531853D01*
X8669167Y-20522330D01*
X8640595Y-20522330D01*
X8621548Y-20512806D01*
X8612024Y-20493758D01*
X8612024Y-20484234D01*
X8621548Y-20465187D01*
X8640595Y-20455663D01*
X8669167Y-20455663D01*
X8688214Y-20465187D01*
X8764405Y-20665187D02*
X8773929Y-20655663D01*
X8792976Y-20627091D01*
X8802500Y-20608044D01*
X8812024Y-20579472D01*
X8821548Y-20531853D01*
X8821548Y-20493758D01*
X8812024Y-20446139D01*
X8802500Y-20417568D01*
X8792976Y-20398520D01*
X8773929Y-20369949D01*
X8764405Y-20360425D01*
M02*
