%TF.GenerationSoftware,KiCad,Pcbnew,5.99.0-unknown-47cb7f53fd~143~ubuntu20.04.1*%
%TF.CreationDate,2021-11-23T21:30:27-08:00*%
%TF.ProjectId,acorn-motherboard,61636f72-6e2d-46d6-9f74-686572626f61,rev?*%
%TF.SameCoordinates,Original*%
%TF.FileFunction,Paste,Top*%
%TF.FilePolarity,Positive*%
%FSLAX46Y46*%
G04 Gerber Fmt 4.6, Leading zero omitted, Abs format (unit mm)*
G04 Created by KiCad (PCBNEW 5.99.0-unknown-47cb7f53fd~143~ubuntu20.04.1) date 2021-11-23 21:30:27*
%MOMM*%
%LPD*%
G01*
G04 APERTURE LIST*
G04 Aperture macros list*
%AMRoundRect*
0 Rectangle with rounded corners*
0 $1 Rounding radius*
0 $2 $3 $4 $5 $6 $7 $8 $9 X,Y pos of 4 corners*
0 Add a 4 corners polygon primitive as box body*
4,1,4,$2,$3,$4,$5,$6,$7,$8,$9,$2,$3,0*
0 Add four circle primitives for the rounded corners*
1,1,$1+$1,$2,$3*
1,1,$1+$1,$4,$5*
1,1,$1+$1,$6,$7*
1,1,$1+$1,$8,$9*
0 Add four rect primitives between the rounded corners*
20,1,$1+$1,$2,$3,$4,$5,0*
20,1,$1+$1,$4,$5,$6,$7,0*
20,1,$1+$1,$6,$7,$8,$9,0*
20,1,$1+$1,$8,$9,$2,$3,0*%
G04 Aperture macros list end*
%ADD10R,1.600000X3.900000*%
%ADD11R,1.200000X1.200000*%
%ADD12R,1.500000X1.600000*%
%ADD13RoundRect,0.250000X0.625000X-0.375000X0.625000X0.375000X-0.625000X0.375000X-0.625000X-0.375000X0*%
%ADD14RoundRect,0.243750X-0.456250X0.243750X-0.456250X-0.243750X0.456250X-0.243750X0.456250X0.243750X0*%
%ADD15R,0.200000X0.700000*%
%ADD16RoundRect,0.243750X0.456250X-0.243750X0.456250X0.243750X-0.456250X0.243750X-0.456250X-0.243750X0*%
%ADD17R,1.400000X1.300000*%
%ADD18R,2.500000X1.800000*%
%ADD19RoundRect,0.243750X0.243750X0.456250X-0.243750X0.456250X-0.243750X-0.456250X0.243750X-0.456250X0*%
%ADD20R,0.900000X0.950000*%
%ADD21RoundRect,0.243750X-0.243750X-0.456250X0.243750X-0.456250X0.243750X0.456250X-0.243750X0.456250X0*%
%ADD22RoundRect,0.250000X-0.625000X0.375000X-0.625000X-0.375000X0.625000X-0.375000X0.625000X0.375000X0*%
%ADD23R,3.400000X1.800000*%
%ADD24R,1.300000X0.600000*%
%ADD25R,0.558800X1.320800*%
%ADD26R,2.200000X1.600000*%
%ADD27R,1.550000X1.300000*%
%ADD28RoundRect,0.100000X-0.225000X-0.100000X0.225000X-0.100000X0.225000X0.100000X-0.225000X0.100000X0*%
%ADD29RoundRect,0.100000X0.225000X0.100000X-0.225000X0.100000X-0.225000X-0.100000X0.225000X-0.100000X0*%
%ADD30R,1.358900X0.279400*%
%ADD31RoundRect,0.250000X-1.750000X-1.000000X1.750000X-1.000000X1.750000X1.000000X-1.750000X1.000000X0*%
%ADD32R,0.600000X1.300000*%
%ADD33RoundRect,0.250000X-0.475000X0.250000X-0.475000X-0.250000X0.475000X-0.250000X0.475000X0.250000X0*%
%ADD34R,1.500000X1.000000*%
%ADD35RoundRect,0.250000X-0.450000X0.262500X-0.450000X-0.262500X0.450000X-0.262500X0.450000X0.262500X0*%
%ADD36R,1.250000X1.450000*%
%ADD37RoundRect,0.250000X0.250000X0.475000X-0.250000X0.475000X-0.250000X-0.475000X0.250000X-0.475000X0*%
%ADD38R,0.558800X1.981200*%
%ADD39RoundRect,0.250000X1.750000X1.000000X-1.750000X1.000000X-1.750000X-1.000000X1.750000X-1.000000X0*%
%ADD40RoundRect,0.250000X0.450000X-0.262500X0.450000X0.262500X-0.450000X0.262500X-0.450000X-0.262500X0*%
%ADD41RoundRect,0.250000X-0.262500X-0.450000X0.262500X-0.450000X0.262500X0.450000X-0.262500X0.450000X0*%
G04 APERTURE END LIST*
D10*
X118450000Y-129000000D03*
X115550000Y-129000000D03*
D11*
X117700000Y-122500000D03*
D12*
X120950000Y-123500000D03*
D11*
X117700000Y-124500000D03*
D13*
X102200000Y-102200000D03*
X102200000Y-99400000D03*
D14*
X98321061Y-100520225D03*
X98321061Y-102395225D03*
D15*
X155821061Y-87450000D03*
X155821061Y-84370000D03*
X156221061Y-87450000D03*
X156221061Y-84370000D03*
X156621061Y-87450000D03*
X156621061Y-84370000D03*
X157021061Y-87450000D03*
X157021061Y-84370000D03*
X157421061Y-87450000D03*
X157421061Y-84370000D03*
X157821061Y-87450000D03*
X157821061Y-84370000D03*
X158221061Y-87450000D03*
X158221061Y-84370000D03*
X158621061Y-87450000D03*
X158621061Y-84370000D03*
X159021061Y-87450000D03*
X159021061Y-84370000D03*
X159421061Y-87450000D03*
X159421061Y-84370000D03*
X159821061Y-87450000D03*
X159821061Y-84370000D03*
X160221061Y-87450000D03*
X160221061Y-84370000D03*
X160621061Y-87450000D03*
X160621061Y-84370000D03*
X161021061Y-87450000D03*
X161021061Y-84370000D03*
X161421061Y-87450000D03*
X161421061Y-84370000D03*
X161821061Y-87450000D03*
X161821061Y-84370000D03*
X162221061Y-87450000D03*
X162221061Y-84370000D03*
X162621061Y-87450000D03*
X162621061Y-84370000D03*
X163021061Y-87450000D03*
X163021061Y-84370000D03*
X163421061Y-87450000D03*
X163421061Y-84370000D03*
X163821061Y-87450000D03*
X163821061Y-84370000D03*
X164221061Y-87450000D03*
X164221061Y-84370000D03*
X164621061Y-87450000D03*
X164621061Y-84370000D03*
X165021061Y-87450000D03*
X165021061Y-84370000D03*
X165421061Y-87450000D03*
X165421061Y-84370000D03*
X165821061Y-87450000D03*
X165821061Y-84370000D03*
X166221061Y-87450000D03*
X166221061Y-84370000D03*
X166621061Y-87450000D03*
X166621061Y-84370000D03*
X167021061Y-87450000D03*
X167021061Y-84370000D03*
X167421061Y-87450000D03*
X167421061Y-84370000D03*
X167821061Y-87450000D03*
X167821061Y-84370000D03*
X168221061Y-87450000D03*
X168221061Y-84370000D03*
X168621061Y-87450000D03*
X168621061Y-84370000D03*
X169021061Y-87450000D03*
X169021061Y-84370000D03*
X169421061Y-87450000D03*
X169421061Y-84370000D03*
X169821061Y-87450000D03*
X169821061Y-84370000D03*
X170221061Y-87450000D03*
X170221061Y-84370000D03*
X170621061Y-87450000D03*
X170621061Y-84370000D03*
X171021061Y-87450000D03*
X171021061Y-84370000D03*
X171421061Y-87450000D03*
X171421061Y-84370000D03*
X171821061Y-87450000D03*
X171821061Y-84370000D03*
X172221061Y-87450000D03*
X172221061Y-84370000D03*
X172621061Y-87450000D03*
X172621061Y-84370000D03*
X173021061Y-87450000D03*
X173021061Y-84370000D03*
X173421061Y-87450000D03*
X173421061Y-84370000D03*
X173821061Y-87450000D03*
X173821061Y-84370000D03*
X174221061Y-87450000D03*
X174221061Y-84370000D03*
X174621061Y-87450000D03*
X174621061Y-84370000D03*
X175021061Y-87450000D03*
X175021061Y-84370000D03*
X175421061Y-87450000D03*
X175421061Y-84370000D03*
X155821061Y-53530000D03*
X155821061Y-50450000D03*
X156221061Y-53530000D03*
X156221061Y-50450000D03*
X156621061Y-53530000D03*
X156621061Y-50450000D03*
X157021061Y-53530000D03*
X157021061Y-50450000D03*
X157421061Y-53530000D03*
X157421061Y-50450000D03*
X157821061Y-53530000D03*
X157821061Y-50450000D03*
X158221061Y-53530000D03*
X158221061Y-50450000D03*
X158621061Y-53530000D03*
X158621061Y-50450000D03*
X159021061Y-53530000D03*
X159021061Y-50450000D03*
X159421061Y-53530000D03*
X159421061Y-50450000D03*
X159821061Y-53530000D03*
X159821061Y-50450000D03*
X160221061Y-53530000D03*
X160221061Y-50450000D03*
X160621061Y-53530000D03*
X160621061Y-50450000D03*
X161021061Y-53530000D03*
X161021061Y-50450000D03*
X161421061Y-53530000D03*
X161421061Y-50450000D03*
X161821061Y-53530000D03*
X161821061Y-50450000D03*
X162221061Y-53530000D03*
X162221061Y-50450000D03*
X162621061Y-53530000D03*
X162621061Y-50450000D03*
X163021061Y-53530000D03*
X163021061Y-50450000D03*
X163421061Y-53530000D03*
X163421061Y-50450000D03*
X163821061Y-53530000D03*
X163821061Y-50450000D03*
X164221061Y-53530000D03*
X164221061Y-50450000D03*
X164621061Y-53530000D03*
X164621061Y-50450000D03*
X165021061Y-53530000D03*
X165021061Y-50450000D03*
X165421061Y-53530000D03*
X165421061Y-50450000D03*
X165821061Y-53530000D03*
X165821061Y-50450000D03*
X166221061Y-53530000D03*
X166221061Y-50450000D03*
X166621061Y-53530000D03*
X166621061Y-50450000D03*
X167021061Y-53530000D03*
X167021061Y-50450000D03*
X167421061Y-53530000D03*
X167421061Y-50450000D03*
X167821061Y-53530000D03*
X167821061Y-50450000D03*
X168221061Y-53530000D03*
X168221061Y-50450000D03*
X168621061Y-53530000D03*
X168621061Y-50450000D03*
X169021061Y-53530000D03*
X169021061Y-50450000D03*
X169421061Y-53530000D03*
X169421061Y-50450000D03*
X169821061Y-53530000D03*
X169821061Y-50450000D03*
X170221061Y-53530000D03*
X170221061Y-50450000D03*
X170621061Y-53530000D03*
X170621061Y-50450000D03*
X171021061Y-53530000D03*
X171021061Y-50450000D03*
X171421061Y-53530000D03*
X171421061Y-50450000D03*
X171821061Y-53530000D03*
X171821061Y-50450000D03*
X172221061Y-53530000D03*
X172221061Y-50450000D03*
X172621061Y-53530000D03*
X172621061Y-50450000D03*
X173021061Y-53530000D03*
X173021061Y-50450000D03*
X173421061Y-53530000D03*
X173421061Y-50450000D03*
X173821061Y-53530000D03*
X173821061Y-50450000D03*
X174221061Y-53530000D03*
X174221061Y-50450000D03*
X174621061Y-53530000D03*
X174621061Y-50450000D03*
X175021061Y-53530000D03*
X175021061Y-50450000D03*
X175421061Y-53530000D03*
X175421061Y-50450000D03*
D16*
X107571061Y-46637500D03*
X107571061Y-44762500D03*
D17*
X104971061Y-46450000D03*
X104971061Y-43550000D03*
D18*
X117000000Y-51242275D03*
X113000000Y-51242275D03*
D14*
X102571061Y-44062500D03*
X102571061Y-45937500D03*
D19*
X122787500Y-45042275D03*
X120912500Y-45042275D03*
D20*
X102546061Y-48950000D03*
X105696061Y-48950000D03*
X106146061Y-41200000D03*
X102996061Y-41200000D03*
D21*
X102933561Y-51450000D03*
X104808561Y-51450000D03*
D22*
X168200000Y-41992275D03*
X168200000Y-44792275D03*
D14*
X166800000Y-61954775D03*
X166800000Y-63829775D03*
D21*
X126833561Y-77250000D03*
X128708561Y-77250000D03*
X137062500Y-76750000D03*
X138937500Y-76750000D03*
D23*
X171000000Y-67000000D03*
D24*
X122400000Y-42992275D03*
X122400000Y-41092275D03*
X120300000Y-42042275D03*
D25*
X121710861Y-61755400D03*
X120771061Y-61755400D03*
X119831261Y-61755400D03*
X119831261Y-64244600D03*
X120771061Y-64244600D03*
X121710861Y-64244600D03*
X121710861Y-68755400D03*
X120771061Y-68755400D03*
X119831261Y-68755400D03*
X119831261Y-71244600D03*
X120771061Y-71244600D03*
X121710861Y-71244600D03*
D14*
X100750000Y-79062500D03*
X100750000Y-80937500D03*
D22*
X177400000Y-41992275D03*
X177400000Y-44792275D03*
D26*
X97300000Y-83250000D03*
X93200000Y-83250000D03*
D19*
X173737500Y-57792275D03*
X171862500Y-57792275D03*
X101937500Y-83250000D03*
X100062500Y-83250000D03*
D21*
X92562500Y-86250000D03*
X94437500Y-86250000D03*
D14*
X96750000Y-78812500D03*
X96750000Y-80687500D03*
D27*
X94475000Y-112000000D03*
X86525000Y-112000000D03*
X94475000Y-107500000D03*
X86525000Y-107500000D03*
D28*
X98621061Y-105307725D03*
X98621061Y-105957725D03*
X98621061Y-106607725D03*
X100521061Y-106607725D03*
X100521061Y-105307725D03*
D29*
X173735561Y-61556500D03*
X173735561Y-60906500D03*
X173735561Y-60256500D03*
X171835561Y-60256500D03*
X171835561Y-61556500D03*
D30*
X107450938Y-81252513D03*
X107450938Y-80752511D03*
X107450938Y-80252512D03*
X107450938Y-79752513D03*
X107450938Y-79252511D03*
X103044038Y-79252511D03*
X103044038Y-79752513D03*
X103044038Y-80252512D03*
X103044038Y-80752511D03*
X103044038Y-81252513D03*
D31*
X111117500Y-44700000D03*
X117217500Y-44700000D03*
D21*
X169812500Y-127750000D03*
X171687500Y-127750000D03*
D32*
X157162061Y-129686725D03*
X155262061Y-129686725D03*
X156212061Y-131786725D03*
X157162061Y-125368725D03*
X155262061Y-125368725D03*
X156212061Y-127468725D03*
D16*
X159768061Y-131674225D03*
X159768061Y-129799225D03*
X159641061Y-127356225D03*
X159641061Y-125481225D03*
D21*
X173562500Y-129000000D03*
X175437500Y-129000000D03*
X165312500Y-130750000D03*
X167187500Y-130750000D03*
D19*
X177187500Y-113500000D03*
X175312500Y-113500000D03*
D14*
X93250000Y-78812500D03*
X93250000Y-80687500D03*
D32*
X157162061Y-116986725D03*
X155262061Y-116986725D03*
X156212061Y-119086725D03*
X157162061Y-112668725D03*
X155262061Y-112668725D03*
X156212061Y-114768725D03*
D16*
X159641061Y-118847225D03*
X159641061Y-116972225D03*
X159571061Y-114845225D03*
X159571061Y-112970225D03*
X108250000Y-50937500D03*
X108250000Y-49062500D03*
D32*
X157162061Y-121050725D03*
X155262061Y-121050725D03*
X156212061Y-123150725D03*
D16*
X159641061Y-123038225D03*
X159641061Y-121163225D03*
D14*
X109500000Y-84930832D03*
X109500000Y-86805832D03*
X111891061Y-84930832D03*
X111891061Y-86805832D03*
X114391061Y-84930832D03*
X114391061Y-86805832D03*
X116891061Y-84930832D03*
X116891061Y-86805832D03*
D16*
X111641061Y-105645225D03*
X111641061Y-103770225D03*
X117141061Y-105645225D03*
X117141061Y-103770225D03*
X114371061Y-105645225D03*
X114371061Y-103770225D03*
X109141061Y-105645225D03*
X109141061Y-103770225D03*
D33*
X173610000Y-90460000D03*
X173610000Y-92360000D03*
D34*
X151950000Y-41192275D03*
X151950000Y-44392275D03*
X156850000Y-44392275D03*
X156850000Y-41192275D03*
X128050000Y-41192275D03*
X128050000Y-44392275D03*
X132950000Y-44392275D03*
X132950000Y-41192275D03*
D35*
X143750000Y-59837500D03*
X143750000Y-61662500D03*
D36*
X94850000Y-47830000D03*
X94850000Y-50370000D03*
X100150000Y-47850000D03*
X100150000Y-50370000D03*
D37*
X100250000Y-95600000D03*
X98350000Y-95600000D03*
D36*
X94850000Y-41630000D03*
X94850000Y-44170000D03*
X100150000Y-41650000D03*
X100150000Y-44170000D03*
D32*
X147050000Y-62550000D03*
X148950000Y-62550000D03*
X148000000Y-60450000D03*
D33*
X151800000Y-133450000D03*
X151800000Y-135350000D03*
D37*
X182871061Y-51750000D03*
X180971061Y-51750000D03*
D34*
X143850000Y-41192275D03*
X143850000Y-44392275D03*
X148750000Y-44392275D03*
X148750000Y-41192275D03*
D37*
X100250000Y-97610000D03*
X98350000Y-97610000D03*
D38*
X181505000Y-116235000D03*
X180235000Y-116235000D03*
X178965000Y-116235000D03*
X177695000Y-116235000D03*
X176425000Y-116235000D03*
X175155000Y-116235000D03*
X173885000Y-116235000D03*
X172615000Y-116235000D03*
X171345000Y-116235000D03*
X170075000Y-116235000D03*
X168805000Y-116235000D03*
X167535000Y-116235000D03*
X166265000Y-116235000D03*
X164995000Y-116235000D03*
X164995000Y-125265000D03*
X166265000Y-125265000D03*
X167535000Y-125265000D03*
X168805000Y-125265000D03*
X170075000Y-125265000D03*
X171345000Y-125265000D03*
X172615000Y-125265000D03*
X173885000Y-125265000D03*
X175155000Y-125265000D03*
X176425000Y-125265000D03*
X177695000Y-125265000D03*
X178965000Y-125265000D03*
X180235000Y-125265000D03*
X181505000Y-125265000D03*
D39*
X175950000Y-134600000D03*
X169850000Y-134600000D03*
D40*
X163600000Y-63812500D03*
X163600000Y-61987500D03*
D33*
X171600000Y-90450000D03*
X171600000Y-92350000D03*
D39*
X105050000Y-89900000D03*
X98950000Y-89900000D03*
D40*
X159900000Y-63912500D03*
X159900000Y-62087500D03*
X154000000Y-135312500D03*
X154000000Y-133487500D03*
D34*
X135950000Y-41192275D03*
X135950000Y-44392275D03*
X140850000Y-44392275D03*
X140850000Y-41192275D03*
D41*
X145887500Y-64792275D03*
X147712500Y-64792275D03*
D13*
X182000000Y-56650000D03*
X182000000Y-53850000D03*
M02*
