%TF.GenerationSoftware,KiCad,Pcbnew,5.99.0-unknown-47cb7f53fd~143~ubuntu20.04.1*%
%TF.CreationDate,2021-11-23T21:15:49-08:00*%
%TF.ProjectId,acorn-serial,61636f72-6e2d-4736-9572-69616c2e6b69,rev?*%
%TF.SameCoordinates,Original*%
%TF.FileFunction,Soldermask,Bot*%
%TF.FilePolarity,Negative*%
%FSLAX46Y46*%
G04 Gerber Fmt 4.6, Leading zero omitted, Abs format (unit mm)*
G04 Created by KiCad (PCBNEW 5.99.0-unknown-47cb7f53fd~143~ubuntu20.04.1) date 2021-11-23 21:15:49*
%MOMM*%
%LPD*%
G01*
G04 APERTURE LIST*
G04 Aperture macros list*
%AMRoundRect*
0 Rectangle with rounded corners*
0 $1 Rounding radius*
0 $2 $3 $4 $5 $6 $7 $8 $9 X,Y pos of 4 corners*
0 Add a 4 corners polygon primitive as box body*
4,1,4,$2,$3,$4,$5,$6,$7,$8,$9,$2,$3,0*
0 Add four circle primitives for the rounded corners*
1,1,$1+$1,$2,$3*
1,1,$1+$1,$4,$5*
1,1,$1+$1,$6,$7*
1,1,$1+$1,$8,$9*
0 Add four rect primitives between the rounded corners*
20,1,$1+$1,$2,$3,$4,$5,0*
20,1,$1+$1,$4,$5,$6,$7,0*
20,1,$1+$1,$6,$7,$8,$9,0*
20,1,$1+$1,$8,$9,$2,$3,0*%
%AMFreePoly0*
4,1,22,0.500000,-0.750000,0.000000,-0.750000,0.000000,-0.745033,-0.079941,-0.743568,-0.215256,-0.701293,-0.333266,-0.622738,-0.424486,-0.514219,-0.481581,-0.384460,-0.499164,-0.250000,-0.500000,-0.250000,-0.500000,0.250000,-0.499164,0.250000,-0.499963,0.256109,-0.478152,0.396186,-0.417904,0.524511,-0.324060,0.630769,-0.204165,0.706417,-0.067858,0.745374,0.000000,0.744959,0.000000,0.750000,
0.500000,0.750000,0.500000,-0.750000,0.500000,-0.750000,$1*%
%AMFreePoly1*
4,1,20,0.000000,0.744959,0.073905,0.744508,0.209726,0.703889,0.328688,0.626782,0.421226,0.519385,0.479903,0.390333,0.500000,0.250000,0.500000,-0.250000,0.499851,-0.262216,0.476331,-0.402017,0.414519,-0.529596,0.319384,-0.634700,0.198574,-0.708877,0.061801,-0.746166,0.000000,-0.745033,0.000000,-0.750000,-0.500000,-0.750000,-0.500000,0.750000,0.000000,0.750000,0.000000,0.744959,
0.000000,0.744959,$1*%
%AMFreePoly2*
4,1,22,0.550000,-0.750000,0.000000,-0.750000,0.000000,-0.745033,-0.079941,-0.743568,-0.215256,-0.701293,-0.333266,-0.622738,-0.424486,-0.514219,-0.481581,-0.384460,-0.499164,-0.250000,-0.500000,-0.250000,-0.500000,0.250000,-0.499164,0.250000,-0.499963,0.256109,-0.478152,0.396186,-0.417904,0.524511,-0.324060,0.630769,-0.204165,0.706417,-0.067858,0.745374,0.000000,0.744959,0.000000,0.750000,
0.550000,0.750000,0.550000,-0.750000,0.550000,-0.750000,$1*%
%AMFreePoly3*
4,1,20,0.000000,0.744959,0.073905,0.744508,0.209726,0.703889,0.328688,0.626782,0.421226,0.519385,0.479903,0.390333,0.500000,0.250000,0.500000,-0.250000,0.499851,-0.262216,0.476331,-0.402017,0.414519,-0.529596,0.319384,-0.634700,0.198574,-0.708877,0.061801,-0.746166,0.000000,-0.745033,0.000000,-0.750000,-0.550000,-0.750000,-0.550000,0.750000,0.000000,0.750000,0.000000,0.744959,
0.000000,0.744959,$1*%
G04 Aperture macros list end*
%ADD10R,1.700000X1.700000*%
%ADD11O,1.700000X1.700000*%
%ADD12C,3.700000*%
%ADD13C,3.251200*%
%ADD14R,1.778000X1.778000*%
%ADD15C,1.778000*%
%ADD16C,1.400000*%
%ADD17C,2.200000*%
%ADD18RoundRect,0.250000X-0.620000X-0.845000X0.620000X-0.845000X0.620000X0.845000X-0.620000X0.845000X0*%
%ADD19O,1.740000X2.190000*%
%ADD20FreePoly0,180.000000*%
%ADD21FreePoly1,180.000000*%
%ADD22FreePoly2,0.000000*%
%ADD23R,1.000000X1.500000*%
%ADD24FreePoly3,0.000000*%
G04 APERTURE END LIST*
D10*
X131750000Y-75000000D03*
D11*
X131750000Y-77540000D03*
D10*
X154300000Y-75000000D03*
D11*
X154300000Y-77540000D03*
D12*
X182644000Y-105400000D03*
D13*
X144544000Y-125586000D03*
X131844000Y-125586000D03*
D14*
X141749000Y-122156000D03*
D15*
X140729000Y-124696000D03*
X139719000Y-122156000D03*
X138699000Y-124696000D03*
X137689000Y-122156000D03*
X136669000Y-124696000D03*
X135659000Y-122156000D03*
X134639000Y-124696000D03*
D16*
X144989000Y-119746000D03*
X142699000Y-119746000D03*
X133689000Y-119746000D03*
X131399000Y-119746000D03*
D17*
X130064000Y-121346000D03*
X146324000Y-121346000D03*
D12*
X113478000Y-64540000D03*
D13*
X125494000Y-125586000D03*
X112794000Y-125586000D03*
D14*
X122699000Y-122156000D03*
D15*
X121679000Y-124696000D03*
X120669000Y-122156000D03*
X119649000Y-124696000D03*
X118639000Y-122156000D03*
X117619000Y-124696000D03*
X116609000Y-122156000D03*
X115589000Y-124696000D03*
D16*
X125939000Y-119746000D03*
X123649000Y-119746000D03*
X114639000Y-119746000D03*
X112349000Y-119746000D03*
D17*
X111014000Y-121346000D03*
X127274000Y-121346000D03*
D13*
X163594000Y-125586000D03*
X150894000Y-125586000D03*
D14*
X160799000Y-122156000D03*
D15*
X159779000Y-124696000D03*
X158769000Y-122156000D03*
X157749000Y-124696000D03*
X156739000Y-122156000D03*
X155719000Y-124696000D03*
X154709000Y-122156000D03*
X153689000Y-124696000D03*
D16*
X164039000Y-119746000D03*
X161749000Y-119746000D03*
X152739000Y-119746000D03*
X150449000Y-119746000D03*
D17*
X149114000Y-121346000D03*
X165374000Y-121346000D03*
D10*
X117031000Y-75382000D03*
D11*
X117031000Y-77922000D03*
D12*
X182210000Y-64540000D03*
D10*
X139600000Y-75000000D03*
D11*
X139600000Y-77540000D03*
D13*
X169944000Y-125586000D03*
X182644000Y-125586000D03*
D14*
X179849000Y-122156000D03*
D15*
X178829000Y-124696000D03*
X177819000Y-122156000D03*
X176799000Y-124696000D03*
X175789000Y-122156000D03*
X174769000Y-124696000D03*
X173759000Y-122156000D03*
X172739000Y-124696000D03*
D16*
X183089000Y-119746000D03*
X180799000Y-119746000D03*
X171789000Y-119746000D03*
X169499000Y-119746000D03*
D17*
X168164000Y-121346000D03*
X184424000Y-121346000D03*
D12*
X113048000Y-105400000D03*
D18*
X176690000Y-79320000D03*
D19*
X179230000Y-79320000D03*
X181770000Y-79320000D03*
X184310000Y-79320000D03*
D18*
X176710000Y-72020000D03*
D19*
X179250000Y-72020000D03*
X181790000Y-72020000D03*
X184330000Y-72020000D03*
D10*
X120160000Y-65006000D03*
D11*
X120160000Y-62466000D03*
X122700000Y-65006000D03*
X122700000Y-62466000D03*
X125240000Y-65006000D03*
X125240000Y-62466000D03*
X127780000Y-65006000D03*
X127780000Y-62466000D03*
X130320000Y-65006000D03*
X130320000Y-62466000D03*
X132860000Y-65006000D03*
X132860000Y-62466000D03*
X135400000Y-65006000D03*
X135400000Y-62466000D03*
X137940000Y-65006000D03*
X137940000Y-62466000D03*
X140480000Y-65006000D03*
X140480000Y-62466000D03*
X143020000Y-65006000D03*
X143020000Y-62466000D03*
X145560000Y-65006000D03*
X145560000Y-62466000D03*
X148100000Y-65006000D03*
X148100000Y-62466000D03*
X150640000Y-65006000D03*
X150640000Y-62466000D03*
X153180000Y-65006000D03*
X153180000Y-62466000D03*
X155720000Y-65006000D03*
X155720000Y-62466000D03*
X158260000Y-65006000D03*
X158260000Y-62466000D03*
X160800000Y-65006000D03*
X160800000Y-62466000D03*
X163340000Y-65006000D03*
X163340000Y-62466000D03*
X165880000Y-65006000D03*
X165880000Y-62466000D03*
X168420000Y-65006000D03*
X168420000Y-62466000D03*
D20*
X167400000Y-113850000D03*
D21*
X166100000Y-113850000D03*
D20*
X148550000Y-113900000D03*
D21*
X147250000Y-113900000D03*
D22*
X174950000Y-75500000D03*
D23*
X176250000Y-75500000D03*
D24*
X177550000Y-75500000D03*
D20*
X136650000Y-113750000D03*
D21*
X135350000Y-113750000D03*
M02*
