%TF.GenerationSoftware,KiCad,Pcbnew,5.99.0-unknown-47cb7f53fd~143~ubuntu20.04.1*%
%TF.CreationDate,2021-11-23T21:15:48-08:00*%
%TF.ProjectId,acorn-serial,61636f72-6e2d-4736-9572-69616c2e6b69,rev?*%
%TF.SameCoordinates,Original*%
%TF.FileFunction,Legend,Top*%
%TF.FilePolarity,Positive*%
%FSLAX46Y46*%
G04 Gerber Fmt 4.6, Leading zero omitted, Abs format (unit mm)*
G04 Created by KiCad (PCBNEW 5.99.0-unknown-47cb7f53fd~143~ubuntu20.04.1) date 2021-11-23 21:15:48*
%MOMM*%
%LPD*%
G01*
G04 APERTURE LIST*
G04 Aperture macros list*
%AMRoundRect*
0 Rectangle with rounded corners*
0 $1 Rounding radius*
0 $2 $3 $4 $5 $6 $7 $8 $9 X,Y pos of 4 corners*
0 Add a 4 corners polygon primitive as box body*
4,1,4,$2,$3,$4,$5,$6,$7,$8,$9,$2,$3,0*
0 Add four circle primitives for the rounded corners*
1,1,$1+$1,$2,$3*
1,1,$1+$1,$4,$5*
1,1,$1+$1,$6,$7*
1,1,$1+$1,$8,$9*
0 Add four rect primitives between the rounded corners*
20,1,$1+$1,$2,$3,$4,$5,0*
20,1,$1+$1,$4,$5,$6,$7,0*
20,1,$1+$1,$6,$7,$8,$9,0*
20,1,$1+$1,$8,$9,$2,$3,0*%
G04 Aperture macros list end*
%ADD10C,0.300000*%
%ADD11C,0.150000*%
%ADD12C,0.130000*%
%ADD13C,0.120000*%
%ADD14C,0.100000*%
%ADD15C,0.127000*%
%ADD16C,0.200000*%
%ADD17RoundRect,0.243750X-0.243750X-0.456250X0.243750X-0.456250X0.243750X0.456250X-0.243750X0.456250X0*%
%ADD18RoundRect,0.243750X0.456250X-0.243750X0.456250X0.243750X-0.456250X0.243750X-0.456250X-0.243750X0*%
%ADD19R,1.700000X1.700000*%
%ADD20O,1.700000X1.700000*%
%ADD21RoundRect,0.243750X-0.456250X0.243750X-0.456250X-0.243750X0.456250X-0.243750X0.456250X0.243750X0*%
%ADD22RoundRect,0.243750X0.243750X0.456250X-0.243750X0.456250X-0.243750X-0.456250X0.243750X-0.456250X0*%
%ADD23R,3.400000X1.800000*%
%ADD24R,0.584200X1.981200*%
%ADD25RoundRect,0.070000X-0.300000X0.650000X-0.300000X-0.650000X0.300000X-0.650000X0.300000X0.650000X0*%
%ADD26RoundRect,0.150000X-0.150000X0.825000X-0.150000X-0.825000X0.150000X-0.825000X0.150000X0.825000X0*%
%ADD27R,1.600000X1.300000*%
%ADD28C,3.700000*%
%ADD29R,0.600000X0.450000*%
%ADD30C,3.251200*%
%ADD31R,1.778000X1.778000*%
%ADD32C,1.778000*%
%ADD33C,1.400000*%
%ADD34C,2.200000*%
%ADD35R,0.400000X1.100000*%
%ADD36RoundRect,0.250000X0.375000X0.625000X-0.375000X0.625000X-0.375000X-0.625000X0.375000X-0.625000X0*%
%ADD37RoundRect,0.100000X-0.225000X-0.100000X0.225000X-0.100000X0.225000X0.100000X-0.225000X0.100000X0*%
%ADD38RoundRect,0.100000X-0.100000X0.637500X-0.100000X-0.637500X0.100000X-0.637500X0.100000X0.637500X0*%
%ADD39RoundRect,0.250000X-0.620000X-0.845000X0.620000X-0.845000X0.620000X0.845000X-0.620000X0.845000X0*%
%ADD40O,1.740000X2.190000*%
%ADD41RoundRect,0.250000X-0.450000X0.262500X-0.450000X-0.262500X0.450000X-0.262500X0.450000X0.262500X0*%
%ADD42RoundRect,0.250000X0.450000X-0.262500X0.450000X0.262500X-0.450000X0.262500X-0.450000X-0.262500X0*%
%ADD43R,2.100000X1.000000*%
%ADD44RoundRect,0.250000X0.475000X-0.250000X0.475000X0.250000X-0.475000X0.250000X-0.475000X-0.250000X0*%
%ADD45RoundRect,0.250000X-0.475000X0.250000X-0.475000X-0.250000X0.475000X-0.250000X0.475000X0.250000X0*%
G04 APERTURE END LIST*
D10*
X133966666Y-60816666D02*
X134585714Y-60816666D01*
X133842857Y-61188095D02*
X134276190Y-59888095D01*
X134709523Y-61188095D01*
X135700000Y-61126190D02*
X135576190Y-61188095D01*
X135328571Y-61188095D01*
X135204761Y-61126190D01*
X135142857Y-61064285D01*
X135080952Y-60940476D01*
X135080952Y-60569047D01*
X135142857Y-60445238D01*
X135204761Y-60383333D01*
X135328571Y-60321428D01*
X135576190Y-60321428D01*
X135700000Y-60383333D01*
X136442857Y-61188095D02*
X136319047Y-61126190D01*
X136257142Y-61064285D01*
X136195238Y-60940476D01*
X136195238Y-60569047D01*
X136257142Y-60445238D01*
X136319047Y-60383333D01*
X136442857Y-60321428D01*
X136628571Y-60321428D01*
X136752380Y-60383333D01*
X136814285Y-60445238D01*
X136876190Y-60569047D01*
X136876190Y-60940476D01*
X136814285Y-61064285D01*
X136752380Y-61126190D01*
X136628571Y-61188095D01*
X136442857Y-61188095D01*
X137433333Y-61188095D02*
X137433333Y-60321428D01*
X137433333Y-60569047D02*
X137495238Y-60445238D01*
X137557142Y-60383333D01*
X137680952Y-60321428D01*
X137804761Y-60321428D01*
X138238095Y-60321428D02*
X138238095Y-61188095D01*
X138238095Y-60445238D02*
X138300000Y-60383333D01*
X138423809Y-60321428D01*
X138609523Y-60321428D01*
X138733333Y-60383333D01*
X138795238Y-60507142D01*
X138795238Y-61188095D01*
X140342857Y-61126190D02*
X140528571Y-61188095D01*
X140838095Y-61188095D01*
X140961904Y-61126190D01*
X141023809Y-61064285D01*
X141085714Y-60940476D01*
X141085714Y-60816666D01*
X141023809Y-60692857D01*
X140961904Y-60630952D01*
X140838095Y-60569047D01*
X140590476Y-60507142D01*
X140466666Y-60445238D01*
X140404761Y-60383333D01*
X140342857Y-60259523D01*
X140342857Y-60135714D01*
X140404761Y-60011904D01*
X140466666Y-59950000D01*
X140590476Y-59888095D01*
X140900000Y-59888095D01*
X141085714Y-59950000D01*
X142138095Y-61126190D02*
X142014285Y-61188095D01*
X141766666Y-61188095D01*
X141642857Y-61126190D01*
X141580952Y-61002380D01*
X141580952Y-60507142D01*
X141642857Y-60383333D01*
X141766666Y-60321428D01*
X142014285Y-60321428D01*
X142138095Y-60383333D01*
X142200000Y-60507142D01*
X142200000Y-60630952D01*
X141580952Y-60754761D01*
X142757142Y-61188095D02*
X142757142Y-60321428D01*
X142757142Y-60569047D02*
X142819047Y-60445238D01*
X142880952Y-60383333D01*
X143004761Y-60321428D01*
X143128571Y-60321428D01*
X143561904Y-61188095D02*
X143561904Y-60321428D01*
X143561904Y-59888095D02*
X143500000Y-59950000D01*
X143561904Y-60011904D01*
X143623809Y-59950000D01*
X143561904Y-59888095D01*
X143561904Y-60011904D01*
X144738095Y-61188095D02*
X144738095Y-60507142D01*
X144676190Y-60383333D01*
X144552380Y-60321428D01*
X144304761Y-60321428D01*
X144180952Y-60383333D01*
X144738095Y-61126190D02*
X144614285Y-61188095D01*
X144304761Y-61188095D01*
X144180952Y-61126190D01*
X144119047Y-61002380D01*
X144119047Y-60878571D01*
X144180952Y-60754761D01*
X144304761Y-60692857D01*
X144614285Y-60692857D01*
X144738095Y-60630952D01*
X145542857Y-61188095D02*
X145419047Y-61126190D01*
X145357142Y-61002380D01*
X145357142Y-59888095D01*
X147461904Y-60507142D02*
X147647619Y-60569047D01*
X147709523Y-60630952D01*
X147771428Y-60754761D01*
X147771428Y-60940476D01*
X147709523Y-61064285D01*
X147647619Y-61126190D01*
X147523809Y-61188095D01*
X147028571Y-61188095D01*
X147028571Y-59888095D01*
X147461904Y-59888095D01*
X147585714Y-59950000D01*
X147647619Y-60011904D01*
X147709523Y-60135714D01*
X147709523Y-60259523D01*
X147647619Y-60383333D01*
X147585714Y-60445238D01*
X147461904Y-60507142D01*
X147028571Y-60507142D01*
X148514285Y-61188095D02*
X148390476Y-61126190D01*
X148328571Y-61064285D01*
X148266666Y-60940476D01*
X148266666Y-60569047D01*
X148328571Y-60445238D01*
X148390476Y-60383333D01*
X148514285Y-60321428D01*
X148700000Y-60321428D01*
X148823809Y-60383333D01*
X148885714Y-60445238D01*
X148947619Y-60569047D01*
X148947619Y-60940476D01*
X148885714Y-61064285D01*
X148823809Y-61126190D01*
X148700000Y-61188095D01*
X148514285Y-61188095D01*
X150061904Y-61188095D02*
X150061904Y-60507142D01*
X150000000Y-60383333D01*
X149876190Y-60321428D01*
X149628571Y-60321428D01*
X149504761Y-60383333D01*
X150061904Y-61126190D02*
X149938095Y-61188095D01*
X149628571Y-61188095D01*
X149504761Y-61126190D01*
X149442857Y-61002380D01*
X149442857Y-60878571D01*
X149504761Y-60754761D01*
X149628571Y-60692857D01*
X149938095Y-60692857D01*
X150061904Y-60630952D01*
X150680952Y-61188095D02*
X150680952Y-60321428D01*
X150680952Y-60569047D02*
X150742857Y-60445238D01*
X150804761Y-60383333D01*
X150928571Y-60321428D01*
X151052380Y-60321428D01*
X152042857Y-61188095D02*
X152042857Y-59888095D01*
X152042857Y-61126190D02*
X151919047Y-61188095D01*
X151671428Y-61188095D01*
X151547619Y-61126190D01*
X151485714Y-61064285D01*
X151423809Y-60940476D01*
X151423809Y-60569047D01*
X151485714Y-60445238D01*
X151547619Y-60383333D01*
X151671428Y-60321428D01*
X151919047Y-60321428D01*
X152042857Y-60383333D01*
X154395238Y-61188095D02*
X153961904Y-60569047D01*
X153652380Y-61188095D02*
X153652380Y-59888095D01*
X154147619Y-59888095D01*
X154271428Y-59950000D01*
X154333333Y-60011904D01*
X154395238Y-60135714D01*
X154395238Y-60321428D01*
X154333333Y-60445238D01*
X154271428Y-60507142D01*
X154147619Y-60569047D01*
X153652380Y-60569047D01*
X155633333Y-61188095D02*
X154890476Y-61188095D01*
X155261904Y-61188095D02*
X155261904Y-59888095D01*
X155138095Y-60073809D01*
X155014285Y-60197619D01*
X154890476Y-60259523D01*
D11*
X133510095Y-77010380D02*
X134081523Y-77010380D01*
X133795809Y-78010380D02*
X133795809Y-77010380D01*
X134319619Y-77010380D02*
X134986285Y-78010380D01*
X134986285Y-77010380D02*
X134319619Y-78010380D01*
X179109523Y-67500000D02*
X179014285Y-67452380D01*
X178871428Y-67452380D01*
X178728571Y-67500000D01*
X178633333Y-67595238D01*
X178585714Y-67690476D01*
X178538095Y-67880952D01*
X178538095Y-68023809D01*
X178585714Y-68214285D01*
X178633333Y-68309523D01*
X178728571Y-68404761D01*
X178871428Y-68452380D01*
X178966666Y-68452380D01*
X179109523Y-68404761D01*
X179157142Y-68357142D01*
X179157142Y-68023809D01*
X178966666Y-68023809D01*
X179585714Y-68452380D02*
X179585714Y-67452380D01*
X179966666Y-67452380D01*
X180061904Y-67500000D01*
X180109523Y-67547619D01*
X180157142Y-67642857D01*
X180157142Y-67785714D01*
X180109523Y-67880952D01*
X180061904Y-67928571D01*
X179966666Y-67976190D01*
X179585714Y-67976190D01*
X180538095Y-68404761D02*
X180680952Y-68452380D01*
X180919047Y-68452380D01*
X181014285Y-68404761D01*
X181061904Y-68357142D01*
X181109523Y-68261904D01*
X181109523Y-68166666D01*
X181061904Y-68071428D01*
X181014285Y-68023809D01*
X180919047Y-67976190D01*
X180728571Y-67928571D01*
X180633333Y-67880952D01*
X180585714Y-67833333D01*
X180538095Y-67738095D01*
X180538095Y-67642857D01*
X180585714Y-67547619D01*
X180633333Y-67500000D01*
X180728571Y-67452380D01*
X180966666Y-67452380D01*
X181109523Y-67500000D01*
X182061904Y-68452380D02*
X181490476Y-68452380D01*
X181776190Y-68452380D02*
X181776190Y-67452380D01*
X181680952Y-67595238D01*
X181585714Y-67690476D01*
X181490476Y-67738095D01*
X175909523Y-63904761D02*
X176052380Y-63952380D01*
X176290476Y-63952380D01*
X176385714Y-63904761D01*
X176433333Y-63857142D01*
X176480952Y-63761904D01*
X176480952Y-63666666D01*
X176433333Y-63571428D01*
X176385714Y-63523809D01*
X176290476Y-63476190D01*
X176100000Y-63428571D01*
X176004761Y-63380952D01*
X175957142Y-63333333D01*
X175909523Y-63238095D01*
X175909523Y-63142857D01*
X175957142Y-63047619D01*
X176004761Y-63000000D01*
X176100000Y-62952380D01*
X176338095Y-62952380D01*
X176480952Y-63000000D01*
X177480952Y-63857142D02*
X177433333Y-63904761D01*
X177290476Y-63952380D01*
X177195238Y-63952380D01*
X177052380Y-63904761D01*
X176957142Y-63809523D01*
X176909523Y-63714285D01*
X176861904Y-63523809D01*
X176861904Y-63380952D01*
X176909523Y-63190476D01*
X176957142Y-63095238D01*
X177052380Y-63000000D01*
X177195238Y-62952380D01*
X177290476Y-62952380D01*
X177433333Y-63000000D01*
X177480952Y-63047619D01*
X178385714Y-63952380D02*
X177909523Y-63952380D01*
X177909523Y-62952380D01*
X178719047Y-63952380D02*
X178719047Y-62952380D01*
X179290476Y-63952380D02*
X178861904Y-63380952D01*
X179290476Y-62952380D02*
X178719047Y-63523809D01*
X156743333Y-76028380D02*
X156410000Y-75552190D01*
X156171904Y-76028380D02*
X156171904Y-75028380D01*
X156552857Y-75028380D01*
X156648095Y-75076000D01*
X156695714Y-75123619D01*
X156743333Y-75218857D01*
X156743333Y-75361714D01*
X156695714Y-75456952D01*
X156648095Y-75504571D01*
X156552857Y-75552190D01*
X156171904Y-75552190D01*
X157076666Y-75028380D02*
X157743333Y-76028380D01*
X157743333Y-75028380D02*
X157076666Y-76028380D01*
X184438095Y-85900000D02*
X184342857Y-85852380D01*
X184200000Y-85852380D01*
X184057142Y-85900000D01*
X183961904Y-85995238D01*
X183914285Y-86090476D01*
X183866666Y-86280952D01*
X183866666Y-86423809D01*
X183914285Y-86614285D01*
X183961904Y-86709523D01*
X184057142Y-86804761D01*
X184200000Y-86852380D01*
X184295238Y-86852380D01*
X184438095Y-86804761D01*
X184485714Y-86757142D01*
X184485714Y-86423809D01*
X184295238Y-86423809D01*
X184914285Y-86852380D02*
X184914285Y-85852380D01*
X185485714Y-86852380D01*
X185485714Y-85852380D01*
X185961904Y-86852380D02*
X185961904Y-85852380D01*
X186200000Y-85852380D01*
X186342857Y-85900000D01*
X186438095Y-85995238D01*
X186485714Y-86090476D01*
X186533333Y-86280952D01*
X186533333Y-86423809D01*
X186485714Y-86614285D01*
X186438095Y-86709523D01*
X186342857Y-86804761D01*
X186200000Y-86852380D01*
X185961904Y-86852380D01*
X109775809Y-99844000D02*
X109680571Y-99796380D01*
X109537714Y-99796380D01*
X109394857Y-99844000D01*
X109299619Y-99939238D01*
X109252000Y-100034476D01*
X109204380Y-100224952D01*
X109204380Y-100367809D01*
X109252000Y-100558285D01*
X109299619Y-100653523D01*
X109394857Y-100748761D01*
X109537714Y-100796380D01*
X109632952Y-100796380D01*
X109775809Y-100748761D01*
X109823428Y-100701142D01*
X109823428Y-100367809D01*
X109632952Y-100367809D01*
X110252000Y-100796380D02*
X110252000Y-99796380D01*
X110823428Y-100796380D01*
X110823428Y-99796380D01*
X111299619Y-100796380D02*
X111299619Y-99796380D01*
X111537714Y-99796380D01*
X111680571Y-99844000D01*
X111775809Y-99939238D01*
X111823428Y-100034476D01*
X111871047Y-100224952D01*
X111871047Y-100367809D01*
X111823428Y-100558285D01*
X111775809Y-100653523D01*
X111680571Y-100748761D01*
X111537714Y-100796380D01*
X111299619Y-100796380D01*
X112299619Y-100796380D02*
X112299619Y-99796380D01*
X112728190Y-100748761D02*
X112871047Y-100796380D01*
X113109142Y-100796380D01*
X113204380Y-100748761D01*
X113252000Y-100701142D01*
X113299619Y-100605904D01*
X113299619Y-100510666D01*
X113252000Y-100415428D01*
X113204380Y-100367809D01*
X113109142Y-100320190D01*
X112918666Y-100272571D01*
X112823428Y-100224952D01*
X112775809Y-100177333D01*
X112728190Y-100082095D01*
X112728190Y-99986857D01*
X112775809Y-99891619D01*
X112823428Y-99844000D01*
X112918666Y-99796380D01*
X113156761Y-99796380D01*
X113299619Y-99844000D01*
X170628571Y-66352380D02*
X170628571Y-65352380D01*
X170961904Y-66066666D01*
X171295238Y-65352380D01*
X171295238Y-66352380D01*
X171771428Y-66352380D02*
X171771428Y-65352380D01*
X172200000Y-66304761D02*
X172342857Y-66352380D01*
X172580952Y-66352380D01*
X172676190Y-66304761D01*
X172723809Y-66257142D01*
X172771428Y-66161904D01*
X172771428Y-66066666D01*
X172723809Y-65971428D01*
X172676190Y-65923809D01*
X172580952Y-65876190D01*
X172390476Y-65828571D01*
X172295238Y-65780952D01*
X172247619Y-65733333D01*
X172200000Y-65638095D01*
X172200000Y-65542857D01*
X172247619Y-65447619D01*
X172295238Y-65400000D01*
X172390476Y-65352380D01*
X172628571Y-65352380D01*
X172771428Y-65400000D01*
X173390476Y-65352380D02*
X173580952Y-65352380D01*
X173676190Y-65400000D01*
X173771428Y-65495238D01*
X173819047Y-65685714D01*
X173819047Y-66019047D01*
X173771428Y-66209523D01*
X173676190Y-66304761D01*
X173580952Y-66352380D01*
X173390476Y-66352380D01*
X173295238Y-66304761D01*
X173200000Y-66209523D01*
X173152380Y-66019047D01*
X173152380Y-65685714D01*
X173200000Y-65495238D01*
X173295238Y-65400000D01*
X173390476Y-65352380D01*
X181104761Y-94428571D02*
X181438095Y-94428571D01*
X181580952Y-94952380D02*
X181104761Y-94952380D01*
X181104761Y-93952380D01*
X181580952Y-93952380D01*
X181961904Y-94904761D02*
X182104761Y-94952380D01*
X182342857Y-94952380D01*
X182438095Y-94904761D01*
X182485714Y-94857142D01*
X182533333Y-94761904D01*
X182533333Y-94666666D01*
X182485714Y-94571428D01*
X182438095Y-94523809D01*
X182342857Y-94476190D01*
X182152380Y-94428571D01*
X182057142Y-94380952D01*
X182009523Y-94333333D01*
X181961904Y-94238095D01*
X181961904Y-94142857D01*
X182009523Y-94047619D01*
X182057142Y-94000000D01*
X182152380Y-93952380D01*
X182390476Y-93952380D01*
X182533333Y-94000000D01*
X182819047Y-93952380D02*
X183390476Y-93952380D01*
X183104761Y-94952380D02*
X183104761Y-93952380D01*
X183914285Y-93952380D02*
X184104761Y-93952380D01*
X184200000Y-94000000D01*
X184295238Y-94095238D01*
X184342857Y-94285714D01*
X184342857Y-94619047D01*
X184295238Y-94809523D01*
X184200000Y-94904761D01*
X184104761Y-94952380D01*
X183914285Y-94952380D01*
X183819047Y-94904761D01*
X183723809Y-94809523D01*
X183676190Y-94619047D01*
X183676190Y-94285714D01*
X183723809Y-94095238D01*
X183819047Y-94000000D01*
X183914285Y-93952380D01*
X184771428Y-94952380D02*
X184771428Y-93952380D01*
X185152380Y-93952380D01*
X185247619Y-94000000D01*
X185295238Y-94047619D01*
X185342857Y-94142857D01*
X185342857Y-94285714D01*
X185295238Y-94380952D01*
X185247619Y-94428571D01*
X185152380Y-94476190D01*
X184771428Y-94476190D01*
X129738095Y-112952380D02*
X130309523Y-112952380D01*
X130023809Y-113952380D02*
X130023809Y-112952380D01*
X130547619Y-112952380D02*
X131214285Y-113952380D01*
X131214285Y-112952380D02*
X130547619Y-113952380D01*
X172314285Y-66852380D02*
X172885714Y-66852380D01*
X172600000Y-67852380D02*
X172600000Y-66852380D01*
X156148095Y-77568380D02*
X156719523Y-77568380D01*
X156433809Y-78568380D02*
X156433809Y-77568380D01*
X156957619Y-77568380D02*
X157624285Y-78568380D01*
X157624285Y-77568380D02*
X156957619Y-78568380D01*
X113638095Y-77392380D02*
X114209523Y-77392380D01*
X113923809Y-78392380D02*
X113923809Y-77392380D01*
X114447619Y-77392380D02*
X115114285Y-78392380D01*
X115114285Y-77392380D02*
X114447619Y-78392380D01*
D10*
X114733333Y-110860642D02*
X114300000Y-110860642D01*
X114300000Y-111541595D02*
X114300000Y-110241595D01*
X114919047Y-110241595D01*
X115414285Y-111541595D02*
X115414285Y-110674928D01*
X115414285Y-110922547D02*
X115476190Y-110798738D01*
X115538095Y-110736833D01*
X115661904Y-110674928D01*
X115785714Y-110674928D01*
X116404761Y-111541595D02*
X116280952Y-111479690D01*
X116219047Y-111417785D01*
X116157142Y-111293976D01*
X116157142Y-110922547D01*
X116219047Y-110798738D01*
X116280952Y-110736833D01*
X116404761Y-110674928D01*
X116590476Y-110674928D01*
X116714285Y-110736833D01*
X116776190Y-110798738D01*
X116838095Y-110922547D01*
X116838095Y-111293976D01*
X116776190Y-111417785D01*
X116714285Y-111479690D01*
X116590476Y-111541595D01*
X116404761Y-111541595D01*
X117395238Y-110674928D02*
X117395238Y-111541595D01*
X117395238Y-110798738D02*
X117457142Y-110736833D01*
X117580952Y-110674928D01*
X117766666Y-110674928D01*
X117890476Y-110736833D01*
X117952380Y-110860642D01*
X117952380Y-111541595D01*
X118385714Y-110674928D02*
X118880952Y-110674928D01*
X118571428Y-110241595D02*
X118571428Y-111355880D01*
X118633333Y-111479690D01*
X118757142Y-111541595D01*
X118880952Y-111541595D01*
X121047619Y-111541595D02*
X120614285Y-110922547D01*
X120304761Y-111541595D02*
X120304761Y-110241595D01*
X120800000Y-110241595D01*
X120923809Y-110303500D01*
X120985714Y-110365404D01*
X121047619Y-110489214D01*
X121047619Y-110674928D01*
X120985714Y-110798738D01*
X120923809Y-110860642D01*
X120800000Y-110922547D01*
X120304761Y-110922547D01*
X121604761Y-111541595D02*
X121604761Y-110674928D01*
X121604761Y-110241595D02*
X121542857Y-110303500D01*
X121604761Y-110365404D01*
X121666666Y-110303500D01*
X121604761Y-110241595D01*
X121604761Y-110365404D01*
X122780952Y-110674928D02*
X122780952Y-111727309D01*
X122719047Y-111851119D01*
X122657142Y-111913023D01*
X122533333Y-111974928D01*
X122347619Y-111974928D01*
X122223809Y-111913023D01*
X122780952Y-111479690D02*
X122657142Y-111541595D01*
X122409523Y-111541595D01*
X122285714Y-111479690D01*
X122223809Y-111417785D01*
X122161904Y-111293976D01*
X122161904Y-110922547D01*
X122223809Y-110798738D01*
X122285714Y-110736833D01*
X122409523Y-110674928D01*
X122657142Y-110674928D01*
X122780952Y-110736833D01*
X123400000Y-111541595D02*
X123400000Y-110241595D01*
X123957142Y-111541595D02*
X123957142Y-110860642D01*
X123895238Y-110736833D01*
X123771428Y-110674928D01*
X123585714Y-110674928D01*
X123461904Y-110736833D01*
X123400000Y-110798738D01*
X124390476Y-110674928D02*
X124885714Y-110674928D01*
X124576190Y-110241595D02*
X124576190Y-111355880D01*
X124638095Y-111479690D01*
X124761904Y-111541595D01*
X124885714Y-111541595D01*
X118447619Y-113634595D02*
X118447619Y-112334595D01*
X118880952Y-113263166D01*
X119314285Y-112334595D01*
X119314285Y-113634595D01*
X120614285Y-113634595D02*
X119871428Y-113634595D01*
X120242857Y-113634595D02*
X120242857Y-112334595D01*
X120119047Y-112520309D01*
X119995238Y-112644119D01*
X119871428Y-112706023D01*
D11*
X139100000Y-67052380D02*
X139100000Y-66052380D01*
X140147619Y-67052380D02*
X139814285Y-66576190D01*
X139576190Y-67052380D02*
X139576190Y-66052380D01*
X139957142Y-66052380D01*
X140052380Y-66100000D01*
X140100000Y-66147619D01*
X140147619Y-66242857D01*
X140147619Y-66385714D01*
X140100000Y-66480952D01*
X140052380Y-66528571D01*
X139957142Y-66576190D01*
X139576190Y-66576190D01*
X141242857Y-67147619D02*
X141147619Y-67100000D01*
X141052380Y-67004761D01*
X140909523Y-66861904D01*
X140814285Y-66814285D01*
X140719047Y-66814285D01*
X140766666Y-67052380D02*
X140671428Y-67004761D01*
X140576190Y-66909523D01*
X140528571Y-66719047D01*
X140528571Y-66385714D01*
X140576190Y-66195238D01*
X140671428Y-66100000D01*
X140766666Y-66052380D01*
X140957142Y-66052380D01*
X141052380Y-66100000D01*
X141147619Y-66195238D01*
X141195238Y-66385714D01*
X141195238Y-66719047D01*
X141147619Y-66909523D01*
X141052380Y-67004761D01*
X140957142Y-67052380D01*
X140766666Y-67052380D01*
X141576190Y-66147619D02*
X141623809Y-66100000D01*
X141719047Y-66052380D01*
X141957142Y-66052380D01*
X142052380Y-66100000D01*
X142100000Y-66147619D01*
X142147619Y-66242857D01*
X142147619Y-66338095D01*
X142100000Y-66480952D01*
X141528571Y-67052380D01*
X142147619Y-67052380D01*
X136583333Y-75452380D02*
X136250000Y-74976190D01*
X136011904Y-75452380D02*
X136011904Y-74452380D01*
X136392857Y-74452380D01*
X136488095Y-74500000D01*
X136535714Y-74547619D01*
X136583333Y-74642857D01*
X136583333Y-74785714D01*
X136535714Y-74880952D01*
X136488095Y-74928571D01*
X136392857Y-74976190D01*
X136011904Y-74976190D01*
X136916666Y-74452380D02*
X137583333Y-75452380D01*
X137583333Y-74452380D02*
X136916666Y-75452380D01*
X175928571Y-61052380D02*
X175928571Y-60052380D01*
X176261904Y-60766666D01*
X176595238Y-60052380D01*
X176595238Y-61052380D01*
X177261904Y-60052380D02*
X177452380Y-60052380D01*
X177547619Y-60100000D01*
X177642857Y-60195238D01*
X177690476Y-60385714D01*
X177690476Y-60719047D01*
X177642857Y-60909523D01*
X177547619Y-61004761D01*
X177452380Y-61052380D01*
X177261904Y-61052380D01*
X177166666Y-61004761D01*
X177071428Y-60909523D01*
X177023809Y-60719047D01*
X177023809Y-60385714D01*
X177071428Y-60195238D01*
X177166666Y-60100000D01*
X177261904Y-60052380D01*
X178071428Y-61004761D02*
X178214285Y-61052380D01*
X178452380Y-61052380D01*
X178547619Y-61004761D01*
X178595238Y-60957142D01*
X178642857Y-60861904D01*
X178642857Y-60766666D01*
X178595238Y-60671428D01*
X178547619Y-60623809D01*
X178452380Y-60576190D01*
X178261904Y-60528571D01*
X178166666Y-60480952D01*
X178119047Y-60433333D01*
X178071428Y-60338095D01*
X178071428Y-60242857D01*
X178119047Y-60147619D01*
X178166666Y-60100000D01*
X178261904Y-60052380D01*
X178500000Y-60052380D01*
X178642857Y-60100000D01*
X179071428Y-61052380D02*
X179071428Y-60052380D01*
X149238095Y-112952380D02*
X149809523Y-112952380D01*
X149523809Y-113952380D02*
X149523809Y-112952380D01*
X150047619Y-112952380D02*
X150714285Y-113952380D01*
X150714285Y-112952380D02*
X150047619Y-113952380D01*
D10*
X152852380Y-111541595D02*
X152419047Y-110922547D01*
X152109523Y-111541595D02*
X152109523Y-110241595D01*
X152604761Y-110241595D01*
X152728571Y-110303500D01*
X152790476Y-110365404D01*
X152852380Y-110489214D01*
X152852380Y-110674928D01*
X152790476Y-110798738D01*
X152728571Y-110860642D01*
X152604761Y-110922547D01*
X152109523Y-110922547D01*
X153904761Y-111479690D02*
X153780952Y-111541595D01*
X153533333Y-111541595D01*
X153409523Y-111479690D01*
X153347619Y-111355880D01*
X153347619Y-110860642D01*
X153409523Y-110736833D01*
X153533333Y-110674928D01*
X153780952Y-110674928D01*
X153904761Y-110736833D01*
X153966666Y-110860642D01*
X153966666Y-110984452D01*
X153347619Y-111108261D01*
X155080952Y-111541595D02*
X155080952Y-110860642D01*
X155019047Y-110736833D01*
X154895238Y-110674928D01*
X154647619Y-110674928D01*
X154523809Y-110736833D01*
X155080952Y-111479690D02*
X154957142Y-111541595D01*
X154647619Y-111541595D01*
X154523809Y-111479690D01*
X154461904Y-111355880D01*
X154461904Y-111232071D01*
X154523809Y-111108261D01*
X154647619Y-111046357D01*
X154957142Y-111046357D01*
X155080952Y-110984452D01*
X155700000Y-111541595D02*
X155700000Y-110674928D01*
X155700000Y-110922547D02*
X155761904Y-110798738D01*
X155823809Y-110736833D01*
X155947619Y-110674928D01*
X156071428Y-110674928D01*
X158238095Y-111541595D02*
X157804761Y-110922547D01*
X157495238Y-111541595D02*
X157495238Y-110241595D01*
X157990476Y-110241595D01*
X158114285Y-110303500D01*
X158176190Y-110365404D01*
X158238095Y-110489214D01*
X158238095Y-110674928D01*
X158176190Y-110798738D01*
X158114285Y-110860642D01*
X157990476Y-110922547D01*
X157495238Y-110922547D01*
X158795238Y-111541595D02*
X158795238Y-110674928D01*
X158795238Y-110241595D02*
X158733333Y-110303500D01*
X158795238Y-110365404D01*
X158857142Y-110303500D01*
X158795238Y-110241595D01*
X158795238Y-110365404D01*
X159971428Y-110674928D02*
X159971428Y-111727309D01*
X159909523Y-111851119D01*
X159847619Y-111913023D01*
X159723809Y-111974928D01*
X159538095Y-111974928D01*
X159414285Y-111913023D01*
X159971428Y-111479690D02*
X159847619Y-111541595D01*
X159600000Y-111541595D01*
X159476190Y-111479690D01*
X159414285Y-111417785D01*
X159352380Y-111293976D01*
X159352380Y-110922547D01*
X159414285Y-110798738D01*
X159476190Y-110736833D01*
X159600000Y-110674928D01*
X159847619Y-110674928D01*
X159971428Y-110736833D01*
X160590476Y-111541595D02*
X160590476Y-110241595D01*
X161147619Y-111541595D02*
X161147619Y-110860642D01*
X161085714Y-110736833D01*
X160961904Y-110674928D01*
X160776190Y-110674928D01*
X160652380Y-110736833D01*
X160590476Y-110798738D01*
X161580952Y-110674928D02*
X162076190Y-110674928D01*
X161766666Y-110241595D02*
X161766666Y-111355880D01*
X161828571Y-111479690D01*
X161952380Y-111541595D01*
X162076190Y-111541595D01*
X155947619Y-113634595D02*
X155947619Y-112334595D01*
X156380952Y-113263166D01*
X156814285Y-112334595D01*
X156814285Y-113634595D01*
X157309523Y-112334595D02*
X158114285Y-112334595D01*
X157680952Y-112829833D01*
X157866666Y-112829833D01*
X157990476Y-112891738D01*
X158052380Y-112953642D01*
X158114285Y-113077452D01*
X158114285Y-113386976D01*
X158052380Y-113510785D01*
X157990476Y-113572690D01*
X157866666Y-113634595D01*
X157495238Y-113634595D01*
X157371428Y-113572690D01*
X157309523Y-113510785D01*
D11*
X110038095Y-74700000D02*
X109942857Y-74652380D01*
X109800000Y-74652380D01*
X109657142Y-74700000D01*
X109561904Y-74795238D01*
X109514285Y-74890476D01*
X109466666Y-75080952D01*
X109466666Y-75223809D01*
X109514285Y-75414285D01*
X109561904Y-75509523D01*
X109657142Y-75604761D01*
X109800000Y-75652380D01*
X109895238Y-75652380D01*
X110038095Y-75604761D01*
X110085714Y-75557142D01*
X110085714Y-75223809D01*
X109895238Y-75223809D01*
X110514285Y-75652380D02*
X110514285Y-74652380D01*
X111085714Y-75652380D01*
X111085714Y-74652380D01*
X111561904Y-75652380D02*
X111561904Y-74652380D01*
X111800000Y-74652380D01*
X111942857Y-74700000D01*
X112038095Y-74795238D01*
X112085714Y-74890476D01*
X112133333Y-75080952D01*
X112133333Y-75223809D01*
X112085714Y-75414285D01*
X112038095Y-75509523D01*
X111942857Y-75604761D01*
X111800000Y-75652380D01*
X111561904Y-75652380D01*
X110738095Y-112952380D02*
X111309523Y-112952380D01*
X111023809Y-113952380D02*
X111023809Y-112952380D01*
X111547619Y-112952380D02*
X112214285Y-113952380D01*
X112214285Y-112952380D02*
X111547619Y-113952380D01*
X164833333Y-113952380D02*
X164500000Y-113476190D01*
X164261904Y-113952380D02*
X164261904Y-112952380D01*
X164642857Y-112952380D01*
X164738095Y-113000000D01*
X164785714Y-113047619D01*
X164833333Y-113142857D01*
X164833333Y-113285714D01*
X164785714Y-113380952D01*
X164738095Y-113428571D01*
X164642857Y-113476190D01*
X164261904Y-113476190D01*
X165166666Y-112952380D02*
X165833333Y-113952380D01*
X165833333Y-112952380D02*
X165166666Y-113952380D01*
X126333333Y-113952380D02*
X126000000Y-113476190D01*
X125761904Y-113952380D02*
X125761904Y-112952380D01*
X126142857Y-112952380D01*
X126238095Y-113000000D01*
X126285714Y-113047619D01*
X126333333Y-113142857D01*
X126333333Y-113285714D01*
X126285714Y-113380952D01*
X126238095Y-113428571D01*
X126142857Y-113476190D01*
X125761904Y-113476190D01*
X126666666Y-112952380D02*
X127333333Y-113952380D01*
X127333333Y-112952380D02*
X126666666Y-113952380D01*
X185409523Y-67952380D02*
X185076190Y-67476190D01*
X184838095Y-67952380D02*
X184838095Y-66952380D01*
X185219047Y-66952380D01*
X185314285Y-67000000D01*
X185361904Y-67047619D01*
X185409523Y-67142857D01*
X185409523Y-67285714D01*
X185361904Y-67380952D01*
X185314285Y-67428571D01*
X185219047Y-67476190D01*
X184838095Y-67476190D01*
X171709523Y-77100000D02*
X171614285Y-77052380D01*
X171471428Y-77052380D01*
X171328571Y-77100000D01*
X171233333Y-77195238D01*
X171185714Y-77290476D01*
X171138095Y-77480952D01*
X171138095Y-77623809D01*
X171185714Y-77814285D01*
X171233333Y-77909523D01*
X171328571Y-78004761D01*
X171471428Y-78052380D01*
X171566666Y-78052380D01*
X171709523Y-78004761D01*
X171757142Y-77957142D01*
X171757142Y-77623809D01*
X171566666Y-77623809D01*
X172185714Y-78052380D02*
X172185714Y-77052380D01*
X172566666Y-77052380D01*
X172661904Y-77100000D01*
X172709523Y-77147619D01*
X172757142Y-77242857D01*
X172757142Y-77385714D01*
X172709523Y-77480952D01*
X172661904Y-77528571D01*
X172566666Y-77576190D01*
X172185714Y-77576190D01*
X173138095Y-78004761D02*
X173280952Y-78052380D01*
X173519047Y-78052380D01*
X173614285Y-78004761D01*
X173661904Y-77957142D01*
X173709523Y-77861904D01*
X173709523Y-77766666D01*
X173661904Y-77671428D01*
X173614285Y-77623809D01*
X173519047Y-77576190D01*
X173328571Y-77528571D01*
X173233333Y-77480952D01*
X173185714Y-77433333D01*
X173138095Y-77338095D01*
X173138095Y-77242857D01*
X173185714Y-77147619D01*
X173233333Y-77100000D01*
X173328571Y-77052380D01*
X173566666Y-77052380D01*
X173709523Y-77100000D01*
X174090476Y-77147619D02*
X174138095Y-77100000D01*
X174233333Y-77052380D01*
X174471428Y-77052380D01*
X174566666Y-77100000D01*
X174614285Y-77147619D01*
X174661904Y-77242857D01*
X174661904Y-77338095D01*
X174614285Y-77480952D01*
X174042857Y-78052380D01*
X174661904Y-78052380D01*
X134105333Y-75470380D02*
X133772000Y-74994190D01*
X133533904Y-75470380D02*
X133533904Y-74470380D01*
X133914857Y-74470380D01*
X134010095Y-74518000D01*
X134057714Y-74565619D01*
X134105333Y-74660857D01*
X134105333Y-74803714D01*
X134057714Y-74898952D01*
X134010095Y-74946571D01*
X133914857Y-74994190D01*
X133533904Y-74994190D01*
X134438666Y-74470380D02*
X135105333Y-75470380D01*
X135105333Y-74470380D02*
X134438666Y-75470380D01*
X135988095Y-76992380D02*
X136559523Y-76992380D01*
X136273809Y-77992380D02*
X136273809Y-76992380D01*
X136797619Y-76992380D02*
X137464285Y-77992380D01*
X137464285Y-76992380D02*
X136797619Y-77992380D01*
X114633619Y-99796380D02*
X115252666Y-99796380D01*
X114919333Y-100177333D01*
X115062190Y-100177333D01*
X115157428Y-100224952D01*
X115205047Y-100272571D01*
X115252666Y-100367809D01*
X115252666Y-100605904D01*
X115205047Y-100701142D01*
X115157428Y-100748761D01*
X115062190Y-100796380D01*
X114776476Y-100796380D01*
X114681238Y-100748761D01*
X114633619Y-100701142D01*
X115538380Y-99796380D02*
X115871714Y-100796380D01*
X116205047Y-99796380D01*
X116443142Y-99796380D02*
X117062190Y-99796380D01*
X116728857Y-100177333D01*
X116871714Y-100177333D01*
X116966952Y-100224952D01*
X117014571Y-100272571D01*
X117062190Y-100367809D01*
X117062190Y-100605904D01*
X117014571Y-100701142D01*
X116966952Y-100748761D01*
X116871714Y-100796380D01*
X116586000Y-100796380D01*
X116490761Y-100748761D01*
X116443142Y-100701142D01*
X117490761Y-100796380D02*
X117490761Y-99796380D01*
X117919333Y-100748761D02*
X118062190Y-100796380D01*
X118300285Y-100796380D01*
X118395523Y-100748761D01*
X118443142Y-100701142D01*
X118490761Y-100605904D01*
X118490761Y-100510666D01*
X118443142Y-100415428D01*
X118395523Y-100367809D01*
X118300285Y-100320190D01*
X118109809Y-100272571D01*
X118014571Y-100224952D01*
X117966952Y-100177333D01*
X117919333Y-100082095D01*
X117919333Y-99986857D01*
X117966952Y-99891619D01*
X118014571Y-99844000D01*
X118109809Y-99796380D01*
X118347904Y-99796380D01*
X118490761Y-99844000D01*
X171714285Y-79552380D02*
X172285714Y-79552380D01*
X172000000Y-80552380D02*
X172000000Y-79552380D01*
X170409523Y-82452380D02*
X170076190Y-81976190D01*
X169838095Y-82452380D02*
X169838095Y-81452380D01*
X170219047Y-81452380D01*
X170314285Y-81500000D01*
X170361904Y-81547619D01*
X170409523Y-81642857D01*
X170409523Y-81785714D01*
X170361904Y-81880952D01*
X170314285Y-81928571D01*
X170219047Y-81976190D01*
X169838095Y-81976190D01*
D10*
X134414285Y-110860642D02*
X133980952Y-110860642D01*
X133980952Y-111541595D02*
X133980952Y-110241595D01*
X134600000Y-110241595D01*
X135095238Y-111541595D02*
X135095238Y-110674928D01*
X135095238Y-110922547D02*
X135157142Y-110798738D01*
X135219047Y-110736833D01*
X135342857Y-110674928D01*
X135466666Y-110674928D01*
X136085714Y-111541595D02*
X135961904Y-111479690D01*
X135900000Y-111417785D01*
X135838095Y-111293976D01*
X135838095Y-110922547D01*
X135900000Y-110798738D01*
X135961904Y-110736833D01*
X136085714Y-110674928D01*
X136271428Y-110674928D01*
X136395238Y-110736833D01*
X136457142Y-110798738D01*
X136519047Y-110922547D01*
X136519047Y-111293976D01*
X136457142Y-111417785D01*
X136395238Y-111479690D01*
X136271428Y-111541595D01*
X136085714Y-111541595D01*
X137076190Y-110674928D02*
X137076190Y-111541595D01*
X137076190Y-110798738D02*
X137138095Y-110736833D01*
X137261904Y-110674928D01*
X137447619Y-110674928D01*
X137571428Y-110736833D01*
X137633333Y-110860642D01*
X137633333Y-111541595D01*
X138066666Y-110674928D02*
X138561904Y-110674928D01*
X138252380Y-110241595D02*
X138252380Y-111355880D01*
X138314285Y-111479690D01*
X138438095Y-111541595D01*
X138561904Y-111541595D01*
X140604761Y-111541595D02*
X139985714Y-111541595D01*
X139985714Y-110241595D01*
X141533333Y-111479690D02*
X141409523Y-111541595D01*
X141161904Y-111541595D01*
X141038095Y-111479690D01*
X140976190Y-111355880D01*
X140976190Y-110860642D01*
X141038095Y-110736833D01*
X141161904Y-110674928D01*
X141409523Y-110674928D01*
X141533333Y-110736833D01*
X141595238Y-110860642D01*
X141595238Y-110984452D01*
X140976190Y-111108261D01*
X141966666Y-110674928D02*
X142461904Y-110674928D01*
X142152380Y-111541595D02*
X142152380Y-110427309D01*
X142214285Y-110303500D01*
X142338095Y-110241595D01*
X142461904Y-110241595D01*
X142709523Y-110674928D02*
X143204761Y-110674928D01*
X142895238Y-110241595D02*
X142895238Y-111355880D01*
X142957142Y-111479690D01*
X143080952Y-111541595D01*
X143204761Y-111541595D01*
X137447619Y-113634595D02*
X137447619Y-112334595D01*
X137880952Y-113263166D01*
X138314285Y-112334595D01*
X138314285Y-113634595D01*
X138871428Y-112458404D02*
X138933333Y-112396500D01*
X139057142Y-112334595D01*
X139366666Y-112334595D01*
X139490476Y-112396500D01*
X139552380Y-112458404D01*
X139614285Y-112582214D01*
X139614285Y-112706023D01*
X139552380Y-112891738D01*
X138809523Y-113634595D01*
X139614285Y-113634595D01*
D11*
X168238095Y-112952380D02*
X168809523Y-112952380D01*
X168523809Y-113952380D02*
X168523809Y-112952380D01*
X169047619Y-112952380D02*
X169714285Y-113952380D01*
X169714285Y-112952380D02*
X169047619Y-113952380D01*
D10*
X173033333Y-111541595D02*
X172600000Y-110922547D01*
X172290476Y-111541595D02*
X172290476Y-110241595D01*
X172785714Y-110241595D01*
X172909523Y-110303500D01*
X172971428Y-110365404D01*
X173033333Y-110489214D01*
X173033333Y-110674928D01*
X172971428Y-110798738D01*
X172909523Y-110860642D01*
X172785714Y-110922547D01*
X172290476Y-110922547D01*
X174085714Y-111479690D02*
X173961904Y-111541595D01*
X173714285Y-111541595D01*
X173590476Y-111479690D01*
X173528571Y-111355880D01*
X173528571Y-110860642D01*
X173590476Y-110736833D01*
X173714285Y-110674928D01*
X173961904Y-110674928D01*
X174085714Y-110736833D01*
X174147619Y-110860642D01*
X174147619Y-110984452D01*
X173528571Y-111108261D01*
X175261904Y-111541595D02*
X175261904Y-110860642D01*
X175200000Y-110736833D01*
X175076190Y-110674928D01*
X174828571Y-110674928D01*
X174704761Y-110736833D01*
X175261904Y-111479690D02*
X175138095Y-111541595D01*
X174828571Y-111541595D01*
X174704761Y-111479690D01*
X174642857Y-111355880D01*
X174642857Y-111232071D01*
X174704761Y-111108261D01*
X174828571Y-111046357D01*
X175138095Y-111046357D01*
X175261904Y-110984452D01*
X175880952Y-111541595D02*
X175880952Y-110674928D01*
X175880952Y-110922547D02*
X175942857Y-110798738D01*
X176004761Y-110736833D01*
X176128571Y-110674928D01*
X176252380Y-110674928D01*
X178295238Y-111541595D02*
X177676190Y-111541595D01*
X177676190Y-110241595D01*
X179223809Y-111479690D02*
X179100000Y-111541595D01*
X178852380Y-111541595D01*
X178728571Y-111479690D01*
X178666666Y-111355880D01*
X178666666Y-110860642D01*
X178728571Y-110736833D01*
X178852380Y-110674928D01*
X179100000Y-110674928D01*
X179223809Y-110736833D01*
X179285714Y-110860642D01*
X179285714Y-110984452D01*
X178666666Y-111108261D01*
X179657142Y-110674928D02*
X180152380Y-110674928D01*
X179842857Y-111541595D02*
X179842857Y-110427309D01*
X179904761Y-110303500D01*
X180028571Y-110241595D01*
X180152380Y-110241595D01*
X180400000Y-110674928D02*
X180895238Y-110674928D01*
X180585714Y-110241595D02*
X180585714Y-111355880D01*
X180647619Y-111479690D01*
X180771428Y-111541595D01*
X180895238Y-111541595D01*
X175447619Y-113634595D02*
X175447619Y-112334595D01*
X175880952Y-113263166D01*
X176314285Y-112334595D01*
X176314285Y-113634595D01*
X177490476Y-112767928D02*
X177490476Y-113634595D01*
X177180952Y-112272690D02*
X176871428Y-113201261D01*
X177676190Y-113201261D01*
D11*
X145333333Y-113952380D02*
X145000000Y-113476190D01*
X144761904Y-113952380D02*
X144761904Y-112952380D01*
X145142857Y-112952380D01*
X145238095Y-113000000D01*
X145285714Y-113047619D01*
X145333333Y-113142857D01*
X145333333Y-113285714D01*
X145285714Y-113380952D01*
X145238095Y-113428571D01*
X145142857Y-113476190D01*
X144761904Y-113476190D01*
X145666666Y-112952380D02*
X146333333Y-113952380D01*
X146333333Y-112952380D02*
X145666666Y-113952380D01*
X183833333Y-113952380D02*
X183500000Y-113476190D01*
X183261904Y-113952380D02*
X183261904Y-112952380D01*
X183642857Y-112952380D01*
X183738095Y-113000000D01*
X183785714Y-113047619D01*
X183833333Y-113142857D01*
X183833333Y-113285714D01*
X183785714Y-113380952D01*
X183738095Y-113428571D01*
X183642857Y-113476190D01*
X183261904Y-113476190D01*
X184166666Y-112952380D02*
X184833333Y-113952380D01*
X184833333Y-112952380D02*
X184166666Y-113952380D01*
X114233333Y-75852380D02*
X113900000Y-75376190D01*
X113661904Y-75852380D02*
X113661904Y-74852380D01*
X114042857Y-74852380D01*
X114138095Y-74900000D01*
X114185714Y-74947619D01*
X114233333Y-75042857D01*
X114233333Y-75185714D01*
X114185714Y-75280952D01*
X114138095Y-75328571D01*
X114042857Y-75376190D01*
X113661904Y-75376190D01*
X114566666Y-74852380D02*
X115233333Y-75852380D01*
X115233333Y-74852380D02*
X114566666Y-75852380D01*
X131957142Y-69857142D02*
X131909523Y-69904761D01*
X131766666Y-69952380D01*
X131671428Y-69952380D01*
X131528571Y-69904761D01*
X131433333Y-69809523D01*
X131385714Y-69714285D01*
X131338095Y-69523809D01*
X131338095Y-69380952D01*
X131385714Y-69190476D01*
X131433333Y-69095238D01*
X131528571Y-69000000D01*
X131671428Y-68952380D01*
X131766666Y-68952380D01*
X131909523Y-69000000D01*
X131957142Y-69047619D01*
X132338095Y-69904761D02*
X132480952Y-69952380D01*
X132719047Y-69952380D01*
X132814285Y-69904761D01*
X132861904Y-69857142D01*
X132909523Y-69761904D01*
X132909523Y-69666666D01*
X132861904Y-69571428D01*
X132814285Y-69523809D01*
X132719047Y-69476190D01*
X132528571Y-69428571D01*
X132433333Y-69380952D01*
X132385714Y-69333333D01*
X132338095Y-69238095D01*
X132338095Y-69142857D01*
X132385714Y-69047619D01*
X132433333Y-69000000D01*
X132528571Y-68952380D01*
X132766666Y-68952380D01*
X132909523Y-69000000D01*
X133290476Y-69047619D02*
X133338095Y-69000000D01*
X133433333Y-68952380D01*
X133671428Y-68952380D01*
X133766666Y-69000000D01*
X133814285Y-69047619D01*
X133861904Y-69142857D01*
X133861904Y-69238095D01*
X133814285Y-69380952D01*
X133242857Y-69952380D01*
X133861904Y-69952380D01*
X176357142Y-99607142D02*
X176309523Y-99654761D01*
X176166666Y-99702380D01*
X176071428Y-99702380D01*
X175928571Y-99654761D01*
X175833333Y-99559523D01*
X175785714Y-99464285D01*
X175738095Y-99273809D01*
X175738095Y-99130952D01*
X175785714Y-98940476D01*
X175833333Y-98845238D01*
X175928571Y-98750000D01*
X176071428Y-98702380D01*
X176166666Y-98702380D01*
X176309523Y-98750000D01*
X176357142Y-98797619D01*
X177309523Y-99702380D02*
X176738095Y-99702380D01*
X177023809Y-99702380D02*
X177023809Y-98702380D01*
X176928571Y-98845238D01*
X176833333Y-98940476D01*
X176738095Y-98988095D01*
X178166666Y-99035714D02*
X178166666Y-99702380D01*
X177928571Y-98654761D02*
X177690476Y-99369047D01*
X178309523Y-99369047D01*
X128103333Y-108402380D02*
X127770000Y-107926190D01*
X127531904Y-108402380D02*
X127531904Y-107402380D01*
X127912857Y-107402380D01*
X128008095Y-107450000D01*
X128055714Y-107497619D01*
X128103333Y-107592857D01*
X128103333Y-107735714D01*
X128055714Y-107830952D01*
X128008095Y-107878571D01*
X127912857Y-107926190D01*
X127531904Y-107926190D01*
X128674761Y-107830952D02*
X128579523Y-107783333D01*
X128531904Y-107735714D01*
X128484285Y-107640476D01*
X128484285Y-107592857D01*
X128531904Y-107497619D01*
X128579523Y-107450000D01*
X128674761Y-107402380D01*
X128865238Y-107402380D01*
X128960476Y-107450000D01*
X129008095Y-107497619D01*
X129055714Y-107592857D01*
X129055714Y-107640476D01*
X129008095Y-107735714D01*
X128960476Y-107783333D01*
X128865238Y-107830952D01*
X128674761Y-107830952D01*
X128579523Y-107878571D01*
X128531904Y-107926190D01*
X128484285Y-108021428D01*
X128484285Y-108211904D01*
X128531904Y-108307142D01*
X128579523Y-108354761D01*
X128674761Y-108402380D01*
X128865238Y-108402380D01*
X128960476Y-108354761D01*
X129008095Y-108307142D01*
X129055714Y-108211904D01*
X129055714Y-108021428D01*
X129008095Y-107926190D01*
X128960476Y-107878571D01*
X128865238Y-107830952D01*
X131350666Y-79254380D02*
X131350666Y-79968666D01*
X131303047Y-80111523D01*
X131207809Y-80206761D01*
X131064952Y-80254380D01*
X130969714Y-80254380D01*
X131731619Y-79254380D02*
X132350666Y-79254380D01*
X132017333Y-79635333D01*
X132160190Y-79635333D01*
X132255428Y-79682952D01*
X132303047Y-79730571D01*
X132350666Y-79825809D01*
X132350666Y-80063904D01*
X132303047Y-80159142D01*
X132255428Y-80206761D01*
X132160190Y-80254380D01*
X131874476Y-80254380D01*
X131779238Y-80206761D01*
X131731619Y-80159142D01*
X172331142Y-92305142D02*
X172283523Y-92352761D01*
X172140666Y-92400380D01*
X172045428Y-92400380D01*
X171902571Y-92352761D01*
X171807333Y-92257523D01*
X171759714Y-92162285D01*
X171712095Y-91971809D01*
X171712095Y-91828952D01*
X171759714Y-91638476D01*
X171807333Y-91543238D01*
X171902571Y-91448000D01*
X172045428Y-91400380D01*
X172140666Y-91400380D01*
X172283523Y-91448000D01*
X172331142Y-91495619D01*
X173283523Y-92400380D02*
X172712095Y-92400380D01*
X172997809Y-92400380D02*
X172997809Y-91400380D01*
X172902571Y-91543238D01*
X172807333Y-91638476D01*
X172712095Y-91686095D01*
X174235904Y-92400380D02*
X173664476Y-92400380D01*
X173950190Y-92400380D02*
X173950190Y-91400380D01*
X173854952Y-91543238D01*
X173759714Y-91638476D01*
X173664476Y-91686095D01*
X117589333Y-68337142D02*
X117541714Y-68384761D01*
X117398857Y-68432380D01*
X117303619Y-68432380D01*
X117160761Y-68384761D01*
X117065523Y-68289523D01*
X117017904Y-68194285D01*
X116970285Y-68003809D01*
X116970285Y-67860952D01*
X117017904Y-67670476D01*
X117065523Y-67575238D01*
X117160761Y-67480000D01*
X117303619Y-67432380D01*
X117398857Y-67432380D01*
X117541714Y-67480000D01*
X117589333Y-67527619D01*
X118065523Y-68432380D02*
X118256000Y-68432380D01*
X118351238Y-68384761D01*
X118398857Y-68337142D01*
X118494095Y-68194285D01*
X118541714Y-68003809D01*
X118541714Y-67622857D01*
X118494095Y-67527619D01*
X118446476Y-67480000D01*
X118351238Y-67432380D01*
X118160761Y-67432380D01*
X118065523Y-67480000D01*
X118017904Y-67527619D01*
X117970285Y-67622857D01*
X117970285Y-67860952D01*
X118017904Y-67956190D01*
X118065523Y-68003809D01*
X118160761Y-68051428D01*
X118351238Y-68051428D01*
X118446476Y-68003809D01*
X118494095Y-67956190D01*
X118541714Y-67860952D01*
X131457142Y-92407142D02*
X131409523Y-92454761D01*
X131266666Y-92502380D01*
X131171428Y-92502380D01*
X131028571Y-92454761D01*
X130933333Y-92359523D01*
X130885714Y-92264285D01*
X130838095Y-92073809D01*
X130838095Y-91930952D01*
X130885714Y-91740476D01*
X130933333Y-91645238D01*
X131028571Y-91550000D01*
X131171428Y-91502380D01*
X131266666Y-91502380D01*
X131409523Y-91550000D01*
X131457142Y-91597619D01*
X132409523Y-92502380D02*
X131838095Y-92502380D01*
X132123809Y-92502380D02*
X132123809Y-91502380D01*
X132028571Y-91645238D01*
X131933333Y-91740476D01*
X131838095Y-91788095D01*
X132790476Y-91597619D02*
X132838095Y-91550000D01*
X132933333Y-91502380D01*
X133171428Y-91502380D01*
X133266666Y-91550000D01*
X133314285Y-91597619D01*
X133361904Y-91692857D01*
X133361904Y-91788095D01*
X133314285Y-91930952D01*
X132742857Y-92502380D01*
X133361904Y-92502380D01*
X153866666Y-79477380D02*
X153866666Y-80191666D01*
X153819047Y-80334523D01*
X153723809Y-80429761D01*
X153580952Y-80477380D01*
X153485714Y-80477380D01*
X154771428Y-79477380D02*
X154580952Y-79477380D01*
X154485714Y-79525000D01*
X154438095Y-79572619D01*
X154342857Y-79715476D01*
X154295238Y-79905952D01*
X154295238Y-80286904D01*
X154342857Y-80382142D01*
X154390476Y-80429761D01*
X154485714Y-80477380D01*
X154676190Y-80477380D01*
X154771428Y-80429761D01*
X154819047Y-80382142D01*
X154866666Y-80286904D01*
X154866666Y-80048809D01*
X154819047Y-79953571D01*
X154771428Y-79905952D01*
X154676190Y-79858333D01*
X154485714Y-79858333D01*
X154390476Y-79905952D01*
X154342857Y-79953571D01*
X154295238Y-80048809D01*
X138938095Y-82510380D02*
X138938095Y-83319904D01*
X138985714Y-83415142D01*
X139033333Y-83462761D01*
X139128571Y-83510380D01*
X139319047Y-83510380D01*
X139414285Y-83462761D01*
X139461904Y-83415142D01*
X139509523Y-83319904D01*
X139509523Y-82510380D01*
X140461904Y-82510380D02*
X139985714Y-82510380D01*
X139938095Y-82986571D01*
X139985714Y-82938952D01*
X140080952Y-82891333D01*
X140319047Y-82891333D01*
X140414285Y-82938952D01*
X140461904Y-82986571D01*
X140509523Y-83081809D01*
X140509523Y-83319904D01*
X140461904Y-83415142D01*
X140414285Y-83462761D01*
X140319047Y-83510380D01*
X140080952Y-83510380D01*
X139985714Y-83462761D01*
X139938095Y-83415142D01*
X142652380Y-84200000D02*
X142890476Y-84200000D01*
X142795238Y-84438095D02*
X142890476Y-84200000D01*
X142795238Y-83961904D01*
X143080952Y-84342857D02*
X142890476Y-84200000D01*
X143080952Y-84057142D01*
X144357142Y-92057142D02*
X144309523Y-92104761D01*
X144166666Y-92152380D01*
X144071428Y-92152380D01*
X143928571Y-92104761D01*
X143833333Y-92009523D01*
X143785714Y-91914285D01*
X143738095Y-91723809D01*
X143738095Y-91580952D01*
X143785714Y-91390476D01*
X143833333Y-91295238D01*
X143928571Y-91200000D01*
X144071428Y-91152380D01*
X144166666Y-91152380D01*
X144309523Y-91200000D01*
X144357142Y-91247619D01*
X145309523Y-92152380D02*
X144738095Y-92152380D01*
X145023809Y-92152380D02*
X145023809Y-91152380D01*
X144928571Y-91295238D01*
X144833333Y-91390476D01*
X144738095Y-91438095D01*
X145928571Y-91152380D02*
X146023809Y-91152380D01*
X146119047Y-91200000D01*
X146166666Y-91247619D01*
X146214285Y-91342857D01*
X146261904Y-91533333D01*
X146261904Y-91771428D01*
X146214285Y-91961904D01*
X146166666Y-92057142D01*
X146119047Y-92104761D01*
X146023809Y-92152380D01*
X145928571Y-92152380D01*
X145833333Y-92104761D01*
X145785714Y-92057142D01*
X145738095Y-91961904D01*
X145690476Y-91771428D01*
X145690476Y-91533333D01*
X145738095Y-91342857D01*
X145785714Y-91247619D01*
X145833333Y-91200000D01*
X145928571Y-91152380D01*
X131437142Y-96210380D02*
X131103809Y-95734190D01*
X130865714Y-96210380D02*
X130865714Y-95210380D01*
X131246666Y-95210380D01*
X131341904Y-95258000D01*
X131389523Y-95305619D01*
X131437142Y-95400857D01*
X131437142Y-95543714D01*
X131389523Y-95638952D01*
X131341904Y-95686571D01*
X131246666Y-95734190D01*
X130865714Y-95734190D01*
X132389523Y-96210380D02*
X131818095Y-96210380D01*
X132103809Y-96210380D02*
X132103809Y-95210380D01*
X132008571Y-95353238D01*
X131913333Y-95448476D01*
X131818095Y-95496095D01*
X133294285Y-95210380D02*
X132818095Y-95210380D01*
X132770476Y-95686571D01*
X132818095Y-95638952D01*
X132913333Y-95591333D01*
X133151428Y-95591333D01*
X133246666Y-95638952D01*
X133294285Y-95686571D01*
X133341904Y-95781809D01*
X133341904Y-96019904D01*
X133294285Y-96115142D01*
X133246666Y-96162761D01*
X133151428Y-96210380D01*
X132913333Y-96210380D01*
X132818095Y-96162761D01*
X132770476Y-96115142D01*
X161061904Y-108252380D02*
X161061904Y-107252380D01*
X161300000Y-107252380D01*
X161442857Y-107300000D01*
X161538095Y-107395238D01*
X161585714Y-107490476D01*
X161633333Y-107680952D01*
X161633333Y-107823809D01*
X161585714Y-108014285D01*
X161538095Y-108109523D01*
X161442857Y-108204761D01*
X161300000Y-108252380D01*
X161061904Y-108252380D01*
X162490476Y-107585714D02*
X162490476Y-108252380D01*
X162252380Y-107204761D02*
X162014285Y-107919047D01*
X162633333Y-107919047D01*
X149383904Y-93178380D02*
X149383904Y-93987904D01*
X149431523Y-94083142D01*
X149479142Y-94130761D01*
X149574380Y-94178380D01*
X149764857Y-94178380D01*
X149860095Y-94130761D01*
X149907714Y-94083142D01*
X149955333Y-93987904D01*
X149955333Y-93178380D01*
X150955333Y-94178380D02*
X150383904Y-94178380D01*
X150669619Y-94178380D02*
X150669619Y-93178380D01*
X150574380Y-93321238D01*
X150479142Y-93416476D01*
X150383904Y-93464095D01*
X151907714Y-94178380D02*
X151336285Y-94178380D01*
X151622000Y-94178380D02*
X151622000Y-93178380D01*
X151526761Y-93321238D01*
X151431523Y-93416476D01*
X151336285Y-93464095D01*
X124123809Y-67428190D02*
X124123809Y-67904380D01*
X123790476Y-66904380D02*
X124123809Y-67428190D01*
X124457142Y-66904380D01*
X124695238Y-66904380D02*
X125314285Y-66904380D01*
X124980952Y-67285333D01*
X125123809Y-67285333D01*
X125219047Y-67332952D01*
X125266666Y-67380571D01*
X125314285Y-67475809D01*
X125314285Y-67713904D01*
X125266666Y-67809142D01*
X125219047Y-67856761D01*
X125123809Y-67904380D01*
X124838095Y-67904380D01*
X124742857Y-67856761D01*
X124695238Y-67809142D01*
X119761904Y-107952380D02*
X119761904Y-106952380D01*
X120000000Y-106952380D01*
X120142857Y-107000000D01*
X120238095Y-107095238D01*
X120285714Y-107190476D01*
X120333333Y-107380952D01*
X120333333Y-107523809D01*
X120285714Y-107714285D01*
X120238095Y-107809523D01*
X120142857Y-107904761D01*
X120000000Y-107952380D01*
X119761904Y-107952380D01*
X121285714Y-107952380D02*
X120714285Y-107952380D01*
X121000000Y-107952380D02*
X121000000Y-106952380D01*
X120904761Y-107095238D01*
X120809523Y-107190476D01*
X120714285Y-107238095D01*
X149217142Y-95956380D02*
X148883809Y-95480190D01*
X148645714Y-95956380D02*
X148645714Y-94956380D01*
X149026666Y-94956380D01*
X149121904Y-95004000D01*
X149169523Y-95051619D01*
X149217142Y-95146857D01*
X149217142Y-95289714D01*
X149169523Y-95384952D01*
X149121904Y-95432571D01*
X149026666Y-95480190D01*
X148645714Y-95480190D01*
X149598095Y-95051619D02*
X149645714Y-95004000D01*
X149740952Y-94956380D01*
X149979047Y-94956380D01*
X150074285Y-95004000D01*
X150121904Y-95051619D01*
X150169523Y-95146857D01*
X150169523Y-95242095D01*
X150121904Y-95384952D01*
X149550476Y-95956380D01*
X150169523Y-95956380D01*
X150502857Y-94956380D02*
X151169523Y-94956380D01*
X150740952Y-95956380D01*
X184132142Y-88402380D02*
X183798809Y-87926190D01*
X183560714Y-88402380D02*
X183560714Y-87402380D01*
X183941666Y-87402380D01*
X184036904Y-87450000D01*
X184084523Y-87497619D01*
X184132142Y-87592857D01*
X184132142Y-87735714D01*
X184084523Y-87830952D01*
X184036904Y-87878571D01*
X183941666Y-87926190D01*
X183560714Y-87926190D01*
X184465476Y-87402380D02*
X185084523Y-87402380D01*
X184751190Y-87783333D01*
X184894047Y-87783333D01*
X184989285Y-87830952D01*
X185036904Y-87878571D01*
X185084523Y-87973809D01*
X185084523Y-88211904D01*
X185036904Y-88307142D01*
X184989285Y-88354761D01*
X184894047Y-88402380D01*
X184608333Y-88402380D01*
X184513095Y-88354761D01*
X184465476Y-88307142D01*
X185560714Y-88402380D02*
X185751190Y-88402380D01*
X185846428Y-88354761D01*
X185894047Y-88307142D01*
X185989285Y-88164285D01*
X186036904Y-87973809D01*
X186036904Y-87592857D01*
X185989285Y-87497619D01*
X185941666Y-87450000D01*
X185846428Y-87402380D01*
X185655952Y-87402380D01*
X185560714Y-87450000D01*
X185513095Y-87497619D01*
X185465476Y-87592857D01*
X185465476Y-87830952D01*
X185513095Y-87926190D01*
X185560714Y-87973809D01*
X185655952Y-88021428D01*
X185846428Y-88021428D01*
X185941666Y-87973809D01*
X185989285Y-87926190D01*
X186036904Y-87830952D01*
X124579142Y-108402380D02*
X124245809Y-107926190D01*
X124007714Y-108402380D02*
X124007714Y-107402380D01*
X124388666Y-107402380D01*
X124483904Y-107450000D01*
X124531523Y-107497619D01*
X124579142Y-107592857D01*
X124579142Y-107735714D01*
X124531523Y-107830952D01*
X124483904Y-107878571D01*
X124388666Y-107926190D01*
X124007714Y-107926190D01*
X125531523Y-108402380D02*
X124960095Y-108402380D01*
X125245809Y-108402380D02*
X125245809Y-107402380D01*
X125150571Y-107545238D01*
X125055333Y-107640476D01*
X124960095Y-107688095D01*
X126007714Y-108402380D02*
X126198190Y-108402380D01*
X126293428Y-108354761D01*
X126341047Y-108307142D01*
X126436285Y-108164285D01*
X126483904Y-107973809D01*
X126483904Y-107592857D01*
X126436285Y-107497619D01*
X126388666Y-107450000D01*
X126293428Y-107402380D01*
X126102952Y-107402380D01*
X126007714Y-107450000D01*
X125960095Y-107497619D01*
X125912476Y-107592857D01*
X125912476Y-107830952D01*
X125960095Y-107926190D01*
X126007714Y-107973809D01*
X126102952Y-108021428D01*
X126293428Y-108021428D01*
X126388666Y-107973809D01*
X126436285Y-107926190D01*
X126483904Y-107830952D01*
X155857142Y-108952380D02*
X155523809Y-108476190D01*
X155285714Y-108952380D02*
X155285714Y-107952380D01*
X155666666Y-107952380D01*
X155761904Y-108000000D01*
X155809523Y-108047619D01*
X155857142Y-108142857D01*
X155857142Y-108285714D01*
X155809523Y-108380952D01*
X155761904Y-108428571D01*
X155666666Y-108476190D01*
X155285714Y-108476190D01*
X156809523Y-108952380D02*
X156238095Y-108952380D01*
X156523809Y-108952380D02*
X156523809Y-107952380D01*
X156428571Y-108095238D01*
X156333333Y-108190476D01*
X156238095Y-108238095D01*
X157190476Y-108047619D02*
X157238095Y-108000000D01*
X157333333Y-107952380D01*
X157571428Y-107952380D01*
X157666666Y-108000000D01*
X157714285Y-108047619D01*
X157761904Y-108142857D01*
X157761904Y-108238095D01*
X157714285Y-108380952D01*
X157142857Y-108952380D01*
X157761904Y-108952380D01*
X151857142Y-108952380D02*
X151523809Y-108476190D01*
X151285714Y-108952380D02*
X151285714Y-107952380D01*
X151666666Y-107952380D01*
X151761904Y-108000000D01*
X151809523Y-108047619D01*
X151857142Y-108142857D01*
X151857142Y-108285714D01*
X151809523Y-108380952D01*
X151761904Y-108428571D01*
X151666666Y-108476190D01*
X151285714Y-108476190D01*
X152238095Y-108047619D02*
X152285714Y-108000000D01*
X152380952Y-107952380D01*
X152619047Y-107952380D01*
X152714285Y-108000000D01*
X152761904Y-108047619D01*
X152809523Y-108142857D01*
X152809523Y-108238095D01*
X152761904Y-108380952D01*
X152190476Y-108952380D01*
X152809523Y-108952380D01*
X153714285Y-107952380D02*
X153238095Y-107952380D01*
X153190476Y-108428571D01*
X153238095Y-108380952D01*
X153333333Y-108333333D01*
X153571428Y-108333333D01*
X153666666Y-108380952D01*
X153714285Y-108428571D01*
X153761904Y-108523809D01*
X153761904Y-108761904D01*
X153714285Y-108857142D01*
X153666666Y-108904761D01*
X153571428Y-108952380D01*
X153333333Y-108952380D01*
X153238095Y-108904761D01*
X153190476Y-108857142D01*
X144461904Y-103322380D02*
X144461904Y-102322380D01*
X144700000Y-102322380D01*
X144842857Y-102370000D01*
X144938095Y-102465238D01*
X144985714Y-102560476D01*
X145033333Y-102750952D01*
X145033333Y-102893809D01*
X144985714Y-103084285D01*
X144938095Y-103179523D01*
X144842857Y-103274761D01*
X144700000Y-103322380D01*
X144461904Y-103322380D01*
X145890476Y-102322380D02*
X145700000Y-102322380D01*
X145604761Y-102370000D01*
X145557142Y-102417619D01*
X145461904Y-102560476D01*
X145414285Y-102750952D01*
X145414285Y-103131904D01*
X145461904Y-103227142D01*
X145509523Y-103274761D01*
X145604761Y-103322380D01*
X145795238Y-103322380D01*
X145890476Y-103274761D01*
X145938095Y-103227142D01*
X145985714Y-103131904D01*
X145985714Y-102893809D01*
X145938095Y-102798571D01*
X145890476Y-102750952D01*
X145795238Y-102703333D01*
X145604761Y-102703333D01*
X145509523Y-102750952D01*
X145461904Y-102798571D01*
X145414285Y-102893809D01*
X147761904Y-108652380D02*
X147761904Y-107652380D01*
X148000000Y-107652380D01*
X148142857Y-107700000D01*
X148238095Y-107795238D01*
X148285714Y-107890476D01*
X148333333Y-108080952D01*
X148333333Y-108223809D01*
X148285714Y-108414285D01*
X148238095Y-108509523D01*
X148142857Y-108604761D01*
X148000000Y-108652380D01*
X147761904Y-108652380D01*
X148666666Y-107652380D02*
X149285714Y-107652380D01*
X148952380Y-108033333D01*
X149095238Y-108033333D01*
X149190476Y-108080952D01*
X149238095Y-108128571D01*
X149285714Y-108223809D01*
X149285714Y-108461904D01*
X149238095Y-108557142D01*
X149190476Y-108604761D01*
X149095238Y-108652380D01*
X148809523Y-108652380D01*
X148714285Y-108604761D01*
X148666666Y-108557142D01*
X154333333Y-69752380D02*
X154000000Y-69276190D01*
X153761904Y-69752380D02*
X153761904Y-68752380D01*
X154142857Y-68752380D01*
X154238095Y-68800000D01*
X154285714Y-68847619D01*
X154333333Y-68942857D01*
X154333333Y-69085714D01*
X154285714Y-69180952D01*
X154238095Y-69228571D01*
X154142857Y-69276190D01*
X153761904Y-69276190D01*
X154666666Y-68752380D02*
X155285714Y-68752380D01*
X154952380Y-69133333D01*
X155095238Y-69133333D01*
X155190476Y-69180952D01*
X155238095Y-69228571D01*
X155285714Y-69323809D01*
X155285714Y-69561904D01*
X155238095Y-69657142D01*
X155190476Y-69704761D01*
X155095238Y-69752380D01*
X154809523Y-69752380D01*
X154714285Y-69704761D01*
X154666666Y-69657142D01*
X141565333Y-101036380D02*
X141232000Y-100560190D01*
X140993904Y-101036380D02*
X140993904Y-100036380D01*
X141374857Y-100036380D01*
X141470095Y-100084000D01*
X141517714Y-100131619D01*
X141565333Y-100226857D01*
X141565333Y-100369714D01*
X141517714Y-100464952D01*
X141470095Y-100512571D01*
X141374857Y-100560190D01*
X140993904Y-100560190D01*
X142041523Y-101036380D02*
X142232000Y-101036380D01*
X142327238Y-100988761D01*
X142374857Y-100941142D01*
X142470095Y-100798285D01*
X142517714Y-100607809D01*
X142517714Y-100226857D01*
X142470095Y-100131619D01*
X142422476Y-100084000D01*
X142327238Y-100036380D01*
X142136761Y-100036380D01*
X142041523Y-100084000D01*
X141993904Y-100131619D01*
X141946285Y-100226857D01*
X141946285Y-100464952D01*
X141993904Y-100560190D01*
X142041523Y-100607809D01*
X142136761Y-100655428D01*
X142327238Y-100655428D01*
X142422476Y-100607809D01*
X142470095Y-100560190D01*
X142517714Y-100464952D01*
X152265142Y-101036380D02*
X151931809Y-100560190D01*
X151693714Y-101036380D02*
X151693714Y-100036380D01*
X152074666Y-100036380D01*
X152169904Y-100084000D01*
X152217523Y-100131619D01*
X152265142Y-100226857D01*
X152265142Y-100369714D01*
X152217523Y-100464952D01*
X152169904Y-100512571D01*
X152074666Y-100560190D01*
X151693714Y-100560190D01*
X152646095Y-100131619D02*
X152693714Y-100084000D01*
X152788952Y-100036380D01*
X153027047Y-100036380D01*
X153122285Y-100084000D01*
X153169904Y-100131619D01*
X153217523Y-100226857D01*
X153217523Y-100322095D01*
X153169904Y-100464952D01*
X152598476Y-101036380D01*
X153217523Y-101036380D01*
X154074666Y-100036380D02*
X153884190Y-100036380D01*
X153788952Y-100084000D01*
X153741333Y-100131619D01*
X153646095Y-100274476D01*
X153598476Y-100464952D01*
X153598476Y-100845904D01*
X153646095Y-100941142D01*
X153693714Y-100988761D01*
X153788952Y-101036380D01*
X153979428Y-101036380D01*
X154074666Y-100988761D01*
X154122285Y-100941142D01*
X154169904Y-100845904D01*
X154169904Y-100607809D01*
X154122285Y-100512571D01*
X154074666Y-100464952D01*
X153979428Y-100417333D01*
X153788952Y-100417333D01*
X153693714Y-100464952D01*
X153646095Y-100512571D01*
X153598476Y-100607809D01*
X171315142Y-85752380D02*
X170981809Y-85276190D01*
X170743714Y-85752380D02*
X170743714Y-84752380D01*
X171124666Y-84752380D01*
X171219904Y-84800000D01*
X171267523Y-84847619D01*
X171315142Y-84942857D01*
X171315142Y-85085714D01*
X171267523Y-85180952D01*
X171219904Y-85228571D01*
X171124666Y-85276190D01*
X170743714Y-85276190D01*
X171648476Y-84752380D02*
X172267523Y-84752380D01*
X171934190Y-85133333D01*
X172077047Y-85133333D01*
X172172285Y-85180952D01*
X172219904Y-85228571D01*
X172267523Y-85323809D01*
X172267523Y-85561904D01*
X172219904Y-85657142D01*
X172172285Y-85704761D01*
X172077047Y-85752380D01*
X171791333Y-85752380D01*
X171696095Y-85704761D01*
X171648476Y-85657142D01*
X172600857Y-84752380D02*
X173267523Y-84752380D01*
X172838952Y-85752380D01*
X158861904Y-103352380D02*
X158861904Y-102352380D01*
X159100000Y-102352380D01*
X159242857Y-102400000D01*
X159338095Y-102495238D01*
X159385714Y-102590476D01*
X159433333Y-102780952D01*
X159433333Y-102923809D01*
X159385714Y-103114285D01*
X159338095Y-103209523D01*
X159242857Y-103304761D01*
X159100000Y-103352380D01*
X158861904Y-103352380D01*
X159766666Y-102352380D02*
X160433333Y-102352380D01*
X160004761Y-103352380D01*
X181785714Y-99402380D02*
X181785714Y-98402380D01*
X182023809Y-98402380D01*
X182166666Y-98450000D01*
X182261904Y-98545238D01*
X182309523Y-98640476D01*
X182357142Y-98830952D01*
X182357142Y-98973809D01*
X182309523Y-99164285D01*
X182261904Y-99259523D01*
X182166666Y-99354761D01*
X182023809Y-99402380D01*
X181785714Y-99402380D01*
X183309523Y-99402380D02*
X182738095Y-99402380D01*
X183023809Y-99402380D02*
X183023809Y-98402380D01*
X182928571Y-98545238D01*
X182833333Y-98640476D01*
X182738095Y-98688095D01*
X183928571Y-98402380D02*
X184023809Y-98402380D01*
X184119047Y-98450000D01*
X184166666Y-98497619D01*
X184214285Y-98592857D01*
X184261904Y-98783333D01*
X184261904Y-99021428D01*
X184214285Y-99211904D01*
X184166666Y-99307142D01*
X184119047Y-99354761D01*
X184023809Y-99402380D01*
X183928571Y-99402380D01*
X183833333Y-99354761D01*
X183785714Y-99307142D01*
X183738095Y-99211904D01*
X183690476Y-99021428D01*
X183690476Y-98783333D01*
X183738095Y-98592857D01*
X183785714Y-98497619D01*
X183833333Y-98450000D01*
X183928571Y-98402380D01*
X141166666Y-112952380D02*
X141166666Y-113666666D01*
X141119047Y-113809523D01*
X141023809Y-113904761D01*
X140880952Y-113952380D01*
X140785714Y-113952380D01*
X141785714Y-113380952D02*
X141690476Y-113333333D01*
X141642857Y-113285714D01*
X141595238Y-113190476D01*
X141595238Y-113142857D01*
X141642857Y-113047619D01*
X141690476Y-113000000D01*
X141785714Y-112952380D01*
X141976190Y-112952380D01*
X142071428Y-113000000D01*
X142119047Y-113047619D01*
X142166666Y-113142857D01*
X142166666Y-113190476D01*
X142119047Y-113285714D01*
X142071428Y-113333333D01*
X141976190Y-113380952D01*
X141785714Y-113380952D01*
X141690476Y-113428571D01*
X141642857Y-113476190D01*
X141595238Y-113571428D01*
X141595238Y-113761904D01*
X141642857Y-113857142D01*
X141690476Y-113904761D01*
X141785714Y-113952380D01*
X141976190Y-113952380D01*
X142071428Y-113904761D01*
X142119047Y-113857142D01*
X142166666Y-113761904D01*
X142166666Y-113571428D01*
X142119047Y-113476190D01*
X142071428Y-113428571D01*
X141976190Y-113380952D01*
X133723142Y-90622380D02*
X133389809Y-90146190D01*
X133151714Y-90622380D02*
X133151714Y-89622380D01*
X133532666Y-89622380D01*
X133627904Y-89670000D01*
X133675523Y-89717619D01*
X133723142Y-89812857D01*
X133723142Y-89955714D01*
X133675523Y-90050952D01*
X133627904Y-90098571D01*
X133532666Y-90146190D01*
X133151714Y-90146190D01*
X134056476Y-89622380D02*
X134675523Y-89622380D01*
X134342190Y-90003333D01*
X134485047Y-90003333D01*
X134580285Y-90050952D01*
X134627904Y-90098571D01*
X134675523Y-90193809D01*
X134675523Y-90431904D01*
X134627904Y-90527142D01*
X134580285Y-90574761D01*
X134485047Y-90622380D01*
X134199333Y-90622380D01*
X134104095Y-90574761D01*
X134056476Y-90527142D01*
X135532666Y-89955714D02*
X135532666Y-90622380D01*
X135294571Y-89574761D02*
X135056476Y-90289047D01*
X135675523Y-90289047D01*
X133373904Y-108148380D02*
X133373904Y-107148380D01*
X133612000Y-107148380D01*
X133754857Y-107196000D01*
X133850095Y-107291238D01*
X133897714Y-107386476D01*
X133945333Y-107576952D01*
X133945333Y-107719809D01*
X133897714Y-107910285D01*
X133850095Y-108005523D01*
X133754857Y-108100761D01*
X133612000Y-108148380D01*
X133373904Y-108148380D01*
X134326285Y-107243619D02*
X134373904Y-107196000D01*
X134469142Y-107148380D01*
X134707238Y-107148380D01*
X134802476Y-107196000D01*
X134850095Y-107243619D01*
X134897714Y-107338857D01*
X134897714Y-107434095D01*
X134850095Y-107576952D01*
X134278666Y-108148380D01*
X134897714Y-108148380D01*
X143957142Y-85652380D02*
X143623809Y-85176190D01*
X143385714Y-85652380D02*
X143385714Y-84652380D01*
X143766666Y-84652380D01*
X143861904Y-84700000D01*
X143909523Y-84747619D01*
X143957142Y-84842857D01*
X143957142Y-84985714D01*
X143909523Y-85080952D01*
X143861904Y-85128571D01*
X143766666Y-85176190D01*
X143385714Y-85176190D01*
X144290476Y-84652380D02*
X144909523Y-84652380D01*
X144576190Y-85033333D01*
X144719047Y-85033333D01*
X144814285Y-85080952D01*
X144861904Y-85128571D01*
X144909523Y-85223809D01*
X144909523Y-85461904D01*
X144861904Y-85557142D01*
X144814285Y-85604761D01*
X144719047Y-85652380D01*
X144433333Y-85652380D01*
X144338095Y-85604761D01*
X144290476Y-85557142D01*
X145242857Y-84652380D02*
X145861904Y-84652380D01*
X145528571Y-85033333D01*
X145671428Y-85033333D01*
X145766666Y-85080952D01*
X145814285Y-85128571D01*
X145861904Y-85223809D01*
X145861904Y-85461904D01*
X145814285Y-85557142D01*
X145766666Y-85604761D01*
X145671428Y-85652380D01*
X145385714Y-85652380D01*
X145290476Y-85604761D01*
X145242857Y-85557142D01*
X151733333Y-68257142D02*
X151685714Y-68304761D01*
X151542857Y-68352380D01*
X151447619Y-68352380D01*
X151304761Y-68304761D01*
X151209523Y-68209523D01*
X151161904Y-68114285D01*
X151114285Y-67923809D01*
X151114285Y-67780952D01*
X151161904Y-67590476D01*
X151209523Y-67495238D01*
X151304761Y-67400000D01*
X151447619Y-67352380D01*
X151542857Y-67352380D01*
X151685714Y-67400000D01*
X151733333Y-67447619D01*
X152066666Y-67352380D02*
X152685714Y-67352380D01*
X152352380Y-67733333D01*
X152495238Y-67733333D01*
X152590476Y-67780952D01*
X152638095Y-67828571D01*
X152685714Y-67923809D01*
X152685714Y-68161904D01*
X152638095Y-68257142D01*
X152590476Y-68304761D01*
X152495238Y-68352380D01*
X152209523Y-68352380D01*
X152114285Y-68304761D01*
X152066666Y-68257142D01*
X141343142Y-108402380D02*
X141009809Y-107926190D01*
X140771714Y-108402380D02*
X140771714Y-107402380D01*
X141152666Y-107402380D01*
X141247904Y-107450000D01*
X141295523Y-107497619D01*
X141343142Y-107592857D01*
X141343142Y-107735714D01*
X141295523Y-107830952D01*
X141247904Y-107878571D01*
X141152666Y-107926190D01*
X140771714Y-107926190D01*
X142295523Y-108402380D02*
X141724095Y-108402380D01*
X142009809Y-108402380D02*
X142009809Y-107402380D01*
X141914571Y-107545238D01*
X141819333Y-107640476D01*
X141724095Y-107688095D01*
X142914571Y-107402380D02*
X143009809Y-107402380D01*
X143105047Y-107450000D01*
X143152666Y-107497619D01*
X143200285Y-107592857D01*
X143247904Y-107783333D01*
X143247904Y-108021428D01*
X143200285Y-108211904D01*
X143152666Y-108307142D01*
X143105047Y-108354761D01*
X143009809Y-108402380D01*
X142914571Y-108402380D01*
X142819333Y-108354761D01*
X142771714Y-108307142D01*
X142724095Y-108211904D01*
X142676476Y-108021428D01*
X142676476Y-107783333D01*
X142724095Y-107592857D01*
X142771714Y-107497619D01*
X142819333Y-107450000D01*
X142914571Y-107402380D01*
X143883142Y-96210380D02*
X143549809Y-95734190D01*
X143311714Y-96210380D02*
X143311714Y-95210380D01*
X143692666Y-95210380D01*
X143787904Y-95258000D01*
X143835523Y-95305619D01*
X143883142Y-95400857D01*
X143883142Y-95543714D01*
X143835523Y-95638952D01*
X143787904Y-95686571D01*
X143692666Y-95734190D01*
X143311714Y-95734190D01*
X144835523Y-96210380D02*
X144264095Y-96210380D01*
X144549809Y-96210380D02*
X144549809Y-95210380D01*
X144454571Y-95353238D01*
X144359333Y-95448476D01*
X144264095Y-95496095D01*
X145692666Y-95210380D02*
X145502190Y-95210380D01*
X145406952Y-95258000D01*
X145359333Y-95305619D01*
X145264095Y-95448476D01*
X145216476Y-95638952D01*
X145216476Y-96019904D01*
X145264095Y-96115142D01*
X145311714Y-96162761D01*
X145406952Y-96210380D01*
X145597428Y-96210380D01*
X145692666Y-96162761D01*
X145740285Y-96115142D01*
X145787904Y-96019904D01*
X145787904Y-95781809D01*
X145740285Y-95686571D01*
X145692666Y-95638952D01*
X145597428Y-95591333D01*
X145406952Y-95591333D01*
X145311714Y-95638952D01*
X145264095Y-95686571D01*
X145216476Y-95781809D01*
X115233333Y-68384880D02*
X114900000Y-67908690D01*
X114661904Y-68384880D02*
X114661904Y-67384880D01*
X115042857Y-67384880D01*
X115138095Y-67432500D01*
X115185714Y-67480119D01*
X115233333Y-67575357D01*
X115233333Y-67718214D01*
X115185714Y-67813452D01*
X115138095Y-67861071D01*
X115042857Y-67908690D01*
X114661904Y-67908690D01*
X116090476Y-67384880D02*
X115900000Y-67384880D01*
X115804761Y-67432500D01*
X115757142Y-67480119D01*
X115661904Y-67622976D01*
X115614285Y-67813452D01*
X115614285Y-68194404D01*
X115661904Y-68289642D01*
X115709523Y-68337261D01*
X115804761Y-68384880D01*
X115995238Y-68384880D01*
X116090476Y-68337261D01*
X116138095Y-68289642D01*
X116185714Y-68194404D01*
X116185714Y-67956309D01*
X116138095Y-67861071D01*
X116090476Y-67813452D01*
X115995238Y-67765833D01*
X115804761Y-67765833D01*
X115709523Y-67813452D01*
X115661904Y-67861071D01*
X115614285Y-67956309D01*
X120083333Y-68307142D02*
X120035714Y-68354761D01*
X119892857Y-68402380D01*
X119797619Y-68402380D01*
X119654761Y-68354761D01*
X119559523Y-68259523D01*
X119511904Y-68164285D01*
X119464285Y-67973809D01*
X119464285Y-67830952D01*
X119511904Y-67640476D01*
X119559523Y-67545238D01*
X119654761Y-67450000D01*
X119797619Y-67402380D01*
X119892857Y-67402380D01*
X120035714Y-67450000D01*
X120083333Y-67497619D01*
X120940476Y-67402380D02*
X120750000Y-67402380D01*
X120654761Y-67450000D01*
X120607142Y-67497619D01*
X120511904Y-67640476D01*
X120464285Y-67830952D01*
X120464285Y-68211904D01*
X120511904Y-68307142D01*
X120559523Y-68354761D01*
X120654761Y-68402380D01*
X120845238Y-68402380D01*
X120940476Y-68354761D01*
X120988095Y-68307142D01*
X121035714Y-68211904D01*
X121035714Y-67973809D01*
X120988095Y-67878571D01*
X120940476Y-67830952D01*
X120845238Y-67783333D01*
X120654761Y-67783333D01*
X120559523Y-67830952D01*
X120511904Y-67878571D01*
X120464285Y-67973809D01*
X123916666Y-112952380D02*
X123916666Y-113666666D01*
X123869047Y-113809523D01*
X123773809Y-113904761D01*
X123630952Y-113952380D01*
X123535714Y-113952380D01*
X124297619Y-112952380D02*
X124964285Y-112952380D01*
X124535714Y-113952380D01*
X125087142Y-101036380D02*
X124753809Y-100560190D01*
X124515714Y-101036380D02*
X124515714Y-100036380D01*
X124896666Y-100036380D01*
X124991904Y-100084000D01*
X125039523Y-100131619D01*
X125087142Y-100226857D01*
X125087142Y-100369714D01*
X125039523Y-100464952D01*
X124991904Y-100512571D01*
X124896666Y-100560190D01*
X124515714Y-100560190D01*
X125468095Y-100131619D02*
X125515714Y-100084000D01*
X125610952Y-100036380D01*
X125849047Y-100036380D01*
X125944285Y-100084000D01*
X125991904Y-100131619D01*
X126039523Y-100226857D01*
X126039523Y-100322095D01*
X125991904Y-100464952D01*
X125420476Y-101036380D01*
X126039523Y-101036380D01*
X126658571Y-100036380D02*
X126753809Y-100036380D01*
X126849047Y-100084000D01*
X126896666Y-100131619D01*
X126944285Y-100226857D01*
X126991904Y-100417333D01*
X126991904Y-100655428D01*
X126944285Y-100845904D01*
X126896666Y-100941142D01*
X126849047Y-100988761D01*
X126753809Y-101036380D01*
X126658571Y-101036380D01*
X126563333Y-100988761D01*
X126515714Y-100941142D01*
X126468095Y-100845904D01*
X126420476Y-100655428D01*
X126420476Y-100417333D01*
X126468095Y-100226857D01*
X126515714Y-100131619D01*
X126563333Y-100084000D01*
X126658571Y-100036380D01*
X169029142Y-101036380D02*
X168695809Y-100560190D01*
X168457714Y-101036380D02*
X168457714Y-100036380D01*
X168838666Y-100036380D01*
X168933904Y-100084000D01*
X168981523Y-100131619D01*
X169029142Y-100226857D01*
X169029142Y-100369714D01*
X168981523Y-100464952D01*
X168933904Y-100512571D01*
X168838666Y-100560190D01*
X168457714Y-100560190D01*
X169981523Y-101036380D02*
X169410095Y-101036380D01*
X169695809Y-101036380D02*
X169695809Y-100036380D01*
X169600571Y-100179238D01*
X169505333Y-100274476D01*
X169410095Y-100322095D01*
X170314857Y-100036380D02*
X170933904Y-100036380D01*
X170600571Y-100417333D01*
X170743428Y-100417333D01*
X170838666Y-100464952D01*
X170886285Y-100512571D01*
X170933904Y-100607809D01*
X170933904Y-100845904D01*
X170886285Y-100941142D01*
X170838666Y-100988761D01*
X170743428Y-101036380D01*
X170457714Y-101036380D01*
X170362476Y-100988761D01*
X170314857Y-100941142D01*
X120838095Y-81052380D02*
X120838095Y-81861904D01*
X120885714Y-81957142D01*
X120933333Y-82004761D01*
X121028571Y-82052380D01*
X121219047Y-82052380D01*
X121314285Y-82004761D01*
X121361904Y-81957142D01*
X121409523Y-81861904D01*
X121409523Y-81052380D01*
X121790476Y-81052380D02*
X122409523Y-81052380D01*
X122076190Y-81433333D01*
X122219047Y-81433333D01*
X122314285Y-81480952D01*
X122361904Y-81528571D01*
X122409523Y-81623809D01*
X122409523Y-81861904D01*
X122361904Y-81957142D01*
X122314285Y-82004761D01*
X122219047Y-82052380D01*
X121933333Y-82052380D01*
X121838095Y-82004761D01*
X121790476Y-81957142D01*
X165038095Y-82352380D02*
X165038095Y-83161904D01*
X165085714Y-83257142D01*
X165133333Y-83304761D01*
X165228571Y-83352380D01*
X165419047Y-83352380D01*
X165514285Y-83304761D01*
X165561904Y-83257142D01*
X165609523Y-83161904D01*
X165609523Y-82352380D01*
X165990476Y-82352380D02*
X166657142Y-82352380D01*
X166228571Y-83352380D01*
X170252380Y-84200000D02*
X170490476Y-84200000D01*
X170395238Y-84438095D02*
X170490476Y-84200000D01*
X170395238Y-83961904D01*
X170680952Y-84342857D02*
X170490476Y-84200000D01*
X170680952Y-84057142D01*
X158757142Y-91957142D02*
X158709523Y-92004761D01*
X158566666Y-92052380D01*
X158471428Y-92052380D01*
X158328571Y-92004761D01*
X158233333Y-91909523D01*
X158185714Y-91814285D01*
X158138095Y-91623809D01*
X158138095Y-91480952D01*
X158185714Y-91290476D01*
X158233333Y-91195238D01*
X158328571Y-91100000D01*
X158471428Y-91052380D01*
X158566666Y-91052380D01*
X158709523Y-91100000D01*
X158757142Y-91147619D01*
X159709523Y-92052380D02*
X159138095Y-92052380D01*
X159423809Y-92052380D02*
X159423809Y-91052380D01*
X159328571Y-91195238D01*
X159233333Y-91290476D01*
X159138095Y-91338095D01*
X160042857Y-91052380D02*
X160661904Y-91052380D01*
X160328571Y-91433333D01*
X160471428Y-91433333D01*
X160566666Y-91480952D01*
X160614285Y-91528571D01*
X160661904Y-91623809D01*
X160661904Y-91861904D01*
X160614285Y-91957142D01*
X160566666Y-92004761D01*
X160471428Y-92052380D01*
X160185714Y-92052380D01*
X160090476Y-92004761D01*
X160042857Y-91957142D01*
X137533142Y-101036380D02*
X137199809Y-100560190D01*
X136961714Y-101036380D02*
X136961714Y-100036380D01*
X137342666Y-100036380D01*
X137437904Y-100084000D01*
X137485523Y-100131619D01*
X137533142Y-100226857D01*
X137533142Y-100369714D01*
X137485523Y-100464952D01*
X137437904Y-100512571D01*
X137342666Y-100560190D01*
X136961714Y-100560190D01*
X137914095Y-100131619D02*
X137961714Y-100084000D01*
X138056952Y-100036380D01*
X138295047Y-100036380D01*
X138390285Y-100084000D01*
X138437904Y-100131619D01*
X138485523Y-100226857D01*
X138485523Y-100322095D01*
X138437904Y-100464952D01*
X137866476Y-101036380D01*
X138485523Y-101036380D01*
X138818857Y-100036380D02*
X139437904Y-100036380D01*
X139104571Y-100417333D01*
X139247428Y-100417333D01*
X139342666Y-100464952D01*
X139390285Y-100512571D01*
X139437904Y-100607809D01*
X139437904Y-100845904D01*
X139390285Y-100941142D01*
X139342666Y-100988761D01*
X139247428Y-101036380D01*
X138961714Y-101036380D01*
X138866476Y-100988761D01*
X138818857Y-100941142D01*
X171761904Y-83052380D02*
X171761904Y-83861904D01*
X171809523Y-83957142D01*
X171857142Y-84004761D01*
X171952380Y-84052380D01*
X172142857Y-84052380D01*
X172238095Y-84004761D01*
X172285714Y-83957142D01*
X172333333Y-83861904D01*
X172333333Y-83052380D01*
X173333333Y-84052380D02*
X172761904Y-84052380D01*
X173047619Y-84052380D02*
X173047619Y-83052380D01*
X172952380Y-83195238D01*
X172857142Y-83290476D01*
X172761904Y-83338095D01*
X173666666Y-83052380D02*
X174285714Y-83052380D01*
X173952380Y-83433333D01*
X174095238Y-83433333D01*
X174190476Y-83480952D01*
X174238095Y-83528571D01*
X174285714Y-83623809D01*
X174285714Y-83861904D01*
X174238095Y-83957142D01*
X174190476Y-84004761D01*
X174095238Y-84052380D01*
X173809523Y-84052380D01*
X173714285Y-84004761D01*
X173666666Y-83957142D01*
X180140580Y-84676200D02*
X180378676Y-84676200D01*
X180283438Y-84914295D02*
X180378676Y-84676200D01*
X180283438Y-84438104D01*
X180569152Y-84819057D02*
X180378676Y-84676200D01*
X180569152Y-84533342D01*
X135233333Y-70052380D02*
X134900000Y-69576190D01*
X134661904Y-70052380D02*
X134661904Y-69052380D01*
X135042857Y-69052380D01*
X135138095Y-69100000D01*
X135185714Y-69147619D01*
X135233333Y-69242857D01*
X135233333Y-69385714D01*
X135185714Y-69480952D01*
X135138095Y-69528571D01*
X135042857Y-69576190D01*
X134661904Y-69576190D01*
X136090476Y-69385714D02*
X136090476Y-70052380D01*
X135852380Y-69004761D02*
X135614285Y-69719047D01*
X136233333Y-69719047D01*
X161166666Y-112952380D02*
X161166666Y-113666666D01*
X161119047Y-113809523D01*
X161023809Y-113904761D01*
X160880952Y-113952380D01*
X160785714Y-113952380D01*
X161690476Y-113952380D02*
X161880952Y-113952380D01*
X161976190Y-113904761D01*
X162023809Y-113857142D01*
X162119047Y-113714285D01*
X162166666Y-113523809D01*
X162166666Y-113142857D01*
X162119047Y-113047619D01*
X162071428Y-113000000D01*
X161976190Y-112952380D01*
X161785714Y-112952380D01*
X161690476Y-113000000D01*
X161642857Y-113047619D01*
X161595238Y-113142857D01*
X161595238Y-113380952D01*
X161642857Y-113476190D01*
X161690476Y-113523809D01*
X161785714Y-113571428D01*
X161976190Y-113571428D01*
X162071428Y-113523809D01*
X162119047Y-113476190D01*
X162166666Y-113380952D01*
X122174095Y-93178380D02*
X122174095Y-93987904D01*
X122221714Y-94083142D01*
X122269333Y-94130761D01*
X122364571Y-94178380D01*
X122555047Y-94178380D01*
X122650285Y-94130761D01*
X122697904Y-94083142D01*
X122745523Y-93987904D01*
X122745523Y-93178380D01*
X123269333Y-94178380D02*
X123459809Y-94178380D01*
X123555047Y-94130761D01*
X123602666Y-94083142D01*
X123697904Y-93940285D01*
X123745523Y-93749809D01*
X123745523Y-93368857D01*
X123697904Y-93273619D01*
X123650285Y-93226000D01*
X123555047Y-93178380D01*
X123364571Y-93178380D01*
X123269333Y-93226000D01*
X123221714Y-93273619D01*
X123174095Y-93368857D01*
X123174095Y-93606952D01*
X123221714Y-93702190D01*
X123269333Y-93749809D01*
X123364571Y-93797428D01*
X123555047Y-93797428D01*
X123650285Y-93749809D01*
X123697904Y-93702190D01*
X123745523Y-93606952D01*
X131849904Y-103322380D02*
X131849904Y-102322380D01*
X132088000Y-102322380D01*
X132230857Y-102370000D01*
X132326095Y-102465238D01*
X132373714Y-102560476D01*
X132421333Y-102750952D01*
X132421333Y-102893809D01*
X132373714Y-103084285D01*
X132326095Y-103179523D01*
X132230857Y-103274761D01*
X132088000Y-103322380D01*
X131849904Y-103322380D01*
X133326095Y-102322380D02*
X132849904Y-102322380D01*
X132802285Y-102798571D01*
X132849904Y-102750952D01*
X132945142Y-102703333D01*
X133183238Y-102703333D01*
X133278476Y-102750952D01*
X133326095Y-102798571D01*
X133373714Y-102893809D01*
X133373714Y-103131904D01*
X133326095Y-103227142D01*
X133278476Y-103274761D01*
X133183238Y-103322380D01*
X132945142Y-103322380D01*
X132849904Y-103274761D01*
X132802285Y-103227142D01*
X153578095Y-82510380D02*
X153578095Y-83319904D01*
X153625714Y-83415142D01*
X153673333Y-83462761D01*
X153768571Y-83510380D01*
X153959047Y-83510380D01*
X154054285Y-83462761D01*
X154101904Y-83415142D01*
X154149523Y-83319904D01*
X154149523Y-82510380D01*
X155054285Y-82510380D02*
X154863809Y-82510380D01*
X154768571Y-82558000D01*
X154720952Y-82605619D01*
X154625714Y-82748476D01*
X154578095Y-82938952D01*
X154578095Y-83319904D01*
X154625714Y-83415142D01*
X154673333Y-83462761D01*
X154768571Y-83510380D01*
X154959047Y-83510380D01*
X155054285Y-83462761D01*
X155101904Y-83415142D01*
X155149523Y-83319904D01*
X155149523Y-83081809D01*
X155101904Y-82986571D01*
X155054285Y-82938952D01*
X154959047Y-82891333D01*
X154768571Y-82891333D01*
X154673333Y-82938952D01*
X154625714Y-82986571D01*
X154578095Y-83081809D01*
X157252380Y-84000000D02*
X157490476Y-84000000D01*
X157395238Y-84238095D02*
X157490476Y-84000000D01*
X157395238Y-83761904D01*
X157680952Y-84142857D02*
X157490476Y-84000000D01*
X157680952Y-83857142D01*
X142465333Y-68235142D02*
X142417714Y-68282761D01*
X142274857Y-68330380D01*
X142179619Y-68330380D01*
X142036761Y-68282761D01*
X141941523Y-68187523D01*
X141893904Y-68092285D01*
X141846285Y-67901809D01*
X141846285Y-67758952D01*
X141893904Y-67568476D01*
X141941523Y-67473238D01*
X142036761Y-67378000D01*
X142179619Y-67330380D01*
X142274857Y-67330380D01*
X142417714Y-67378000D01*
X142465333Y-67425619D01*
X143322476Y-67663714D02*
X143322476Y-68330380D01*
X143084380Y-67282761D02*
X142846285Y-67997047D01*
X143465333Y-67997047D01*
X156075142Y-101036380D02*
X155741809Y-100560190D01*
X155503714Y-101036380D02*
X155503714Y-100036380D01*
X155884666Y-100036380D01*
X155979904Y-100084000D01*
X156027523Y-100131619D01*
X156075142Y-100226857D01*
X156075142Y-100369714D01*
X156027523Y-100464952D01*
X155979904Y-100512571D01*
X155884666Y-100560190D01*
X155503714Y-100560190D01*
X157027523Y-101036380D02*
X156456095Y-101036380D01*
X156741809Y-101036380D02*
X156741809Y-100036380D01*
X156646571Y-100179238D01*
X156551333Y-100274476D01*
X156456095Y-100322095D01*
X157979904Y-101036380D02*
X157408476Y-101036380D01*
X157694190Y-101036380D02*
X157694190Y-100036380D01*
X157598952Y-100179238D01*
X157503714Y-100274476D01*
X157408476Y-100322095D01*
X128633333Y-68357142D02*
X128585714Y-68404761D01*
X128442857Y-68452380D01*
X128347619Y-68452380D01*
X128204761Y-68404761D01*
X128109523Y-68309523D01*
X128061904Y-68214285D01*
X128014285Y-68023809D01*
X128014285Y-67880952D01*
X128061904Y-67690476D01*
X128109523Y-67595238D01*
X128204761Y-67500000D01*
X128347619Y-67452380D01*
X128442857Y-67452380D01*
X128585714Y-67500000D01*
X128633333Y-67547619D01*
X129538095Y-67452380D02*
X129061904Y-67452380D01*
X129014285Y-67928571D01*
X129061904Y-67880952D01*
X129157142Y-67833333D01*
X129395238Y-67833333D01*
X129490476Y-67880952D01*
X129538095Y-67928571D01*
X129585714Y-68023809D01*
X129585714Y-68261904D01*
X129538095Y-68357142D01*
X129490476Y-68404761D01*
X129395238Y-68452380D01*
X129157142Y-68452380D01*
X129061904Y-68404761D01*
X129014285Y-68357142D01*
X164837142Y-100982380D02*
X164503809Y-100506190D01*
X164265714Y-100982380D02*
X164265714Y-99982380D01*
X164646666Y-99982380D01*
X164741904Y-100030000D01*
X164789523Y-100077619D01*
X164837142Y-100172857D01*
X164837142Y-100315714D01*
X164789523Y-100410952D01*
X164741904Y-100458571D01*
X164646666Y-100506190D01*
X164265714Y-100506190D01*
X165218095Y-100077619D02*
X165265714Y-100030000D01*
X165360952Y-99982380D01*
X165599047Y-99982380D01*
X165694285Y-100030000D01*
X165741904Y-100077619D01*
X165789523Y-100172857D01*
X165789523Y-100268095D01*
X165741904Y-100410952D01*
X165170476Y-100982380D01*
X165789523Y-100982380D01*
X166265714Y-100982380D02*
X166456190Y-100982380D01*
X166551428Y-100934761D01*
X166599047Y-100887142D01*
X166694285Y-100744285D01*
X166741904Y-100553809D01*
X166741904Y-100172857D01*
X166694285Y-100077619D01*
X166646666Y-100030000D01*
X166551428Y-99982380D01*
X166360952Y-99982380D01*
X166265714Y-100030000D01*
X166218095Y-100077619D01*
X166170476Y-100172857D01*
X166170476Y-100410952D01*
X166218095Y-100506190D01*
X166265714Y-100553809D01*
X166360952Y-100601428D01*
X166551428Y-100601428D01*
X166646666Y-100553809D01*
X166694285Y-100506190D01*
X166741904Y-100410952D01*
X129119333Y-101036380D02*
X128786000Y-100560190D01*
X128547904Y-101036380D02*
X128547904Y-100036380D01*
X128928857Y-100036380D01*
X129024095Y-100084000D01*
X129071714Y-100131619D01*
X129119333Y-100226857D01*
X129119333Y-100369714D01*
X129071714Y-100464952D01*
X129024095Y-100512571D01*
X128928857Y-100560190D01*
X128547904Y-100560190D01*
X129452666Y-100036380D02*
X130119333Y-100036380D01*
X129690761Y-101036380D01*
X116266666Y-79852380D02*
X116266666Y-80566666D01*
X116219047Y-80709523D01*
X116123809Y-80804761D01*
X115980952Y-80852380D01*
X115885714Y-80852380D01*
X117171428Y-80185714D02*
X117171428Y-80852380D01*
X116933333Y-79804761D02*
X116695238Y-80519047D01*
X117314285Y-80519047D01*
X138151666Y-79494380D02*
X138151666Y-80208666D01*
X138104047Y-80351523D01*
X138008809Y-80446761D01*
X137865952Y-80494380D01*
X137770714Y-80494380D01*
X139104047Y-79494380D02*
X138627857Y-79494380D01*
X138580238Y-79970571D01*
X138627857Y-79922952D01*
X138723095Y-79875333D01*
X138961190Y-79875333D01*
X139056428Y-79922952D01*
X139104047Y-79970571D01*
X139151666Y-80065809D01*
X139151666Y-80303904D01*
X139104047Y-80399142D01*
X139056428Y-80446761D01*
X138961190Y-80494380D01*
X138723095Y-80494380D01*
X138627857Y-80446761D01*
X138580238Y-80399142D01*
X147945809Y-67376190D02*
X147945809Y-67852380D01*
X147612476Y-66852380D02*
X147945809Y-67376190D01*
X148279142Y-66852380D01*
X148564857Y-66947619D02*
X148612476Y-66900000D01*
X148707714Y-66852380D01*
X148945809Y-66852380D01*
X149041047Y-66900000D01*
X149088666Y-66947619D01*
X149136285Y-67042857D01*
X149136285Y-67138095D01*
X149088666Y-67280952D01*
X148517238Y-67852380D01*
X149136285Y-67852380D01*
X122039142Y-95956380D02*
X121705809Y-95480190D01*
X121467714Y-95956380D02*
X121467714Y-94956380D01*
X121848666Y-94956380D01*
X121943904Y-95004000D01*
X121991523Y-95051619D01*
X122039142Y-95146857D01*
X122039142Y-95289714D01*
X121991523Y-95384952D01*
X121943904Y-95432571D01*
X121848666Y-95480190D01*
X121467714Y-95480190D01*
X122420095Y-95051619D02*
X122467714Y-95004000D01*
X122562952Y-94956380D01*
X122801047Y-94956380D01*
X122896285Y-95004000D01*
X122943904Y-95051619D01*
X122991523Y-95146857D01*
X122991523Y-95242095D01*
X122943904Y-95384952D01*
X122372476Y-95956380D01*
X122991523Y-95956380D01*
X123943904Y-95956380D02*
X123372476Y-95956380D01*
X123658190Y-95956380D02*
X123658190Y-94956380D01*
X123562952Y-95099238D01*
X123467714Y-95194476D01*
X123372476Y-95242095D01*
X158357142Y-85652380D02*
X158023809Y-85176190D01*
X157785714Y-85652380D02*
X157785714Y-84652380D01*
X158166666Y-84652380D01*
X158261904Y-84700000D01*
X158309523Y-84747619D01*
X158357142Y-84842857D01*
X158357142Y-84985714D01*
X158309523Y-85080952D01*
X158261904Y-85128571D01*
X158166666Y-85176190D01*
X157785714Y-85176190D01*
X158690476Y-84652380D02*
X159309523Y-84652380D01*
X158976190Y-85033333D01*
X159119047Y-85033333D01*
X159214285Y-85080952D01*
X159261904Y-85128571D01*
X159309523Y-85223809D01*
X159309523Y-85461904D01*
X159261904Y-85557142D01*
X159214285Y-85604761D01*
X159119047Y-85652380D01*
X158833333Y-85652380D01*
X158738095Y-85604761D01*
X158690476Y-85557142D01*
X160214285Y-84652380D02*
X159738095Y-84652380D01*
X159690476Y-85128571D01*
X159738095Y-85080952D01*
X159833333Y-85033333D01*
X160071428Y-85033333D01*
X160166666Y-85080952D01*
X160214285Y-85128571D01*
X160261904Y-85223809D01*
X160261904Y-85461904D01*
X160214285Y-85557142D01*
X160166666Y-85604761D01*
X160071428Y-85652380D01*
X159833333Y-85652380D01*
X159738095Y-85604761D01*
X159690476Y-85557142D01*
X135017333Y-72254380D02*
X134684000Y-71778190D01*
X134445904Y-72254380D02*
X134445904Y-71254380D01*
X134826857Y-71254380D01*
X134922095Y-71302000D01*
X134969714Y-71349619D01*
X135017333Y-71444857D01*
X135017333Y-71587714D01*
X134969714Y-71682952D01*
X134922095Y-71730571D01*
X134826857Y-71778190D01*
X134445904Y-71778190D01*
X135922095Y-71254380D02*
X135445904Y-71254380D01*
X135398285Y-71730571D01*
X135445904Y-71682952D01*
X135541142Y-71635333D01*
X135779238Y-71635333D01*
X135874476Y-71682952D01*
X135922095Y-71730571D01*
X135969714Y-71825809D01*
X135969714Y-72063904D01*
X135922095Y-72159142D01*
X135874476Y-72206761D01*
X135779238Y-72254380D01*
X135541142Y-72254380D01*
X135445904Y-72206761D01*
X135398285Y-72159142D01*
X162171142Y-95956380D02*
X161837809Y-95480190D01*
X161599714Y-95956380D02*
X161599714Y-94956380D01*
X161980666Y-94956380D01*
X162075904Y-95004000D01*
X162123523Y-95051619D01*
X162171142Y-95146857D01*
X162171142Y-95289714D01*
X162123523Y-95384952D01*
X162075904Y-95432571D01*
X161980666Y-95480190D01*
X161599714Y-95480190D01*
X162504476Y-94956380D02*
X163123523Y-94956380D01*
X162790190Y-95337333D01*
X162933047Y-95337333D01*
X163028285Y-95384952D01*
X163075904Y-95432571D01*
X163123523Y-95527809D01*
X163123523Y-95765904D01*
X163075904Y-95861142D01*
X163028285Y-95908761D01*
X162933047Y-95956380D01*
X162647333Y-95956380D01*
X162552095Y-95908761D01*
X162504476Y-95861142D01*
X163742571Y-94956380D02*
X163837809Y-94956380D01*
X163933047Y-95004000D01*
X163980666Y-95051619D01*
X164028285Y-95146857D01*
X164075904Y-95337333D01*
X164075904Y-95575428D01*
X164028285Y-95765904D01*
X163980666Y-95861142D01*
X163933047Y-95908761D01*
X163837809Y-95956380D01*
X163742571Y-95956380D01*
X163647333Y-95908761D01*
X163599714Y-95861142D01*
X163552095Y-95765904D01*
X163504476Y-95575428D01*
X163504476Y-95337333D01*
X163552095Y-95146857D01*
X163599714Y-95051619D01*
X163647333Y-95004000D01*
X163742571Y-94956380D01*
X148709142Y-90622380D02*
X148375809Y-90146190D01*
X148137714Y-90622380D02*
X148137714Y-89622380D01*
X148518666Y-89622380D01*
X148613904Y-89670000D01*
X148661523Y-89717619D01*
X148709142Y-89812857D01*
X148709142Y-89955714D01*
X148661523Y-90050952D01*
X148613904Y-90098571D01*
X148518666Y-90146190D01*
X148137714Y-90146190D01*
X149042476Y-89622380D02*
X149661523Y-89622380D01*
X149328190Y-90003333D01*
X149471047Y-90003333D01*
X149566285Y-90050952D01*
X149613904Y-90098571D01*
X149661523Y-90193809D01*
X149661523Y-90431904D01*
X149613904Y-90527142D01*
X149566285Y-90574761D01*
X149471047Y-90622380D01*
X149185333Y-90622380D01*
X149090095Y-90574761D01*
X149042476Y-90527142D01*
X150518666Y-89622380D02*
X150328190Y-89622380D01*
X150232952Y-89670000D01*
X150185333Y-89717619D01*
X150090095Y-89860476D01*
X150042476Y-90050952D01*
X150042476Y-90431904D01*
X150090095Y-90527142D01*
X150137714Y-90574761D01*
X150232952Y-90622380D01*
X150423428Y-90622380D01*
X150518666Y-90574761D01*
X150566285Y-90527142D01*
X150613904Y-90431904D01*
X150613904Y-90193809D01*
X150566285Y-90098571D01*
X150518666Y-90050952D01*
X150423428Y-90003333D01*
X150232952Y-90003333D01*
X150137714Y-90050952D01*
X150090095Y-90098571D01*
X150042476Y-90193809D01*
X139815333Y-68260142D02*
X139767714Y-68307761D01*
X139624857Y-68355380D01*
X139529619Y-68355380D01*
X139386761Y-68307761D01*
X139291523Y-68212523D01*
X139243904Y-68117285D01*
X139196285Y-67926809D01*
X139196285Y-67783952D01*
X139243904Y-67593476D01*
X139291523Y-67498238D01*
X139386761Y-67403000D01*
X139529619Y-67355380D01*
X139624857Y-67355380D01*
X139767714Y-67403000D01*
X139815333Y-67450619D01*
X140386761Y-67783952D02*
X140291523Y-67736333D01*
X140243904Y-67688714D01*
X140196285Y-67593476D01*
X140196285Y-67545857D01*
X140243904Y-67450619D01*
X140291523Y-67403000D01*
X140386761Y-67355380D01*
X140577238Y-67355380D01*
X140672476Y-67403000D01*
X140720095Y-67450619D01*
X140767714Y-67545857D01*
X140767714Y-67593476D01*
X140720095Y-67688714D01*
X140672476Y-67736333D01*
X140577238Y-67783952D01*
X140386761Y-67783952D01*
X140291523Y-67831571D01*
X140243904Y-67879190D01*
X140196285Y-67974428D01*
X140196285Y-68164904D01*
X140243904Y-68260142D01*
X140291523Y-68307761D01*
X140386761Y-68355380D01*
X140577238Y-68355380D01*
X140672476Y-68307761D01*
X140720095Y-68260142D01*
X140767714Y-68164904D01*
X140767714Y-67974428D01*
X140720095Y-67879190D01*
X140672476Y-67831571D01*
X140577238Y-67783952D01*
X178961904Y-92152380D02*
X178961904Y-91152380D01*
X179200000Y-91152380D01*
X179342857Y-91200000D01*
X179438095Y-91295238D01*
X179485714Y-91390476D01*
X179533333Y-91580952D01*
X179533333Y-91723809D01*
X179485714Y-91914285D01*
X179438095Y-92009523D01*
X179342857Y-92104761D01*
X179200000Y-92152380D01*
X178961904Y-92152380D01*
X180009523Y-92152380D02*
X180200000Y-92152380D01*
X180295238Y-92104761D01*
X180342857Y-92057142D01*
X180438095Y-91914285D01*
X180485714Y-91723809D01*
X180485714Y-91342857D01*
X180438095Y-91247619D01*
X180390476Y-91200000D01*
X180295238Y-91152380D01*
X180104761Y-91152380D01*
X180009523Y-91200000D01*
X179961904Y-91247619D01*
X179914285Y-91342857D01*
X179914285Y-91580952D01*
X179961904Y-91676190D01*
X180009523Y-91723809D01*
X180104761Y-91771428D01*
X180295238Y-91771428D01*
X180390476Y-91723809D01*
X180438095Y-91676190D01*
X180485714Y-91580952D01*
X126523095Y-82510380D02*
X126523095Y-83319904D01*
X126570714Y-83415142D01*
X126618333Y-83462761D01*
X126713571Y-83510380D01*
X126904047Y-83510380D01*
X126999285Y-83462761D01*
X127046904Y-83415142D01*
X127094523Y-83319904D01*
X127094523Y-82510380D01*
X127999285Y-82843714D02*
X127999285Y-83510380D01*
X127761190Y-82462761D02*
X127523095Y-83177047D01*
X128142142Y-83177047D01*
X130252380Y-83800000D02*
X130490476Y-83800000D01*
X130395238Y-84038095D02*
X130490476Y-83800000D01*
X130395238Y-83561904D01*
X130680952Y-83942857D02*
X130490476Y-83800000D01*
X130680952Y-83657142D01*
X179440476Y-112952380D02*
X179440476Y-113666666D01*
X179392857Y-113809523D01*
X179297619Y-113904761D01*
X179154761Y-113952380D01*
X179059523Y-113952380D01*
X180440476Y-113952380D02*
X179869047Y-113952380D01*
X180154761Y-113952380D02*
X180154761Y-112952380D01*
X180059523Y-113095238D01*
X179964285Y-113190476D01*
X179869047Y-113238095D01*
X181059523Y-112952380D02*
X181154761Y-112952380D01*
X181250000Y-113000000D01*
X181297619Y-113047619D01*
X181345238Y-113142857D01*
X181392857Y-113333333D01*
X181392857Y-113571428D01*
X181345238Y-113761904D01*
X181297619Y-113857142D01*
X181250000Y-113904761D01*
X181154761Y-113952380D01*
X181059523Y-113952380D01*
X180964285Y-113904761D01*
X180916666Y-113857142D01*
X180869047Y-113761904D01*
X180821428Y-113571428D01*
X180821428Y-113333333D01*
X180869047Y-113142857D01*
X180916666Y-113047619D01*
X180964285Y-113000000D01*
X181059523Y-112952380D01*
X142438095Y-81052380D02*
X142438095Y-81861904D01*
X142485714Y-81957142D01*
X142533333Y-82004761D01*
X142628571Y-82052380D01*
X142819047Y-82052380D01*
X142914285Y-82004761D01*
X142961904Y-81957142D01*
X143009523Y-81861904D01*
X143009523Y-81052380D01*
X143438095Y-81147619D02*
X143485714Y-81100000D01*
X143580952Y-81052380D01*
X143819047Y-81052380D01*
X143914285Y-81100000D01*
X143961904Y-81147619D01*
X144009523Y-81242857D01*
X144009523Y-81338095D01*
X143961904Y-81480952D01*
X143390476Y-82052380D01*
X144009523Y-82052380D01*
X172235904Y-103322380D02*
X172235904Y-102322380D01*
X172474000Y-102322380D01*
X172616857Y-102370000D01*
X172712095Y-102465238D01*
X172759714Y-102560476D01*
X172807333Y-102750952D01*
X172807333Y-102893809D01*
X172759714Y-103084285D01*
X172712095Y-103179523D01*
X172616857Y-103274761D01*
X172474000Y-103322380D01*
X172235904Y-103322380D01*
X173378761Y-102750952D02*
X173283523Y-102703333D01*
X173235904Y-102655714D01*
X173188285Y-102560476D01*
X173188285Y-102512857D01*
X173235904Y-102417619D01*
X173283523Y-102370000D01*
X173378761Y-102322380D01*
X173569238Y-102322380D01*
X173664476Y-102370000D01*
X173712095Y-102417619D01*
X173759714Y-102512857D01*
X173759714Y-102560476D01*
X173712095Y-102655714D01*
X173664476Y-102703333D01*
X173569238Y-102750952D01*
X173378761Y-102750952D01*
X173283523Y-102798571D01*
X173235904Y-102846190D01*
X173188285Y-102941428D01*
X173188285Y-103131904D01*
X173235904Y-103227142D01*
X173283523Y-103274761D01*
X173378761Y-103322380D01*
X173569238Y-103322380D01*
X173664476Y-103274761D01*
X173712095Y-103227142D01*
X173759714Y-103131904D01*
X173759714Y-102941428D01*
X173712095Y-102846190D01*
X173664476Y-102798571D01*
X173569238Y-102750952D01*
X131157142Y-85542380D02*
X130823809Y-85066190D01*
X130585714Y-85542380D02*
X130585714Y-84542380D01*
X130966666Y-84542380D01*
X131061904Y-84590000D01*
X131109523Y-84637619D01*
X131157142Y-84732857D01*
X131157142Y-84875714D01*
X131109523Y-84970952D01*
X131061904Y-85018571D01*
X130966666Y-85066190D01*
X130585714Y-85066190D01*
X131490476Y-84542380D02*
X132109523Y-84542380D01*
X131776190Y-84923333D01*
X131919047Y-84923333D01*
X132014285Y-84970952D01*
X132061904Y-85018571D01*
X132109523Y-85113809D01*
X132109523Y-85351904D01*
X132061904Y-85447142D01*
X132014285Y-85494761D01*
X131919047Y-85542380D01*
X131633333Y-85542380D01*
X131538095Y-85494761D01*
X131490476Y-85447142D01*
X133061904Y-85542380D02*
X132490476Y-85542380D01*
X132776190Y-85542380D02*
X132776190Y-84542380D01*
X132680952Y-84685238D01*
X132585714Y-84780476D01*
X132490476Y-84828095D01*
X171432142Y-96102380D02*
X171098809Y-95626190D01*
X170860714Y-96102380D02*
X170860714Y-95102380D01*
X171241666Y-95102380D01*
X171336904Y-95150000D01*
X171384523Y-95197619D01*
X171432142Y-95292857D01*
X171432142Y-95435714D01*
X171384523Y-95530952D01*
X171336904Y-95578571D01*
X171241666Y-95626190D01*
X170860714Y-95626190D01*
X172384523Y-96102380D02*
X171813095Y-96102380D01*
X172098809Y-96102380D02*
X172098809Y-95102380D01*
X172003571Y-95245238D01*
X171908333Y-95340476D01*
X171813095Y-95388095D01*
X172955952Y-95530952D02*
X172860714Y-95483333D01*
X172813095Y-95435714D01*
X172765476Y-95340476D01*
X172765476Y-95292857D01*
X172813095Y-95197619D01*
X172860714Y-95150000D01*
X172955952Y-95102380D01*
X173146428Y-95102380D01*
X173241666Y-95150000D01*
X173289285Y-95197619D01*
X173336904Y-95292857D01*
X173336904Y-95340476D01*
X173289285Y-95435714D01*
X173241666Y-95483333D01*
X173146428Y-95530952D01*
X172955952Y-95530952D01*
X172860714Y-95578571D01*
X172813095Y-95626190D01*
X172765476Y-95721428D01*
X172765476Y-95911904D01*
X172813095Y-96007142D01*
X172860714Y-96054761D01*
X172955952Y-96102380D01*
X173146428Y-96102380D01*
X173241666Y-96054761D01*
X173289285Y-96007142D01*
X173336904Y-95911904D01*
X173336904Y-95721428D01*
X173289285Y-95626190D01*
X173241666Y-95578571D01*
X173146428Y-95530952D01*
X165357142Y-108652380D02*
X165023809Y-108176190D01*
X164785714Y-108652380D02*
X164785714Y-107652380D01*
X165166666Y-107652380D01*
X165261904Y-107700000D01*
X165309523Y-107747619D01*
X165357142Y-107842857D01*
X165357142Y-107985714D01*
X165309523Y-108080952D01*
X165261904Y-108128571D01*
X165166666Y-108176190D01*
X164785714Y-108176190D01*
X165738095Y-107747619D02*
X165785714Y-107700000D01*
X165880952Y-107652380D01*
X166119047Y-107652380D01*
X166214285Y-107700000D01*
X166261904Y-107747619D01*
X166309523Y-107842857D01*
X166309523Y-107938095D01*
X166261904Y-108080952D01*
X165690476Y-108652380D01*
X166309523Y-108652380D01*
X166880952Y-108080952D02*
X166785714Y-108033333D01*
X166738095Y-107985714D01*
X166690476Y-107890476D01*
X166690476Y-107842857D01*
X166738095Y-107747619D01*
X166785714Y-107700000D01*
X166880952Y-107652380D01*
X167071428Y-107652380D01*
X167166666Y-107700000D01*
X167214285Y-107747619D01*
X167261904Y-107842857D01*
X167261904Y-107890476D01*
X167214285Y-107985714D01*
X167166666Y-108033333D01*
X167071428Y-108080952D01*
X166880952Y-108080952D01*
X166785714Y-108128571D01*
X166738095Y-108176190D01*
X166690476Y-108271428D01*
X166690476Y-108461904D01*
X166738095Y-108557142D01*
X166785714Y-108604761D01*
X166880952Y-108652380D01*
X167071428Y-108652380D01*
X167166666Y-108604761D01*
X167214285Y-108557142D01*
X167261904Y-108461904D01*
X167261904Y-108271428D01*
X167214285Y-108176190D01*
X167166666Y-108128571D01*
X167071428Y-108080952D01*
X168557142Y-108652380D02*
X168223809Y-108176190D01*
X167985714Y-108652380D02*
X167985714Y-107652380D01*
X168366666Y-107652380D01*
X168461904Y-107700000D01*
X168509523Y-107747619D01*
X168557142Y-107842857D01*
X168557142Y-107985714D01*
X168509523Y-108080952D01*
X168461904Y-108128571D01*
X168366666Y-108176190D01*
X167985714Y-108176190D01*
X169509523Y-108652380D02*
X168938095Y-108652380D01*
X169223809Y-108652380D02*
X169223809Y-107652380D01*
X169128571Y-107795238D01*
X169033333Y-107890476D01*
X168938095Y-107938095D01*
X170366666Y-107985714D02*
X170366666Y-108652380D01*
X170128571Y-107604761D02*
X169890476Y-108319047D01*
X170509523Y-108319047D01*
X121357142Y-90652380D02*
X121023809Y-90176190D01*
X120785714Y-90652380D02*
X120785714Y-89652380D01*
X121166666Y-89652380D01*
X121261904Y-89700000D01*
X121309523Y-89747619D01*
X121357142Y-89842857D01*
X121357142Y-89985714D01*
X121309523Y-90080952D01*
X121261904Y-90128571D01*
X121166666Y-90176190D01*
X120785714Y-90176190D01*
X121690476Y-89652380D02*
X122309523Y-89652380D01*
X121976190Y-90033333D01*
X122119047Y-90033333D01*
X122214285Y-90080952D01*
X122261904Y-90128571D01*
X122309523Y-90223809D01*
X122309523Y-90461904D01*
X122261904Y-90557142D01*
X122214285Y-90604761D01*
X122119047Y-90652380D01*
X121833333Y-90652380D01*
X121738095Y-90604761D01*
X121690476Y-90557142D01*
X122690476Y-89747619D02*
X122738095Y-89700000D01*
X122833333Y-89652380D01*
X123071428Y-89652380D01*
X123166666Y-89700000D01*
X123214285Y-89747619D01*
X123261904Y-89842857D01*
X123261904Y-89938095D01*
X123214285Y-90080952D01*
X122642857Y-90652380D01*
X123261904Y-90652380D01*
X134993142Y-96210380D02*
X134659809Y-95734190D01*
X134421714Y-96210380D02*
X134421714Y-95210380D01*
X134802666Y-95210380D01*
X134897904Y-95258000D01*
X134945523Y-95305619D01*
X134993142Y-95400857D01*
X134993142Y-95543714D01*
X134945523Y-95638952D01*
X134897904Y-95686571D01*
X134802666Y-95734190D01*
X134421714Y-95734190D01*
X135374095Y-95305619D02*
X135421714Y-95258000D01*
X135516952Y-95210380D01*
X135755047Y-95210380D01*
X135850285Y-95258000D01*
X135897904Y-95305619D01*
X135945523Y-95400857D01*
X135945523Y-95496095D01*
X135897904Y-95638952D01*
X135326476Y-96210380D01*
X135945523Y-96210380D01*
X136802666Y-95543714D02*
X136802666Y-96210380D01*
X136564571Y-95162761D02*
X136326476Y-95877047D01*
X136945523Y-95877047D01*
X134397904Y-92924380D02*
X134397904Y-93733904D01*
X134445523Y-93829142D01*
X134493142Y-93876761D01*
X134588380Y-93924380D01*
X134778857Y-93924380D01*
X134874095Y-93876761D01*
X134921714Y-93829142D01*
X134969333Y-93733904D01*
X134969333Y-92924380D01*
X135969333Y-93924380D02*
X135397904Y-93924380D01*
X135683619Y-93924380D02*
X135683619Y-92924380D01*
X135588380Y-93067238D01*
X135493142Y-93162476D01*
X135397904Y-93210095D01*
X136588380Y-92924380D02*
X136683619Y-92924380D01*
X136778857Y-92972000D01*
X136826476Y-93019619D01*
X136874095Y-93114857D01*
X136921714Y-93305333D01*
X136921714Y-93543428D01*
X136874095Y-93733904D01*
X136826476Y-93829142D01*
X136778857Y-93876761D01*
X136683619Y-93924380D01*
X136588380Y-93924380D01*
X136493142Y-93876761D01*
X136445523Y-93829142D01*
X136397904Y-93733904D01*
X136350285Y-93543428D01*
X136350285Y-93305333D01*
X136397904Y-93114857D01*
X136445523Y-93019619D01*
X136493142Y-92972000D01*
X136588380Y-92924380D01*
X158361142Y-96210380D02*
X158027809Y-95734190D01*
X157789714Y-96210380D02*
X157789714Y-95210380D01*
X158170666Y-95210380D01*
X158265904Y-95258000D01*
X158313523Y-95305619D01*
X158361142Y-95400857D01*
X158361142Y-95543714D01*
X158313523Y-95638952D01*
X158265904Y-95686571D01*
X158170666Y-95734190D01*
X157789714Y-95734190D01*
X159313523Y-96210380D02*
X158742095Y-96210380D01*
X159027809Y-96210380D02*
X159027809Y-95210380D01*
X158932571Y-95353238D01*
X158837333Y-95448476D01*
X158742095Y-95496095D01*
X159646857Y-95210380D02*
X160313523Y-95210380D01*
X159884952Y-96210380D01*
X162425142Y-90876380D02*
X162091809Y-90400190D01*
X161853714Y-90876380D02*
X161853714Y-89876380D01*
X162234666Y-89876380D01*
X162329904Y-89924000D01*
X162377523Y-89971619D01*
X162425142Y-90066857D01*
X162425142Y-90209714D01*
X162377523Y-90304952D01*
X162329904Y-90352571D01*
X162234666Y-90400190D01*
X161853714Y-90400190D01*
X162758476Y-89876380D02*
X163377523Y-89876380D01*
X163044190Y-90257333D01*
X163187047Y-90257333D01*
X163282285Y-90304952D01*
X163329904Y-90352571D01*
X163377523Y-90447809D01*
X163377523Y-90685904D01*
X163329904Y-90781142D01*
X163282285Y-90828761D01*
X163187047Y-90876380D01*
X162901333Y-90876380D01*
X162806095Y-90828761D01*
X162758476Y-90781142D01*
X163948952Y-90304952D02*
X163853714Y-90257333D01*
X163806095Y-90209714D01*
X163758476Y-90114476D01*
X163758476Y-90066857D01*
X163806095Y-89971619D01*
X163853714Y-89924000D01*
X163948952Y-89876380D01*
X164139428Y-89876380D01*
X164234666Y-89924000D01*
X164282285Y-89971619D01*
X164329904Y-90066857D01*
X164329904Y-90114476D01*
X164282285Y-90209714D01*
X164234666Y-90257333D01*
X164139428Y-90304952D01*
X163948952Y-90304952D01*
X163853714Y-90352571D01*
X163806095Y-90400190D01*
X163758476Y-90495428D01*
X163758476Y-90685904D01*
X163806095Y-90781142D01*
X163853714Y-90828761D01*
X163948952Y-90876380D01*
X164139428Y-90876380D01*
X164234666Y-90828761D01*
X164282285Y-90781142D01*
X164329904Y-90685904D01*
X164329904Y-90495428D01*
X164282285Y-90400190D01*
X164234666Y-90352571D01*
X164139428Y-90304952D01*
X162286904Y-93452380D02*
X162286904Y-94261904D01*
X162334523Y-94357142D01*
X162382142Y-94404761D01*
X162477380Y-94452380D01*
X162667857Y-94452380D01*
X162763095Y-94404761D01*
X162810714Y-94357142D01*
X162858333Y-94261904D01*
X162858333Y-93452380D01*
X163858333Y-94452380D02*
X163286904Y-94452380D01*
X163572619Y-94452380D02*
X163572619Y-93452380D01*
X163477380Y-93595238D01*
X163382142Y-93690476D01*
X163286904Y-93738095D01*
X164239285Y-93547619D02*
X164286904Y-93500000D01*
X164382142Y-93452380D01*
X164620238Y-93452380D01*
X164715476Y-93500000D01*
X164763095Y-93547619D01*
X164810714Y-93642857D01*
X164810714Y-93738095D01*
X164763095Y-93880952D01*
X164191666Y-94452380D01*
X164810714Y-94452380D01*
X138041142Y-108402380D02*
X137707809Y-107926190D01*
X137469714Y-108402380D02*
X137469714Y-107402380D01*
X137850666Y-107402380D01*
X137945904Y-107450000D01*
X137993523Y-107497619D01*
X138041142Y-107592857D01*
X138041142Y-107735714D01*
X137993523Y-107830952D01*
X137945904Y-107878571D01*
X137850666Y-107926190D01*
X137469714Y-107926190D01*
X138422095Y-107497619D02*
X138469714Y-107450000D01*
X138564952Y-107402380D01*
X138803047Y-107402380D01*
X138898285Y-107450000D01*
X138945904Y-107497619D01*
X138993523Y-107592857D01*
X138993523Y-107688095D01*
X138945904Y-107830952D01*
X138374476Y-108402380D01*
X138993523Y-108402380D01*
X139374476Y-107497619D02*
X139422095Y-107450000D01*
X139517333Y-107402380D01*
X139755428Y-107402380D01*
X139850666Y-107450000D01*
X139898285Y-107497619D01*
X139945904Y-107592857D01*
X139945904Y-107688095D01*
X139898285Y-107830952D01*
X139326857Y-108402380D01*
X139945904Y-108402380D01*
D12*
X176383333Y-91066666D02*
X176383333Y-91633333D01*
X176416666Y-91700000D01*
X176450000Y-91733333D01*
X176516666Y-91766666D01*
X176650000Y-91766666D01*
X176716666Y-91733333D01*
X176750000Y-91700000D01*
X176783333Y-91633333D01*
X176783333Y-91066666D01*
X177483333Y-91766666D02*
X177083333Y-91766666D01*
X177283333Y-91766666D02*
X177283333Y-91066666D01*
X177216666Y-91166666D01*
X177150000Y-91233333D01*
X177083333Y-91266666D01*
X178083333Y-91300000D02*
X178083333Y-91766666D01*
X177916666Y-91033333D02*
X177750000Y-91533333D01*
X178183333Y-91533333D01*
D11*
X162038095Y-81252380D02*
X162038095Y-82061904D01*
X162085714Y-82157142D01*
X162133333Y-82204761D01*
X162228571Y-82252380D01*
X162419047Y-82252380D01*
X162514285Y-82204761D01*
X162561904Y-82157142D01*
X162609523Y-82061904D01*
X162609523Y-81252380D01*
X163609523Y-82252380D02*
X163038095Y-82252380D01*
X163323809Y-82252380D02*
X163323809Y-81252380D01*
X163228571Y-81395238D01*
X163133333Y-81490476D01*
X163038095Y-81538095D01*
X172916666Y-81252380D02*
X172916666Y-81966666D01*
X172869047Y-82109523D01*
X172773809Y-82204761D01*
X172630952Y-82252380D01*
X172535714Y-82252380D01*
X173345238Y-81347619D02*
X173392857Y-81300000D01*
X173488095Y-81252380D01*
X173726190Y-81252380D01*
X173821428Y-81300000D01*
X173869047Y-81347619D01*
X173916666Y-81442857D01*
X173916666Y-81538095D01*
X173869047Y-81680952D01*
X173297619Y-82252380D01*
X173916666Y-82252380D01*
X157383333Y-73352380D02*
X157050000Y-72876190D01*
X156811904Y-73352380D02*
X156811904Y-72352380D01*
X157192857Y-72352380D01*
X157288095Y-72400000D01*
X157335714Y-72447619D01*
X157383333Y-72542857D01*
X157383333Y-72685714D01*
X157335714Y-72780952D01*
X157288095Y-72828571D01*
X157192857Y-72876190D01*
X156811904Y-72876190D01*
X157764285Y-72447619D02*
X157811904Y-72400000D01*
X157907142Y-72352380D01*
X158145238Y-72352380D01*
X158240476Y-72400000D01*
X158288095Y-72447619D01*
X158335714Y-72542857D01*
X158335714Y-72638095D01*
X158288095Y-72780952D01*
X157716666Y-73352380D01*
X158335714Y-73352380D01*
X172233333Y-72352380D02*
X171900000Y-71876190D01*
X171661904Y-72352380D02*
X171661904Y-71352380D01*
X172042857Y-71352380D01*
X172138095Y-71400000D01*
X172185714Y-71447619D01*
X172233333Y-71542857D01*
X172233333Y-71685714D01*
X172185714Y-71780952D01*
X172138095Y-71828571D01*
X172042857Y-71876190D01*
X171661904Y-71876190D01*
X173185714Y-72352380D02*
X172614285Y-72352380D01*
X172900000Y-72352380D02*
X172900000Y-71352380D01*
X172804761Y-71495238D01*
X172709523Y-71590476D01*
X172614285Y-71638095D01*
X173666666Y-68972380D02*
X173666666Y-69686666D01*
X173619047Y-69829523D01*
X173523809Y-69924761D01*
X173380952Y-69972380D01*
X173285714Y-69972380D01*
X174666666Y-69972380D02*
X174095238Y-69972380D01*
X174380952Y-69972380D02*
X174380952Y-68972380D01*
X174285714Y-69115238D01*
X174190476Y-69210476D01*
X174095238Y-69258095D01*
X111238095Y-81202380D02*
X111238095Y-82011904D01*
X111285714Y-82107142D01*
X111333333Y-82154761D01*
X111428571Y-82202380D01*
X111619047Y-82202380D01*
X111714285Y-82154761D01*
X111761904Y-82107142D01*
X111809523Y-82011904D01*
X111809523Y-81202380D01*
X112428571Y-81630952D02*
X112333333Y-81583333D01*
X112285714Y-81535714D01*
X112238095Y-81440476D01*
X112238095Y-81392857D01*
X112285714Y-81297619D01*
X112333333Y-81250000D01*
X112428571Y-81202380D01*
X112619047Y-81202380D01*
X112714285Y-81250000D01*
X112761904Y-81297619D01*
X112809523Y-81392857D01*
X112809523Y-81440476D01*
X112761904Y-81535714D01*
X112714285Y-81583333D01*
X112619047Y-81630952D01*
X112428571Y-81630952D01*
X112333333Y-81678571D01*
X112285714Y-81726190D01*
X112238095Y-81821428D01*
X112238095Y-82011904D01*
X112285714Y-82107142D01*
X112333333Y-82154761D01*
X112428571Y-82202380D01*
X112619047Y-82202380D01*
X112714285Y-82154761D01*
X112761904Y-82107142D01*
X112809523Y-82011904D01*
X112809523Y-81821428D01*
X112761904Y-81726190D01*
X112714285Y-81678571D01*
X112619047Y-81630952D01*
X161733333Y-68157142D02*
X161685714Y-68204761D01*
X161542857Y-68252380D01*
X161447619Y-68252380D01*
X161304761Y-68204761D01*
X161209523Y-68109523D01*
X161161904Y-68014285D01*
X161114285Y-67823809D01*
X161114285Y-67680952D01*
X161161904Y-67490476D01*
X161209523Y-67395238D01*
X161304761Y-67300000D01*
X161447619Y-67252380D01*
X161542857Y-67252380D01*
X161685714Y-67300000D01*
X161733333Y-67347619D01*
X162114285Y-67347619D02*
X162161904Y-67300000D01*
X162257142Y-67252380D01*
X162495238Y-67252380D01*
X162590476Y-67300000D01*
X162638095Y-67347619D01*
X162685714Y-67442857D01*
X162685714Y-67538095D01*
X162638095Y-67680952D01*
X162066666Y-68252380D01*
X162685714Y-68252380D01*
X170733333Y-68457142D02*
X170685714Y-68504761D01*
X170542857Y-68552380D01*
X170447619Y-68552380D01*
X170304761Y-68504761D01*
X170209523Y-68409523D01*
X170161904Y-68314285D01*
X170114285Y-68123809D01*
X170114285Y-67980952D01*
X170161904Y-67790476D01*
X170209523Y-67695238D01*
X170304761Y-67600000D01*
X170447619Y-67552380D01*
X170542857Y-67552380D01*
X170685714Y-67600000D01*
X170733333Y-67647619D01*
X171685714Y-68552380D02*
X171114285Y-68552380D01*
X171400000Y-68552380D02*
X171400000Y-67552380D01*
X171304761Y-67695238D01*
X171209523Y-67790476D01*
X171114285Y-67838095D01*
X159283333Y-68157142D02*
X159235714Y-68204761D01*
X159092857Y-68252380D01*
X158997619Y-68252380D01*
X158854761Y-68204761D01*
X158759523Y-68109523D01*
X158711904Y-68014285D01*
X158664285Y-67823809D01*
X158664285Y-67680952D01*
X158711904Y-67490476D01*
X158759523Y-67395238D01*
X158854761Y-67300000D01*
X158997619Y-67252380D01*
X159092857Y-67252380D01*
X159235714Y-67300000D01*
X159283333Y-67347619D01*
X159616666Y-67252380D02*
X160283333Y-67252380D01*
X159854761Y-68252380D01*
X165923809Y-67576190D02*
X165923809Y-68052380D01*
X165590476Y-67052380D02*
X165923809Y-67576190D01*
X166257142Y-67052380D01*
X167114285Y-68052380D02*
X166542857Y-68052380D01*
X166828571Y-68052380D02*
X166828571Y-67052380D01*
X166733333Y-67195238D01*
X166638095Y-67290476D01*
X166542857Y-67338095D01*
D13*
X176641422Y-98060000D02*
X177158578Y-98060000D01*
X176641422Y-96640000D02*
X177158578Y-96640000D01*
X128763000Y-105898578D02*
X128763000Y-105381422D01*
X127343000Y-105898578D02*
X127343000Y-105381422D01*
X130420000Y-76270000D02*
X130420000Y-78870000D01*
X130420000Y-76270000D02*
X133080000Y-76270000D01*
X130420000Y-78870000D02*
X133080000Y-78870000D01*
X133080000Y-76270000D02*
X133080000Y-78870000D01*
X130420000Y-75000000D02*
X130420000Y-73670000D01*
X130420000Y-73670000D02*
X131750000Y-73670000D01*
X172479422Y-92930000D02*
X172996578Y-92930000D01*
X172479422Y-94350000D02*
X172996578Y-94350000D01*
X118510000Y-70141422D02*
X118510000Y-70658578D01*
X117090000Y-70141422D02*
X117090000Y-70658578D01*
X132358578Y-94560000D02*
X131841422Y-94560000D01*
X132358578Y-93140000D02*
X131841422Y-93140000D01*
D11*
X175400000Y-62900000D02*
X175400000Y-65100000D01*
X171600000Y-62900000D02*
X175400000Y-62900000D01*
X171600000Y-65100000D02*
X171600000Y-62900000D01*
X175400000Y-65100000D02*
X171600000Y-65100000D01*
X138700000Y-68400000D02*
X134900000Y-68400000D01*
X138700000Y-66200000D02*
X138700000Y-68400000D01*
X134900000Y-66200000D02*
X138700000Y-66200000D01*
X134900000Y-68400000D02*
X134900000Y-66200000D01*
X182350000Y-83400000D02*
X186150000Y-83400000D01*
X186150000Y-85600000D02*
X182350000Y-85600000D01*
X182350000Y-85600000D02*
X182350000Y-83400000D01*
X186150000Y-83400000D02*
X186150000Y-85600000D01*
D13*
X155630000Y-76270000D02*
X155630000Y-78870000D01*
X152970000Y-76270000D02*
X155630000Y-76270000D01*
X152970000Y-76270000D02*
X152970000Y-78870000D01*
X152970000Y-78870000D02*
X155630000Y-78870000D01*
X152970000Y-73670000D02*
X154300000Y-73670000D01*
X152970000Y-75000000D02*
X152970000Y-73670000D01*
X137025600Y-84930200D02*
X137025600Y-89349800D01*
X142410400Y-89349800D02*
X142410400Y-84930200D01*
X145383578Y-94350000D02*
X144866422Y-94350000D01*
X145383578Y-92930000D02*
X144866422Y-92930000D01*
D11*
X174200000Y-67850000D02*
X174200000Y-65650000D01*
X178000000Y-65650000D02*
X178000000Y-67850000D01*
X178000000Y-67850000D02*
X174200000Y-67850000D01*
X174200000Y-65650000D02*
X178000000Y-65650000D01*
D13*
X130753000Y-98398578D02*
X130753000Y-97881422D01*
X132173000Y-98398578D02*
X132173000Y-97881422D01*
D14*
X164543000Y-104815000D02*
X164493000Y-104815000D01*
X161743000Y-106465000D02*
X161868000Y-106465000D01*
X161518000Y-105290000D02*
X161518000Y-104815000D01*
X164818000Y-106465000D02*
X164518000Y-106465000D01*
X164818000Y-106090000D02*
X164818000Y-106465000D01*
X161818000Y-106465000D02*
X161518000Y-106465000D01*
X161518000Y-106465000D02*
X161518000Y-106015000D01*
X161518000Y-104815000D02*
X161868000Y-104815000D01*
X164818000Y-105465000D02*
X164818000Y-105190000D01*
X164493000Y-104815000D02*
X164493000Y-104040000D01*
X164818000Y-105190000D02*
X164543000Y-104815000D01*
D13*
X156988000Y-96140000D02*
X156988000Y-92690000D01*
X151868000Y-96140000D02*
X151868000Y-98090000D01*
X156988000Y-96140000D02*
X156988000Y-98090000D01*
X151868000Y-96140000D02*
X151868000Y-94190000D01*
X121600000Y-68400000D02*
X121600000Y-72400000D01*
X121600000Y-72400000D02*
X127400000Y-72400000D01*
D14*
X123928000Y-104815000D02*
X123878000Y-104815000D01*
X124203000Y-106090000D02*
X124203000Y-106465000D01*
X124203000Y-106465000D02*
X123903000Y-106465000D01*
X124203000Y-105465000D02*
X124203000Y-105190000D01*
X120903000Y-105290000D02*
X120903000Y-104815000D01*
X120903000Y-106465000D02*
X120903000Y-106015000D01*
X121128000Y-106465000D02*
X121253000Y-106465000D01*
X120903000Y-104815000D02*
X121253000Y-104815000D01*
X124203000Y-105190000D02*
X123928000Y-104815000D01*
X123878000Y-104815000D02*
X123878000Y-104040000D01*
X121203000Y-106465000D02*
X120903000Y-106465000D01*
D13*
X149468000Y-97881422D02*
X149468000Y-98398578D01*
X150888000Y-97881422D02*
X150888000Y-98398578D01*
X183908578Y-88990000D02*
X183391422Y-88990000D01*
X183908578Y-90410000D02*
X183391422Y-90410000D01*
X126263000Y-105898578D02*
X126263000Y-105381422D01*
X124843000Y-105898578D02*
X124843000Y-105381422D01*
X156388000Y-105898578D02*
X156388000Y-105381422D01*
X154968000Y-105898578D02*
X154968000Y-105381422D01*
X153888000Y-105898578D02*
X153888000Y-105381422D01*
X152468000Y-105898578D02*
X152468000Y-105381422D01*
D14*
X143438000Y-106465000D02*
X143438000Y-106015000D01*
X146738000Y-106465000D02*
X146438000Y-106465000D01*
X146463000Y-104815000D02*
X146413000Y-104815000D01*
X143438000Y-104815000D02*
X143788000Y-104815000D01*
X146738000Y-105190000D02*
X146463000Y-104815000D01*
X143438000Y-105290000D02*
X143438000Y-104815000D01*
X146413000Y-104815000D02*
X146413000Y-104040000D01*
X146738000Y-106090000D02*
X146738000Y-106465000D01*
X146738000Y-105465000D02*
X146738000Y-105190000D01*
X143738000Y-106465000D02*
X143438000Y-106465000D01*
X143663000Y-106465000D02*
X143788000Y-106465000D01*
X148528000Y-104815000D02*
X148878000Y-104815000D01*
X151828000Y-105465000D02*
X151828000Y-105190000D01*
X151828000Y-106465000D02*
X151528000Y-106465000D01*
X148828000Y-106465000D02*
X148528000Y-106465000D01*
X151828000Y-105190000D02*
X151553000Y-104815000D01*
X148753000Y-106465000D02*
X148878000Y-106465000D01*
X148528000Y-106465000D02*
X148528000Y-106015000D01*
X151503000Y-104815000D02*
X151503000Y-104040000D01*
X151828000Y-106090000D02*
X151828000Y-106465000D01*
X148528000Y-105290000D02*
X148528000Y-104815000D01*
X151553000Y-104815000D02*
X151503000Y-104815000D01*
D13*
X153890000Y-71958578D02*
X153890000Y-71441422D01*
X155310000Y-71958578D02*
X155310000Y-71441422D01*
X141309422Y-102850000D02*
X141826578Y-102850000D01*
X141309422Y-101430000D02*
X141826578Y-101430000D01*
D11*
X108850000Y-71828000D02*
X112650000Y-71828000D01*
X112650000Y-74028000D02*
X108850000Y-74028000D01*
X108850000Y-74028000D02*
X108850000Y-71828000D01*
X112650000Y-71828000D02*
X112650000Y-74028000D01*
D13*
X152919422Y-101430000D02*
X153436578Y-101430000D01*
X152919422Y-102850000D02*
X153436578Y-102850000D01*
X172160000Y-87898578D02*
X172160000Y-87381422D01*
X170740000Y-87898578D02*
X170740000Y-87381422D01*
D14*
X160328000Y-105190000D02*
X160053000Y-104815000D01*
X160003000Y-104815000D02*
X160003000Y-104040000D01*
X157328000Y-106465000D02*
X157028000Y-106465000D01*
X160328000Y-105465000D02*
X160328000Y-105190000D01*
X160053000Y-104815000D02*
X160003000Y-104815000D01*
X157028000Y-104815000D02*
X157378000Y-104815000D01*
X157028000Y-106465000D02*
X157028000Y-106015000D01*
X160328000Y-106090000D02*
X160328000Y-106465000D01*
X157253000Y-106465000D02*
X157378000Y-106465000D01*
X160328000Y-106465000D02*
X160028000Y-106465000D01*
X157028000Y-105290000D02*
X157028000Y-104815000D01*
D13*
X184500000Y-96250000D02*
X181950000Y-96250000D01*
X184500000Y-97950000D02*
X184500000Y-96250000D01*
X184500000Y-97950000D02*
X181950000Y-97950000D01*
X147519000Y-122672000D02*
X147019000Y-123172000D01*
X129560000Y-128156000D02*
X129560000Y-122758000D01*
X146969000Y-128156000D02*
X146969000Y-122504000D01*
X147019000Y-123172000D02*
X147519000Y-123672000D01*
X147519000Y-123672000D02*
X147519000Y-122672000D01*
X146832000Y-114556000D02*
X146832000Y-119964000D01*
X146969000Y-128156000D02*
X129560000Y-128156000D01*
X146832000Y-114556000D02*
X129560000Y-114556000D01*
X129560000Y-114556000D02*
X129560000Y-119964000D01*
X136092000Y-87898578D02*
X136092000Y-87381422D01*
X134672000Y-87898578D02*
X134672000Y-87381422D01*
D14*
X134438000Y-104815000D02*
X134788000Y-104815000D01*
X134438000Y-105290000D02*
X134438000Y-104815000D01*
X137738000Y-105465000D02*
X137738000Y-105190000D01*
X134663000Y-106465000D02*
X134788000Y-106465000D01*
X137738000Y-105190000D02*
X137463000Y-104815000D01*
X137738000Y-106465000D02*
X137438000Y-106465000D01*
X134438000Y-106465000D02*
X134438000Y-106015000D01*
X137463000Y-104815000D02*
X137413000Y-104815000D01*
X137413000Y-104815000D02*
X137413000Y-104040000D01*
X137738000Y-106090000D02*
X137738000Y-106465000D01*
X134738000Y-106465000D02*
X134438000Y-106465000D01*
D13*
X143562000Y-87888578D02*
X143562000Y-87371422D01*
X144982000Y-87888578D02*
X144982000Y-87371422D01*
X151290000Y-70658578D02*
X151290000Y-70141422D01*
X152710000Y-70658578D02*
X152710000Y-70141422D01*
X141378000Y-105898578D02*
X141378000Y-105381422D01*
X142798000Y-105898578D02*
X142798000Y-105381422D01*
X144873000Y-98398578D02*
X144873000Y-97881422D01*
X143453000Y-98398578D02*
X143453000Y-97881422D01*
X116210000Y-70141422D02*
X116210000Y-70658578D01*
X114790000Y-70141422D02*
X114790000Y-70658578D01*
X120710000Y-70658578D02*
X120710000Y-70141422D01*
X119290000Y-70658578D02*
X119290000Y-70141422D01*
X127969000Y-123172000D02*
X128469000Y-123672000D01*
X128469000Y-123672000D02*
X128469000Y-122672000D01*
X127919000Y-128156000D02*
X110510000Y-128156000D01*
X110510000Y-114556000D02*
X110510000Y-119964000D01*
X127782000Y-114556000D02*
X110510000Y-114556000D01*
X127919000Y-128156000D02*
X127919000Y-122504000D01*
X128469000Y-122672000D02*
X127969000Y-123172000D01*
X127782000Y-114556000D02*
X127782000Y-119964000D01*
X110510000Y-128156000D02*
X110510000Y-122758000D01*
X125544422Y-102850000D02*
X126061578Y-102850000D01*
X125544422Y-101430000D02*
X126061578Y-101430000D01*
X169409422Y-102850000D02*
X169926578Y-102850000D01*
X169409422Y-101430000D02*
X169926578Y-101430000D01*
D11*
X129475000Y-74675000D02*
X129475000Y-79325000D01*
X119525000Y-74675000D02*
X119525000Y-79325000D01*
X119525000Y-74675000D02*
X119850000Y-74675000D01*
X119525000Y-79325000D02*
X119850000Y-79325000D01*
X129475000Y-79325000D02*
X129150000Y-79325000D01*
X129250000Y-74675000D02*
X129250000Y-73600000D01*
X129475000Y-74675000D02*
X129250000Y-74675000D01*
D13*
X164725600Y-84930200D02*
X164725600Y-89349800D01*
X170110400Y-89349800D02*
X170110400Y-84930200D01*
X159091422Y-94060000D02*
X159608578Y-94060000D01*
X159091422Y-92640000D02*
X159608578Y-92640000D01*
X137809422Y-101430000D02*
X138326578Y-101430000D01*
X137809422Y-102850000D02*
X138326578Y-102850000D01*
X174363600Y-84930200D02*
X174363600Y-89349800D01*
X179748400Y-89349800D02*
X179748400Y-84930200D01*
X138310000Y-70141422D02*
X138310000Y-70658578D01*
X136890000Y-70141422D02*
X136890000Y-70658578D01*
X165882000Y-114556000D02*
X165882000Y-119964000D01*
X166069000Y-123172000D02*
X166569000Y-123672000D01*
X148610000Y-114556000D02*
X148610000Y-119964000D01*
X165882000Y-114556000D02*
X148610000Y-114556000D01*
X166019000Y-128156000D02*
X148610000Y-128156000D01*
X166569000Y-123672000D02*
X166569000Y-122672000D01*
X166569000Y-122672000D02*
X166069000Y-123172000D01*
X148610000Y-128156000D02*
X148610000Y-122758000D01*
X166019000Y-128156000D02*
X166019000Y-122504000D01*
X124743000Y-96140000D02*
X124743000Y-94190000D01*
X129863000Y-96140000D02*
X129863000Y-98090000D01*
X124743000Y-96140000D02*
X124743000Y-98090000D01*
X129863000Y-96140000D02*
X129863000Y-92690000D01*
D14*
X129403000Y-105290000D02*
X129403000Y-104815000D01*
X132428000Y-104815000D02*
X132378000Y-104815000D01*
X132703000Y-105465000D02*
X132703000Y-105190000D01*
X129703000Y-106465000D02*
X129403000Y-106465000D01*
X132378000Y-104815000D02*
X132378000Y-104040000D01*
X132703000Y-106465000D02*
X132403000Y-106465000D01*
X129403000Y-104815000D02*
X129753000Y-104815000D01*
X132703000Y-105190000D02*
X132428000Y-104815000D01*
X129403000Y-106465000D02*
X129403000Y-106015000D01*
X129628000Y-106465000D02*
X129753000Y-106465000D01*
X132703000Y-106090000D02*
X132703000Y-106465000D01*
D13*
X157050400Y-89349800D02*
X157050400Y-84930200D01*
X151665600Y-84930200D02*
X151665600Y-89349800D01*
X143106000Y-70658578D02*
X143106000Y-70141422D01*
X141686000Y-70658578D02*
X141686000Y-70141422D01*
X156419422Y-102850000D02*
X156936578Y-102850000D01*
X156419422Y-101430000D02*
X156936578Y-101430000D01*
X128290000Y-70658578D02*
X128290000Y-70141422D01*
X129710000Y-70658578D02*
X129710000Y-70141422D01*
X165409422Y-101430000D02*
X165926578Y-101430000D01*
X165409422Y-102850000D02*
X165926578Y-102850000D01*
X129044422Y-101430000D02*
X129561578Y-101430000D01*
X129044422Y-102850000D02*
X129561578Y-102850000D01*
X115701000Y-79252000D02*
X118361000Y-79252000D01*
X115701000Y-74052000D02*
X117031000Y-74052000D01*
X115701000Y-76652000D02*
X115701000Y-79252000D01*
X118361000Y-76652000D02*
X118361000Y-79252000D01*
X115701000Y-75382000D02*
X115701000Y-74052000D01*
X115701000Y-76652000D02*
X118361000Y-76652000D01*
X138270000Y-73670000D02*
X139600000Y-73670000D01*
X138270000Y-76270000D02*
X140930000Y-76270000D01*
X138270000Y-76270000D02*
X138270000Y-78870000D01*
X140930000Y-76270000D02*
X140930000Y-78870000D01*
X138270000Y-75000000D02*
X138270000Y-73670000D01*
X138270000Y-78870000D02*
X140930000Y-78870000D01*
X144522000Y-68400000D02*
X144522000Y-72400000D01*
X144522000Y-72400000D02*
X150322000Y-72400000D01*
X121863000Y-97881422D02*
X121863000Y-98398578D01*
X123283000Y-97881422D02*
X123283000Y-98398578D01*
X159460000Y-87898578D02*
X159460000Y-87381422D01*
X158040000Y-87898578D02*
X158040000Y-87381422D01*
X131725422Y-71042000D02*
X132242578Y-71042000D01*
X131725422Y-72462000D02*
X132242578Y-72462000D01*
X163978000Y-97881422D02*
X163978000Y-98398578D01*
X162558000Y-97881422D02*
X162558000Y-98398578D01*
X149150000Y-87898578D02*
X149150000Y-87381422D01*
X150570000Y-87898578D02*
X150570000Y-87381422D01*
X139290000Y-70141422D02*
X139290000Y-70658578D01*
X140710000Y-70141422D02*
X140710000Y-70658578D01*
X181500000Y-93635000D02*
X185385000Y-93635000D01*
X185385000Y-91365000D02*
X181500000Y-91365000D01*
X185385000Y-93635000D02*
X185385000Y-91365000D01*
X129995400Y-89349800D02*
X129995400Y-84930200D01*
X124610600Y-84930200D02*
X124610600Y-89349800D01*
X185619000Y-122672000D02*
X185119000Y-123172000D01*
X167660000Y-114556000D02*
X167660000Y-119964000D01*
X185119000Y-123172000D02*
X185619000Y-123672000D01*
X185069000Y-128156000D02*
X167660000Y-128156000D01*
X184932000Y-114556000D02*
X184932000Y-119964000D01*
X185069000Y-128156000D02*
X185069000Y-122504000D01*
X185619000Y-123672000D02*
X185619000Y-122672000D01*
X184932000Y-114556000D02*
X167660000Y-114556000D01*
X167660000Y-128156000D02*
X167660000Y-122758000D01*
D11*
X141775000Y-74675000D02*
X141775000Y-79325000D01*
X151725000Y-74675000D02*
X151500000Y-74675000D01*
X151725000Y-74675000D02*
X151725000Y-79325000D01*
X151725000Y-79325000D02*
X151400000Y-79325000D01*
X141775000Y-79325000D02*
X142100000Y-79325000D01*
X151500000Y-74675000D02*
X151500000Y-73600000D01*
X141775000Y-74675000D02*
X142100000Y-74675000D01*
D14*
X173568000Y-105190000D02*
X173293000Y-104815000D01*
X173568000Y-106090000D02*
X173568000Y-106465000D01*
X170268000Y-106465000D02*
X170268000Y-106015000D01*
X170268000Y-105290000D02*
X170268000Y-104815000D01*
X170493000Y-106465000D02*
X170618000Y-106465000D01*
X170268000Y-104815000D02*
X170618000Y-104815000D01*
X173568000Y-106465000D02*
X173268000Y-106465000D01*
X173243000Y-104815000D02*
X173243000Y-104040000D01*
X170568000Y-106465000D02*
X170268000Y-106465000D01*
X173568000Y-105465000D02*
X173568000Y-105190000D01*
X173293000Y-104815000D02*
X173243000Y-104815000D01*
D11*
X133700000Y-66300000D02*
X133700000Y-68500000D01*
X129900000Y-68500000D02*
X129900000Y-66300000D01*
X129900000Y-66300000D02*
X133700000Y-66300000D01*
X133700000Y-68500000D02*
X129900000Y-68500000D01*
D13*
X132282000Y-87898578D02*
X132282000Y-87381422D01*
X130862000Y-87898578D02*
X130862000Y-87381422D01*
X172178000Y-98398578D02*
X172178000Y-97881422D01*
X170758000Y-98398578D02*
X170758000Y-97881422D01*
D11*
X175400000Y-60150000D02*
X175400000Y-62350000D01*
X175400000Y-62350000D02*
X171600000Y-62350000D01*
X171600000Y-60150000D02*
X175400000Y-60150000D01*
X171600000Y-62350000D02*
X171600000Y-60150000D01*
D13*
X165458000Y-105898578D02*
X165458000Y-105381422D01*
X166878000Y-105898578D02*
X166878000Y-105381422D01*
X168208000Y-105898578D02*
X168208000Y-105381422D01*
X169628000Y-105898578D02*
X169628000Y-105381422D01*
X123900000Y-87888578D02*
X123900000Y-87371422D01*
X122480000Y-87888578D02*
X122480000Y-87371422D01*
X134608000Y-97881422D02*
X134608000Y-98398578D01*
X136028000Y-97881422D02*
X136028000Y-98398578D01*
X142378000Y-96140000D02*
X142378000Y-98090000D01*
X137258000Y-96140000D02*
X137258000Y-98090000D01*
X137258000Y-96140000D02*
X137258000Y-94190000D01*
X142378000Y-96140000D02*
X142378000Y-92690000D01*
X159388000Y-98398578D02*
X159388000Y-97881422D01*
X157968000Y-98398578D02*
X157968000Y-97881422D01*
X164032000Y-87898578D02*
X164032000Y-87381422D01*
X162612000Y-87898578D02*
X162612000Y-87381422D01*
X169978000Y-96140000D02*
X169978000Y-98090000D01*
X164858000Y-96140000D02*
X164858000Y-98090000D01*
X169978000Y-96140000D02*
X169978000Y-92690000D01*
X164858000Y-96140000D02*
X164858000Y-94190000D01*
X139798000Y-105898578D02*
X139798000Y-105381422D01*
X138378000Y-105898578D02*
X138378000Y-105381422D01*
D11*
X176550000Y-94410000D02*
X177950000Y-94410000D01*
X177950000Y-92090000D02*
X176050000Y-92090000D01*
D13*
X170460000Y-77000000D02*
X170460000Y-74690000D01*
X160540000Y-74690000D02*
X160815000Y-74690000D01*
X170185000Y-74690000D02*
X170185000Y-73400000D01*
X160540000Y-77000000D02*
X160540000Y-74690000D01*
X160540000Y-77000000D02*
X160540000Y-79310000D01*
X160540000Y-79310000D02*
X160815000Y-79310000D01*
X170460000Y-74690000D02*
X170185000Y-74690000D01*
X170460000Y-79310000D02*
X170185000Y-79310000D01*
X170460000Y-77000000D02*
X170460000Y-79310000D01*
X183510000Y-76890000D02*
X185110000Y-76890000D01*
X180030000Y-76890000D02*
X180030000Y-76290000D01*
X176690000Y-81310000D02*
X176940000Y-80780000D01*
X177490000Y-76890000D02*
X177490000Y-76290000D01*
X176940000Y-80780000D02*
X184060000Y-80780000D01*
X176690000Y-81310000D02*
X184310000Y-81310000D01*
X175310000Y-82310000D02*
X185690000Y-82310000D01*
X175890000Y-76290000D02*
X175890000Y-76890000D01*
X183510000Y-76290000D02*
X183510000Y-76890000D01*
X175020000Y-77320000D02*
X175020000Y-81320000D01*
X178430000Y-76890000D02*
X180030000Y-76890000D01*
X180970000Y-76290000D02*
X180970000Y-76890000D01*
X178430000Y-76290000D02*
X178430000Y-76890000D01*
X185110000Y-76890000D02*
X185110000Y-76290000D01*
X184310000Y-81310000D02*
X184310000Y-82310000D01*
X185690000Y-76290000D02*
X175310000Y-76290000D01*
X176690000Y-82310000D02*
X176690000Y-81310000D01*
X175890000Y-76890000D02*
X177490000Y-76890000D01*
X175310000Y-76290000D02*
X175310000Y-82310000D01*
X180970000Y-76890000D02*
X182570000Y-76890000D01*
X176940000Y-82310000D02*
X176940000Y-81310000D01*
X182570000Y-76890000D02*
X182570000Y-76290000D01*
X185690000Y-82310000D02*
X185690000Y-76290000D01*
X184060000Y-80780000D02*
X184310000Y-81310000D01*
X184060000Y-82310000D02*
X184060000Y-81310000D01*
D11*
X118486000Y-97212000D02*
X118486000Y-99412000D01*
X114686000Y-97212000D02*
X118486000Y-97212000D01*
X118486000Y-99412000D02*
X114686000Y-99412000D01*
X114686000Y-99412000D02*
X114686000Y-97212000D01*
D13*
X157065000Y-70172936D02*
X157065000Y-70627064D01*
X158535000Y-70172936D02*
X158535000Y-70627064D01*
X171665000Y-74627064D02*
X171665000Y-74172936D01*
X173135000Y-74627064D02*
X173135000Y-74172936D01*
X175040000Y-70020000D02*
X175040000Y-74020000D01*
X184080000Y-73480000D02*
X184330000Y-74010000D01*
X185710000Y-68990000D02*
X175330000Y-68990000D01*
X177510000Y-69590000D02*
X177510000Y-68990000D01*
X178450000Y-68990000D02*
X178450000Y-69590000D01*
X176960000Y-75010000D02*
X176960000Y-74010000D01*
X180990000Y-68990000D02*
X180990000Y-69590000D01*
X176710000Y-74010000D02*
X184330000Y-74010000D01*
X184080000Y-75010000D02*
X184080000Y-74010000D01*
X176710000Y-75010000D02*
X176710000Y-74010000D01*
X175910000Y-68990000D02*
X175910000Y-69590000D01*
X176960000Y-73480000D02*
X184080000Y-73480000D01*
X175330000Y-68990000D02*
X175330000Y-75010000D01*
X175330000Y-75010000D02*
X185710000Y-75010000D01*
X175910000Y-69590000D02*
X177510000Y-69590000D01*
X180050000Y-69590000D02*
X180050000Y-68990000D01*
X184330000Y-74010000D02*
X184330000Y-75010000D01*
X183530000Y-69590000D02*
X185130000Y-69590000D01*
X185130000Y-69590000D02*
X185130000Y-68990000D01*
X176710000Y-74010000D02*
X176960000Y-73480000D01*
X183530000Y-68990000D02*
X183530000Y-69590000D01*
X178450000Y-69590000D02*
X180050000Y-69590000D01*
X185710000Y-75010000D02*
X185710000Y-68990000D01*
X180990000Y-69590000D02*
X182590000Y-69590000D01*
X182590000Y-69590000D02*
X182590000Y-68990000D01*
D15*
X111150000Y-82900000D02*
X111150000Y-84760000D01*
X119450000Y-82900000D02*
X119450000Y-84760000D01*
X111150000Y-95600000D02*
X111150000Y-93750000D01*
X111150000Y-82900000D02*
X119450000Y-82900000D01*
X111150000Y-88670000D02*
X111150000Y-92370000D01*
X119450000Y-95600000D02*
X111150000Y-95600000D01*
X119450000Y-95600000D02*
X119450000Y-93740000D01*
X111150000Y-86120000D02*
X111150000Y-87300000D01*
X119450000Y-92370000D02*
X119450000Y-86120000D01*
D16*
X110320000Y-84070000D02*
G75*
G03*
X110320000Y-84070000I-100000J0D01*
G01*
D11*
X109336000Y-97212000D02*
X113136000Y-97212000D01*
X109336000Y-99412000D02*
X109336000Y-97212000D01*
X113136000Y-99412000D02*
X109336000Y-99412000D01*
X113136000Y-97212000D02*
X113136000Y-99412000D01*
D13*
X161115000Y-70661252D02*
X161115000Y-70138748D01*
X162585000Y-70661252D02*
X162585000Y-70138748D01*
X171635000Y-70661252D02*
X171635000Y-70138748D01*
X170165000Y-70661252D02*
X170165000Y-70138748D01*
X159065000Y-70138748D02*
X159065000Y-70661252D01*
X160535000Y-70138748D02*
X160535000Y-70661252D01*
X163500000Y-68400000D02*
X163500000Y-72400000D01*
X163500000Y-72400000D02*
X169300000Y-72400000D01*
%LPC*%
D17*
X175962500Y-97350000D03*
X177837500Y-97350000D03*
D18*
X128053000Y-106577500D03*
X128053000Y-104702500D03*
D19*
X131750000Y-75000000D03*
D20*
X131750000Y-77540000D03*
D17*
X171800500Y-93640000D03*
X173675500Y-93640000D03*
D21*
X117800000Y-69462500D03*
X117800000Y-71337500D03*
D22*
X133037500Y-93850000D03*
X131162500Y-93850000D03*
D23*
X173500000Y-64000000D03*
X136800000Y-67300000D03*
X184250000Y-84500000D03*
D19*
X154300000Y-75000000D03*
D20*
X154300000Y-77540000D03*
D24*
X141623000Y-84930200D03*
X140353000Y-84930200D03*
X139083000Y-84930200D03*
X137813000Y-84930200D03*
X137813000Y-89349800D03*
X139083000Y-89349800D03*
X140353000Y-89349800D03*
X141623000Y-89349800D03*
D22*
X146062500Y-93640000D03*
X144187500Y-93640000D03*
D23*
X176100000Y-66750000D03*
D18*
X131463000Y-99077500D03*
X131463000Y-97202500D03*
D25*
X164118000Y-104590000D03*
X162218000Y-104590000D03*
X163168000Y-106690000D03*
D26*
X156333000Y-93665000D03*
X155063000Y-93665000D03*
X153793000Y-93665000D03*
X152523000Y-93665000D03*
X152523000Y-98615000D03*
X153793000Y-98615000D03*
X155063000Y-98615000D03*
X156333000Y-98615000D03*
D27*
X122600000Y-71550000D03*
X126400000Y-71550000D03*
X126400000Y-69250000D03*
X122600000Y-69250000D03*
D25*
X123503000Y-104590000D03*
X121603000Y-104590000D03*
X122553000Y-106690000D03*
D21*
X150178000Y-97202500D03*
X150178000Y-99077500D03*
D22*
X184587500Y-89700000D03*
X182712500Y-89700000D03*
D18*
X125553000Y-106577500D03*
X125553000Y-104702500D03*
D28*
X182644000Y-105400000D03*
D18*
X155678000Y-106577500D03*
X155678000Y-104702500D03*
X153178000Y-106577500D03*
X153178000Y-104702500D03*
D25*
X146038000Y-104590000D03*
X144138000Y-104590000D03*
X145088000Y-106690000D03*
X151128000Y-104590000D03*
X149228000Y-104590000D03*
X150178000Y-106690000D03*
D18*
X154600000Y-72637500D03*
X154600000Y-70762500D03*
D17*
X140630500Y-102140000D03*
X142505500Y-102140000D03*
D23*
X110750000Y-72928000D03*
D17*
X152240500Y-102140000D03*
X154115500Y-102140000D03*
D18*
X171450000Y-88577500D03*
X171450000Y-86702500D03*
D25*
X159628000Y-104590000D03*
X157728000Y-104590000D03*
X158678000Y-106690000D03*
D29*
X184050000Y-97100000D03*
X181950000Y-97100000D03*
D30*
X144544000Y-125586000D03*
X131844000Y-125586000D03*
D31*
X141749000Y-122156000D03*
D32*
X140729000Y-124696000D03*
X139719000Y-122156000D03*
X138699000Y-124696000D03*
X137689000Y-122156000D03*
X136669000Y-124696000D03*
X135659000Y-122156000D03*
X134639000Y-124696000D03*
D33*
X144989000Y-119746000D03*
X142699000Y-119746000D03*
X133689000Y-119746000D03*
X131399000Y-119746000D03*
D34*
X130064000Y-121346000D03*
X146324000Y-121346000D03*
D18*
X135382000Y-88577500D03*
X135382000Y-86702500D03*
D25*
X137038000Y-104590000D03*
X135138000Y-104590000D03*
X136088000Y-106690000D03*
D18*
X144272000Y-88567500D03*
X144272000Y-86692500D03*
X152000000Y-71337500D03*
X152000000Y-69462500D03*
X142088000Y-106577500D03*
X142088000Y-104702500D03*
X144163000Y-99077500D03*
X144163000Y-97202500D03*
D28*
X113478000Y-64540000D03*
D21*
X115500000Y-69462500D03*
X115500000Y-71337500D03*
D18*
X120000000Y-71337500D03*
X120000000Y-69462500D03*
D30*
X125494000Y-125586000D03*
X112794000Y-125586000D03*
D31*
X122699000Y-122156000D03*
D32*
X121679000Y-124696000D03*
X120669000Y-122156000D03*
X119649000Y-124696000D03*
X118639000Y-122156000D03*
X117619000Y-124696000D03*
X116609000Y-122156000D03*
X115589000Y-124696000D03*
D33*
X125939000Y-119746000D03*
X123649000Y-119746000D03*
X114639000Y-119746000D03*
X112349000Y-119746000D03*
D34*
X111014000Y-121346000D03*
X127274000Y-121346000D03*
D17*
X124865500Y-102140000D03*
X126740500Y-102140000D03*
X168730500Y-102140000D03*
X170605500Y-102140000D03*
D35*
X128725000Y-74150000D03*
X128075000Y-74150000D03*
X127425000Y-74150000D03*
X126775000Y-74150000D03*
X126125000Y-74150000D03*
X125475000Y-74150000D03*
X124825000Y-74150000D03*
X124175000Y-74150000D03*
X123525000Y-74150000D03*
X122875000Y-74150000D03*
X122225000Y-74150000D03*
X121575000Y-74150000D03*
X120925000Y-74150000D03*
X120275000Y-74150000D03*
X120275000Y-79850000D03*
X120925000Y-79850000D03*
X121575000Y-79850000D03*
X122225000Y-79850000D03*
X122875000Y-79850000D03*
X123525000Y-79850000D03*
X124175000Y-79850000D03*
X124825000Y-79850000D03*
X125475000Y-79850000D03*
X126125000Y-79850000D03*
X126775000Y-79850000D03*
X127425000Y-79850000D03*
X128075000Y-79850000D03*
X128725000Y-79850000D03*
D24*
X169323000Y-84930200D03*
X168053000Y-84930200D03*
X166783000Y-84930200D03*
X165513000Y-84930200D03*
X165513000Y-89349800D03*
X166783000Y-89349800D03*
X168053000Y-89349800D03*
X169323000Y-89349800D03*
D17*
X158412500Y-93350000D03*
X160287500Y-93350000D03*
X137130500Y-102140000D03*
X139005500Y-102140000D03*
D24*
X178961000Y-84930200D03*
X177691000Y-84930200D03*
X176421000Y-84930200D03*
X175151000Y-84930200D03*
X175151000Y-89349800D03*
X176421000Y-89349800D03*
X177691000Y-89349800D03*
X178961000Y-89349800D03*
D21*
X137600000Y-69462500D03*
X137600000Y-71337500D03*
D30*
X163594000Y-125586000D03*
X150894000Y-125586000D03*
D31*
X160799000Y-122156000D03*
D32*
X159779000Y-124696000D03*
X158769000Y-122156000D03*
X157749000Y-124696000D03*
X156739000Y-122156000D03*
X155719000Y-124696000D03*
X154709000Y-122156000D03*
X153689000Y-124696000D03*
D33*
X164039000Y-119746000D03*
X161749000Y-119746000D03*
X152739000Y-119746000D03*
X150449000Y-119746000D03*
D34*
X149114000Y-121346000D03*
X165374000Y-121346000D03*
D26*
X129208000Y-93665000D03*
X127938000Y-93665000D03*
X126668000Y-93665000D03*
X125398000Y-93665000D03*
X125398000Y-98615000D03*
X126668000Y-98615000D03*
X127938000Y-98615000D03*
X129208000Y-98615000D03*
D25*
X132003000Y-104590000D03*
X130103000Y-104590000D03*
X131053000Y-106690000D03*
D24*
X156263000Y-84930200D03*
X154993000Y-84930200D03*
X153723000Y-84930200D03*
X152453000Y-84930200D03*
X152453000Y-89349800D03*
X153723000Y-89349800D03*
X154993000Y-89349800D03*
X156263000Y-89349800D03*
D18*
X142396000Y-71337500D03*
X142396000Y-69462500D03*
D17*
X155740500Y-102140000D03*
X157615500Y-102140000D03*
D18*
X129000000Y-71337500D03*
X129000000Y-69462500D03*
D17*
X164730500Y-102140000D03*
X166605500Y-102140000D03*
X128365500Y-102140000D03*
X130240500Y-102140000D03*
D19*
X117031000Y-75382000D03*
D20*
X117031000Y-77922000D03*
D28*
X182210000Y-64540000D03*
D19*
X139600000Y-75000000D03*
D20*
X139600000Y-77540000D03*
D27*
X145522000Y-71550000D03*
X149322000Y-71550000D03*
X149322000Y-69250000D03*
X145522000Y-69250000D03*
D21*
X122573000Y-97202500D03*
X122573000Y-99077500D03*
D18*
X158750000Y-88577500D03*
X158750000Y-86702500D03*
D17*
X131046500Y-71752000D03*
X132921500Y-71752000D03*
D21*
X163268000Y-97202500D03*
X163268000Y-99077500D03*
D18*
X149860000Y-88577500D03*
X149860000Y-86702500D03*
D21*
X140000000Y-69462500D03*
X140000000Y-71337500D03*
D36*
X184500000Y-92500000D03*
X181700000Y-92500000D03*
D24*
X129208000Y-84930200D03*
X127938000Y-84930200D03*
X126668000Y-84930200D03*
X125398000Y-84930200D03*
X125398000Y-89349800D03*
X126668000Y-89349800D03*
X127938000Y-89349800D03*
X129208000Y-89349800D03*
D30*
X169944000Y-125586000D03*
X182644000Y-125586000D03*
D31*
X179849000Y-122156000D03*
D32*
X178829000Y-124696000D03*
X177819000Y-122156000D03*
X176799000Y-124696000D03*
X175789000Y-122156000D03*
X174769000Y-124696000D03*
X173759000Y-122156000D03*
X172739000Y-124696000D03*
D33*
X183089000Y-119746000D03*
X180799000Y-119746000D03*
X171789000Y-119746000D03*
X169499000Y-119746000D03*
D34*
X168164000Y-121346000D03*
X184424000Y-121346000D03*
D35*
X150975000Y-74150000D03*
X150325000Y-74150000D03*
X149675000Y-74150000D03*
X149025000Y-74150000D03*
X148375000Y-74150000D03*
X147725000Y-74150000D03*
X147075000Y-74150000D03*
X146425000Y-74150000D03*
X145775000Y-74150000D03*
X145125000Y-74150000D03*
X144475000Y-74150000D03*
X143825000Y-74150000D03*
X143175000Y-74150000D03*
X142525000Y-74150000D03*
X142525000Y-79850000D03*
X143175000Y-79850000D03*
X143825000Y-79850000D03*
X144475000Y-79850000D03*
X145125000Y-79850000D03*
X145775000Y-79850000D03*
X146425000Y-79850000D03*
X147075000Y-79850000D03*
X147725000Y-79850000D03*
X148375000Y-79850000D03*
X149025000Y-79850000D03*
X149675000Y-79850000D03*
X150325000Y-79850000D03*
X150975000Y-79850000D03*
D25*
X172868000Y-104590000D03*
X170968000Y-104590000D03*
X171918000Y-106690000D03*
D23*
X131800000Y-67400000D03*
D18*
X131572000Y-88577500D03*
X131572000Y-86702500D03*
X171468000Y-99077500D03*
X171468000Y-97202500D03*
D23*
X173500000Y-61250000D03*
D18*
X166168000Y-106577500D03*
X166168000Y-104702500D03*
X168918000Y-106577500D03*
X168918000Y-104702500D03*
X123190000Y-88567500D03*
X123190000Y-86692500D03*
D21*
X135318000Y-97202500D03*
X135318000Y-99077500D03*
D26*
X141723000Y-93665000D03*
X140453000Y-93665000D03*
X139183000Y-93665000D03*
X137913000Y-93665000D03*
X137913000Y-98615000D03*
X139183000Y-98615000D03*
X140453000Y-98615000D03*
X141723000Y-98615000D03*
D18*
X158678000Y-99077500D03*
X158678000Y-97202500D03*
X163322000Y-88577500D03*
X163322000Y-86702500D03*
D26*
X169323000Y-93665000D03*
X168053000Y-93665000D03*
X166783000Y-93665000D03*
X165513000Y-93665000D03*
X165513000Y-98615000D03*
X166783000Y-98615000D03*
X168053000Y-98615000D03*
X169323000Y-98615000D03*
D18*
X139088000Y-106577500D03*
X139088000Y-104702500D03*
D28*
X113048000Y-105400000D03*
D37*
X176300000Y-92600000D03*
X176300000Y-93250000D03*
X176300000Y-93900000D03*
X178200000Y-93900000D03*
X178200000Y-92600000D03*
D38*
X169725000Y-74137500D03*
X169075000Y-74137500D03*
X168425000Y-74137500D03*
X167775000Y-74137500D03*
X167125000Y-74137500D03*
X166475000Y-74137500D03*
X165825000Y-74137500D03*
X165175000Y-74137500D03*
X164525000Y-74137500D03*
X163875000Y-74137500D03*
X163225000Y-74137500D03*
X162575000Y-74137500D03*
X161925000Y-74137500D03*
X161275000Y-74137500D03*
X161275000Y-79862500D03*
X161925000Y-79862500D03*
X162575000Y-79862500D03*
X163225000Y-79862500D03*
X163875000Y-79862500D03*
X164525000Y-79862500D03*
X165175000Y-79862500D03*
X165825000Y-79862500D03*
X166475000Y-79862500D03*
X167125000Y-79862500D03*
X167775000Y-79862500D03*
X168425000Y-79862500D03*
X169075000Y-79862500D03*
X169725000Y-79862500D03*
D39*
X176690000Y-79320000D03*
D40*
X179230000Y-79320000D03*
X181770000Y-79320000D03*
X184310000Y-79320000D03*
D23*
X116586000Y-98312000D03*
D41*
X157800000Y-69487500D03*
X157800000Y-71312500D03*
D42*
X172400000Y-75312500D03*
X172400000Y-73487500D03*
D39*
X176710000Y-72020000D03*
D40*
X179250000Y-72020000D03*
X181790000Y-72020000D03*
X184330000Y-72020000D03*
D43*
X110250000Y-85440000D03*
X110250000Y-87980000D03*
X110250000Y-93060000D03*
X120350000Y-93060000D03*
X120350000Y-85440000D03*
D23*
X111236000Y-98312000D03*
D44*
X161850000Y-71350000D03*
X161850000Y-69450000D03*
X170900000Y-71350000D03*
X170900000Y-69450000D03*
D45*
X159800000Y-69450000D03*
X159800000Y-71350000D03*
D27*
X164500000Y-71550000D03*
X168300000Y-71550000D03*
X168300000Y-69250000D03*
X164500000Y-69250000D03*
D19*
X120160000Y-65006000D03*
D20*
X120160000Y-62466000D03*
X122700000Y-65006000D03*
X122700000Y-62466000D03*
X125240000Y-65006000D03*
X125240000Y-62466000D03*
X127780000Y-65006000D03*
X127780000Y-62466000D03*
X130320000Y-65006000D03*
X130320000Y-62466000D03*
X132860000Y-65006000D03*
X132860000Y-62466000D03*
X135400000Y-65006000D03*
X135400000Y-62466000D03*
X137940000Y-65006000D03*
X137940000Y-62466000D03*
X140480000Y-65006000D03*
X140480000Y-62466000D03*
X143020000Y-65006000D03*
X143020000Y-62466000D03*
X145560000Y-65006000D03*
X145560000Y-62466000D03*
X148100000Y-65006000D03*
X148100000Y-62466000D03*
X150640000Y-65006000D03*
X150640000Y-62466000D03*
X153180000Y-65006000D03*
X153180000Y-62466000D03*
X155720000Y-65006000D03*
X155720000Y-62466000D03*
X158260000Y-65006000D03*
X158260000Y-62466000D03*
X160800000Y-65006000D03*
X160800000Y-62466000D03*
X163340000Y-65006000D03*
X163340000Y-62466000D03*
X165880000Y-65006000D03*
X165880000Y-62466000D03*
X168420000Y-65006000D03*
X168420000Y-62466000D03*
M02*
