%TF.GenerationSoftware,KiCad,Pcbnew,5.99.0-unknown-47cb7f53fd~143~ubuntu20.04.1*%
%TF.CreationDate,2021-11-23T21:15:48-08:00*%
%TF.ProjectId,acorn-serial,61636f72-6e2d-4736-9572-69616c2e6b69,rev?*%
%TF.SameCoordinates,Original*%
%TF.FileFunction,Paste,Top*%
%TF.FilePolarity,Positive*%
%FSLAX46Y46*%
G04 Gerber Fmt 4.6, Leading zero omitted, Abs format (unit mm)*
G04 Created by KiCad (PCBNEW 5.99.0-unknown-47cb7f53fd~143~ubuntu20.04.1) date 2021-11-23 21:15:48*
%MOMM*%
%LPD*%
G01*
G04 APERTURE LIST*
G04 Aperture macros list*
%AMRoundRect*
0 Rectangle with rounded corners*
0 $1 Rounding radius*
0 $2 $3 $4 $5 $6 $7 $8 $9 X,Y pos of 4 corners*
0 Add a 4 corners polygon primitive as box body*
4,1,4,$2,$3,$4,$5,$6,$7,$8,$9,$2,$3,0*
0 Add four circle primitives for the rounded corners*
1,1,$1+$1,$2,$3*
1,1,$1+$1,$4,$5*
1,1,$1+$1,$6,$7*
1,1,$1+$1,$8,$9*
0 Add four rect primitives between the rounded corners*
20,1,$1+$1,$2,$3,$4,$5,0*
20,1,$1+$1,$4,$5,$6,$7,0*
20,1,$1+$1,$6,$7,$8,$9,0*
20,1,$1+$1,$8,$9,$2,$3,0*%
G04 Aperture macros list end*
%ADD10RoundRect,0.243750X-0.243750X-0.456250X0.243750X-0.456250X0.243750X0.456250X-0.243750X0.456250X0*%
%ADD11RoundRect,0.243750X0.456250X-0.243750X0.456250X0.243750X-0.456250X0.243750X-0.456250X-0.243750X0*%
%ADD12RoundRect,0.243750X-0.456250X0.243750X-0.456250X-0.243750X0.456250X-0.243750X0.456250X0.243750X0*%
%ADD13RoundRect,0.243750X0.243750X0.456250X-0.243750X0.456250X-0.243750X-0.456250X0.243750X-0.456250X0*%
%ADD14R,3.400000X1.800000*%
%ADD15R,0.584200X1.981200*%
%ADD16R,0.600000X1.300000*%
%ADD17RoundRect,0.150000X-0.150000X0.825000X-0.150000X-0.825000X0.150000X-0.825000X0.150000X0.825000X0*%
%ADD18R,1.600000X1.300000*%
%ADD19R,0.600000X0.450000*%
%ADD20R,0.400000X1.100000*%
%ADD21RoundRect,0.250000X0.375000X0.625000X-0.375000X0.625000X-0.375000X-0.625000X0.375000X-0.625000X0*%
%ADD22RoundRect,0.100000X-0.225000X-0.100000X0.225000X-0.100000X0.225000X0.100000X-0.225000X0.100000X0*%
%ADD23RoundRect,0.100000X-0.100000X0.637500X-0.100000X-0.637500X0.100000X-0.637500X0.100000X0.637500X0*%
%ADD24RoundRect,0.250000X-0.450000X0.262500X-0.450000X-0.262500X0.450000X-0.262500X0.450000X0.262500X0*%
%ADD25RoundRect,0.250000X0.450000X-0.262500X0.450000X0.262500X-0.450000X0.262500X-0.450000X-0.262500X0*%
%ADD26R,2.100000X1.000000*%
%ADD27RoundRect,0.250000X0.475000X-0.250000X0.475000X0.250000X-0.475000X0.250000X-0.475000X-0.250000X0*%
%ADD28RoundRect,0.250000X-0.475000X0.250000X-0.475000X-0.250000X0.475000X-0.250000X0.475000X0.250000X0*%
G04 APERTURE END LIST*
D10*
X175962500Y-97350000D03*
X177837500Y-97350000D03*
D11*
X128053000Y-106577500D03*
X128053000Y-104702500D03*
D10*
X171800500Y-93640000D03*
X173675500Y-93640000D03*
D12*
X117800000Y-69462500D03*
X117800000Y-71337500D03*
D13*
X133037500Y-93850000D03*
X131162500Y-93850000D03*
D14*
X173500000Y-64000000D03*
X136800000Y-67300000D03*
X184250000Y-84500000D03*
D15*
X141623000Y-84930200D03*
X140353000Y-84930200D03*
X139083000Y-84930200D03*
X137813000Y-84930200D03*
X137813000Y-89349800D03*
X139083000Y-89349800D03*
X140353000Y-89349800D03*
X141623000Y-89349800D03*
D13*
X146062500Y-93640000D03*
X144187500Y-93640000D03*
D14*
X176100000Y-66750000D03*
D11*
X131463000Y-99077500D03*
X131463000Y-97202500D03*
D16*
X164118000Y-104590000D03*
X162218000Y-104590000D03*
X163168000Y-106690000D03*
D17*
X156333000Y-93665000D03*
X155063000Y-93665000D03*
X153793000Y-93665000D03*
X152523000Y-93665000D03*
X152523000Y-98615000D03*
X153793000Y-98615000D03*
X155063000Y-98615000D03*
X156333000Y-98615000D03*
D18*
X122600000Y-71550000D03*
X126400000Y-71550000D03*
X126400000Y-69250000D03*
X122600000Y-69250000D03*
D16*
X123503000Y-104590000D03*
X121603000Y-104590000D03*
X122553000Y-106690000D03*
D12*
X150178000Y-97202500D03*
X150178000Y-99077500D03*
D13*
X184587500Y-89700000D03*
X182712500Y-89700000D03*
D11*
X125553000Y-106577500D03*
X125553000Y-104702500D03*
X155678000Y-106577500D03*
X155678000Y-104702500D03*
X153178000Y-106577500D03*
X153178000Y-104702500D03*
D16*
X146038000Y-104590000D03*
X144138000Y-104590000D03*
X145088000Y-106690000D03*
X151128000Y-104590000D03*
X149228000Y-104590000D03*
X150178000Y-106690000D03*
D11*
X154600000Y-72637500D03*
X154600000Y-70762500D03*
D10*
X140630500Y-102140000D03*
X142505500Y-102140000D03*
D14*
X110750000Y-72928000D03*
D10*
X152240500Y-102140000D03*
X154115500Y-102140000D03*
D11*
X171450000Y-88577500D03*
X171450000Y-86702500D03*
D16*
X159628000Y-104590000D03*
X157728000Y-104590000D03*
X158678000Y-106690000D03*
D19*
X184050000Y-97100000D03*
X181950000Y-97100000D03*
D11*
X135382000Y-88577500D03*
X135382000Y-86702500D03*
D16*
X137038000Y-104590000D03*
X135138000Y-104590000D03*
X136088000Y-106690000D03*
D11*
X144272000Y-88567500D03*
X144272000Y-86692500D03*
X152000000Y-71337500D03*
X152000000Y-69462500D03*
X142088000Y-106577500D03*
X142088000Y-104702500D03*
X144163000Y-99077500D03*
X144163000Y-97202500D03*
D12*
X115500000Y-69462500D03*
X115500000Y-71337500D03*
D11*
X120000000Y-71337500D03*
X120000000Y-69462500D03*
D10*
X124865500Y-102140000D03*
X126740500Y-102140000D03*
X168730500Y-102140000D03*
X170605500Y-102140000D03*
D20*
X128725000Y-74150000D03*
X128075000Y-74150000D03*
X127425000Y-74150000D03*
X126775000Y-74150000D03*
X126125000Y-74150000D03*
X125475000Y-74150000D03*
X124825000Y-74150000D03*
X124175000Y-74150000D03*
X123525000Y-74150000D03*
X122875000Y-74150000D03*
X122225000Y-74150000D03*
X121575000Y-74150000D03*
X120925000Y-74150000D03*
X120275000Y-74150000D03*
X120275000Y-79850000D03*
X120925000Y-79850000D03*
X121575000Y-79850000D03*
X122225000Y-79850000D03*
X122875000Y-79850000D03*
X123525000Y-79850000D03*
X124175000Y-79850000D03*
X124825000Y-79850000D03*
X125475000Y-79850000D03*
X126125000Y-79850000D03*
X126775000Y-79850000D03*
X127425000Y-79850000D03*
X128075000Y-79850000D03*
X128725000Y-79850000D03*
D15*
X169323000Y-84930200D03*
X168053000Y-84930200D03*
X166783000Y-84930200D03*
X165513000Y-84930200D03*
X165513000Y-89349800D03*
X166783000Y-89349800D03*
X168053000Y-89349800D03*
X169323000Y-89349800D03*
D10*
X158412500Y-93350000D03*
X160287500Y-93350000D03*
X137130500Y-102140000D03*
X139005500Y-102140000D03*
D15*
X178961000Y-84930200D03*
X177691000Y-84930200D03*
X176421000Y-84930200D03*
X175151000Y-84930200D03*
X175151000Y-89349800D03*
X176421000Y-89349800D03*
X177691000Y-89349800D03*
X178961000Y-89349800D03*
D12*
X137600000Y-69462500D03*
X137600000Y-71337500D03*
D17*
X129208000Y-93665000D03*
X127938000Y-93665000D03*
X126668000Y-93665000D03*
X125398000Y-93665000D03*
X125398000Y-98615000D03*
X126668000Y-98615000D03*
X127938000Y-98615000D03*
X129208000Y-98615000D03*
D16*
X132003000Y-104590000D03*
X130103000Y-104590000D03*
X131053000Y-106690000D03*
D15*
X156263000Y-84930200D03*
X154993000Y-84930200D03*
X153723000Y-84930200D03*
X152453000Y-84930200D03*
X152453000Y-89349800D03*
X153723000Y-89349800D03*
X154993000Y-89349800D03*
X156263000Y-89349800D03*
D11*
X142396000Y-71337500D03*
X142396000Y-69462500D03*
D10*
X155740500Y-102140000D03*
X157615500Y-102140000D03*
D11*
X129000000Y-71337500D03*
X129000000Y-69462500D03*
D10*
X164730500Y-102140000D03*
X166605500Y-102140000D03*
X128365500Y-102140000D03*
X130240500Y-102140000D03*
D18*
X145522000Y-71550000D03*
X149322000Y-71550000D03*
X149322000Y-69250000D03*
X145522000Y-69250000D03*
D12*
X122573000Y-97202500D03*
X122573000Y-99077500D03*
D11*
X158750000Y-88577500D03*
X158750000Y-86702500D03*
D10*
X131046500Y-71752000D03*
X132921500Y-71752000D03*
D12*
X163268000Y-97202500D03*
X163268000Y-99077500D03*
D11*
X149860000Y-88577500D03*
X149860000Y-86702500D03*
D12*
X140000000Y-69462500D03*
X140000000Y-71337500D03*
D21*
X184500000Y-92500000D03*
X181700000Y-92500000D03*
D15*
X129208000Y-84930200D03*
X127938000Y-84930200D03*
X126668000Y-84930200D03*
X125398000Y-84930200D03*
X125398000Y-89349800D03*
X126668000Y-89349800D03*
X127938000Y-89349800D03*
X129208000Y-89349800D03*
D20*
X150975000Y-74150000D03*
X150325000Y-74150000D03*
X149675000Y-74150000D03*
X149025000Y-74150000D03*
X148375000Y-74150000D03*
X147725000Y-74150000D03*
X147075000Y-74150000D03*
X146425000Y-74150000D03*
X145775000Y-74150000D03*
X145125000Y-74150000D03*
X144475000Y-74150000D03*
X143825000Y-74150000D03*
X143175000Y-74150000D03*
X142525000Y-74150000D03*
X142525000Y-79850000D03*
X143175000Y-79850000D03*
X143825000Y-79850000D03*
X144475000Y-79850000D03*
X145125000Y-79850000D03*
X145775000Y-79850000D03*
X146425000Y-79850000D03*
X147075000Y-79850000D03*
X147725000Y-79850000D03*
X148375000Y-79850000D03*
X149025000Y-79850000D03*
X149675000Y-79850000D03*
X150325000Y-79850000D03*
X150975000Y-79850000D03*
D16*
X172868000Y-104590000D03*
X170968000Y-104590000D03*
X171918000Y-106690000D03*
D14*
X131800000Y-67400000D03*
D11*
X131572000Y-88577500D03*
X131572000Y-86702500D03*
X171468000Y-99077500D03*
X171468000Y-97202500D03*
D14*
X173500000Y-61250000D03*
D11*
X166168000Y-106577500D03*
X166168000Y-104702500D03*
X168918000Y-106577500D03*
X168918000Y-104702500D03*
X123190000Y-88567500D03*
X123190000Y-86692500D03*
D12*
X135318000Y-97202500D03*
X135318000Y-99077500D03*
D17*
X141723000Y-93665000D03*
X140453000Y-93665000D03*
X139183000Y-93665000D03*
X137913000Y-93665000D03*
X137913000Y-98615000D03*
X139183000Y-98615000D03*
X140453000Y-98615000D03*
X141723000Y-98615000D03*
D11*
X158678000Y-99077500D03*
X158678000Y-97202500D03*
X163322000Y-88577500D03*
X163322000Y-86702500D03*
D17*
X169323000Y-93665000D03*
X168053000Y-93665000D03*
X166783000Y-93665000D03*
X165513000Y-93665000D03*
X165513000Y-98615000D03*
X166783000Y-98615000D03*
X168053000Y-98615000D03*
X169323000Y-98615000D03*
D11*
X139088000Y-106577500D03*
X139088000Y-104702500D03*
D22*
X176300000Y-92600000D03*
X176300000Y-93250000D03*
X176300000Y-93900000D03*
X178200000Y-93900000D03*
X178200000Y-92600000D03*
D23*
X169725000Y-74137500D03*
X169075000Y-74137500D03*
X168425000Y-74137500D03*
X167775000Y-74137500D03*
X167125000Y-74137500D03*
X166475000Y-74137500D03*
X165825000Y-74137500D03*
X165175000Y-74137500D03*
X164525000Y-74137500D03*
X163875000Y-74137500D03*
X163225000Y-74137500D03*
X162575000Y-74137500D03*
X161925000Y-74137500D03*
X161275000Y-74137500D03*
X161275000Y-79862500D03*
X161925000Y-79862500D03*
X162575000Y-79862500D03*
X163225000Y-79862500D03*
X163875000Y-79862500D03*
X164525000Y-79862500D03*
X165175000Y-79862500D03*
X165825000Y-79862500D03*
X166475000Y-79862500D03*
X167125000Y-79862500D03*
X167775000Y-79862500D03*
X168425000Y-79862500D03*
X169075000Y-79862500D03*
X169725000Y-79862500D03*
D14*
X116586000Y-98312000D03*
D24*
X157800000Y-69487500D03*
X157800000Y-71312500D03*
D25*
X172400000Y-75312500D03*
X172400000Y-73487500D03*
D26*
X110250000Y-85440000D03*
X110250000Y-87980000D03*
X110250000Y-93060000D03*
X120350000Y-93060000D03*
X120350000Y-85440000D03*
D14*
X111236000Y-98312000D03*
D27*
X161850000Y-71350000D03*
X161850000Y-69450000D03*
X170900000Y-71350000D03*
X170900000Y-69450000D03*
D28*
X159800000Y-69450000D03*
X159800000Y-71350000D03*
D18*
X164500000Y-71550000D03*
X168300000Y-71550000D03*
X168300000Y-69250000D03*
X164500000Y-69250000D03*
M02*
