M48
; DRILL file {KiCad 5.1.5-52549c5~86~ubuntu18.04.1} date Fri 24 Apr 2020 11:18:10 PM PDT
; FORMAT={-:-/ absolute / inch / decimal}
; #@! TF.CreationDate,2020-04-24T23:18:10-07:00
; #@! TF.GenerationSoftware,Kicad,Pcbnew,5.1.5-52549c5~86~ubuntu18.04.1
FMAT,2
INCH
T1C0.0157
T2C0.0236
T3C0.0287
T4C0.0295
T5C0.0315
T6C0.0354
T7C0.0394
T8C0.0472
T9C0.0512
T10C0.1575
T11C0.1083
T12C0.1457
%
G90
G05
T1
X2.2638Y-3.7795
X2.2638Y-4.2717
X2.2638Y-4.6063
X2.2941Y-3.8886
X2.3031Y-4.3602
X2.3425Y-3.3268
X2.3524Y-3.4252
X2.5197Y-4.6063
X2.6575Y-4.5866
X2.9626Y-4.7539
X2.9823Y-4.5669
X3.2185Y-4.0059
X3.2382Y-3.4646
X3.2972Y-3.3563
X3.4941Y-1.6634
X3.6122Y-1.6437
X3.622Y-3.2972
X3.6516Y-1.811
X3.7205Y-4.7047
X3.7303Y-3.435
X3.7402Y-3.3465
X3.75Y-3.5827
X3.8091Y-4.0551
X3.9075Y-2.6476
X3.9469Y-2.2835
X3.9469Y-2.4311
X3.9567Y-2.0472
X4.1634Y-1.9587
X4.1732Y-4.813
X4.1929Y-4.5768
X4.1929Y-4.6944
X4.2126Y-1.9587
X4.2224Y-2.2638
X4.2323Y-1.8701
X4.3209Y-3.2579
X4.3504Y-2.7362
X4.3602Y-1.6929
X4.3898Y-1.7323
X4.3898Y-1.9587
X4.4094Y-1.811
X4.4587Y-2.8346
X4.5177Y-2.8051
X4.5472Y-1.7717
X4.9016Y-1.6142
X4.9016Y-1.9291
X5.0492Y-2.6673
X5.315Y-3.8878
X5.3543Y-3.0315
X5.3642Y-4.2913
X5.374Y-4.9508
X5.374Y-5.0689
X5.3868Y-4.997
X5.4331Y-3.8189
X5.4331Y-3.8583
X5.4823Y-3.1398
X5.4921Y-3.8484
X5.5118Y-3.8878
X5.5315Y-3.9272
X5.5709Y-2.7165
X5.5709Y-3.0315
X5.5906Y-3.1201
X5.6102Y-3.7106
X5.6201Y-3.4744
X5.6201Y-5.1772
X5.6299Y-3.2579
X5.6496Y-3.1299
X5.6496Y-3.8386
X5.689Y-3.1496
X5.7087Y-2.9331
X5.7087Y-3.9173
X5.7282Y-3.1532
X5.7382Y-5.0689
X5.7677Y-3.7402
X5.7874Y-3.7795
X5.8071Y-2.9528
X5.8268Y-2.8543
X5.8661Y-2.0768
X5.9154Y-3.7894
X5.9154Y-4.0059
X6.0531Y-5.1772
X6.063Y-4.9016
X6.063Y-5.0197
X6.0728Y-4.5866
X6.0728Y-4.7441
X6.0827Y-3.5039
X6.5157Y-4.872
X6.7618Y-3.5335
T2
X2.5098Y-1.6732
X2.6772Y-4.7244
X2.9528Y-1.8701
X2.9528Y-1.9193
X2.9528Y-1.9587
X2.9626Y-1.8307
X3.0217Y-1.7126
X3.1102Y-1.8209
X3.7596Y-1.9206
X3.8091Y-2.0768
X3.878Y-1.7913
X3.9961Y-2.7165
X4.0157Y-2.185
X4.0945Y-2.0276
X4.1634Y-2.1555
X4.3799Y-2.0669
X4.4291Y-3.6319
X4.439Y-3.9665
X4.4587Y-3.5827
X4.4685Y-4.0748
X4.5276Y-3.8484
X4.5472Y-3.0709
X4.5472Y-3.1791
X4.5472Y-3.2972
X4.5472Y-3.9665
X4.9508Y-4.4193
X4.9606Y-2.1654
X5.2165Y-4.4094
X5.2559Y-2.9277
X5.2977Y-3.467
X5.3322Y-5.1156
X5.3346Y-3.1102
X5.3543Y-2.1358
X5.374Y-3.3465
X5.4528Y-1.8799
X5.5315Y-4.311
X5.6102Y-1.8701
X5.6594Y-5.0197
X5.7087Y-4.252
X5.7283Y-4.0354
X5.8071Y-3.248
X5.8974Y-4.0829
X5.9646Y-2.372
X5.9744Y-1.8602
X6.1811Y-2.3819
X6.2697Y-2.2047
X6.4862Y-1.8701
X6.5453Y-3.1496
X6.5748Y-3.0315
X6.5748Y-3.2776
X6.5945Y-4.0157
X6.6142Y-3.8976
X6.6142Y-4.1437
X6.6535Y-4.7146
T3
X3.9409Y-5.122
X4.0394Y-5.122
X4.1378Y-5.122
X4.2362Y-5.122
X4.4449Y-5.122
X4.5433Y-5.122
X4.6417Y-5.122
T4
X6.3386Y-2.9921
X6.3386Y-3.0709
X6.3386Y-3.1496
X6.3386Y-3.2283
X6.3386Y-3.3071
X4.5866Y-2.2638
X4.6654Y-2.2638
X4.7441Y-2.2638
X4.8228Y-2.2638
X6.378Y-3.8583
X6.378Y-3.937
X6.378Y-4.0157
X6.378Y-4.0945
X6.378Y-4.1732
X3.3957Y-1.6929
X3.3957Y-1.7717
X3.3957Y-1.8504
X4.0059Y-1.7028
X4.0059Y-1.7815
X4.0059Y-1.8602
X5.1673Y-1.6929
X5.1673Y-1.7717
X5.1673Y-1.8504
X5.1673Y-1.9291
X4.7638Y-3.8189
X4.7638Y-3.8976
X4.7638Y-3.9764
X4.7638Y-4.0551
X4.7638Y-4.1339
X5.502Y-2.2638
X5.5807Y-2.2638
X5.6594Y-2.2638
X5.7382Y-2.2638
X5.8169Y-2.2638
X5.8957Y-2.2638
X5.9744Y-2.2638
X6.0531Y-2.2638
X5.4724Y-4.4882
X5.5512Y-4.4882
X5.6299Y-4.4882
X5.7087Y-4.4882
X5.7874Y-4.4882
X6.6437Y-2.1161
X6.7224Y-2.1161
X2.3228Y-1.6831
X2.3228Y-1.7618
X2.3228Y-1.8406
X2.3228Y-1.9193
X6.3386Y-4.9606
X6.3386Y-5.0394
X6.3386Y-5.1181
X6.3386Y-5.1969
X6.3386Y-4.5079
X6.3386Y-4.5866
X6.3386Y-4.6654
X6.3386Y-4.7441
X2.874Y-5.0
X2.874Y-5.0787
X5.0394Y-2.2638
X5.1181Y-2.2638
X5.1969Y-2.2638
X5.2756Y-2.2638
X4.7835Y-3.0217
X4.7835Y-3.1004
X4.7835Y-3.1791
X4.7835Y-3.2579
X4.7835Y-3.3366
T5
X3.6811Y-3.2185
X4.1929Y-2.4409
X4.2913Y-2.3228
X4.4291Y-2.2441
X4.4291Y-4.6949
X4.5866Y-5.2067
X4.8031Y-4.7835
X5.5512Y-4.9606
X5.9055Y-5.2165
T6
X2.2441Y-4.8327
X2.3425Y-4.8327
X2.4409Y-4.8327
X2.4016Y-5.0984
X2.5Y-5.0984
X2.5984Y-5.0984
T7
X5.6201Y-3.6417
X5.7201Y-3.6417
X4.1732Y-4.2126
X4.2732Y-4.2126
X3.1496Y-4.8819
X3.3465Y-4.8819
X5.3642Y-3.6417
X5.4642Y-3.6417
X4.6016Y-2.489
X4.6016Y-2.589
X4.7016Y-2.489
X4.7016Y-2.589
X4.8016Y-2.489
X4.8016Y-2.589
X4.9016Y-2.489
X4.9016Y-2.589
X5.0016Y-2.489
X5.0016Y-2.589
X5.1016Y-2.489
X5.1016Y-2.589
X5.2016Y-2.489
X5.2016Y-2.589
X5.3016Y-2.489
X5.3016Y-2.589
X5.4016Y-2.489
X5.4016Y-2.589
X5.5016Y-2.489
X5.5016Y-2.589
X5.6016Y-2.489
X5.6016Y-2.589
X5.7016Y-2.489
X5.7016Y-2.589
X5.8016Y-2.489
X5.8016Y-2.589
X5.9016Y-2.489
X5.9016Y-2.589
X6.0016Y-2.489
X6.0016Y-2.589
X6.1016Y-2.489
X6.1016Y-2.589
X6.2016Y-2.489
X6.2016Y-2.589
X6.3016Y-2.489
X6.3016Y-2.589
X6.4016Y-2.489
X6.4016Y-2.589
X6.5016Y-2.489
X6.5016Y-2.589
X2.5886Y-1.811
X2.5886Y-1.911
X5.374Y-2.815
X5.474Y-2.815
X6.4173Y-1.6831
X6.4173Y-1.7831
X6.1122Y-1.6831
X6.2106Y-1.6831
X4.1732Y-2.9055
X4.1732Y-3.0055
X4.1732Y-3.1055
X4.1732Y-3.2055
X4.1732Y-3.3055
X4.1732Y-3.4055
X5.6398Y-2.815
X5.7398Y-2.815
T8
X4.8819Y-4.9705
X4.9819Y-4.9705
X5.0819Y-4.9705
X5.1819Y-4.9705
X5.2819Y-4.9705
X4.8756Y-4.6949
X4.9756Y-4.6949
X5.0756Y-4.6949
X5.1756Y-4.6949
X5.2756Y-4.6949
T9
X3.622Y-5.0
X3.622Y-5.1969
X3.1417Y-3.7343
X3.1417Y-4.5335
X3.4409Y-4.5335
X3.5433Y-3.7343
X3.6417Y-4.5335
X3.9449Y-3.7343
T10
X3.622Y-2.2638
X3.622Y-2.8543
X2.1654Y-2.2638
X2.1654Y-2.8543
X3.1102Y-2.2638
X3.1102Y-2.8543
X2.6575Y-2.2638
X2.6575Y-2.8543
T11
X6.6929Y-4.4685
X4.4094Y-4.4685
X6.6929Y-2.5394
X4.4094Y-2.5394
T12
X2.0669Y-5.1181
X6.6929Y-1.7717
X6.6929Y-5.1181
X2.0669Y-1.7717
T0
M30
