G04 #@! TF.GenerationSoftware,KiCad,Pcbnew,5.1.5-52549c5~86~ubuntu18.04.1*
G04 #@! TF.CreationDate,2020-04-24T23:17:52-07:00*
G04 #@! TF.ProjectId,RPi_Hat,5250695f-4861-4742-9e6b-696361645f70,rev?*
G04 #@! TF.SameCoordinates,Original*
G04 #@! TF.FileFunction,Soldermask,Bot*
G04 #@! TF.FilePolarity,Negative*
%FSLAX46Y46*%
G04 Gerber Fmt 4.6, Leading zero omitted, Abs format (unit mm)*
G04 Created by KiCad (PCBNEW 5.1.5-52549c5~86~ubuntu18.04.1) date 2020-04-24 23:17:52*
%MOMM*%
%LPD*%
G04 APERTURE LIST*
%ADD10C,0.010000*%
%ADD11C,8.000000*%
%ADD12R,2.000000X2.000000*%
%ADD13C,2.000000*%
%ADD14C,2.600000*%
%ADD15O,1.750000X1.200000*%
%ADD16C,0.150000*%
%ADD17C,6.200000*%
%ADD18R,1.700000X1.700000*%
%ADD19O,1.700000X1.700000*%
%ADD20C,3.700000*%
%ADD21O,1.700000X2.000000*%
%ADD22O,1.740000X2.200000*%
%ADD23R,1.130000X1.130000*%
%ADD24C,1.130000*%
%ADD25O,1.200000X1.750000*%
%ADD26R,1.900000X1.900000*%
%ADD27C,1.900000*%
G04 APERTURE END LIST*
D10*
G36*
X51076962Y-62611129D02*
G01*
X51003435Y-62623322D01*
X50941255Y-62649687D01*
X50899510Y-62675386D01*
X50811615Y-62752526D01*
X50745099Y-62856712D01*
X50696989Y-62994776D01*
X50664314Y-63173550D01*
X50657545Y-63231658D01*
X50646074Y-63384552D01*
X50649999Y-63494680D01*
X50671240Y-63568259D01*
X50711714Y-63611503D01*
X50773341Y-63630628D01*
X50780987Y-63631477D01*
X50859594Y-63618103D01*
X50913102Y-63562178D01*
X50939490Y-63466407D01*
X50942000Y-63416098D01*
X50950032Y-63295249D01*
X50971559Y-63176352D01*
X51002734Y-63074812D01*
X51039706Y-63006034D01*
X51046280Y-62998720D01*
X51120460Y-62953343D01*
X51199837Y-62955462D01*
X51279277Y-63002833D01*
X51353650Y-63093211D01*
X51383529Y-63146188D01*
X51409224Y-63230735D01*
X51422332Y-63346066D01*
X51422330Y-63473617D01*
X51408696Y-63594825D01*
X51397540Y-63643928D01*
X51362182Y-63726863D01*
X51294412Y-63841922D01*
X51197179Y-63984761D01*
X51073432Y-64151033D01*
X50934426Y-64326217D01*
X50849802Y-64437277D01*
X50767141Y-64558062D01*
X50699153Y-64669509D01*
X50674572Y-64715900D01*
X50597463Y-64917147D01*
X50554884Y-65128783D01*
X50544893Y-65344028D01*
X50565546Y-65556105D01*
X50614899Y-65758234D01*
X50691010Y-65943637D01*
X50791935Y-66105535D01*
X50915731Y-66237151D01*
X51060455Y-66331706D01*
X51147398Y-66365199D01*
X51284213Y-66396393D01*
X51403668Y-66398787D01*
X51530187Y-66372476D01*
X51549052Y-66366757D01*
X51683932Y-66298949D01*
X51802768Y-66187946D01*
X51902561Y-66039653D01*
X51980310Y-65859973D01*
X52033017Y-65654808D01*
X52057682Y-65430061D01*
X52059159Y-65362901D01*
X52050848Y-65232062D01*
X52023583Y-65145335D01*
X51975104Y-65098854D01*
X51903148Y-65088751D01*
X51898990Y-65089122D01*
X51831089Y-65111616D01*
X51786271Y-65166977D01*
X51761872Y-65260589D01*
X51755175Y-65379974D01*
X51741795Y-65546200D01*
X51705184Y-65700569D01*
X51649417Y-65835546D01*
X51578568Y-65943593D01*
X51496713Y-66017173D01*
X51407925Y-66048749D01*
X51393277Y-66049400D01*
X51289379Y-66026871D01*
X51202756Y-65958358D01*
X51131726Y-65842470D01*
X51125293Y-65827937D01*
X51071218Y-65643523D01*
X51054741Y-65439524D01*
X51074953Y-65229490D01*
X51130945Y-65026969D01*
X51187359Y-64903447D01*
X51229350Y-64837560D01*
X51296877Y-64744437D01*
X51381757Y-64634839D01*
X51475808Y-64519526D01*
X51510368Y-64478649D01*
X51630642Y-64331666D01*
X51732407Y-64194970D01*
X51808867Y-64078028D01*
X51841629Y-64017400D01*
X51875799Y-63941981D01*
X51898216Y-63878553D01*
X51911293Y-63812858D01*
X51917445Y-63730636D01*
X51919084Y-63617628D01*
X51919016Y-63560200D01*
X51911214Y-63365115D01*
X51886462Y-63206929D01*
X51840763Y-63073416D01*
X51770120Y-62952355D01*
X51686444Y-62848963D01*
X51569029Y-62734050D01*
X51454902Y-62660141D01*
X51329949Y-62620515D01*
X51181446Y-62608454D01*
X51076962Y-62611129D01*
G37*
X51076962Y-62611129D02*
X51003435Y-62623322D01*
X50941255Y-62649687D01*
X50899510Y-62675386D01*
X50811615Y-62752526D01*
X50745099Y-62856712D01*
X50696989Y-62994776D01*
X50664314Y-63173550D01*
X50657545Y-63231658D01*
X50646074Y-63384552D01*
X50649999Y-63494680D01*
X50671240Y-63568259D01*
X50711714Y-63611503D01*
X50773341Y-63630628D01*
X50780987Y-63631477D01*
X50859594Y-63618103D01*
X50913102Y-63562178D01*
X50939490Y-63466407D01*
X50942000Y-63416098D01*
X50950032Y-63295249D01*
X50971559Y-63176352D01*
X51002734Y-63074812D01*
X51039706Y-63006034D01*
X51046280Y-62998720D01*
X51120460Y-62953343D01*
X51199837Y-62955462D01*
X51279277Y-63002833D01*
X51353650Y-63093211D01*
X51383529Y-63146188D01*
X51409224Y-63230735D01*
X51422332Y-63346066D01*
X51422330Y-63473617D01*
X51408696Y-63594825D01*
X51397540Y-63643928D01*
X51362182Y-63726863D01*
X51294412Y-63841922D01*
X51197179Y-63984761D01*
X51073432Y-64151033D01*
X50934426Y-64326217D01*
X50849802Y-64437277D01*
X50767141Y-64558062D01*
X50699153Y-64669509D01*
X50674572Y-64715900D01*
X50597463Y-64917147D01*
X50554884Y-65128783D01*
X50544893Y-65344028D01*
X50565546Y-65556105D01*
X50614899Y-65758234D01*
X50691010Y-65943637D01*
X50791935Y-66105535D01*
X50915731Y-66237151D01*
X51060455Y-66331706D01*
X51147398Y-66365199D01*
X51284213Y-66396393D01*
X51403668Y-66398787D01*
X51530187Y-66372476D01*
X51549052Y-66366757D01*
X51683932Y-66298949D01*
X51802768Y-66187946D01*
X51902561Y-66039653D01*
X51980310Y-65859973D01*
X52033017Y-65654808D01*
X52057682Y-65430061D01*
X52059159Y-65362901D01*
X52050848Y-65232062D01*
X52023583Y-65145335D01*
X51975104Y-65098854D01*
X51903148Y-65088751D01*
X51898990Y-65089122D01*
X51831089Y-65111616D01*
X51786271Y-65166977D01*
X51761872Y-65260589D01*
X51755175Y-65379974D01*
X51741795Y-65546200D01*
X51705184Y-65700569D01*
X51649417Y-65835546D01*
X51578568Y-65943593D01*
X51496713Y-66017173D01*
X51407925Y-66048749D01*
X51393277Y-66049400D01*
X51289379Y-66026871D01*
X51202756Y-65958358D01*
X51131726Y-65842470D01*
X51125293Y-65827937D01*
X51071218Y-65643523D01*
X51054741Y-65439524D01*
X51074953Y-65229490D01*
X51130945Y-65026969D01*
X51187359Y-64903447D01*
X51229350Y-64837560D01*
X51296877Y-64744437D01*
X51381757Y-64634839D01*
X51475808Y-64519526D01*
X51510368Y-64478649D01*
X51630642Y-64331666D01*
X51732407Y-64194970D01*
X51808867Y-64078028D01*
X51841629Y-64017400D01*
X51875799Y-63941981D01*
X51898216Y-63878553D01*
X51911293Y-63812858D01*
X51917445Y-63730636D01*
X51919084Y-63617628D01*
X51919016Y-63560200D01*
X51911214Y-63365115D01*
X51886462Y-63206929D01*
X51840763Y-63073416D01*
X51770120Y-62952355D01*
X51686444Y-62848963D01*
X51569029Y-62734050D01*
X51454902Y-62660141D01*
X51329949Y-62620515D01*
X51181446Y-62608454D01*
X51076962Y-62611129D01*
G36*
X62695563Y-62646385D02*
G01*
X62557570Y-62647618D01*
X62456842Y-62650416D01*
X62386614Y-62655306D01*
X62340120Y-62662816D01*
X62310593Y-62673474D01*
X62291269Y-62687808D01*
X62287037Y-62692250D01*
X62255645Y-62753407D01*
X62246229Y-62828690D01*
X62259638Y-62895367D01*
X62278479Y-62921364D01*
X62317097Y-62932875D01*
X62398868Y-62942907D01*
X62516153Y-62950793D01*
X62661310Y-62955868D01*
X62678529Y-62956224D01*
X63045100Y-62963300D01*
X63051780Y-63845950D01*
X63058459Y-64728600D01*
X62766615Y-64728600D01*
X62640646Y-64729141D01*
X62555579Y-64731974D01*
X62501519Y-64738913D01*
X62468572Y-64751772D01*
X62446842Y-64772366D01*
X62434927Y-64789410D01*
X62409472Y-64864671D01*
X62419531Y-64941554D01*
X62461471Y-65000104D01*
X62474852Y-65008669D01*
X62518707Y-65018998D01*
X62600309Y-65027210D01*
X62706616Y-65032276D01*
X62788148Y-65033400D01*
X63055234Y-65033400D01*
X63062867Y-65640386D01*
X63065793Y-65849123D01*
X63069937Y-66012596D01*
X63077145Y-66136337D01*
X63089266Y-66225878D01*
X63108144Y-66286750D01*
X63135629Y-66324486D01*
X63173566Y-66344617D01*
X63223803Y-66352676D01*
X63288187Y-66354194D01*
X63301194Y-66354200D01*
X63385691Y-66350252D01*
X63438581Y-66333895D01*
X63478742Y-66298356D01*
X63487757Y-66287274D01*
X63498101Y-66273248D01*
X63506993Y-66256935D01*
X63514543Y-66234621D01*
X63520860Y-66202594D01*
X63526054Y-66157142D01*
X63530235Y-66094550D01*
X63533514Y-66011106D01*
X63535998Y-65903097D01*
X63537800Y-65766810D01*
X63539028Y-65598532D01*
X63539792Y-65394550D01*
X63540202Y-65151151D01*
X63540369Y-64864622D01*
X63540400Y-64531250D01*
X63540400Y-64507604D01*
X63540321Y-64163085D01*
X63539970Y-63865756D01*
X63539178Y-63612006D01*
X63537776Y-63398226D01*
X63535595Y-63220806D01*
X63532465Y-63076134D01*
X63528218Y-62960602D01*
X63522683Y-62870599D01*
X63515693Y-62802515D01*
X63507077Y-62752740D01*
X63496667Y-62717664D01*
X63484293Y-62693676D01*
X63469786Y-62677167D01*
X63454048Y-62665238D01*
X63421363Y-62659722D01*
X63345702Y-62654817D01*
X63234888Y-62650780D01*
X63096744Y-62647872D01*
X62939092Y-62646349D01*
X62877587Y-62646188D01*
X62695563Y-62646385D01*
G37*
X62695563Y-62646385D02*
X62557570Y-62647618D01*
X62456842Y-62650416D01*
X62386614Y-62655306D01*
X62340120Y-62662816D01*
X62310593Y-62673474D01*
X62291269Y-62687808D01*
X62287037Y-62692250D01*
X62255645Y-62753407D01*
X62246229Y-62828690D01*
X62259638Y-62895367D01*
X62278479Y-62921364D01*
X62317097Y-62932875D01*
X62398868Y-62942907D01*
X62516153Y-62950793D01*
X62661310Y-62955868D01*
X62678529Y-62956224D01*
X63045100Y-62963300D01*
X63051780Y-63845950D01*
X63058459Y-64728600D01*
X62766615Y-64728600D01*
X62640646Y-64729141D01*
X62555579Y-64731974D01*
X62501519Y-64738913D01*
X62468572Y-64751772D01*
X62446842Y-64772366D01*
X62434927Y-64789410D01*
X62409472Y-64864671D01*
X62419531Y-64941554D01*
X62461471Y-65000104D01*
X62474852Y-65008669D01*
X62518707Y-65018998D01*
X62600309Y-65027210D01*
X62706616Y-65032276D01*
X62788148Y-65033400D01*
X63055234Y-65033400D01*
X63062867Y-65640386D01*
X63065793Y-65849123D01*
X63069937Y-66012596D01*
X63077145Y-66136337D01*
X63089266Y-66225878D01*
X63108144Y-66286750D01*
X63135629Y-66324486D01*
X63173566Y-66344617D01*
X63223803Y-66352676D01*
X63288187Y-66354194D01*
X63301194Y-66354200D01*
X63385691Y-66350252D01*
X63438581Y-66333895D01*
X63478742Y-66298356D01*
X63487757Y-66287274D01*
X63498101Y-66273248D01*
X63506993Y-66256935D01*
X63514543Y-66234621D01*
X63520860Y-66202594D01*
X63526054Y-66157142D01*
X63530235Y-66094550D01*
X63533514Y-66011106D01*
X63535998Y-65903097D01*
X63537800Y-65766810D01*
X63539028Y-65598532D01*
X63539792Y-65394550D01*
X63540202Y-65151151D01*
X63540369Y-64864622D01*
X63540400Y-64531250D01*
X63540400Y-64507604D01*
X63540321Y-64163085D01*
X63539970Y-63865756D01*
X63539178Y-63612006D01*
X63537776Y-63398226D01*
X63535595Y-63220806D01*
X63532465Y-63076134D01*
X63528218Y-62960602D01*
X63522683Y-62870599D01*
X63515693Y-62802515D01*
X63507077Y-62752740D01*
X63496667Y-62717664D01*
X63484293Y-62693676D01*
X63469786Y-62677167D01*
X63454048Y-62665238D01*
X63421363Y-62659722D01*
X63345702Y-62654817D01*
X63234888Y-62650780D01*
X63096744Y-62647872D01*
X62939092Y-62646349D01*
X62877587Y-62646188D01*
X62695563Y-62646385D01*
G36*
X60832129Y-62644707D02*
G01*
X60806033Y-62652925D01*
X60784336Y-62671103D01*
X60766637Y-62702640D01*
X60752532Y-62750938D01*
X60741620Y-62819397D01*
X60733499Y-62911417D01*
X60727767Y-63030400D01*
X60724020Y-63179746D01*
X60721857Y-63362855D01*
X60720876Y-63583129D01*
X60720674Y-63843968D01*
X60720850Y-64148772D01*
X60721000Y-64500942D01*
X60721000Y-64504413D01*
X60720837Y-64856264D01*
X60720623Y-65160724D01*
X60720771Y-65421197D01*
X60721693Y-65641089D01*
X60723802Y-65823807D01*
X60727512Y-65972755D01*
X60733236Y-66091340D01*
X60741385Y-66182967D01*
X60752374Y-66251043D01*
X60766615Y-66298972D01*
X60784520Y-66330161D01*
X60806503Y-66348016D01*
X60832977Y-66355941D01*
X60864354Y-66357344D01*
X60901047Y-66355629D01*
X60943470Y-66354202D01*
X60945251Y-66354200D01*
X61041152Y-66347073D01*
X61104054Y-66322686D01*
X61127400Y-66303400D01*
X61137279Y-66292422D01*
X61145786Y-66278262D01*
X61153024Y-66257285D01*
X61159097Y-66225857D01*
X61164105Y-66180344D01*
X61168152Y-66117112D01*
X61171340Y-66032526D01*
X61173771Y-65922953D01*
X61175548Y-65784757D01*
X61176773Y-65614306D01*
X61177548Y-65407964D01*
X61177976Y-65162098D01*
X61178160Y-64873073D01*
X61178200Y-64537255D01*
X61178200Y-64500000D01*
X61178169Y-64159174D01*
X61178005Y-63865514D01*
X61177607Y-63615386D01*
X61176872Y-63405155D01*
X61175698Y-63231188D01*
X61173982Y-63089850D01*
X61171623Y-62977506D01*
X61168517Y-62890523D01*
X61164563Y-62825267D01*
X61159658Y-62778103D01*
X61153699Y-62745397D01*
X61146585Y-62723515D01*
X61138213Y-62708822D01*
X61128480Y-62697685D01*
X61127400Y-62696600D01*
X61076770Y-62663083D01*
X61002401Y-62647923D01*
X60940837Y-62645800D01*
X60899129Y-62644545D01*
X60863027Y-62643047D01*
X60832129Y-62644707D01*
G37*
X60832129Y-62644707D02*
X60806033Y-62652925D01*
X60784336Y-62671103D01*
X60766637Y-62702640D01*
X60752532Y-62750938D01*
X60741620Y-62819397D01*
X60733499Y-62911417D01*
X60727767Y-63030400D01*
X60724020Y-63179746D01*
X60721857Y-63362855D01*
X60720876Y-63583129D01*
X60720674Y-63843968D01*
X60720850Y-64148772D01*
X60721000Y-64500942D01*
X60721000Y-64504413D01*
X60720837Y-64856264D01*
X60720623Y-65160724D01*
X60720771Y-65421197D01*
X60721693Y-65641089D01*
X60723802Y-65823807D01*
X60727512Y-65972755D01*
X60733236Y-66091340D01*
X60741385Y-66182967D01*
X60752374Y-66251043D01*
X60766615Y-66298972D01*
X60784520Y-66330161D01*
X60806503Y-66348016D01*
X60832977Y-66355941D01*
X60864354Y-66357344D01*
X60901047Y-66355629D01*
X60943470Y-66354202D01*
X60945251Y-66354200D01*
X61041152Y-66347073D01*
X61104054Y-66322686D01*
X61127400Y-66303400D01*
X61137279Y-66292422D01*
X61145786Y-66278262D01*
X61153024Y-66257285D01*
X61159097Y-66225857D01*
X61164105Y-66180344D01*
X61168152Y-66117112D01*
X61171340Y-66032526D01*
X61173771Y-65922953D01*
X61175548Y-65784757D01*
X61176773Y-65614306D01*
X61177548Y-65407964D01*
X61177976Y-65162098D01*
X61178160Y-64873073D01*
X61178200Y-64537255D01*
X61178200Y-64500000D01*
X61178169Y-64159174D01*
X61178005Y-63865514D01*
X61177607Y-63615386D01*
X61176872Y-63405155D01*
X61175698Y-63231188D01*
X61173982Y-63089850D01*
X61171623Y-62977506D01*
X61168517Y-62890523D01*
X61164563Y-62825267D01*
X61159658Y-62778103D01*
X61153699Y-62745397D01*
X61146585Y-62723515D01*
X61138213Y-62708822D01*
X61128480Y-62697685D01*
X61127400Y-62696600D01*
X61076770Y-62663083D01*
X61002401Y-62647923D01*
X60940837Y-62645800D01*
X60899129Y-62644545D01*
X60863027Y-62643047D01*
X60832129Y-62644707D01*
G36*
X58743782Y-62646106D02*
G01*
X58613526Y-62647464D01*
X58519597Y-62650532D01*
X58454757Y-62655967D01*
X58411772Y-62664427D01*
X58383405Y-62676569D01*
X58362420Y-62693053D01*
X58358800Y-62696600D01*
X58314139Y-62766773D01*
X58318979Y-62841756D01*
X58347541Y-62894148D01*
X58367138Y-62917736D01*
X58393098Y-62933650D01*
X58434848Y-62943391D01*
X58501815Y-62948459D01*
X58603429Y-62950356D01*
X58702247Y-62950600D01*
X58834780Y-62951258D01*
X58925524Y-62954108D01*
X58983479Y-62960461D01*
X59017648Y-62971627D01*
X59037034Y-62988918D01*
X59044055Y-63000381D01*
X59052293Y-63042828D01*
X59058539Y-63134999D01*
X59062768Y-63275853D01*
X59064957Y-63464353D01*
X59065084Y-63699458D01*
X59063999Y-63883031D01*
X59057300Y-64715900D01*
X58790600Y-64722573D01*
X58668481Y-64726716D01*
X58586539Y-64733215D01*
X58534152Y-64744116D01*
X58500700Y-64761467D01*
X58479450Y-64782537D01*
X58439193Y-64858934D01*
X58449156Y-64934709D01*
X58470967Y-64971395D01*
X58494216Y-64994019D01*
X58531567Y-65009762D01*
X58592903Y-65020594D01*
X58688109Y-65028484D01*
X58782117Y-65033400D01*
X59057300Y-65046100D01*
X59064239Y-65497520D01*
X59065384Y-65678462D01*
X59062883Y-65824004D01*
X59056920Y-65929505D01*
X59047679Y-65990328D01*
X59044295Y-65999170D01*
X59030119Y-66018993D01*
X59006858Y-66032802D01*
X58966183Y-66041672D01*
X58899764Y-66046678D01*
X58799271Y-66048896D01*
X58656377Y-66049399D01*
X58655087Y-66049400D01*
X58499351Y-66050390D01*
X58387268Y-66054974D01*
X58311704Y-66065565D01*
X58265527Y-66084579D01*
X58241602Y-66114433D01*
X58232796Y-66157541D01*
X58231800Y-66192739D01*
X58234775Y-66242219D01*
X58247538Y-66280449D01*
X58275845Y-66308860D01*
X58325453Y-66328888D01*
X58402121Y-66341965D01*
X58511606Y-66349524D01*
X58659664Y-66352999D01*
X58852052Y-66353822D01*
X58878802Y-66353811D01*
X59039484Y-66352841D01*
X59183492Y-66350352D01*
X59302885Y-66346615D01*
X59389721Y-66341898D01*
X59436058Y-66336470D01*
X59440848Y-66334761D01*
X59457445Y-66322054D01*
X59471769Y-66305295D01*
X59483989Y-66280890D01*
X59494270Y-66245246D01*
X59502779Y-66194771D01*
X59509684Y-66125870D01*
X59515152Y-66034952D01*
X59519349Y-65918424D01*
X59522443Y-65772691D01*
X59524600Y-65594162D01*
X59525987Y-65379244D01*
X59526772Y-65124342D01*
X59527121Y-64825865D01*
X59527200Y-64480220D01*
X59527200Y-64476269D01*
X59527168Y-64137918D01*
X59527000Y-63846706D01*
X59526593Y-63598974D01*
X59525842Y-63391060D01*
X59524643Y-63219303D01*
X59522891Y-63080045D01*
X59520481Y-62969623D01*
X59517310Y-62884379D01*
X59513272Y-62820650D01*
X59508263Y-62774776D01*
X59502180Y-62743098D01*
X59494916Y-62721955D01*
X59486368Y-62707686D01*
X59476431Y-62696630D01*
X59476400Y-62696600D01*
X59455984Y-62679248D01*
X59429513Y-62666359D01*
X59389751Y-62657272D01*
X59329462Y-62651332D01*
X59241410Y-62647879D01*
X59118359Y-62646257D01*
X58953073Y-62645807D01*
X58917600Y-62645800D01*
X58743782Y-62646106D01*
G37*
X58743782Y-62646106D02*
X58613526Y-62647464D01*
X58519597Y-62650532D01*
X58454757Y-62655967D01*
X58411772Y-62664427D01*
X58383405Y-62676569D01*
X58362420Y-62693053D01*
X58358800Y-62696600D01*
X58314139Y-62766773D01*
X58318979Y-62841756D01*
X58347541Y-62894148D01*
X58367138Y-62917736D01*
X58393098Y-62933650D01*
X58434848Y-62943391D01*
X58501815Y-62948459D01*
X58603429Y-62950356D01*
X58702247Y-62950600D01*
X58834780Y-62951258D01*
X58925524Y-62954108D01*
X58983479Y-62960461D01*
X59017648Y-62971627D01*
X59037034Y-62988918D01*
X59044055Y-63000381D01*
X59052293Y-63042828D01*
X59058539Y-63134999D01*
X59062768Y-63275853D01*
X59064957Y-63464353D01*
X59065084Y-63699458D01*
X59063999Y-63883031D01*
X59057300Y-64715900D01*
X58790600Y-64722573D01*
X58668481Y-64726716D01*
X58586539Y-64733215D01*
X58534152Y-64744116D01*
X58500700Y-64761467D01*
X58479450Y-64782537D01*
X58439193Y-64858934D01*
X58449156Y-64934709D01*
X58470967Y-64971395D01*
X58494216Y-64994019D01*
X58531567Y-65009762D01*
X58592903Y-65020594D01*
X58688109Y-65028484D01*
X58782117Y-65033400D01*
X59057300Y-65046100D01*
X59064239Y-65497520D01*
X59065384Y-65678462D01*
X59062883Y-65824004D01*
X59056920Y-65929505D01*
X59047679Y-65990328D01*
X59044295Y-65999170D01*
X59030119Y-66018993D01*
X59006858Y-66032802D01*
X58966183Y-66041672D01*
X58899764Y-66046678D01*
X58799271Y-66048896D01*
X58656377Y-66049399D01*
X58655087Y-66049400D01*
X58499351Y-66050390D01*
X58387268Y-66054974D01*
X58311704Y-66065565D01*
X58265527Y-66084579D01*
X58241602Y-66114433D01*
X58232796Y-66157541D01*
X58231800Y-66192739D01*
X58234775Y-66242219D01*
X58247538Y-66280449D01*
X58275845Y-66308860D01*
X58325453Y-66328888D01*
X58402121Y-66341965D01*
X58511606Y-66349524D01*
X58659664Y-66352999D01*
X58852052Y-66353822D01*
X58878802Y-66353811D01*
X59039484Y-66352841D01*
X59183492Y-66350352D01*
X59302885Y-66346615D01*
X59389721Y-66341898D01*
X59436058Y-66336470D01*
X59440848Y-66334761D01*
X59457445Y-66322054D01*
X59471769Y-66305295D01*
X59483989Y-66280890D01*
X59494270Y-66245246D01*
X59502779Y-66194771D01*
X59509684Y-66125870D01*
X59515152Y-66034952D01*
X59519349Y-65918424D01*
X59522443Y-65772691D01*
X59524600Y-65594162D01*
X59525987Y-65379244D01*
X59526772Y-65124342D01*
X59527121Y-64825865D01*
X59527200Y-64480220D01*
X59527200Y-64476269D01*
X59527168Y-64137918D01*
X59527000Y-63846706D01*
X59526593Y-63598974D01*
X59525842Y-63391060D01*
X59524643Y-63219303D01*
X59522891Y-63080045D01*
X59520481Y-62969623D01*
X59517310Y-62884379D01*
X59513272Y-62820650D01*
X59508263Y-62774776D01*
X59502180Y-62743098D01*
X59494916Y-62721955D01*
X59486368Y-62707686D01*
X59476431Y-62696630D01*
X59476400Y-62696600D01*
X59455984Y-62679248D01*
X59429513Y-62666359D01*
X59389751Y-62657272D01*
X59329462Y-62651332D01*
X59241410Y-62647879D01*
X59118359Y-62646257D01*
X58953073Y-62645807D01*
X58917600Y-62645800D01*
X58743782Y-62646106D01*
G36*
X56713138Y-62649032D02*
G01*
X56633751Y-62671858D01*
X56617405Y-62681844D01*
X56607556Y-62690522D01*
X56599068Y-62703566D01*
X56591806Y-62724679D01*
X56585635Y-62757567D01*
X56580418Y-62805934D01*
X56576021Y-62873486D01*
X56572308Y-62963929D01*
X56569144Y-63080965D01*
X56566393Y-63228302D01*
X56563919Y-63409643D01*
X56561587Y-63628693D01*
X56559262Y-63889158D01*
X56556808Y-64194743D01*
X56555400Y-64377294D01*
X56542700Y-66036700D01*
X56149000Y-66043445D01*
X55986240Y-66047187D01*
X55867410Y-66053621D01*
X55785642Y-66065172D01*
X55734067Y-66084263D01*
X55705817Y-66113321D01*
X55694022Y-66154769D01*
X55691800Y-66204840D01*
X55693855Y-66250421D01*
X55703873Y-66285652D01*
X55727640Y-66311861D01*
X55770939Y-66330379D01*
X55839554Y-66342537D01*
X55939270Y-66349663D01*
X56075869Y-66353089D01*
X56255137Y-66354143D01*
X56341315Y-66354200D01*
X56526439Y-66353953D01*
X56667527Y-66352846D01*
X56771339Y-66350325D01*
X56844638Y-66345835D01*
X56894185Y-66338823D01*
X56926742Y-66328735D01*
X56949072Y-66315019D01*
X56961800Y-66303400D01*
X56971679Y-66292422D01*
X56980186Y-66278262D01*
X56987424Y-66257285D01*
X56993497Y-66225857D01*
X56998505Y-66180344D01*
X57002552Y-66117112D01*
X57005740Y-66032526D01*
X57008171Y-65922953D01*
X57009948Y-65784757D01*
X57011173Y-65614306D01*
X57011948Y-65407964D01*
X57012376Y-65162098D01*
X57012560Y-64873073D01*
X57012600Y-64537255D01*
X57012600Y-64500000D01*
X57012569Y-64159174D01*
X57012405Y-63865514D01*
X57012007Y-63615386D01*
X57011272Y-63405155D01*
X57010098Y-63231188D01*
X57008382Y-63089850D01*
X57006023Y-62977506D01*
X57002917Y-62890523D01*
X56998963Y-62825267D01*
X56994058Y-62778103D01*
X56988099Y-62745397D01*
X56980985Y-62723515D01*
X56972613Y-62708822D01*
X56962880Y-62697685D01*
X56961800Y-62696600D01*
X56898396Y-62662313D01*
X56808431Y-62646154D01*
X56713138Y-62649032D01*
G37*
X56713138Y-62649032D02*
X56633751Y-62671858D01*
X56617405Y-62681844D01*
X56607556Y-62690522D01*
X56599068Y-62703566D01*
X56591806Y-62724679D01*
X56585635Y-62757567D01*
X56580418Y-62805934D01*
X56576021Y-62873486D01*
X56572308Y-62963929D01*
X56569144Y-63080965D01*
X56566393Y-63228302D01*
X56563919Y-63409643D01*
X56561587Y-63628693D01*
X56559262Y-63889158D01*
X56556808Y-64194743D01*
X56555400Y-64377294D01*
X56542700Y-66036700D01*
X56149000Y-66043445D01*
X55986240Y-66047187D01*
X55867410Y-66053621D01*
X55785642Y-66065172D01*
X55734067Y-66084263D01*
X55705817Y-66113321D01*
X55694022Y-66154769D01*
X55691800Y-66204840D01*
X55693855Y-66250421D01*
X55703873Y-66285652D01*
X55727640Y-66311861D01*
X55770939Y-66330379D01*
X55839554Y-66342537D01*
X55939270Y-66349663D01*
X56075869Y-66353089D01*
X56255137Y-66354143D01*
X56341315Y-66354200D01*
X56526439Y-66353953D01*
X56667527Y-66352846D01*
X56771339Y-66350325D01*
X56844638Y-66345835D01*
X56894185Y-66338823D01*
X56926742Y-66328735D01*
X56949072Y-66315019D01*
X56961800Y-66303400D01*
X56971679Y-66292422D01*
X56980186Y-66278262D01*
X56987424Y-66257285D01*
X56993497Y-66225857D01*
X56998505Y-66180344D01*
X57002552Y-66117112D01*
X57005740Y-66032526D01*
X57008171Y-65922953D01*
X57009948Y-65784757D01*
X57011173Y-65614306D01*
X57011948Y-65407964D01*
X57012376Y-65162098D01*
X57012560Y-64873073D01*
X57012600Y-64537255D01*
X57012600Y-64500000D01*
X57012569Y-64159174D01*
X57012405Y-63865514D01*
X57012007Y-63615386D01*
X57011272Y-63405155D01*
X57010098Y-63231188D01*
X57008382Y-63089850D01*
X57006023Y-62977506D01*
X57002917Y-62890523D01*
X56998963Y-62825267D01*
X56994058Y-62778103D01*
X56988099Y-62745397D01*
X56980985Y-62723515D01*
X56972613Y-62708822D01*
X56962880Y-62697685D01*
X56961800Y-62696600D01*
X56898396Y-62662313D01*
X56808431Y-62646154D01*
X56713138Y-62649032D01*
G36*
X54207187Y-62650523D02*
G01*
X54193200Y-62650862D01*
X54044588Y-62655273D01*
X53935458Y-62661136D01*
X53854493Y-62670147D01*
X53790378Y-62683997D01*
X53731795Y-62704382D01*
X53678345Y-62727902D01*
X53500877Y-62838117D01*
X53347679Y-62992905D01*
X53218815Y-63192178D01*
X53114348Y-63435846D01*
X53070235Y-63578083D01*
X53051744Y-63650447D01*
X53037834Y-63721372D01*
X53027841Y-63799780D01*
X53021100Y-63894593D01*
X53016945Y-64014733D01*
X53014712Y-64169123D01*
X53013826Y-64334900D01*
X53013966Y-64533469D01*
X53016119Y-64690273D01*
X53020826Y-64814322D01*
X53028629Y-64914630D01*
X53040066Y-65000208D01*
X53055678Y-65080069D01*
X53059525Y-65096900D01*
X53148254Y-65401368D01*
X53262806Y-65667253D01*
X53402001Y-65892784D01*
X53564654Y-66076189D01*
X53749584Y-66215698D01*
X53837600Y-66262669D01*
X53918152Y-66298288D01*
X53989506Y-66321874D01*
X54067112Y-66336447D01*
X54166419Y-66345026D01*
X54284548Y-66350034D01*
X54566396Y-66359434D01*
X54621605Y-66289247D01*
X54676815Y-66219059D01*
X54676051Y-66024000D01*
X54193597Y-66024000D01*
X54140087Y-66024000D01*
X54081449Y-66013249D01*
X54008782Y-65986958D01*
X53999936Y-65982885D01*
X53887957Y-65903109D01*
X53787225Y-65777963D01*
X53698943Y-65611878D01*
X53624309Y-65409281D01*
X53564525Y-65174599D01*
X53520792Y-64912262D01*
X53494309Y-64626698D01*
X53486278Y-64322333D01*
X53491871Y-64108969D01*
X53512671Y-63821307D01*
X53546585Y-63580420D01*
X53594916Y-63383675D01*
X53658969Y-63228438D01*
X53740046Y-63112077D01*
X53839454Y-63031958D01*
X53958494Y-62985447D01*
X54055180Y-62971413D01*
X54180500Y-62963300D01*
X54187049Y-64493650D01*
X54193597Y-66024000D01*
X54676051Y-66024000D01*
X54669958Y-64468474D01*
X54668592Y-64127891D01*
X54667279Y-63834498D01*
X54665903Y-63584685D01*
X54664348Y-63374842D01*
X54662496Y-63201359D01*
X54660233Y-63060627D01*
X54657440Y-62949035D01*
X54654003Y-62862974D01*
X54649804Y-62798834D01*
X54644728Y-62753004D01*
X54638657Y-62721876D01*
X54631476Y-62701838D01*
X54623068Y-62689283D01*
X54613317Y-62680598D01*
X54612300Y-62679831D01*
X54582145Y-62664486D01*
X54534762Y-62654450D01*
X54461945Y-62649156D01*
X54355489Y-62648036D01*
X54207187Y-62650523D01*
G37*
X54207187Y-62650523D02*
X54193200Y-62650862D01*
X54044588Y-62655273D01*
X53935458Y-62661136D01*
X53854493Y-62670147D01*
X53790378Y-62683997D01*
X53731795Y-62704382D01*
X53678345Y-62727902D01*
X53500877Y-62838117D01*
X53347679Y-62992905D01*
X53218815Y-63192178D01*
X53114348Y-63435846D01*
X53070235Y-63578083D01*
X53051744Y-63650447D01*
X53037834Y-63721372D01*
X53027841Y-63799780D01*
X53021100Y-63894593D01*
X53016945Y-64014733D01*
X53014712Y-64169123D01*
X53013826Y-64334900D01*
X53013966Y-64533469D01*
X53016119Y-64690273D01*
X53020826Y-64814322D01*
X53028629Y-64914630D01*
X53040066Y-65000208D01*
X53055678Y-65080069D01*
X53059525Y-65096900D01*
X53148254Y-65401368D01*
X53262806Y-65667253D01*
X53402001Y-65892784D01*
X53564654Y-66076189D01*
X53749584Y-66215698D01*
X53837600Y-66262669D01*
X53918152Y-66298288D01*
X53989506Y-66321874D01*
X54067112Y-66336447D01*
X54166419Y-66345026D01*
X54284548Y-66350034D01*
X54566396Y-66359434D01*
X54621605Y-66289247D01*
X54676815Y-66219059D01*
X54676051Y-66024000D01*
X54193597Y-66024000D01*
X54140087Y-66024000D01*
X54081449Y-66013249D01*
X54008782Y-65986958D01*
X53999936Y-65982885D01*
X53887957Y-65903109D01*
X53787225Y-65777963D01*
X53698943Y-65611878D01*
X53624309Y-65409281D01*
X53564525Y-65174599D01*
X53520792Y-64912262D01*
X53494309Y-64626698D01*
X53486278Y-64322333D01*
X53491871Y-64108969D01*
X53512671Y-63821307D01*
X53546585Y-63580420D01*
X53594916Y-63383675D01*
X53658969Y-63228438D01*
X53740046Y-63112077D01*
X53839454Y-63031958D01*
X53958494Y-62985447D01*
X54055180Y-62971413D01*
X54180500Y-62963300D01*
X54187049Y-64493650D01*
X54193597Y-66024000D01*
X54676051Y-66024000D01*
X54669958Y-64468474D01*
X54668592Y-64127891D01*
X54667279Y-63834498D01*
X54665903Y-63584685D01*
X54664348Y-63374842D01*
X54662496Y-63201359D01*
X54660233Y-63060627D01*
X54657440Y-62949035D01*
X54654003Y-62862974D01*
X54649804Y-62798834D01*
X54644728Y-62753004D01*
X54638657Y-62721876D01*
X54631476Y-62701838D01*
X54623068Y-62689283D01*
X54613317Y-62680598D01*
X54612300Y-62679831D01*
X54582145Y-62664486D01*
X54534762Y-62654450D01*
X54461945Y-62649156D01*
X54355489Y-62648036D01*
X54207187Y-62650523D01*
D11*
X79000000Y-72500000D03*
X79000000Y-57500000D03*
X67500000Y-72500000D03*
X67500000Y-57500000D03*
X92000000Y-72500000D03*
X92000000Y-57500000D03*
X55000000Y-72500000D03*
X55000000Y-57500000D03*
D12*
X92500000Y-115150000D03*
D13*
X87400000Y-115150000D03*
X100200000Y-94850000D03*
X90000000Y-94850000D03*
X79800000Y-94850000D03*
X79800000Y-115150000D03*
D14*
X92000000Y-127000000D03*
X92000000Y-132000000D03*
D15*
X121500000Y-76750000D03*
X121500000Y-78750000D03*
X121500000Y-80750000D03*
X121500000Y-82750000D03*
D16*
G36*
X122149505Y-84151204D02*
G01*
X122173773Y-84154804D01*
X122197572Y-84160765D01*
X122220671Y-84169030D01*
X122242850Y-84179520D01*
X122263893Y-84192132D01*
X122283599Y-84206747D01*
X122301777Y-84223223D01*
X122318253Y-84241401D01*
X122332868Y-84261107D01*
X122345480Y-84282150D01*
X122355970Y-84304329D01*
X122364235Y-84327428D01*
X122370196Y-84351227D01*
X122373796Y-84375495D01*
X122375000Y-84399999D01*
X122375000Y-85100001D01*
X122373796Y-85124505D01*
X122370196Y-85148773D01*
X122364235Y-85172572D01*
X122355970Y-85195671D01*
X122345480Y-85217850D01*
X122332868Y-85238893D01*
X122318253Y-85258599D01*
X122301777Y-85276777D01*
X122283599Y-85293253D01*
X122263893Y-85307868D01*
X122242850Y-85320480D01*
X122220671Y-85330970D01*
X122197572Y-85339235D01*
X122173773Y-85345196D01*
X122149505Y-85348796D01*
X122125001Y-85350000D01*
X120874999Y-85350000D01*
X120850495Y-85348796D01*
X120826227Y-85345196D01*
X120802428Y-85339235D01*
X120779329Y-85330970D01*
X120757150Y-85320480D01*
X120736107Y-85307868D01*
X120716401Y-85293253D01*
X120698223Y-85276777D01*
X120681747Y-85258599D01*
X120667132Y-85238893D01*
X120654520Y-85217850D01*
X120644030Y-85195671D01*
X120635765Y-85172572D01*
X120629804Y-85148773D01*
X120626204Y-85124505D01*
X120625000Y-85100001D01*
X120625000Y-84399999D01*
X120626204Y-84375495D01*
X120629804Y-84351227D01*
X120635765Y-84327428D01*
X120644030Y-84304329D01*
X120654520Y-84282150D01*
X120667132Y-84261107D01*
X120681747Y-84241401D01*
X120698223Y-84223223D01*
X120716401Y-84206747D01*
X120736107Y-84192132D01*
X120757150Y-84179520D01*
X120779329Y-84169030D01*
X120802428Y-84160765D01*
X120826227Y-84154804D01*
X120850495Y-84151204D01*
X120874999Y-84150000D01*
X122125001Y-84150000D01*
X122149505Y-84151204D01*
G37*
D17*
X170000000Y-64500000D03*
X170000000Y-113500000D03*
X112000000Y-113500000D03*
X112000000Y-64500000D03*
D18*
X116880000Y-65760000D03*
D19*
X116880000Y-63220000D03*
X119420000Y-65760000D03*
X119420000Y-63220000D03*
X121960000Y-65760000D03*
X121960000Y-63220000D03*
X124500000Y-65760000D03*
X124500000Y-63220000D03*
X127040000Y-65760000D03*
X127040000Y-63220000D03*
X129580000Y-65760000D03*
X129580000Y-63220000D03*
X132120000Y-65760000D03*
X132120000Y-63220000D03*
X134660000Y-65760000D03*
X134660000Y-63220000D03*
X137200000Y-65760000D03*
X137200000Y-63220000D03*
X139740000Y-65760000D03*
X139740000Y-63220000D03*
X142280000Y-65760000D03*
X142280000Y-63220000D03*
X144820000Y-65760000D03*
X144820000Y-63220000D03*
X147360000Y-65760000D03*
X147360000Y-63220000D03*
X149900000Y-65760000D03*
X149900000Y-63220000D03*
X152440000Y-65760000D03*
X152440000Y-63220000D03*
X154980000Y-65760000D03*
X154980000Y-63220000D03*
X157520000Y-65760000D03*
X157520000Y-63220000D03*
X160060000Y-65760000D03*
X160060000Y-63220000D03*
X162600000Y-65760000D03*
X162600000Y-63220000D03*
X165140000Y-65760000D03*
X165140000Y-63220000D03*
X139040000Y-71500000D03*
D18*
X136500000Y-71500000D03*
X143250000Y-71500000D03*
D19*
X145790000Y-71500000D03*
D16*
G36*
X161649505Y-75401204D02*
G01*
X161673773Y-75404804D01*
X161697572Y-75410765D01*
X161720671Y-75419030D01*
X161742850Y-75429520D01*
X161763893Y-75442132D01*
X161783599Y-75456747D01*
X161801777Y-75473223D01*
X161818253Y-75491401D01*
X161832868Y-75511107D01*
X161845480Y-75532150D01*
X161855970Y-75554329D01*
X161864235Y-75577428D01*
X161870196Y-75601227D01*
X161873796Y-75625495D01*
X161875000Y-75649999D01*
X161875000Y-76350001D01*
X161873796Y-76374505D01*
X161870196Y-76398773D01*
X161864235Y-76422572D01*
X161855970Y-76445671D01*
X161845480Y-76467850D01*
X161832868Y-76488893D01*
X161818253Y-76508599D01*
X161801777Y-76526777D01*
X161783599Y-76543253D01*
X161763893Y-76557868D01*
X161742850Y-76570480D01*
X161720671Y-76580970D01*
X161697572Y-76589235D01*
X161673773Y-76595196D01*
X161649505Y-76598796D01*
X161625001Y-76600000D01*
X160374999Y-76600000D01*
X160350495Y-76598796D01*
X160326227Y-76595196D01*
X160302428Y-76589235D01*
X160279329Y-76580970D01*
X160257150Y-76570480D01*
X160236107Y-76557868D01*
X160216401Y-76543253D01*
X160198223Y-76526777D01*
X160181747Y-76508599D01*
X160167132Y-76488893D01*
X160154520Y-76467850D01*
X160144030Y-76445671D01*
X160135765Y-76422572D01*
X160129804Y-76398773D01*
X160126204Y-76374505D01*
X160125000Y-76350001D01*
X160125000Y-75649999D01*
X160126204Y-75625495D01*
X160129804Y-75601227D01*
X160135765Y-75577428D01*
X160144030Y-75554329D01*
X160154520Y-75532150D01*
X160167132Y-75511107D01*
X160181747Y-75491401D01*
X160198223Y-75473223D01*
X160216401Y-75456747D01*
X160236107Y-75442132D01*
X160257150Y-75429520D01*
X160279329Y-75419030D01*
X160302428Y-75410765D01*
X160326227Y-75404804D01*
X160350495Y-75401204D01*
X160374999Y-75400000D01*
X161625001Y-75400000D01*
X161649505Y-75401204D01*
G37*
D15*
X161000000Y-78000000D03*
X161000000Y-80000000D03*
X161000000Y-82000000D03*
X161000000Y-84000000D03*
D16*
G36*
X131899505Y-42401204D02*
G01*
X131923773Y-42404804D01*
X131947572Y-42410765D01*
X131970671Y-42419030D01*
X131992850Y-42429520D01*
X132013893Y-42442132D01*
X132033599Y-42456747D01*
X132051777Y-42473223D01*
X132068253Y-42491401D01*
X132082868Y-42511107D01*
X132095480Y-42532150D01*
X132105970Y-42554329D01*
X132114235Y-42577428D01*
X132120196Y-42601227D01*
X132123796Y-42625495D01*
X132125000Y-42649999D01*
X132125000Y-43350001D01*
X132123796Y-43374505D01*
X132120196Y-43398773D01*
X132114235Y-43422572D01*
X132105970Y-43445671D01*
X132095480Y-43467850D01*
X132082868Y-43488893D01*
X132068253Y-43508599D01*
X132051777Y-43526777D01*
X132033599Y-43543253D01*
X132013893Y-43557868D01*
X131992850Y-43570480D01*
X131970671Y-43580970D01*
X131947572Y-43589235D01*
X131923773Y-43595196D01*
X131899505Y-43598796D01*
X131875001Y-43600000D01*
X130624999Y-43600000D01*
X130600495Y-43598796D01*
X130576227Y-43595196D01*
X130552428Y-43589235D01*
X130529329Y-43580970D01*
X130507150Y-43570480D01*
X130486107Y-43557868D01*
X130466401Y-43543253D01*
X130448223Y-43526777D01*
X130431747Y-43508599D01*
X130417132Y-43488893D01*
X130404520Y-43467850D01*
X130394030Y-43445671D01*
X130385765Y-43422572D01*
X130379804Y-43398773D01*
X130376204Y-43374505D01*
X130375000Y-43350001D01*
X130375000Y-42649999D01*
X130376204Y-42625495D01*
X130379804Y-42601227D01*
X130385765Y-42577428D01*
X130394030Y-42554329D01*
X130404520Y-42532150D01*
X130417132Y-42511107D01*
X130431747Y-42491401D01*
X130448223Y-42473223D01*
X130466401Y-42456747D01*
X130486107Y-42442132D01*
X130507150Y-42429520D01*
X130529329Y-42419030D01*
X130552428Y-42410765D01*
X130576227Y-42404804D01*
X130600495Y-42401204D01*
X130624999Y-42400000D01*
X131875001Y-42400000D01*
X131899505Y-42401204D01*
G37*
D15*
X131250000Y-45000000D03*
X131250000Y-47000000D03*
X131250000Y-49000000D03*
X162000000Y-106000000D03*
X162000000Y-104000000D03*
X162000000Y-102000000D03*
X162000000Y-100000000D03*
D16*
G36*
X162649505Y-97401204D02*
G01*
X162673773Y-97404804D01*
X162697572Y-97410765D01*
X162720671Y-97419030D01*
X162742850Y-97429520D01*
X162763893Y-97442132D01*
X162783599Y-97456747D01*
X162801777Y-97473223D01*
X162818253Y-97491401D01*
X162832868Y-97511107D01*
X162845480Y-97532150D01*
X162855970Y-97554329D01*
X162864235Y-97577428D01*
X162870196Y-97601227D01*
X162873796Y-97625495D01*
X162875000Y-97649999D01*
X162875000Y-98350001D01*
X162873796Y-98374505D01*
X162870196Y-98398773D01*
X162864235Y-98422572D01*
X162855970Y-98445671D01*
X162845480Y-98467850D01*
X162832868Y-98488893D01*
X162818253Y-98508599D01*
X162801777Y-98526777D01*
X162783599Y-98543253D01*
X162763893Y-98557868D01*
X162742850Y-98570480D01*
X162720671Y-98580970D01*
X162697572Y-98589235D01*
X162673773Y-98595196D01*
X162649505Y-98598796D01*
X162625001Y-98600000D01*
X161374999Y-98600000D01*
X161350495Y-98598796D01*
X161326227Y-98595196D01*
X161302428Y-98589235D01*
X161279329Y-98580970D01*
X161257150Y-98570480D01*
X161236107Y-98557868D01*
X161216401Y-98543253D01*
X161198223Y-98526777D01*
X161181747Y-98508599D01*
X161167132Y-98488893D01*
X161154520Y-98467850D01*
X161144030Y-98445671D01*
X161135765Y-98422572D01*
X161129804Y-98398773D01*
X161126204Y-98374505D01*
X161125000Y-98350001D01*
X161125000Y-97649999D01*
X161126204Y-97625495D01*
X161129804Y-97601227D01*
X161135765Y-97577428D01*
X161144030Y-97554329D01*
X161154520Y-97532150D01*
X161167132Y-97511107D01*
X161181747Y-97491401D01*
X161198223Y-97473223D01*
X161216401Y-97456747D01*
X161236107Y-97442132D01*
X161257150Y-97429520D01*
X161279329Y-97419030D01*
X161302428Y-97410765D01*
X161326227Y-97404804D01*
X161350495Y-97401204D01*
X161374999Y-97400000D01*
X162625001Y-97400000D01*
X162649505Y-97401204D01*
G37*
G36*
X121649505Y-104401204D02*
G01*
X121673773Y-104404804D01*
X121697572Y-104410765D01*
X121720671Y-104419030D01*
X121742850Y-104429520D01*
X121763893Y-104442132D01*
X121783599Y-104456747D01*
X121801777Y-104473223D01*
X121818253Y-104491401D01*
X121832868Y-104511107D01*
X121845480Y-104532150D01*
X121855970Y-104554329D01*
X121864235Y-104577428D01*
X121870196Y-104601227D01*
X121873796Y-104625495D01*
X121875000Y-104649999D01*
X121875000Y-105350001D01*
X121873796Y-105374505D01*
X121870196Y-105398773D01*
X121864235Y-105422572D01*
X121855970Y-105445671D01*
X121845480Y-105467850D01*
X121832868Y-105488893D01*
X121818253Y-105508599D01*
X121801777Y-105526777D01*
X121783599Y-105543253D01*
X121763893Y-105557868D01*
X121742850Y-105570480D01*
X121720671Y-105580970D01*
X121697572Y-105589235D01*
X121673773Y-105595196D01*
X121649505Y-105598796D01*
X121625001Y-105600000D01*
X120374999Y-105600000D01*
X120350495Y-105598796D01*
X120326227Y-105595196D01*
X120302428Y-105589235D01*
X120279329Y-105580970D01*
X120257150Y-105570480D01*
X120236107Y-105557868D01*
X120216401Y-105543253D01*
X120198223Y-105526777D01*
X120181747Y-105508599D01*
X120167132Y-105488893D01*
X120154520Y-105467850D01*
X120144030Y-105445671D01*
X120135765Y-105422572D01*
X120129804Y-105398773D01*
X120126204Y-105374505D01*
X120125000Y-105350001D01*
X120125000Y-104649999D01*
X120126204Y-104625495D01*
X120129804Y-104601227D01*
X120135765Y-104577428D01*
X120144030Y-104554329D01*
X120154520Y-104532150D01*
X120167132Y-104511107D01*
X120181747Y-104491401D01*
X120198223Y-104473223D01*
X120216401Y-104456747D01*
X120236107Y-104442132D01*
X120257150Y-104429520D01*
X120279329Y-104419030D01*
X120302428Y-104410765D01*
X120326227Y-104404804D01*
X120350495Y-104401204D01*
X120374999Y-104400000D01*
X121625001Y-104400000D01*
X121649505Y-104401204D01*
G37*
D15*
X121000000Y-103000000D03*
X121000000Y-101000000D03*
X121000000Y-99000000D03*
X121000000Y-97000000D03*
D19*
X138790000Y-92500000D03*
D18*
X136250000Y-92500000D03*
X142750000Y-92500000D03*
D19*
X145290000Y-92500000D03*
D16*
G36*
X73649505Y-128401204D02*
G01*
X73673773Y-128404804D01*
X73697572Y-128410765D01*
X73720671Y-128419030D01*
X73742850Y-128429520D01*
X73763893Y-128442132D01*
X73783599Y-128456747D01*
X73801777Y-128473223D01*
X73818253Y-128491401D01*
X73832868Y-128511107D01*
X73845480Y-128532150D01*
X73855970Y-128554329D01*
X73864235Y-128577428D01*
X73870196Y-128601227D01*
X73873796Y-128625495D01*
X73875000Y-128649999D01*
X73875000Y-129350001D01*
X73873796Y-129374505D01*
X73870196Y-129398773D01*
X73864235Y-129422572D01*
X73855970Y-129445671D01*
X73845480Y-129467850D01*
X73832868Y-129488893D01*
X73818253Y-129508599D01*
X73801777Y-129526777D01*
X73783599Y-129543253D01*
X73763893Y-129557868D01*
X73742850Y-129570480D01*
X73720671Y-129580970D01*
X73697572Y-129589235D01*
X73673773Y-129595196D01*
X73649505Y-129598796D01*
X73625001Y-129600000D01*
X72374999Y-129600000D01*
X72350495Y-129598796D01*
X72326227Y-129595196D01*
X72302428Y-129589235D01*
X72279329Y-129580970D01*
X72257150Y-129570480D01*
X72236107Y-129557868D01*
X72216401Y-129543253D01*
X72198223Y-129526777D01*
X72181747Y-129508599D01*
X72167132Y-129488893D01*
X72154520Y-129467850D01*
X72144030Y-129445671D01*
X72135765Y-129422572D01*
X72129804Y-129398773D01*
X72126204Y-129374505D01*
X72125000Y-129350001D01*
X72125000Y-128649999D01*
X72126204Y-128625495D01*
X72129804Y-128601227D01*
X72135765Y-128577428D01*
X72144030Y-128554329D01*
X72154520Y-128532150D01*
X72167132Y-128511107D01*
X72181747Y-128491401D01*
X72198223Y-128473223D01*
X72216401Y-128456747D01*
X72236107Y-128442132D01*
X72257150Y-128429520D01*
X72279329Y-128419030D01*
X72302428Y-128410765D01*
X72326227Y-128404804D01*
X72350495Y-128401204D01*
X72374999Y-128400000D01*
X73625001Y-128400000D01*
X73649505Y-128401204D01*
G37*
D15*
X73000000Y-127000000D03*
D12*
X85000000Y-124000000D03*
D13*
X80000000Y-124000000D03*
D18*
X163000000Y-42750000D03*
D19*
X163000000Y-45290000D03*
D20*
X52500000Y-130000000D03*
X52500000Y-45000000D03*
X170000000Y-45000000D03*
X170000000Y-130000000D03*
D16*
G36*
X155874504Y-41751204D02*
G01*
X155898773Y-41754804D01*
X155922571Y-41760765D01*
X155945671Y-41769030D01*
X155967849Y-41779520D01*
X155988893Y-41792133D01*
X156008598Y-41806747D01*
X156026777Y-41823223D01*
X156043253Y-41841402D01*
X156057867Y-41861107D01*
X156070480Y-41882151D01*
X156080970Y-41904329D01*
X156089235Y-41927429D01*
X156095196Y-41951227D01*
X156098796Y-41975496D01*
X156100000Y-42000000D01*
X156100000Y-43500000D01*
X156098796Y-43524504D01*
X156095196Y-43548773D01*
X156089235Y-43572571D01*
X156080970Y-43595671D01*
X156070480Y-43617849D01*
X156057867Y-43638893D01*
X156043253Y-43658598D01*
X156026777Y-43676777D01*
X156008598Y-43693253D01*
X155988893Y-43707867D01*
X155967849Y-43720480D01*
X155945671Y-43730970D01*
X155922571Y-43739235D01*
X155898773Y-43745196D01*
X155874504Y-43748796D01*
X155850000Y-43750000D01*
X154650000Y-43750000D01*
X154625496Y-43748796D01*
X154601227Y-43745196D01*
X154577429Y-43739235D01*
X154554329Y-43730970D01*
X154532151Y-43720480D01*
X154511107Y-43707867D01*
X154491402Y-43693253D01*
X154473223Y-43676777D01*
X154456747Y-43658598D01*
X154442133Y-43638893D01*
X154429520Y-43617849D01*
X154419030Y-43595671D01*
X154410765Y-43572571D01*
X154404804Y-43548773D01*
X154401204Y-43524504D01*
X154400000Y-43500000D01*
X154400000Y-42000000D01*
X154401204Y-41975496D01*
X154404804Y-41951227D01*
X154410765Y-41927429D01*
X154419030Y-41904329D01*
X154429520Y-41882151D01*
X154442133Y-41861107D01*
X154456747Y-41841402D01*
X154473223Y-41823223D01*
X154491402Y-41806747D01*
X154511107Y-41792133D01*
X154532151Y-41779520D01*
X154554329Y-41769030D01*
X154577429Y-41760765D01*
X154601227Y-41754804D01*
X154625496Y-41751204D01*
X154650000Y-41750000D01*
X155850000Y-41750000D01*
X155874504Y-41751204D01*
G37*
D21*
X157750000Y-42750000D03*
D16*
G36*
X161649505Y-131401204D02*
G01*
X161673773Y-131404804D01*
X161697572Y-131410765D01*
X161720671Y-131419030D01*
X161742850Y-131429520D01*
X161763893Y-131442132D01*
X161783599Y-131456747D01*
X161801777Y-131473223D01*
X161818253Y-131491401D01*
X161832868Y-131511107D01*
X161845480Y-131532150D01*
X161855970Y-131554329D01*
X161864235Y-131577428D01*
X161870196Y-131601227D01*
X161873796Y-131625495D01*
X161875000Y-131649999D01*
X161875000Y-132350001D01*
X161873796Y-132374505D01*
X161870196Y-132398773D01*
X161864235Y-132422572D01*
X161855970Y-132445671D01*
X161845480Y-132467850D01*
X161832868Y-132488893D01*
X161818253Y-132508599D01*
X161801777Y-132526777D01*
X161783599Y-132543253D01*
X161763893Y-132557868D01*
X161742850Y-132570480D01*
X161720671Y-132580970D01*
X161697572Y-132589235D01*
X161673773Y-132595196D01*
X161649505Y-132598796D01*
X161625001Y-132600000D01*
X160374999Y-132600000D01*
X160350495Y-132598796D01*
X160326227Y-132595196D01*
X160302428Y-132589235D01*
X160279329Y-132580970D01*
X160257150Y-132570480D01*
X160236107Y-132557868D01*
X160216401Y-132543253D01*
X160198223Y-132526777D01*
X160181747Y-132508599D01*
X160167132Y-132488893D01*
X160154520Y-132467850D01*
X160144030Y-132445671D01*
X160135765Y-132422572D01*
X160129804Y-132398773D01*
X160126204Y-132374505D01*
X160125000Y-132350001D01*
X160125000Y-131649999D01*
X160126204Y-131625495D01*
X160129804Y-131601227D01*
X160135765Y-131577428D01*
X160144030Y-131554329D01*
X160154520Y-131532150D01*
X160167132Y-131511107D01*
X160181747Y-131491401D01*
X160198223Y-131473223D01*
X160216401Y-131456747D01*
X160236107Y-131442132D01*
X160257150Y-131429520D01*
X160279329Y-131419030D01*
X160302428Y-131410765D01*
X160326227Y-131404804D01*
X160350495Y-131401204D01*
X160374999Y-131400000D01*
X161625001Y-131400000D01*
X161649505Y-131401204D01*
G37*
D15*
X161000000Y-130000000D03*
X161000000Y-128000000D03*
X161000000Y-126000000D03*
D16*
G36*
X134644505Y-118151204D02*
G01*
X134668773Y-118154804D01*
X134692572Y-118160765D01*
X134715671Y-118169030D01*
X134737850Y-118179520D01*
X134758893Y-118192132D01*
X134778599Y-118206747D01*
X134796777Y-118223223D01*
X134813253Y-118241401D01*
X134827868Y-118261107D01*
X134840480Y-118282150D01*
X134850970Y-118304329D01*
X134859235Y-118327428D01*
X134865196Y-118351227D01*
X134868796Y-118375495D01*
X134870000Y-118399999D01*
X134870000Y-120100001D01*
X134868796Y-120124505D01*
X134865196Y-120148773D01*
X134859235Y-120172572D01*
X134850970Y-120195671D01*
X134840480Y-120217850D01*
X134827868Y-120238893D01*
X134813253Y-120258599D01*
X134796777Y-120276777D01*
X134778599Y-120293253D01*
X134758893Y-120307868D01*
X134737850Y-120320480D01*
X134715671Y-120330970D01*
X134692572Y-120339235D01*
X134668773Y-120345196D01*
X134644505Y-120348796D01*
X134620001Y-120350000D01*
X133379999Y-120350000D01*
X133355495Y-120348796D01*
X133331227Y-120345196D01*
X133307428Y-120339235D01*
X133284329Y-120330970D01*
X133262150Y-120320480D01*
X133241107Y-120307868D01*
X133221401Y-120293253D01*
X133203223Y-120276777D01*
X133186747Y-120258599D01*
X133172132Y-120238893D01*
X133159520Y-120217850D01*
X133149030Y-120195671D01*
X133140765Y-120172572D01*
X133134804Y-120148773D01*
X133131204Y-120124505D01*
X133130000Y-120100001D01*
X133130000Y-118399999D01*
X133131204Y-118375495D01*
X133134804Y-118351227D01*
X133140765Y-118327428D01*
X133149030Y-118304329D01*
X133159520Y-118282150D01*
X133172132Y-118261107D01*
X133186747Y-118241401D01*
X133203223Y-118223223D01*
X133221401Y-118206747D01*
X133241107Y-118192132D01*
X133262150Y-118179520D01*
X133284329Y-118169030D01*
X133307428Y-118160765D01*
X133331227Y-118154804D01*
X133355495Y-118151204D01*
X133379999Y-118150000D01*
X134620001Y-118150000D01*
X134644505Y-118151204D01*
G37*
D22*
X131460000Y-119250000D03*
X128920000Y-119250000D03*
X126380000Y-119250000D03*
X123840000Y-119250000D03*
X134160000Y-126250000D03*
X131620000Y-126250000D03*
X129080000Y-126250000D03*
X126540000Y-126250000D03*
D16*
G36*
X124644505Y-125151204D02*
G01*
X124668773Y-125154804D01*
X124692572Y-125160765D01*
X124715671Y-125169030D01*
X124737850Y-125179520D01*
X124758893Y-125192132D01*
X124778599Y-125206747D01*
X124796777Y-125223223D01*
X124813253Y-125241401D01*
X124827868Y-125261107D01*
X124840480Y-125282150D01*
X124850970Y-125304329D01*
X124859235Y-125327428D01*
X124865196Y-125351227D01*
X124868796Y-125375495D01*
X124870000Y-125399999D01*
X124870000Y-127100001D01*
X124868796Y-127124505D01*
X124865196Y-127148773D01*
X124859235Y-127172572D01*
X124850970Y-127195671D01*
X124840480Y-127217850D01*
X124827868Y-127238893D01*
X124813253Y-127258599D01*
X124796777Y-127276777D01*
X124778599Y-127293253D01*
X124758893Y-127307868D01*
X124737850Y-127320480D01*
X124715671Y-127330970D01*
X124692572Y-127339235D01*
X124668773Y-127345196D01*
X124644505Y-127348796D01*
X124620001Y-127350000D01*
X123379999Y-127350000D01*
X123355495Y-127348796D01*
X123331227Y-127345196D01*
X123307428Y-127339235D01*
X123284329Y-127330970D01*
X123262150Y-127320480D01*
X123241107Y-127307868D01*
X123221401Y-127293253D01*
X123203223Y-127276777D01*
X123186747Y-127258599D01*
X123172132Y-127238893D01*
X123159520Y-127217850D01*
X123149030Y-127195671D01*
X123140765Y-127172572D01*
X123134804Y-127148773D01*
X123131204Y-127124505D01*
X123130000Y-127100001D01*
X123130000Y-125399999D01*
X123131204Y-125375495D01*
X123134804Y-125351227D01*
X123140765Y-125327428D01*
X123149030Y-125304329D01*
X123159520Y-125282150D01*
X123172132Y-125261107D01*
X123186747Y-125241401D01*
X123203223Y-125223223D01*
X123221401Y-125206747D01*
X123241107Y-125192132D01*
X123262150Y-125179520D01*
X123284329Y-125169030D01*
X123307428Y-125160765D01*
X123331227Y-125154804D01*
X123355495Y-125151204D01*
X123379999Y-125150000D01*
X124620001Y-125150000D01*
X124644505Y-125151204D01*
G37*
D23*
X117900000Y-130100000D03*
D24*
X115400000Y-130100000D03*
X112900000Y-130100000D03*
X100100000Y-130100000D03*
X107600000Y-130100000D03*
X105100000Y-130100000D03*
X102600000Y-130100000D03*
D16*
G36*
X171124505Y-52876204D02*
G01*
X171148773Y-52879804D01*
X171172572Y-52885765D01*
X171195671Y-52894030D01*
X171217850Y-52904520D01*
X171238893Y-52917132D01*
X171258599Y-52931747D01*
X171276777Y-52948223D01*
X171293253Y-52966401D01*
X171307868Y-52986107D01*
X171320480Y-53007150D01*
X171330970Y-53029329D01*
X171339235Y-53052428D01*
X171345196Y-53076227D01*
X171348796Y-53100495D01*
X171350000Y-53124999D01*
X171350000Y-54375001D01*
X171348796Y-54399505D01*
X171345196Y-54423773D01*
X171339235Y-54447572D01*
X171330970Y-54470671D01*
X171320480Y-54492850D01*
X171307868Y-54513893D01*
X171293253Y-54533599D01*
X171276777Y-54551777D01*
X171258599Y-54568253D01*
X171238893Y-54582868D01*
X171217850Y-54595480D01*
X171195671Y-54605970D01*
X171172572Y-54614235D01*
X171148773Y-54620196D01*
X171124505Y-54623796D01*
X171100001Y-54625000D01*
X170399999Y-54625000D01*
X170375495Y-54623796D01*
X170351227Y-54620196D01*
X170327428Y-54614235D01*
X170304329Y-54605970D01*
X170282150Y-54595480D01*
X170261107Y-54582868D01*
X170241401Y-54568253D01*
X170223223Y-54551777D01*
X170206747Y-54533599D01*
X170192132Y-54513893D01*
X170179520Y-54492850D01*
X170169030Y-54470671D01*
X170160765Y-54447572D01*
X170154804Y-54423773D01*
X170151204Y-54399505D01*
X170150000Y-54375001D01*
X170150000Y-53124999D01*
X170151204Y-53100495D01*
X170154804Y-53076227D01*
X170160765Y-53052428D01*
X170169030Y-53029329D01*
X170179520Y-53007150D01*
X170192132Y-52986107D01*
X170206747Y-52966401D01*
X170223223Y-52948223D01*
X170241401Y-52931747D01*
X170261107Y-52917132D01*
X170282150Y-52904520D01*
X170304329Y-52894030D01*
X170327428Y-52885765D01*
X170351227Y-52879804D01*
X170375495Y-52876204D01*
X170399999Y-52875000D01*
X171100001Y-52875000D01*
X171124505Y-52876204D01*
G37*
D25*
X168750000Y-53750000D03*
D18*
X106000000Y-86500000D03*
D19*
X106000000Y-83960000D03*
X106000000Y-81420000D03*
X106000000Y-78880000D03*
X106000000Y-76340000D03*
X106000000Y-73800000D03*
D25*
X134000000Y-57500000D03*
X132000000Y-57500000D03*
X130000000Y-57500000D03*
D16*
G36*
X128374505Y-56626204D02*
G01*
X128398773Y-56629804D01*
X128422572Y-56635765D01*
X128445671Y-56644030D01*
X128467850Y-56654520D01*
X128488893Y-56667132D01*
X128508599Y-56681747D01*
X128526777Y-56698223D01*
X128543253Y-56716401D01*
X128557868Y-56736107D01*
X128570480Y-56757150D01*
X128580970Y-56779329D01*
X128589235Y-56802428D01*
X128595196Y-56826227D01*
X128598796Y-56850495D01*
X128600000Y-56874999D01*
X128600000Y-58125001D01*
X128598796Y-58149505D01*
X128595196Y-58173773D01*
X128589235Y-58197572D01*
X128580970Y-58220671D01*
X128570480Y-58242850D01*
X128557868Y-58263893D01*
X128543253Y-58283599D01*
X128526777Y-58301777D01*
X128508599Y-58318253D01*
X128488893Y-58332868D01*
X128467850Y-58345480D01*
X128445671Y-58355970D01*
X128422572Y-58364235D01*
X128398773Y-58370196D01*
X128374505Y-58373796D01*
X128350001Y-58375000D01*
X127649999Y-58375000D01*
X127625495Y-58373796D01*
X127601227Y-58370196D01*
X127577428Y-58364235D01*
X127554329Y-58355970D01*
X127532150Y-58345480D01*
X127511107Y-58332868D01*
X127491401Y-58318253D01*
X127473223Y-58301777D01*
X127456747Y-58283599D01*
X127442132Y-58263893D01*
X127429520Y-58242850D01*
X127419030Y-58220671D01*
X127410765Y-58197572D01*
X127404804Y-58173773D01*
X127401204Y-58149505D01*
X127400000Y-58125001D01*
X127400000Y-56874999D01*
X127401204Y-56850495D01*
X127404804Y-56826227D01*
X127410765Y-56802428D01*
X127419030Y-56779329D01*
X127429520Y-56757150D01*
X127442132Y-56736107D01*
X127456747Y-56716401D01*
X127473223Y-56698223D01*
X127491401Y-56681747D01*
X127511107Y-56667132D01*
X127532150Y-56654520D01*
X127554329Y-56644030D01*
X127577428Y-56635765D01*
X127601227Y-56629804D01*
X127625495Y-56626204D01*
X127649999Y-56625000D01*
X128350001Y-56625000D01*
X128374505Y-56626204D01*
G37*
G36*
X116874505Y-56626204D02*
G01*
X116898773Y-56629804D01*
X116922572Y-56635765D01*
X116945671Y-56644030D01*
X116967850Y-56654520D01*
X116988893Y-56667132D01*
X117008599Y-56681747D01*
X117026777Y-56698223D01*
X117043253Y-56716401D01*
X117057868Y-56736107D01*
X117070480Y-56757150D01*
X117080970Y-56779329D01*
X117089235Y-56802428D01*
X117095196Y-56826227D01*
X117098796Y-56850495D01*
X117100000Y-56874999D01*
X117100000Y-58125001D01*
X117098796Y-58149505D01*
X117095196Y-58173773D01*
X117089235Y-58197572D01*
X117080970Y-58220671D01*
X117070480Y-58242850D01*
X117057868Y-58263893D01*
X117043253Y-58283599D01*
X117026777Y-58301777D01*
X117008599Y-58318253D01*
X116988893Y-58332868D01*
X116967850Y-58345480D01*
X116945671Y-58355970D01*
X116922572Y-58364235D01*
X116898773Y-58370196D01*
X116874505Y-58373796D01*
X116850001Y-58375000D01*
X116149999Y-58375000D01*
X116125495Y-58373796D01*
X116101227Y-58370196D01*
X116077428Y-58364235D01*
X116054329Y-58355970D01*
X116032150Y-58345480D01*
X116011107Y-58332868D01*
X115991401Y-58318253D01*
X115973223Y-58301777D01*
X115956747Y-58283599D01*
X115942132Y-58263893D01*
X115929520Y-58242850D01*
X115919030Y-58220671D01*
X115910765Y-58197572D01*
X115904804Y-58173773D01*
X115901204Y-58149505D01*
X115900000Y-58125001D01*
X115900000Y-56874999D01*
X115901204Y-56850495D01*
X115904804Y-56826227D01*
X115910765Y-56802428D01*
X115919030Y-56779329D01*
X115929520Y-56757150D01*
X115942132Y-56736107D01*
X115956747Y-56716401D01*
X115973223Y-56698223D01*
X115991401Y-56681747D01*
X116011107Y-56667132D01*
X116032150Y-56654520D01*
X116054329Y-56644030D01*
X116077428Y-56635765D01*
X116101227Y-56629804D01*
X116125495Y-56626204D01*
X116149999Y-56625000D01*
X116850001Y-56625000D01*
X116874505Y-56626204D01*
G37*
D25*
X118500000Y-57500000D03*
X120500000Y-57500000D03*
X122500000Y-57500000D03*
D16*
G36*
X86899505Y-46401204D02*
G01*
X86923773Y-46404804D01*
X86947572Y-46410765D01*
X86970671Y-46419030D01*
X86992850Y-46429520D01*
X87013893Y-46442132D01*
X87033599Y-46456747D01*
X87051777Y-46473223D01*
X87068253Y-46491401D01*
X87082868Y-46511107D01*
X87095480Y-46532150D01*
X87105970Y-46554329D01*
X87114235Y-46577428D01*
X87120196Y-46601227D01*
X87123796Y-46625495D01*
X87125000Y-46649999D01*
X87125000Y-47350001D01*
X87123796Y-47374505D01*
X87120196Y-47398773D01*
X87114235Y-47422572D01*
X87105970Y-47445671D01*
X87095480Y-47467850D01*
X87082868Y-47488893D01*
X87068253Y-47508599D01*
X87051777Y-47526777D01*
X87033599Y-47543253D01*
X87013893Y-47557868D01*
X86992850Y-47570480D01*
X86970671Y-47580970D01*
X86947572Y-47589235D01*
X86923773Y-47595196D01*
X86899505Y-47598796D01*
X86875001Y-47600000D01*
X85624999Y-47600000D01*
X85600495Y-47598796D01*
X85576227Y-47595196D01*
X85552428Y-47589235D01*
X85529329Y-47580970D01*
X85507150Y-47570480D01*
X85486107Y-47557868D01*
X85466401Y-47543253D01*
X85448223Y-47526777D01*
X85431747Y-47508599D01*
X85417132Y-47488893D01*
X85404520Y-47467850D01*
X85394030Y-47445671D01*
X85385765Y-47422572D01*
X85379804Y-47398773D01*
X85376204Y-47374505D01*
X85375000Y-47350001D01*
X85375000Y-46649999D01*
X85376204Y-46625495D01*
X85379804Y-46601227D01*
X85385765Y-46577428D01*
X85394030Y-46554329D01*
X85404520Y-46532150D01*
X85417132Y-46511107D01*
X85431747Y-46491401D01*
X85448223Y-46473223D01*
X85466401Y-46456747D01*
X85486107Y-46442132D01*
X85507150Y-46429520D01*
X85529329Y-46419030D01*
X85552428Y-46410765D01*
X85576227Y-46404804D01*
X85600495Y-46401204D01*
X85624999Y-46400000D01*
X86875001Y-46400000D01*
X86899505Y-46401204D01*
G37*
D15*
X86250000Y-45000000D03*
X86250000Y-43000000D03*
D16*
G36*
X139374505Y-113126204D02*
G01*
X139398773Y-113129804D01*
X139422572Y-113135765D01*
X139445671Y-113144030D01*
X139467850Y-113154520D01*
X139488893Y-113167132D01*
X139508599Y-113181747D01*
X139526777Y-113198223D01*
X139543253Y-113216401D01*
X139557868Y-113236107D01*
X139570480Y-113257150D01*
X139580970Y-113279329D01*
X139589235Y-113302428D01*
X139595196Y-113326227D01*
X139598796Y-113350495D01*
X139600000Y-113374999D01*
X139600000Y-114625001D01*
X139598796Y-114649505D01*
X139595196Y-114673773D01*
X139589235Y-114697572D01*
X139580970Y-114720671D01*
X139570480Y-114742850D01*
X139557868Y-114763893D01*
X139543253Y-114783599D01*
X139526777Y-114801777D01*
X139508599Y-114818253D01*
X139488893Y-114832868D01*
X139467850Y-114845480D01*
X139445671Y-114855970D01*
X139422572Y-114864235D01*
X139398773Y-114870196D01*
X139374505Y-114873796D01*
X139350001Y-114875000D01*
X138649999Y-114875000D01*
X138625495Y-114873796D01*
X138601227Y-114870196D01*
X138577428Y-114864235D01*
X138554329Y-114855970D01*
X138532150Y-114845480D01*
X138511107Y-114832868D01*
X138491401Y-114818253D01*
X138473223Y-114801777D01*
X138456747Y-114783599D01*
X138442132Y-114763893D01*
X138429520Y-114742850D01*
X138419030Y-114720671D01*
X138410765Y-114697572D01*
X138404804Y-114673773D01*
X138401204Y-114649505D01*
X138400000Y-114625001D01*
X138400000Y-113374999D01*
X138401204Y-113350495D01*
X138404804Y-113326227D01*
X138410765Y-113302428D01*
X138419030Y-113279329D01*
X138429520Y-113257150D01*
X138442132Y-113236107D01*
X138456747Y-113216401D01*
X138473223Y-113198223D01*
X138491401Y-113181747D01*
X138511107Y-113167132D01*
X138532150Y-113154520D01*
X138554329Y-113144030D01*
X138577428Y-113135765D01*
X138601227Y-113129804D01*
X138625495Y-113126204D01*
X138649999Y-113125000D01*
X139350001Y-113125000D01*
X139374505Y-113126204D01*
G37*
D25*
X141000000Y-114000000D03*
X143000000Y-114000000D03*
X145000000Y-114000000D03*
X147000000Y-114000000D03*
D15*
X101750000Y-43250000D03*
X101750000Y-45250000D03*
D16*
G36*
X102399505Y-46651204D02*
G01*
X102423773Y-46654804D01*
X102447572Y-46660765D01*
X102470671Y-46669030D01*
X102492850Y-46679520D01*
X102513893Y-46692132D01*
X102533599Y-46706747D01*
X102551777Y-46723223D01*
X102568253Y-46741401D01*
X102582868Y-46761107D01*
X102595480Y-46782150D01*
X102605970Y-46804329D01*
X102614235Y-46827428D01*
X102620196Y-46851227D01*
X102623796Y-46875495D01*
X102625000Y-46899999D01*
X102625000Y-47600001D01*
X102623796Y-47624505D01*
X102620196Y-47648773D01*
X102614235Y-47672572D01*
X102605970Y-47695671D01*
X102595480Y-47717850D01*
X102582868Y-47738893D01*
X102568253Y-47758599D01*
X102551777Y-47776777D01*
X102533599Y-47793253D01*
X102513893Y-47807868D01*
X102492850Y-47820480D01*
X102470671Y-47830970D01*
X102447572Y-47839235D01*
X102423773Y-47845196D01*
X102399505Y-47848796D01*
X102375001Y-47850000D01*
X101124999Y-47850000D01*
X101100495Y-47848796D01*
X101076227Y-47845196D01*
X101052428Y-47839235D01*
X101029329Y-47830970D01*
X101007150Y-47820480D01*
X100986107Y-47807868D01*
X100966401Y-47793253D01*
X100948223Y-47776777D01*
X100931747Y-47758599D01*
X100917132Y-47738893D01*
X100904520Y-47717850D01*
X100894030Y-47695671D01*
X100885765Y-47672572D01*
X100879804Y-47648773D01*
X100876204Y-47624505D01*
X100875000Y-47600001D01*
X100875000Y-46899999D01*
X100876204Y-46875495D01*
X100879804Y-46851227D01*
X100885765Y-46827428D01*
X100894030Y-46804329D01*
X100904520Y-46782150D01*
X100917132Y-46761107D01*
X100931747Y-46741401D01*
X100948223Y-46723223D01*
X100966401Y-46706747D01*
X100986107Y-46692132D01*
X101007150Y-46679520D01*
X101029329Y-46669030D01*
X101052428Y-46660765D01*
X101076227Y-46654804D01*
X101100495Y-46651204D01*
X101124999Y-46650000D01*
X102375001Y-46650000D01*
X102399505Y-46651204D01*
G37*
G36*
X161649505Y-119901204D02*
G01*
X161673773Y-119904804D01*
X161697572Y-119910765D01*
X161720671Y-119919030D01*
X161742850Y-119929520D01*
X161763893Y-119942132D01*
X161783599Y-119956747D01*
X161801777Y-119973223D01*
X161818253Y-119991401D01*
X161832868Y-120011107D01*
X161845480Y-120032150D01*
X161855970Y-120054329D01*
X161864235Y-120077428D01*
X161870196Y-120101227D01*
X161873796Y-120125495D01*
X161875000Y-120149999D01*
X161875000Y-120850001D01*
X161873796Y-120874505D01*
X161870196Y-120898773D01*
X161864235Y-120922572D01*
X161855970Y-120945671D01*
X161845480Y-120967850D01*
X161832868Y-120988893D01*
X161818253Y-121008599D01*
X161801777Y-121026777D01*
X161783599Y-121043253D01*
X161763893Y-121057868D01*
X161742850Y-121070480D01*
X161720671Y-121080970D01*
X161697572Y-121089235D01*
X161673773Y-121095196D01*
X161649505Y-121098796D01*
X161625001Y-121100000D01*
X160374999Y-121100000D01*
X160350495Y-121098796D01*
X160326227Y-121095196D01*
X160302428Y-121089235D01*
X160279329Y-121080970D01*
X160257150Y-121070480D01*
X160236107Y-121057868D01*
X160216401Y-121043253D01*
X160198223Y-121026777D01*
X160181747Y-121008599D01*
X160167132Y-120988893D01*
X160154520Y-120967850D01*
X160144030Y-120945671D01*
X160135765Y-120922572D01*
X160129804Y-120898773D01*
X160126204Y-120874505D01*
X160125000Y-120850001D01*
X160125000Y-120149999D01*
X160126204Y-120125495D01*
X160129804Y-120101227D01*
X160135765Y-120077428D01*
X160144030Y-120054329D01*
X160154520Y-120032150D01*
X160167132Y-120011107D01*
X160181747Y-119991401D01*
X160198223Y-119973223D01*
X160216401Y-119956747D01*
X160236107Y-119942132D01*
X160257150Y-119929520D01*
X160279329Y-119919030D01*
X160302428Y-119910765D01*
X160326227Y-119904804D01*
X160350495Y-119901204D01*
X160374999Y-119900000D01*
X161625001Y-119900000D01*
X161649505Y-119901204D01*
G37*
D15*
X161000000Y-118500000D03*
X161000000Y-116500000D03*
X161000000Y-114500000D03*
D18*
X106000000Y-107000000D03*
D19*
X108540000Y-107000000D03*
D26*
X61000000Y-129500000D03*
D27*
X63500000Y-129500000D03*
X66000000Y-129500000D03*
X62000000Y-122750000D03*
X59500000Y-122750000D03*
D26*
X57000000Y-122750000D03*
D16*
G36*
X140124505Y-56626204D02*
G01*
X140148773Y-56629804D01*
X140172572Y-56635765D01*
X140195671Y-56644030D01*
X140217850Y-56654520D01*
X140238893Y-56667132D01*
X140258599Y-56681747D01*
X140276777Y-56698223D01*
X140293253Y-56716401D01*
X140307868Y-56736107D01*
X140320480Y-56757150D01*
X140330970Y-56779329D01*
X140339235Y-56802428D01*
X140345196Y-56826227D01*
X140348796Y-56850495D01*
X140350000Y-56874999D01*
X140350000Y-58125001D01*
X140348796Y-58149505D01*
X140345196Y-58173773D01*
X140339235Y-58197572D01*
X140330970Y-58220671D01*
X140320480Y-58242850D01*
X140307868Y-58263893D01*
X140293253Y-58283599D01*
X140276777Y-58301777D01*
X140258599Y-58318253D01*
X140238893Y-58332868D01*
X140217850Y-58345480D01*
X140195671Y-58355970D01*
X140172572Y-58364235D01*
X140148773Y-58370196D01*
X140124505Y-58373796D01*
X140100001Y-58375000D01*
X139399999Y-58375000D01*
X139375495Y-58373796D01*
X139351227Y-58370196D01*
X139327428Y-58364235D01*
X139304329Y-58355970D01*
X139282150Y-58345480D01*
X139261107Y-58332868D01*
X139241401Y-58318253D01*
X139223223Y-58301777D01*
X139206747Y-58283599D01*
X139192132Y-58263893D01*
X139179520Y-58242850D01*
X139169030Y-58220671D01*
X139160765Y-58197572D01*
X139154804Y-58173773D01*
X139151204Y-58149505D01*
X139150000Y-58125001D01*
X139150000Y-56874999D01*
X139151204Y-56850495D01*
X139154804Y-56826227D01*
X139160765Y-56802428D01*
X139169030Y-56779329D01*
X139179520Y-56757150D01*
X139192132Y-56736107D01*
X139206747Y-56716401D01*
X139223223Y-56698223D01*
X139241401Y-56681747D01*
X139261107Y-56667132D01*
X139282150Y-56654520D01*
X139304329Y-56644030D01*
X139327428Y-56635765D01*
X139351227Y-56629804D01*
X139375495Y-56626204D01*
X139399999Y-56625000D01*
X140100001Y-56625000D01*
X140124505Y-56626204D01*
G37*
D25*
X141750000Y-57500000D03*
X143750000Y-57500000D03*
X145750000Y-57500000D03*
X147750000Y-57500000D03*
X149750000Y-57500000D03*
X151750000Y-57500000D03*
X153750000Y-57500000D03*
D18*
X65750000Y-46000000D03*
D19*
X65750000Y-48540000D03*
D16*
G36*
X59649505Y-48151204D02*
G01*
X59673773Y-48154804D01*
X59697572Y-48160765D01*
X59720671Y-48169030D01*
X59742850Y-48179520D01*
X59763893Y-48192132D01*
X59783599Y-48206747D01*
X59801777Y-48223223D01*
X59818253Y-48241401D01*
X59832868Y-48261107D01*
X59845480Y-48282150D01*
X59855970Y-48304329D01*
X59864235Y-48327428D01*
X59870196Y-48351227D01*
X59873796Y-48375495D01*
X59875000Y-48399999D01*
X59875000Y-49100001D01*
X59873796Y-49124505D01*
X59870196Y-49148773D01*
X59864235Y-49172572D01*
X59855970Y-49195671D01*
X59845480Y-49217850D01*
X59832868Y-49238893D01*
X59818253Y-49258599D01*
X59801777Y-49276777D01*
X59783599Y-49293253D01*
X59763893Y-49307868D01*
X59742850Y-49320480D01*
X59720671Y-49330970D01*
X59697572Y-49339235D01*
X59673773Y-49345196D01*
X59649505Y-49348796D01*
X59625001Y-49350000D01*
X58374999Y-49350000D01*
X58350495Y-49348796D01*
X58326227Y-49345196D01*
X58302428Y-49339235D01*
X58279329Y-49330970D01*
X58257150Y-49320480D01*
X58236107Y-49307868D01*
X58216401Y-49293253D01*
X58198223Y-49276777D01*
X58181747Y-49258599D01*
X58167132Y-49238893D01*
X58154520Y-49217850D01*
X58144030Y-49195671D01*
X58135765Y-49172572D01*
X58129804Y-49148773D01*
X58126204Y-49124505D01*
X58125000Y-49100001D01*
X58125000Y-48399999D01*
X58126204Y-48375495D01*
X58129804Y-48351227D01*
X58135765Y-48327428D01*
X58144030Y-48304329D01*
X58154520Y-48282150D01*
X58167132Y-48261107D01*
X58181747Y-48241401D01*
X58198223Y-48223223D01*
X58216401Y-48206747D01*
X58236107Y-48192132D01*
X58257150Y-48179520D01*
X58279329Y-48169030D01*
X58302428Y-48160765D01*
X58326227Y-48154804D01*
X58350495Y-48151204D01*
X58374999Y-48150000D01*
X59625001Y-48150000D01*
X59649505Y-48151204D01*
G37*
D15*
X59000000Y-46750000D03*
X59000000Y-44750000D03*
X59000000Y-42750000D03*
M02*
