  0
SECTION
  2
HEADER
  9
$ANGBASE
  50
0.0
  9
$ANGDIR
  70
1
  9
$MEASUREMENT
  70
0
  0
ENDSEC
  0
SECTION
  2
TABLES
  0
TABLE
  2
LTYPE
  70
4
  0
LTYPE
  5
40F
  2
CONTINUOUS
  70
0
  3
Solid line
  72
65
  73
0
  40
0.0
  0
LTYPE
  5
410
  2
DASHDOT
 70
0
  3
Dash Dot ____ _ ____ _
 72
65
 73
4
 40
2.0
 49
1.25
 49
-0.25
 49
0.25
 49
-0.25
  0
LTYPE
  5
411
  2
DASHED
 70
0
  3
Dashed __ __ __ __ __
 72
65
 73
2
 40
0.75
 49
0.5
 49
-0.25
  0
LTYPE
  5
43B
  2
DOTTED
 70
0
  3
Dotted .  .  .  .
 72
65
 73
2
 40
0.2
 49
0.0
 49
-0.2
  0
ENDTAB
  0
TABLE
  2
STYLE
  70
4
  0
STYLE
  2
KICAD
  70
0
  40
0
  41
1
  42
1
  50
0
  71
0
  3
isocp.shx
  0
STYLE
  2
KICADB
  70
0
  40
0
  41
1
  42
1
  50
0
  71
0
  3
isocp.shx
  0
STYLE
  2
KICADI
  70
0
  40
0
  41
1
  42
1
  50
15
  71
0
  3
isocp.shx
  0
STYLE
  2
KICADBI
  70
0
  40
0
  41
1
  42
1
  50
15
  71
0
  3
isocp.shx
  0
ENDTAB
  0
TABLE
  2
LAYER
  70
1
  0
LAYER
  2
BLACK
  70
0
  62
7
  6
CONTINUOUS
  0
ENDTAB
  0
ENDSEC
  0
SECTION
  2
ENTITIES
0
LINE
8
BLACK
6
CONTINUOUS
10
6.69309
20
-1.57284
11
6.72795
21
-1.57595
0
LINE
8
BLACK
6
CONTINUOUS
10
6.72795
20
-1.57595
11
6.72795
21
-1.57595
0
LINE
8
BLACK
6
CONTINUOUS
10
6.72795
20
-1.57595
11
6.72795
21
-1.57595
0
LINE
8
BLACK
6
CONTINUOUS
10
6.72795
20
-1.57595
11
6.72817
21
-1.57599
0
LINE
8
BLACK
6
CONTINUOUS
10
6.72817
20
-1.57599
11
6.72823
21
-1.576
0
LINE
8
BLACK
6
CONTINUOUS
10
6.72823
20
-1.576
11
6.72829
21
-1.57602
0
LINE
8
BLACK
6
CONTINUOUS
10
6.72829
20
-1.57602
11
6.76205
21
-1.58525
0
LINE
8
BLACK
6
CONTINUOUS
10
6.76205
20
-1.58525
11
6.76205
21
-1.58525
0
LINE
8
BLACK
6
CONTINUOUS
10
6.76205
20
-1.58525
11
6.76205
21
-1.58525
0
LINE
8
BLACK
6
CONTINUOUS
10
6.76205
20
-1.58525
11
6.76226
21
-1.58532
0
LINE
8
BLACK
6
CONTINUOUS
10
6.76226
20
-1.58532
11
6.76232
21
-1.58535
0
LINE
8
BLACK
6
CONTINUOUS
10
6.76232
20
-1.58535
11
6.76238
21
-1.58537
0
LINE
8
BLACK
6
CONTINUOUS
10
6.76238
20
-1.58537
11
6.79397
21
-1.60044
0
LINE
8
BLACK
6
CONTINUOUS
10
6.79397
20
-1.60044
11
6.79397
21
-1.60044
0
LINE
8
BLACK
6
CONTINUOUS
10
6.79397
20
-1.60044
11
6.79397
21
-1.60044
0
LINE
8
BLACK
6
CONTINUOUS
10
6.79397
20
-1.60044
11
6.79416
21
-1.60055
0
LINE
8
BLACK
6
CONTINUOUS
10
6.79416
20
-1.60055
11
6.79421
21
-1.60059
0
LINE
8
BLACK
6
CONTINUOUS
10
6.79421
20
-1.60059
11
6.79427
21
-1.60062
0
LINE
8
BLACK
6
CONTINUOUS
10
6.79427
20
-1.60062
11
6.82269
21
-1.62104
0
LINE
8
BLACK
6
CONTINUOUS
10
6.82269
20
-1.62104
11
6.82286
21
-1.62118
0
LINE
8
BLACK
6
CONTINUOUS
10
6.82286
20
-1.62118
11
6.82291
21
-1.62123
0
LINE
8
BLACK
6
CONTINUOUS
10
6.82291
20
-1.62123
11
6.82295
21
-1.62127
0
LINE
8
BLACK
6
CONTINUOUS
10
6.82295
20
-1.62127
11
6.84731
21
-1.6464
0
LINE
8
BLACK
6
CONTINUOUS
10
6.84731
20
-1.6464
11
6.84731
21
-1.6464
0
LINE
8
BLACK
6
CONTINUOUS
10
6.84731
20
-1.6464
11
6.84731
21
-1.6464
0
LINE
8
BLACK
6
CONTINUOUS
10
6.84731
20
-1.6464
11
6.84746
21
-1.64657
0
LINE
8
BLACK
6
CONTINUOUS
10
6.84746
20
-1.64657
11
6.84749
21
-1.64663
0
LINE
8
BLACK
6
CONTINUOUS
10
6.84749
20
-1.64663
11
6.84753
21
-1.64667
0
LINE
8
BLACK
6
CONTINUOUS
10
6.84753
20
-1.64667
11
6.86705
21
-1.67572
0
LINE
8
BLACK
6
CONTINUOUS
10
6.86705
20
-1.67572
11
6.86716
21
-1.67592
0
LINE
8
BLACK
6
CONTINUOUS
10
6.86716
20
-1.67592
11
6.86719
21
-1.67597
0
LINE
8
BLACK
6
CONTINUOUS
10
6.86719
20
-1.67597
11
6.86722
21
-1.67603
0
LINE
8
BLACK
6
CONTINUOUS
10
6.86722
20
-1.67603
11
6.88128
21
-1.70808
0
LINE
8
BLACK
6
CONTINUOUS
10
6.88128
20
-1.70808
11
6.88136
21
-1.70829
0
LINE
8
BLACK
6
CONTINUOUS
10
6.88136
20
-1.70829
11
6.88138
21
-1.70835
0
LINE
8
BLACK
6
CONTINUOUS
10
6.88138
20
-1.70835
11
6.8814
21
-1.70841
0
LINE
8
BLACK
6
CONTINUOUS
10
6.8814
20
-1.70841
11
6.88957
21
-1.74244
0
LINE
8
BLACK
6
CONTINUOUS
10
6.88957
20
-1.74244
11
6.88961
21
-1.74266
0
LINE
8
BLACK
6
CONTINUOUS
10
6.88961
20
-1.74266
11
6.88961
21
-1.74271
0
LINE
8
BLACK
6
CONTINUOUS
10
6.88961
20
-1.74271
11
6.88962
21
-1.74275
0
LINE
8
BLACK
6
CONTINUOUS
10
6.88962
20
-1.74275
11
6.89173
21
-1.77149
0
LINE
8
BLACK
6
CONTINUOUS
10
6.89173
20
-1.77149
11
6.89173
21
-1.77156
0
LINE
8
BLACK
6
CONTINUOUS
10
6.89173
20
-1.77156
11
6.89173
21
-5.11821
0
LINE
8
BLACK
6
CONTINUOUS
10
6.89173
20
-5.11821
11
6.89172
21
-5.11829
0
LINE
8
BLACK
6
CONTINUOUS
10
6.89172
20
-5.11829
11
6.88861
21
-5.15314
0
LINE
8
BLACK
6
CONTINUOUS
10
6.88861
20
-5.15314
11
6.88858
21
-5.15337
0
LINE
8
BLACK
6
CONTINUOUS
10
6.88858
20
-5.15337
11
6.88856
21
-5.15343
0
LINE
8
BLACK
6
CONTINUOUS
10
6.88856
20
-5.15343
11
6.88855
21
-5.15349
0
LINE
8
BLACK
6
CONTINUOUS
10
6.88855
20
-5.15349
11
6.87932
21
-5.18725
0
LINE
8
BLACK
6
CONTINUOUS
10
6.87932
20
-5.18725
11
6.87924
21
-5.18746
0
LINE
8
BLACK
6
CONTINUOUS
10
6.87924
20
-5.18746
11
6.87922
21
-5.18752
0
LINE
8
BLACK
6
CONTINUOUS
10
6.87922
20
-5.18752
11
6.87919
21
-5.18757
0
LINE
8
BLACK
6
CONTINUOUS
10
6.87919
20
-5.18757
11
6.86413
21
-5.21916
0
LINE
8
BLACK
6
CONTINUOUS
10
6.86413
20
-5.21916
11
6.86402
21
-5.21936
0
LINE
8
BLACK
6
CONTINUOUS
10
6.86402
20
-5.21936
11
6.86398
21
-5.21941
0
LINE
8
BLACK
6
CONTINUOUS
10
6.86398
20
-5.21941
11
6.86395
21
-5.21946
0
LINE
8
BLACK
6
CONTINUOUS
10
6.86395
20
-5.21946
11
6.84353
21
-5.24789
0
LINE
8
BLACK
6
CONTINUOUS
10
6.84353
20
-5.24789
11
6.84338
21
-5.24806
0
LINE
8
BLACK
6
CONTINUOUS
10
6.84338
20
-5.24806
11
6.84334
21
-5.2481
0
LINE
8
BLACK
6
CONTINUOUS
10
6.84334
20
-5.2481
11
6.8433
21
-5.24815
0
LINE
8
BLACK
6
CONTINUOUS
10
6.8433
20
-5.24815
11
6.81817
21
-5.27251
0
LINE
8
BLACK
6
CONTINUOUS
10
6.81817
20
-5.27251
11
6.81817
21
-5.27251
0
LINE
8
BLACK
6
CONTINUOUS
10
6.81817
20
-5.27251
11
6.81816
21
-5.27251
0
LINE
8
BLACK
6
CONTINUOUS
10
6.81816
20
-5.27251
11
6.81799
21
-5.27265
0
LINE
8
BLACK
6
CONTINUOUS
10
6.81799
20
-5.27265
11
6.81794
21
-5.27269
0
LINE
8
BLACK
6
CONTINUOUS
10
6.81794
20
-5.27269
11
6.81789
21
-5.27273
0
LINE
8
BLACK
6
CONTINUOUS
10
6.81789
20
-5.27273
11
6.78884
21
-5.29225
0
LINE
8
BLACK
6
CONTINUOUS
10
6.78884
20
-5.29225
11
6.78865
21
-5.29236
0
LINE
8
BLACK
6
CONTINUOUS
10
6.78865
20
-5.29236
11
6.78859
21
-5.29238
0
LINE
8
BLACK
6
CONTINUOUS
10
6.78859
20
-5.29238
11
6.78854
21
-5.29241
0
LINE
8
BLACK
6
CONTINUOUS
10
6.78854
20
-5.29241
11
6.75649
21
-5.30648
0
LINE
8
BLACK
6
CONTINUOUS
10
6.75649
20
-5.30648
11
6.75649
21
-5.30648
0
LINE
8
BLACK
6
CONTINUOUS
10
6.75649
20
-5.30648
11
6.75649
21
-5.30648
0
LINE
8
BLACK
6
CONTINUOUS
10
6.75649
20
-5.30648
11
6.75628
21
-5.30656
0
LINE
8
BLACK
6
CONTINUOUS
10
6.75628
20
-5.30656
11
6.75622
21
-5.30657
0
LINE
8
BLACK
6
CONTINUOUS
10
6.75622
20
-5.30657
11
6.75616
21
-5.30659
0
LINE
8
BLACK
6
CONTINUOUS
10
6.75616
20
-5.30659
11
6.72213
21
-5.31476
0
LINE
8
BLACK
6
CONTINUOUS
10
6.72213
20
-5.31476
11
6.72191
21
-5.3148
0
LINE
8
BLACK
6
CONTINUOUS
10
6.72191
20
-5.3148
11
6.72186
21
-5.3148
0
LINE
8
BLACK
6
CONTINUOUS
10
6.72186
20
-5.3148
11
6.72181
21
-5.31481
0
LINE
8
BLACK
6
CONTINUOUS
10
6.72181
20
-5.31481
11
6.69308
21
-5.31692
0
LINE
8
BLACK
6
CONTINUOUS
10
6.69308
20
-5.31692
11
6.69301
21
-5.31693
0
LINE
8
BLACK
6
CONTINUOUS
10
6.69301
20
-5.31693
11
2.06683
21
-5.31693
0
LINE
8
BLACK
6
CONTINUOUS
10
2.06683
20
-5.31693
11
2.06675
21
-5.31692
0
LINE
8
BLACK
6
CONTINUOUS
10
2.06675
20
-5.31692
11
2.03189
21
-5.31381
0
LINE
8
BLACK
6
CONTINUOUS
10
2.03189
20
-5.31381
11
2.03167
21
-5.31378
0
LINE
8
BLACK
6
CONTINUOUS
10
2.03167
20
-5.31378
11
2.03161
21
-5.31376
0
LINE
8
BLACK
6
CONTINUOUS
10
2.03161
20
-5.31376
11
2.03155
21
-5.31375
0
LINE
8
BLACK
6
CONTINUOUS
10
2.03155
20
-5.31375
11
1.99779
21
-5.30451
0
LINE
8
BLACK
6
CONTINUOUS
10
1.99779
20
-5.30451
11
1.99758
21
-5.30444
0
LINE
8
BLACK
6
CONTINUOUS
10
1.99758
20
-5.30444
11
1.99752
21
-5.30441
0
LINE
8
BLACK
6
CONTINUOUS
10
1.99752
20
-5.30441
11
1.99747
21
-5.30439
0
LINE
8
BLACK
6
CONTINUOUS
10
1.99747
20
-5.30439
11
1.96588
21
-5.28932
0
LINE
8
BLACK
6
CONTINUOUS
10
1.96588
20
-5.28932
11
1.96568
21
-5.28922
0
LINE
8
BLACK
6
CONTINUOUS
10
1.96568
20
-5.28922
11
1.96563
21
-5.28918
0
LINE
8
BLACK
6
CONTINUOUS
10
1.96563
20
-5.28918
11
1.96558
21
-5.28915
0
LINE
8
BLACK
6
CONTINUOUS
10
1.96558
20
-5.28915
11
1.93715
21
-5.26872
0
LINE
8
BLACK
6
CONTINUOUS
10
1.93715
20
-5.26872
11
1.93698
21
-5.26858
0
LINE
8
BLACK
6
CONTINUOUS
10
1.93698
20
-5.26858
11
1.93694
21
-5.26854
0
LINE
8
BLACK
6
CONTINUOUS
10
1.93694
20
-5.26854
11
1.93689
21
-5.26849
0
LINE
8
BLACK
6
CONTINUOUS
10
1.93689
20
-5.26849
11
1.91253
21
-5.24336
0
LINE
8
BLACK
6
CONTINUOUS
10
1.91253
20
-5.24336
11
1.91253
21
-5.24336
0
LINE
8
BLACK
6
CONTINUOUS
10
1.91253
20
-5.24336
11
1.91253
21
-5.24336
0
LINE
8
BLACK
6
CONTINUOUS
10
1.91253
20
-5.24336
11
1.91239
21
-5.24319
0
LINE
8
BLACK
6
CONTINUOUS
10
1.91239
20
-5.24319
11
1.91235
21
-5.24314
0
LINE
8
BLACK
6
CONTINUOUS
10
1.91235
20
-5.24314
11
1.91231
21
-5.24309
0
LINE
8
BLACK
6
CONTINUOUS
10
1.91231
20
-5.24309
11
1.89279
21
-5.21404
0
LINE
8
BLACK
6
CONTINUOUS
10
1.89279
20
-5.21404
11
1.89268
21
-5.21385
0
LINE
8
BLACK
6
CONTINUOUS
10
1.89268
20
-5.21385
11
1.89266
21
-5.21379
0
LINE
8
BLACK
6
CONTINUOUS
10
1.89266
20
-5.21379
11
1.89263
21
-5.21373
0
LINE
8
BLACK
6
CONTINUOUS
10
1.89263
20
-5.21373
11
1.87856
21
-5.18169
0
LINE
8
BLACK
6
CONTINUOUS
10
1.87856
20
-5.18169
11
1.87848
21
-5.18148
0
LINE
8
BLACK
6
CONTINUOUS
10
1.87848
20
-5.18148
11
1.87847
21
-5.18142
0
LINE
8
BLACK
6
CONTINUOUS
10
1.87847
20
-5.18142
11
1.87845
21
-5.18136
0
LINE
8
BLACK
6
CONTINUOUS
10
1.87845
20
-5.18136
11
1.87028
21
-5.14733
0
LINE
8
BLACK
6
CONTINUOUS
10
1.87028
20
-5.14733
11
1.87024
21
-5.1471
0
LINE
8
BLACK
6
CONTINUOUS
10
1.87024
20
-5.1471
11
1.87023
21
-5.14706
0
LINE
8
BLACK
6
CONTINUOUS
10
1.87023
20
-5.14706
11
1.87023
21
-5.14701
0
LINE
8
BLACK
6
CONTINUOUS
10
1.87023
20
-5.14701
11
1.86812
21
-5.11828
0
LINE
8
BLACK
6
CONTINUOUS
10
1.86812
20
-5.11828
11
1.86811
21
-5.11821
0
LINE
8
BLACK
6
CONTINUOUS
10
1.86811
20
-5.11821
11
1.86811
21
-1.77156
0
LINE
8
BLACK
6
CONTINUOUS
10
1.86811
20
-1.77156
11
1.86812
21
-1.77148
0
LINE
8
BLACK
6
CONTINUOUS
10
1.86812
20
-1.77148
11
1.87123
21
-1.73662
0
LINE
8
BLACK
6
CONTINUOUS
10
1.87123
20
-1.73662
11
1.87126
21
-1.7364
0
LINE
8
BLACK
6
CONTINUOUS
10
1.87126
20
-1.7364
11
1.87128
21
-1.73634
0
LINE
8
BLACK
6
CONTINUOUS
10
1.87128
20
-1.73634
11
1.87129
21
-1.73627
0
LINE
8
BLACK
6
CONTINUOUS
10
1.87129
20
-1.73627
11
1.88053
21
-1.70252
0
LINE
8
BLACK
6
CONTINUOUS
10
1.88053
20
-1.70252
11
1.8806
21
-1.7023
0
LINE
8
BLACK
6
CONTINUOUS
10
1.8806
20
-1.7023
11
1.88063
21
-1.70225
0
LINE
8
BLACK
6
CONTINUOUS
10
1.88063
20
-1.70225
11
1.88065
21
-1.70219
0
LINE
8
BLACK
6
CONTINUOUS
10
1.88065
20
-1.70219
11
1.89572
21
-1.6706
0
LINE
8
BLACK
6
CONTINUOUS
10
1.89572
20
-1.6706
11
1.89572
21
-1.6706
0
LINE
8
BLACK
6
CONTINUOUS
10
1.89572
20
-1.6706
11
1.89572
21
-1.6706
0
LINE
8
BLACK
6
CONTINUOUS
10
1.89572
20
-1.6706
11
1.89582
21
-1.6704
0
LINE
8
BLACK
6
CONTINUOUS
10
1.89582
20
-1.6704
11
1.89586
21
-1.67035
0
LINE
8
BLACK
6
CONTINUOUS
10
1.89586
20
-1.67035
11
1.89589
21
-1.6703
0
LINE
8
BLACK
6
CONTINUOUS
10
1.89589
20
-1.6703
11
1.91632
21
-1.64188
0
LINE
8
BLACK
6
CONTINUOUS
10
1.91632
20
-1.64188
11
1.91646
21
-1.6417
0
LINE
8
BLACK
6
CONTINUOUS
10
1.91646
20
-1.6417
11
1.9165
21
-1.64166
0
LINE
8
BLACK
6
CONTINUOUS
10
1.9165
20
-1.64166
11
1.91654
21
-1.64161
0
LINE
8
BLACK
6
CONTINUOUS
10
1.91654
20
-1.64161
11
1.94168
21
-1.61726
0
LINE
8
BLACK
6
CONTINUOUS
10
1.94168
20
-1.61726
11
1.94168
21
-1.61726
0
LINE
8
BLACK
6
CONTINUOUS
10
1.94168
20
-1.61726
11
1.94168
21
-1.61726
0
LINE
8
BLACK
6
CONTINUOUS
10
1.94168
20
-1.61726
11
1.94185
21
-1.61711
0
LINE
8
BLACK
6
CONTINUOUS
10
1.94185
20
-1.61711
11
1.9419
21
-1.61708
0
LINE
8
BLACK
6
CONTINUOUS
10
1.9419
20
-1.61708
11
1.94195
21
-1.61704
0
LINE
8
BLACK
6
CONTINUOUS
10
1.94195
20
-1.61704
11
1.971
21
-1.59752
0
LINE
8
BLACK
6
CONTINUOUS
10
1.971
20
-1.59752
11
1.97119
21
-1.5974
0
LINE
8
BLACK
6
CONTINUOUS
10
1.97119
20
-1.5974
11
1.97125
21
-1.59738
0
LINE
8
BLACK
6
CONTINUOUS
10
1.97125
20
-1.59738
11
1.9713
21
-1.59735
0
LINE
8
BLACK
6
CONTINUOUS
10
1.9713
20
-1.59735
11
2.00335
21
-1.58328
0
LINE
8
BLACK
6
CONTINUOUS
10
2.00335
20
-1.58328
11
2.00356
21
-1.5832
0
LINE
8
BLACK
6
CONTINUOUS
10
2.00356
20
-1.5832
11
2.00362
21
-1.58319
0
LINE
8
BLACK
6
CONTINUOUS
10
2.00362
20
-1.58319
11
2.00368
21
-1.58317
0
LINE
8
BLACK
6
CONTINUOUS
10
2.00368
20
-1.58317
11
2.03771
21
-1.575
0
LINE
8
BLACK
6
CONTINUOUS
10
2.03771
20
-1.575
11
2.03794
21
-1.57496
0
LINE
8
BLACK
6
CONTINUOUS
10
2.03794
20
-1.57496
11
2.03798
21
-1.57496
0
LINE
8
BLACK
6
CONTINUOUS
10
2.03798
20
-1.57496
11
2.03803
21
-1.57495
0
LINE
8
BLACK
6
CONTINUOUS
10
2.03803
20
-1.57495
11
2.06676
21
-1.57284
0
LINE
8
BLACK
6
CONTINUOUS
10
2.06676
20
-1.57284
11
2.06683
21
-1.57283
0
LINE
8
BLACK
6
CONTINUOUS
10
2.06683
20
-1.57283
11
6.69301
21
-1.57283
0
LINE
8
BLACK
6
CONTINUOUS
10
6.69301
20
-1.57283
11
6.69309
21
-1.57284
0
LINE
8
BLACK
6
CONTINUOUS
10
2.067
20
-1.57677
11
2.03848
21
-1.57887
0
LINE
8
BLACK
6
CONTINUOUS
10
2.03848
20
-1.57887
11
2.00477
21
-1.58696
0
LINE
8
BLACK
6
CONTINUOUS
10
2.00477
20
-1.58696
11
1.97305
21
-1.60088
0
LINE
8
BLACK
6
CONTINUOUS
10
1.97305
20
-1.60088
11
1.94429
21
-1.62021
0
LINE
8
BLACK
6
CONTINUOUS
10
1.94429
20
-1.62021
11
1.91941
21
-1.64432
0
LINE
8
BLACK
6
CONTINUOUS
10
1.91941
20
-1.64432
11
1.89919
21
-1.67245
0
LINE
8
BLACK
6
CONTINUOUS
10
1.89919
20
-1.67245
11
1.88428
21
-1.70373
0
LINE
8
BLACK
6
CONTINUOUS
10
1.88428
20
-1.70373
11
1.87513
21
-1.73714
0
LINE
8
BLACK
6
CONTINUOUS
10
1.87513
20
-1.73714
11
1.87205
21
-1.77174
0
LINE
8
BLACK
6
CONTINUOUS
10
1.87205
20
-1.77174
11
1.87205
21
-5.11804
0
LINE
8
BLACK
6
CONTINUOUS
10
1.87205
20
-5.11804
11
1.87414
21
-5.14656
0
LINE
8
BLACK
6
CONTINUOUS
10
1.87414
20
-5.14656
11
1.88223
21
-5.18027
0
LINE
8
BLACK
6
CONTINUOUS
10
1.88223
20
-5.18027
11
1.89616
21
-5.21199
0
LINE
8
BLACK
6
CONTINUOUS
10
1.89616
20
-5.21199
11
1.91548
21
-5.24075
0
LINE
8
BLACK
6
CONTINUOUS
10
1.91548
20
-5.24075
11
1.93959
21
-5.26563
0
LINE
8
BLACK
6
CONTINUOUS
10
1.93959
20
-5.26563
11
1.96773
21
-5.28585
0
LINE
8
BLACK
6
CONTINUOUS
10
1.96773
20
-5.28585
11
1.999
21
-5.30076
0
LINE
8
BLACK
6
CONTINUOUS
10
1.999
20
-5.30076
11
2.03242
21
-5.3099
0
LINE
8
BLACK
6
CONTINUOUS
10
2.03242
20
-5.3099
11
2.06702
21
-5.31299
0
LINE
8
BLACK
6
CONTINUOUS
10
2.06702
20
-5.31299
11
6.69284
21
-5.31299
0
LINE
8
BLACK
6
CONTINUOUS
10
6.69284
20
-5.31299
11
6.72137
21
-5.3109
0
LINE
8
BLACK
6
CONTINUOUS
10
6.72137
20
-5.3109
11
6.75507
21
-5.30281
0
LINE
8
BLACK
6
CONTINUOUS
10
6.75507
20
-5.30281
11
6.78679
21
-5.28888
0
LINE
8
BLACK
6
CONTINUOUS
10
6.78679
20
-5.28888
11
6.81555
21
-5.26956
0
LINE
8
BLACK
6
CONTINUOUS
10
6.81555
20
-5.26956
11
6.84043
21
-5.24544
0
LINE
8
BLACK
6
CONTINUOUS
10
6.84043
20
-5.24544
11
6.86065
21
-5.21731
0
LINE
8
BLACK
6
CONTINUOUS
10
6.86065
20
-5.21731
11
6.87557
21
-5.18604
0
LINE
8
BLACK
6
CONTINUOUS
10
6.87557
20
-5.18604
11
6.88471
21
-5.15262
0
LINE
8
BLACK
6
CONTINUOUS
10
6.88471
20
-5.15262
11
6.8878
21
-5.11802
0
LINE
8
BLACK
6
CONTINUOUS
10
6.8878
20
-5.11802
11
6.8878
21
-1.77173
0
LINE
8
BLACK
6
CONTINUOUS
10
6.8878
20
-1.77173
11
6.8857
21
-1.7432
0
LINE
8
BLACK
6
CONTINUOUS
10
6.8857
20
-1.7432
11
6.87761
21
-1.7095
0
LINE
8
BLACK
6
CONTINUOUS
10
6.87761
20
-1.7095
11
6.86368
21
-1.67777
0
LINE
8
BLACK
6
CONTINUOUS
10
6.86368
20
-1.67777
11
6.84436
21
-1.64902
0
LINE
8
BLACK
6
CONTINUOUS
10
6.84436
20
-1.64902
11
6.82025
21
-1.62413
0
LINE
8
BLACK
6
CONTINUOUS
10
6.82025
20
-1.62413
11
6.79211
21
-1.60392
0
LINE
8
BLACK
6
CONTINUOUS
10
6.79211
20
-1.60392
11
6.76084
21
-1.589
0
LINE
8
BLACK
6
CONTINUOUS
10
6.76084
20
-1.589
11
6.72742
21
-1.57986
0
LINE
8
BLACK
6
CONTINUOUS
10
6.72742
20
-1.57986
11
6.69283
21
-1.57677
0
LINE
8
BLACK
6
CONTINUOUS
10
6.69283
20
-1.57677
11
2.067
21
-1.57677
  0
ENDSEC
  0
EOF
