%FSLAX45Y45*%
G04 Gerber Fmt 4.5, Leading zero omitted, Abs format (unit mm)*
G04 Created by KiCad (PCBNEW 5.99.0-unknown-47cb7f53fd~143~ubuntu20.04.1) date 2021-11-23 21:25:01*
%MOMM*%
%LPD*%
G01*
G04 APERTURE LIST*
%TA.AperFunction,Profile*%
%ADD10C,0.150000*%
%TD*%
%ADD11C,0.200000*%
%ADD12C,0.320000*%
%ADD13C,0.325000*%
G04 APERTURE END LIST*
D10*
X7900000Y-7067500D02*
X7900494Y-9375000D01*
X21750000Y-13249506D02*
X21750000Y-7067500D01*
X21432500Y-6750000D02*
X8217500Y-6750000D01*
X9474506Y-13567500D02*
X21432500Y-13567006D01*
X9150000Y-9950000D02*
G75*
G03*
X8825494Y-9625000I-331737J-6726D01*
G01*
X8825494Y-9625000D02*
X8150494Y-9625000D01*
X9157006Y-13250000D02*
G75*
G03*
X9474506Y-13567500I317500J0D01*
G01*
X8217500Y-6750000D02*
G75*
G03*
X7900000Y-7067500I0J-317500D01*
G01*
X9157006Y-13250000D02*
X9150000Y-9950000D01*
X21432500Y-13567006D02*
G75*
G03*
X21750000Y-13249506I0J317500D01*
G01*
X21750000Y-7067500D02*
G75*
G03*
X21432500Y-6750000I-317500J0D01*
G01*
X7900494Y-9375000D02*
G75*
G03*
X8150494Y-9625000I250000J0D01*
G01*
D11*
D12*
X8095000Y-7079000D02*
X8415000Y-7399000D01*
X8415000Y-7079000D02*
X8095000Y-7399000D01*
X8095000Y-8095000D02*
X8415000Y-8415000D01*
X8415000Y-8095000D02*
X8095000Y-8415000D01*
X15715000Y-7079000D02*
X16035000Y-7399000D01*
X16035000Y-7079000D02*
X15715000Y-7399000D01*
X15715000Y-8095000D02*
X16035000Y-8415000D01*
X16035000Y-8095000D02*
X15715000Y-8415000D01*
X16731000Y-7079000D02*
X17051000Y-7399000D01*
X17051000Y-7079000D02*
X16731000Y-7399000D01*
X16731000Y-8095000D02*
X17051000Y-8415000D01*
X17051000Y-8095000D02*
X16731000Y-8415000D01*
X21049000Y-7079000D02*
X21369000Y-7399000D01*
X21369000Y-7079000D02*
X21049000Y-7399000D01*
X21049000Y-8095000D02*
X21369000Y-8415000D01*
X21369000Y-8095000D02*
X21049000Y-8415000D01*
X21190000Y-13015000D02*
X21510000Y-13335000D01*
X21510000Y-13015000D02*
X21190000Y-13335000D01*
D13*
X12616500Y-9764600D02*
G75*
G03*
X12616500Y-9764600I-162500J0D01*
G01*
X12616500Y-11034600D02*
G75*
G03*
X12616500Y-11034600I-162500J0D01*
G01*
D11*
X8150119Y-13885476D02*
X8150119Y-13685476D01*
X8197738Y-13685476D01*
X8226309Y-13695000D01*
X8245357Y-13714048D01*
X8254881Y-13733095D01*
X8264405Y-13771190D01*
X8264405Y-13799762D01*
X8254881Y-13837857D01*
X8245357Y-13856905D01*
X8226309Y-13875952D01*
X8197738Y-13885476D01*
X8150119Y-13885476D01*
X8350119Y-13885476D02*
X8350119Y-13752143D01*
X8350119Y-13790238D02*
X8359643Y-13771190D01*
X8369167Y-13761667D01*
X8388214Y-13752143D01*
X8407262Y-13752143D01*
X8473929Y-13885476D02*
X8473929Y-13752143D01*
X8473929Y-13685476D02*
X8464405Y-13695000D01*
X8473929Y-13704524D01*
X8483452Y-13695000D01*
X8473929Y-13685476D01*
X8473929Y-13704524D01*
X8597738Y-13885476D02*
X8578690Y-13875952D01*
X8569167Y-13856905D01*
X8569167Y-13685476D01*
X8702500Y-13885476D02*
X8683452Y-13875952D01*
X8673929Y-13856905D01*
X8673929Y-13685476D01*
X8931071Y-13885476D02*
X8931071Y-13685476D01*
X8997738Y-13828333D01*
X9064405Y-13685476D01*
X9064405Y-13885476D01*
X9245357Y-13885476D02*
X9245357Y-13780714D01*
X9235833Y-13761667D01*
X9216786Y-13752143D01*
X9178690Y-13752143D01*
X9159643Y-13761667D01*
X9245357Y-13875952D02*
X9226310Y-13885476D01*
X9178690Y-13885476D01*
X9159643Y-13875952D01*
X9150119Y-13856905D01*
X9150119Y-13837857D01*
X9159643Y-13818809D01*
X9178690Y-13809286D01*
X9226310Y-13809286D01*
X9245357Y-13799762D01*
X9340595Y-13752143D02*
X9340595Y-13952143D01*
X9340595Y-13761667D02*
X9359643Y-13752143D01*
X9397738Y-13752143D01*
X9416786Y-13761667D01*
X9426310Y-13771190D01*
X9435833Y-13790238D01*
X9435833Y-13847381D01*
X9426310Y-13866428D01*
X9416786Y-13875952D01*
X9397738Y-13885476D01*
X9359643Y-13885476D01*
X9340595Y-13875952D01*
X9521548Y-13866428D02*
X9531071Y-13875952D01*
X9521548Y-13885476D01*
X9512024Y-13875952D01*
X9521548Y-13866428D01*
X9521548Y-13885476D01*
X9521548Y-13761667D02*
X9531071Y-13771190D01*
X9521548Y-13780714D01*
X9512024Y-13771190D01*
X9521548Y-13761667D01*
X9521548Y-13780714D01*
X7692500Y-14115000D02*
X7892500Y-14315000D01*
X7892500Y-14115000D02*
X7692500Y-14315000D01*
X8131071Y-14105476D02*
X8254881Y-14105476D01*
X8188214Y-14181667D01*
X8216786Y-14181667D01*
X8235833Y-14191190D01*
X8245357Y-14200714D01*
X8254881Y-14219762D01*
X8254881Y-14267381D01*
X8245357Y-14286428D01*
X8235833Y-14295952D01*
X8216786Y-14305476D01*
X8159643Y-14305476D01*
X8140595Y-14295952D01*
X8131071Y-14286428D01*
X8340595Y-14286428D02*
X8350119Y-14295952D01*
X8340595Y-14305476D01*
X8331071Y-14295952D01*
X8340595Y-14286428D01*
X8340595Y-14305476D01*
X8426310Y-14124524D02*
X8435833Y-14115000D01*
X8454881Y-14105476D01*
X8502500Y-14105476D01*
X8521548Y-14115000D01*
X8531071Y-14124524D01*
X8540595Y-14143571D01*
X8540595Y-14162619D01*
X8531071Y-14191190D01*
X8416786Y-14305476D01*
X8540595Y-14305476D01*
X8664405Y-14105476D02*
X8683452Y-14105476D01*
X8702500Y-14115000D01*
X8712024Y-14124524D01*
X8721548Y-14143571D01*
X8731071Y-14181667D01*
X8731071Y-14229286D01*
X8721548Y-14267381D01*
X8712024Y-14286428D01*
X8702500Y-14295952D01*
X8683452Y-14305476D01*
X8664405Y-14305476D01*
X8645357Y-14295952D01*
X8635833Y-14286428D01*
X8626310Y-14267381D01*
X8616786Y-14229286D01*
X8616786Y-14181667D01*
X8626310Y-14143571D01*
X8635833Y-14124524D01*
X8645357Y-14115000D01*
X8664405Y-14105476D01*
X8854881Y-14105476D02*
X8873929Y-14105476D01*
X8892976Y-14115000D01*
X8902500Y-14124524D01*
X8912024Y-14143571D01*
X8921548Y-14181667D01*
X8921548Y-14229286D01*
X8912024Y-14267381D01*
X8902500Y-14286428D01*
X8892976Y-14295952D01*
X8873929Y-14305476D01*
X8854881Y-14305476D01*
X8835833Y-14295952D01*
X8826310Y-14286428D01*
X8816786Y-14267381D01*
X8807262Y-14229286D01*
X8807262Y-14181667D01*
X8816786Y-14143571D01*
X8826310Y-14124524D01*
X8835833Y-14115000D01*
X8854881Y-14105476D01*
X9007262Y-14305476D02*
X9007262Y-14172143D01*
X9007262Y-14191190D02*
X9016786Y-14181667D01*
X9035833Y-14172143D01*
X9064405Y-14172143D01*
X9083452Y-14181667D01*
X9092976Y-14200714D01*
X9092976Y-14305476D01*
X9092976Y-14200714D02*
X9102500Y-14181667D01*
X9121548Y-14172143D01*
X9150119Y-14172143D01*
X9169167Y-14181667D01*
X9178690Y-14200714D01*
X9178690Y-14305476D01*
X9273929Y-14305476D02*
X9273929Y-14172143D01*
X9273929Y-14191190D02*
X9283452Y-14181667D01*
X9302500Y-14172143D01*
X9331071Y-14172143D01*
X9350119Y-14181667D01*
X9359643Y-14200714D01*
X9359643Y-14305476D01*
X9359643Y-14200714D02*
X9369167Y-14181667D01*
X9388214Y-14172143D01*
X9416786Y-14172143D01*
X9435833Y-14181667D01*
X9445357Y-14200714D01*
X9445357Y-14305476D01*
X9835833Y-14095952D02*
X9664405Y-14353095D01*
X10092976Y-14105476D02*
X10112024Y-14105476D01*
X10131071Y-14115000D01*
X10140595Y-14124524D01*
X10150119Y-14143571D01*
X10159643Y-14181667D01*
X10159643Y-14229286D01*
X10150119Y-14267381D01*
X10140595Y-14286428D01*
X10131071Y-14295952D01*
X10112024Y-14305476D01*
X10092976Y-14305476D01*
X10073929Y-14295952D01*
X10064405Y-14286428D01*
X10054881Y-14267381D01*
X10045357Y-14229286D01*
X10045357Y-14181667D01*
X10054881Y-14143571D01*
X10064405Y-14124524D01*
X10073929Y-14115000D01*
X10092976Y-14105476D01*
X10245357Y-14286428D02*
X10254881Y-14295952D01*
X10245357Y-14305476D01*
X10235833Y-14295952D01*
X10245357Y-14286428D01*
X10245357Y-14305476D01*
X10445357Y-14305476D02*
X10331071Y-14305476D01*
X10388214Y-14305476D02*
X10388214Y-14105476D01*
X10369167Y-14134048D01*
X10350119Y-14153095D01*
X10331071Y-14162619D01*
X10521548Y-14124524D02*
X10531071Y-14115000D01*
X10550119Y-14105476D01*
X10597738Y-14105476D01*
X10616786Y-14115000D01*
X10626310Y-14124524D01*
X10635833Y-14143571D01*
X10635833Y-14162619D01*
X10626310Y-14191190D01*
X10512024Y-14305476D01*
X10635833Y-14305476D01*
X10807262Y-14105476D02*
X10769167Y-14105476D01*
X10750119Y-14115000D01*
X10740595Y-14124524D01*
X10721548Y-14153095D01*
X10712024Y-14191190D01*
X10712024Y-14267381D01*
X10721548Y-14286428D01*
X10731071Y-14295952D01*
X10750119Y-14305476D01*
X10788214Y-14305476D01*
X10807262Y-14295952D01*
X10816786Y-14286428D01*
X10826310Y-14267381D01*
X10826310Y-14219762D01*
X10816786Y-14200714D01*
X10807262Y-14191190D01*
X10788214Y-14181667D01*
X10750119Y-14181667D01*
X10731071Y-14191190D01*
X10721548Y-14200714D01*
X10712024Y-14219762D01*
X10950119Y-14105476D02*
X10969167Y-14105476D01*
X10988214Y-14115000D01*
X10997738Y-14124524D01*
X11007262Y-14143571D01*
X11016786Y-14181667D01*
X11016786Y-14229286D01*
X11007262Y-14267381D01*
X10997738Y-14286428D01*
X10988214Y-14295952D01*
X10969167Y-14305476D01*
X10950119Y-14305476D01*
X10931071Y-14295952D01*
X10921548Y-14286428D01*
X10912024Y-14267381D01*
X10902500Y-14229286D01*
X10902500Y-14181667D01*
X10912024Y-14143571D01*
X10921548Y-14124524D01*
X10931071Y-14115000D01*
X10950119Y-14105476D01*
X11092976Y-14105476D02*
X11092976Y-14143571D01*
X11169167Y-14105476D02*
X11169167Y-14143571D01*
X11464405Y-14381667D02*
X11454881Y-14372143D01*
X11435833Y-14343571D01*
X11426309Y-14324524D01*
X11416786Y-14295952D01*
X11407262Y-14248333D01*
X11407262Y-14210238D01*
X11416786Y-14162619D01*
X11426309Y-14134048D01*
X11435833Y-14115000D01*
X11454881Y-14086428D01*
X11464405Y-14076905D01*
X11550119Y-14305476D02*
X11588214Y-14305476D01*
X11607262Y-14295952D01*
X11616786Y-14286428D01*
X11635833Y-14257857D01*
X11645357Y-14219762D01*
X11645357Y-14143571D01*
X11635833Y-14124524D01*
X11626309Y-14115000D01*
X11607262Y-14105476D01*
X11569167Y-14105476D01*
X11550119Y-14115000D01*
X11540595Y-14124524D01*
X11531071Y-14143571D01*
X11531071Y-14191190D01*
X11540595Y-14210238D01*
X11550119Y-14219762D01*
X11569167Y-14229286D01*
X11607262Y-14229286D01*
X11626309Y-14219762D01*
X11635833Y-14210238D01*
X11645357Y-14191190D01*
X11883452Y-14305476D02*
X11883452Y-14105476D01*
X11969167Y-14305476D02*
X11969167Y-14200714D01*
X11959643Y-14181667D01*
X11940595Y-14172143D01*
X11912024Y-14172143D01*
X11892976Y-14181667D01*
X11883452Y-14191190D01*
X12092976Y-14305476D02*
X12073928Y-14295952D01*
X12064405Y-14286428D01*
X12054881Y-14267381D01*
X12054881Y-14210238D01*
X12064405Y-14191190D01*
X12073928Y-14181667D01*
X12092976Y-14172143D01*
X12121548Y-14172143D01*
X12140595Y-14181667D01*
X12150119Y-14191190D01*
X12159643Y-14210238D01*
X12159643Y-14267381D01*
X12150119Y-14286428D01*
X12140595Y-14295952D01*
X12121548Y-14305476D01*
X12092976Y-14305476D01*
X12273928Y-14305476D02*
X12254881Y-14295952D01*
X12245357Y-14276905D01*
X12245357Y-14105476D01*
X12426309Y-14295952D02*
X12407262Y-14305476D01*
X12369167Y-14305476D01*
X12350119Y-14295952D01*
X12340595Y-14276905D01*
X12340595Y-14200714D01*
X12350119Y-14181667D01*
X12369167Y-14172143D01*
X12407262Y-14172143D01*
X12426309Y-14181667D01*
X12435833Y-14200714D01*
X12435833Y-14219762D01*
X12340595Y-14238809D01*
X12512024Y-14295952D02*
X12531071Y-14305476D01*
X12569167Y-14305476D01*
X12588214Y-14295952D01*
X12597738Y-14276905D01*
X12597738Y-14267381D01*
X12588214Y-14248333D01*
X12569167Y-14238809D01*
X12540595Y-14238809D01*
X12521548Y-14229286D01*
X12512024Y-14210238D01*
X12512024Y-14200714D01*
X12521548Y-14181667D01*
X12540595Y-14172143D01*
X12569167Y-14172143D01*
X12588214Y-14181667D01*
X12664405Y-14381667D02*
X12673928Y-14372143D01*
X12692976Y-14343571D01*
X12702500Y-14324524D01*
X12712024Y-14295952D01*
X12721548Y-14248333D01*
X12721548Y-14210238D01*
X12712024Y-14162619D01*
X12702500Y-14134048D01*
X12692976Y-14115000D01*
X12673928Y-14086428D01*
X12664405Y-14076905D01*
X13026309Y-14381667D02*
X13016786Y-14372143D01*
X12997738Y-14343571D01*
X12988214Y-14324524D01*
X12978690Y-14295952D01*
X12969167Y-14248333D01*
X12969167Y-14210238D01*
X12978690Y-14162619D01*
X12988214Y-14134048D01*
X12997738Y-14115000D01*
X13016786Y-14086428D01*
X13026309Y-14076905D01*
X13102500Y-14172143D02*
X13102500Y-14305476D01*
X13102500Y-14191190D02*
X13112024Y-14181667D01*
X13131071Y-14172143D01*
X13159643Y-14172143D01*
X13178690Y-14181667D01*
X13188214Y-14200714D01*
X13188214Y-14305476D01*
X13312024Y-14305476D02*
X13292976Y-14295952D01*
X13283452Y-14286428D01*
X13273928Y-14267381D01*
X13273928Y-14210238D01*
X13283452Y-14191190D01*
X13292976Y-14181667D01*
X13312024Y-14172143D01*
X13340595Y-14172143D01*
X13359643Y-14181667D01*
X13369167Y-14191190D01*
X13378690Y-14210238D01*
X13378690Y-14267381D01*
X13369167Y-14286428D01*
X13359643Y-14295952D01*
X13340595Y-14305476D01*
X13312024Y-14305476D01*
X13435833Y-14172143D02*
X13512024Y-14172143D01*
X13464405Y-14105476D02*
X13464405Y-14276905D01*
X13473928Y-14295952D01*
X13492976Y-14305476D01*
X13512024Y-14305476D01*
X13731071Y-14172143D02*
X13731071Y-14372143D01*
X13731071Y-14181667D02*
X13750119Y-14172143D01*
X13788214Y-14172143D01*
X13807262Y-14181667D01*
X13816786Y-14191190D01*
X13826309Y-14210238D01*
X13826309Y-14267381D01*
X13816786Y-14286428D01*
X13807262Y-14295952D01*
X13788214Y-14305476D01*
X13750119Y-14305476D01*
X13731071Y-14295952D01*
X13940595Y-14305476D02*
X13921548Y-14295952D01*
X13912024Y-14276905D01*
X13912024Y-14105476D01*
X14102500Y-14305476D02*
X14102500Y-14200714D01*
X14092976Y-14181667D01*
X14073928Y-14172143D01*
X14035833Y-14172143D01*
X14016786Y-14181667D01*
X14102500Y-14295952D02*
X14083452Y-14305476D01*
X14035833Y-14305476D01*
X14016786Y-14295952D01*
X14007262Y-14276905D01*
X14007262Y-14257857D01*
X14016786Y-14238809D01*
X14035833Y-14229286D01*
X14083452Y-14229286D01*
X14102500Y-14219762D01*
X14169167Y-14172143D02*
X14245357Y-14172143D01*
X14197738Y-14105476D02*
X14197738Y-14276905D01*
X14207262Y-14295952D01*
X14226309Y-14305476D01*
X14245357Y-14305476D01*
X14388214Y-14295952D02*
X14369167Y-14305476D01*
X14331071Y-14305476D01*
X14312024Y-14295952D01*
X14302500Y-14276905D01*
X14302500Y-14200714D01*
X14312024Y-14181667D01*
X14331071Y-14172143D01*
X14369167Y-14172143D01*
X14388214Y-14181667D01*
X14397738Y-14200714D01*
X14397738Y-14219762D01*
X14302500Y-14238809D01*
X14569167Y-14305476D02*
X14569167Y-14105476D01*
X14569167Y-14295952D02*
X14550119Y-14305476D01*
X14512024Y-14305476D01*
X14492976Y-14295952D01*
X14483452Y-14286428D01*
X14473928Y-14267381D01*
X14473928Y-14210238D01*
X14483452Y-14191190D01*
X14492976Y-14181667D01*
X14512024Y-14172143D01*
X14550119Y-14172143D01*
X14569167Y-14181667D01*
X14645357Y-14381667D02*
X14654881Y-14372143D01*
X14673928Y-14343571D01*
X14683452Y-14324524D01*
X14692976Y-14295952D01*
X14702500Y-14248333D01*
X14702500Y-14210238D01*
X14692976Y-14162619D01*
X14683452Y-14134048D01*
X14673928Y-14115000D01*
X14654881Y-14086428D01*
X14645357Y-14076905D01*
X7892500Y-14535000D02*
G75*
G03*
X7892500Y-14535000I-100000J0D01*
G01*
X8131071Y-14425476D02*
X8254881Y-14425476D01*
X8188214Y-14501667D01*
X8216786Y-14501667D01*
X8235833Y-14511190D01*
X8245357Y-14520714D01*
X8254881Y-14539762D01*
X8254881Y-14587381D01*
X8245357Y-14606428D01*
X8235833Y-14615952D01*
X8216786Y-14625476D01*
X8159643Y-14625476D01*
X8140595Y-14615952D01*
X8131071Y-14606428D01*
X8340595Y-14606428D02*
X8350119Y-14615952D01*
X8340595Y-14625476D01*
X8331071Y-14615952D01*
X8340595Y-14606428D01*
X8340595Y-14625476D01*
X8426310Y-14444524D02*
X8435833Y-14435000D01*
X8454881Y-14425476D01*
X8502500Y-14425476D01*
X8521548Y-14435000D01*
X8531071Y-14444524D01*
X8540595Y-14463571D01*
X8540595Y-14482619D01*
X8531071Y-14511190D01*
X8416786Y-14625476D01*
X8540595Y-14625476D01*
X8721548Y-14425476D02*
X8626310Y-14425476D01*
X8616786Y-14520714D01*
X8626310Y-14511190D01*
X8645357Y-14501667D01*
X8692976Y-14501667D01*
X8712024Y-14511190D01*
X8721548Y-14520714D01*
X8731071Y-14539762D01*
X8731071Y-14587381D01*
X8721548Y-14606428D01*
X8712024Y-14615952D01*
X8692976Y-14625476D01*
X8645357Y-14625476D01*
X8626310Y-14615952D01*
X8616786Y-14606428D01*
X8854881Y-14425476D02*
X8873929Y-14425476D01*
X8892976Y-14435000D01*
X8902500Y-14444524D01*
X8912024Y-14463571D01*
X8921548Y-14501667D01*
X8921548Y-14549286D01*
X8912024Y-14587381D01*
X8902500Y-14606428D01*
X8892976Y-14615952D01*
X8873929Y-14625476D01*
X8854881Y-14625476D01*
X8835833Y-14615952D01*
X8826310Y-14606428D01*
X8816786Y-14587381D01*
X8807262Y-14549286D01*
X8807262Y-14501667D01*
X8816786Y-14463571D01*
X8826310Y-14444524D01*
X8835833Y-14435000D01*
X8854881Y-14425476D01*
X9007262Y-14625476D02*
X9007262Y-14492143D01*
X9007262Y-14511190D02*
X9016786Y-14501667D01*
X9035833Y-14492143D01*
X9064405Y-14492143D01*
X9083452Y-14501667D01*
X9092976Y-14520714D01*
X9092976Y-14625476D01*
X9092976Y-14520714D02*
X9102500Y-14501667D01*
X9121548Y-14492143D01*
X9150119Y-14492143D01*
X9169167Y-14501667D01*
X9178690Y-14520714D01*
X9178690Y-14625476D01*
X9273929Y-14625476D02*
X9273929Y-14492143D01*
X9273929Y-14511190D02*
X9283452Y-14501667D01*
X9302500Y-14492143D01*
X9331071Y-14492143D01*
X9350119Y-14501667D01*
X9359643Y-14520714D01*
X9359643Y-14625476D01*
X9359643Y-14520714D02*
X9369167Y-14501667D01*
X9388214Y-14492143D01*
X9416786Y-14492143D01*
X9435833Y-14501667D01*
X9445357Y-14520714D01*
X9445357Y-14625476D01*
X9835833Y-14415952D02*
X9664405Y-14673095D01*
X10092976Y-14425476D02*
X10112024Y-14425476D01*
X10131071Y-14435000D01*
X10140595Y-14444524D01*
X10150119Y-14463571D01*
X10159643Y-14501667D01*
X10159643Y-14549286D01*
X10150119Y-14587381D01*
X10140595Y-14606428D01*
X10131071Y-14615952D01*
X10112024Y-14625476D01*
X10092976Y-14625476D01*
X10073929Y-14615952D01*
X10064405Y-14606428D01*
X10054881Y-14587381D01*
X10045357Y-14549286D01*
X10045357Y-14501667D01*
X10054881Y-14463571D01*
X10064405Y-14444524D01*
X10073929Y-14435000D01*
X10092976Y-14425476D01*
X10245357Y-14606428D02*
X10254881Y-14615952D01*
X10245357Y-14625476D01*
X10235833Y-14615952D01*
X10245357Y-14606428D01*
X10245357Y-14625476D01*
X10445357Y-14625476D02*
X10331071Y-14625476D01*
X10388214Y-14625476D02*
X10388214Y-14425476D01*
X10369167Y-14454048D01*
X10350119Y-14473095D01*
X10331071Y-14482619D01*
X10521548Y-14444524D02*
X10531071Y-14435000D01*
X10550119Y-14425476D01*
X10597738Y-14425476D01*
X10616786Y-14435000D01*
X10626310Y-14444524D01*
X10635833Y-14463571D01*
X10635833Y-14482619D01*
X10626310Y-14511190D01*
X10512024Y-14625476D01*
X10635833Y-14625476D01*
X10750119Y-14511190D02*
X10731071Y-14501667D01*
X10721548Y-14492143D01*
X10712024Y-14473095D01*
X10712024Y-14463571D01*
X10721548Y-14444524D01*
X10731071Y-14435000D01*
X10750119Y-14425476D01*
X10788214Y-14425476D01*
X10807262Y-14435000D01*
X10816786Y-14444524D01*
X10826310Y-14463571D01*
X10826310Y-14473095D01*
X10816786Y-14492143D01*
X10807262Y-14501667D01*
X10788214Y-14511190D01*
X10750119Y-14511190D01*
X10731071Y-14520714D01*
X10721548Y-14530238D01*
X10712024Y-14549286D01*
X10712024Y-14587381D01*
X10721548Y-14606428D01*
X10731071Y-14615952D01*
X10750119Y-14625476D01*
X10788214Y-14625476D01*
X10807262Y-14615952D01*
X10816786Y-14606428D01*
X10826310Y-14587381D01*
X10826310Y-14549286D01*
X10816786Y-14530238D01*
X10807262Y-14520714D01*
X10788214Y-14511190D01*
X10950119Y-14425476D02*
X10969167Y-14425476D01*
X10988214Y-14435000D01*
X10997738Y-14444524D01*
X11007262Y-14463571D01*
X11016786Y-14501667D01*
X11016786Y-14549286D01*
X11007262Y-14587381D01*
X10997738Y-14606428D01*
X10988214Y-14615952D01*
X10969167Y-14625476D01*
X10950119Y-14625476D01*
X10931071Y-14615952D01*
X10921548Y-14606428D01*
X10912024Y-14587381D01*
X10902500Y-14549286D01*
X10902500Y-14501667D01*
X10912024Y-14463571D01*
X10921548Y-14444524D01*
X10931071Y-14435000D01*
X10950119Y-14425476D01*
X11092976Y-14425476D02*
X11092976Y-14463571D01*
X11169167Y-14425476D02*
X11169167Y-14463571D01*
X11464405Y-14701667D02*
X11454881Y-14692143D01*
X11435833Y-14663571D01*
X11426309Y-14644524D01*
X11416786Y-14615952D01*
X11407262Y-14568333D01*
X11407262Y-14530238D01*
X11416786Y-14482619D01*
X11426309Y-14454048D01*
X11435833Y-14435000D01*
X11454881Y-14406428D01*
X11464405Y-14396905D01*
X11531071Y-14444524D02*
X11540595Y-14435000D01*
X11559643Y-14425476D01*
X11607262Y-14425476D01*
X11626309Y-14435000D01*
X11635833Y-14444524D01*
X11645357Y-14463571D01*
X11645357Y-14482619D01*
X11635833Y-14511190D01*
X11521548Y-14625476D01*
X11645357Y-14625476D01*
X11883452Y-14625476D02*
X11883452Y-14425476D01*
X11969167Y-14625476D02*
X11969167Y-14520714D01*
X11959643Y-14501667D01*
X11940595Y-14492143D01*
X11912024Y-14492143D01*
X11892976Y-14501667D01*
X11883452Y-14511190D01*
X12092976Y-14625476D02*
X12073928Y-14615952D01*
X12064405Y-14606428D01*
X12054881Y-14587381D01*
X12054881Y-14530238D01*
X12064405Y-14511190D01*
X12073928Y-14501667D01*
X12092976Y-14492143D01*
X12121548Y-14492143D01*
X12140595Y-14501667D01*
X12150119Y-14511190D01*
X12159643Y-14530238D01*
X12159643Y-14587381D01*
X12150119Y-14606428D01*
X12140595Y-14615952D01*
X12121548Y-14625476D01*
X12092976Y-14625476D01*
X12273928Y-14625476D02*
X12254881Y-14615952D01*
X12245357Y-14596905D01*
X12245357Y-14425476D01*
X12426309Y-14615952D02*
X12407262Y-14625476D01*
X12369167Y-14625476D01*
X12350119Y-14615952D01*
X12340595Y-14596905D01*
X12340595Y-14520714D01*
X12350119Y-14501667D01*
X12369167Y-14492143D01*
X12407262Y-14492143D01*
X12426309Y-14501667D01*
X12435833Y-14520714D01*
X12435833Y-14539762D01*
X12340595Y-14558809D01*
X12512024Y-14615952D02*
X12531071Y-14625476D01*
X12569167Y-14625476D01*
X12588214Y-14615952D01*
X12597738Y-14596905D01*
X12597738Y-14587381D01*
X12588214Y-14568333D01*
X12569167Y-14558809D01*
X12540595Y-14558809D01*
X12521548Y-14549286D01*
X12512024Y-14530238D01*
X12512024Y-14520714D01*
X12521548Y-14501667D01*
X12540595Y-14492143D01*
X12569167Y-14492143D01*
X12588214Y-14501667D01*
X12664405Y-14701667D02*
X12673928Y-14692143D01*
X12692976Y-14663571D01*
X12702500Y-14644524D01*
X12712024Y-14615952D01*
X12721548Y-14568333D01*
X12721548Y-14530238D01*
X12712024Y-14482619D01*
X12702500Y-14454048D01*
X12692976Y-14435000D01*
X12673928Y-14406428D01*
X12664405Y-14396905D01*
X13026309Y-14701667D02*
X13016786Y-14692143D01*
X12997738Y-14663571D01*
X12988214Y-14644524D01*
X12978690Y-14615952D01*
X12969167Y-14568333D01*
X12969167Y-14530238D01*
X12978690Y-14482619D01*
X12988214Y-14454048D01*
X12997738Y-14435000D01*
X13016786Y-14406428D01*
X13026309Y-14396905D01*
X13102500Y-14492143D02*
X13102500Y-14625476D01*
X13102500Y-14511190D02*
X13112024Y-14501667D01*
X13131071Y-14492143D01*
X13159643Y-14492143D01*
X13178690Y-14501667D01*
X13188214Y-14520714D01*
X13188214Y-14625476D01*
X13312024Y-14625476D02*
X13292976Y-14615952D01*
X13283452Y-14606428D01*
X13273928Y-14587381D01*
X13273928Y-14530238D01*
X13283452Y-14511190D01*
X13292976Y-14501667D01*
X13312024Y-14492143D01*
X13340595Y-14492143D01*
X13359643Y-14501667D01*
X13369167Y-14511190D01*
X13378690Y-14530238D01*
X13378690Y-14587381D01*
X13369167Y-14606428D01*
X13359643Y-14615952D01*
X13340595Y-14625476D01*
X13312024Y-14625476D01*
X13435833Y-14492143D02*
X13512024Y-14492143D01*
X13464405Y-14425476D02*
X13464405Y-14596905D01*
X13473928Y-14615952D01*
X13492976Y-14625476D01*
X13512024Y-14625476D01*
X13731071Y-14492143D02*
X13731071Y-14692143D01*
X13731071Y-14501667D02*
X13750119Y-14492143D01*
X13788214Y-14492143D01*
X13807262Y-14501667D01*
X13816786Y-14511190D01*
X13826309Y-14530238D01*
X13826309Y-14587381D01*
X13816786Y-14606428D01*
X13807262Y-14615952D01*
X13788214Y-14625476D01*
X13750119Y-14625476D01*
X13731071Y-14615952D01*
X13940595Y-14625476D02*
X13921548Y-14615952D01*
X13912024Y-14596905D01*
X13912024Y-14425476D01*
X14102500Y-14625476D02*
X14102500Y-14520714D01*
X14092976Y-14501667D01*
X14073928Y-14492143D01*
X14035833Y-14492143D01*
X14016786Y-14501667D01*
X14102500Y-14615952D02*
X14083452Y-14625476D01*
X14035833Y-14625476D01*
X14016786Y-14615952D01*
X14007262Y-14596905D01*
X14007262Y-14577857D01*
X14016786Y-14558809D01*
X14035833Y-14549286D01*
X14083452Y-14549286D01*
X14102500Y-14539762D01*
X14169167Y-14492143D02*
X14245357Y-14492143D01*
X14197738Y-14425476D02*
X14197738Y-14596905D01*
X14207262Y-14615952D01*
X14226309Y-14625476D01*
X14245357Y-14625476D01*
X14388214Y-14615952D02*
X14369167Y-14625476D01*
X14331071Y-14625476D01*
X14312024Y-14615952D01*
X14302500Y-14596905D01*
X14302500Y-14520714D01*
X14312024Y-14501667D01*
X14331071Y-14492143D01*
X14369167Y-14492143D01*
X14388214Y-14501667D01*
X14397738Y-14520714D01*
X14397738Y-14539762D01*
X14302500Y-14558809D01*
X14569167Y-14625476D02*
X14569167Y-14425476D01*
X14569167Y-14615952D02*
X14550119Y-14625476D01*
X14512024Y-14625476D01*
X14492976Y-14615952D01*
X14483452Y-14606428D01*
X14473928Y-14587381D01*
X14473928Y-14530238D01*
X14483452Y-14511190D01*
X14492976Y-14501667D01*
X14512024Y-14492143D01*
X14550119Y-14492143D01*
X14569167Y-14501667D01*
X14645357Y-14701667D02*
X14654881Y-14692143D01*
X14673928Y-14663571D01*
X14683452Y-14644524D01*
X14692976Y-14615952D01*
X14702500Y-14568333D01*
X14702500Y-14530238D01*
X14692976Y-14482619D01*
X14683452Y-14454048D01*
X14673928Y-14435000D01*
X14654881Y-14406428D01*
X14645357Y-14396905D01*
M02*
