%TF.GenerationSoftware,KiCad,Pcbnew,6.0.0-rc2*%
%TF.CreationDate,2022-01-03T19:22:05-08:00*%
%TF.ProjectId,acorn-power-electronics,61636f72-6e2d-4706-9f77-65722d656c65,rev?*%
%TF.SameCoordinates,Original*%
%TF.FileFunction,Copper,L1,Top*%
%TF.FilePolarity,Positive*%
%FSLAX46Y46*%
G04 Gerber Fmt 4.6, Leading zero omitted, Abs format (unit mm)*
G04 Created by KiCad (PCBNEW 6.0.0-rc2) date 2022-01-03 19:22:05*
%MOMM*%
%LPD*%
G01*
G04 APERTURE LIST*
G04 Aperture macros list*
%AMRoundRect*
0 Rectangle with rounded corners*
0 $1 Rounding radius*
0 $2 $3 $4 $5 $6 $7 $8 $9 X,Y pos of 4 corners*
0 Add a 4 corners polygon primitive as box body*
4,1,4,$2,$3,$4,$5,$6,$7,$8,$9,$2,$3,0*
0 Add four circle primitives for the rounded corners*
1,1,$1+$1,$2,$3*
1,1,$1+$1,$4,$5*
1,1,$1+$1,$6,$7*
1,1,$1+$1,$8,$9*
0 Add four rect primitives between the rounded corners*
20,1,$1+$1,$2,$3,$4,$5,0*
20,1,$1+$1,$4,$5,$6,$7,0*
20,1,$1+$1,$6,$7,$8,$9,0*
20,1,$1+$1,$8,$9,$2,$3,0*%
G04 Aperture macros list end*
%TA.AperFunction,ComponentPad*%
%ADD10C,8.000000*%
%TD*%
%TA.AperFunction,ComponentPad*%
%ADD11R,1.700000X1.700000*%
%TD*%
%TA.AperFunction,ComponentPad*%
%ADD12O,1.700000X1.700000*%
%TD*%
%TA.AperFunction,SMDPad,CuDef*%
%ADD13RoundRect,0.243750X-0.456250X0.243750X-0.456250X-0.243750X0.456250X-0.243750X0.456250X0.243750X0*%
%TD*%
%TA.AperFunction,SMDPad,CuDef*%
%ADD14RoundRect,0.243750X0.243750X0.456250X-0.243750X0.456250X-0.243750X-0.456250X0.243750X-0.456250X0*%
%TD*%
%TA.AperFunction,SMDPad,CuDef*%
%ADD15RoundRect,0.243750X-0.243750X-0.456250X0.243750X-0.456250X0.243750X0.456250X-0.243750X0.456250X0*%
%TD*%
%TA.AperFunction,SMDPad,CuDef*%
%ADD16RoundRect,0.150000X-0.825000X-0.150000X0.825000X-0.150000X0.825000X0.150000X-0.825000X0.150000X0*%
%TD*%
%TA.AperFunction,SMDPad,CuDef*%
%ADD17R,1.100000X0.250000*%
%TD*%
%TA.AperFunction,SMDPad,CuDef*%
%ADD18R,1.100000X4.600000*%
%TD*%
%TA.AperFunction,SMDPad,CuDef*%
%ADD19R,10.800000X9.400000*%
%TD*%
%TA.AperFunction,ComponentPad*%
%ADD20RoundRect,0.250000X0.620000X0.845000X-0.620000X0.845000X-0.620000X-0.845000X0.620000X-0.845000X0*%
%TD*%
%TA.AperFunction,ComponentPad*%
%ADD21O,1.740000X2.190000*%
%TD*%
%TA.AperFunction,SMDPad,CuDef*%
%ADD22RoundRect,0.250000X0.262500X0.450000X-0.262500X0.450000X-0.262500X-0.450000X0.262500X-0.450000X0*%
%TD*%
%TA.AperFunction,SMDPad,CuDef*%
%ADD23RoundRect,0.150000X-0.662500X-0.150000X0.662500X-0.150000X0.662500X0.150000X-0.662500X0.150000X0*%
%TD*%
%TA.AperFunction,SMDPad,CuDef*%
%ADD24RoundRect,0.150000X0.662500X0.150000X-0.662500X0.150000X-0.662500X-0.150000X0.662500X-0.150000X0*%
%TD*%
%TA.AperFunction,SMDPad,CuDef*%
%ADD25R,1.000000X2.100000*%
%TD*%
%TA.AperFunction,SMDPad,CuDef*%
%ADD26RoundRect,0.250000X0.450000X-0.262500X0.450000X0.262500X-0.450000X0.262500X-0.450000X-0.262500X0*%
%TD*%
%TA.AperFunction,ComponentPad*%
%ADD27C,5.000000*%
%TD*%
%TA.AperFunction,SMDPad,CuDef*%
%ADD28R,0.800000X0.900000*%
%TD*%
%TA.AperFunction,SMDPad,CuDef*%
%ADD29RoundRect,0.250000X-0.262500X-0.450000X0.262500X-0.450000X0.262500X0.450000X-0.262500X0.450000X0*%
%TD*%
%TA.AperFunction,SMDPad,CuDef*%
%ADD30R,0.900000X0.800000*%
%TD*%
%TA.AperFunction,SMDPad,CuDef*%
%ADD31RoundRect,0.250000X-0.450000X0.262500X-0.450000X-0.262500X0.450000X-0.262500X0.450000X0.262500X0*%
%TD*%
%TA.AperFunction,ViaPad*%
%ADD32C,0.600000*%
%TD*%
%TA.AperFunction,Conductor*%
%ADD33C,0.250000*%
%TD*%
%TA.AperFunction,Conductor*%
%ADD34C,0.800000*%
%TD*%
%TA.AperFunction,Conductor*%
%ADD35C,1.000000*%
%TD*%
%TA.AperFunction,Conductor*%
%ADD36C,2.500000*%
%TD*%
G04 APERTURE END LIST*
D10*
X70224000Y-129540000D03*
X85224000Y-129540000D03*
D11*
X128000000Y-126125000D03*
D12*
X128000000Y-128665000D03*
X125460000Y-126125000D03*
X125460000Y-128665000D03*
X122920000Y-126125000D03*
X122920000Y-128665000D03*
X120380000Y-126125000D03*
X120380000Y-128665000D03*
X117840000Y-126125000D03*
X117840000Y-128665000D03*
X115300000Y-126125000D03*
X115300000Y-128665000D03*
X112760000Y-126125000D03*
X112760000Y-128665000D03*
X110220000Y-126125000D03*
X110220000Y-128665000D03*
X107680000Y-126125000D03*
X107680000Y-128665000D03*
X105140000Y-126125000D03*
X105140000Y-128665000D03*
D13*
X100200000Y-97562500D03*
X100200000Y-99437500D03*
D14*
X86437500Y-139000000D03*
X84562500Y-139000000D03*
D15*
X96546500Y-95500000D03*
X98421500Y-95500000D03*
D11*
X101400000Y-136875000D03*
D12*
X101400000Y-134335000D03*
D10*
X70224000Y-118872000D03*
X85224000Y-118872000D03*
D15*
X93921500Y-96000000D03*
X92046500Y-96000000D03*
D10*
X70200000Y-108204000D03*
X85200000Y-108204000D03*
D15*
X84562500Y-141400000D03*
X86437500Y-141400000D03*
D16*
X92225000Y-98281000D03*
X92225000Y-99551000D03*
X92225000Y-100821000D03*
X92225000Y-102091000D03*
X97175000Y-102091000D03*
X97175000Y-100821000D03*
X97175000Y-99551000D03*
X97175000Y-98281000D03*
D10*
X70224000Y-97536000D03*
X85224000Y-97536000D03*
D15*
X89762500Y-142400000D03*
X91637500Y-142400000D03*
X87500000Y-92000000D03*
X89375000Y-92000000D03*
D17*
X88350000Y-138500000D03*
X88350000Y-139000000D03*
X88350000Y-139500000D03*
X88350000Y-140000000D03*
X88350000Y-140500000D03*
X92650000Y-140500000D03*
X92650000Y-140000000D03*
X92650000Y-139500000D03*
X92650000Y-139000000D03*
X92650000Y-138500000D03*
D18*
X112504000Y-107507000D03*
X107424000Y-107507000D03*
D19*
X109964000Y-116657000D03*
D20*
X81000000Y-140520000D03*
D21*
X78460000Y-140520000D03*
X75920000Y-140520000D03*
X73380000Y-140520000D03*
D22*
X105444500Y-95110000D03*
X103619500Y-95110000D03*
D18*
X109740000Y-100563000D03*
X114820000Y-100563000D03*
D19*
X112280000Y-91413000D03*
D18*
X100004000Y-107507000D03*
X94924000Y-107507000D03*
D19*
X97464000Y-116657000D03*
D18*
X125004000Y-107531000D03*
X119924000Y-107531000D03*
D19*
X122464000Y-116681000D03*
D23*
X91812500Y-91865000D03*
X91812500Y-93135000D03*
X98187500Y-93135000D03*
X98187500Y-91865000D03*
D24*
X101187500Y-142135000D03*
X101187500Y-140865000D03*
X94812500Y-140865000D03*
X94812500Y-142135000D03*
D25*
X125410000Y-132620500D03*
X122870000Y-132620500D03*
X117790000Y-132620500D03*
X117790000Y-142720500D03*
X125410000Y-142720500D03*
D26*
X100892000Y-95512500D03*
X100892000Y-93687500D03*
D27*
X81000000Y-89500000D03*
X74000000Y-89500000D03*
D28*
X125768000Y-97536000D03*
X126718000Y-99536000D03*
X127668000Y-97536000D03*
D29*
X95087500Y-138600000D03*
X96912500Y-138600000D03*
D30*
X105002000Y-97028000D03*
X103002000Y-97978000D03*
X105002000Y-98928000D03*
D31*
X113000000Y-138587500D03*
X113000000Y-140412500D03*
X122968000Y-97603500D03*
X122968000Y-99428500D03*
D32*
X88750000Y-142000000D03*
X126250000Y-133000000D03*
X101000000Y-140000000D03*
X89500000Y-139000000D03*
X93000000Y-93000000D03*
X92964000Y-94488000D03*
X120750000Y-133500000D03*
X100457000Y-101854000D03*
X87250000Y-141750000D03*
X101500000Y-97750000D03*
X118750000Y-132500000D03*
X96400000Y-96800000D03*
X96400000Y-97600000D03*
X123698000Y-108204000D03*
X113538000Y-108204000D03*
X101092000Y-108204000D03*
X128524000Y-98552000D03*
X96530000Y-141732000D03*
X86500000Y-91750000D03*
X83900000Y-137200000D03*
X94030000Y-99830000D03*
X102108000Y-95800000D03*
X93000000Y-134500000D03*
X93500000Y-137250000D03*
X91750000Y-135000000D03*
X92250000Y-137500000D03*
X122400000Y-135600000D03*
X121600000Y-136400000D03*
D33*
X100457000Y-101854000D02*
X97412000Y-101854000D01*
X97412000Y-101854000D02*
X97175000Y-102091000D01*
X92964000Y-95082500D02*
X92046500Y-96000000D01*
X121362000Y-134112000D02*
X120750000Y-133500000D01*
D34*
X118362500Y-132112500D02*
X118750000Y-132500000D01*
D33*
X88350000Y-139500000D02*
X89000000Y-139500000D01*
X86437500Y-141400000D02*
X86900000Y-141400000D01*
X86900000Y-141400000D02*
X87250000Y-141750000D01*
D34*
X117512500Y-132112500D02*
X115000000Y-129600000D01*
X117790000Y-132112500D02*
X118362500Y-132112500D01*
D33*
X125410000Y-132160000D02*
X125410000Y-132112500D01*
X89000000Y-138500000D02*
X89500000Y-139000000D01*
X91812500Y-93135000D02*
X92865000Y-93135000D01*
D34*
X115000000Y-128971000D02*
X115306000Y-128665000D01*
D33*
X125410000Y-132112500D02*
X123410500Y-134112000D01*
D34*
X100200000Y-97562500D02*
X101312500Y-97562500D01*
D33*
X88350000Y-138500000D02*
X89000000Y-138500000D01*
X88850000Y-142100000D02*
X88750000Y-142000000D01*
X89000000Y-139500000D02*
X89500000Y-139000000D01*
D34*
X117790000Y-132112500D02*
X117512500Y-132112500D01*
D33*
X92865000Y-93135000D02*
X93000000Y-93000000D01*
X126250000Y-133000000D02*
X125410000Y-132160000D01*
X101187500Y-140187500D02*
X101000000Y-140000000D01*
X101187500Y-140865000D02*
X101187500Y-140187500D01*
D34*
X101312500Y-97562500D02*
X101500000Y-97750000D01*
D33*
X92964000Y-94488000D02*
X92964000Y-95082500D01*
D34*
X115000000Y-129600000D02*
X115000000Y-128971000D01*
D33*
X123410500Y-134112000D02*
X121362000Y-134112000D01*
X89762500Y-142100000D02*
X88850000Y-142100000D01*
X119474511Y-130293511D02*
X117846000Y-128665000D01*
X119474511Y-135469909D02*
X119474511Y-130293511D01*
D35*
X96400000Y-96800000D02*
X96400000Y-97600000D01*
D34*
X96400000Y-95646500D02*
X96400000Y-96800000D01*
D35*
X96400000Y-97600000D02*
X96494000Y-97600000D01*
D33*
X112184900Y-142759520D02*
X119474511Y-135469909D01*
X92297020Y-142759520D02*
X112184900Y-142759520D01*
X91637500Y-139688478D02*
X91637500Y-142100000D01*
X92650000Y-139500000D02*
X91825978Y-139500000D01*
X91637500Y-142100000D02*
X92297020Y-142759520D01*
D35*
X95600000Y-96000000D02*
X96400000Y-96800000D01*
X93921500Y-96000000D02*
X95600000Y-96000000D01*
X96494000Y-97600000D02*
X97175000Y-98281000D01*
D33*
X91825978Y-139500000D02*
X91637500Y-139688478D01*
D34*
X96546500Y-95500000D02*
X96400000Y-95646500D01*
X120386000Y-126125000D02*
X120386000Y-128665000D01*
X120386000Y-128665000D02*
X120386000Y-129628500D01*
X120386000Y-129628500D02*
X122870000Y-132112500D01*
X125466000Y-120666000D02*
X125000000Y-120200000D01*
X125466000Y-128665000D02*
X125466000Y-126125000D01*
X125466000Y-126125000D02*
X125466000Y-120666000D01*
D33*
X113473000Y-108269000D02*
X113538000Y-108204000D01*
X100004000Y-108269000D02*
X101027000Y-108269000D01*
X96530000Y-141732000D02*
X95433228Y-141732000D01*
X95030228Y-142135000D02*
X94812500Y-142135000D01*
X122968000Y-97216000D02*
X122968000Y-97603500D01*
X127668000Y-96316000D02*
X127368000Y-96016000D01*
X112504000Y-108269000D02*
X113473000Y-108269000D01*
X95433228Y-141732000D02*
X95030228Y-142135000D01*
X125004000Y-108293000D02*
X123787000Y-108293000D01*
X127368000Y-96016000D02*
X124168000Y-96016000D01*
X128524000Y-98552000D02*
X128524000Y-98392000D01*
X124168000Y-96016000D02*
X122968000Y-97216000D01*
X123787000Y-108293000D02*
X123698000Y-108204000D01*
X128524000Y-98392000D02*
X127668000Y-97536000D01*
X127668000Y-97536000D02*
X127668000Y-96316000D01*
X101027000Y-108269000D02*
X101092000Y-108204000D01*
X86750000Y-92000000D02*
X86500000Y-91750000D01*
X87500000Y-92000000D02*
X86750000Y-92000000D01*
X101187500Y-142135000D02*
X111277500Y-142135000D01*
X111277500Y-142135000D02*
X113000000Y-140412500D01*
X89375000Y-92000000D02*
X91677500Y-92000000D01*
X91677500Y-92000000D02*
X91812500Y-91865000D01*
X97175000Y-100821000D02*
X98816500Y-100821000D01*
X98816500Y-100821000D02*
X100200000Y-99437500D01*
X98951203Y-95986297D02*
X98951203Y-98188703D01*
X98951203Y-98188703D02*
X100200000Y-99437500D01*
X84562500Y-141400000D02*
X84562500Y-139000000D01*
X84562500Y-137862500D02*
X83900000Y-137200000D01*
X96896000Y-99830000D02*
X97175000Y-99551000D01*
X94030000Y-99830000D02*
X96896000Y-99830000D01*
X84562500Y-139000000D02*
X84562500Y-137862500D01*
D34*
X110231000Y-131200000D02*
X112766000Y-128665000D01*
X95504000Y-135128000D02*
X95250000Y-135128000D01*
X100194000Y-131200000D02*
X110231000Y-131200000D01*
X96266000Y-135128000D02*
X100194000Y-131200000D01*
X94378000Y-136000000D02*
X76684000Y-136000000D01*
D33*
X95087500Y-135544500D02*
X95087500Y-138600000D01*
X95504000Y-135128000D02*
X95087500Y-135544500D01*
D34*
X95504000Y-135128000D02*
X96266000Y-135128000D01*
D33*
X102108000Y-95800000D02*
X101820500Y-95512500D01*
D34*
X76684000Y-136000000D02*
X70224000Y-129540000D01*
D33*
X101820500Y-95512500D02*
X101400000Y-95512500D01*
D34*
X95250000Y-135128000D02*
X94378000Y-136000000D01*
D33*
X106426000Y-96774000D02*
X106426000Y-97790000D01*
X104057000Y-91865000D02*
X104902000Y-92710000D01*
X108204000Y-98044000D02*
X106680000Y-98044000D01*
X105444500Y-93252500D02*
X104902000Y-92710000D01*
X105444500Y-95792500D02*
X106426000Y-96774000D01*
X105288000Y-98928000D02*
X105002000Y-98928000D01*
X105444500Y-95110000D02*
X105444500Y-95792500D01*
X105444500Y-95110000D02*
X105444500Y-93252500D01*
X109740000Y-99580000D02*
X108204000Y-98044000D01*
X98187500Y-91865000D02*
X104057000Y-91865000D01*
X106426000Y-97790000D02*
X105288000Y-98928000D01*
X106680000Y-98044000D02*
X106426000Y-97790000D01*
X109740000Y-100563000D02*
X109740000Y-99580000D01*
X100770000Y-126730000D02*
X93000000Y-134500000D01*
X93750000Y-138750000D02*
X93500000Y-139000000D01*
X93750000Y-137500000D02*
X93750000Y-138750000D01*
X93500000Y-137250000D02*
X93750000Y-137500000D01*
X93500000Y-139000000D02*
X92650000Y-139000000D01*
X104653501Y-127299511D02*
X104083990Y-126730000D01*
X107686000Y-126125000D02*
X106511489Y-127299511D01*
X106511489Y-127299511D02*
X104653501Y-127299511D01*
X104083990Y-126730000D02*
X100770000Y-126730000D01*
X100491821Y-126125000D02*
X92375499Y-134241322D01*
X92375499Y-134374501D02*
X91750000Y-135000000D01*
X105146000Y-126125000D02*
X100491821Y-126125000D01*
X92375499Y-134241322D02*
X92375499Y-134374501D01*
X92250000Y-137500000D02*
X92250000Y-138100000D01*
X92250000Y-138100000D02*
X92650000Y-138500000D01*
X88350000Y-140000000D02*
X87437500Y-140000000D01*
X87437500Y-140000000D02*
X86437500Y-139000000D01*
D34*
X122920000Y-128665000D02*
X122920000Y-126125000D01*
X126020000Y-135600000D02*
X127149511Y-134470489D01*
X122400000Y-135600000D02*
X126020000Y-135600000D01*
X125880000Y-130180000D02*
X124435000Y-130180000D01*
X117790000Y-140210000D02*
X122400000Y-135600000D01*
X124435000Y-130180000D02*
X122920000Y-128665000D01*
X127149511Y-134470489D02*
X127149511Y-131449511D01*
X117790000Y-142212500D02*
X117790000Y-140210000D01*
X127149511Y-131449511D02*
X125880000Y-130180000D01*
D33*
X110220000Y-126125000D02*
X111475000Y-127380000D01*
X114050000Y-129190000D02*
X113000000Y-130240000D01*
X114050000Y-128293990D02*
X114050000Y-129190000D01*
X111475000Y-127380000D02*
X113136010Y-127380000D01*
X113136010Y-127380000D02*
X114050000Y-128293990D01*
X113000000Y-130240000D02*
X113000000Y-138587500D01*
D36*
X110367000Y-89500000D02*
X81000000Y-89500000D01*
X112280000Y-91413000D02*
X110367000Y-89500000D01*
D33*
X94812500Y-140865000D02*
X96912500Y-138600000D01*
X100339500Y-93135000D02*
X100892000Y-93687500D01*
X98187500Y-93135000D02*
X100339500Y-93135000D01*
X103002000Y-97978000D02*
X103002000Y-103256000D01*
D34*
X130800000Y-112600000D02*
X128270000Y-110070000D01*
D33*
X126568000Y-101816000D02*
X123968000Y-101816000D01*
X103002000Y-95727500D02*
X103002000Y-97978000D01*
X126718000Y-99536000D02*
X126718000Y-101666000D01*
D34*
X128006000Y-124794000D02*
X130800000Y-122000000D01*
D33*
X123968000Y-101816000D02*
X122968000Y-100816000D01*
X122968000Y-99428500D02*
X116979500Y-99428500D01*
D34*
X130800000Y-122000000D02*
X130800000Y-112600000D01*
X128270000Y-110070000D02*
X128270000Y-107696000D01*
D33*
X126718000Y-101666000D02*
X126568000Y-101816000D01*
D34*
X128006000Y-128665000D02*
X128006000Y-124794000D01*
D33*
X103619500Y-95110000D02*
X103002000Y-95727500D01*
X116979500Y-99428500D02*
X115845000Y-100563000D01*
X115845000Y-100563000D02*
X114820000Y-100563000D01*
X122968000Y-100816000D02*
X122968000Y-99428500D01*
%TA.AperFunction,Conductor*%
G36*
X127957979Y-112034002D02*
G01*
X128004472Y-112087658D01*
X128015858Y-112140140D01*
X128003168Y-123384555D01*
X128003083Y-123460056D01*
X127983004Y-123528154D01*
X127966178Y-123549009D01*
X127421168Y-124094019D01*
X127406135Y-124106860D01*
X127394747Y-124115134D01*
X127390327Y-124120043D01*
X127348984Y-124165959D01*
X127344443Y-124170744D01*
X127329928Y-124185259D01*
X127327852Y-124187823D01*
X127317006Y-124201216D01*
X127312722Y-124206231D01*
X127271381Y-124252145D01*
X127271377Y-124252150D01*
X127266960Y-124257056D01*
X127263660Y-124262772D01*
X127263657Y-124262776D01*
X127259927Y-124269237D01*
X127248727Y-124285533D01*
X127239871Y-124296470D01*
X127213119Y-124348974D01*
X127164371Y-124400589D01*
X127101101Y-124417771D01*
X116715589Y-124438229D01*
X105684119Y-124459960D01*
X105684118Y-124459960D01*
X105666004Y-124459996D01*
X105438579Y-124636856D01*
X105304853Y-124740850D01*
X105238800Y-124766879D01*
X105225965Y-124767377D01*
X105205829Y-124767131D01*
X105050081Y-124765228D01*
X105050079Y-124765228D01*
X105044911Y-124765165D01*
X104824091Y-124798955D01*
X104611756Y-124868357D01*
X104413607Y-124971507D01*
X104409474Y-124974610D01*
X104409471Y-124974612D01*
X104239100Y-125102530D01*
X104234965Y-125105635D01*
X104080629Y-125267138D01*
X104077715Y-125271410D01*
X104077714Y-125271411D01*
X103965095Y-125436504D01*
X103910184Y-125481507D01*
X103861007Y-125491500D01*
X100570589Y-125491500D01*
X100559406Y-125490973D01*
X100551913Y-125489298D01*
X100543987Y-125489547D01*
X100543986Y-125489547D01*
X100483823Y-125491438D01*
X100479865Y-125491500D01*
X100451965Y-125491500D01*
X100447975Y-125492004D01*
X100436141Y-125492936D01*
X100391932Y-125494326D01*
X100384316Y-125496539D01*
X100384314Y-125496539D01*
X100372473Y-125499979D01*
X100353114Y-125503988D01*
X100351804Y-125504154D01*
X100333024Y-125506526D01*
X100325658Y-125509442D01*
X100325652Y-125509444D01*
X100291919Y-125522800D01*
X100280689Y-125526645D01*
X100245838Y-125536770D01*
X100238228Y-125538981D01*
X100231405Y-125543016D01*
X100220787Y-125549295D01*
X100203034Y-125557992D01*
X100195389Y-125561019D01*
X100184204Y-125565448D01*
X100177789Y-125570109D01*
X100148433Y-125591437D01*
X100138516Y-125597951D01*
X100100459Y-125620458D01*
X100086138Y-125634779D01*
X100071105Y-125647619D01*
X100054714Y-125659528D01*
X100049663Y-125665634D01*
X100026523Y-125693605D01*
X100018533Y-125702384D01*
X91983246Y-133737670D01*
X91974960Y-133745210D01*
X91968481Y-133749322D01*
X91963056Y-133755099D01*
X91921856Y-133798973D01*
X91919101Y-133801815D01*
X91899364Y-133821552D01*
X91896884Y-133824749D01*
X91889181Y-133833769D01*
X91858913Y-133866001D01*
X91855094Y-133872947D01*
X91855092Y-133872950D01*
X91849151Y-133883756D01*
X91838300Y-133900275D01*
X91825885Y-133916281D01*
X91822740Y-133923550D01*
X91822737Y-133923554D01*
X91808325Y-133956859D01*
X91803108Y-133967509D01*
X91781804Y-134006262D01*
X91779833Y-134013937D01*
X91779833Y-134013938D01*
X91776766Y-134025884D01*
X91770362Y-134044588D01*
X91762318Y-134063177D01*
X91761082Y-134070979D01*
X91729188Y-134124907D01*
X91688908Y-134165187D01*
X91626596Y-134199213D01*
X91612986Y-134201402D01*
X91604210Y-134202324D01*
X91582288Y-134204628D01*
X91582286Y-134204628D01*
X91575288Y-134205364D01*
X91403579Y-134263818D01*
X91361918Y-134289448D01*
X91255095Y-134355166D01*
X91255092Y-134355168D01*
X91249088Y-134358862D01*
X91244053Y-134363793D01*
X91244050Y-134363795D01*
X91124525Y-134480843D01*
X91119493Y-134485771D01*
X91021235Y-134638238D01*
X91018826Y-134644858D01*
X91018824Y-134644861D01*
X90977623Y-134758061D01*
X90959197Y-134808685D01*
X90958314Y-134815675D01*
X90937391Y-134981292D01*
X90909009Y-135046369D01*
X90849949Y-135085770D01*
X90812385Y-135091500D01*
X79724957Y-135091500D01*
X79656836Y-135071498D01*
X79610343Y-135017842D01*
X79598961Y-134966481D01*
X79584131Y-133061783D01*
X82415203Y-133061783D01*
X82422841Y-133072324D01*
X82569218Y-133189175D01*
X82573801Y-133192505D01*
X82910867Y-133414759D01*
X82915763Y-133417677D01*
X83271543Y-133608444D01*
X83276717Y-133610923D01*
X83648339Y-133768668D01*
X83653674Y-133770652D01*
X84038069Y-133894068D01*
X84043570Y-133895563D01*
X84437575Y-133983633D01*
X84443187Y-133984622D01*
X84843538Y-134036619D01*
X84849244Y-134037098D01*
X85252642Y-134052595D01*
X85258368Y-134052555D01*
X85661518Y-134031427D01*
X85667199Y-134030870D01*
X86066795Y-133973288D01*
X86072390Y-133972220D01*
X86465123Y-133878657D01*
X86470605Y-133877086D01*
X86853233Y-133748318D01*
X86858563Y-133746250D01*
X87227946Y-133583332D01*
X87233053Y-133580797D01*
X87586145Y-133385075D01*
X87591024Y-133382074D01*
X87924916Y-133155162D01*
X87929487Y-133151742D01*
X88024826Y-133073431D01*
X88033286Y-133060999D01*
X88027036Y-133050143D01*
X85236812Y-130259919D01*
X85222868Y-130252305D01*
X85221035Y-130252436D01*
X85214420Y-130256687D01*
X82422275Y-133048832D01*
X82415203Y-133061783D01*
X79584131Y-133061783D01*
X79557915Y-129694638D01*
X80713964Y-129694638D01*
X80714163Y-129700343D01*
X80746540Y-130102753D01*
X80747258Y-130108430D01*
X80815970Y-130506229D01*
X80817201Y-130511829D01*
X80921689Y-130901786D01*
X80923413Y-130907219D01*
X81062817Y-131286108D01*
X81065025Y-131291362D01*
X81238192Y-131656050D01*
X81240877Y-131661099D01*
X81446390Y-132008606D01*
X81449500Y-132013358D01*
X81685670Y-132340814D01*
X81688005Y-132343761D01*
X81700872Y-132352001D01*
X81710784Y-132346109D01*
X84504081Y-129552812D01*
X84510459Y-129541132D01*
X85936305Y-129541132D01*
X85936436Y-129542965D01*
X85940687Y-129549580D01*
X88734029Y-132342922D01*
X88747475Y-132350264D01*
X88757312Y-132343344D01*
X88797611Y-132295656D01*
X88801097Y-132291130D01*
X89032659Y-131960424D01*
X89035716Y-131955608D01*
X89236350Y-131605281D01*
X89238962Y-131600199D01*
X89407020Y-131233127D01*
X89409159Y-131227834D01*
X89543255Y-130847047D01*
X89544908Y-130841573D01*
X89643939Y-130450206D01*
X89645090Y-130444600D01*
X89708245Y-130045854D01*
X89708880Y-130040192D01*
X89735709Y-129636260D01*
X89735843Y-129632753D01*
X89736796Y-129541773D01*
X89736734Y-129538225D01*
X89718371Y-129133843D01*
X89717855Y-129128165D01*
X89663063Y-128728177D01*
X89662036Y-128722577D01*
X89571216Y-128329198D01*
X89569682Y-128323702D01*
X89443588Y-127940183D01*
X89441558Y-127934841D01*
X89281226Y-127564336D01*
X89278722Y-127559202D01*
X89085471Y-127204752D01*
X89082508Y-127199861D01*
X88857929Y-126864387D01*
X88854534Y-126859784D01*
X88757112Y-126739478D01*
X88744854Y-126731010D01*
X88733764Y-126737343D01*
X85943919Y-129527188D01*
X85936305Y-129541132D01*
X84510459Y-129541132D01*
X84511695Y-129538868D01*
X84511564Y-129537035D01*
X84507313Y-129530420D01*
X81713862Y-126736969D01*
X81701423Y-126730177D01*
X81690209Y-126738544D01*
X81502139Y-126988120D01*
X81498906Y-126992843D01*
X81286173Y-127335946D01*
X81283379Y-127340946D01*
X81102624Y-127701905D01*
X81100290Y-127707147D01*
X80952992Y-128083009D01*
X80951149Y-128088422D01*
X80838517Y-128476103D01*
X80837175Y-128481653D01*
X80760142Y-128877952D01*
X80759309Y-128883593D01*
X80718512Y-129285234D01*
X80718192Y-129290958D01*
X80713964Y-129694638D01*
X79557915Y-129694638D01*
X79529290Y-126018156D01*
X82414647Y-126018156D01*
X82421299Y-126030192D01*
X85211188Y-128820081D01*
X85225132Y-128827695D01*
X85226965Y-128827564D01*
X85233580Y-128823313D01*
X88027610Y-126029283D01*
X88035018Y-126015716D01*
X88028276Y-126006060D01*
X88004533Y-125985711D01*
X88000040Y-125982200D01*
X87670969Y-125748341D01*
X87666146Y-125745233D01*
X87317242Y-125542166D01*
X87312177Y-125539519D01*
X86946296Y-125368905D01*
X86941003Y-125366724D01*
X86561166Y-125229973D01*
X86555706Y-125228284D01*
X86165036Y-125126522D01*
X86159446Y-125125334D01*
X85761154Y-125059397D01*
X85755490Y-125058721D01*
X85352851Y-125029153D01*
X85347150Y-125028994D01*
X84943489Y-125036040D01*
X84937801Y-125036398D01*
X84536457Y-125079998D01*
X84530787Y-125080876D01*
X84135058Y-125160669D01*
X84129512Y-125162051D01*
X83742627Y-125277387D01*
X83737223Y-125279269D01*
X83362396Y-125429189D01*
X83357189Y-125431551D01*
X82997475Y-125614834D01*
X82992510Y-125617655D01*
X82650900Y-125832779D01*
X82646206Y-125836040D01*
X82423108Y-126006611D01*
X82414647Y-126018156D01*
X79529290Y-126018156D01*
X79501071Y-122393783D01*
X82415203Y-122393783D01*
X82422841Y-122404324D01*
X82569218Y-122521175D01*
X82573801Y-122524505D01*
X82910867Y-122746759D01*
X82915763Y-122749677D01*
X83271543Y-122940444D01*
X83276717Y-122942923D01*
X83648339Y-123100668D01*
X83653674Y-123102652D01*
X84038069Y-123226068D01*
X84043570Y-123227563D01*
X84437575Y-123315633D01*
X84443187Y-123316622D01*
X84843538Y-123368619D01*
X84849244Y-123369098D01*
X85252642Y-123384595D01*
X85258368Y-123384555D01*
X85661518Y-123363427D01*
X85667199Y-123362870D01*
X86066795Y-123305288D01*
X86072390Y-123304220D01*
X86465123Y-123210657D01*
X86470605Y-123209086D01*
X86853233Y-123080318D01*
X86858563Y-123078250D01*
X87227946Y-122915332D01*
X87233053Y-122912797D01*
X87586145Y-122717075D01*
X87591024Y-122714074D01*
X87924916Y-122487162D01*
X87929487Y-122483742D01*
X88024826Y-122405431D01*
X88033286Y-122392999D01*
X88027036Y-122382143D01*
X85236812Y-119591919D01*
X85222868Y-119584305D01*
X85221035Y-119584436D01*
X85214420Y-119588687D01*
X82422275Y-122380832D01*
X82415203Y-122393783D01*
X79501071Y-122393783D01*
X79479256Y-119591919D01*
X79474855Y-119026638D01*
X80713964Y-119026638D01*
X80714163Y-119032343D01*
X80746540Y-119434753D01*
X80747258Y-119440430D01*
X80815970Y-119838229D01*
X80817201Y-119843829D01*
X80921689Y-120233786D01*
X80923413Y-120239219D01*
X81062817Y-120618108D01*
X81065025Y-120623362D01*
X81238192Y-120988050D01*
X81240877Y-120993099D01*
X81446390Y-121340606D01*
X81449500Y-121345358D01*
X81685670Y-121672814D01*
X81688005Y-121675761D01*
X81700872Y-121684001D01*
X81710784Y-121678109D01*
X84504081Y-118884812D01*
X84510459Y-118873132D01*
X85936305Y-118873132D01*
X85936436Y-118874965D01*
X85940687Y-118881580D01*
X88734029Y-121674922D01*
X88747475Y-121682264D01*
X88757312Y-121675344D01*
X88797611Y-121627656D01*
X88801097Y-121623130D01*
X89032659Y-121292424D01*
X89035716Y-121287608D01*
X89236350Y-120937281D01*
X89238962Y-120932199D01*
X89407020Y-120565127D01*
X89409159Y-120559834D01*
X89543255Y-120179047D01*
X89544908Y-120173573D01*
X89643939Y-119782206D01*
X89645090Y-119776600D01*
X89708245Y-119377854D01*
X89708880Y-119372192D01*
X89735709Y-118968260D01*
X89735843Y-118964753D01*
X89736796Y-118873773D01*
X89736734Y-118870225D01*
X89718371Y-118465843D01*
X89717855Y-118460165D01*
X89663063Y-118060177D01*
X89662036Y-118054577D01*
X89571216Y-117661198D01*
X89569682Y-117655702D01*
X89443588Y-117272183D01*
X89441558Y-117266841D01*
X89281226Y-116896336D01*
X89278722Y-116891202D01*
X89085471Y-116536752D01*
X89082508Y-116531861D01*
X88857929Y-116196387D01*
X88854534Y-116191784D01*
X88757112Y-116071478D01*
X88744854Y-116063010D01*
X88733764Y-116069343D01*
X85943919Y-118859188D01*
X85936305Y-118873132D01*
X84510459Y-118873132D01*
X84511695Y-118870868D01*
X84511564Y-118869035D01*
X84507313Y-118862420D01*
X81713862Y-116068969D01*
X81701423Y-116062177D01*
X81690209Y-116070544D01*
X81502139Y-116320120D01*
X81498906Y-116324843D01*
X81286173Y-116667946D01*
X81283379Y-116672946D01*
X81102624Y-117033905D01*
X81100290Y-117039147D01*
X80952992Y-117415009D01*
X80951149Y-117420422D01*
X80838517Y-117808103D01*
X80837175Y-117813653D01*
X80760142Y-118209952D01*
X80759309Y-118215593D01*
X80718512Y-118617234D01*
X80718192Y-118622958D01*
X80713964Y-119026638D01*
X79474855Y-119026638D01*
X79446230Y-115350156D01*
X82414647Y-115350156D01*
X82421299Y-115362192D01*
X85211188Y-118152081D01*
X85225132Y-118159695D01*
X85226965Y-118159564D01*
X85233580Y-118155313D01*
X88027610Y-115361283D01*
X88035018Y-115347716D01*
X88028276Y-115338060D01*
X88004533Y-115317711D01*
X88000040Y-115314200D01*
X87670969Y-115080341D01*
X87666146Y-115077233D01*
X87317242Y-114874166D01*
X87312177Y-114871519D01*
X86946296Y-114700905D01*
X86941003Y-114698724D01*
X86561166Y-114561973D01*
X86555706Y-114560284D01*
X86165036Y-114458522D01*
X86159446Y-114457334D01*
X85761154Y-114391397D01*
X85755490Y-114390721D01*
X85352851Y-114361153D01*
X85347150Y-114360994D01*
X84943489Y-114368040D01*
X84937801Y-114368398D01*
X84536457Y-114411998D01*
X84530787Y-114412876D01*
X84135058Y-114492669D01*
X84129512Y-114494051D01*
X83742627Y-114609387D01*
X83737223Y-114611269D01*
X83362396Y-114761189D01*
X83357189Y-114763551D01*
X82997475Y-114946834D01*
X82992510Y-114949655D01*
X82650900Y-115164779D01*
X82646206Y-115168040D01*
X82423108Y-115338611D01*
X82414647Y-115350156D01*
X79446230Y-115350156D01*
X79436684Y-114124158D01*
X79456155Y-114055885D01*
X79509447Y-114008975D01*
X79562628Y-113997178D01*
X89662000Y-113993042D01*
X91147798Y-112209754D01*
X91206771Y-112170221D01*
X91245676Y-112164413D01*
X99068774Y-112231093D01*
X103409672Y-112268092D01*
X105793359Y-112014706D01*
X105806677Y-112014000D01*
X127889858Y-112014000D01*
X127957979Y-112034002D01*
G37*
%TD.AperFunction*%
%TA.AperFunction,Conductor*%
G36*
X95293949Y-100471730D02*
G01*
X95610290Y-100592039D01*
X95666851Y-100634949D01*
X95691234Y-100701628D01*
X95691500Y-100709809D01*
X95691500Y-101037502D01*
X95691693Y-101039950D01*
X95691693Y-101039958D01*
X95693419Y-101061881D01*
X95694438Y-101074831D01*
X95740855Y-101234601D01*
X95825547Y-101377807D01*
X95828229Y-101380489D01*
X95853502Y-101444861D01*
X95839600Y-101514484D01*
X95829428Y-101530312D01*
X95825547Y-101534193D01*
X95740855Y-101677399D01*
X95694438Y-101837169D01*
X95691500Y-101874498D01*
X95691500Y-102307502D01*
X95694438Y-102344831D01*
X95740855Y-102504601D01*
X95744892Y-102511427D01*
X95821509Y-102640980D01*
X95821511Y-102640983D01*
X95825547Y-102647807D01*
X95943193Y-102765453D01*
X95950017Y-102769489D01*
X95950020Y-102769491D01*
X96057589Y-102833107D01*
X96086399Y-102850145D01*
X96094010Y-102852356D01*
X96094012Y-102852357D01*
X96146231Y-102867528D01*
X96246169Y-102896562D01*
X96252574Y-102897066D01*
X96252579Y-102897067D01*
X96281042Y-102899307D01*
X96281050Y-102899307D01*
X96283498Y-102899500D01*
X98066502Y-102899500D01*
X98068950Y-102899307D01*
X98068958Y-102899307D01*
X98097421Y-102897067D01*
X98097426Y-102897066D01*
X98103831Y-102896562D01*
X98203769Y-102867528D01*
X98255988Y-102852357D01*
X98255990Y-102852356D01*
X98263601Y-102850145D01*
X98292411Y-102833107D01*
X98399980Y-102769491D01*
X98399983Y-102769489D01*
X98406807Y-102765453D01*
X98524453Y-102647807D01*
X98528489Y-102640983D01*
X98528491Y-102640980D01*
X98582674Y-102549361D01*
X98634567Y-102500908D01*
X98691127Y-102487500D01*
X99910903Y-102487500D01*
X99979896Y-102508068D01*
X99984718Y-102511223D01*
X100090159Y-102580222D01*
X100096763Y-102582678D01*
X100096765Y-102582679D01*
X100253558Y-102640990D01*
X100253560Y-102640990D01*
X100260168Y-102643448D01*
X100343995Y-102654633D01*
X100432980Y-102666507D01*
X100432984Y-102666507D01*
X100439961Y-102667438D01*
X100446972Y-102666800D01*
X100446976Y-102666800D01*
X100589459Y-102653832D01*
X100620600Y-102650998D01*
X100627302Y-102648820D01*
X100627304Y-102648820D01*
X100793108Y-102594947D01*
X100793874Y-102597305D01*
X100852764Y-102589004D01*
X100879278Y-102595901D01*
X101535968Y-102845648D01*
X101600000Y-102870000D01*
X108565150Y-102870000D01*
X108633271Y-102890002D01*
X108679764Y-102943658D01*
X108687470Y-102966088D01*
X108688255Y-102973316D01*
X108739385Y-103109705D01*
X108826739Y-103226261D01*
X108943295Y-103313615D01*
X109079684Y-103364745D01*
X109141866Y-103371500D01*
X110338134Y-103371500D01*
X110400316Y-103364745D01*
X110536705Y-103313615D01*
X110653261Y-103226261D01*
X110740615Y-103109705D01*
X110791745Y-102973316D01*
X110792489Y-102966465D01*
X110827485Y-102905207D01*
X110890440Y-102872387D01*
X110914850Y-102870000D01*
X113645669Y-102870000D01*
X113713790Y-102890002D01*
X113760283Y-102943658D01*
X113768252Y-102966854D01*
X113771522Y-102980606D01*
X113816676Y-103101054D01*
X113825214Y-103116649D01*
X113901715Y-103218724D01*
X113914276Y-103231285D01*
X114016351Y-103307786D01*
X114031946Y-103316324D01*
X114152394Y-103361478D01*
X114167649Y-103365105D01*
X114218514Y-103370631D01*
X114225328Y-103371000D01*
X114301885Y-103371000D01*
X114317124Y-103366525D01*
X114318329Y-103365135D01*
X114320000Y-103357452D01*
X114320000Y-102870000D01*
X115320000Y-102870000D01*
X115320000Y-103352884D01*
X115324475Y-103368123D01*
X115325865Y-103369328D01*
X115333548Y-103370999D01*
X115414669Y-103370999D01*
X115421490Y-103370629D01*
X115472352Y-103365105D01*
X115487604Y-103361479D01*
X115608054Y-103316324D01*
X115623649Y-103307786D01*
X115725724Y-103231285D01*
X115738285Y-103218724D01*
X115814786Y-103116649D01*
X115823324Y-103101054D01*
X115868478Y-102980606D01*
X115871748Y-102966854D01*
X115906965Y-102905208D01*
X115969921Y-102872387D01*
X115994331Y-102870000D01*
X128908488Y-102870000D01*
X128976609Y-102890002D01*
X129023102Y-102943658D01*
X129034463Y-102993487D01*
X129180299Y-110305971D01*
X129197836Y-111185284D01*
X129179196Y-111253790D01*
X129126478Y-111301343D01*
X129071661Y-111313796D01*
X102375231Y-111271389D01*
X90170403Y-111252001D01*
X90163162Y-111262854D01*
X90163161Y-111262855D01*
X89668908Y-112003646D01*
X89653190Y-112022810D01*
X88428818Y-113247182D01*
X88366506Y-113281208D01*
X88339934Y-113284087D01*
X86700271Y-113286823D01*
X81263880Y-113295893D01*
X81195726Y-113276004D01*
X81162158Y-113244534D01*
X80257353Y-112014000D01*
X80224488Y-111969303D01*
X80200249Y-111902574D01*
X80200000Y-111894663D01*
X80200000Y-111725783D01*
X82391203Y-111725783D01*
X82398841Y-111736324D01*
X82545218Y-111853175D01*
X82549801Y-111856505D01*
X82886867Y-112078759D01*
X82891763Y-112081677D01*
X83247543Y-112272444D01*
X83252717Y-112274923D01*
X83624339Y-112432668D01*
X83629674Y-112434652D01*
X84014069Y-112558068D01*
X84019570Y-112559563D01*
X84413575Y-112647633D01*
X84419187Y-112648622D01*
X84819538Y-112700619D01*
X84825244Y-112701098D01*
X85228642Y-112716595D01*
X85234368Y-112716555D01*
X85637518Y-112695427D01*
X85643199Y-112694870D01*
X86042795Y-112637288D01*
X86048390Y-112636220D01*
X86441123Y-112542657D01*
X86446605Y-112541086D01*
X86829233Y-112412318D01*
X86834563Y-112410250D01*
X87203946Y-112247332D01*
X87209053Y-112244797D01*
X87562145Y-112049075D01*
X87567024Y-112046074D01*
X87900916Y-111819162D01*
X87905487Y-111815742D01*
X88000826Y-111737431D01*
X88009286Y-111724999D01*
X88003036Y-111714143D01*
X85212812Y-108923919D01*
X85198868Y-108916305D01*
X85197035Y-108916436D01*
X85190420Y-108920687D01*
X82398275Y-111712832D01*
X82391203Y-111725783D01*
X80200000Y-111725783D01*
X80200000Y-108358638D01*
X80689964Y-108358638D01*
X80690163Y-108364343D01*
X80722540Y-108766753D01*
X80723258Y-108772430D01*
X80791970Y-109170229D01*
X80793201Y-109175829D01*
X80897689Y-109565786D01*
X80899413Y-109571219D01*
X81038817Y-109950108D01*
X81041025Y-109955362D01*
X81214192Y-110320050D01*
X81216877Y-110325099D01*
X81422390Y-110672606D01*
X81425500Y-110677358D01*
X81661670Y-111004814D01*
X81664005Y-111007761D01*
X81676872Y-111016001D01*
X81686784Y-111010109D01*
X84480081Y-108216812D01*
X84486459Y-108205132D01*
X85912305Y-108205132D01*
X85912436Y-108206965D01*
X85916687Y-108213580D01*
X88710029Y-111006922D01*
X88723475Y-111014264D01*
X88733312Y-111007344D01*
X88773611Y-110959656D01*
X88777097Y-110955130D01*
X89008659Y-110624424D01*
X89011716Y-110619608D01*
X89212350Y-110269281D01*
X89214962Y-110264199D01*
X89383020Y-109897127D01*
X89385159Y-109891834D01*
X89398083Y-109855134D01*
X98945500Y-109855134D01*
X98952255Y-109917316D01*
X99003385Y-110053705D01*
X99090739Y-110170261D01*
X99207295Y-110257615D01*
X99343684Y-110308745D01*
X99405866Y-110315500D01*
X100602134Y-110315500D01*
X100664316Y-110308745D01*
X100800705Y-110257615D01*
X100917261Y-110170261D01*
X101004615Y-110053705D01*
X101055745Y-109917316D01*
X101062500Y-109855134D01*
X111445500Y-109855134D01*
X111452255Y-109917316D01*
X111503385Y-110053705D01*
X111590739Y-110170261D01*
X111707295Y-110257615D01*
X111843684Y-110308745D01*
X111905866Y-110315500D01*
X113102134Y-110315500D01*
X113164316Y-110308745D01*
X113300705Y-110257615D01*
X113417261Y-110170261D01*
X113504615Y-110053705D01*
X113555745Y-109917316D01*
X113562500Y-109855134D01*
X113562500Y-109128711D01*
X113582502Y-109060590D01*
X113636158Y-109014097D01*
X113677078Y-109003230D01*
X113683539Y-109002642D01*
X113701600Y-109000998D01*
X113732402Y-108990990D01*
X113867409Y-108947124D01*
X113867412Y-108947123D01*
X113874108Y-108944947D01*
X114029912Y-108852069D01*
X114161266Y-108726982D01*
X114261643Y-108575902D01*
X114326055Y-108406338D01*
X114327035Y-108399366D01*
X114350748Y-108230639D01*
X114350748Y-108230636D01*
X114351299Y-108226717D01*
X114351616Y-108204000D01*
X114350342Y-108192640D01*
X122884463Y-108192640D01*
X122902163Y-108373160D01*
X122959418Y-108545273D01*
X122963065Y-108551295D01*
X122963066Y-108551297D01*
X122973978Y-108569314D01*
X123053380Y-108700424D01*
X123058269Y-108705487D01*
X123058270Y-108705488D01*
X123073357Y-108721111D01*
X123179382Y-108830902D01*
X123185278Y-108834760D01*
X123310092Y-108916436D01*
X123331159Y-108930222D01*
X123337763Y-108932678D01*
X123337765Y-108932679D01*
X123494558Y-108990990D01*
X123494560Y-108990990D01*
X123501168Y-108993448D01*
X123584995Y-109004633D01*
X123673980Y-109016507D01*
X123673984Y-109016507D01*
X123680961Y-109017438D01*
X123687972Y-109016800D01*
X123687976Y-109016800D01*
X123808080Y-109005869D01*
X123877733Y-109019614D01*
X123928898Y-109068835D01*
X123945500Y-109131350D01*
X123945500Y-109879134D01*
X123952255Y-109941316D01*
X124003385Y-110077705D01*
X124090739Y-110194261D01*
X124207295Y-110281615D01*
X124343684Y-110332745D01*
X124405866Y-110339500D01*
X125602134Y-110339500D01*
X125664316Y-110332745D01*
X125800705Y-110281615D01*
X125917261Y-110194261D01*
X126004615Y-110077705D01*
X126055745Y-109941316D01*
X126062500Y-109879134D01*
X126062500Y-105182866D01*
X126055745Y-105120684D01*
X126004615Y-104984295D01*
X125917261Y-104867739D01*
X125800705Y-104780385D01*
X125664316Y-104729255D01*
X125602134Y-104722500D01*
X124405866Y-104722500D01*
X124343684Y-104729255D01*
X124207295Y-104780385D01*
X124090739Y-104867739D01*
X124003385Y-104984295D01*
X123952255Y-105120684D01*
X123945500Y-105182866D01*
X123945500Y-107277322D01*
X123925498Y-107345443D01*
X123871842Y-107391936D01*
X123804582Y-107402436D01*
X123703680Y-107390404D01*
X123696677Y-107391140D01*
X123696676Y-107391140D01*
X123530288Y-107408628D01*
X123530286Y-107408629D01*
X123523288Y-107409364D01*
X123351579Y-107467818D01*
X123312981Y-107491564D01*
X123203095Y-107559166D01*
X123203092Y-107559168D01*
X123197088Y-107562862D01*
X123192053Y-107567793D01*
X123192050Y-107567795D01*
X123072525Y-107684843D01*
X123067493Y-107689771D01*
X122969235Y-107842238D01*
X122966826Y-107848858D01*
X122966824Y-107848861D01*
X122930291Y-107949234D01*
X122907197Y-108012685D01*
X122884463Y-108192640D01*
X114350342Y-108192640D01*
X114331397Y-108023745D01*
X114329080Y-108017091D01*
X114274064Y-107859106D01*
X114274062Y-107859103D01*
X114271745Y-107852448D01*
X114175626Y-107698624D01*
X114161941Y-107684843D01*
X114052778Y-107574915D01*
X114052774Y-107574912D01*
X114047815Y-107569918D01*
X114036697Y-107562862D01*
X113988538Y-107532300D01*
X113894666Y-107472727D01*
X113865463Y-107462328D01*
X113730425Y-107414243D01*
X113730420Y-107414242D01*
X113723790Y-107411881D01*
X113716804Y-107411048D01*
X113716800Y-107411047D01*
X113684616Y-107407210D01*
X113673580Y-107405894D01*
X113608308Y-107377967D01*
X113568495Y-107319184D01*
X113562500Y-107280780D01*
X113562500Y-105158866D01*
X113555745Y-105096684D01*
X113504615Y-104960295D01*
X113417261Y-104843739D01*
X113300705Y-104756385D01*
X113164316Y-104705255D01*
X113102134Y-104698500D01*
X111905866Y-104698500D01*
X111843684Y-104705255D01*
X111707295Y-104756385D01*
X111590739Y-104843739D01*
X111503385Y-104960295D01*
X111452255Y-105096684D01*
X111445500Y-105158866D01*
X111445500Y-109855134D01*
X101062500Y-109855134D01*
X101062500Y-109133625D01*
X101082502Y-109065504D01*
X101136158Y-109019011D01*
X101177079Y-109008144D01*
X101255600Y-109000998D01*
X101262302Y-108998820D01*
X101262304Y-108998820D01*
X101421409Y-108947124D01*
X101421412Y-108947123D01*
X101428108Y-108944947D01*
X101583912Y-108852069D01*
X101715266Y-108726982D01*
X101815643Y-108575902D01*
X101880055Y-108406338D01*
X101881035Y-108399366D01*
X101904748Y-108230639D01*
X101904748Y-108230636D01*
X101905299Y-108226717D01*
X101905616Y-108204000D01*
X101885397Y-108023745D01*
X101883080Y-108017091D01*
X101828064Y-107859106D01*
X101828062Y-107859103D01*
X101825745Y-107852448D01*
X101729626Y-107698624D01*
X101715941Y-107684843D01*
X101606778Y-107574915D01*
X101606774Y-107574912D01*
X101601815Y-107569918D01*
X101590697Y-107562862D01*
X101542538Y-107532300D01*
X101448666Y-107472727D01*
X101419463Y-107462328D01*
X101284425Y-107414243D01*
X101284420Y-107414242D01*
X101277790Y-107411881D01*
X101270804Y-107411048D01*
X101270800Y-107411047D01*
X101208856Y-107403661D01*
X101173580Y-107399455D01*
X101108308Y-107371528D01*
X101068495Y-107312745D01*
X101062500Y-107274341D01*
X101062500Y-105158866D01*
X101055745Y-105096684D01*
X101004615Y-104960295D01*
X100917261Y-104843739D01*
X100800705Y-104756385D01*
X100664316Y-104705255D01*
X100602134Y-104698500D01*
X99405866Y-104698500D01*
X99343684Y-104705255D01*
X99207295Y-104756385D01*
X99090739Y-104843739D01*
X99003385Y-104960295D01*
X98952255Y-105096684D01*
X98945500Y-105158866D01*
X98945500Y-109855134D01*
X89398083Y-109855134D01*
X89519255Y-109511047D01*
X89520908Y-109505573D01*
X89619939Y-109114206D01*
X89621090Y-109108600D01*
X89684245Y-108709854D01*
X89684880Y-108704192D01*
X89711709Y-108300260D01*
X89711843Y-108296753D01*
X89712796Y-108205773D01*
X89712734Y-108202225D01*
X89694371Y-107797843D01*
X89693855Y-107792165D01*
X89639063Y-107392177D01*
X89638036Y-107386577D01*
X89547216Y-106993198D01*
X89545682Y-106987702D01*
X89419588Y-106604183D01*
X89417558Y-106598841D01*
X89257226Y-106228336D01*
X89254722Y-106223202D01*
X89061471Y-105868752D01*
X89058508Y-105863861D01*
X88833929Y-105528387D01*
X88830534Y-105523784D01*
X88733112Y-105403478D01*
X88720854Y-105395010D01*
X88709764Y-105401343D01*
X85919919Y-108191188D01*
X85912305Y-108205132D01*
X84486459Y-108205132D01*
X84487695Y-108202868D01*
X84487564Y-108201035D01*
X84483313Y-108194420D01*
X81689862Y-105400969D01*
X81677423Y-105394177D01*
X81666209Y-105402544D01*
X81478139Y-105652120D01*
X81474906Y-105656843D01*
X81262173Y-105999946D01*
X81259379Y-106004946D01*
X81078624Y-106365905D01*
X81076290Y-106371147D01*
X80928992Y-106747009D01*
X80927149Y-106752422D01*
X80814517Y-107140103D01*
X80813175Y-107145653D01*
X80736142Y-107541952D01*
X80735309Y-107547593D01*
X80694512Y-107949234D01*
X80694192Y-107954958D01*
X80689964Y-108358638D01*
X80200000Y-108358638D01*
X80200000Y-105216781D01*
X80220002Y-105148660D01*
X80247570Y-105118167D01*
X80795790Y-104682156D01*
X82390647Y-104682156D01*
X82397299Y-104694192D01*
X85187188Y-107484081D01*
X85201132Y-107491695D01*
X85202965Y-107491564D01*
X85209580Y-107487313D01*
X88003610Y-104693283D01*
X88011018Y-104679716D01*
X88004276Y-104670060D01*
X87980533Y-104649711D01*
X87976040Y-104646200D01*
X87646969Y-104412341D01*
X87642146Y-104409233D01*
X87293242Y-104206166D01*
X87288177Y-104203519D01*
X86922296Y-104032905D01*
X86917003Y-104030724D01*
X86537166Y-103893973D01*
X86531706Y-103892284D01*
X86141036Y-103790522D01*
X86135446Y-103789334D01*
X85737154Y-103723397D01*
X85731490Y-103722721D01*
X85328851Y-103693153D01*
X85323150Y-103692994D01*
X84919489Y-103700040D01*
X84913801Y-103700398D01*
X84512457Y-103743998D01*
X84506787Y-103744876D01*
X84111058Y-103824669D01*
X84105512Y-103826051D01*
X83718627Y-103941387D01*
X83713223Y-103943269D01*
X83338396Y-104093189D01*
X83333189Y-104095551D01*
X82973475Y-104278834D01*
X82968510Y-104281655D01*
X82626900Y-104496779D01*
X82622206Y-104500040D01*
X82399108Y-104670611D01*
X82390647Y-104682156D01*
X80795790Y-104682156D01*
X82456346Y-103361479D01*
X82559566Y-103279386D01*
X82625331Y-103252638D01*
X82637996Y-103252000D01*
X88094000Y-103252000D01*
X88103706Y-103243831D01*
X88103707Y-103243831D01*
X89102944Y-102402871D01*
X90761821Y-102402871D01*
X90789106Y-102496787D01*
X90795353Y-102511223D01*
X90871911Y-102640678D01*
X90881551Y-102653104D01*
X90987896Y-102759449D01*
X91000322Y-102769089D01*
X91129779Y-102845648D01*
X91144210Y-102851893D01*
X91290065Y-102894269D01*
X91302667Y-102896570D01*
X91331084Y-102898807D01*
X91336014Y-102899000D01*
X91906885Y-102899000D01*
X91922124Y-102894525D01*
X91923329Y-102893135D01*
X91925000Y-102885452D01*
X91925000Y-102880884D01*
X92525000Y-102880884D01*
X92529475Y-102896123D01*
X92530865Y-102897328D01*
X92538548Y-102898999D01*
X93113984Y-102898999D01*
X93118920Y-102898805D01*
X93147336Y-102896570D01*
X93159931Y-102894270D01*
X93305790Y-102851893D01*
X93320221Y-102845648D01*
X93449678Y-102769089D01*
X93462104Y-102759449D01*
X93568449Y-102653104D01*
X93578089Y-102640678D01*
X93654647Y-102511223D01*
X93660894Y-102496787D01*
X93686574Y-102408395D01*
X93686534Y-102394295D01*
X93679264Y-102391000D01*
X92543115Y-102391000D01*
X92527876Y-102395475D01*
X92526671Y-102396865D01*
X92525000Y-102404548D01*
X92525000Y-102880884D01*
X91925000Y-102880884D01*
X91925000Y-102409115D01*
X91920525Y-102393876D01*
X91919135Y-102392671D01*
X91911452Y-102391000D01*
X90776487Y-102391000D01*
X90762956Y-102394973D01*
X90761821Y-102402871D01*
X89102944Y-102402871D01*
X90584261Y-101156192D01*
X90649260Y-101127632D01*
X90719381Y-101138747D01*
X90772362Y-101186008D01*
X90786391Y-101217442D01*
X90789106Y-101226788D01*
X90795352Y-101241221D01*
X90871912Y-101370678D01*
X90878189Y-101378770D01*
X90904139Y-101444854D01*
X90890241Y-101514477D01*
X90878189Y-101533230D01*
X90871912Y-101541322D01*
X90795353Y-101670777D01*
X90789106Y-101685213D01*
X90763426Y-101773605D01*
X90763466Y-101787705D01*
X90770736Y-101791000D01*
X91906885Y-101791000D01*
X91922124Y-101786525D01*
X91923329Y-101785135D01*
X91925000Y-101777452D01*
X91925000Y-101772885D01*
X92525000Y-101772885D01*
X92529475Y-101788124D01*
X92530865Y-101789329D01*
X92538548Y-101791000D01*
X93673513Y-101791000D01*
X93687044Y-101787027D01*
X93688179Y-101779129D01*
X93660894Y-101685213D01*
X93654647Y-101670777D01*
X93578088Y-101541322D01*
X93571811Y-101533230D01*
X93545861Y-101467146D01*
X93559759Y-101397523D01*
X93571811Y-101378770D01*
X93578088Y-101370678D01*
X93654647Y-101241223D01*
X93660894Y-101226787D01*
X93686574Y-101138395D01*
X93686534Y-101124295D01*
X93679264Y-101121000D01*
X92543115Y-101121000D01*
X92527876Y-101125475D01*
X92526671Y-101126865D01*
X92525000Y-101134548D01*
X92525000Y-101772885D01*
X91925000Y-101772885D01*
X91925000Y-100647000D01*
X91945002Y-100578879D01*
X91998658Y-100532386D01*
X92051000Y-100521000D01*
X93571772Y-100521000D01*
X93640764Y-100541567D01*
X93663159Y-100556222D01*
X93669763Y-100558678D01*
X93669765Y-100558679D01*
X93826558Y-100616990D01*
X93826560Y-100616990D01*
X93833168Y-100619448D01*
X93916995Y-100630633D01*
X94005980Y-100642507D01*
X94005984Y-100642507D01*
X94012961Y-100643438D01*
X94019972Y-100642800D01*
X94019976Y-100642800D01*
X94162459Y-100629832D01*
X94193600Y-100626998D01*
X94200302Y-100624820D01*
X94200304Y-100624820D01*
X94359409Y-100573124D01*
X94359412Y-100573123D01*
X94366108Y-100570947D01*
X94516540Y-100481271D01*
X94581058Y-100463500D01*
X95249159Y-100463500D01*
X95293949Y-100471730D01*
G37*
%TD.AperFunction*%
%TA.AperFunction,Conductor*%
G36*
X86121658Y-92469533D02*
G01*
X86127264Y-92472365D01*
X86133159Y-92476222D01*
X86233219Y-92513434D01*
X86296558Y-92536990D01*
X86296560Y-92536990D01*
X86303168Y-92539448D01*
X86421754Y-92555271D01*
X86486630Y-92584107D01*
X86524612Y-92640288D01*
X86551673Y-92721399D01*
X86570398Y-92777526D01*
X86662703Y-92926689D01*
X86667884Y-92931861D01*
X86667885Y-92931862D01*
X86786847Y-93050617D01*
X86785361Y-93052105D01*
X86820397Y-93101511D01*
X86823636Y-93172433D01*
X86788017Y-93233849D01*
X86724849Y-93266257D01*
X86658565Y-93261039D01*
X86561166Y-93225973D01*
X86555706Y-93224284D01*
X86165036Y-93122522D01*
X86159446Y-93121334D01*
X85761154Y-93055397D01*
X85755490Y-93054721D01*
X85352851Y-93025153D01*
X85347150Y-93024994D01*
X84943489Y-93032040D01*
X84937801Y-93032398D01*
X84536457Y-93075998D01*
X84530787Y-93076876D01*
X84135058Y-93156669D01*
X84129512Y-93158051D01*
X83742627Y-93273387D01*
X83737223Y-93275269D01*
X83362396Y-93425189D01*
X83357189Y-93427551D01*
X82997475Y-93610834D01*
X82992510Y-93613655D01*
X82650900Y-93828779D01*
X82646206Y-93832040D01*
X82423108Y-94002611D01*
X82414647Y-94014156D01*
X82421299Y-94026192D01*
X85211188Y-96816081D01*
X85225132Y-96823695D01*
X85226965Y-96823564D01*
X85233580Y-96819313D01*
X88027610Y-94025283D01*
X88035018Y-94011716D01*
X88028276Y-94002060D01*
X88004533Y-93981711D01*
X88000040Y-93978200D01*
X87670969Y-93744341D01*
X87666146Y-93741233D01*
X87317242Y-93538166D01*
X87312178Y-93535519D01*
X87120184Y-93445991D01*
X87066899Y-93399074D01*
X87047438Y-93330797D01*
X87067980Y-93262837D01*
X87122002Y-93216771D01*
X87186274Y-93206452D01*
X87203064Y-93208172D01*
X87203071Y-93208172D01*
X87206269Y-93208500D01*
X87497734Y-93208500D01*
X87793730Y-93208499D01*
X87898629Y-93197616D01*
X87905160Y-93195437D01*
X87905165Y-93195436D01*
X88058078Y-93144420D01*
X88065026Y-93142102D01*
X88214189Y-93049797D01*
X88338117Y-92925653D01*
X88339919Y-92922730D01*
X88396529Y-92882592D01*
X88467452Y-92879358D01*
X88528864Y-92914982D01*
X88534416Y-92921378D01*
X88537703Y-92926689D01*
X88661847Y-93050617D01*
X88668077Y-93054457D01*
X88668078Y-93054458D01*
X88701486Y-93075051D01*
X88811171Y-93142661D01*
X88818119Y-93144966D01*
X88818120Y-93144966D01*
X88971134Y-93195719D01*
X88971136Y-93195719D01*
X88977665Y-93197885D01*
X89081269Y-93208500D01*
X89372734Y-93208500D01*
X89668730Y-93208499D01*
X89773629Y-93197616D01*
X89780160Y-93195437D01*
X89780165Y-93195436D01*
X89933078Y-93144420D01*
X89940026Y-93142102D01*
X90089189Y-93049797D01*
X90213117Y-92925653D01*
X90217486Y-92918565D01*
X90258240Y-92852450D01*
X90311012Y-92804956D01*
X90381083Y-92793532D01*
X90446207Y-92821806D01*
X90485707Y-92880799D01*
X90491500Y-92918565D01*
X90491500Y-93351502D01*
X90491693Y-93353950D01*
X90491693Y-93353958D01*
X90493106Y-93371902D01*
X90494438Y-93388831D01*
X90540855Y-93548601D01*
X90544892Y-93555427D01*
X90621509Y-93684980D01*
X90621511Y-93684983D01*
X90625547Y-93691807D01*
X90743193Y-93809453D01*
X90750017Y-93813489D01*
X90750020Y-93813491D01*
X90775871Y-93828779D01*
X90886399Y-93894145D01*
X90894010Y-93896356D01*
X90894012Y-93896357D01*
X90946231Y-93911528D01*
X91046169Y-93940562D01*
X91052574Y-93941066D01*
X91052579Y-93941067D01*
X91081042Y-93943307D01*
X91081050Y-93943307D01*
X91083498Y-93943500D01*
X92123607Y-93943500D01*
X92191728Y-93963502D01*
X92238221Y-94017158D01*
X92248325Y-94087432D01*
X92237187Y-94123209D01*
X92235235Y-94126238D01*
X92173197Y-94296685D01*
X92150463Y-94476640D01*
X92157372Y-94547102D01*
X92167775Y-94653205D01*
X92154515Y-94722952D01*
X92105653Y-94774459D01*
X92042376Y-94791500D01*
X91761424Y-94791501D01*
X91752770Y-94791501D01*
X91647871Y-94802384D01*
X91641340Y-94804563D01*
X91641335Y-94804564D01*
X91493189Y-94853990D01*
X91481474Y-94857898D01*
X91332311Y-94950203D01*
X91208383Y-95074347D01*
X91116339Y-95223671D01*
X91114034Y-95230619D01*
X91114034Y-95230620D01*
X91080426Y-95331946D01*
X91061115Y-95390165D01*
X91050500Y-95493769D01*
X91050501Y-96506230D01*
X91061384Y-96611129D01*
X91063563Y-96617660D01*
X91063564Y-96617665D01*
X91109058Y-96754027D01*
X91116898Y-96777526D01*
X91209203Y-96926689D01*
X91333347Y-97050617D01*
X91482671Y-97142661D01*
X91489619Y-97144966D01*
X91489620Y-97144966D01*
X91642634Y-97195719D01*
X91642636Y-97195719D01*
X91649165Y-97197885D01*
X91752769Y-97208500D01*
X92044234Y-97208500D01*
X92340230Y-97208499D01*
X92445129Y-97197616D01*
X92451660Y-97195437D01*
X92451665Y-97195436D01*
X92604578Y-97144420D01*
X92611526Y-97142102D01*
X92760689Y-97049797D01*
X92884617Y-96925653D01*
X92886419Y-96922730D01*
X92943029Y-96882592D01*
X93013952Y-96879358D01*
X93075364Y-96914982D01*
X93080916Y-96921378D01*
X93084203Y-96926689D01*
X93208347Y-97050617D01*
X93214577Y-97054457D01*
X93214578Y-97054458D01*
X93327665Y-97124165D01*
X93357671Y-97142661D01*
X93364618Y-97144965D01*
X93371253Y-97148059D01*
X93370603Y-97149454D01*
X93422030Y-97185084D01*
X93449265Y-97250649D01*
X93450000Y-97264243D01*
X93450000Y-97394187D01*
X93429998Y-97462308D01*
X93376342Y-97508801D01*
X93306068Y-97518905D01*
X93288847Y-97515184D01*
X93159938Y-97477732D01*
X93147333Y-97475430D01*
X93118916Y-97473193D01*
X93113986Y-97473000D01*
X92543115Y-97473000D01*
X92527876Y-97477475D01*
X92526671Y-97478865D01*
X92525000Y-97486548D01*
X92525000Y-99725000D01*
X92504998Y-99793121D01*
X92451342Y-99839614D01*
X92399000Y-99851000D01*
X90776487Y-99851000D01*
X90761248Y-99855475D01*
X90746486Y-99872511D01*
X90737350Y-99892515D01*
X90677623Y-99930897D01*
X90642127Y-99936000D01*
X90424000Y-99936000D01*
X90017075Y-100339761D01*
X87759844Y-102579442D01*
X87697400Y-102613224D01*
X87671097Y-102616000D01*
X79882000Y-102616000D01*
X79813879Y-102595998D01*
X79767386Y-102542342D01*
X79756000Y-102490000D01*
X79756000Y-101057783D01*
X82415203Y-101057783D01*
X82422841Y-101068324D01*
X82569218Y-101185175D01*
X82573801Y-101188505D01*
X82910867Y-101410759D01*
X82915763Y-101413677D01*
X83271543Y-101604444D01*
X83276717Y-101606923D01*
X83648339Y-101764668D01*
X83653674Y-101766652D01*
X84038069Y-101890068D01*
X84043570Y-101891563D01*
X84437575Y-101979633D01*
X84443187Y-101980622D01*
X84843538Y-102032619D01*
X84849244Y-102033098D01*
X85252642Y-102048595D01*
X85258368Y-102048555D01*
X85661518Y-102027427D01*
X85667199Y-102026870D01*
X86066795Y-101969288D01*
X86072390Y-101968220D01*
X86465123Y-101874657D01*
X86470605Y-101873086D01*
X86853233Y-101744318D01*
X86858563Y-101742250D01*
X87227946Y-101579332D01*
X87233053Y-101576797D01*
X87586145Y-101381075D01*
X87591024Y-101378074D01*
X87924916Y-101151162D01*
X87929487Y-101147742D01*
X88024826Y-101069431D01*
X88033286Y-101056999D01*
X88027036Y-101046143D01*
X85236812Y-98255919D01*
X85222868Y-98248305D01*
X85221035Y-98248436D01*
X85214420Y-98252687D01*
X82422275Y-101044832D01*
X82415203Y-101057783D01*
X79756000Y-101057783D01*
X79756000Y-97690638D01*
X80713964Y-97690638D01*
X80714163Y-97696343D01*
X80746540Y-98098753D01*
X80747258Y-98104430D01*
X80815970Y-98502229D01*
X80817201Y-98507829D01*
X80921689Y-98897786D01*
X80923413Y-98903219D01*
X81062817Y-99282108D01*
X81065025Y-99287362D01*
X81238192Y-99652050D01*
X81240877Y-99657099D01*
X81446390Y-100004606D01*
X81449500Y-100009358D01*
X81685670Y-100336814D01*
X81688005Y-100339761D01*
X81700872Y-100348001D01*
X81710784Y-100342109D01*
X84504081Y-97548812D01*
X84510459Y-97537132D01*
X85936305Y-97537132D01*
X85936436Y-97538965D01*
X85940687Y-97545580D01*
X88734029Y-100338922D01*
X88747475Y-100346264D01*
X88757312Y-100339344D01*
X88797611Y-100291656D01*
X88801097Y-100287130D01*
X89032659Y-99956424D01*
X89035716Y-99951608D01*
X89236350Y-99601281D01*
X89238962Y-99596199D01*
X89407020Y-99229127D01*
X89409159Y-99223834D01*
X89543255Y-98843047D01*
X89544908Y-98837573D01*
X89606827Y-98592871D01*
X90761821Y-98592871D01*
X90789106Y-98686787D01*
X90795353Y-98701223D01*
X90871912Y-98830678D01*
X90878189Y-98838770D01*
X90904139Y-98904854D01*
X90890241Y-98974477D01*
X90878189Y-98993230D01*
X90871912Y-99001322D01*
X90795353Y-99130777D01*
X90789106Y-99145213D01*
X90763426Y-99233605D01*
X90763466Y-99247705D01*
X90770736Y-99251000D01*
X91906885Y-99251000D01*
X91922124Y-99246525D01*
X91923329Y-99245135D01*
X91925000Y-99237452D01*
X91925000Y-98599115D01*
X91920525Y-98583876D01*
X91919135Y-98582671D01*
X91911452Y-98581000D01*
X90776487Y-98581000D01*
X90762956Y-98584973D01*
X90761821Y-98592871D01*
X89606827Y-98592871D01*
X89643939Y-98446206D01*
X89645090Y-98440600D01*
X89708245Y-98041854D01*
X89708880Y-98036192D01*
X89713701Y-97963605D01*
X90763426Y-97963605D01*
X90763466Y-97977705D01*
X90770736Y-97981000D01*
X91906885Y-97981000D01*
X91922124Y-97976525D01*
X91923329Y-97975135D01*
X91925000Y-97967452D01*
X91925000Y-97491116D01*
X91920525Y-97475877D01*
X91919135Y-97474672D01*
X91911452Y-97473001D01*
X91336017Y-97473001D01*
X91331080Y-97473195D01*
X91302664Y-97475430D01*
X91290069Y-97477730D01*
X91144210Y-97520107D01*
X91129779Y-97526352D01*
X91000322Y-97602911D01*
X90987896Y-97612551D01*
X90881551Y-97718896D01*
X90871911Y-97731322D01*
X90795353Y-97860777D01*
X90789106Y-97875213D01*
X90763426Y-97963605D01*
X89713701Y-97963605D01*
X89735709Y-97632260D01*
X89735843Y-97628753D01*
X89736796Y-97537773D01*
X89736734Y-97534225D01*
X89718371Y-97129843D01*
X89717855Y-97124165D01*
X89663063Y-96724177D01*
X89662036Y-96718577D01*
X89571216Y-96325198D01*
X89569682Y-96319702D01*
X89443588Y-95936183D01*
X89441558Y-95930841D01*
X89281226Y-95560336D01*
X89278722Y-95555202D01*
X89085471Y-95200752D01*
X89082508Y-95195861D01*
X88857929Y-94860387D01*
X88854534Y-94855784D01*
X88757112Y-94735478D01*
X88744854Y-94727010D01*
X88733764Y-94733343D01*
X85943919Y-97523188D01*
X85936305Y-97537132D01*
X84510459Y-97537132D01*
X84511695Y-97534868D01*
X84511564Y-97533035D01*
X84507313Y-97526420D01*
X81713862Y-94732969D01*
X81701423Y-94726177D01*
X81690209Y-94734544D01*
X81502139Y-94984120D01*
X81498906Y-94988843D01*
X81286173Y-95331946D01*
X81283379Y-95336946D01*
X81102624Y-95697905D01*
X81100290Y-95703147D01*
X80952992Y-96079009D01*
X80951149Y-96084422D01*
X80838517Y-96472103D01*
X80837175Y-96477653D01*
X80760142Y-96873952D01*
X80759309Y-96879593D01*
X80718512Y-97281234D01*
X80718192Y-97286958D01*
X80713964Y-97690638D01*
X79756000Y-97690638D01*
X79756000Y-94547102D01*
X79776002Y-94478981D01*
X79801446Y-94450215D01*
X80191965Y-94125528D01*
X82164984Y-92485113D01*
X82230153Y-92456943D01*
X82245538Y-92456000D01*
X86064850Y-92456000D01*
X86121658Y-92469533D01*
G37*
%TD.AperFunction*%
%TA.AperFunction,Conductor*%
G36*
X117870121Y-97172002D02*
G01*
X117916614Y-97225658D01*
X117928000Y-97278000D01*
X117928000Y-105572000D01*
X113404500Y-105572000D01*
X113404500Y-105173782D01*
X113394358Y-105104888D01*
X113342932Y-105000145D01*
X113260350Y-104917707D01*
X113155518Y-104866464D01*
X113125027Y-104862016D01*
X113091744Y-104857160D01*
X113091740Y-104857160D01*
X113087218Y-104856500D01*
X113048000Y-104856500D01*
X113048000Y-97278000D01*
X113068002Y-97209879D01*
X113121658Y-97163386D01*
X113174000Y-97152000D01*
X117802000Y-97152000D01*
X117870121Y-97172002D01*
G37*
%TD.AperFunction*%
M02*
