%TF.GenerationSoftware,KiCad,Pcbnew,6.0.0-rc2*%
%TF.CreationDate,2022-01-03T19:22:05-08:00*%
%TF.ProjectId,acorn-power-electronics,61636f72-6e2d-4706-9f77-65722d656c65,rev?*%
%TF.SameCoordinates,Original*%
%TF.FileFunction,Paste,Top*%
%TF.FilePolarity,Positive*%
%FSLAX46Y46*%
G04 Gerber Fmt 4.6, Leading zero omitted, Abs format (unit mm)*
G04 Created by KiCad (PCBNEW 6.0.0-rc2) date 2022-01-03 19:22:05*
%MOMM*%
%LPD*%
G01*
G04 APERTURE LIST*
G04 Aperture macros list*
%AMRoundRect*
0 Rectangle with rounded corners*
0 $1 Rounding radius*
0 $2 $3 $4 $5 $6 $7 $8 $9 X,Y pos of 4 corners*
0 Add a 4 corners polygon primitive as box body*
4,1,4,$2,$3,$4,$5,$6,$7,$8,$9,$2,$3,0*
0 Add four circle primitives for the rounded corners*
1,1,$1+$1,$2,$3*
1,1,$1+$1,$4,$5*
1,1,$1+$1,$6,$7*
1,1,$1+$1,$8,$9*
0 Add four rect primitives between the rounded corners*
20,1,$1+$1,$2,$3,$4,$5,0*
20,1,$1+$1,$4,$5,$6,$7,0*
20,1,$1+$1,$6,$7,$8,$9,0*
20,1,$1+$1,$8,$9,$2,$3,0*%
G04 Aperture macros list end*
%ADD10RoundRect,0.243750X-0.456250X0.243750X-0.456250X-0.243750X0.456250X-0.243750X0.456250X0.243750X0*%
%ADD11RoundRect,0.243750X0.243750X0.456250X-0.243750X0.456250X-0.243750X-0.456250X0.243750X-0.456250X0*%
%ADD12RoundRect,0.243750X-0.243750X-0.456250X0.243750X-0.456250X0.243750X0.456250X-0.243750X0.456250X0*%
%ADD13RoundRect,0.150000X-0.825000X-0.150000X0.825000X-0.150000X0.825000X0.150000X-0.825000X0.150000X0*%
%ADD14R,1.100000X0.250000*%
%ADD15R,5.250000X4.550000*%
%ADD16R,1.100000X4.600000*%
%ADD17RoundRect,0.250000X0.262500X0.450000X-0.262500X0.450000X-0.262500X-0.450000X0.262500X-0.450000X0*%
%ADD18RoundRect,0.150000X-0.662500X-0.150000X0.662500X-0.150000X0.662500X0.150000X-0.662500X0.150000X0*%
%ADD19RoundRect,0.150000X0.662500X0.150000X-0.662500X0.150000X-0.662500X-0.150000X0.662500X-0.150000X0*%
%ADD20R,1.000000X2.100000*%
%ADD21RoundRect,0.250000X0.450000X-0.262500X0.450000X0.262500X-0.450000X0.262500X-0.450000X-0.262500X0*%
%ADD22R,0.800000X0.900000*%
%ADD23RoundRect,0.250000X-0.262500X-0.450000X0.262500X-0.450000X0.262500X0.450000X-0.262500X0.450000X0*%
%ADD24R,0.900000X0.800000*%
%ADD25RoundRect,0.250000X-0.450000X0.262500X-0.450000X-0.262500X0.450000X-0.262500X0.450000X0.262500X0*%
G04 APERTURE END LIST*
D10*
X100200000Y-97562500D03*
X100200000Y-99437500D03*
D11*
X86437500Y-139000000D03*
X84562500Y-139000000D03*
D12*
X96546500Y-95500000D03*
X98421500Y-95500000D03*
X93921500Y-96000000D03*
X92046500Y-96000000D03*
X84562500Y-141400000D03*
X86437500Y-141400000D03*
D13*
X92225000Y-98281000D03*
X92225000Y-99551000D03*
X92225000Y-100821000D03*
X92225000Y-102091000D03*
X97175000Y-102091000D03*
X97175000Y-100821000D03*
X97175000Y-99551000D03*
X97175000Y-98281000D03*
D12*
X89762500Y-142400000D03*
X91637500Y-142400000D03*
X87500000Y-92000000D03*
X89375000Y-92000000D03*
D14*
X88350000Y-138500000D03*
X88350000Y-139000000D03*
X88350000Y-139500000D03*
X88350000Y-140000000D03*
X88350000Y-140500000D03*
X92650000Y-140500000D03*
X92650000Y-140000000D03*
X92650000Y-139500000D03*
X92650000Y-139000000D03*
X92650000Y-138500000D03*
D15*
X107189000Y-114232000D03*
X112739000Y-119082000D03*
X107189000Y-119082000D03*
X112739000Y-114232000D03*
D16*
X112504000Y-107507000D03*
X107424000Y-107507000D03*
D17*
X105444500Y-95110000D03*
X103619500Y-95110000D03*
D15*
X115055000Y-93838000D03*
X109505000Y-88988000D03*
X109505000Y-93838000D03*
X115055000Y-88988000D03*
D16*
X109740000Y-100563000D03*
X114820000Y-100563000D03*
D15*
X100239000Y-119082000D03*
X94689000Y-114232000D03*
X100239000Y-114232000D03*
X94689000Y-119082000D03*
D16*
X100004000Y-107507000D03*
X94924000Y-107507000D03*
D15*
X119689000Y-114256000D03*
X125239000Y-114256000D03*
X119689000Y-119106000D03*
X125239000Y-119106000D03*
D16*
X125004000Y-107531000D03*
X119924000Y-107531000D03*
D18*
X91812500Y-91865000D03*
X91812500Y-93135000D03*
X98187500Y-93135000D03*
X98187500Y-91865000D03*
D19*
X101187500Y-142135000D03*
X101187500Y-140865000D03*
X94812500Y-140865000D03*
X94812500Y-142135000D03*
D20*
X125410000Y-132620500D03*
X122870000Y-132620500D03*
X117790000Y-132620500D03*
X117790000Y-142720500D03*
X125410000Y-142720500D03*
D21*
X100892000Y-95512500D03*
X100892000Y-93687500D03*
D22*
X125768000Y-97536000D03*
X126718000Y-99536000D03*
X127668000Y-97536000D03*
D23*
X95087500Y-138600000D03*
X96912500Y-138600000D03*
D24*
X105002000Y-97028000D03*
X103002000Y-97978000D03*
X105002000Y-98928000D03*
D25*
X113000000Y-138587500D03*
X113000000Y-140412500D03*
X122968000Y-97603500D03*
X122968000Y-99428500D03*
M02*
