%TF.GenerationSoftware,KiCad,Pcbnew,6.0.0-rc2*%
%TF.CreationDate,2022-01-03T19:22:05-08:00*%
%TF.ProjectId,acorn-power-electronics,61636f72-6e2d-4706-9f77-65722d656c65,rev?*%
%TF.SameCoordinates,Original*%
%TF.FileFunction,Copper,L2,Bot*%
%TF.FilePolarity,Positive*%
%FSLAX46Y46*%
G04 Gerber Fmt 4.6, Leading zero omitted, Abs format (unit mm)*
G04 Created by KiCad (PCBNEW 6.0.0-rc2) date 2022-01-03 19:22:05*
%MOMM*%
%LPD*%
G01*
G04 APERTURE LIST*
G04 Aperture macros list*
%AMRoundRect*
0 Rectangle with rounded corners*
0 $1 Rounding radius*
0 $2 $3 $4 $5 $6 $7 $8 $9 X,Y pos of 4 corners*
0 Add a 4 corners polygon primitive as box body*
4,1,4,$2,$3,$4,$5,$6,$7,$8,$9,$2,$3,0*
0 Add four circle primitives for the rounded corners*
1,1,$1+$1,$2,$3*
1,1,$1+$1,$4,$5*
1,1,$1+$1,$6,$7*
1,1,$1+$1,$8,$9*
0 Add four rect primitives between the rounded corners*
20,1,$1+$1,$2,$3,$4,$5,0*
20,1,$1+$1,$4,$5,$6,$7,0*
20,1,$1+$1,$6,$7,$8,$9,0*
20,1,$1+$1,$8,$9,$2,$3,0*%
G04 Aperture macros list end*
%TA.AperFunction,ComponentPad*%
%ADD10C,8.000000*%
%TD*%
%TA.AperFunction,ComponentPad*%
%ADD11R,1.700000X1.700000*%
%TD*%
%TA.AperFunction,ComponentPad*%
%ADD12O,1.700000X1.700000*%
%TD*%
%TA.AperFunction,ComponentPad*%
%ADD13RoundRect,0.250000X0.620000X0.845000X-0.620000X0.845000X-0.620000X-0.845000X0.620000X-0.845000X0*%
%TD*%
%TA.AperFunction,ComponentPad*%
%ADD14O,1.740000X2.190000*%
%TD*%
%TA.AperFunction,ComponentPad*%
%ADD15C,5.000000*%
%TD*%
%TA.AperFunction,ViaPad*%
%ADD16C,0.600000*%
%TD*%
%TA.AperFunction,Conductor*%
%ADD17C,1.000000*%
%TD*%
%TA.AperFunction,Conductor*%
%ADD18C,0.250000*%
%TD*%
%TA.AperFunction,Conductor*%
%ADD19C,2.500000*%
%TD*%
%TA.AperFunction,Conductor*%
%ADD20C,0.800000*%
%TD*%
%TA.AperFunction,Conductor*%
%ADD21C,1.500000*%
%TD*%
G04 APERTURE END LIST*
D10*
X70224000Y-129540000D03*
X85224000Y-129540000D03*
D11*
X128000000Y-126125000D03*
D12*
X128000000Y-128665000D03*
X125460000Y-126125000D03*
X125460000Y-128665000D03*
X122920000Y-126125000D03*
X122920000Y-128665000D03*
X120380000Y-126125000D03*
X120380000Y-128665000D03*
X117840000Y-126125000D03*
X117840000Y-128665000D03*
X115300000Y-126125000D03*
X115300000Y-128665000D03*
X112760000Y-126125000D03*
X112760000Y-128665000D03*
X110220000Y-126125000D03*
X110220000Y-128665000D03*
X107680000Y-126125000D03*
X107680000Y-128665000D03*
X105140000Y-126125000D03*
X105140000Y-128665000D03*
D11*
X101400000Y-136875000D03*
D12*
X101400000Y-134335000D03*
D10*
X70224000Y-118872000D03*
X85224000Y-118872000D03*
X70200000Y-108204000D03*
X85200000Y-108204000D03*
X70224000Y-97536000D03*
X85224000Y-97536000D03*
D13*
X81000000Y-140520000D03*
D14*
X78460000Y-140520000D03*
X75920000Y-140520000D03*
X73380000Y-140520000D03*
D15*
X81000000Y-89500000D03*
X74000000Y-89500000D03*
D16*
X88750000Y-142000000D03*
X126250000Y-133000000D03*
X101000000Y-140000000D03*
X89500000Y-139000000D03*
X93000000Y-93000000D03*
X92964000Y-94488000D03*
X120750000Y-133500000D03*
X100457000Y-101854000D03*
X87250000Y-141750000D03*
X101500000Y-97750000D03*
X118750000Y-132500000D03*
X96400000Y-96800000D03*
X96400000Y-97600000D03*
X123698000Y-108204000D03*
X113538000Y-108204000D03*
X101092000Y-108204000D03*
X128524000Y-98552000D03*
X96530000Y-141732000D03*
X86500000Y-91750000D03*
X83900000Y-137200000D03*
X94030000Y-99830000D03*
X102108000Y-95800000D03*
X93000000Y-134500000D03*
X93500000Y-137250000D03*
X91750000Y-135000000D03*
X92250000Y-137500000D03*
X122400000Y-135600000D03*
X121600000Y-136400000D03*
D17*
X96000000Y-106800000D02*
X98800000Y-104000000D01*
X96000000Y-118200000D02*
X96000000Y-106800000D01*
X117846000Y-126125000D02*
X117846000Y-124046000D01*
X98800000Y-104000000D02*
X98800000Y-99600000D01*
X98800000Y-99600000D02*
X96400000Y-97200000D01*
X117846000Y-128665000D02*
X117846000Y-126125000D01*
X114400000Y-120600000D02*
X98400000Y-120600000D01*
X98400000Y-120600000D02*
X96000000Y-118200000D01*
X117846000Y-124046000D02*
X114400000Y-120600000D01*
D18*
X113538000Y-108204000D02*
X123698000Y-108204000D01*
X126698000Y-105204000D02*
X130556000Y-105204000D01*
X130556000Y-100584000D02*
X128524000Y-98552000D01*
X123698000Y-108204000D02*
X126698000Y-105204000D01*
X101092000Y-108204000D02*
X113538000Y-108204000D01*
X130556000Y-136144000D02*
X130556000Y-105204000D01*
X96530000Y-141732000D02*
X124968000Y-141732000D01*
X124968000Y-141732000D02*
X130556000Y-136144000D01*
X130556000Y-105204000D02*
X130556000Y-100584000D01*
X101369490Y-128739490D02*
X105071510Y-128739490D01*
X93800000Y-121170000D02*
X101369490Y-128739490D01*
X105071510Y-128739490D02*
X105146000Y-128665000D01*
X96250000Y-99866807D02*
X93800000Y-102316807D01*
X88133193Y-91750000D02*
X96250000Y-99866807D01*
X86500000Y-91750000D02*
X88133193Y-91750000D01*
X93800000Y-102316807D02*
X93800000Y-121170000D01*
X90920000Y-99830000D02*
X90000000Y-100750000D01*
X90000000Y-100750000D02*
X90000000Y-132750000D01*
X85550000Y-137200000D02*
X83900000Y-137200000D01*
X90000000Y-132750000D02*
X85550000Y-137200000D01*
X94030000Y-99830000D02*
X90920000Y-99830000D01*
X84200000Y-86400000D02*
X77100000Y-86400000D01*
D19*
X75920000Y-140520000D02*
X75920000Y-140330000D01*
D18*
X87400000Y-89600000D02*
X84200000Y-86400000D01*
D19*
X70224000Y-134634000D02*
X70224000Y-129540000D01*
D18*
X102108000Y-95800000D02*
X100508000Y-94200000D01*
D19*
X75920000Y-140330000D02*
X70224000Y-134634000D01*
D18*
X100508000Y-94200000D02*
X97000000Y-94200000D01*
X92400000Y-89600000D02*
X87400000Y-89600000D01*
D19*
X73380000Y-132696000D02*
X70224000Y-129540000D01*
D20*
X112766000Y-126125000D02*
X112766000Y-128665000D01*
D19*
X75920000Y-140520000D02*
X73380000Y-140520000D01*
X73380000Y-140520000D02*
X73380000Y-132696000D01*
D18*
X97000000Y-94200000D02*
X92400000Y-89600000D01*
X77100000Y-86400000D02*
X74000000Y-89500000D01*
X93000000Y-136750000D02*
X93500000Y-137250000D01*
X93000000Y-134500000D02*
X93000000Y-136750000D01*
X91750000Y-137000000D02*
X92250000Y-137500000D01*
X91750000Y-135000000D02*
X91750000Y-137000000D01*
D20*
X105400000Y-133000000D02*
X115600000Y-133000000D01*
X122400000Y-135600000D02*
X121600000Y-136400000D01*
X101525000Y-136875000D02*
X105400000Y-133000000D01*
X119000000Y-136400000D02*
X121600000Y-136400000D01*
X115600000Y-133000000D02*
X119000000Y-136400000D01*
X101400000Y-136875000D02*
X101525000Y-136875000D01*
D19*
X77500000Y-136000000D02*
X79250000Y-137750000D01*
D21*
X78460000Y-140520000D02*
X78460000Y-138540000D01*
D19*
X79250000Y-137750000D02*
X81000000Y-139500000D01*
D21*
X78460000Y-140520000D02*
X81000000Y-140520000D01*
D19*
X81000000Y-89500000D02*
X77500000Y-93000000D01*
D21*
X78460000Y-138540000D02*
X79250000Y-137750000D01*
D19*
X77500000Y-93000000D02*
X77500000Y-136000000D01*
X81000000Y-139500000D02*
X81000000Y-140520000D01*
%TA.AperFunction,Conductor*%
G36*
X126982247Y-85851551D02*
G01*
X127000000Y-85854363D01*
X127009793Y-85852812D01*
X127011100Y-85852812D01*
X127034266Y-85851496D01*
X127399779Y-85867455D01*
X127410727Y-85868413D01*
X127802021Y-85919927D01*
X127812829Y-85921833D01*
X128198137Y-86007254D01*
X128208754Y-86010099D01*
X128585151Y-86128776D01*
X128595464Y-86132529D01*
X128960108Y-86283570D01*
X128970052Y-86288208D01*
X129143717Y-86378612D01*
X129320117Y-86470440D01*
X129329637Y-86475936D01*
X129662485Y-86687984D01*
X129671489Y-86694288D01*
X129955746Y-86912405D01*
X129984603Y-86934548D01*
X129993020Y-86941612D01*
X130242924Y-87170605D01*
X130283991Y-87208236D01*
X130291760Y-87216005D01*
X130494071Y-87436789D01*
X130558386Y-87506977D01*
X130565449Y-87515394D01*
X130685582Y-87671954D01*
X130805712Y-87828511D01*
X130812016Y-87837515D01*
X130884635Y-87951504D01*
X131008353Y-88145701D01*
X131024064Y-88170363D01*
X131029559Y-88179882D01*
X131183762Y-88476101D01*
X131211788Y-88529939D01*
X131216430Y-88539892D01*
X131367468Y-88904528D01*
X131371224Y-88914849D01*
X131472781Y-89236946D01*
X131489901Y-89291245D01*
X131492746Y-89301862D01*
X131575801Y-89676497D01*
X131578165Y-89687162D01*
X131580073Y-89697979D01*
X131624987Y-90039142D01*
X131631587Y-90089272D01*
X131632545Y-90100221D01*
X131648426Y-90463940D01*
X131648504Y-90465730D01*
X131647188Y-90488900D01*
X131647188Y-90490207D01*
X131645637Y-90500000D01*
X131647188Y-90509792D01*
X131648449Y-90517754D01*
X131650000Y-90537465D01*
X131650000Y-139486535D01*
X131648449Y-139506246D01*
X131645637Y-139524000D01*
X131647188Y-139533793D01*
X131647188Y-139535100D01*
X131648504Y-139558266D01*
X131638336Y-139791141D01*
X131632545Y-139923778D01*
X131631587Y-139934728D01*
X131580074Y-140326013D01*
X131578167Y-140336829D01*
X131537559Y-140520000D01*
X131492746Y-140722137D01*
X131489901Y-140732754D01*
X131379833Y-141081849D01*
X131371227Y-141109143D01*
X131367471Y-141119464D01*
X131223340Y-141467427D01*
X131216434Y-141484099D01*
X131211792Y-141494052D01*
X131041536Y-141821111D01*
X131029560Y-141844117D01*
X131024065Y-141853635D01*
X131004396Y-141884509D01*
X130812016Y-142186485D01*
X130805712Y-142195489D01*
X130565452Y-142508603D01*
X130558386Y-142517023D01*
X130291764Y-142807991D01*
X130283991Y-142815764D01*
X129993023Y-143082386D01*
X129984603Y-143089452D01*
X129671489Y-143329712D01*
X129662485Y-143336016D01*
X129329637Y-143548064D01*
X129320118Y-143553559D01*
X128970052Y-143735792D01*
X128960108Y-143740430D01*
X128595464Y-143891471D01*
X128585151Y-143895224D01*
X128231689Y-144006670D01*
X128208755Y-144013901D01*
X128198138Y-144016746D01*
X127812829Y-144102167D01*
X127802021Y-144104073D01*
X127422798Y-144153998D01*
X127410728Y-144155587D01*
X127399779Y-144156545D01*
X127034266Y-144172504D01*
X127011100Y-144171188D01*
X127009793Y-144171188D01*
X127000000Y-144169637D01*
X126990208Y-144171188D01*
X126982246Y-144172449D01*
X126962535Y-144174000D01*
X76264219Y-144174000D01*
X76196098Y-144153998D01*
X76149605Y-144100342D01*
X76138219Y-144047728D01*
X76138891Y-143735788D01*
X76142177Y-142211693D01*
X76162325Y-142143620D01*
X76216081Y-142097243D01*
X76238758Y-142089451D01*
X76416111Y-142046873D01*
X76420684Y-142044979D01*
X76644285Y-141952361D01*
X76644289Y-141952359D01*
X76648859Y-141950466D01*
X76863659Y-141818836D01*
X76867419Y-141815624D01*
X76867424Y-141815621D01*
X77051462Y-141658437D01*
X77055224Y-141655224D01*
X77148747Y-141545723D01*
X77215618Y-141467427D01*
X77215619Y-141467426D01*
X77218836Y-141463659D01*
X77236912Y-141434163D01*
X77289559Y-141386534D01*
X77359600Y-141374928D01*
X77424798Y-141403032D01*
X77446663Y-141426473D01*
X77532353Y-141545723D01*
X77688810Y-141697340D01*
X77869643Y-141818855D01*
X77992686Y-141872867D01*
X78019207Y-141884509D01*
X78069137Y-141906427D01*
X78074595Y-141907737D01*
X78074594Y-141907737D01*
X78260467Y-141952361D01*
X78280985Y-141957287D01*
X78363910Y-141962068D01*
X78492885Y-141969505D01*
X78492888Y-141969505D01*
X78498492Y-141969828D01*
X78714782Y-141943654D01*
X78923019Y-141879592D01*
X78927999Y-141877022D01*
X78928003Y-141877020D01*
X79111637Y-141782239D01*
X79111638Y-141782239D01*
X79116620Y-141779667D01*
X79289466Y-141647038D01*
X79290996Y-141649032D01*
X79345130Y-141622363D01*
X79366715Y-141620500D01*
X79757001Y-141620500D01*
X79825122Y-141640502D01*
X79856964Y-141669796D01*
X79951718Y-141793282D01*
X80077159Y-141889536D01*
X80223238Y-141950044D01*
X80231425Y-141951122D01*
X80231426Y-141951122D01*
X80275520Y-141956927D01*
X80307292Y-141965440D01*
X80469460Y-142032612D01*
X80503889Y-142046873D01*
X80532147Y-142053657D01*
X80744039Y-142104528D01*
X80744045Y-142104529D01*
X80748852Y-142105683D01*
X81000000Y-142125449D01*
X81251148Y-142105683D01*
X81255955Y-142104529D01*
X81255961Y-142104528D01*
X81467853Y-142053657D01*
X81496111Y-142046873D01*
X81522847Y-142035799D01*
X81692711Y-141965439D01*
X81724484Y-141956926D01*
X81768575Y-141951122D01*
X81768577Y-141951121D01*
X81776762Y-141950044D01*
X81922841Y-141889536D01*
X82048282Y-141793282D01*
X82100571Y-141725138D01*
X95874758Y-141725138D01*
X95892035Y-141881633D01*
X95946143Y-142029490D01*
X95950380Y-142035796D01*
X95950382Y-142035799D01*
X95980803Y-142081070D01*
X96033958Y-142160172D01*
X96150410Y-142266135D01*
X96171885Y-142277795D01*
X96282099Y-142337637D01*
X96282101Y-142337638D01*
X96288776Y-142341262D01*
X96296125Y-142343190D01*
X96433719Y-142379287D01*
X96433721Y-142379287D01*
X96441069Y-142381215D01*
X96524380Y-142382524D01*
X96590898Y-142383569D01*
X96590901Y-142383569D01*
X96598495Y-142383688D01*
X96751968Y-142348538D01*
X96892625Y-142277795D01*
X96939584Y-142237688D01*
X97004372Y-142208658D01*
X97021413Y-142207500D01*
X124900627Y-142207500D01*
X124911723Y-142208739D01*
X124911771Y-142208141D01*
X124920717Y-142208861D01*
X124929473Y-142210842D01*
X124979441Y-142207742D01*
X124987242Y-142207500D01*
X125002145Y-142207500D01*
X125011514Y-142206158D01*
X125021566Y-142205129D01*
X125065417Y-142202408D01*
X125073862Y-142199359D01*
X125080098Y-142198068D01*
X125087849Y-142196135D01*
X125093938Y-142194354D01*
X125102829Y-142193081D01*
X125114751Y-142187660D01*
X125142836Y-142174892D01*
X125152201Y-142171080D01*
X125185083Y-142159209D01*
X125185086Y-142159207D01*
X125193530Y-142156159D01*
X125200777Y-142150864D01*
X125206407Y-142147871D01*
X125213257Y-142143868D01*
X125218644Y-142140423D01*
X125226820Y-142136706D01*
X125233621Y-142130846D01*
X125260113Y-142108019D01*
X125268029Y-142101734D01*
X125274101Y-142097298D01*
X125274108Y-142097292D01*
X125278035Y-142094423D01*
X125288076Y-142084382D01*
X125294923Y-142078024D01*
X125330004Y-142047796D01*
X125334888Y-142040261D01*
X125340787Y-142033499D01*
X125340867Y-142033569D01*
X125349252Y-142023206D01*
X130844586Y-136527872D01*
X130853312Y-136520900D01*
X130852923Y-136520442D01*
X130859757Y-136514626D01*
X130867350Y-136509835D01*
X130900506Y-136472293D01*
X130905852Y-136466606D01*
X130916373Y-136456085D01*
X130922048Y-136448513D01*
X130928424Y-136440682D01*
X130951570Y-136414474D01*
X130957513Y-136407745D01*
X130961329Y-136399618D01*
X130964834Y-136394281D01*
X130968936Y-136387454D01*
X130971991Y-136381875D01*
X130977372Y-136374695D01*
X130980521Y-136366294D01*
X130980523Y-136366291D01*
X130992798Y-136333545D01*
X130996727Y-136324222D01*
X131011585Y-136292577D01*
X131011586Y-136292572D01*
X131015399Y-136284452D01*
X131016780Y-136275584D01*
X131018633Y-136269523D01*
X131020667Y-136261771D01*
X131022032Y-136255564D01*
X131025183Y-136247157D01*
X131028439Y-136203339D01*
X131029593Y-136193291D01*
X131030750Y-136185858D01*
X131031500Y-136181044D01*
X131031500Y-136166834D01*
X131031846Y-136157496D01*
X131034612Y-136120274D01*
X131035277Y-136111326D01*
X131033404Y-136102550D01*
X131032793Y-136093593D01*
X131032899Y-136093586D01*
X131031500Y-136080333D01*
X131031500Y-105212095D01*
X131031502Y-105211325D01*
X131031922Y-105142532D01*
X131031945Y-105138804D01*
X131031581Y-105137531D01*
X131031500Y-105136340D01*
X131031500Y-100651373D01*
X131032739Y-100640277D01*
X131032141Y-100640229D01*
X131032861Y-100631283D01*
X131034842Y-100622527D01*
X131031742Y-100572559D01*
X131031500Y-100564758D01*
X131031500Y-100549855D01*
X131030158Y-100540486D01*
X131029128Y-100530427D01*
X131026964Y-100495544D01*
X131026408Y-100486583D01*
X131023359Y-100478138D01*
X131022068Y-100471902D01*
X131020135Y-100464151D01*
X131018354Y-100458062D01*
X131017081Y-100449171D01*
X131007180Y-100427394D01*
X130998892Y-100409164D01*
X130995080Y-100399799D01*
X130983209Y-100366917D01*
X130983207Y-100366914D01*
X130980159Y-100358470D01*
X130974864Y-100351223D01*
X130971871Y-100345593D01*
X130967868Y-100338743D01*
X130964423Y-100333356D01*
X130960706Y-100325180D01*
X130932019Y-100291887D01*
X130925734Y-100283971D01*
X130921298Y-100277899D01*
X130921292Y-100277892D01*
X130918423Y-100273965D01*
X130908382Y-100263924D01*
X130902024Y-100257077D01*
X130877657Y-100228798D01*
X130871796Y-100221996D01*
X130864261Y-100217112D01*
X130857499Y-100211213D01*
X130857569Y-100211133D01*
X130847206Y-100202748D01*
X129207678Y-98563220D01*
X129173652Y-98500908D01*
X129171686Y-98489262D01*
X129161275Y-98403234D01*
X129160363Y-98395694D01*
X129104710Y-98248412D01*
X129015531Y-98118657D01*
X128968971Y-98077174D01*
X128903648Y-98018972D01*
X128903645Y-98018970D01*
X128897976Y-98013919D01*
X128758831Y-97940245D01*
X128742122Y-97936048D01*
X128613498Y-97903740D01*
X128613496Y-97903740D01*
X128606128Y-97901889D01*
X128598530Y-97901849D01*
X128598528Y-97901849D01*
X128531319Y-97901497D01*
X128448684Y-97901065D01*
X128441305Y-97902837D01*
X128441301Y-97902837D01*
X128302967Y-97936048D01*
X128302963Y-97936049D01*
X128295588Y-97937820D01*
X128155679Y-98010032D01*
X128149957Y-98015024D01*
X128149955Y-98015025D01*
X128042759Y-98108538D01*
X128042756Y-98108541D01*
X128037034Y-98113533D01*
X128032667Y-98119747D01*
X127963917Y-98217568D01*
X127946501Y-98242348D01*
X127889309Y-98389039D01*
X127888318Y-98396568D01*
X127870428Y-98532455D01*
X127868758Y-98545138D01*
X127886035Y-98701633D01*
X127940143Y-98849490D01*
X128027958Y-98980172D01*
X128144410Y-99086135D01*
X128151085Y-99089759D01*
X128276099Y-99157637D01*
X128276101Y-99157638D01*
X128282776Y-99161262D01*
X128290125Y-99163190D01*
X128427719Y-99199287D01*
X128427721Y-99199287D01*
X128435069Y-99201215D01*
X128447229Y-99201406D01*
X128450779Y-99201462D01*
X128518577Y-99222532D01*
X128537893Y-99238351D01*
X130043595Y-100744053D01*
X130077621Y-100806365D01*
X130080500Y-100833148D01*
X130080500Y-104602500D01*
X130060498Y-104670621D01*
X130006842Y-104717114D01*
X129954500Y-104728500D01*
X126765373Y-104728500D01*
X126754277Y-104727261D01*
X126754229Y-104727859D01*
X126745283Y-104727139D01*
X126736527Y-104725158D01*
X126692986Y-104727859D01*
X126686554Y-104728258D01*
X126678753Y-104728500D01*
X126663855Y-104728500D01*
X126654492Y-104729841D01*
X126644442Y-104730870D01*
X126624984Y-104732077D01*
X126609542Y-104733035D01*
X126609540Y-104733035D01*
X126600584Y-104733591D01*
X126592144Y-104736638D01*
X126585897Y-104737932D01*
X126578191Y-104739853D01*
X126572056Y-104741647D01*
X126563171Y-104742919D01*
X126555000Y-104746634D01*
X126523168Y-104761107D01*
X126513802Y-104764920D01*
X126472471Y-104779841D01*
X126465225Y-104785135D01*
X126459588Y-104788132D01*
X126452735Y-104792137D01*
X126447356Y-104795577D01*
X126439180Y-104799294D01*
X126432378Y-104805155D01*
X126405891Y-104827978D01*
X126397987Y-104834255D01*
X126387965Y-104841576D01*
X126377917Y-104851624D01*
X126371070Y-104857982D01*
X126335996Y-104888204D01*
X126331112Y-104895739D01*
X126325213Y-104902501D01*
X126325133Y-104902431D01*
X126316750Y-104912791D01*
X125002867Y-106226675D01*
X123713375Y-107516167D01*
X123651063Y-107550192D01*
X123637748Y-107551588D01*
X123637823Y-107552232D01*
X123630278Y-107553105D01*
X123622684Y-107553065D01*
X123615305Y-107554837D01*
X123615301Y-107554837D01*
X123476967Y-107588048D01*
X123476963Y-107588049D01*
X123469588Y-107589820D01*
X123329679Y-107662032D01*
X123323960Y-107667021D01*
X123289080Y-107697449D01*
X123224598Y-107727157D01*
X123206250Y-107728500D01*
X114030203Y-107728500D01*
X113962082Y-107708498D01*
X113946393Y-107696584D01*
X113911976Y-107665919D01*
X113898061Y-107658551D01*
X113779543Y-107595799D01*
X113779544Y-107595799D01*
X113772831Y-107592245D01*
X113756122Y-107588048D01*
X113627498Y-107555740D01*
X113627496Y-107555740D01*
X113620128Y-107553889D01*
X113612530Y-107553849D01*
X113612528Y-107553849D01*
X113545319Y-107553497D01*
X113462684Y-107553065D01*
X113455305Y-107554837D01*
X113455301Y-107554837D01*
X113316967Y-107588048D01*
X113316963Y-107588049D01*
X113309588Y-107589820D01*
X113169679Y-107662032D01*
X113163960Y-107667021D01*
X113129080Y-107697449D01*
X113064598Y-107727157D01*
X113046250Y-107728500D01*
X101584203Y-107728500D01*
X101516082Y-107708498D01*
X101500393Y-107696584D01*
X101465976Y-107665919D01*
X101452061Y-107658551D01*
X101333543Y-107595799D01*
X101333544Y-107595799D01*
X101326831Y-107592245D01*
X101310122Y-107588048D01*
X101181498Y-107555740D01*
X101181496Y-107555740D01*
X101174128Y-107553889D01*
X101166530Y-107553849D01*
X101166528Y-107553849D01*
X101099319Y-107553497D01*
X101016684Y-107553065D01*
X101009305Y-107554837D01*
X101009301Y-107554837D01*
X100870967Y-107588048D01*
X100870963Y-107588049D01*
X100863588Y-107589820D01*
X100723679Y-107662032D01*
X100717957Y-107667024D01*
X100717955Y-107667025D01*
X100610759Y-107760538D01*
X100610756Y-107760541D01*
X100605034Y-107765533D01*
X100514501Y-107894348D01*
X100457309Y-108041039D01*
X100436758Y-108197138D01*
X100454035Y-108353633D01*
X100508143Y-108501490D01*
X100512380Y-108507796D01*
X100512382Y-108507799D01*
X100552709Y-108567811D01*
X100595958Y-108632172D01*
X100712410Y-108738135D01*
X100733885Y-108749795D01*
X100844099Y-108809637D01*
X100844101Y-108809638D01*
X100850776Y-108813262D01*
X100858125Y-108815190D01*
X100995719Y-108851287D01*
X100995721Y-108851287D01*
X101003069Y-108853215D01*
X101086380Y-108854524D01*
X101152898Y-108855569D01*
X101152901Y-108855569D01*
X101160495Y-108855688D01*
X101313968Y-108820538D01*
X101454625Y-108749795D01*
X101501584Y-108709688D01*
X101566372Y-108680658D01*
X101583413Y-108679500D01*
X113045224Y-108679500D01*
X113113345Y-108699502D01*
X113130023Y-108712306D01*
X113152789Y-108733021D01*
X113152793Y-108733024D01*
X113158410Y-108738135D01*
X113179885Y-108749795D01*
X113290099Y-108809637D01*
X113290101Y-108809638D01*
X113296776Y-108813262D01*
X113304125Y-108815190D01*
X113441719Y-108851287D01*
X113441721Y-108851287D01*
X113449069Y-108853215D01*
X113532380Y-108854524D01*
X113598898Y-108855569D01*
X113598901Y-108855569D01*
X113606495Y-108855688D01*
X113759968Y-108820538D01*
X113900625Y-108749795D01*
X113947584Y-108709688D01*
X114012372Y-108680658D01*
X114029413Y-108679500D01*
X123205224Y-108679500D01*
X123273345Y-108699502D01*
X123290023Y-108712306D01*
X123312789Y-108733021D01*
X123312793Y-108733024D01*
X123318410Y-108738135D01*
X123339885Y-108749795D01*
X123450099Y-108809637D01*
X123450101Y-108809638D01*
X123456776Y-108813262D01*
X123464125Y-108815190D01*
X123601719Y-108851287D01*
X123601721Y-108851287D01*
X123609069Y-108853215D01*
X123692380Y-108854524D01*
X123758898Y-108855569D01*
X123758901Y-108855569D01*
X123766495Y-108855688D01*
X123919968Y-108820538D01*
X124060625Y-108749795D01*
X124119511Y-108699502D01*
X124174574Y-108652474D01*
X124174576Y-108652471D01*
X124180348Y-108647542D01*
X124272224Y-108519683D01*
X124330950Y-108373598D01*
X124346613Y-108263538D01*
X124376013Y-108198916D01*
X124382261Y-108192197D01*
X126858054Y-105716405D01*
X126920366Y-105682379D01*
X126947149Y-105679500D01*
X129954500Y-105679500D01*
X130022621Y-105699502D01*
X130069114Y-105753158D01*
X130080500Y-105805500D01*
X130080500Y-135894852D01*
X130060498Y-135962973D01*
X130043595Y-135983947D01*
X124807947Y-141219595D01*
X124745635Y-141253621D01*
X124718852Y-141256500D01*
X97022203Y-141256500D01*
X96954082Y-141236498D01*
X96938393Y-141224584D01*
X96903976Y-141193919D01*
X96764831Y-141120245D01*
X96720632Y-141109143D01*
X96619498Y-141083740D01*
X96619496Y-141083740D01*
X96612128Y-141081889D01*
X96604530Y-141081849D01*
X96604528Y-141081849D01*
X96537319Y-141081497D01*
X96454684Y-141081065D01*
X96447305Y-141082837D01*
X96447301Y-141082837D01*
X96308967Y-141116048D01*
X96308963Y-141116049D01*
X96301588Y-141117820D01*
X96161679Y-141190032D01*
X96155957Y-141195024D01*
X96155955Y-141195025D01*
X96048759Y-141288538D01*
X96048756Y-141288541D01*
X96043034Y-141293533D01*
X96038667Y-141299747D01*
X95966077Y-141403032D01*
X95952501Y-141422348D01*
X95895309Y-141569039D01*
X95894318Y-141576568D01*
X95878418Y-141697340D01*
X95874758Y-141725138D01*
X82100571Y-141725138D01*
X82144536Y-141667841D01*
X82155814Y-141640613D01*
X82176412Y-141607000D01*
X82295621Y-141467425D01*
X82295629Y-141467413D01*
X82298836Y-141463659D01*
X82430466Y-141248859D01*
X82440525Y-141224576D01*
X82524979Y-141020684D01*
X82524980Y-141020682D01*
X82526873Y-141016111D01*
X82585683Y-140771148D01*
X82600500Y-140582882D01*
X82600500Y-139567841D01*
X82600888Y-139557955D01*
X82605061Y-139504930D01*
X82605449Y-139500000D01*
X82585684Y-139248852D01*
X82526874Y-139003889D01*
X82490295Y-138915579D01*
X82432361Y-138775715D01*
X82432359Y-138775711D01*
X82430466Y-138771141D01*
X82298836Y-138556341D01*
X82295629Y-138552586D01*
X82295626Y-138552582D01*
X82266852Y-138518893D01*
X82138439Y-138368540D01*
X82138437Y-138368538D01*
X82135224Y-138364776D01*
X82091009Y-138327012D01*
X82083756Y-138320307D01*
X79137405Y-135373956D01*
X79103379Y-135311644D01*
X79100500Y-135284861D01*
X79100500Y-108067193D01*
X80846716Y-108067193D01*
X80853161Y-108477480D01*
X80898190Y-108885340D01*
X80981401Y-109287152D01*
X80982274Y-109289988D01*
X80982274Y-109289990D01*
X81096824Y-109662339D01*
X81102057Y-109679350D01*
X81259086Y-110058453D01*
X81451096Y-110421096D01*
X81452721Y-110423570D01*
X81452727Y-110423580D01*
X81657299Y-110735010D01*
X81676381Y-110764059D01*
X81932941Y-111084300D01*
X81934999Y-111086423D01*
X81935001Y-111086426D01*
X82216441Y-111376849D01*
X82216449Y-111376857D01*
X82218501Y-111378974D01*
X82530524Y-111645467D01*
X82866242Y-111881414D01*
X83046440Y-111984197D01*
X83220099Y-112083250D01*
X83220104Y-112083253D01*
X83222675Y-112084719D01*
X83596658Y-112253579D01*
X83984873Y-112386495D01*
X83987747Y-112387185D01*
X83987754Y-112387187D01*
X84380994Y-112481595D01*
X84380998Y-112481596D01*
X84383873Y-112482286D01*
X84386806Y-112482703D01*
X84386809Y-112482704D01*
X84584466Y-112510834D01*
X84790118Y-112540103D01*
X85200000Y-112559433D01*
X85609882Y-112540103D01*
X85815534Y-112510834D01*
X86013191Y-112482704D01*
X86013194Y-112482703D01*
X86016127Y-112482286D01*
X86019002Y-112481596D01*
X86019006Y-112481595D01*
X86412246Y-112387187D01*
X86412253Y-112387185D01*
X86415127Y-112386495D01*
X86803342Y-112253579D01*
X87177325Y-112084719D01*
X87179896Y-112083253D01*
X87179901Y-112083250D01*
X87353560Y-111984197D01*
X87533758Y-111881414D01*
X87869476Y-111645467D01*
X88181499Y-111378974D01*
X88183551Y-111376857D01*
X88183559Y-111376849D01*
X88464999Y-111086426D01*
X88465001Y-111086423D01*
X88467059Y-111084300D01*
X88723619Y-110764059D01*
X88742701Y-110735010D01*
X88947273Y-110423580D01*
X88947279Y-110423570D01*
X88948904Y-110421096D01*
X89140914Y-110058453D01*
X89282091Y-109717620D01*
X89326639Y-109662339D01*
X89394003Y-109639918D01*
X89462794Y-109657476D01*
X89511172Y-109709438D01*
X89524500Y-109765838D01*
X89524500Y-117244533D01*
X89504498Y-117312654D01*
X89450842Y-117359147D01*
X89380568Y-117369251D01*
X89315988Y-117339757D01*
X89279293Y-117285347D01*
X89274537Y-117271455D01*
X89274534Y-117271448D01*
X89273579Y-117268658D01*
X89104719Y-116894675D01*
X88901414Y-116538242D01*
X88665467Y-116202524D01*
X88576298Y-116098120D01*
X88400899Y-115892755D01*
X88398974Y-115890501D01*
X88396857Y-115888449D01*
X88396849Y-115888441D01*
X88106426Y-115607001D01*
X88106423Y-115606999D01*
X88104300Y-115604941D01*
X87784059Y-115348381D01*
X87664288Y-115269706D01*
X87443580Y-115124727D01*
X87443570Y-115124721D01*
X87441096Y-115123096D01*
X87078453Y-114931086D01*
X86699350Y-114774057D01*
X86696527Y-114773189D01*
X86696520Y-114773186D01*
X86309990Y-114654274D01*
X86309988Y-114654274D01*
X86307152Y-114653401D01*
X86304249Y-114652800D01*
X86304242Y-114652798D01*
X85908259Y-114570794D01*
X85908249Y-114570792D01*
X85905340Y-114570190D01*
X85497480Y-114525161D01*
X85494499Y-114525114D01*
X85494496Y-114525114D01*
X85378926Y-114523299D01*
X85087193Y-114518716D01*
X85084249Y-114518948D01*
X85084239Y-114518948D01*
X84692286Y-114549796D01*
X84678119Y-114550911D01*
X84273892Y-114621460D01*
X84271025Y-114622244D01*
X84271013Y-114622247D01*
X83880961Y-114728953D01*
X83880951Y-114728956D01*
X83878097Y-114729737D01*
X83875333Y-114730781D01*
X83875322Y-114730785D01*
X83497022Y-114873733D01*
X83494249Y-114874781D01*
X83125754Y-115055305D01*
X82775884Y-115269706D01*
X82447743Y-115516081D01*
X82144244Y-115792244D01*
X81868081Y-116095743D01*
X81866299Y-116098116D01*
X81866296Y-116098120D01*
X81786086Y-116204950D01*
X81621706Y-116423884D01*
X81407305Y-116773754D01*
X81226781Y-117142249D01*
X81225734Y-117145019D01*
X81225733Y-117145022D01*
X81082785Y-117523322D01*
X81082781Y-117523333D01*
X81081737Y-117526097D01*
X81080956Y-117528951D01*
X81080953Y-117528961D01*
X80974247Y-117919013D01*
X80974244Y-117919025D01*
X80973460Y-117921892D01*
X80902911Y-118326119D01*
X80902679Y-118329067D01*
X80872129Y-118717244D01*
X80870716Y-118735193D01*
X80877161Y-119145480D01*
X80922190Y-119553340D01*
X80922792Y-119556249D01*
X80922794Y-119556259D01*
X81000523Y-119931598D01*
X81005401Y-119955152D01*
X81126057Y-120347350D01*
X81283086Y-120726453D01*
X81475096Y-121089096D01*
X81476721Y-121091570D01*
X81476727Y-121091580D01*
X81630344Y-121325438D01*
X81700381Y-121432059D01*
X81956941Y-121752300D01*
X81958999Y-121754423D01*
X81959001Y-121754426D01*
X82240441Y-122044849D01*
X82240449Y-122044857D01*
X82242501Y-122046974D01*
X82554524Y-122313467D01*
X82890242Y-122549414D01*
X83070440Y-122652197D01*
X83244099Y-122751250D01*
X83244104Y-122751253D01*
X83246675Y-122752719D01*
X83620658Y-122921579D01*
X84008873Y-123054495D01*
X84011747Y-123055185D01*
X84011754Y-123055187D01*
X84404994Y-123149595D01*
X84404998Y-123149596D01*
X84407873Y-123150286D01*
X84410806Y-123150703D01*
X84410809Y-123150704D01*
X84608466Y-123178834D01*
X84814118Y-123208103D01*
X85224000Y-123227433D01*
X85633882Y-123208103D01*
X85839534Y-123178834D01*
X86037191Y-123150704D01*
X86037194Y-123150703D01*
X86040127Y-123150286D01*
X86043002Y-123149596D01*
X86043006Y-123149595D01*
X86436246Y-123055187D01*
X86436253Y-123055185D01*
X86439127Y-123054495D01*
X86827342Y-122921579D01*
X87201325Y-122752719D01*
X87203896Y-122751253D01*
X87203901Y-122751250D01*
X87377560Y-122652197D01*
X87557758Y-122549414D01*
X87893476Y-122313467D01*
X88205499Y-122046974D01*
X88207551Y-122044857D01*
X88207559Y-122044849D01*
X88488999Y-121754426D01*
X88489001Y-121754423D01*
X88491059Y-121752300D01*
X88747619Y-121432059D01*
X88817656Y-121325438D01*
X88971273Y-121091580D01*
X88971279Y-121091570D01*
X88972904Y-121089096D01*
X89164914Y-120726453D01*
X89282091Y-120443562D01*
X89326639Y-120388281D01*
X89394003Y-120365860D01*
X89462794Y-120383418D01*
X89511172Y-120435380D01*
X89524500Y-120491780D01*
X89524500Y-127912533D01*
X89504498Y-127980654D01*
X89450842Y-128027147D01*
X89380568Y-128037251D01*
X89315988Y-128007757D01*
X89279293Y-127953347D01*
X89274537Y-127939455D01*
X89274534Y-127939448D01*
X89273579Y-127936658D01*
X89104719Y-127562675D01*
X89087920Y-127533222D01*
X88972071Y-127330117D01*
X88901414Y-127206242D01*
X88665467Y-126870524D01*
X88631728Y-126831020D01*
X88400899Y-126560755D01*
X88398974Y-126558501D01*
X88396857Y-126556449D01*
X88396849Y-126556441D01*
X88106426Y-126275001D01*
X88106423Y-126274999D01*
X88104300Y-126272941D01*
X87784059Y-126016381D01*
X87664288Y-125937706D01*
X87443580Y-125792727D01*
X87443570Y-125792721D01*
X87441096Y-125791096D01*
X87078453Y-125599086D01*
X86699350Y-125442057D01*
X86696527Y-125441189D01*
X86696520Y-125441186D01*
X86309990Y-125322274D01*
X86309988Y-125322274D01*
X86307152Y-125321401D01*
X86304249Y-125320800D01*
X86304242Y-125320798D01*
X85908259Y-125238794D01*
X85908249Y-125238792D01*
X85905340Y-125238190D01*
X85497480Y-125193161D01*
X85494499Y-125193114D01*
X85494496Y-125193114D01*
X85378926Y-125191299D01*
X85087193Y-125186716D01*
X85084249Y-125186948D01*
X85084239Y-125186948D01*
X84692286Y-125217796D01*
X84678119Y-125218911D01*
X84273892Y-125289460D01*
X84271025Y-125290244D01*
X84271013Y-125290247D01*
X83880961Y-125396953D01*
X83880951Y-125396956D01*
X83878097Y-125397737D01*
X83875333Y-125398781D01*
X83875322Y-125398785D01*
X83606846Y-125500234D01*
X83494249Y-125542781D01*
X83491582Y-125544088D01*
X83491581Y-125544088D01*
X83198325Y-125687753D01*
X83125754Y-125723305D01*
X82775884Y-125937706D01*
X82773499Y-125939496D01*
X82773500Y-125939496D01*
X82526432Y-126125000D01*
X82447743Y-126184081D01*
X82144244Y-126460244D01*
X81868081Y-126763743D01*
X81866299Y-126766116D01*
X81866296Y-126766120D01*
X81737463Y-126937710D01*
X81621706Y-127091884D01*
X81407305Y-127441754D01*
X81405993Y-127444433D01*
X81405992Y-127444434D01*
X81238093Y-127787158D01*
X81226781Y-127810249D01*
X81225734Y-127813019D01*
X81225733Y-127813022D01*
X81082785Y-128191322D01*
X81082781Y-128191333D01*
X81081737Y-128194097D01*
X81080956Y-128196951D01*
X81080953Y-128196961D01*
X80974247Y-128587013D01*
X80974244Y-128587025D01*
X80973460Y-128589892D01*
X80902911Y-128994119D01*
X80902679Y-128997067D01*
X80873944Y-129362183D01*
X80870716Y-129403193D01*
X80875299Y-129694926D01*
X80875517Y-129708792D01*
X80877161Y-129813480D01*
X80877488Y-129816442D01*
X80882333Y-129860329D01*
X80922190Y-130221340D01*
X81005401Y-130623152D01*
X81126057Y-131015350D01*
X81283086Y-131394453D01*
X81475096Y-131757096D01*
X81476721Y-131759570D01*
X81476727Y-131759580D01*
X81681299Y-132071010D01*
X81700381Y-132100059D01*
X81956941Y-132420300D01*
X81958999Y-132422423D01*
X81959001Y-132422426D01*
X82240441Y-132712849D01*
X82240449Y-132712857D01*
X82242501Y-132714974D01*
X82244755Y-132716899D01*
X82505440Y-132939545D01*
X82554524Y-132981467D01*
X82890242Y-133217414D01*
X83057656Y-133312905D01*
X83244099Y-133419250D01*
X83244104Y-133419253D01*
X83246675Y-133420719D01*
X83620658Y-133589579D01*
X84008873Y-133722495D01*
X84011747Y-133723185D01*
X84011754Y-133723187D01*
X84404994Y-133817595D01*
X84404998Y-133817596D01*
X84407873Y-133818286D01*
X84410806Y-133818703D01*
X84410809Y-133818704D01*
X84513571Y-133833329D01*
X84814118Y-133876103D01*
X85224000Y-133895433D01*
X85633882Y-133876103D01*
X85934429Y-133833329D01*
X86037191Y-133818704D01*
X86037194Y-133818703D01*
X86040127Y-133818286D01*
X86043002Y-133817596D01*
X86043006Y-133817595D01*
X86436246Y-133723187D01*
X86436253Y-133723185D01*
X86439127Y-133722495D01*
X86827342Y-133589579D01*
X87201325Y-133420719D01*
X87203896Y-133419253D01*
X87203901Y-133419250D01*
X87390344Y-133312905D01*
X87557758Y-133217414D01*
X87893476Y-132981467D01*
X87942561Y-132939545D01*
X88203245Y-132716899D01*
X88205499Y-132714974D01*
X88207551Y-132712857D01*
X88207559Y-132712849D01*
X88488999Y-132422426D01*
X88489001Y-132422423D01*
X88491059Y-132420300D01*
X88747619Y-132100059D01*
X88766701Y-132071010D01*
X88971273Y-131759580D01*
X88971279Y-131759570D01*
X88972904Y-131757096D01*
X89164914Y-131394453D01*
X89282091Y-131111562D01*
X89326639Y-131056281D01*
X89394003Y-131033860D01*
X89462794Y-131051418D01*
X89511172Y-131103380D01*
X89524500Y-131159780D01*
X89524500Y-132500852D01*
X89504498Y-132568973D01*
X89487595Y-132589947D01*
X85389947Y-136687595D01*
X85327635Y-136721621D01*
X85300852Y-136724500D01*
X84392203Y-136724500D01*
X84324082Y-136704498D01*
X84308393Y-136692584D01*
X84273976Y-136661919D01*
X84134831Y-136588245D01*
X84073668Y-136572882D01*
X83989498Y-136551740D01*
X83989496Y-136551740D01*
X83982128Y-136549889D01*
X83974530Y-136549849D01*
X83974528Y-136549849D01*
X83907319Y-136549497D01*
X83824684Y-136549065D01*
X83817305Y-136550837D01*
X83817301Y-136550837D01*
X83678967Y-136584048D01*
X83678963Y-136584049D01*
X83671588Y-136585820D01*
X83531679Y-136658032D01*
X83525957Y-136663024D01*
X83525955Y-136663025D01*
X83418759Y-136756538D01*
X83418756Y-136756541D01*
X83413034Y-136761533D01*
X83397142Y-136784145D01*
X83333246Y-136875060D01*
X83322501Y-136890348D01*
X83265309Y-137037039D01*
X83263798Y-137048517D01*
X83245935Y-137184201D01*
X83244758Y-137193138D01*
X83262035Y-137349633D01*
X83316143Y-137497490D01*
X83320380Y-137503796D01*
X83320382Y-137503799D01*
X83349742Y-137547490D01*
X83403958Y-137628172D01*
X83520410Y-137734135D01*
X83537833Y-137743595D01*
X83652099Y-137805637D01*
X83652101Y-137805638D01*
X83658776Y-137809262D01*
X83666125Y-137811190D01*
X83803719Y-137847287D01*
X83803721Y-137847287D01*
X83811069Y-137849215D01*
X83894380Y-137850524D01*
X83960898Y-137851569D01*
X83960901Y-137851569D01*
X83968495Y-137851688D01*
X84121968Y-137816538D01*
X84262625Y-137745795D01*
X84309584Y-137705688D01*
X84374372Y-137676658D01*
X84391413Y-137675500D01*
X85482627Y-137675500D01*
X85493723Y-137676739D01*
X85493771Y-137676141D01*
X85502717Y-137676861D01*
X85511473Y-137678842D01*
X85561441Y-137675742D01*
X85569242Y-137675500D01*
X85584145Y-137675500D01*
X85593514Y-137674158D01*
X85603566Y-137673129D01*
X85647417Y-137670408D01*
X85655862Y-137667359D01*
X85662098Y-137666068D01*
X85669849Y-137664135D01*
X85675938Y-137662354D01*
X85684829Y-137661081D01*
X85699453Y-137654432D01*
X85724836Y-137642892D01*
X85734201Y-137639080D01*
X85767083Y-137627209D01*
X85767086Y-137627207D01*
X85775530Y-137624159D01*
X85782777Y-137618864D01*
X85788407Y-137615871D01*
X85795257Y-137611868D01*
X85800644Y-137608423D01*
X85808820Y-137604706D01*
X85842113Y-137576019D01*
X85850029Y-137569734D01*
X85856101Y-137565298D01*
X85856108Y-137565292D01*
X85860035Y-137562423D01*
X85870076Y-137552382D01*
X85876923Y-137546024D01*
X85905202Y-137521657D01*
X85912004Y-137515796D01*
X85916888Y-137508261D01*
X85922787Y-137501499D01*
X85922867Y-137501569D01*
X85931252Y-137491206D01*
X88429320Y-134993138D01*
X91094758Y-134993138D01*
X91112035Y-135149633D01*
X91166143Y-135297490D01*
X91170380Y-135303796D01*
X91170382Y-135303799D01*
X91253081Y-135426867D01*
X91274500Y-135497143D01*
X91274500Y-136932627D01*
X91273261Y-136943723D01*
X91273859Y-136943771D01*
X91273139Y-136952717D01*
X91271158Y-136961473D01*
X91271714Y-136970433D01*
X91274258Y-137011440D01*
X91274500Y-137019242D01*
X91274500Y-137034145D01*
X91275751Y-137042881D01*
X91275841Y-137043508D01*
X91276871Y-137053566D01*
X91279592Y-137097417D01*
X91282641Y-137105862D01*
X91283932Y-137112098D01*
X91285865Y-137119849D01*
X91287646Y-137125938D01*
X91288919Y-137134829D01*
X91292636Y-137143004D01*
X91307108Y-137174836D01*
X91310920Y-137184201D01*
X91322791Y-137217083D01*
X91322793Y-137217086D01*
X91325841Y-137225530D01*
X91331136Y-137232777D01*
X91334129Y-137238407D01*
X91338132Y-137245257D01*
X91341577Y-137250644D01*
X91345294Y-137258820D01*
X91351154Y-137265620D01*
X91351154Y-137265621D01*
X91373981Y-137292113D01*
X91380266Y-137300029D01*
X91384702Y-137306101D01*
X91384708Y-137306108D01*
X91387577Y-137310035D01*
X91397618Y-137320076D01*
X91403976Y-137326923D01*
X91417040Y-137342084D01*
X91434204Y-137362004D01*
X91441733Y-137366884D01*
X91448502Y-137372789D01*
X91448432Y-137372869D01*
X91458792Y-137381250D01*
X91566458Y-137488917D01*
X91600483Y-137551229D01*
X91602601Y-137564185D01*
X91610870Y-137639080D01*
X91612035Y-137649633D01*
X91614644Y-137656764D01*
X91614645Y-137656766D01*
X91622724Y-137678842D01*
X91666143Y-137797490D01*
X91670380Y-137803796D01*
X91670382Y-137803799D01*
X91685649Y-137826518D01*
X91753958Y-137928172D01*
X91776270Y-137948474D01*
X91853252Y-138018522D01*
X91870410Y-138034135D01*
X91877085Y-138037759D01*
X92002099Y-138105637D01*
X92002101Y-138105638D01*
X92008776Y-138109262D01*
X92016125Y-138111190D01*
X92153719Y-138147287D01*
X92153721Y-138147287D01*
X92161069Y-138149215D01*
X92244380Y-138150524D01*
X92310898Y-138151569D01*
X92310901Y-138151569D01*
X92318495Y-138151688D01*
X92471968Y-138116538D01*
X92612625Y-138045795D01*
X92658561Y-138006562D01*
X92726574Y-137948474D01*
X92726576Y-137948471D01*
X92732348Y-137943542D01*
X92824224Y-137815683D01*
X92828263Y-137805637D01*
X92845216Y-137763464D01*
X92889183Y-137707720D01*
X92956308Y-137684595D01*
X93025279Y-137701432D01*
X93046923Y-137717267D01*
X93096902Y-137762744D01*
X93120410Y-137784135D01*
X93160012Y-137805637D01*
X93252099Y-137855637D01*
X93252101Y-137855638D01*
X93258776Y-137859262D01*
X93266125Y-137861190D01*
X93403719Y-137897287D01*
X93403721Y-137897287D01*
X93411069Y-137899215D01*
X93494380Y-137900524D01*
X93560898Y-137901569D01*
X93560901Y-137901569D01*
X93568495Y-137901688D01*
X93721968Y-137866538D01*
X93862625Y-137795795D01*
X93906622Y-137758218D01*
X93976574Y-137698474D01*
X93976576Y-137698471D01*
X93982348Y-137693542D01*
X94074224Y-137565683D01*
X94080035Y-137551229D01*
X94094046Y-137516375D01*
X94132950Y-137419598D01*
X94143982Y-137342084D01*
X94154553Y-137267807D01*
X94154553Y-137267804D01*
X94155134Y-137263723D01*
X94155278Y-137250000D01*
X94154211Y-137241178D01*
X94146770Y-137179693D01*
X94136363Y-137093694D01*
X94117399Y-137043508D01*
X94083394Y-136953514D01*
X94083393Y-136953511D01*
X94080710Y-136946412D01*
X93991531Y-136816657D01*
X93932233Y-136763824D01*
X93879648Y-136716972D01*
X93879645Y-136716970D01*
X93873976Y-136711919D01*
X93734831Y-136638245D01*
X93582128Y-136599889D01*
X93582171Y-136599717D01*
X93520635Y-136572882D01*
X93481231Y-136513824D01*
X93475500Y-136476255D01*
X93475500Y-134993648D01*
X93499177Y-134920122D01*
X93541448Y-134861296D01*
X93553606Y-134844376D01*
X100141072Y-134844376D01*
X100181770Y-134944603D01*
X100186413Y-134953794D01*
X100297694Y-135135388D01*
X100303777Y-135143699D01*
X100443213Y-135304667D01*
X100450580Y-135311883D01*
X100618414Y-135451221D01*
X100616896Y-135453049D01*
X100655026Y-135500793D01*
X100662306Y-135571416D01*
X100630248Y-135634763D01*
X100569032Y-135670722D01*
X100538407Y-135674500D01*
X100516782Y-135674500D01*
X100512232Y-135675170D01*
X100512229Y-135675170D01*
X100457574Y-135683216D01*
X100457573Y-135683216D01*
X100447888Y-135684642D01*
X100397992Y-135709140D01*
X100352493Y-135731478D01*
X100352491Y-135731479D01*
X100343145Y-135736068D01*
X100260707Y-135818650D01*
X100209464Y-135923482D01*
X100208052Y-135933162D01*
X100202227Y-135973092D01*
X100199500Y-135991782D01*
X100199500Y-137758218D01*
X100200170Y-137762768D01*
X100200170Y-137762771D01*
X100208216Y-137817426D01*
X100209642Y-137827112D01*
X100228999Y-137866538D01*
X100256164Y-137921866D01*
X100261068Y-137931855D01*
X100343650Y-138014293D01*
X100448482Y-138065536D01*
X100478973Y-138069984D01*
X100512256Y-138074840D01*
X100512260Y-138074840D01*
X100516782Y-138075500D01*
X102283218Y-138075500D01*
X102287768Y-138074830D01*
X102287771Y-138074830D01*
X102342426Y-138066784D01*
X102342427Y-138066784D01*
X102352112Y-138065358D01*
X102426114Y-138029025D01*
X102447507Y-138018522D01*
X102447509Y-138018521D01*
X102456855Y-138013932D01*
X102539293Y-137931350D01*
X102590536Y-137826518D01*
X102600500Y-137758218D01*
X102600500Y-137171187D01*
X105045059Y-137171187D01*
X105045422Y-137175335D01*
X105045422Y-137175340D01*
X105046979Y-137193138D01*
X105070536Y-137462399D01*
X105095001Y-137571849D01*
X105132781Y-137740863D01*
X105134305Y-137747683D01*
X105135749Y-137751608D01*
X105135750Y-137751611D01*
X105171705Y-137849334D01*
X105235244Y-138022027D01*
X105237188Y-138025715D01*
X105237192Y-138025723D01*
X105359974Y-138258600D01*
X105371580Y-138280612D01*
X105540918Y-138518893D01*
X105740283Y-138732686D01*
X105966171Y-138918233D01*
X106214616Y-139072275D01*
X106481250Y-139192105D01*
X106539600Y-139209500D01*
X106757394Y-139274428D01*
X106757402Y-139274430D01*
X106761391Y-139275619D01*
X106765508Y-139276271D01*
X106765512Y-139276272D01*
X107046649Y-139320799D01*
X107046654Y-139320799D01*
X107050117Y-139321348D01*
X107099069Y-139323571D01*
X107140128Y-139325436D01*
X107140147Y-139325436D01*
X107141547Y-139325500D01*
X107324151Y-139325500D01*
X107326243Y-139325361D01*
X107326245Y-139325361D01*
X107537511Y-139311329D01*
X107541682Y-139311052D01*
X107545776Y-139310227D01*
X107545780Y-139310226D01*
X107707481Y-139277621D01*
X107828239Y-139253272D01*
X108104637Y-139158100D01*
X108108370Y-139156231D01*
X108108374Y-139156229D01*
X108362276Y-139029084D01*
X108362278Y-139029083D01*
X108366020Y-139027209D01*
X108523135Y-138920434D01*
X108604336Y-138865250D01*
X108604339Y-138865248D01*
X108607795Y-138862899D01*
X108825716Y-138668055D01*
X109015953Y-138446102D01*
X109018228Y-138442599D01*
X109172892Y-138204437D01*
X109172894Y-138204434D01*
X109175164Y-138200938D01*
X109300552Y-137936871D01*
X109302163Y-137931855D01*
X109383396Y-137678842D01*
X109389914Y-137658541D01*
X109431638Y-137426652D01*
X109440943Y-137374940D01*
X109440944Y-137374934D01*
X109441681Y-137370836D01*
X109451684Y-137150546D01*
X109454752Y-137082983D01*
X109454752Y-137082978D01*
X109454941Y-137078813D01*
X109454472Y-137073444D01*
X109443886Y-136952450D01*
X109429464Y-136787601D01*
X109381468Y-136572882D01*
X109366609Y-136506405D01*
X109366608Y-136506402D01*
X109365695Y-136502317D01*
X109347369Y-136452507D01*
X109294696Y-136309347D01*
X109264756Y-136227973D01*
X109262812Y-136224285D01*
X109262808Y-136224277D01*
X109130373Y-135973092D01*
X109130372Y-135973091D01*
X109128420Y-135969388D01*
X108959082Y-135731107D01*
X108759717Y-135517314D01*
X108533829Y-135331767D01*
X108285384Y-135177725D01*
X108018750Y-135057895D01*
X107870579Y-135013723D01*
X107742606Y-134975572D01*
X107742598Y-134975570D01*
X107738609Y-134974381D01*
X107734492Y-134973729D01*
X107734488Y-134973728D01*
X107453351Y-134929201D01*
X107453346Y-134929201D01*
X107449883Y-134928652D01*
X107400931Y-134926429D01*
X107359872Y-134924564D01*
X107359853Y-134924564D01*
X107358453Y-134924500D01*
X107175849Y-134924500D01*
X107173757Y-134924639D01*
X107173755Y-134924639D01*
X107035044Y-134933852D01*
X106958318Y-134938948D01*
X106954224Y-134939773D01*
X106954220Y-134939774D01*
X106816905Y-134967462D01*
X106671761Y-134996728D01*
X106395363Y-135091900D01*
X106391630Y-135093769D01*
X106391626Y-135093771D01*
X106219581Y-135179925D01*
X106133980Y-135222791D01*
X106130515Y-135225146D01*
X105965303Y-135337424D01*
X105892205Y-135387101D01*
X105674284Y-135581945D01*
X105484047Y-135803898D01*
X105481773Y-135807400D01*
X105481772Y-135807401D01*
X105362917Y-135990423D01*
X105324836Y-136049062D01*
X105199448Y-136313129D01*
X105198169Y-136317112D01*
X105198168Y-136317115D01*
X105179681Y-136374695D01*
X105110086Y-136591459D01*
X105093682Y-136682627D01*
X105061458Y-136861719D01*
X105058319Y-136879164D01*
X105053172Y-136992526D01*
X105045628Y-137158664D01*
X105045059Y-137171187D01*
X102600500Y-137171187D01*
X102600500Y-136913057D01*
X102620502Y-136844936D01*
X102637405Y-136823962D01*
X105673962Y-133787405D01*
X105736274Y-133753379D01*
X105763057Y-133750500D01*
X115236943Y-133750500D01*
X115305064Y-133770502D01*
X115326038Y-133787405D01*
X118422322Y-136883689D01*
X118434709Y-136898102D01*
X118443041Y-136909425D01*
X118443045Y-136909429D01*
X118447383Y-136915324D01*
X118487200Y-136949151D01*
X118494704Y-136956071D01*
X118500303Y-136961670D01*
X118522351Y-136979114D01*
X118525727Y-136981883D01*
X118575175Y-137023892D01*
X118575178Y-137023894D01*
X118580755Y-137028632D01*
X118587274Y-137031960D01*
X118592184Y-137035235D01*
X118597204Y-137038336D01*
X118602949Y-137042881D01*
X118609587Y-137045983D01*
X118609588Y-137045984D01*
X118668343Y-137073444D01*
X118672289Y-137075372D01*
X118736616Y-137108219D01*
X118743728Y-137109959D01*
X118749251Y-137112013D01*
X118754860Y-137113879D01*
X118761493Y-137116979D01*
X118832190Y-137131685D01*
X118836448Y-137132648D01*
X118906606Y-137149815D01*
X118912211Y-137150163D01*
X118912213Y-137150163D01*
X118917648Y-137150500D01*
X118917646Y-137150532D01*
X118921775Y-137150779D01*
X118925655Y-137151125D01*
X118932830Y-137152618D01*
X118940151Y-137152420D01*
X118940152Y-137152420D01*
X119009399Y-137150546D01*
X119012807Y-137150500D01*
X121533546Y-137150500D01*
X121552496Y-137151933D01*
X121566396Y-137154048D01*
X121566400Y-137154048D01*
X121573630Y-137155148D01*
X121580922Y-137154555D01*
X121580925Y-137154555D01*
X121625675Y-137150915D01*
X121635889Y-137150500D01*
X121643822Y-137150500D01*
X121653118Y-137149416D01*
X121671736Y-137147246D01*
X121676111Y-137146813D01*
X121706274Y-137144360D01*
X121748059Y-137140961D01*
X121755021Y-137138706D01*
X121760816Y-137137548D01*
X121766558Y-137136191D01*
X121773828Y-137135343D01*
X121841736Y-137110694D01*
X121845864Y-137109277D01*
X121907583Y-137089283D01*
X121907585Y-137089282D01*
X121914546Y-137087027D01*
X121920800Y-137083232D01*
X121926179Y-137080769D01*
X121931455Y-137078127D01*
X121938331Y-137075631D01*
X121998709Y-137036046D01*
X122002419Y-137033705D01*
X122059361Y-136999152D01*
X122059368Y-136999147D01*
X122064160Y-136996239D01*
X122072452Y-136988915D01*
X122072474Y-136988940D01*
X122075569Y-136986194D01*
X122078563Y-136983691D01*
X122084685Y-136979677D01*
X122137364Y-136924068D01*
X122139741Y-136921626D01*
X122959085Y-136102283D01*
X122961671Y-136099697D01*
X123042881Y-135997051D01*
X123049006Y-135983947D01*
X123113880Y-135845139D01*
X123116980Y-135838507D01*
X123152618Y-135667169D01*
X123147884Y-135492228D01*
X123103032Y-135323068D01*
X123099081Y-135315683D01*
X123023921Y-135175217D01*
X123023920Y-135175216D01*
X123020468Y-135168764D01*
X122952584Y-135091900D01*
X122909468Y-135043081D01*
X122909467Y-135043080D01*
X122904620Y-135037592D01*
X122870847Y-135013723D01*
X122831064Y-134985607D01*
X122761704Y-134936588D01*
X122599385Y-134871171D01*
X122592151Y-134870071D01*
X122592149Y-134870070D01*
X122515727Y-134858445D01*
X122426370Y-134844852D01*
X122419078Y-134845445D01*
X122419075Y-134845445D01*
X122259243Y-134858445D01*
X122259242Y-134858445D01*
X122251941Y-134859039D01*
X122244975Y-134861296D01*
X122244973Y-134861296D01*
X122092420Y-134910716D01*
X122092417Y-134910717D01*
X122085454Y-134912973D01*
X122079198Y-134916769D01*
X122079194Y-134916771D01*
X121948793Y-134995901D01*
X121935840Y-135003761D01*
X121927548Y-135011085D01*
X121326038Y-135612595D01*
X121263726Y-135646621D01*
X121236943Y-135649500D01*
X119363057Y-135649500D01*
X119294936Y-135629498D01*
X119273962Y-135612595D01*
X116177678Y-132516311D01*
X116165291Y-132501898D01*
X116156959Y-132490575D01*
X116156955Y-132490571D01*
X116152617Y-132484676D01*
X116112800Y-132450849D01*
X116105296Y-132443929D01*
X116099697Y-132438330D01*
X116077649Y-132420886D01*
X116074273Y-132418117D01*
X116024825Y-132376108D01*
X116024822Y-132376106D01*
X116019245Y-132371368D01*
X116012726Y-132368040D01*
X116007816Y-132364765D01*
X116002796Y-132361664D01*
X115997051Y-132357119D01*
X115931651Y-132326553D01*
X115927705Y-132324625D01*
X115918350Y-132319848D01*
X115863384Y-132291781D01*
X115856275Y-132290042D01*
X115850740Y-132287983D01*
X115845132Y-132286117D01*
X115838507Y-132283021D01*
X115831347Y-132281532D01*
X115831345Y-132281531D01*
X115767807Y-132268315D01*
X115763518Y-132267344D01*
X115746263Y-132263122D01*
X115693394Y-132250185D01*
X115687794Y-132249838D01*
X115687790Y-132249837D01*
X115682352Y-132249500D01*
X115682354Y-132249468D01*
X115678224Y-132249221D01*
X115674344Y-132248875D01*
X115667169Y-132247382D01*
X115659848Y-132247580D01*
X115659847Y-132247580D01*
X115590600Y-132249454D01*
X115587192Y-132249500D01*
X105466460Y-132249500D01*
X105447510Y-132248067D01*
X105433604Y-132245951D01*
X105433600Y-132245951D01*
X105426370Y-132244851D01*
X105419078Y-132245444D01*
X105419075Y-132245444D01*
X105374317Y-132249085D01*
X105364102Y-132249500D01*
X105356178Y-132249500D01*
X105328251Y-132252756D01*
X105323915Y-132253184D01*
X105259238Y-132258445D01*
X105259234Y-132258446D01*
X105251941Y-132259039D01*
X105244976Y-132261295D01*
X105239173Y-132262455D01*
X105233444Y-132263809D01*
X105226172Y-132264657D01*
X105158264Y-132289306D01*
X105154136Y-132290723D01*
X105092417Y-132310717D01*
X105092415Y-132310718D01*
X105085454Y-132312973D01*
X105079200Y-132316768D01*
X105073821Y-132319231D01*
X105068543Y-132321874D01*
X105061669Y-132324369D01*
X105055552Y-132328380D01*
X105055549Y-132328381D01*
X105001294Y-132363953D01*
X104997574Y-132366300D01*
X104940634Y-132400852D01*
X104940630Y-132400855D01*
X104935841Y-132403761D01*
X104927548Y-132411084D01*
X104927527Y-132411060D01*
X104924432Y-132413805D01*
X104921436Y-132416310D01*
X104915315Y-132420323D01*
X104910282Y-132425636D01*
X104862635Y-132475933D01*
X104860257Y-132478375D01*
X103265716Y-134072917D01*
X102540538Y-134798095D01*
X102478226Y-134832120D01*
X102451443Y-134835000D01*
X100155380Y-134835000D01*
X100141849Y-134838973D01*
X100141072Y-134844376D01*
X93553606Y-134844376D01*
X93574224Y-134815683D01*
X93632950Y-134669598D01*
X93647445Y-134567747D01*
X93654553Y-134517807D01*
X93654553Y-134517804D01*
X93655134Y-134513723D01*
X93655278Y-134500000D01*
X93636363Y-134343694D01*
X93580710Y-134196412D01*
X93491531Y-134066657D01*
X93444971Y-134025174D01*
X93379648Y-133966972D01*
X93379645Y-133966970D01*
X93373976Y-133961919D01*
X93234831Y-133888245D01*
X93187049Y-133876243D01*
X93089498Y-133851740D01*
X93089496Y-133851740D01*
X93082128Y-133849889D01*
X93074530Y-133849849D01*
X93074528Y-133849849D01*
X93007319Y-133849497D01*
X92924684Y-133849065D01*
X92917305Y-133850837D01*
X92917301Y-133850837D01*
X92778967Y-133884048D01*
X92778963Y-133884049D01*
X92771588Y-133885820D01*
X92631679Y-133958032D01*
X92625957Y-133963024D01*
X92625955Y-133963025D01*
X92518759Y-134056538D01*
X92518756Y-134056541D01*
X92513034Y-134061533D01*
X92422501Y-134190348D01*
X92365309Y-134337039D01*
X92363440Y-134351234D01*
X92356320Y-134405318D01*
X92327598Y-134470245D01*
X92268333Y-134509337D01*
X92197341Y-134510182D01*
X92147580Y-134482949D01*
X92129648Y-134466972D01*
X92129645Y-134466970D01*
X92123976Y-134461919D01*
X91984831Y-134388245D01*
X91968122Y-134384048D01*
X91839498Y-134351740D01*
X91839496Y-134351740D01*
X91832128Y-134349889D01*
X91824530Y-134349849D01*
X91824528Y-134349849D01*
X91757319Y-134349497D01*
X91674684Y-134349065D01*
X91667305Y-134350837D01*
X91667301Y-134350837D01*
X91528967Y-134384048D01*
X91528963Y-134384049D01*
X91521588Y-134385820D01*
X91381679Y-134458032D01*
X91375957Y-134463024D01*
X91375955Y-134463025D01*
X91268759Y-134556538D01*
X91268756Y-134556541D01*
X91263034Y-134561533D01*
X91258667Y-134567747D01*
X91182127Y-134676652D01*
X91172501Y-134690348D01*
X91115309Y-134837039D01*
X91110960Y-134870070D01*
X91097071Y-134975572D01*
X91094758Y-134993138D01*
X88429320Y-134993138D01*
X89589945Y-133832513D01*
X100140376Y-133832513D01*
X100144193Y-133835000D01*
X100881885Y-133835000D01*
X100897124Y-133830525D01*
X100898329Y-133829135D01*
X100900000Y-133821452D01*
X100900000Y-133816885D01*
X101900000Y-133816885D01*
X101904475Y-133832124D01*
X101905865Y-133833329D01*
X101913548Y-133835000D01*
X102645376Y-133835000D01*
X102658907Y-133831027D01*
X102659617Y-133826089D01*
X102602972Y-133695814D01*
X102598105Y-133686739D01*
X102482426Y-133507926D01*
X102476136Y-133499757D01*
X102332806Y-133342240D01*
X102325273Y-133335215D01*
X102158139Y-133203222D01*
X102149552Y-133197517D01*
X101963114Y-133094597D01*
X101953705Y-133090369D01*
X101917076Y-133077398D01*
X101902996Y-133076626D01*
X101900000Y-133082337D01*
X101900000Y-133816885D01*
X100900000Y-133816885D01*
X100900000Y-133087766D01*
X100896027Y-133074235D01*
X100889045Y-133073231D01*
X100876868Y-133077212D01*
X100867359Y-133081209D01*
X100678463Y-133179542D01*
X100669738Y-133185036D01*
X100499433Y-133312905D01*
X100491726Y-133319748D01*
X100344590Y-133473717D01*
X100338104Y-133481727D01*
X100218098Y-133657649D01*
X100213000Y-133666623D01*
X100142469Y-133818570D01*
X100140376Y-133832513D01*
X89589945Y-133832513D01*
X90288586Y-133133872D01*
X90297312Y-133126900D01*
X90296923Y-133126442D01*
X90303757Y-133120626D01*
X90311350Y-133115835D01*
X90344506Y-133078293D01*
X90349852Y-133072606D01*
X90360373Y-133062085D01*
X90366048Y-133054513D01*
X90372424Y-133046682D01*
X90395570Y-133020474D01*
X90401513Y-133013745D01*
X90405329Y-133005618D01*
X90408834Y-133000281D01*
X90412936Y-132993454D01*
X90415991Y-132987875D01*
X90421372Y-132980695D01*
X90424521Y-132972294D01*
X90424523Y-132972291D01*
X90436798Y-132939545D01*
X90440727Y-132930222D01*
X90455585Y-132898577D01*
X90455586Y-132898572D01*
X90459399Y-132890452D01*
X90460780Y-132881584D01*
X90462633Y-132875523D01*
X90464667Y-132867771D01*
X90466032Y-132861564D01*
X90469183Y-132853157D01*
X90472439Y-132809339D01*
X90473593Y-132799291D01*
X90474750Y-132791858D01*
X90475500Y-132787044D01*
X90475500Y-132772834D01*
X90475846Y-132763496D01*
X90478612Y-132726274D01*
X90479277Y-132717326D01*
X90477404Y-132708550D01*
X90476793Y-132699593D01*
X90476899Y-132699586D01*
X90475500Y-132686333D01*
X90475500Y-100999148D01*
X90495502Y-100931027D01*
X90512405Y-100910053D01*
X91080053Y-100342405D01*
X91142365Y-100308379D01*
X91169148Y-100305500D01*
X93537224Y-100305500D01*
X93605345Y-100325502D01*
X93622023Y-100338306D01*
X93644789Y-100359021D01*
X93644793Y-100359024D01*
X93650410Y-100364135D01*
X93699694Y-100390894D01*
X93782099Y-100435637D01*
X93782101Y-100435638D01*
X93788776Y-100439262D01*
X93796125Y-100441190D01*
X93933719Y-100477287D01*
X93933721Y-100477287D01*
X93941069Y-100479215D01*
X94024380Y-100480524D01*
X94090898Y-100481569D01*
X94090901Y-100481569D01*
X94098495Y-100481688D01*
X94251968Y-100446538D01*
X94392625Y-100375795D01*
X94427987Y-100345593D01*
X94506574Y-100278474D01*
X94506576Y-100278471D01*
X94512348Y-100273542D01*
X94604224Y-100145683D01*
X94662950Y-99999598D01*
X94681849Y-99866807D01*
X94684553Y-99847807D01*
X94684553Y-99847804D01*
X94685134Y-99843723D01*
X94685278Y-99830000D01*
X94666363Y-99673694D01*
X94654114Y-99641278D01*
X94613394Y-99533514D01*
X94613393Y-99533511D01*
X94610710Y-99526412D01*
X94521531Y-99396657D01*
X94470464Y-99351158D01*
X94409648Y-99296972D01*
X94409645Y-99296970D01*
X94403976Y-99291919D01*
X94390061Y-99284551D01*
X94291727Y-99232486D01*
X94264831Y-99218245D01*
X94248122Y-99214048D01*
X94119498Y-99181740D01*
X94119496Y-99181740D01*
X94112128Y-99179889D01*
X94104530Y-99179849D01*
X94104528Y-99179849D01*
X94037319Y-99179497D01*
X93954684Y-99179065D01*
X93947305Y-99180837D01*
X93947301Y-99180837D01*
X93808967Y-99214048D01*
X93808963Y-99214049D01*
X93801588Y-99215820D01*
X93661679Y-99288032D01*
X93655960Y-99293021D01*
X93621080Y-99323449D01*
X93556598Y-99353157D01*
X93538250Y-99354500D01*
X90987372Y-99354500D01*
X90976276Y-99353261D01*
X90976228Y-99353859D01*
X90967282Y-99353139D01*
X90958526Y-99351158D01*
X90908559Y-99354258D01*
X90900757Y-99354500D01*
X90885855Y-99354500D01*
X90876486Y-99355842D01*
X90866434Y-99356871D01*
X90847823Y-99358026D01*
X90831540Y-99359036D01*
X90831538Y-99359036D01*
X90822583Y-99359592D01*
X90814143Y-99362639D01*
X90807918Y-99363928D01*
X90800152Y-99365864D01*
X90794056Y-99367646D01*
X90785171Y-99368919D01*
X90777000Y-99372634D01*
X90776997Y-99372635D01*
X90745159Y-99387111D01*
X90735796Y-99390923D01*
X90694470Y-99405842D01*
X90687220Y-99411138D01*
X90681593Y-99414130D01*
X90674698Y-99418159D01*
X90669351Y-99421579D01*
X90661180Y-99425294D01*
X90654380Y-99431153D01*
X90654379Y-99431154D01*
X90627894Y-99453976D01*
X90619970Y-99460267D01*
X90609964Y-99467577D01*
X90599917Y-99477624D01*
X90593070Y-99483982D01*
X90557996Y-99514204D01*
X90553112Y-99521739D01*
X90547213Y-99528501D01*
X90547133Y-99528431D01*
X90538753Y-99538788D01*
X89711412Y-100366130D01*
X89702687Y-100373100D01*
X89703077Y-100373558D01*
X89696243Y-100379374D01*
X89688650Y-100384165D01*
X89682708Y-100390894D01*
X89682707Y-100390894D01*
X89655494Y-100421707D01*
X89650148Y-100427394D01*
X89639627Y-100437915D01*
X89633952Y-100445487D01*
X89627576Y-100453318D01*
X89598487Y-100486255D01*
X89594671Y-100494382D01*
X89591166Y-100499719D01*
X89587070Y-100506537D01*
X89584013Y-100512120D01*
X89578628Y-100519305D01*
X89575477Y-100527710D01*
X89575476Y-100527712D01*
X89563202Y-100560454D01*
X89559275Y-100569774D01*
X89540601Y-100609548D01*
X89539220Y-100618418D01*
X89537361Y-100624498D01*
X89535335Y-100632219D01*
X89533969Y-100638432D01*
X89530816Y-100646843D01*
X89530151Y-100655798D01*
X89527559Y-100690676D01*
X89526405Y-100700722D01*
X89524500Y-100712956D01*
X89524500Y-100727162D01*
X89524154Y-100736499D01*
X89520723Y-100782674D01*
X89522596Y-100791450D01*
X89523207Y-100800407D01*
X89523101Y-100800414D01*
X89524500Y-100813667D01*
X89524500Y-106646631D01*
X89504498Y-106714752D01*
X89450842Y-106761245D01*
X89380568Y-106771349D01*
X89315988Y-106741855D01*
X89279293Y-106687445D01*
X89250536Y-106603454D01*
X89249579Y-106600658D01*
X89080719Y-106226675D01*
X89048143Y-106169562D01*
X88878879Y-105872811D01*
X88877414Y-105870242D01*
X88641467Y-105534524D01*
X88552298Y-105430120D01*
X88376899Y-105224755D01*
X88374974Y-105222501D01*
X88372857Y-105220449D01*
X88372849Y-105220441D01*
X88082426Y-104939001D01*
X88082423Y-104938999D01*
X88080300Y-104936941D01*
X87760059Y-104680381D01*
X87640288Y-104601706D01*
X87419580Y-104456727D01*
X87419570Y-104456721D01*
X87417096Y-104455096D01*
X87054453Y-104263086D01*
X86675350Y-104106057D01*
X86672527Y-104105189D01*
X86672520Y-104105186D01*
X86285990Y-103986274D01*
X86285988Y-103986274D01*
X86283152Y-103985401D01*
X86280249Y-103984800D01*
X86280242Y-103984798D01*
X85884259Y-103902794D01*
X85884249Y-103902792D01*
X85881340Y-103902190D01*
X85473480Y-103857161D01*
X85470499Y-103857114D01*
X85470496Y-103857114D01*
X85354926Y-103855299D01*
X85063193Y-103850716D01*
X85060249Y-103850948D01*
X85060239Y-103850948D01*
X84668286Y-103881796D01*
X84654119Y-103882911D01*
X84249892Y-103953460D01*
X84247025Y-103954244D01*
X84247013Y-103954247D01*
X83856961Y-104060953D01*
X83856951Y-104060956D01*
X83854097Y-104061737D01*
X83851333Y-104062781D01*
X83851322Y-104062785D01*
X83499632Y-104195678D01*
X83470249Y-104206781D01*
X83101754Y-104387305D01*
X82751884Y-104601706D01*
X82749499Y-104603496D01*
X82749500Y-104603496D01*
X82427816Y-104845023D01*
X82423743Y-104848081D01*
X82120244Y-105124244D01*
X81844081Y-105427743D01*
X81842299Y-105430116D01*
X81842296Y-105430120D01*
X81762086Y-105536950D01*
X81597706Y-105755884D01*
X81383305Y-106105754D01*
X81381993Y-106108433D01*
X81381992Y-106108434D01*
X81329568Y-106215445D01*
X81202781Y-106474249D01*
X81201734Y-106477019D01*
X81201733Y-106477022D01*
X81058785Y-106855322D01*
X81058781Y-106855333D01*
X81057737Y-106858097D01*
X81056956Y-106860951D01*
X81056953Y-106860961D01*
X80950247Y-107251013D01*
X80950244Y-107251025D01*
X80949460Y-107253892D01*
X80878911Y-107658119D01*
X80878679Y-107661067D01*
X80848182Y-108048568D01*
X80846716Y-108067193D01*
X79100500Y-108067193D01*
X79100500Y-97399193D01*
X80870716Y-97399193D01*
X80872826Y-97533530D01*
X80877008Y-97799714D01*
X80877161Y-97809480D01*
X80922190Y-98217340D01*
X80922792Y-98220249D01*
X80922794Y-98220259D01*
X80978502Y-98489262D01*
X81005401Y-98619152D01*
X81006274Y-98621988D01*
X81006274Y-98621990D01*
X81124417Y-99006018D01*
X81126057Y-99011350D01*
X81283086Y-99390453D01*
X81475096Y-99753096D01*
X81476721Y-99755570D01*
X81476727Y-99755580D01*
X81667519Y-100046032D01*
X81700381Y-100096059D01*
X81956941Y-100416300D01*
X81958999Y-100418423D01*
X81959001Y-100418426D01*
X82240441Y-100708849D01*
X82240449Y-100708857D01*
X82242501Y-100710974D01*
X82272387Y-100736499D01*
X82518803Y-100946958D01*
X82554524Y-100977467D01*
X82890242Y-101213414D01*
X83070440Y-101316197D01*
X83244099Y-101415250D01*
X83244104Y-101415253D01*
X83246675Y-101416719D01*
X83620658Y-101585579D01*
X84008873Y-101718495D01*
X84011747Y-101719185D01*
X84011754Y-101719187D01*
X84404994Y-101813595D01*
X84404998Y-101813596D01*
X84407873Y-101814286D01*
X84410806Y-101814703D01*
X84410809Y-101814704D01*
X84608466Y-101842834D01*
X84814118Y-101872103D01*
X85224000Y-101891433D01*
X85633882Y-101872103D01*
X85839534Y-101842834D01*
X86037191Y-101814704D01*
X86037194Y-101814703D01*
X86040127Y-101814286D01*
X86043002Y-101813596D01*
X86043006Y-101813595D01*
X86436246Y-101719187D01*
X86436253Y-101719185D01*
X86439127Y-101718495D01*
X86827342Y-101585579D01*
X87201325Y-101416719D01*
X87203896Y-101415253D01*
X87203901Y-101415250D01*
X87377560Y-101316197D01*
X87557758Y-101213414D01*
X87893476Y-100977467D01*
X87929198Y-100946958D01*
X88175613Y-100736499D01*
X88205499Y-100710974D01*
X88207551Y-100708857D01*
X88207559Y-100708849D01*
X88488999Y-100418426D01*
X88489001Y-100418423D01*
X88491059Y-100416300D01*
X88747619Y-100096059D01*
X88780481Y-100046032D01*
X88971273Y-99755580D01*
X88971279Y-99755570D01*
X88972904Y-99753096D01*
X89164914Y-99390453D01*
X89321943Y-99011350D01*
X89323584Y-99006018D01*
X89441726Y-98621990D01*
X89441726Y-98621988D01*
X89442599Y-98619152D01*
X89469498Y-98489262D01*
X89525206Y-98220259D01*
X89525208Y-98220249D01*
X89525810Y-98217340D01*
X89570839Y-97809480D01*
X89579433Y-97536000D01*
X89560103Y-97126118D01*
X89502286Y-96719873D01*
X89496192Y-96694489D01*
X89407187Y-96323754D01*
X89407185Y-96323747D01*
X89406495Y-96320873D01*
X89273579Y-95932658D01*
X89104719Y-95558675D01*
X88901414Y-95202242D01*
X88665467Y-94866524D01*
X88576298Y-94762120D01*
X88400899Y-94556755D01*
X88398974Y-94554501D01*
X88396857Y-94552449D01*
X88396849Y-94552441D01*
X88106426Y-94271001D01*
X88106423Y-94270999D01*
X88104300Y-94268941D01*
X87784059Y-94012381D01*
X87664288Y-93933706D01*
X87443580Y-93788727D01*
X87443570Y-93788721D01*
X87441096Y-93787096D01*
X87078453Y-93595086D01*
X86699350Y-93438057D01*
X86696527Y-93437189D01*
X86696520Y-93437186D01*
X86309990Y-93318274D01*
X86309988Y-93318274D01*
X86307152Y-93317401D01*
X86304249Y-93316800D01*
X86304242Y-93316798D01*
X85908259Y-93234794D01*
X85908249Y-93234792D01*
X85905340Y-93234190D01*
X85497480Y-93189161D01*
X85494499Y-93189114D01*
X85494496Y-93189114D01*
X85378926Y-93187299D01*
X85087193Y-93182716D01*
X85084249Y-93182948D01*
X85084239Y-93182948D01*
X84692286Y-93213796D01*
X84678119Y-93214911D01*
X84273892Y-93285460D01*
X84271025Y-93286244D01*
X84271013Y-93286247D01*
X83880961Y-93392953D01*
X83880951Y-93392956D01*
X83878097Y-93393737D01*
X83875333Y-93394781D01*
X83875322Y-93394785D01*
X83497022Y-93537733D01*
X83494249Y-93538781D01*
X83125754Y-93719305D01*
X83123219Y-93720858D01*
X83123218Y-93720859D01*
X83116054Y-93725249D01*
X82775884Y-93933706D01*
X82447743Y-94180081D01*
X82144244Y-94456244D01*
X82142254Y-94458431D01*
X81946472Y-94673593D01*
X81868081Y-94759743D01*
X81866299Y-94762116D01*
X81866296Y-94762120D01*
X81786086Y-94868950D01*
X81621706Y-95087884D01*
X81407305Y-95437754D01*
X81226781Y-95806249D01*
X81225734Y-95809019D01*
X81225733Y-95809022D01*
X81082785Y-96187322D01*
X81082781Y-96187333D01*
X81081737Y-96190097D01*
X81080956Y-96192951D01*
X81080953Y-96192961D01*
X80974247Y-96583013D01*
X80974244Y-96583025D01*
X80973460Y-96585892D01*
X80902911Y-96990119D01*
X80902679Y-96993067D01*
X80884216Y-97227664D01*
X80870716Y-97399193D01*
X79100500Y-97399193D01*
X79100500Y-93715139D01*
X79120502Y-93647018D01*
X79137405Y-93626044D01*
X80417156Y-92346293D01*
X80479468Y-92312267D01*
X80526613Y-92311044D01*
X80534081Y-92312267D01*
X80697957Y-92339103D01*
X80697961Y-92339103D01*
X80701537Y-92339689D01*
X80705163Y-92339860D01*
X81026273Y-92355003D01*
X81026274Y-92355003D01*
X81029900Y-92355174D01*
X81043719Y-92354232D01*
X81354237Y-92333064D01*
X81354245Y-92333063D01*
X81357868Y-92332816D01*
X81361444Y-92332153D01*
X81361446Y-92332153D01*
X81677527Y-92273571D01*
X81677531Y-92273570D01*
X81681092Y-92272910D01*
X81995289Y-92176250D01*
X82296293Y-92044119D01*
X82580116Y-91878266D01*
X82760089Y-91743138D01*
X85844758Y-91743138D01*
X85862035Y-91899633D01*
X85916143Y-92047490D01*
X85920380Y-92053796D01*
X85920382Y-92053799D01*
X85931745Y-92070708D01*
X86003958Y-92178172D01*
X86120410Y-92284135D01*
X86169970Y-92311044D01*
X86252099Y-92355637D01*
X86252101Y-92355638D01*
X86258776Y-92359262D01*
X86266125Y-92361190D01*
X86403719Y-92397287D01*
X86403721Y-92397287D01*
X86411069Y-92399215D01*
X86494380Y-92400524D01*
X86560898Y-92401569D01*
X86560901Y-92401569D01*
X86568495Y-92401688D01*
X86721968Y-92366538D01*
X86862625Y-92295795D01*
X86909584Y-92255688D01*
X86974372Y-92226658D01*
X86991413Y-92225500D01*
X87884045Y-92225500D01*
X87952166Y-92245502D01*
X87973140Y-92262405D01*
X95488447Y-99777712D01*
X95522473Y-99840024D01*
X95517408Y-99910839D01*
X95488447Y-99955902D01*
X93511414Y-101932935D01*
X93502688Y-101939907D01*
X93503077Y-101940365D01*
X93496243Y-101946181D01*
X93488650Y-101950972D01*
X93482708Y-101957701D01*
X93482707Y-101957701D01*
X93455494Y-101988514D01*
X93450148Y-101994201D01*
X93439627Y-102004722D01*
X93433952Y-102012294D01*
X93427576Y-102020125D01*
X93398487Y-102053062D01*
X93394671Y-102061189D01*
X93391166Y-102066526D01*
X93387070Y-102073344D01*
X93384013Y-102078927D01*
X93378628Y-102086112D01*
X93375477Y-102094517D01*
X93375476Y-102094519D01*
X93363202Y-102127261D01*
X93359275Y-102136581D01*
X93340601Y-102176355D01*
X93339220Y-102185225D01*
X93337361Y-102191305D01*
X93335335Y-102199026D01*
X93333969Y-102205239D01*
X93330816Y-102213650D01*
X93330151Y-102222605D01*
X93327559Y-102257483D01*
X93326405Y-102267529D01*
X93324500Y-102279763D01*
X93324500Y-102293969D01*
X93324154Y-102303306D01*
X93320723Y-102349481D01*
X93322596Y-102358257D01*
X93323207Y-102367214D01*
X93323101Y-102367221D01*
X93324500Y-102380474D01*
X93324500Y-121102627D01*
X93323261Y-121113723D01*
X93323859Y-121113771D01*
X93323139Y-121122717D01*
X93321158Y-121131473D01*
X93321714Y-121140433D01*
X93324258Y-121181440D01*
X93324500Y-121189242D01*
X93324500Y-121204145D01*
X93325841Y-121213508D01*
X93326871Y-121223566D01*
X93329592Y-121267417D01*
X93332641Y-121275862D01*
X93333932Y-121282098D01*
X93335865Y-121289849D01*
X93337646Y-121295938D01*
X93338919Y-121304829D01*
X93342636Y-121313004D01*
X93357108Y-121344836D01*
X93360920Y-121354201D01*
X93372791Y-121387083D01*
X93372793Y-121387086D01*
X93375841Y-121395530D01*
X93381136Y-121402777D01*
X93384129Y-121408407D01*
X93388132Y-121415257D01*
X93391577Y-121420644D01*
X93395294Y-121428820D01*
X93401154Y-121435620D01*
X93401154Y-121435621D01*
X93423981Y-121462113D01*
X93430266Y-121470029D01*
X93434702Y-121476101D01*
X93434708Y-121476108D01*
X93437577Y-121480035D01*
X93447618Y-121490076D01*
X93453976Y-121496923D01*
X93484204Y-121532004D01*
X93491739Y-121536888D01*
X93498501Y-121542787D01*
X93498431Y-121542867D01*
X93508794Y-121551252D01*
X100985618Y-129028076D01*
X100992590Y-129036802D01*
X100993048Y-129036413D01*
X100998864Y-129043247D01*
X101003655Y-129050840D01*
X101010384Y-129056782D01*
X101010384Y-129056783D01*
X101041197Y-129083996D01*
X101046884Y-129089342D01*
X101057405Y-129099863D01*
X101064977Y-129105538D01*
X101072808Y-129111914D01*
X101105745Y-129141003D01*
X101113872Y-129144819D01*
X101119209Y-129148324D01*
X101126036Y-129152426D01*
X101131615Y-129155481D01*
X101138795Y-129160862D01*
X101147196Y-129164011D01*
X101147199Y-129164013D01*
X101179945Y-129176288D01*
X101189268Y-129180217D01*
X101220913Y-129195075D01*
X101220918Y-129195076D01*
X101229038Y-129198889D01*
X101237906Y-129200270D01*
X101243967Y-129202123D01*
X101251719Y-129204157D01*
X101257926Y-129205522D01*
X101266333Y-129208673D01*
X101310150Y-129211929D01*
X101320199Y-129213083D01*
X101332446Y-129214990D01*
X101346656Y-129214990D01*
X101355994Y-129215336D01*
X101402164Y-129218767D01*
X101410940Y-129216894D01*
X101419897Y-129216283D01*
X101419904Y-129216389D01*
X101433157Y-129214990D01*
X103993303Y-129214990D01*
X104061424Y-129234992D01*
X104096200Y-129268270D01*
X104148900Y-129342839D01*
X104223222Y-129448002D01*
X104381264Y-129601961D01*
X104386060Y-129605166D01*
X104386063Y-129605168D01*
X104470261Y-129661427D01*
X104564717Y-129724540D01*
X104570020Y-129726818D01*
X104570023Y-129726820D01*
X104688953Y-129777916D01*
X104767436Y-129811635D01*
X104847088Y-129829658D01*
X104976995Y-129859054D01*
X104977001Y-129859055D01*
X104982632Y-129860329D01*
X104988403Y-129860556D01*
X104988405Y-129860556D01*
X105056211Y-129863220D01*
X105203098Y-129868991D01*
X105312275Y-129853161D01*
X105415738Y-129838160D01*
X105415743Y-129838159D01*
X105421452Y-129837331D01*
X105426916Y-129835476D01*
X105426921Y-129835475D01*
X105624907Y-129768268D01*
X105624912Y-129768266D01*
X105630379Y-129766410D01*
X105822884Y-129658602D01*
X105842987Y-129641883D01*
X105988086Y-129521204D01*
X105992518Y-129517518D01*
X106133602Y-129347884D01*
X106207771Y-129215446D01*
X106238586Y-129160422D01*
X106238587Y-129160420D01*
X106241410Y-129155379D01*
X106243266Y-129149912D01*
X106243268Y-129149907D01*
X106290264Y-129011460D01*
X106331101Y-128953383D01*
X106396854Y-128926605D01*
X106466646Y-128939626D01*
X106518319Y-128988313D01*
X106531700Y-129020946D01*
X106542089Y-129061855D01*
X106542091Y-129061860D01*
X106543511Y-129067452D01*
X106545928Y-129072694D01*
X106545928Y-129072695D01*
X106588175Y-129164335D01*
X106635883Y-129267821D01*
X106763222Y-129448002D01*
X106921264Y-129601961D01*
X106926060Y-129605166D01*
X106926063Y-129605168D01*
X107010261Y-129661427D01*
X107104717Y-129724540D01*
X107110020Y-129726818D01*
X107110023Y-129726820D01*
X107228953Y-129777916D01*
X107307436Y-129811635D01*
X107387088Y-129829658D01*
X107516995Y-129859054D01*
X107517001Y-129859055D01*
X107522632Y-129860329D01*
X107528403Y-129860556D01*
X107528405Y-129860556D01*
X107596211Y-129863220D01*
X107743098Y-129868991D01*
X107852275Y-129853161D01*
X107955738Y-129838160D01*
X107955743Y-129838159D01*
X107961452Y-129837331D01*
X107966916Y-129835476D01*
X107966921Y-129835475D01*
X108164907Y-129768268D01*
X108164912Y-129768266D01*
X108170379Y-129766410D01*
X108362884Y-129658602D01*
X108382987Y-129641883D01*
X108528086Y-129521204D01*
X108532518Y-129517518D01*
X108673602Y-129347884D01*
X108747771Y-129215446D01*
X108778586Y-129160422D01*
X108778587Y-129160420D01*
X108781410Y-129155379D01*
X108783266Y-129149912D01*
X108783268Y-129149907D01*
X108830264Y-129011460D01*
X108871101Y-128953383D01*
X108936854Y-128926605D01*
X109006646Y-128939626D01*
X109058319Y-128988313D01*
X109071700Y-129020946D01*
X109082089Y-129061855D01*
X109082091Y-129061860D01*
X109083511Y-129067452D01*
X109085928Y-129072694D01*
X109085928Y-129072695D01*
X109128175Y-129164335D01*
X109175883Y-129267821D01*
X109303222Y-129448002D01*
X109461264Y-129601961D01*
X109466060Y-129605166D01*
X109466063Y-129605168D01*
X109550261Y-129661427D01*
X109644717Y-129724540D01*
X109650020Y-129726818D01*
X109650023Y-129726820D01*
X109768953Y-129777916D01*
X109847436Y-129811635D01*
X109927088Y-129829658D01*
X110056995Y-129859054D01*
X110057001Y-129859055D01*
X110062632Y-129860329D01*
X110068403Y-129860556D01*
X110068405Y-129860556D01*
X110136211Y-129863220D01*
X110283098Y-129868991D01*
X110392275Y-129853161D01*
X110495738Y-129838160D01*
X110495743Y-129838159D01*
X110501452Y-129837331D01*
X110506916Y-129835476D01*
X110506921Y-129835475D01*
X110704907Y-129768268D01*
X110704912Y-129768266D01*
X110710379Y-129766410D01*
X110902884Y-129658602D01*
X110922987Y-129641883D01*
X111068086Y-129521204D01*
X111072518Y-129517518D01*
X111213602Y-129347884D01*
X111287771Y-129215446D01*
X111318586Y-129160422D01*
X111318587Y-129160420D01*
X111321410Y-129155379D01*
X111323266Y-129149912D01*
X111323268Y-129149907D01*
X111370264Y-129011460D01*
X111411101Y-128953383D01*
X111476854Y-128926605D01*
X111546646Y-128939626D01*
X111598319Y-128988313D01*
X111611700Y-129020946D01*
X111622089Y-129061855D01*
X111622091Y-129061860D01*
X111623511Y-129067452D01*
X111625928Y-129072694D01*
X111625928Y-129072695D01*
X111668175Y-129164335D01*
X111715883Y-129267821D01*
X111843222Y-129448002D01*
X112001264Y-129601961D01*
X112006060Y-129605166D01*
X112006063Y-129605168D01*
X112090261Y-129661427D01*
X112184717Y-129724540D01*
X112190020Y-129726818D01*
X112190023Y-129726820D01*
X112308953Y-129777916D01*
X112387436Y-129811635D01*
X112467088Y-129829658D01*
X112596995Y-129859054D01*
X112597001Y-129859055D01*
X112602632Y-129860329D01*
X112608403Y-129860556D01*
X112608405Y-129860556D01*
X112676211Y-129863220D01*
X112823098Y-129868991D01*
X112932275Y-129853161D01*
X113035738Y-129838160D01*
X113035743Y-129838159D01*
X113041452Y-129837331D01*
X113046916Y-129835476D01*
X113046921Y-129835475D01*
X113244907Y-129768268D01*
X113244912Y-129768266D01*
X113250379Y-129766410D01*
X113442884Y-129658602D01*
X113462987Y-129641883D01*
X113608086Y-129521204D01*
X113612518Y-129517518D01*
X113753602Y-129347884D01*
X113833020Y-129206073D01*
X113883754Y-129156414D01*
X113953286Y-129142066D01*
X114019537Y-129167588D01*
X114059695Y-129220238D01*
X114081770Y-129274603D01*
X114086413Y-129283794D01*
X114197694Y-129465388D01*
X114203777Y-129473699D01*
X114343213Y-129634667D01*
X114350580Y-129641883D01*
X114514434Y-129777916D01*
X114522881Y-129783831D01*
X114706756Y-129891279D01*
X114716043Y-129895729D01*
X114783078Y-129921327D01*
X114797134Y-129922442D01*
X114800000Y-129917290D01*
X114800000Y-127399651D01*
X114801323Y-127399651D01*
X114800285Y-127387788D01*
X114800000Y-127387788D01*
X114800000Y-127384528D01*
X114799817Y-127382436D01*
X114800000Y-127380793D01*
X114800000Y-124877766D01*
X114796027Y-124864235D01*
X114789045Y-124863231D01*
X114776868Y-124867212D01*
X114767359Y-124871209D01*
X114578463Y-124969542D01*
X114569738Y-124975036D01*
X114399433Y-125102905D01*
X114391726Y-125109748D01*
X114244590Y-125263717D01*
X114238104Y-125271727D01*
X114118098Y-125447649D01*
X114113000Y-125456623D01*
X114057066Y-125577122D01*
X114010242Y-125630489D01*
X113941998Y-125650070D01*
X113874003Y-125629646D01*
X113829773Y-125579801D01*
X113790535Y-125500234D01*
X113790535Y-125500233D01*
X113790532Y-125500229D01*
X113787980Y-125495053D01*
X113747756Y-125441186D01*
X113659420Y-125322891D01*
X113659420Y-125322890D01*
X113655967Y-125318267D01*
X113520628Y-125193161D01*
X113498189Y-125172418D01*
X113498186Y-125172416D01*
X113493949Y-125168499D01*
X113307350Y-125050764D01*
X113102421Y-124969006D01*
X113096761Y-124967880D01*
X113096757Y-124967879D01*
X112891691Y-124927089D01*
X112891688Y-124927089D01*
X112886024Y-124925962D01*
X112880249Y-124925886D01*
X112880245Y-124925886D01*
X112769504Y-124924437D01*
X112665406Y-124923074D01*
X112659709Y-124924053D01*
X112659708Y-124924053D01*
X112453654Y-124959459D01*
X112453653Y-124959459D01*
X112447957Y-124960438D01*
X112240957Y-125036804D01*
X112235996Y-125039756D01*
X112235995Y-125039756D01*
X112118350Y-125109748D01*
X112051341Y-125149614D01*
X111885457Y-125295090D01*
X111748863Y-125468360D01*
X111646131Y-125663620D01*
X111627116Y-125724859D01*
X111610432Y-125778591D01*
X111571129Y-125837716D01*
X111506100Y-125866207D01*
X111435990Y-125855017D01*
X111383060Y-125807700D01*
X111368830Y-125775428D01*
X111354130Y-125723305D01*
X111345565Y-125692936D01*
X111247980Y-125495053D01*
X111207756Y-125441186D01*
X111119420Y-125322891D01*
X111119420Y-125322890D01*
X111115967Y-125318267D01*
X110980628Y-125193161D01*
X110958189Y-125172418D01*
X110958186Y-125172416D01*
X110953949Y-125168499D01*
X110767350Y-125050764D01*
X110562421Y-124969006D01*
X110556761Y-124967880D01*
X110556757Y-124967879D01*
X110351691Y-124927089D01*
X110351688Y-124927089D01*
X110346024Y-124925962D01*
X110340249Y-124925886D01*
X110340245Y-124925886D01*
X110229504Y-124924437D01*
X110125406Y-124923074D01*
X110119709Y-124924053D01*
X110119708Y-124924053D01*
X109913654Y-124959459D01*
X109913653Y-124959459D01*
X109907957Y-124960438D01*
X109700957Y-125036804D01*
X109695996Y-125039756D01*
X109695995Y-125039756D01*
X109578350Y-125109748D01*
X109511341Y-125149614D01*
X109345457Y-125295090D01*
X109208863Y-125468360D01*
X109106131Y-125663620D01*
X109087116Y-125724859D01*
X109070432Y-125778591D01*
X109031129Y-125837716D01*
X108966100Y-125866207D01*
X108895990Y-125855017D01*
X108843060Y-125807700D01*
X108828830Y-125775428D01*
X108814130Y-125723305D01*
X108805565Y-125692936D01*
X108707980Y-125495053D01*
X108667756Y-125441186D01*
X108579420Y-125322891D01*
X108579420Y-125322890D01*
X108575967Y-125318267D01*
X108440628Y-125193161D01*
X108418189Y-125172418D01*
X108418186Y-125172416D01*
X108413949Y-125168499D01*
X108227350Y-125050764D01*
X108022421Y-124969006D01*
X108016761Y-124967880D01*
X108016757Y-124967879D01*
X107811691Y-124927089D01*
X107811688Y-124927089D01*
X107806024Y-124925962D01*
X107800249Y-124925886D01*
X107800245Y-124925886D01*
X107689504Y-124924437D01*
X107585406Y-124923074D01*
X107579709Y-124924053D01*
X107579708Y-124924053D01*
X107373654Y-124959459D01*
X107373653Y-124959459D01*
X107367957Y-124960438D01*
X107160957Y-125036804D01*
X107155996Y-125039756D01*
X107155995Y-125039756D01*
X107038350Y-125109748D01*
X106971341Y-125149614D01*
X106805457Y-125295090D01*
X106668863Y-125468360D01*
X106566131Y-125663620D01*
X106547116Y-125724859D01*
X106530432Y-125778591D01*
X106491129Y-125837716D01*
X106426100Y-125866207D01*
X106355990Y-125855017D01*
X106303060Y-125807700D01*
X106288830Y-125775428D01*
X106274130Y-125723305D01*
X106265565Y-125692936D01*
X106167980Y-125495053D01*
X106127756Y-125441186D01*
X106039420Y-125322891D01*
X106039420Y-125322890D01*
X106035967Y-125318267D01*
X105900628Y-125193161D01*
X105878189Y-125172418D01*
X105878186Y-125172416D01*
X105873949Y-125168499D01*
X105687350Y-125050764D01*
X105482421Y-124969006D01*
X105476761Y-124967880D01*
X105476757Y-124967879D01*
X105271691Y-124927089D01*
X105271688Y-124927089D01*
X105266024Y-124925962D01*
X105260249Y-124925886D01*
X105260245Y-124925886D01*
X105149504Y-124924437D01*
X105045406Y-124923074D01*
X105039709Y-124924053D01*
X105039708Y-124924053D01*
X104833654Y-124959459D01*
X104833653Y-124959459D01*
X104827957Y-124960438D01*
X104620957Y-125036804D01*
X104615996Y-125039756D01*
X104615995Y-125039756D01*
X104498350Y-125109748D01*
X104431341Y-125149614D01*
X104265457Y-125295090D01*
X104128863Y-125468360D01*
X104026131Y-125663620D01*
X103960703Y-125874333D01*
X103934770Y-126093440D01*
X103949200Y-126313604D01*
X103950621Y-126319200D01*
X103950622Y-126319205D01*
X104002090Y-126521857D01*
X104003511Y-126527452D01*
X104005928Y-126532694D01*
X104005928Y-126532695D01*
X104044046Y-126615379D01*
X104095883Y-126727821D01*
X104223222Y-126908002D01*
X104381264Y-127061961D01*
X104386060Y-127065166D01*
X104386063Y-127065168D01*
X104470261Y-127121427D01*
X104564717Y-127184540D01*
X104570020Y-127186818D01*
X104570023Y-127186820D01*
X104733221Y-127256935D01*
X104767436Y-127271635D01*
X104773071Y-127272910D01*
X104773074Y-127272911D01*
X104774484Y-127273230D01*
X104775083Y-127273564D01*
X104778562Y-127274694D01*
X104778340Y-127275377D01*
X104836511Y-127307772D01*
X104870016Y-127370366D01*
X104864362Y-127441137D01*
X104821344Y-127497616D01*
X104790287Y-127514335D01*
X104626376Y-127574804D01*
X104626368Y-127574808D01*
X104620957Y-127576804D01*
X104615996Y-127579756D01*
X104615995Y-127579756D01*
X104498350Y-127649748D01*
X104431341Y-127689614D01*
X104265457Y-127835090D01*
X104128863Y-128008360D01*
X104033260Y-128190070D01*
X104029794Y-128196658D01*
X103980375Y-128247630D01*
X103918286Y-128263990D01*
X101618639Y-128263990D01*
X101550518Y-128243988D01*
X101529544Y-128227085D01*
X94312405Y-121009947D01*
X94278379Y-120947635D01*
X94275500Y-120920852D01*
X94275500Y-118220902D01*
X95144740Y-118220902D01*
X95145642Y-118227662D01*
X95145642Y-118227666D01*
X95155381Y-118300659D01*
X95155751Y-118303713D01*
X95163705Y-118376928D01*
X95164442Y-118383709D01*
X95166616Y-118390169D01*
X95167286Y-118393217D01*
X95167367Y-118393678D01*
X95167403Y-118393829D01*
X95167536Y-118394288D01*
X95168278Y-118397307D01*
X95169180Y-118404069D01*
X95171513Y-118410479D01*
X95171514Y-118410483D01*
X95196697Y-118479671D01*
X95197714Y-118482575D01*
X95223383Y-118558848D01*
X95226900Y-118564702D01*
X95228200Y-118567514D01*
X95228382Y-118567957D01*
X95228458Y-118568116D01*
X95228686Y-118568534D01*
X95230049Y-118571303D01*
X95232382Y-118577715D01*
X95236036Y-118583473D01*
X95236039Y-118583479D01*
X95275490Y-118645644D01*
X95277108Y-118648263D01*
X95318557Y-118717244D01*
X95323246Y-118722203D01*
X95325128Y-118724682D01*
X95325668Y-118725459D01*
X95328625Y-118729369D01*
X95331398Y-118733738D01*
X95335183Y-118737972D01*
X95388689Y-118791478D01*
X95391142Y-118794000D01*
X95445524Y-118851507D01*
X95451166Y-118855341D01*
X95456366Y-118859767D01*
X95456022Y-118860171D01*
X95463918Y-118866707D01*
X97769567Y-121172356D01*
X97776710Y-121180123D01*
X97810020Y-121219540D01*
X97860921Y-121258456D01*
X97873940Y-121268410D01*
X97876360Y-121270308D01*
X97939073Y-121320731D01*
X97945191Y-121323768D01*
X97947802Y-121325438D01*
X97948196Y-121325714D01*
X97948320Y-121325791D01*
X97948742Y-121326023D01*
X97951395Y-121327630D01*
X97956820Y-121331777D01*
X98004909Y-121354201D01*
X98029730Y-121365775D01*
X98032505Y-121367110D01*
X98098480Y-121399861D01*
X98098484Y-121399863D01*
X98104593Y-121402895D01*
X98111218Y-121404547D01*
X98114121Y-121405615D01*
X98114573Y-121405803D01*
X98114708Y-121405851D01*
X98115167Y-121405986D01*
X98118108Y-121406987D01*
X98124297Y-121409873D01*
X98130960Y-121411362D01*
X98130959Y-121411362D01*
X98202831Y-121427427D01*
X98205828Y-121428136D01*
X98277272Y-121445949D01*
X98283894Y-121447600D01*
X98290714Y-121447790D01*
X98293792Y-121448212D01*
X98294709Y-121448377D01*
X98299585Y-121449054D01*
X98304637Y-121450183D01*
X98310307Y-121450500D01*
X98385965Y-121450500D01*
X98389484Y-121450549D01*
X98468612Y-121452759D01*
X98475318Y-121451480D01*
X98482115Y-121450933D01*
X98482158Y-121451462D01*
X98492364Y-121450500D01*
X113995521Y-121450500D01*
X114063642Y-121470502D01*
X114084616Y-121487405D01*
X116958595Y-124361383D01*
X116992621Y-124423695D01*
X116995500Y-124450478D01*
X116995500Y-125213931D01*
X116975498Y-125282052D01*
X116965341Y-125294999D01*
X116965457Y-125295090D01*
X116828863Y-125468360D01*
X116790259Y-125541733D01*
X116768589Y-125582921D01*
X116719169Y-125633893D01*
X116650037Y-125650056D01*
X116583141Y-125626277D01*
X116541531Y-125574495D01*
X116502972Y-125485814D01*
X116498105Y-125476739D01*
X116382426Y-125297926D01*
X116376136Y-125289757D01*
X116232806Y-125132240D01*
X116225273Y-125125215D01*
X116058139Y-124993222D01*
X116049552Y-124987517D01*
X115863114Y-124884597D01*
X115853705Y-124880369D01*
X115817076Y-124867398D01*
X115802996Y-124866626D01*
X115800000Y-124872337D01*
X115800000Y-127392336D01*
X115798676Y-127392336D01*
X115799521Y-127401351D01*
X115800000Y-127401351D01*
X115800000Y-127406459D01*
X115800054Y-127407035D01*
X115800000Y-127407580D01*
X115800000Y-129914221D01*
X115803973Y-129927752D01*
X115807842Y-129928308D01*
X115808867Y-129927992D01*
X115993095Y-129837739D01*
X116001945Y-129832464D01*
X116175328Y-129708792D01*
X116183200Y-129702139D01*
X116334052Y-129551812D01*
X116340730Y-129543965D01*
X116465003Y-129371020D01*
X116470313Y-129362183D01*
X116544355Y-129212371D01*
X116592469Y-129160164D01*
X116661170Y-129142257D01*
X116728646Y-129164335D01*
X116771737Y-129215445D01*
X116795883Y-129267821D01*
X116923222Y-129448002D01*
X117081264Y-129601961D01*
X117086060Y-129605166D01*
X117086063Y-129605168D01*
X117170261Y-129661427D01*
X117264717Y-129724540D01*
X117270020Y-129726818D01*
X117270023Y-129726820D01*
X117388953Y-129777916D01*
X117467436Y-129811635D01*
X117547088Y-129829658D01*
X117676995Y-129859054D01*
X117677001Y-129859055D01*
X117682632Y-129860329D01*
X117688403Y-129860556D01*
X117688405Y-129860556D01*
X117756211Y-129863220D01*
X117903098Y-129868991D01*
X118012275Y-129853161D01*
X118115738Y-129838160D01*
X118115743Y-129838159D01*
X118121452Y-129837331D01*
X118126916Y-129835476D01*
X118126921Y-129835475D01*
X118324907Y-129768268D01*
X118324912Y-129768266D01*
X118330379Y-129766410D01*
X118522884Y-129658602D01*
X118542987Y-129641883D01*
X118688086Y-129521204D01*
X118692518Y-129517518D01*
X118833602Y-129347884D01*
X118907771Y-129215446D01*
X118938586Y-129160422D01*
X118938587Y-129160420D01*
X118941410Y-129155379D01*
X118943266Y-129149912D01*
X118943268Y-129149907D01*
X118990264Y-129011460D01*
X119031101Y-128953383D01*
X119096854Y-128926605D01*
X119166646Y-128939626D01*
X119218319Y-128988313D01*
X119231700Y-129020946D01*
X119242089Y-129061855D01*
X119242091Y-129061860D01*
X119243511Y-129067452D01*
X119245928Y-129072694D01*
X119245928Y-129072695D01*
X119288175Y-129164335D01*
X119335883Y-129267821D01*
X119463222Y-129448002D01*
X119621264Y-129601961D01*
X119626060Y-129605166D01*
X119626063Y-129605168D01*
X119710261Y-129661427D01*
X119804717Y-129724540D01*
X119810020Y-129726818D01*
X119810023Y-129726820D01*
X119928953Y-129777916D01*
X120007436Y-129811635D01*
X120087088Y-129829658D01*
X120216995Y-129859054D01*
X120217001Y-129859055D01*
X120222632Y-129860329D01*
X120228403Y-129860556D01*
X120228405Y-129860556D01*
X120296211Y-129863220D01*
X120443098Y-129868991D01*
X120552275Y-129853161D01*
X120655738Y-129838160D01*
X120655743Y-129838159D01*
X120661452Y-129837331D01*
X120666916Y-129835476D01*
X120666921Y-129835475D01*
X120864907Y-129768268D01*
X120864912Y-129768266D01*
X120870379Y-129766410D01*
X121062884Y-129658602D01*
X121082987Y-129641883D01*
X121228086Y-129521204D01*
X121232518Y-129517518D01*
X121373602Y-129347884D01*
X121447771Y-129215446D01*
X121478586Y-129160422D01*
X121478587Y-129160420D01*
X121481410Y-129155379D01*
X121483266Y-129149912D01*
X121483268Y-129149907D01*
X121530264Y-129011460D01*
X121571101Y-128953383D01*
X121636854Y-128926605D01*
X121706646Y-128939626D01*
X121758319Y-128988313D01*
X121771700Y-129020946D01*
X121782089Y-129061855D01*
X121782091Y-129061860D01*
X121783511Y-129067452D01*
X121785928Y-129072694D01*
X121785928Y-129072695D01*
X121828175Y-129164335D01*
X121875883Y-129267821D01*
X122003222Y-129448002D01*
X122161264Y-129601961D01*
X122166060Y-129605166D01*
X122166063Y-129605168D01*
X122250261Y-129661427D01*
X122344717Y-129724540D01*
X122350020Y-129726818D01*
X122350023Y-129726820D01*
X122468953Y-129777916D01*
X122547436Y-129811635D01*
X122627088Y-129829658D01*
X122756995Y-129859054D01*
X122757001Y-129859055D01*
X122762632Y-129860329D01*
X122768403Y-129860556D01*
X122768405Y-129860556D01*
X122836211Y-129863220D01*
X122983098Y-129868991D01*
X123092275Y-129853161D01*
X123195738Y-129838160D01*
X123195743Y-129838159D01*
X123201452Y-129837331D01*
X123206916Y-129835476D01*
X123206921Y-129835475D01*
X123404907Y-129768268D01*
X123404912Y-129768266D01*
X123410379Y-129766410D01*
X123602884Y-129658602D01*
X123622987Y-129641883D01*
X123768086Y-129521204D01*
X123772518Y-129517518D01*
X123913602Y-129347884D01*
X123987771Y-129215446D01*
X124018586Y-129160422D01*
X124018587Y-129160420D01*
X124021410Y-129155379D01*
X124023266Y-129149912D01*
X124023268Y-129149907D01*
X124070264Y-129011460D01*
X124111101Y-128953383D01*
X124176854Y-128926605D01*
X124246646Y-128939626D01*
X124298319Y-128988313D01*
X124311700Y-129020946D01*
X124322089Y-129061855D01*
X124322091Y-129061860D01*
X124323511Y-129067452D01*
X124325928Y-129072694D01*
X124325928Y-129072695D01*
X124368175Y-129164335D01*
X124415883Y-129267821D01*
X124543222Y-129448002D01*
X124701264Y-129601961D01*
X124706060Y-129605166D01*
X124706063Y-129605168D01*
X124790261Y-129661427D01*
X124884717Y-129724540D01*
X124890020Y-129726818D01*
X124890023Y-129726820D01*
X125008953Y-129777916D01*
X125087436Y-129811635D01*
X125167088Y-129829658D01*
X125296995Y-129859054D01*
X125297001Y-129859055D01*
X125302632Y-129860329D01*
X125308403Y-129860556D01*
X125308405Y-129860556D01*
X125376211Y-129863220D01*
X125523098Y-129868991D01*
X125632275Y-129853161D01*
X125735738Y-129838160D01*
X125735743Y-129838159D01*
X125741452Y-129837331D01*
X125746916Y-129835476D01*
X125746921Y-129835475D01*
X125944907Y-129768268D01*
X125944912Y-129768266D01*
X125950379Y-129766410D01*
X126142884Y-129658602D01*
X126162987Y-129641883D01*
X126308086Y-129521204D01*
X126312518Y-129517518D01*
X126453602Y-129347884D01*
X126527771Y-129215446D01*
X126558586Y-129160422D01*
X126558587Y-129160420D01*
X126561410Y-129155379D01*
X126563266Y-129149912D01*
X126563268Y-129149907D01*
X126610264Y-129011460D01*
X126651101Y-128953383D01*
X126716854Y-128926605D01*
X126786646Y-128939626D01*
X126838319Y-128988313D01*
X126851700Y-129020946D01*
X126862089Y-129061855D01*
X126862091Y-129061860D01*
X126863511Y-129067452D01*
X126865928Y-129072694D01*
X126865928Y-129072695D01*
X126908175Y-129164335D01*
X126955883Y-129267821D01*
X127083222Y-129448002D01*
X127241264Y-129601961D01*
X127246060Y-129605166D01*
X127246063Y-129605168D01*
X127330261Y-129661427D01*
X127424717Y-129724540D01*
X127430020Y-129726818D01*
X127430023Y-129726820D01*
X127548953Y-129777916D01*
X127627436Y-129811635D01*
X127707088Y-129829658D01*
X127836995Y-129859054D01*
X127837001Y-129859055D01*
X127842632Y-129860329D01*
X127848403Y-129860556D01*
X127848405Y-129860556D01*
X127916211Y-129863220D01*
X128063098Y-129868991D01*
X128172275Y-129853161D01*
X128275738Y-129838160D01*
X128275743Y-129838159D01*
X128281452Y-129837331D01*
X128286916Y-129835476D01*
X128286921Y-129835475D01*
X128484907Y-129768268D01*
X128484912Y-129768266D01*
X128490379Y-129766410D01*
X128682884Y-129658602D01*
X128702987Y-129641883D01*
X128848086Y-129521204D01*
X128852518Y-129517518D01*
X128993602Y-129347884D01*
X129067771Y-129215446D01*
X129098586Y-129160422D01*
X129098587Y-129160420D01*
X129101410Y-129155379D01*
X129103266Y-129149912D01*
X129103268Y-129149907D01*
X129170475Y-128951921D01*
X129170476Y-128951916D01*
X129172331Y-128946452D01*
X129173159Y-128940743D01*
X129173160Y-128940738D01*
X129203458Y-128731772D01*
X129203991Y-128728098D01*
X129205643Y-128665000D01*
X129185454Y-128445289D01*
X129125565Y-128232936D01*
X129027980Y-128035053D01*
X128895967Y-127858267D01*
X128756500Y-127729345D01*
X128738189Y-127712418D01*
X128738186Y-127712416D01*
X128733949Y-127708499D01*
X128547350Y-127590764D01*
X128507346Y-127574804D01*
X128491620Y-127568530D01*
X128435760Y-127524709D01*
X128412460Y-127457645D01*
X128429116Y-127388630D01*
X128480440Y-127339576D01*
X128538310Y-127325500D01*
X128883218Y-127325500D01*
X128887768Y-127324830D01*
X128887771Y-127324830D01*
X128942426Y-127316784D01*
X128942427Y-127316784D01*
X128952112Y-127315358D01*
X129021963Y-127281063D01*
X129047507Y-127268522D01*
X129047509Y-127268521D01*
X129056855Y-127263932D01*
X129139293Y-127181350D01*
X129145432Y-127168792D01*
X129171009Y-127116466D01*
X129190536Y-127076518D01*
X129200500Y-127008218D01*
X129200500Y-125241782D01*
X129193343Y-125193161D01*
X129191784Y-125182574D01*
X129191784Y-125182573D01*
X129190358Y-125172888D01*
X129138932Y-125068145D01*
X129056350Y-124985707D01*
X129034520Y-124975036D01*
X129002652Y-124959459D01*
X128951518Y-124934464D01*
X128921027Y-124930016D01*
X128887744Y-124925160D01*
X128887740Y-124925160D01*
X128883218Y-124924500D01*
X127116782Y-124924500D01*
X127112232Y-124925170D01*
X127112229Y-124925170D01*
X127057574Y-124933216D01*
X127057573Y-124933216D01*
X127047888Y-124934642D01*
X126997992Y-124959140D01*
X126952493Y-124981478D01*
X126952491Y-124981479D01*
X126943145Y-124986068D01*
X126860707Y-125068650D01*
X126809464Y-125173482D01*
X126807500Y-125186948D01*
X126802837Y-125218911D01*
X126799500Y-125241782D01*
X126799500Y-125586369D01*
X126779498Y-125654490D01*
X126725842Y-125700983D01*
X126655568Y-125711087D01*
X126590988Y-125681593D01*
X126560494Y-125642097D01*
X126490535Y-125500234D01*
X126490534Y-125500233D01*
X126487980Y-125495053D01*
X126447756Y-125441186D01*
X126359420Y-125322891D01*
X126359420Y-125322890D01*
X126355967Y-125318267D01*
X126220628Y-125193161D01*
X126198189Y-125172418D01*
X126198186Y-125172416D01*
X126193949Y-125168499D01*
X126007350Y-125050764D01*
X125802421Y-124969006D01*
X125796761Y-124967880D01*
X125796757Y-124967879D01*
X125591691Y-124927089D01*
X125591688Y-124927089D01*
X125586024Y-124925962D01*
X125580249Y-124925886D01*
X125580245Y-124925886D01*
X125469504Y-124924437D01*
X125365406Y-124923074D01*
X125359709Y-124924053D01*
X125359708Y-124924053D01*
X125153654Y-124959459D01*
X125153653Y-124959459D01*
X125147957Y-124960438D01*
X124940957Y-125036804D01*
X124935996Y-125039756D01*
X124935995Y-125039756D01*
X124818350Y-125109748D01*
X124751341Y-125149614D01*
X124585457Y-125295090D01*
X124448863Y-125468360D01*
X124346131Y-125663620D01*
X124327116Y-125724859D01*
X124310432Y-125778591D01*
X124271129Y-125837716D01*
X124206100Y-125866207D01*
X124135990Y-125855017D01*
X124083060Y-125807700D01*
X124068830Y-125775428D01*
X124054130Y-125723305D01*
X124045565Y-125692936D01*
X123947980Y-125495053D01*
X123907756Y-125441186D01*
X123819420Y-125322891D01*
X123819420Y-125322890D01*
X123815967Y-125318267D01*
X123680628Y-125193161D01*
X123658189Y-125172418D01*
X123658186Y-125172416D01*
X123653949Y-125168499D01*
X123467350Y-125050764D01*
X123262421Y-124969006D01*
X123256761Y-124967880D01*
X123256757Y-124967879D01*
X123051691Y-124927089D01*
X123051688Y-124927089D01*
X123046024Y-124925962D01*
X123040249Y-124925886D01*
X123040245Y-124925886D01*
X122929504Y-124924437D01*
X122825406Y-124923074D01*
X122819709Y-124924053D01*
X122819708Y-124924053D01*
X122613654Y-124959459D01*
X122613653Y-124959459D01*
X122607957Y-124960438D01*
X122400957Y-125036804D01*
X122395996Y-125039756D01*
X122395995Y-125039756D01*
X122278350Y-125109748D01*
X122211341Y-125149614D01*
X122045457Y-125295090D01*
X121908863Y-125468360D01*
X121806131Y-125663620D01*
X121787116Y-125724859D01*
X121770432Y-125778591D01*
X121731129Y-125837716D01*
X121666100Y-125866207D01*
X121595990Y-125855017D01*
X121543060Y-125807700D01*
X121528830Y-125775428D01*
X121514130Y-125723305D01*
X121505565Y-125692936D01*
X121407980Y-125495053D01*
X121367756Y-125441186D01*
X121279420Y-125322891D01*
X121279420Y-125322890D01*
X121275967Y-125318267D01*
X121140628Y-125193161D01*
X121118189Y-125172418D01*
X121118186Y-125172416D01*
X121113949Y-125168499D01*
X120927350Y-125050764D01*
X120722421Y-124969006D01*
X120716761Y-124967880D01*
X120716757Y-124967879D01*
X120511691Y-124927089D01*
X120511688Y-124927089D01*
X120506024Y-124925962D01*
X120500249Y-124925886D01*
X120500245Y-124925886D01*
X120389504Y-124924437D01*
X120285406Y-124923074D01*
X120279709Y-124924053D01*
X120279708Y-124924053D01*
X120073654Y-124959459D01*
X120073653Y-124959459D01*
X120067957Y-124960438D01*
X119860957Y-125036804D01*
X119855996Y-125039756D01*
X119855995Y-125039756D01*
X119738350Y-125109748D01*
X119671341Y-125149614D01*
X119505457Y-125295090D01*
X119368863Y-125468360D01*
X119266131Y-125663620D01*
X119247116Y-125724859D01*
X119230432Y-125778591D01*
X119191129Y-125837716D01*
X119126100Y-125866207D01*
X119055990Y-125855017D01*
X119003060Y-125807700D01*
X118988830Y-125775428D01*
X118974130Y-125723305D01*
X118965565Y-125692936D01*
X118867980Y-125495053D01*
X118827756Y-125441186D01*
X118739420Y-125322891D01*
X118739420Y-125322890D01*
X118735967Y-125318267D01*
X118731731Y-125314351D01*
X118728863Y-125311166D01*
X118698146Y-125247158D01*
X118696500Y-125226857D01*
X118696500Y-124087062D01*
X118696942Y-124076518D01*
X118700689Y-124031895D01*
X118701260Y-124025098D01*
X118700358Y-124018334D01*
X118690619Y-123945341D01*
X118690249Y-123942287D01*
X118682295Y-123869072D01*
X118682294Y-123869069D01*
X118681558Y-123862291D01*
X118679384Y-123855831D01*
X118678714Y-123852783D01*
X118678633Y-123852322D01*
X118678597Y-123852171D01*
X118678464Y-123851712D01*
X118677722Y-123848693D01*
X118676820Y-123841931D01*
X118674487Y-123835521D01*
X118674486Y-123835517D01*
X118649303Y-123766329D01*
X118648285Y-123763423D01*
X118624795Y-123693623D01*
X118624794Y-123693621D01*
X118622617Y-123687152D01*
X118619100Y-123681298D01*
X118617800Y-123678486D01*
X118617618Y-123678043D01*
X118617542Y-123677884D01*
X118617314Y-123677466D01*
X118615951Y-123674697D01*
X118613618Y-123668285D01*
X118609964Y-123662527D01*
X118609961Y-123662521D01*
X118570510Y-123600356D01*
X118568892Y-123597737D01*
X118530959Y-123534607D01*
X118530958Y-123534605D01*
X118527443Y-123528756D01*
X118522754Y-123523797D01*
X118520872Y-123521318D01*
X118520332Y-123520541D01*
X118517375Y-123516631D01*
X118514602Y-123512262D01*
X118510817Y-123508028D01*
X118457311Y-123454522D01*
X118454858Y-123452000D01*
X118405165Y-123399451D01*
X118405163Y-123399449D01*
X118400476Y-123394493D01*
X118394834Y-123390659D01*
X118389634Y-123386233D01*
X118389978Y-123385829D01*
X118382082Y-123379293D01*
X115030438Y-120027650D01*
X115023295Y-120019883D01*
X114994386Y-119985674D01*
X114989980Y-119980460D01*
X114960591Y-119957990D01*
X114926071Y-119931598D01*
X114923647Y-119929698D01*
X114866247Y-119883546D01*
X114866244Y-119883544D01*
X114860927Y-119879269D01*
X114854810Y-119876232D01*
X114852198Y-119874562D01*
X114851804Y-119874286D01*
X114851680Y-119874209D01*
X114851258Y-119873977D01*
X114848605Y-119872370D01*
X114843180Y-119868223D01*
X114770262Y-119834221D01*
X114767495Y-119832890D01*
X114701520Y-119800139D01*
X114701516Y-119800137D01*
X114695407Y-119797105D01*
X114688782Y-119795453D01*
X114685879Y-119794385D01*
X114685427Y-119794197D01*
X114685292Y-119794149D01*
X114684833Y-119794014D01*
X114681892Y-119793013D01*
X114675703Y-119790127D01*
X114653246Y-119785107D01*
X114597169Y-119772573D01*
X114594172Y-119771864D01*
X114522728Y-119754051D01*
X114522727Y-119754051D01*
X114516106Y-119752400D01*
X114509286Y-119752210D01*
X114506208Y-119751788D01*
X114505291Y-119751623D01*
X114500415Y-119750946D01*
X114495363Y-119749817D01*
X114489693Y-119749500D01*
X114414036Y-119749500D01*
X114410518Y-119749451D01*
X114408788Y-119749403D01*
X114331389Y-119747241D01*
X114324683Y-119748520D01*
X114317886Y-119749067D01*
X114317843Y-119748538D01*
X114307637Y-119749500D01*
X98804478Y-119749500D01*
X98736357Y-119729498D01*
X98715383Y-119712595D01*
X96887405Y-117884617D01*
X96853379Y-117822305D01*
X96850500Y-117795522D01*
X96850500Y-107204479D01*
X96870502Y-107136358D01*
X96887405Y-107115384D01*
X99372350Y-104630438D01*
X99380117Y-104623295D01*
X99403546Y-104603496D01*
X99419540Y-104589980D01*
X99468409Y-104526062D01*
X99470302Y-104523647D01*
X99516454Y-104466247D01*
X99516456Y-104466244D01*
X99520731Y-104460927D01*
X99523768Y-104454810D01*
X99525438Y-104452198D01*
X99525714Y-104451804D01*
X99525791Y-104451680D01*
X99526023Y-104451258D01*
X99527630Y-104448605D01*
X99531777Y-104443180D01*
X99565779Y-104370262D01*
X99567110Y-104367495D01*
X99599861Y-104301520D01*
X99599863Y-104301516D01*
X99602895Y-104295407D01*
X99604547Y-104288782D01*
X99605615Y-104285879D01*
X99605803Y-104285427D01*
X99605851Y-104285292D01*
X99605986Y-104284833D01*
X99606987Y-104281892D01*
X99609873Y-104275703D01*
X99624986Y-104208088D01*
X99627427Y-104197169D01*
X99628136Y-104194172D01*
X99645949Y-104122728D01*
X99645949Y-104122727D01*
X99647600Y-104116106D01*
X99647790Y-104109286D01*
X99648212Y-104106208D01*
X99648377Y-104105291D01*
X99649054Y-104100415D01*
X99650183Y-104095363D01*
X99650500Y-104089693D01*
X99650500Y-104014036D01*
X99650549Y-104010518D01*
X99651267Y-103984798D01*
X99652759Y-103931389D01*
X99651480Y-103924683D01*
X99650933Y-103917886D01*
X99651462Y-103917843D01*
X99650500Y-103907637D01*
X99650500Y-99641062D01*
X99650942Y-99630518D01*
X99654689Y-99585895D01*
X99655260Y-99579098D01*
X99652461Y-99558117D01*
X99644619Y-99499341D01*
X99644249Y-99496287D01*
X99636295Y-99423072D01*
X99636294Y-99423069D01*
X99635558Y-99416291D01*
X99633384Y-99409831D01*
X99632714Y-99406783D01*
X99632633Y-99406322D01*
X99632597Y-99406171D01*
X99632464Y-99405712D01*
X99631722Y-99402693D01*
X99630820Y-99395931D01*
X99628487Y-99389521D01*
X99628486Y-99389517D01*
X99603303Y-99320329D01*
X99602285Y-99317423D01*
X99578795Y-99247623D01*
X99578794Y-99247621D01*
X99576617Y-99241152D01*
X99573100Y-99235298D01*
X99571800Y-99232486D01*
X99571618Y-99232043D01*
X99571542Y-99231884D01*
X99571314Y-99231466D01*
X99569951Y-99228697D01*
X99567618Y-99222285D01*
X99563964Y-99216527D01*
X99563961Y-99216521D01*
X99524510Y-99154356D01*
X99522892Y-99151737D01*
X99484959Y-99088607D01*
X99484958Y-99088605D01*
X99481443Y-99082756D01*
X99476754Y-99077797D01*
X99474872Y-99075318D01*
X99474335Y-99074546D01*
X99471378Y-99070636D01*
X99468602Y-99066262D01*
X99464817Y-99062029D01*
X99411328Y-99008540D01*
X99408875Y-99006018D01*
X99359165Y-98953451D01*
X99359163Y-98953449D01*
X99354476Y-98948493D01*
X99348835Y-98944659D01*
X99343634Y-98940233D01*
X99343978Y-98939828D01*
X99336079Y-98933291D01*
X97049400Y-96646612D01*
X97020629Y-96602055D01*
X96983394Y-96503514D01*
X96983393Y-96503511D01*
X96980710Y-96496412D01*
X96891531Y-96366657D01*
X96836998Y-96318070D01*
X96779648Y-96266972D01*
X96779645Y-96266970D01*
X96773976Y-96261919D01*
X96634831Y-96188245D01*
X96618122Y-96184048D01*
X96489498Y-96151740D01*
X96489496Y-96151740D01*
X96482128Y-96149889D01*
X96474530Y-96149849D01*
X96474528Y-96149849D01*
X96407319Y-96149497D01*
X96324684Y-96149065D01*
X96317305Y-96150837D01*
X96317301Y-96150837D01*
X96178967Y-96184048D01*
X96178963Y-96184049D01*
X96171588Y-96185820D01*
X96101750Y-96221866D01*
X96071698Y-96237377D01*
X96031679Y-96258032D01*
X96025957Y-96263024D01*
X96025955Y-96263025D01*
X95918759Y-96356538D01*
X95918756Y-96356541D01*
X95913034Y-96361533D01*
X95822501Y-96490348D01*
X95819740Y-96497430D01*
X95775878Y-96609931D01*
X95752121Y-96648473D01*
X95706122Y-96699560D01*
X95614847Y-96860234D01*
X95560203Y-97036760D01*
X95544740Y-97220902D01*
X95569180Y-97404069D01*
X95632382Y-97577715D01*
X95636036Y-97583472D01*
X95636038Y-97583477D01*
X95728631Y-97729378D01*
X95731398Y-97733738D01*
X95735183Y-97737972D01*
X95751131Y-97753920D01*
X95780362Y-97799714D01*
X95783936Y-97809480D01*
X95816143Y-97897490D01*
X95903958Y-98028172D01*
X95909574Y-98033282D01*
X96010280Y-98124917D01*
X96020410Y-98134135D01*
X96027085Y-98137759D01*
X96152099Y-98205637D01*
X96152101Y-98205638D01*
X96158776Y-98209262D01*
X96166120Y-98211189D01*
X96166126Y-98211191D01*
X96190437Y-98217568D01*
X96247560Y-98250349D01*
X97912595Y-99915384D01*
X97946621Y-99977696D01*
X97949500Y-100004479D01*
X97949500Y-103595521D01*
X97929498Y-103663642D01*
X97912595Y-103684616D01*
X95427650Y-106169562D01*
X95419883Y-106176705D01*
X95380460Y-106210020D01*
X95376313Y-106215444D01*
X95376312Y-106215445D01*
X95331598Y-106273929D01*
X95329705Y-106276345D01*
X95279269Y-106339073D01*
X95276232Y-106345190D01*
X95274562Y-106347802D01*
X95274286Y-106348196D01*
X95274209Y-106348320D01*
X95273977Y-106348742D01*
X95272370Y-106351395D01*
X95268223Y-106356820D01*
X95265338Y-106363008D01*
X95234225Y-106429730D01*
X95232890Y-106432505D01*
X95200139Y-106498480D01*
X95200137Y-106498484D01*
X95197105Y-106504593D01*
X95195453Y-106511218D01*
X95194385Y-106514121D01*
X95194197Y-106514573D01*
X95194149Y-106514708D01*
X95194014Y-106515167D01*
X95193013Y-106518108D01*
X95190127Y-106524297D01*
X95188638Y-106530959D01*
X95172573Y-106602831D01*
X95171864Y-106605828D01*
X95161691Y-106646631D01*
X95152400Y-106683894D01*
X95152210Y-106690714D01*
X95151788Y-106693792D01*
X95151623Y-106694709D01*
X95150946Y-106699585D01*
X95149817Y-106704637D01*
X95149500Y-106710307D01*
X95149500Y-106785964D01*
X95149451Y-106789482D01*
X95147241Y-106868611D01*
X95148520Y-106875317D01*
X95149067Y-106882114D01*
X95148538Y-106882157D01*
X95149500Y-106892363D01*
X95149500Y-118158938D01*
X95149058Y-118169479D01*
X95144740Y-118220902D01*
X94275500Y-118220902D01*
X94275500Y-102565955D01*
X94295502Y-102497834D01*
X94312405Y-102476860D01*
X96580398Y-100208867D01*
X96580944Y-100208324D01*
X96626256Y-100163562D01*
X96632645Y-100157251D01*
X96639071Y-100145683D01*
X96645802Y-100133564D01*
X96655125Y-100119180D01*
X96671372Y-100097502D01*
X96675210Y-100087263D01*
X96679590Y-100075583D01*
X96687421Y-100058637D01*
X96694422Y-100046032D01*
X96694423Y-100046030D01*
X96698783Y-100038180D01*
X96704764Y-100011750D01*
X96709670Y-99995344D01*
X96719184Y-99969964D01*
X96720919Y-99946619D01*
X96723677Y-99928159D01*
X96728842Y-99905334D01*
X96727165Y-99878296D01*
X96727269Y-99861160D01*
X96728612Y-99843082D01*
X96729277Y-99834133D01*
X96724391Y-99811241D01*
X96721858Y-99792748D01*
X96720965Y-99778352D01*
X96720409Y-99769391D01*
X96711205Y-99743896D01*
X96706502Y-99727440D01*
X96700843Y-99700930D01*
X96696577Y-99693023D01*
X96689728Y-99680328D01*
X96682107Y-99663293D01*
X96674159Y-99641278D01*
X96658173Y-99619395D01*
X96649029Y-99604903D01*
X96640427Y-99588961D01*
X96636164Y-99581060D01*
X96613500Y-99558117D01*
X96613047Y-99557625D01*
X96612424Y-99556772D01*
X96591940Y-99536288D01*
X96591397Y-99535743D01*
X96543060Y-99486812D01*
X96543059Y-99486811D01*
X96540443Y-99484163D01*
X96539289Y-99483522D01*
X96538387Y-99482735D01*
X88517065Y-91461414D01*
X88510093Y-91452688D01*
X88509635Y-91453077D01*
X88503819Y-91446243D01*
X88499028Y-91438650D01*
X88461486Y-91405494D01*
X88455799Y-91400148D01*
X88445278Y-91389627D01*
X88437706Y-91383952D01*
X88429875Y-91377576D01*
X88420857Y-91369612D01*
X88396938Y-91348487D01*
X88388811Y-91344671D01*
X88383474Y-91341166D01*
X88376656Y-91337070D01*
X88371073Y-91334013D01*
X88363888Y-91328628D01*
X88355483Y-91325477D01*
X88355481Y-91325476D01*
X88322739Y-91313202D01*
X88313419Y-91309275D01*
X88307589Y-91306538D01*
X88273645Y-91290601D01*
X88264775Y-91289220D01*
X88258695Y-91287361D01*
X88250974Y-91285335D01*
X88244761Y-91283969D01*
X88236350Y-91280816D01*
X88209313Y-91278807D01*
X88192517Y-91277559D01*
X88182470Y-91276405D01*
X88175048Y-91275249D01*
X88175046Y-91275249D01*
X88170237Y-91274500D01*
X88156031Y-91274500D01*
X88146694Y-91274154D01*
X88132522Y-91273101D01*
X88100519Y-91270723D01*
X88091743Y-91272596D01*
X88082786Y-91273207D01*
X88082779Y-91273101D01*
X88069526Y-91274500D01*
X86992203Y-91274500D01*
X86924082Y-91254498D01*
X86908393Y-91242584D01*
X86873976Y-91211919D01*
X86734831Y-91138245D01*
X86718122Y-91134048D01*
X86589498Y-91101740D01*
X86589496Y-91101740D01*
X86582128Y-91099889D01*
X86574530Y-91099849D01*
X86574528Y-91099849D01*
X86507319Y-91099497D01*
X86424684Y-91099065D01*
X86417305Y-91100837D01*
X86417301Y-91100837D01*
X86278967Y-91134048D01*
X86278963Y-91134049D01*
X86271588Y-91135820D01*
X86131679Y-91208032D01*
X86125957Y-91213024D01*
X86125955Y-91213025D01*
X86018759Y-91306538D01*
X86018756Y-91306541D01*
X86013034Y-91311533D01*
X85995086Y-91337070D01*
X85955921Y-91392797D01*
X85922501Y-91440348D01*
X85865309Y-91587039D01*
X85862161Y-91610949D01*
X85847935Y-91719009D01*
X85844758Y-91743138D01*
X82760089Y-91743138D01*
X82770119Y-91735607D01*
X82840092Y-91683070D01*
X82840096Y-91683067D01*
X82842995Y-91680890D01*
X82919919Y-91607893D01*
X83078813Y-91457109D01*
X83078817Y-91457105D01*
X83081447Y-91454609D01*
X83098570Y-91434131D01*
X83289988Y-91205196D01*
X83292310Y-91202419D01*
X83333771Y-91139301D01*
X83470802Y-90930691D01*
X83470807Y-90930682D01*
X83472789Y-90927665D01*
X83546641Y-90780827D01*
X83618866Y-90637225D01*
X83618869Y-90637217D01*
X83620493Y-90633989D01*
X83733464Y-90325281D01*
X83734309Y-90321759D01*
X83734312Y-90321751D01*
X83809357Y-90009165D01*
X83809358Y-90009161D01*
X83810204Y-90005636D01*
X83814234Y-89972336D01*
X83849361Y-89682067D01*
X83849362Y-89682060D01*
X83849697Y-89679288D01*
X83849786Y-89676479D01*
X83855243Y-89502797D01*
X83855331Y-89500000D01*
X83844457Y-89311414D01*
X83836617Y-89175436D01*
X83836616Y-89175431D01*
X83836408Y-89171816D01*
X83816016Y-89054976D01*
X83780514Y-88851556D01*
X83780512Y-88851549D01*
X83779890Y-88847983D01*
X83686526Y-88532791D01*
X83557554Y-88230419D01*
X83394682Y-87944875D01*
X83342264Y-87873516D01*
X83202210Y-87682857D01*
X83202208Y-87682855D01*
X83200070Y-87679944D01*
X82976298Y-87439136D01*
X82726331Y-87225643D01*
X82723328Y-87223625D01*
X82723320Y-87223619D01*
X82548405Y-87106082D01*
X82503020Y-87051486D01*
X82494357Y-86981020D01*
X82525165Y-86917056D01*
X82585664Y-86879903D01*
X82618681Y-86875500D01*
X83950852Y-86875500D01*
X84018973Y-86895502D01*
X84039947Y-86912405D01*
X87016128Y-89888586D01*
X87023100Y-89897312D01*
X87023558Y-89896923D01*
X87029374Y-89903757D01*
X87034165Y-89911350D01*
X87040894Y-89917292D01*
X87040894Y-89917293D01*
X87071707Y-89944506D01*
X87077394Y-89949852D01*
X87087915Y-89960373D01*
X87095487Y-89966048D01*
X87103318Y-89972424D01*
X87136255Y-90001513D01*
X87144382Y-90005329D01*
X87149719Y-90008834D01*
X87156546Y-90012936D01*
X87162125Y-90015991D01*
X87169305Y-90021372D01*
X87177706Y-90024521D01*
X87177709Y-90024523D01*
X87210455Y-90036798D01*
X87219778Y-90040727D01*
X87251423Y-90055585D01*
X87251428Y-90055586D01*
X87259548Y-90059399D01*
X87268416Y-90060780D01*
X87274477Y-90062633D01*
X87282229Y-90064667D01*
X87288436Y-90066032D01*
X87296843Y-90069183D01*
X87340660Y-90072439D01*
X87350709Y-90073593D01*
X87362956Y-90075500D01*
X87377166Y-90075500D01*
X87386504Y-90075846D01*
X87432674Y-90079277D01*
X87441450Y-90077404D01*
X87450407Y-90076793D01*
X87450414Y-90076899D01*
X87463667Y-90075500D01*
X92150852Y-90075500D01*
X92218973Y-90095502D01*
X92239947Y-90112405D01*
X96616128Y-94488586D01*
X96623100Y-94497312D01*
X96623558Y-94496923D01*
X96629374Y-94503757D01*
X96634165Y-94511350D01*
X96640894Y-94517292D01*
X96640894Y-94517293D01*
X96671707Y-94544506D01*
X96677394Y-94549852D01*
X96687915Y-94560373D01*
X96695487Y-94566048D01*
X96703318Y-94572424D01*
X96736255Y-94601513D01*
X96744382Y-94605329D01*
X96749719Y-94608834D01*
X96756546Y-94612936D01*
X96762125Y-94615991D01*
X96769305Y-94621372D01*
X96777706Y-94624521D01*
X96777709Y-94624523D01*
X96810455Y-94636798D01*
X96819778Y-94640727D01*
X96851423Y-94655585D01*
X96851428Y-94655586D01*
X96859548Y-94659399D01*
X96868416Y-94660780D01*
X96874477Y-94662633D01*
X96882229Y-94664667D01*
X96888436Y-94666032D01*
X96896843Y-94669183D01*
X96940660Y-94672439D01*
X96950709Y-94673593D01*
X96962956Y-94675500D01*
X96977166Y-94675500D01*
X96986504Y-94675846D01*
X97032674Y-94679277D01*
X97041450Y-94677404D01*
X97050407Y-94676793D01*
X97050414Y-94676899D01*
X97063667Y-94675500D01*
X100258852Y-94675500D01*
X100326973Y-94695502D01*
X100347947Y-94712405D01*
X101424457Y-95788916D01*
X101458483Y-95851228D01*
X101460601Y-95864184D01*
X101468470Y-95935454D01*
X101470035Y-95949633D01*
X101472644Y-95956764D01*
X101472645Y-95956766D01*
X101493742Y-96014414D01*
X101524143Y-96097490D01*
X101528380Y-96103796D01*
X101528382Y-96103799D01*
X101558800Y-96149065D01*
X101611958Y-96228172D01*
X101728410Y-96334135D01*
X101735085Y-96337759D01*
X101860099Y-96405637D01*
X101860101Y-96405638D01*
X101866776Y-96409262D01*
X101874125Y-96411190D01*
X102011719Y-96447287D01*
X102011721Y-96447287D01*
X102019069Y-96449215D01*
X102102380Y-96450524D01*
X102168898Y-96451569D01*
X102168901Y-96451569D01*
X102176495Y-96451688D01*
X102329968Y-96416538D01*
X102470625Y-96345795D01*
X102562915Y-96266972D01*
X102584574Y-96248474D01*
X102584576Y-96248471D01*
X102590348Y-96243542D01*
X102682224Y-96115683D01*
X102740950Y-95969598D01*
X102747953Y-95920393D01*
X102762553Y-95817807D01*
X102762553Y-95817804D01*
X102763134Y-95813723D01*
X102763202Y-95807254D01*
X102763235Y-95804134D01*
X102763235Y-95804128D01*
X102763278Y-95800000D01*
X102744363Y-95643694D01*
X102688710Y-95496412D01*
X102599531Y-95366657D01*
X102552971Y-95325174D01*
X102487648Y-95266972D01*
X102487645Y-95266970D01*
X102481976Y-95261919D01*
X102342831Y-95188245D01*
X102335466Y-95186395D01*
X102197499Y-95151740D01*
X102197495Y-95151740D01*
X102190128Y-95149889D01*
X102181843Y-95149846D01*
X102181364Y-95149702D01*
X102174997Y-95148898D01*
X102175131Y-95147837D01*
X102113827Y-95129491D01*
X102093402Y-95112943D01*
X100891872Y-93911414D01*
X100884900Y-93902688D01*
X100884442Y-93903077D01*
X100878626Y-93896243D01*
X100873835Y-93888650D01*
X100836293Y-93855494D01*
X100830606Y-93850148D01*
X100820085Y-93839627D01*
X100812513Y-93833952D01*
X100804682Y-93827576D01*
X100778474Y-93804430D01*
X100778475Y-93804430D01*
X100771745Y-93798487D01*
X100763618Y-93794671D01*
X100758281Y-93791166D01*
X100751463Y-93787070D01*
X100745880Y-93784013D01*
X100738695Y-93778628D01*
X100730290Y-93775477D01*
X100730288Y-93775476D01*
X100697546Y-93763202D01*
X100688226Y-93759275D01*
X100685010Y-93757765D01*
X100648452Y-93740601D01*
X100639582Y-93739220D01*
X100633502Y-93737361D01*
X100625781Y-93735335D01*
X100619568Y-93733969D01*
X100611157Y-93730816D01*
X100584120Y-93728807D01*
X100567324Y-93727559D01*
X100557277Y-93726405D01*
X100549855Y-93725249D01*
X100549853Y-93725249D01*
X100545044Y-93724500D01*
X100530838Y-93724500D01*
X100521501Y-93724154D01*
X100507329Y-93723101D01*
X100475326Y-93720723D01*
X100466550Y-93722596D01*
X100457593Y-93723207D01*
X100457586Y-93723101D01*
X100444333Y-93724500D01*
X97249148Y-93724500D01*
X97181027Y-93704498D01*
X97160053Y-93687595D01*
X93732645Y-90260187D01*
X124795059Y-90260187D01*
X124820536Y-90551399D01*
X124884305Y-90836683D01*
X124985244Y-91111027D01*
X124987188Y-91114715D01*
X124987192Y-91114723D01*
X125106100Y-91340252D01*
X125121580Y-91369612D01*
X125290918Y-91607893D01*
X125293768Y-91610949D01*
X125429739Y-91756760D01*
X125490283Y-91821686D01*
X125716171Y-92007233D01*
X125964616Y-92161275D01*
X126231250Y-92281105D01*
X126291975Y-92299208D01*
X126507394Y-92363428D01*
X126507402Y-92363430D01*
X126511391Y-92364619D01*
X126515508Y-92365271D01*
X126515512Y-92365272D01*
X126796649Y-92409799D01*
X126796654Y-92409799D01*
X126800117Y-92410348D01*
X126849069Y-92412571D01*
X126890128Y-92414436D01*
X126890147Y-92414436D01*
X126891547Y-92414500D01*
X127074151Y-92414500D01*
X127076243Y-92414361D01*
X127076245Y-92414361D01*
X127287511Y-92400329D01*
X127291682Y-92400052D01*
X127295776Y-92399227D01*
X127295780Y-92399226D01*
X127457893Y-92366538D01*
X127578239Y-92342272D01*
X127854637Y-92247100D01*
X127858370Y-92245231D01*
X127858374Y-92245229D01*
X128112276Y-92118084D01*
X128112278Y-92118083D01*
X128116020Y-92116209D01*
X128273135Y-92009434D01*
X128354336Y-91954250D01*
X128354339Y-91954248D01*
X128357795Y-91951899D01*
X128575716Y-91757055D01*
X128632984Y-91690240D01*
X128714984Y-91594568D01*
X128765953Y-91535102D01*
X128790197Y-91497770D01*
X128922892Y-91293437D01*
X128922894Y-91293434D01*
X128925164Y-91289938D01*
X129050552Y-91025871D01*
X129083122Y-90924429D01*
X129138636Y-90751521D01*
X129139914Y-90747541D01*
X129181260Y-90517754D01*
X129190943Y-90463940D01*
X129190944Y-90463934D01*
X129191681Y-90459836D01*
X129204941Y-90167813D01*
X129179464Y-89876601D01*
X129115695Y-89591317D01*
X129014756Y-89316973D01*
X129012812Y-89313285D01*
X129012808Y-89313277D01*
X128880373Y-89062092D01*
X128880372Y-89062091D01*
X128878420Y-89058388D01*
X128709082Y-88820107D01*
X128509717Y-88606314D01*
X128283829Y-88420767D01*
X128035384Y-88266725D01*
X127768750Y-88146895D01*
X127682077Y-88121056D01*
X127492606Y-88064572D01*
X127492598Y-88064570D01*
X127488609Y-88063381D01*
X127484492Y-88062729D01*
X127484488Y-88062728D01*
X127203351Y-88018201D01*
X127203346Y-88018201D01*
X127199883Y-88017652D01*
X127150931Y-88015429D01*
X127109872Y-88013564D01*
X127109853Y-88013564D01*
X127108453Y-88013500D01*
X126925849Y-88013500D01*
X126923757Y-88013639D01*
X126923755Y-88013639D01*
X126770316Y-88023830D01*
X126708318Y-88027948D01*
X126704224Y-88028773D01*
X126704220Y-88028774D01*
X126566905Y-88056462D01*
X126421761Y-88085728D01*
X126145363Y-88180900D01*
X126141630Y-88182769D01*
X126141626Y-88182771D01*
X125969581Y-88268925D01*
X125883980Y-88311791D01*
X125880515Y-88314146D01*
X125687098Y-88445592D01*
X125642205Y-88476101D01*
X125424284Y-88670945D01*
X125234047Y-88892898D01*
X125231773Y-88896400D01*
X125231772Y-88896401D01*
X125079542Y-89130816D01*
X125074836Y-89138062D01*
X124949448Y-89402129D01*
X124948169Y-89406112D01*
X124948168Y-89406115D01*
X124945655Y-89413943D01*
X124860086Y-89680459D01*
X124837471Y-89806148D01*
X124809721Y-89960373D01*
X124808319Y-89968164D01*
X124795059Y-90260187D01*
X93732645Y-90260187D01*
X92783872Y-89311414D01*
X92776900Y-89302688D01*
X92776442Y-89303077D01*
X92770626Y-89296243D01*
X92765835Y-89288650D01*
X92728293Y-89255494D01*
X92722606Y-89250148D01*
X92712085Y-89239627D01*
X92704513Y-89233952D01*
X92696682Y-89227576D01*
X92670474Y-89204430D01*
X92670475Y-89204430D01*
X92663745Y-89198487D01*
X92655618Y-89194671D01*
X92650281Y-89191166D01*
X92643463Y-89187070D01*
X92637880Y-89184013D01*
X92630695Y-89178628D01*
X92622290Y-89175477D01*
X92622288Y-89175476D01*
X92589546Y-89163202D01*
X92580226Y-89159275D01*
X92577010Y-89157765D01*
X92540452Y-89140601D01*
X92531582Y-89139220D01*
X92525502Y-89137361D01*
X92517781Y-89135335D01*
X92511568Y-89133969D01*
X92503157Y-89130816D01*
X92476120Y-89128807D01*
X92459324Y-89127559D01*
X92449277Y-89126405D01*
X92441855Y-89125249D01*
X92441853Y-89125249D01*
X92437044Y-89124500D01*
X92422838Y-89124500D01*
X92413501Y-89124154D01*
X92399329Y-89123101D01*
X92367326Y-89120723D01*
X92358550Y-89122596D01*
X92349593Y-89123207D01*
X92349586Y-89123101D01*
X92336333Y-89124500D01*
X87649148Y-89124500D01*
X87581027Y-89104498D01*
X87560053Y-89087595D01*
X84583872Y-86111414D01*
X84576900Y-86102688D01*
X84576442Y-86103077D01*
X84570626Y-86096243D01*
X84565835Y-86088650D01*
X84545218Y-86070441D01*
X84507399Y-86010356D01*
X84508069Y-85939363D01*
X84547015Y-85880001D01*
X84611871Y-85851119D01*
X84628625Y-85850000D01*
X126962535Y-85850000D01*
X126982247Y-85851551D01*
G37*
%TD.AperFunction*%
%TA.AperFunction,Conductor*%
G36*
X67340686Y-86448312D02*
G01*
X72868114Y-86448830D01*
X72936232Y-86468838D01*
X72982720Y-86522498D01*
X72992817Y-86592773D01*
X72963318Y-86657351D01*
X72908915Y-86694037D01*
X72864960Y-86709086D01*
X72858253Y-86711823D01*
X72551707Y-86858039D01*
X72545349Y-86861534D01*
X72264113Y-87037953D01*
X72258281Y-87046306D01*
X72264675Y-87057568D01*
X74618012Y-89410905D01*
X74652038Y-89473217D01*
X74646973Y-89544032D01*
X74618012Y-89589095D01*
X72268882Y-91938225D01*
X72262324Y-91950235D01*
X72271292Y-91961975D01*
X72382544Y-92041918D01*
X72388682Y-92045813D01*
X72685435Y-92210984D01*
X72691955Y-92214136D01*
X73005738Y-92344109D01*
X73012589Y-92346495D01*
X73339212Y-92439536D01*
X73346301Y-92441120D01*
X73681465Y-92496006D01*
X73688671Y-92496763D01*
X74027926Y-92512762D01*
X74035176Y-92512686D01*
X74374010Y-92489587D01*
X74381219Y-92488676D01*
X74529229Y-92461244D01*
X74599855Y-92468497D01*
X74655347Y-92512782D01*
X74678191Y-92585141D01*
X74678116Y-94002060D01*
X74678035Y-95555202D01*
X74678018Y-95868843D01*
X74658012Y-95936962D01*
X74604354Y-95983452D01*
X74534080Y-95993553D01*
X74469501Y-95964056D01*
X74436381Y-95918877D01*
X74281226Y-95560336D01*
X74278722Y-95555202D01*
X74085471Y-95200752D01*
X74082508Y-95195861D01*
X73857929Y-94860387D01*
X73854534Y-94855784D01*
X73757112Y-94735478D01*
X73744854Y-94727010D01*
X73733764Y-94733343D01*
X70943919Y-97523188D01*
X70936305Y-97537132D01*
X70936436Y-97538965D01*
X70940687Y-97545580D01*
X73734029Y-100338922D01*
X73747475Y-100346264D01*
X73757312Y-100339344D01*
X73797611Y-100291656D01*
X73801097Y-100287130D01*
X74032659Y-99956424D01*
X74035716Y-99951608D01*
X74236350Y-99601281D01*
X74238962Y-99596199D01*
X74407020Y-99229127D01*
X74409158Y-99223834D01*
X74432996Y-99156143D01*
X74474489Y-99098534D01*
X74540541Y-99072503D01*
X74610182Y-99086315D01*
X74661299Y-99135584D01*
X74677842Y-99198002D01*
X74677451Y-106601842D01*
X74657445Y-106669961D01*
X74603787Y-106716451D01*
X74533513Y-106726552D01*
X74468934Y-106697055D01*
X74431754Y-106641188D01*
X74419590Y-106604189D01*
X74417558Y-106598841D01*
X74257226Y-106228336D01*
X74254722Y-106223202D01*
X74061471Y-105868752D01*
X74058508Y-105863861D01*
X73833929Y-105528387D01*
X73830534Y-105523784D01*
X73733112Y-105403478D01*
X73720854Y-105395010D01*
X73709764Y-105401343D01*
X70919919Y-108191188D01*
X70912305Y-108205132D01*
X70912436Y-108206965D01*
X70916687Y-108213580D01*
X73710029Y-111006922D01*
X73723475Y-111014264D01*
X73733312Y-111007344D01*
X73773611Y-110959656D01*
X73777097Y-110955130D01*
X74008659Y-110624424D01*
X74011716Y-110619608D01*
X74212350Y-110269281D01*
X74214962Y-110264199D01*
X74383020Y-109897127D01*
X74385156Y-109891840D01*
X74432437Y-109757579D01*
X74473931Y-109699970D01*
X74539983Y-109673940D01*
X74609623Y-109687752D01*
X74660741Y-109737022D01*
X74677283Y-109799439D01*
X74676892Y-117202245D01*
X74656887Y-117270361D01*
X74603229Y-117316851D01*
X74532955Y-117326952D01*
X74468376Y-117297455D01*
X74435256Y-117252276D01*
X74281226Y-116896336D01*
X74278722Y-116891202D01*
X74085471Y-116536752D01*
X74082508Y-116531861D01*
X73857929Y-116196387D01*
X73854534Y-116191784D01*
X73757112Y-116071478D01*
X73744854Y-116063010D01*
X73733764Y-116069343D01*
X70943919Y-118859188D01*
X70936305Y-118873132D01*
X70936436Y-118874965D01*
X70940687Y-118881580D01*
X73734029Y-121674922D01*
X73747475Y-121682264D01*
X73757312Y-121675344D01*
X73797611Y-121627656D01*
X73801097Y-121623130D01*
X74032659Y-121292424D01*
X74035716Y-121287608D01*
X74236350Y-120937281D01*
X74238962Y-120932199D01*
X74407020Y-120565127D01*
X74409158Y-120559834D01*
X74431870Y-120495340D01*
X74473363Y-120437731D01*
X74539415Y-120411700D01*
X74609055Y-120425512D01*
X74660173Y-120474781D01*
X74676716Y-120537199D01*
X74676329Y-127868941D01*
X74656323Y-127937060D01*
X74602665Y-127983550D01*
X74532391Y-127993651D01*
X74467812Y-127964154D01*
X74434692Y-127918974D01*
X74281230Y-127564344D01*
X74278722Y-127559202D01*
X74085471Y-127204752D01*
X74082508Y-127199861D01*
X73857929Y-126864387D01*
X73854534Y-126859784D01*
X73757112Y-126739478D01*
X73744854Y-126731010D01*
X73733764Y-126737343D01*
X70943919Y-129527188D01*
X70936305Y-129541132D01*
X70936436Y-129542965D01*
X70940687Y-129549580D01*
X73734029Y-132342922D01*
X73747475Y-132350264D01*
X73757312Y-132343344D01*
X73797611Y-132295656D01*
X73801097Y-132291130D01*
X74032659Y-131960424D01*
X74035716Y-131955608D01*
X74236350Y-131605281D01*
X74238962Y-131600199D01*
X74407020Y-131233127D01*
X74409158Y-131227834D01*
X74431307Y-131164939D01*
X74472800Y-131107330D01*
X74538852Y-131081299D01*
X74608493Y-131095111D01*
X74659610Y-131144380D01*
X74676153Y-131206798D01*
X74676111Y-132008606D01*
X74676008Y-133971200D01*
X74676007Y-133986007D01*
X74656001Y-134054126D01*
X74602343Y-134100616D01*
X74550007Y-134112000D01*
X71542008Y-134112000D01*
X71473887Y-134091998D01*
X71427394Y-134038342D01*
X71417290Y-133968068D01*
X71446784Y-133903488D01*
X71501819Y-133866581D01*
X71853233Y-133748318D01*
X71858563Y-133746250D01*
X72227946Y-133583332D01*
X72233053Y-133580797D01*
X72586145Y-133385075D01*
X72591024Y-133382074D01*
X72924916Y-133155162D01*
X72929487Y-133151742D01*
X73024826Y-133073431D01*
X73033286Y-133060999D01*
X73027036Y-133050143D01*
X70236812Y-130259919D01*
X70222868Y-130252305D01*
X70221035Y-130252436D01*
X70214420Y-130256687D01*
X67422275Y-133048832D01*
X67415203Y-133061783D01*
X67422841Y-133072324D01*
X67569218Y-133189175D01*
X67573801Y-133192505D01*
X67910867Y-133414759D01*
X67915763Y-133417677D01*
X68271543Y-133608444D01*
X68276717Y-133610923D01*
X68648339Y-133768668D01*
X68653674Y-133770652D01*
X68950748Y-133866032D01*
X69009493Y-133905901D01*
X69037358Y-133971200D01*
X69025496Y-134041199D01*
X68977672Y-134093672D01*
X68912230Y-134112000D01*
X64134001Y-134112000D01*
X64065880Y-134091998D01*
X64019387Y-134038342D01*
X64008001Y-133985999D01*
X64008002Y-133971200D01*
X64008048Y-129694638D01*
X65713964Y-129694638D01*
X65714163Y-129700343D01*
X65746540Y-130102753D01*
X65747258Y-130108430D01*
X65815970Y-130506229D01*
X65817201Y-130511829D01*
X65921689Y-130901786D01*
X65923413Y-130907219D01*
X66062817Y-131286108D01*
X66065025Y-131291362D01*
X66238192Y-131656050D01*
X66240877Y-131661099D01*
X66446390Y-132008606D01*
X66449500Y-132013358D01*
X66685670Y-132340814D01*
X66688005Y-132343761D01*
X66700872Y-132352001D01*
X66710784Y-132346109D01*
X69504081Y-129552812D01*
X69511695Y-129538868D01*
X69511564Y-129537035D01*
X69507313Y-129530420D01*
X66713862Y-126736969D01*
X66701423Y-126730177D01*
X66690209Y-126738544D01*
X66502139Y-126988120D01*
X66498906Y-126992843D01*
X66286173Y-127335946D01*
X66283379Y-127340946D01*
X66102624Y-127701905D01*
X66100290Y-127707147D01*
X65952992Y-128083009D01*
X65951149Y-128088422D01*
X65838517Y-128476103D01*
X65837175Y-128481653D01*
X65760142Y-128877952D01*
X65759309Y-128883593D01*
X65718512Y-129285234D01*
X65718192Y-129290958D01*
X65713964Y-129694638D01*
X64008048Y-129694638D01*
X64008088Y-126018156D01*
X67414647Y-126018156D01*
X67421299Y-126030192D01*
X70211188Y-128820081D01*
X70225132Y-128827695D01*
X70226965Y-128827564D01*
X70233580Y-128823313D01*
X73027610Y-126029283D01*
X73035018Y-126015716D01*
X73028276Y-126006060D01*
X73004533Y-125985711D01*
X73000040Y-125982200D01*
X72670969Y-125748341D01*
X72666146Y-125745233D01*
X72317242Y-125542166D01*
X72312177Y-125539519D01*
X71946296Y-125368905D01*
X71941003Y-125366724D01*
X71561166Y-125229973D01*
X71555706Y-125228284D01*
X71165036Y-125126522D01*
X71159446Y-125125334D01*
X70761154Y-125059397D01*
X70755490Y-125058721D01*
X70352851Y-125029153D01*
X70347150Y-125028994D01*
X69943489Y-125036040D01*
X69937801Y-125036398D01*
X69536457Y-125079998D01*
X69530787Y-125080876D01*
X69135058Y-125160669D01*
X69129512Y-125162051D01*
X68742627Y-125277387D01*
X68737223Y-125279269D01*
X68362396Y-125429189D01*
X68357189Y-125431551D01*
X67997475Y-125614834D01*
X67992510Y-125617655D01*
X67650900Y-125832779D01*
X67646206Y-125836040D01*
X67423108Y-126006611D01*
X67414647Y-126018156D01*
X64008088Y-126018156D01*
X64008127Y-122393783D01*
X67415203Y-122393783D01*
X67422841Y-122404324D01*
X67569218Y-122521175D01*
X67573801Y-122524505D01*
X67910867Y-122746759D01*
X67915763Y-122749677D01*
X68271543Y-122940444D01*
X68276717Y-122942923D01*
X68648339Y-123100668D01*
X68653674Y-123102652D01*
X69038069Y-123226068D01*
X69043570Y-123227563D01*
X69437575Y-123315633D01*
X69443187Y-123316622D01*
X69843538Y-123368619D01*
X69849244Y-123369098D01*
X70252642Y-123384595D01*
X70258368Y-123384555D01*
X70661518Y-123363427D01*
X70667199Y-123362870D01*
X71066795Y-123305288D01*
X71072390Y-123304220D01*
X71465123Y-123210657D01*
X71470605Y-123209086D01*
X71853233Y-123080318D01*
X71858563Y-123078250D01*
X72227946Y-122915332D01*
X72233053Y-122912797D01*
X72586145Y-122717075D01*
X72591024Y-122714074D01*
X72924916Y-122487162D01*
X72929487Y-122483742D01*
X73024826Y-122405431D01*
X73033286Y-122392999D01*
X73027036Y-122382143D01*
X70236812Y-119591919D01*
X70222868Y-119584305D01*
X70221035Y-119584436D01*
X70214420Y-119588687D01*
X67422275Y-122380832D01*
X67415203Y-122393783D01*
X64008127Y-122393783D01*
X64008164Y-119026638D01*
X65713964Y-119026638D01*
X65714163Y-119032343D01*
X65746540Y-119434753D01*
X65747258Y-119440430D01*
X65815970Y-119838229D01*
X65817201Y-119843829D01*
X65921689Y-120233786D01*
X65923413Y-120239219D01*
X66062817Y-120618108D01*
X66065025Y-120623362D01*
X66238192Y-120988050D01*
X66240877Y-120993099D01*
X66446390Y-121340606D01*
X66449500Y-121345358D01*
X66685670Y-121672814D01*
X66688005Y-121675761D01*
X66700872Y-121684001D01*
X66710784Y-121678109D01*
X69504081Y-118884812D01*
X69511695Y-118870868D01*
X69511564Y-118869035D01*
X69507313Y-118862420D01*
X66713862Y-116068969D01*
X66701423Y-116062177D01*
X66690209Y-116070544D01*
X66502139Y-116320120D01*
X66498906Y-116324843D01*
X66286173Y-116667946D01*
X66283379Y-116672946D01*
X66102624Y-117033905D01*
X66100290Y-117039147D01*
X65952992Y-117415009D01*
X65951149Y-117420422D01*
X65838517Y-117808103D01*
X65837175Y-117813653D01*
X65760142Y-118209952D01*
X65759309Y-118215593D01*
X65718512Y-118617234D01*
X65718192Y-118622958D01*
X65713964Y-119026638D01*
X64008164Y-119026638D01*
X64008204Y-115350156D01*
X67414647Y-115350156D01*
X67421299Y-115362192D01*
X70211188Y-118152081D01*
X70225132Y-118159695D01*
X70226965Y-118159564D01*
X70233580Y-118155313D01*
X73027610Y-115361283D01*
X73035018Y-115347716D01*
X73028276Y-115338060D01*
X73004533Y-115317711D01*
X73000040Y-115314200D01*
X72670969Y-115080341D01*
X72666146Y-115077233D01*
X72317242Y-114874166D01*
X72312177Y-114871519D01*
X71946296Y-114700905D01*
X71941003Y-114698724D01*
X71561166Y-114561973D01*
X71555706Y-114560284D01*
X71165036Y-114458522D01*
X71159446Y-114457334D01*
X70761154Y-114391397D01*
X70755490Y-114390721D01*
X70352851Y-114361153D01*
X70347150Y-114360994D01*
X69943489Y-114368040D01*
X69937801Y-114368398D01*
X69536457Y-114411998D01*
X69530787Y-114412876D01*
X69135058Y-114492669D01*
X69129512Y-114494051D01*
X68742627Y-114609387D01*
X68737223Y-114611269D01*
X68362396Y-114761189D01*
X68357189Y-114763551D01*
X67997475Y-114946834D01*
X67992510Y-114949655D01*
X67650900Y-115164779D01*
X67646206Y-115168040D01*
X67423108Y-115338611D01*
X67414647Y-115350156D01*
X64008204Y-115350156D01*
X64008243Y-111725783D01*
X67391203Y-111725783D01*
X67398841Y-111736324D01*
X67545218Y-111853175D01*
X67549801Y-111856505D01*
X67886867Y-112078759D01*
X67891763Y-112081677D01*
X68247543Y-112272444D01*
X68252717Y-112274923D01*
X68624339Y-112432668D01*
X68629674Y-112434652D01*
X69014069Y-112558068D01*
X69019570Y-112559563D01*
X69413575Y-112647633D01*
X69419187Y-112648622D01*
X69819538Y-112700619D01*
X69825244Y-112701098D01*
X70228642Y-112716595D01*
X70234368Y-112716555D01*
X70637518Y-112695427D01*
X70643199Y-112694870D01*
X71042795Y-112637288D01*
X71048390Y-112636220D01*
X71441123Y-112542657D01*
X71446605Y-112541086D01*
X71829233Y-112412318D01*
X71834563Y-112410250D01*
X72203946Y-112247332D01*
X72209053Y-112244797D01*
X72562145Y-112049075D01*
X72567024Y-112046074D01*
X72900916Y-111819162D01*
X72905487Y-111815742D01*
X73000826Y-111737431D01*
X73009286Y-111724999D01*
X73003036Y-111714143D01*
X70212812Y-108923919D01*
X70198868Y-108916305D01*
X70197035Y-108916436D01*
X70190420Y-108920687D01*
X67398275Y-111712832D01*
X67391203Y-111725783D01*
X64008243Y-111725783D01*
X64008279Y-108358638D01*
X65689964Y-108358638D01*
X65690163Y-108364343D01*
X65722540Y-108766753D01*
X65723258Y-108772430D01*
X65791970Y-109170229D01*
X65793201Y-109175829D01*
X65897689Y-109565786D01*
X65899413Y-109571219D01*
X66038817Y-109950108D01*
X66041025Y-109955362D01*
X66214192Y-110320050D01*
X66216877Y-110325099D01*
X66422390Y-110672606D01*
X66425500Y-110677358D01*
X66661670Y-111004814D01*
X66664005Y-111007761D01*
X66676872Y-111016001D01*
X66686784Y-111010109D01*
X69480081Y-108216812D01*
X69487695Y-108202868D01*
X69487564Y-108201035D01*
X69483313Y-108194420D01*
X66689862Y-105400969D01*
X66677423Y-105394177D01*
X66666209Y-105402544D01*
X66478139Y-105652120D01*
X66474906Y-105656843D01*
X66262173Y-105999946D01*
X66259379Y-106004946D01*
X66078624Y-106365905D01*
X66076290Y-106371147D01*
X65928992Y-106747009D01*
X65927149Y-106752422D01*
X65814517Y-107140103D01*
X65813175Y-107145653D01*
X65736142Y-107541952D01*
X65735309Y-107547593D01*
X65694512Y-107949234D01*
X65694192Y-107954958D01*
X65689964Y-108358638D01*
X64008279Y-108358638D01*
X64008319Y-104682156D01*
X67390647Y-104682156D01*
X67397299Y-104694192D01*
X70187188Y-107484081D01*
X70201132Y-107491695D01*
X70202965Y-107491564D01*
X70209580Y-107487313D01*
X73003610Y-104693283D01*
X73011018Y-104679716D01*
X73004276Y-104670060D01*
X72980533Y-104649711D01*
X72976040Y-104646200D01*
X72646969Y-104412341D01*
X72642146Y-104409233D01*
X72293242Y-104206166D01*
X72288177Y-104203519D01*
X71922296Y-104032905D01*
X71917003Y-104030724D01*
X71537166Y-103893973D01*
X71531706Y-103892284D01*
X71141036Y-103790522D01*
X71135446Y-103789334D01*
X70737154Y-103723397D01*
X70731490Y-103722721D01*
X70328851Y-103693153D01*
X70323150Y-103692994D01*
X69919489Y-103700040D01*
X69913801Y-103700398D01*
X69512457Y-103743998D01*
X69506787Y-103744876D01*
X69111058Y-103824669D01*
X69105512Y-103826051D01*
X68718627Y-103941387D01*
X68713223Y-103943269D01*
X68338396Y-104093189D01*
X68333189Y-104095551D01*
X67973475Y-104278834D01*
X67968510Y-104281655D01*
X67626900Y-104496779D01*
X67622206Y-104500040D01*
X67399108Y-104670611D01*
X67390647Y-104682156D01*
X64008319Y-104682156D01*
X64008358Y-101057783D01*
X67415203Y-101057783D01*
X67422841Y-101068324D01*
X67569218Y-101185175D01*
X67573801Y-101188505D01*
X67910867Y-101410759D01*
X67915763Y-101413677D01*
X68271543Y-101604444D01*
X68276717Y-101606923D01*
X68648339Y-101764668D01*
X68653674Y-101766652D01*
X69038069Y-101890068D01*
X69043570Y-101891563D01*
X69437575Y-101979633D01*
X69443187Y-101980622D01*
X69843538Y-102032619D01*
X69849244Y-102033098D01*
X70252642Y-102048595D01*
X70258368Y-102048555D01*
X70661518Y-102027427D01*
X70667199Y-102026870D01*
X71066795Y-101969288D01*
X71072390Y-101968220D01*
X71465123Y-101874657D01*
X71470605Y-101873086D01*
X71853233Y-101744318D01*
X71858563Y-101742250D01*
X72227946Y-101579332D01*
X72233053Y-101576797D01*
X72586145Y-101381075D01*
X72591024Y-101378074D01*
X72924916Y-101151162D01*
X72929487Y-101147742D01*
X73024826Y-101069431D01*
X73033286Y-101056999D01*
X73027036Y-101046143D01*
X70236812Y-98255919D01*
X70222868Y-98248305D01*
X70221035Y-98248436D01*
X70214420Y-98252687D01*
X67422275Y-101044832D01*
X67415203Y-101057783D01*
X64008358Y-101057783D01*
X64008394Y-97690638D01*
X65713964Y-97690638D01*
X65714163Y-97696343D01*
X65746540Y-98098753D01*
X65747258Y-98104430D01*
X65815970Y-98502229D01*
X65817201Y-98507829D01*
X65921689Y-98897786D01*
X65923413Y-98903219D01*
X66062817Y-99282108D01*
X66065025Y-99287362D01*
X66238192Y-99652050D01*
X66240877Y-99657099D01*
X66446390Y-100004606D01*
X66449500Y-100009358D01*
X66685670Y-100336814D01*
X66688005Y-100339761D01*
X66700872Y-100348001D01*
X66710784Y-100342109D01*
X69504081Y-97548812D01*
X69511695Y-97534868D01*
X69511564Y-97533035D01*
X69507313Y-97526420D01*
X66713862Y-94732969D01*
X66701423Y-94726177D01*
X66690209Y-94734544D01*
X66502139Y-94984120D01*
X66498906Y-94988843D01*
X66286173Y-95331946D01*
X66283379Y-95336946D01*
X66102624Y-95697905D01*
X66100290Y-95703147D01*
X65952992Y-96079009D01*
X65951149Y-96084422D01*
X65838517Y-96472103D01*
X65837175Y-96477653D01*
X65760142Y-96873952D01*
X65759309Y-96879593D01*
X65718512Y-97281234D01*
X65718192Y-97286958D01*
X65713964Y-97690638D01*
X64008394Y-97690638D01*
X64008434Y-94014156D01*
X67414647Y-94014156D01*
X67421299Y-94026192D01*
X70211188Y-96816081D01*
X70225132Y-96823695D01*
X70226965Y-96823564D01*
X70233580Y-96819313D01*
X73027610Y-94025283D01*
X73035018Y-94011716D01*
X73028276Y-94002060D01*
X73004533Y-93981711D01*
X73000040Y-93978200D01*
X72670969Y-93744341D01*
X72666146Y-93741233D01*
X72317242Y-93538166D01*
X72312177Y-93535519D01*
X71946296Y-93364905D01*
X71941003Y-93362724D01*
X71561166Y-93225973D01*
X71555706Y-93224284D01*
X71165036Y-93122522D01*
X71159446Y-93121334D01*
X70761154Y-93055397D01*
X70755490Y-93054721D01*
X70352851Y-93025153D01*
X70347150Y-93024994D01*
X69943489Y-93032040D01*
X69937801Y-93032398D01*
X69536457Y-93075998D01*
X69530787Y-93076876D01*
X69135058Y-93156669D01*
X69129512Y-93158051D01*
X68742627Y-93273387D01*
X68737223Y-93275269D01*
X68362396Y-93425189D01*
X68357189Y-93427551D01*
X67997475Y-93610834D01*
X67992510Y-93613655D01*
X67650900Y-93828779D01*
X67646206Y-93832040D01*
X67423108Y-94002611D01*
X67414647Y-94014156D01*
X64008434Y-94014156D01*
X64008442Y-93224284D01*
X64008454Y-92095304D01*
X64028457Y-92027183D01*
X64082113Y-91980691D01*
X64152387Y-91970588D01*
X64216967Y-92000081D01*
X64226602Y-92009370D01*
X64258014Y-92043055D01*
X64306737Y-92095304D01*
X64318283Y-92107686D01*
X64544171Y-92293233D01*
X64792616Y-92447275D01*
X65059250Y-92567105D01*
X65145923Y-92592944D01*
X65335394Y-92649428D01*
X65335402Y-92649430D01*
X65339391Y-92650619D01*
X65343508Y-92651271D01*
X65343512Y-92651272D01*
X65624649Y-92695799D01*
X65624654Y-92695799D01*
X65628117Y-92696348D01*
X65677069Y-92698571D01*
X65718128Y-92700436D01*
X65718147Y-92700436D01*
X65719547Y-92700500D01*
X65902151Y-92700500D01*
X65904243Y-92700361D01*
X65904245Y-92700361D01*
X66115511Y-92686329D01*
X66119682Y-92686052D01*
X66123776Y-92685227D01*
X66123780Y-92685226D01*
X66261095Y-92657538D01*
X66406239Y-92628272D01*
X66682637Y-92533100D01*
X66686370Y-92531231D01*
X66686374Y-92531229D01*
X66940276Y-92404084D01*
X66940278Y-92404083D01*
X66944020Y-92402209D01*
X67101135Y-92295434D01*
X67182336Y-92240250D01*
X67182339Y-92240248D01*
X67185795Y-92237899D01*
X67403716Y-92043055D01*
X67457169Y-91980691D01*
X67591235Y-91824273D01*
X67593953Y-91821102D01*
X67753164Y-91575938D01*
X67878552Y-91311871D01*
X67905076Y-91229260D01*
X67966636Y-91037521D01*
X67967914Y-91033541D01*
X68003206Y-90837399D01*
X68018943Y-90749940D01*
X68018944Y-90749934D01*
X68019681Y-90745836D01*
X68030844Y-90500000D01*
X68032752Y-90457983D01*
X68032752Y-90457978D01*
X68032941Y-90453813D01*
X68031250Y-90434478D01*
X68007828Y-90166767D01*
X68007464Y-90162601D01*
X67943695Y-89877317D01*
X67842756Y-89602973D01*
X67840812Y-89599285D01*
X67840808Y-89599277D01*
X67740479Y-89408987D01*
X70988484Y-89408987D01*
X70997374Y-89748505D01*
X70997980Y-89755721D01*
X71045835Y-90091963D01*
X71047269Y-90099074D01*
X71133455Y-90427595D01*
X71135692Y-90434478D01*
X71259064Y-90750914D01*
X71262081Y-90757503D01*
X71421002Y-91057652D01*
X71424761Y-91063859D01*
X71538439Y-91229260D01*
X71548694Y-91237605D01*
X71562434Y-91230459D01*
X73280081Y-89512812D01*
X73287695Y-89498868D01*
X73287564Y-89497035D01*
X73283313Y-89490420D01*
X71559476Y-87766583D01*
X71546683Y-87759597D01*
X71535930Y-87767461D01*
X71528037Y-87777527D01*
X71523902Y-87783476D01*
X71346440Y-88073068D01*
X71343019Y-88079447D01*
X71200016Y-88387522D01*
X71197356Y-88394241D01*
X71090711Y-88716707D01*
X71088834Y-88723711D01*
X71019961Y-89056288D01*
X71018904Y-89063449D01*
X70988712Y-89401735D01*
X70988484Y-89408987D01*
X67740479Y-89408987D01*
X67708373Y-89348092D01*
X67708372Y-89348091D01*
X67706420Y-89344388D01*
X67537082Y-89106107D01*
X67337717Y-88892314D01*
X67111829Y-88706767D01*
X66863384Y-88552725D01*
X66596750Y-88432895D01*
X66510077Y-88407056D01*
X66320606Y-88350572D01*
X66320598Y-88350570D01*
X66316609Y-88349381D01*
X66312492Y-88348729D01*
X66312488Y-88348728D01*
X66031351Y-88304201D01*
X66031346Y-88304201D01*
X66027883Y-88303652D01*
X65978931Y-88301429D01*
X65937872Y-88299564D01*
X65937853Y-88299564D01*
X65936453Y-88299500D01*
X65753849Y-88299500D01*
X65751757Y-88299639D01*
X65751755Y-88299639D01*
X65598316Y-88309830D01*
X65536318Y-88313948D01*
X65532224Y-88314773D01*
X65532220Y-88314774D01*
X65394905Y-88342462D01*
X65249761Y-88371728D01*
X64973363Y-88466900D01*
X64969630Y-88468769D01*
X64969626Y-88468771D01*
X64797581Y-88554925D01*
X64711980Y-88597791D01*
X64708515Y-88600146D01*
X64551627Y-88706767D01*
X64470205Y-88762101D01*
X64252284Y-88956945D01*
X64249567Y-88960115D01*
X64249566Y-88960116D01*
X64230157Y-88982761D01*
X64170639Y-89021466D01*
X64099643Y-89021849D01*
X64039711Y-88983788D01*
X64009870Y-88919367D01*
X64008489Y-88900762D01*
X64008514Y-86574011D01*
X64028517Y-86505890D01*
X64082173Y-86459398D01*
X64134526Y-86448012D01*
X67340686Y-86448312D01*
G37*
%TD.AperFunction*%
M02*
