%TF.GenerationSoftware,KiCad,Pcbnew,6.0.0-rc2*%
%TF.CreationDate,2022-01-03T19:22:05-08:00*%
%TF.ProjectId,acorn-power-electronics,61636f72-6e2d-4706-9f77-65722d656c65,rev?*%
%TF.SameCoordinates,Original*%
%TF.FileFunction,Legend,Bot*%
%TF.FilePolarity,Positive*%
%FSLAX46Y46*%
G04 Gerber Fmt 4.6, Leading zero omitted, Abs format (unit mm)*
G04 Created by KiCad (PCBNEW 6.0.0-rc2) date 2022-01-03 19:22:05*
%MOMM*%
%LPD*%
G01*
G04 APERTURE LIST*
G04 Aperture macros list*
%AMRoundRect*
0 Rectangle with rounded corners*
0 $1 Rounding radius*
0 $2 $3 $4 $5 $6 $7 $8 $9 X,Y pos of 4 corners*
0 Add a 4 corners polygon primitive as box body*
4,1,4,$2,$3,$4,$5,$6,$7,$8,$9,$2,$3,0*
0 Add four circle primitives for the rounded corners*
1,1,$1+$1,$2,$3*
1,1,$1+$1,$4,$5*
1,1,$1+$1,$6,$7*
1,1,$1+$1,$8,$9*
0 Add four rect primitives between the rounded corners*
20,1,$1+$1,$2,$3,$4,$5,0*
20,1,$1+$1,$4,$5,$6,$7,0*
20,1,$1+$1,$6,$7,$8,$9,0*
20,1,$1+$1,$8,$9,$2,$3,0*%
G04 Aperture macros list end*
%ADD10C,0.300000*%
%ADD11C,0.500000*%
%ADD12C,8.000000*%
%ADD13R,1.700000X1.700000*%
%ADD14O,1.700000X1.700000*%
%ADD15C,3.700000*%
%ADD16RoundRect,0.250000X0.620000X0.845000X-0.620000X0.845000X-0.620000X-0.845000X0.620000X-0.845000X0*%
%ADD17O,1.740000X2.190000*%
%ADD18C,5.000000*%
G04 APERTURE END LIST*
D10*
X127914285Y-100094761D02*
X127914285Y-98094761D01*
X127438095Y-98094761D01*
X127152380Y-98190000D01*
X126961904Y-98380476D01*
X126866666Y-98570952D01*
X126771428Y-98951904D01*
X126771428Y-99237619D01*
X126866666Y-99618571D01*
X126961904Y-99809047D01*
X127152380Y-99999523D01*
X127438095Y-100094761D01*
X127914285Y-100094761D01*
X125152380Y-99999523D02*
X125342857Y-100094761D01*
X125723809Y-100094761D01*
X125914285Y-99999523D01*
X126009523Y-99809047D01*
X126009523Y-99047142D01*
X125914285Y-98856666D01*
X125723809Y-98761428D01*
X125342857Y-98761428D01*
X125152380Y-98856666D01*
X125057142Y-99047142D01*
X125057142Y-99237619D01*
X126009523Y-99428095D01*
X124295238Y-99999523D02*
X124104761Y-100094761D01*
X123723809Y-100094761D01*
X123533333Y-99999523D01*
X123438095Y-99809047D01*
X123438095Y-99713809D01*
X123533333Y-99523333D01*
X123723809Y-99428095D01*
X124009523Y-99428095D01*
X124200000Y-99332857D01*
X124295238Y-99142380D01*
X124295238Y-99047142D01*
X124200000Y-98856666D01*
X124009523Y-98761428D01*
X123723809Y-98761428D01*
X123533333Y-98856666D01*
X122580952Y-100094761D02*
X122580952Y-98761428D01*
X122580952Y-98094761D02*
X122676190Y-98190000D01*
X122580952Y-98285238D01*
X122485714Y-98190000D01*
X122580952Y-98094761D01*
X122580952Y-98285238D01*
X120771428Y-98761428D02*
X120771428Y-100380476D01*
X120866666Y-100570952D01*
X120961904Y-100666190D01*
X121152380Y-100761428D01*
X121438095Y-100761428D01*
X121628571Y-100666190D01*
X120771428Y-99999523D02*
X120961904Y-100094761D01*
X121342857Y-100094761D01*
X121533333Y-99999523D01*
X121628571Y-99904285D01*
X121723809Y-99713809D01*
X121723809Y-99142380D01*
X121628571Y-98951904D01*
X121533333Y-98856666D01*
X121342857Y-98761428D01*
X120961904Y-98761428D01*
X120771428Y-98856666D01*
X119819047Y-98761428D02*
X119819047Y-100094761D01*
X119819047Y-98951904D02*
X119723809Y-98856666D01*
X119533333Y-98761428D01*
X119247619Y-98761428D01*
X119057142Y-98856666D01*
X118961904Y-99047142D01*
X118961904Y-100094761D01*
X117247619Y-99999523D02*
X117438095Y-100094761D01*
X117819047Y-100094761D01*
X118009523Y-99999523D01*
X118104761Y-99809047D01*
X118104761Y-99047142D01*
X118009523Y-98856666D01*
X117819047Y-98761428D01*
X117438095Y-98761428D01*
X117247619Y-98856666D01*
X117152380Y-99047142D01*
X117152380Y-99237619D01*
X118104761Y-99428095D01*
X115438095Y-100094761D02*
X115438095Y-98094761D01*
X115438095Y-99999523D02*
X115628571Y-100094761D01*
X116009523Y-100094761D01*
X116200000Y-99999523D01*
X116295238Y-99904285D01*
X116390476Y-99713809D01*
X116390476Y-99142380D01*
X116295238Y-98951904D01*
X116200000Y-98856666D01*
X116009523Y-98761428D01*
X115628571Y-98761428D01*
X115438095Y-98856666D01*
X112961904Y-100094761D02*
X112961904Y-98094761D01*
X112961904Y-98856666D02*
X112771428Y-98761428D01*
X112390476Y-98761428D01*
X112200000Y-98856666D01*
X112104761Y-98951904D01*
X112009523Y-99142380D01*
X112009523Y-99713809D01*
X112104761Y-99904285D01*
X112200000Y-99999523D01*
X112390476Y-100094761D01*
X112771428Y-100094761D01*
X112961904Y-99999523D01*
X111342857Y-98761428D02*
X110866666Y-100094761D01*
X110390476Y-98761428D02*
X110866666Y-100094761D01*
X111057142Y-100570952D01*
X111152380Y-100666190D01*
X111342857Y-100761428D01*
X108390476Y-98094761D02*
X107247619Y-98094761D01*
X107819047Y-100094761D02*
X107819047Y-98094761D01*
X105628571Y-100094761D02*
X106580952Y-100094761D01*
X106580952Y-98094761D01*
X105057142Y-99523333D02*
X104104761Y-99523333D01*
X105247619Y-100094761D02*
X104580952Y-98094761D01*
X103914285Y-100094761D01*
X102009523Y-98761428D02*
X101247619Y-98761428D01*
X101723809Y-100094761D02*
X101723809Y-98380476D01*
X101628571Y-98190000D01*
X101438095Y-98094761D01*
X101247619Y-98094761D01*
X100295238Y-100094761D02*
X100485714Y-99999523D01*
X100580952Y-99904285D01*
X100676190Y-99713809D01*
X100676190Y-99142380D01*
X100580952Y-98951904D01*
X100485714Y-98856666D01*
X100295238Y-98761428D01*
X100009523Y-98761428D01*
X99819047Y-98856666D01*
X99723809Y-98951904D01*
X99628571Y-99142380D01*
X99628571Y-99713809D01*
X99723809Y-99904285D01*
X99819047Y-99999523D01*
X100009523Y-100094761D01*
X100295238Y-100094761D01*
X98771428Y-100094761D02*
X98771428Y-98761428D01*
X98771428Y-99142380D02*
X98676190Y-98951904D01*
X98580952Y-98856666D01*
X98390476Y-98761428D01*
X98200000Y-98761428D01*
X123628571Y-101314761D02*
X122485714Y-101314761D01*
X123057142Y-103314761D02*
X123057142Y-101314761D01*
X122009523Y-101981428D02*
X121628571Y-103314761D01*
X121247619Y-102362380D01*
X120866666Y-103314761D01*
X120485714Y-101981428D01*
X119723809Y-103314761D02*
X119723809Y-101981428D01*
X119723809Y-101314761D02*
X119819047Y-101410000D01*
X119723809Y-101505238D01*
X119628571Y-101410000D01*
X119723809Y-101314761D01*
X119723809Y-101505238D01*
X118866666Y-103219523D02*
X118676190Y-103314761D01*
X118295238Y-103314761D01*
X118104761Y-103219523D01*
X118009523Y-103029047D01*
X118009523Y-102933809D01*
X118104761Y-102743333D01*
X118295238Y-102648095D01*
X118580952Y-102648095D01*
X118771428Y-102552857D01*
X118866666Y-102362380D01*
X118866666Y-102267142D01*
X118771428Y-102076666D01*
X118580952Y-101981428D01*
X118295238Y-101981428D01*
X118104761Y-102076666D01*
X117438095Y-101981428D02*
X116676190Y-101981428D01*
X117152380Y-101314761D02*
X117152380Y-103029047D01*
X117057142Y-103219523D01*
X116866666Y-103314761D01*
X116676190Y-103314761D01*
X115247619Y-103219523D02*
X115438095Y-103314761D01*
X115819047Y-103314761D01*
X116009523Y-103219523D01*
X116104761Y-103029047D01*
X116104761Y-102267142D01*
X116009523Y-102076666D01*
X115819047Y-101981428D01*
X115438095Y-101981428D01*
X115247619Y-102076666D01*
X115152380Y-102267142D01*
X115152380Y-102457619D01*
X116104761Y-102648095D01*
X113438095Y-103314761D02*
X113438095Y-101314761D01*
X113438095Y-103219523D02*
X113628571Y-103314761D01*
X114009523Y-103314761D01*
X114200000Y-103219523D01*
X114295238Y-103124285D01*
X114390476Y-102933809D01*
X114390476Y-102362380D01*
X114295238Y-102171904D01*
X114200000Y-102076666D01*
X114009523Y-101981428D01*
X113628571Y-101981428D01*
X113438095Y-102076666D01*
X110295238Y-102267142D02*
X110961904Y-102267142D01*
X110961904Y-103314761D02*
X110961904Y-101314761D01*
X110009523Y-101314761D01*
X109247619Y-103314761D02*
X109247619Y-101981428D01*
X109247619Y-101314761D02*
X109342857Y-101410000D01*
X109247619Y-101505238D01*
X109152380Y-101410000D01*
X109247619Y-101314761D01*
X109247619Y-101505238D01*
X107533333Y-103219523D02*
X107723809Y-103314761D01*
X108104761Y-103314761D01*
X108295238Y-103219523D01*
X108390476Y-103029047D01*
X108390476Y-102267142D01*
X108295238Y-102076666D01*
X108104761Y-101981428D01*
X107723809Y-101981428D01*
X107533333Y-102076666D01*
X107438095Y-102267142D01*
X107438095Y-102457619D01*
X108390476Y-102648095D01*
X106295238Y-103314761D02*
X106485714Y-103219523D01*
X106580952Y-103029047D01*
X106580952Y-101314761D01*
X104676190Y-103314761D02*
X104676190Y-101314761D01*
X104676190Y-103219523D02*
X104866666Y-103314761D01*
X105247619Y-103314761D01*
X105438095Y-103219523D01*
X105533333Y-103124285D01*
X105628571Y-102933809D01*
X105628571Y-102362380D01*
X105533333Y-102171904D01*
X105438095Y-102076666D01*
X105247619Y-101981428D01*
X104866666Y-101981428D01*
X104676190Y-102076666D01*
X103819047Y-103219523D02*
X103628571Y-103314761D01*
X103247619Y-103314761D01*
X103057142Y-103219523D01*
X102961904Y-103029047D01*
X102961904Y-102933809D01*
X103057142Y-102743333D01*
X103247619Y-102648095D01*
X103533333Y-102648095D01*
X103723809Y-102552857D01*
X103819047Y-102362380D01*
X103819047Y-102267142D01*
X103723809Y-102076666D01*
X103533333Y-101981428D01*
X103247619Y-101981428D01*
X103057142Y-102076666D01*
D11*
X130542857Y-105157142D02*
X129400000Y-105157142D01*
X130114285Y-104157142D02*
X130114285Y-106728571D01*
X129971428Y-107014285D01*
X129685714Y-107157142D01*
X129400000Y-107157142D01*
X128685714Y-105157142D02*
X128114285Y-107157142D01*
X127542857Y-105728571D01*
X126971428Y-107157142D01*
X126400000Y-105157142D01*
X125257142Y-107157142D02*
X125257142Y-105157142D01*
X125257142Y-104157142D02*
X125400000Y-104300000D01*
X125257142Y-104442857D01*
X125114285Y-104300000D01*
X125257142Y-104157142D01*
X125257142Y-104442857D01*
X123971428Y-107014285D02*
X123685714Y-107157142D01*
X123114285Y-107157142D01*
X122828571Y-107014285D01*
X122685714Y-106728571D01*
X122685714Y-106585714D01*
X122828571Y-106300000D01*
X123114285Y-106157142D01*
X123542857Y-106157142D01*
X123828571Y-106014285D01*
X123971428Y-105728571D01*
X123971428Y-105585714D01*
X123828571Y-105300000D01*
X123542857Y-105157142D01*
X123114285Y-105157142D01*
X122828571Y-105300000D01*
X121828571Y-105157142D02*
X120685714Y-105157142D01*
X121400000Y-104157142D02*
X121400000Y-106728571D01*
X121257142Y-107014285D01*
X120971428Y-107157142D01*
X120685714Y-107157142D01*
X118542857Y-107014285D02*
X118828571Y-107157142D01*
X119400000Y-107157142D01*
X119685714Y-107014285D01*
X119828571Y-106728571D01*
X119828571Y-105585714D01*
X119685714Y-105300000D01*
X119400000Y-105157142D01*
X118828571Y-105157142D01*
X118542857Y-105300000D01*
X118400000Y-105585714D01*
X118400000Y-105871428D01*
X119828571Y-106157142D01*
X115828571Y-107157142D02*
X115828571Y-104157142D01*
X115828571Y-107014285D02*
X116114285Y-107157142D01*
X116685714Y-107157142D01*
X116971428Y-107014285D01*
X117114285Y-106871428D01*
X117257142Y-106585714D01*
X117257142Y-105728571D01*
X117114285Y-105442857D01*
X116971428Y-105300000D01*
X116685714Y-105157142D01*
X116114285Y-105157142D01*
X115828571Y-105300000D01*
X114828571Y-105157142D02*
X113685714Y-105157142D01*
X114400000Y-107157142D02*
X114400000Y-104585714D01*
X114257142Y-104300000D01*
X113971428Y-104157142D01*
X113685714Y-104157142D01*
X112685714Y-107157142D02*
X112685714Y-105157142D01*
X112685714Y-104157142D02*
X112828571Y-104300000D01*
X112685714Y-104442857D01*
X112542857Y-104300000D01*
X112685714Y-104157142D01*
X112685714Y-104442857D01*
X110114285Y-107014285D02*
X110400000Y-107157142D01*
X110971428Y-107157142D01*
X111257142Y-107014285D01*
X111400000Y-106728571D01*
X111400000Y-105585714D01*
X111257142Y-105300000D01*
X110971428Y-105157142D01*
X110400000Y-105157142D01*
X110114285Y-105300000D01*
X109971428Y-105585714D01*
X109971428Y-105871428D01*
X111400000Y-106157142D01*
X108257142Y-107157142D02*
X108542857Y-107014285D01*
X108685714Y-106728571D01*
X108685714Y-104157142D01*
X105828571Y-107157142D02*
X105828571Y-104157142D01*
X105828571Y-107014285D02*
X106114285Y-107157142D01*
X106685714Y-107157142D01*
X106971428Y-107014285D01*
X107114285Y-106871428D01*
X107257142Y-106585714D01*
X107257142Y-105728571D01*
X107114285Y-105442857D01*
X106971428Y-105300000D01*
X106685714Y-105157142D01*
X106114285Y-105157142D01*
X105828571Y-105300000D01*
X104542857Y-107014285D02*
X104257142Y-107157142D01*
X103685714Y-107157142D01*
X103400000Y-107014285D01*
X103257142Y-106728571D01*
X103257142Y-106585714D01*
X103400000Y-106300000D01*
X103685714Y-106157142D01*
X104114285Y-106157142D01*
X104400000Y-106014285D01*
X104542857Y-105728571D01*
X104542857Y-105585714D01*
X104400000Y-105300000D01*
X104114285Y-105157142D01*
X103685714Y-105157142D01*
X103400000Y-105300000D01*
X101971428Y-106871428D02*
X101828571Y-107014285D01*
X101971428Y-107157142D01*
X102114285Y-107014285D01*
X101971428Y-106871428D01*
X101971428Y-107157142D01*
X99257142Y-107014285D02*
X99542857Y-107157142D01*
X100114285Y-107157142D01*
X100400000Y-107014285D01*
X100542857Y-106871428D01*
X100685714Y-106585714D01*
X100685714Y-105728571D01*
X100542857Y-105442857D01*
X100400000Y-105300000D01*
X100114285Y-105157142D01*
X99542857Y-105157142D01*
X99257142Y-105300000D01*
X97542857Y-107157142D02*
X97828571Y-107014285D01*
X97971428Y-106871428D01*
X98114285Y-106585714D01*
X98114285Y-105728571D01*
X97971428Y-105442857D01*
X97828571Y-105300000D01*
X97542857Y-105157142D01*
X97114285Y-105157142D01*
X96828571Y-105300000D01*
X96685714Y-105442857D01*
X96542857Y-105728571D01*
X96542857Y-106585714D01*
X96685714Y-106871428D01*
X96828571Y-107014285D01*
X97114285Y-107157142D01*
X97542857Y-107157142D01*
X95257142Y-107157142D02*
X95257142Y-105157142D01*
X95257142Y-105442857D02*
X95114285Y-105300000D01*
X94828571Y-105157142D01*
X94400000Y-105157142D01*
X94114285Y-105300000D01*
X93971428Y-105585714D01*
X93971428Y-107157142D01*
X93971428Y-105585714D02*
X93828571Y-105300000D01*
X93542857Y-105157142D01*
X93114285Y-105157142D01*
X92828571Y-105300000D01*
X92685714Y-105585714D01*
X92685714Y-107157142D01*
D10*
X79648857Y-108267428D02*
X79648857Y-107124571D01*
X79077428Y-107696000D02*
X80220285Y-107696000D01*
X79648857Y-97091428D02*
X79648857Y-95948571D01*
X79077428Y-96520000D02*
X80220285Y-96520000D01*
X80366857Y-125178571D02*
X79866857Y-126678571D01*
X79366857Y-125178571D01*
X78581142Y-125178571D02*
X78295428Y-125178571D01*
X78152571Y-125250000D01*
X78009714Y-125392857D01*
X77938285Y-125678571D01*
X77938285Y-126178571D01*
X78009714Y-126464285D01*
X78152571Y-126607142D01*
X78295428Y-126678571D01*
X78581142Y-126678571D01*
X78724000Y-126607142D01*
X78866857Y-126464285D01*
X78938285Y-126178571D01*
X78938285Y-125678571D01*
X78866857Y-125392857D01*
X78724000Y-125250000D01*
X78581142Y-125178571D01*
X77295428Y-125178571D02*
X77295428Y-126392857D01*
X77224000Y-126535714D01*
X77152571Y-126607142D01*
X77009714Y-126678571D01*
X76724000Y-126678571D01*
X76581142Y-126607142D01*
X76509714Y-126535714D01*
X76438285Y-126392857D01*
X76438285Y-125178571D01*
X75938285Y-125178571D02*
X75081142Y-125178571D01*
X75509714Y-126678571D02*
X75509714Y-125178571D01*
X75628571Y-118256857D02*
X76771428Y-118256857D01*
X75120571Y-128416857D02*
X76263428Y-128416857D01*
X80938285Y-95095142D02*
X80724000Y-95166571D01*
X80366857Y-95166571D01*
X80224000Y-95095142D01*
X80152571Y-95023714D01*
X80081142Y-94880857D01*
X80081142Y-94738000D01*
X80152571Y-94595142D01*
X80224000Y-94523714D01*
X80366857Y-94452285D01*
X80652571Y-94380857D01*
X80795428Y-94309428D01*
X80866857Y-94238000D01*
X80938285Y-94095142D01*
X80938285Y-93952285D01*
X80866857Y-93809428D01*
X80795428Y-93738000D01*
X80652571Y-93666571D01*
X80295428Y-93666571D01*
X80081142Y-93738000D01*
X79152571Y-93666571D02*
X78866857Y-93666571D01*
X78724000Y-93738000D01*
X78581142Y-93880857D01*
X78509714Y-94166571D01*
X78509714Y-94666571D01*
X78581142Y-94952285D01*
X78724000Y-95095142D01*
X78866857Y-95166571D01*
X79152571Y-95166571D01*
X79295428Y-95095142D01*
X79438285Y-94952285D01*
X79509714Y-94666571D01*
X79509714Y-94166571D01*
X79438285Y-93880857D01*
X79295428Y-93738000D01*
X79152571Y-93666571D01*
X77152571Y-95166571D02*
X77866857Y-95166571D01*
X77866857Y-93666571D01*
X76724000Y-94738000D02*
X76009714Y-94738000D01*
X76866857Y-95166571D02*
X76366857Y-93666571D01*
X75866857Y-95166571D01*
X74509714Y-95166571D02*
X75009714Y-94452285D01*
X75366857Y-95166571D02*
X75366857Y-93666571D01*
X74795428Y-93666571D01*
X74652571Y-93738000D01*
X74581142Y-93809428D01*
X74509714Y-93952285D01*
X74509714Y-94166571D01*
X74581142Y-94309428D01*
X74652571Y-94380857D01*
X74795428Y-94452285D01*
X75366857Y-94452285D01*
X81402571Y-104326571D02*
X81402571Y-105326571D01*
X81759714Y-103755142D02*
X82116857Y-104826571D01*
X81188285Y-104826571D01*
X80402571Y-104469428D02*
X80545428Y-104398000D01*
X80616857Y-104326571D01*
X80688285Y-104183714D01*
X80688285Y-104112285D01*
X80616857Y-103969428D01*
X80545428Y-103898000D01*
X80402571Y-103826571D01*
X80116857Y-103826571D01*
X79974000Y-103898000D01*
X79902571Y-103969428D01*
X79831142Y-104112285D01*
X79831142Y-104183714D01*
X79902571Y-104326571D01*
X79974000Y-104398000D01*
X80116857Y-104469428D01*
X80402571Y-104469428D01*
X80545428Y-104540857D01*
X80616857Y-104612285D01*
X80688285Y-104755142D01*
X80688285Y-105040857D01*
X80616857Y-105183714D01*
X80545428Y-105255142D01*
X80402571Y-105326571D01*
X80116857Y-105326571D01*
X79974000Y-105255142D01*
X79902571Y-105183714D01*
X79831142Y-105040857D01*
X79831142Y-104755142D01*
X79902571Y-104612285D01*
X79974000Y-104540857D01*
X80116857Y-104469428D01*
X79331142Y-104326571D02*
X78974000Y-105326571D01*
X78616857Y-104326571D01*
X76045428Y-105183714D02*
X76116857Y-105255142D01*
X76331142Y-105326571D01*
X76474000Y-105326571D01*
X76688285Y-105255142D01*
X76831142Y-105112285D01*
X76902571Y-104969428D01*
X76974000Y-104683714D01*
X76974000Y-104469428D01*
X76902571Y-104183714D01*
X76831142Y-104040857D01*
X76688285Y-103898000D01*
X76474000Y-103826571D01*
X76331142Y-103826571D01*
X76116857Y-103898000D01*
X76045428Y-103969428D01*
X74759714Y-105326571D02*
X74759714Y-104540857D01*
X74831142Y-104398000D01*
X74974000Y-104326571D01*
X75259714Y-104326571D01*
X75402571Y-104398000D01*
X74759714Y-105255142D02*
X74902571Y-105326571D01*
X75259714Y-105326571D01*
X75402571Y-105255142D01*
X75474000Y-105112285D01*
X75474000Y-104969428D01*
X75402571Y-104826571D01*
X75259714Y-104755142D01*
X74902571Y-104755142D01*
X74759714Y-104683714D01*
X74045428Y-104326571D02*
X74045428Y-105826571D01*
X74045428Y-104398000D02*
X73902571Y-104326571D01*
X73616857Y-104326571D01*
X73474000Y-104398000D01*
X73402571Y-104469428D01*
X73331142Y-104612285D01*
X73331142Y-105040857D01*
X73402571Y-105183714D01*
X73474000Y-105255142D01*
X73616857Y-105326571D01*
X73902571Y-105326571D01*
X74045428Y-105255142D01*
X80366857Y-114494571D02*
X79866857Y-115994571D01*
X79366857Y-114494571D01*
X78581142Y-114494571D02*
X78295428Y-114494571D01*
X78152571Y-114566000D01*
X78009714Y-114708857D01*
X77938285Y-114994571D01*
X77938285Y-115494571D01*
X78009714Y-115780285D01*
X78152571Y-115923142D01*
X78295428Y-115994571D01*
X78581142Y-115994571D01*
X78724000Y-115923142D01*
X78866857Y-115780285D01*
X78938285Y-115494571D01*
X78938285Y-114994571D01*
X78866857Y-114708857D01*
X78724000Y-114566000D01*
X78581142Y-114494571D01*
X77295428Y-114494571D02*
X77295428Y-115708857D01*
X77224000Y-115851714D01*
X77152571Y-115923142D01*
X77009714Y-115994571D01*
X76724000Y-115994571D01*
X76581142Y-115923142D01*
X76509714Y-115851714D01*
X76438285Y-115708857D01*
X76438285Y-114494571D01*
X75938285Y-114494571D02*
X75081142Y-114494571D01*
X75509714Y-115994571D02*
X75509714Y-114494571D01*
X79648857Y-118935428D02*
X79648857Y-117792571D01*
X79077428Y-118364000D02*
X80220285Y-118364000D01*
X79648857Y-129095428D02*
X79648857Y-127952571D01*
X79077428Y-128524000D02*
X80220285Y-128524000D01*
X75628571Y-96412857D02*
X76771428Y-96412857D01*
X75628571Y-107588857D02*
X76771428Y-107588857D01*
X75828571Y-91692857D02*
X76971428Y-91692857D01*
X78492857Y-92171428D02*
X78492857Y-91028571D01*
X77921428Y-91600000D02*
X79064285Y-91600000D01*
X129100000Y-110365285D02*
X128071428Y-110365285D01*
X128585714Y-112165285D02*
X128585714Y-110365285D01*
X127471428Y-112165285D02*
X127471428Y-110365285D01*
X126700000Y-112165285D02*
X126700000Y-111222428D01*
X126785714Y-111051000D01*
X126957142Y-110965285D01*
X127214285Y-110965285D01*
X127385714Y-111051000D01*
X127471428Y-111136714D01*
X125842857Y-112165285D02*
X125842857Y-110965285D01*
X125842857Y-110365285D02*
X125928571Y-110451000D01*
X125842857Y-110536714D01*
X125757142Y-110451000D01*
X125842857Y-110365285D01*
X125842857Y-110536714D01*
X125071428Y-112079571D02*
X124900000Y-112165285D01*
X124557142Y-112165285D01*
X124385714Y-112079571D01*
X124300000Y-111908142D01*
X124300000Y-111822428D01*
X124385714Y-111651000D01*
X124557142Y-111565285D01*
X124814285Y-111565285D01*
X124985714Y-111479571D01*
X125071428Y-111308142D01*
X125071428Y-111222428D01*
X124985714Y-111051000D01*
X124814285Y-110965285D01*
X124557142Y-110965285D01*
X124385714Y-111051000D01*
X122157142Y-112165285D02*
X122157142Y-110365285D01*
X122157142Y-111051000D02*
X121985714Y-110965285D01*
X121642857Y-110965285D01*
X121471428Y-111051000D01*
X121385714Y-111136714D01*
X121300000Y-111308142D01*
X121300000Y-111822428D01*
X121385714Y-111993857D01*
X121471428Y-112079571D01*
X121642857Y-112165285D01*
X121985714Y-112165285D01*
X122157142Y-112079571D01*
X120271428Y-112165285D02*
X120442857Y-112079571D01*
X120528571Y-111993857D01*
X120614285Y-111822428D01*
X120614285Y-111308142D01*
X120528571Y-111136714D01*
X120442857Y-111051000D01*
X120271428Y-110965285D01*
X120014285Y-110965285D01*
X119842857Y-111051000D01*
X119757142Y-111136714D01*
X119671428Y-111308142D01*
X119671428Y-111822428D01*
X119757142Y-111993857D01*
X119842857Y-112079571D01*
X120014285Y-112165285D01*
X120271428Y-112165285D01*
X118128571Y-112165285D02*
X118128571Y-111222428D01*
X118214285Y-111051000D01*
X118385714Y-110965285D01*
X118728571Y-110965285D01*
X118900000Y-111051000D01*
X118128571Y-112079571D02*
X118300000Y-112165285D01*
X118728571Y-112165285D01*
X118900000Y-112079571D01*
X118985714Y-111908142D01*
X118985714Y-111736714D01*
X118900000Y-111565285D01*
X118728571Y-111479571D01*
X118300000Y-111479571D01*
X118128571Y-111393857D01*
X117271428Y-112165285D02*
X117271428Y-110965285D01*
X117271428Y-111308142D02*
X117185714Y-111136714D01*
X117100000Y-111051000D01*
X116928571Y-110965285D01*
X116757142Y-110965285D01*
X115385714Y-112165285D02*
X115385714Y-110365285D01*
X115385714Y-112079571D02*
X115557142Y-112165285D01*
X115900000Y-112165285D01*
X116071428Y-112079571D01*
X116157142Y-111993857D01*
X116242857Y-111822428D01*
X116242857Y-111308142D01*
X116157142Y-111136714D01*
X116071428Y-111051000D01*
X115900000Y-110965285D01*
X115557142Y-110965285D01*
X115385714Y-111051000D01*
X113157142Y-112165285D02*
X113157142Y-110965285D01*
X113157142Y-110365285D02*
X113242857Y-110451000D01*
X113157142Y-110536714D01*
X113071428Y-110451000D01*
X113157142Y-110365285D01*
X113157142Y-110536714D01*
X112385714Y-112079571D02*
X112214285Y-112165285D01*
X111871428Y-112165285D01*
X111700000Y-112079571D01*
X111614285Y-111908142D01*
X111614285Y-111822428D01*
X111700000Y-111651000D01*
X111871428Y-111565285D01*
X112128571Y-111565285D01*
X112300000Y-111479571D01*
X112385714Y-111308142D01*
X112385714Y-111222428D01*
X112300000Y-111051000D01*
X112128571Y-110965285D01*
X111871428Y-110965285D01*
X111700000Y-111051000D01*
X109214285Y-112165285D02*
X109385714Y-112079571D01*
X109471428Y-111993857D01*
X109557142Y-111822428D01*
X109557142Y-111308142D01*
X109471428Y-111136714D01*
X109385714Y-111051000D01*
X109214285Y-110965285D01*
X108957142Y-110965285D01*
X108785714Y-111051000D01*
X108700000Y-111136714D01*
X108614285Y-111308142D01*
X108614285Y-111822428D01*
X108700000Y-111993857D01*
X108785714Y-112079571D01*
X108957142Y-112165285D01*
X109214285Y-112165285D01*
X107842857Y-110965285D02*
X107842857Y-112765285D01*
X107842857Y-111051000D02*
X107671428Y-110965285D01*
X107328571Y-110965285D01*
X107157142Y-111051000D01*
X107071428Y-111136714D01*
X106985714Y-111308142D01*
X106985714Y-111822428D01*
X107071428Y-111993857D01*
X107157142Y-112079571D01*
X107328571Y-112165285D01*
X107671428Y-112165285D01*
X107842857Y-112079571D01*
X105528571Y-112079571D02*
X105700000Y-112165285D01*
X106042857Y-112165285D01*
X106214285Y-112079571D01*
X106300000Y-111908142D01*
X106300000Y-111222428D01*
X106214285Y-111051000D01*
X106042857Y-110965285D01*
X105700000Y-110965285D01*
X105528571Y-111051000D01*
X105442857Y-111222428D01*
X105442857Y-111393857D01*
X106300000Y-111565285D01*
X104671428Y-110965285D02*
X104671428Y-112165285D01*
X104671428Y-111136714D02*
X104585714Y-111051000D01*
X104414285Y-110965285D01*
X104157142Y-110965285D01*
X103985714Y-111051000D01*
X103900000Y-111222428D01*
X103900000Y-112165285D01*
X101757142Y-112079571D02*
X101585714Y-112165285D01*
X101242857Y-112165285D01*
X101071428Y-112079571D01*
X100985714Y-111908142D01*
X100985714Y-111822428D01*
X101071428Y-111651000D01*
X101242857Y-111565285D01*
X101500000Y-111565285D01*
X101671428Y-111479571D01*
X101757142Y-111308142D01*
X101757142Y-111222428D01*
X101671428Y-111051000D01*
X101500000Y-110965285D01*
X101242857Y-110965285D01*
X101071428Y-111051000D01*
X99957142Y-112165285D02*
X100128571Y-112079571D01*
X100214285Y-111993857D01*
X100300000Y-111822428D01*
X100300000Y-111308142D01*
X100214285Y-111136714D01*
X100128571Y-111051000D01*
X99957142Y-110965285D01*
X99700000Y-110965285D01*
X99528571Y-111051000D01*
X99442857Y-111136714D01*
X99357142Y-111308142D01*
X99357142Y-111822428D01*
X99442857Y-111993857D01*
X99528571Y-112079571D01*
X99700000Y-112165285D01*
X99957142Y-112165285D01*
X97814285Y-110965285D02*
X97814285Y-112165285D01*
X98585714Y-110965285D02*
X98585714Y-111908142D01*
X98500000Y-112079571D01*
X98328571Y-112165285D01*
X98071428Y-112165285D01*
X97900000Y-112079571D01*
X97814285Y-111993857D01*
X96957142Y-112165285D02*
X96957142Y-110965285D01*
X96957142Y-111308142D02*
X96871428Y-111136714D01*
X96785714Y-111051000D01*
X96614285Y-110965285D01*
X96442857Y-110965285D01*
X95071428Y-112079571D02*
X95242857Y-112165285D01*
X95585714Y-112165285D01*
X95757142Y-112079571D01*
X95842857Y-111993857D01*
X95928571Y-111822428D01*
X95928571Y-111308142D01*
X95842857Y-111136714D01*
X95757142Y-111051000D01*
X95585714Y-110965285D01*
X95242857Y-110965285D01*
X95071428Y-111051000D01*
X93614285Y-112079571D02*
X93785714Y-112165285D01*
X94128571Y-112165285D01*
X94300000Y-112079571D01*
X94385714Y-111908142D01*
X94385714Y-111222428D01*
X94300000Y-111051000D01*
X94128571Y-110965285D01*
X93785714Y-110965285D01*
X93614285Y-111051000D01*
X93528571Y-111222428D01*
X93528571Y-111393857D01*
X94385714Y-111565285D01*
X92757142Y-111993857D02*
X92671428Y-112079571D01*
X92757142Y-112165285D01*
X92842857Y-112079571D01*
X92757142Y-111993857D01*
X92757142Y-112165285D01*
X92757142Y-111479571D02*
X92842857Y-110451000D01*
X92757142Y-110365285D01*
X92671428Y-110451000D01*
X92757142Y-111479571D01*
X92757142Y-110365285D01*
X127942857Y-113863285D02*
X127942857Y-115320428D01*
X128028571Y-115491857D01*
X128114285Y-115577571D01*
X128285714Y-115663285D01*
X128542857Y-115663285D01*
X128714285Y-115577571D01*
X127942857Y-114977571D02*
X128114285Y-115063285D01*
X128457142Y-115063285D01*
X128628571Y-114977571D01*
X128714285Y-114891857D01*
X128800000Y-114720428D01*
X128800000Y-114206142D01*
X128714285Y-114034714D01*
X128628571Y-113949000D01*
X128457142Y-113863285D01*
X128114285Y-113863285D01*
X127942857Y-113949000D01*
X127085714Y-115063285D02*
X127085714Y-113863285D01*
X127085714Y-113263285D02*
X127171428Y-113349000D01*
X127085714Y-113434714D01*
X127000000Y-113349000D01*
X127085714Y-113263285D01*
X127085714Y-113434714D01*
X126485714Y-113863285D02*
X125800000Y-113863285D01*
X126228571Y-113263285D02*
X126228571Y-114806142D01*
X126142857Y-114977571D01*
X125971428Y-115063285D01*
X125800000Y-115063285D01*
X125200000Y-115063285D02*
X125200000Y-113263285D01*
X124428571Y-115063285D02*
X124428571Y-114120428D01*
X124514285Y-113949000D01*
X124685714Y-113863285D01*
X124942857Y-113863285D01*
X125114285Y-113949000D01*
X125200000Y-114034714D01*
X122800000Y-113863285D02*
X122800000Y-115063285D01*
X123571428Y-113863285D02*
X123571428Y-114806142D01*
X123485714Y-114977571D01*
X123314285Y-115063285D01*
X123057142Y-115063285D01*
X122885714Y-114977571D01*
X122800000Y-114891857D01*
X121942857Y-115063285D02*
X121942857Y-113263285D01*
X121942857Y-113949000D02*
X121771428Y-113863285D01*
X121428571Y-113863285D01*
X121257142Y-113949000D01*
X121171428Y-114034714D01*
X121085714Y-114206142D01*
X121085714Y-114720428D01*
X121171428Y-114891857D01*
X121257142Y-114977571D01*
X121428571Y-115063285D01*
X121771428Y-115063285D01*
X121942857Y-114977571D01*
X120314285Y-114891857D02*
X120228571Y-114977571D01*
X120314285Y-115063285D01*
X120400000Y-114977571D01*
X120314285Y-114891857D01*
X120314285Y-115063285D01*
X118685714Y-114977571D02*
X118857142Y-115063285D01*
X119200000Y-115063285D01*
X119371428Y-114977571D01*
X119457142Y-114891857D01*
X119542857Y-114720428D01*
X119542857Y-114206142D01*
X119457142Y-114034714D01*
X119371428Y-113949000D01*
X119200000Y-113863285D01*
X118857142Y-113863285D01*
X118685714Y-113949000D01*
X117657142Y-115063285D02*
X117828571Y-114977571D01*
X117914285Y-114891857D01*
X118000000Y-114720428D01*
X118000000Y-114206142D01*
X117914285Y-114034714D01*
X117828571Y-113949000D01*
X117657142Y-113863285D01*
X117400000Y-113863285D01*
X117228571Y-113949000D01*
X117142857Y-114034714D01*
X117057142Y-114206142D01*
X117057142Y-114720428D01*
X117142857Y-114891857D01*
X117228571Y-114977571D01*
X117400000Y-115063285D01*
X117657142Y-115063285D01*
X116285714Y-115063285D02*
X116285714Y-113863285D01*
X116285714Y-114034714D02*
X116200000Y-113949000D01*
X116028571Y-113863285D01*
X115771428Y-113863285D01*
X115600000Y-113949000D01*
X115514285Y-114120428D01*
X115514285Y-115063285D01*
X115514285Y-114120428D02*
X115428571Y-113949000D01*
X115257142Y-113863285D01*
X115000000Y-113863285D01*
X114828571Y-113949000D01*
X114742857Y-114120428D01*
X114742857Y-115063285D01*
X112600000Y-113177571D02*
X114142857Y-115491857D01*
X112257142Y-113263285D02*
X111228571Y-113263285D01*
X111742857Y-115063285D02*
X111742857Y-113263285D01*
X110800000Y-113863285D02*
X110457142Y-115063285D01*
X110114285Y-114206142D01*
X109771428Y-115063285D01*
X109428571Y-113863285D01*
X108742857Y-115063285D02*
X108742857Y-113863285D01*
X108742857Y-113263285D02*
X108828571Y-113349000D01*
X108742857Y-113434714D01*
X108657142Y-113349000D01*
X108742857Y-113263285D01*
X108742857Y-113434714D01*
X107971428Y-114977571D02*
X107800000Y-115063285D01*
X107457142Y-115063285D01*
X107285714Y-114977571D01*
X107200000Y-114806142D01*
X107200000Y-114720428D01*
X107285714Y-114549000D01*
X107457142Y-114463285D01*
X107714285Y-114463285D01*
X107885714Y-114377571D01*
X107971428Y-114206142D01*
X107971428Y-114120428D01*
X107885714Y-113949000D01*
X107714285Y-113863285D01*
X107457142Y-113863285D01*
X107285714Y-113949000D01*
X106685714Y-113863285D02*
X106000000Y-113863285D01*
X106428571Y-113263285D02*
X106428571Y-114806142D01*
X106342857Y-114977571D01*
X106171428Y-115063285D01*
X106000000Y-115063285D01*
X104714285Y-114977571D02*
X104885714Y-115063285D01*
X105228571Y-115063285D01*
X105400000Y-114977571D01*
X105485714Y-114806142D01*
X105485714Y-114120428D01*
X105400000Y-113949000D01*
X105228571Y-113863285D01*
X104885714Y-113863285D01*
X104714285Y-113949000D01*
X104628571Y-114120428D01*
X104628571Y-114291857D01*
X105485714Y-114463285D01*
X103085714Y-115063285D02*
X103085714Y-113263285D01*
X103085714Y-114977571D02*
X103257142Y-115063285D01*
X103600000Y-115063285D01*
X103771428Y-114977571D01*
X103857142Y-114891857D01*
X103942857Y-114720428D01*
X103942857Y-114206142D01*
X103857142Y-114034714D01*
X103771428Y-113949000D01*
X103600000Y-113863285D01*
X103257142Y-113863285D01*
X103085714Y-113949000D01*
X102228571Y-114377571D02*
X100857142Y-114377571D01*
X99400000Y-114120428D02*
X100000000Y-114120428D01*
X100000000Y-115063285D02*
X100000000Y-113263285D01*
X99142857Y-113263285D01*
X98457142Y-115063285D02*
X98457142Y-113863285D01*
X98457142Y-113263285D02*
X98542857Y-113349000D01*
X98457142Y-113434714D01*
X98371428Y-113349000D01*
X98457142Y-113263285D01*
X98457142Y-113434714D01*
X96914285Y-114977571D02*
X97085714Y-115063285D01*
X97428571Y-115063285D01*
X97600000Y-114977571D01*
X97685714Y-114806142D01*
X97685714Y-114120428D01*
X97600000Y-113949000D01*
X97428571Y-113863285D01*
X97085714Y-113863285D01*
X96914285Y-113949000D01*
X96828571Y-114120428D01*
X96828571Y-114291857D01*
X97685714Y-114463285D01*
X95800000Y-115063285D02*
X95971428Y-114977571D01*
X96057142Y-114806142D01*
X96057142Y-113263285D01*
X94342857Y-115063285D02*
X94342857Y-113263285D01*
X94342857Y-114977571D02*
X94514285Y-115063285D01*
X94857142Y-115063285D01*
X95028571Y-114977571D01*
X95114285Y-114891857D01*
X95200000Y-114720428D01*
X95200000Y-114206142D01*
X95114285Y-114034714D01*
X95028571Y-113949000D01*
X94857142Y-113863285D01*
X94514285Y-113863285D01*
X94342857Y-113949000D01*
X93571428Y-114977571D02*
X93400000Y-115063285D01*
X93057142Y-115063285D01*
X92885714Y-114977571D01*
X92800000Y-114806142D01*
X92800000Y-114720428D01*
X92885714Y-114549000D01*
X93057142Y-114463285D01*
X93314285Y-114463285D01*
X93485714Y-114377571D01*
X93571428Y-114206142D01*
X93571428Y-114120428D01*
X93485714Y-113949000D01*
X93314285Y-113863285D01*
X93057142Y-113863285D01*
X92885714Y-113949000D01*
X98957142Y-87692857D02*
X98457142Y-87692857D01*
X98242857Y-88478571D02*
X98957142Y-88478571D01*
X98957142Y-86978571D01*
X98242857Y-86978571D01*
X97742857Y-86978571D02*
X96742857Y-88478571D01*
X96742857Y-86978571D02*
X97742857Y-88478571D01*
X96385714Y-86978571D02*
X95528571Y-86978571D01*
X95957142Y-88478571D02*
X95957142Y-86978571D01*
X95385714Y-88621428D02*
X94242857Y-88621428D01*
X93028571Y-88335714D02*
X93100000Y-88407142D01*
X93314285Y-88478571D01*
X93457142Y-88478571D01*
X93671428Y-88407142D01*
X93814285Y-88264285D01*
X93885714Y-88121428D01*
X93957142Y-87835714D01*
X93957142Y-87621428D01*
X93885714Y-87335714D01*
X93814285Y-87192857D01*
X93671428Y-87050000D01*
X93457142Y-86978571D01*
X93314285Y-86978571D01*
X93100000Y-87050000D01*
X93028571Y-87121428D01*
X92100000Y-86978571D02*
X91814285Y-86978571D01*
X91671428Y-87050000D01*
X91528571Y-87192857D01*
X91457142Y-87478571D01*
X91457142Y-87978571D01*
X91528571Y-88264285D01*
X91671428Y-88407142D01*
X91814285Y-88478571D01*
X92100000Y-88478571D01*
X92242857Y-88407142D01*
X92385714Y-88264285D01*
X92457142Y-87978571D01*
X92457142Y-87478571D01*
X92385714Y-87192857D01*
X92242857Y-87050000D01*
X92100000Y-86978571D01*
X90814285Y-88478571D02*
X90814285Y-86978571D01*
X90314285Y-88050000D01*
X89814285Y-86978571D01*
X89814285Y-88478571D01*
X89100000Y-88478571D02*
X89100000Y-86978571D01*
X88528571Y-86978571D01*
X88385714Y-87050000D01*
X88314285Y-87121428D01*
X88242857Y-87264285D01*
X88242857Y-87478571D01*
X88314285Y-87621428D01*
X88385714Y-87692857D01*
X88528571Y-87764285D01*
X89100000Y-87764285D01*
X87600000Y-86978571D02*
X87600000Y-88192857D01*
X87528571Y-88335714D01*
X87457142Y-88407142D01*
X87314285Y-88478571D01*
X87028571Y-88478571D01*
X86885714Y-88407142D01*
X86814285Y-88335714D01*
X86742857Y-88192857D01*
X86742857Y-86978571D01*
X86242857Y-86978571D02*
X85385714Y-86978571D01*
X85814285Y-88478571D02*
X85814285Y-86978571D01*
X84885714Y-87692857D02*
X84385714Y-87692857D01*
X84171428Y-88478571D02*
X84885714Y-88478571D01*
X84885714Y-86978571D01*
X84171428Y-86978571D01*
%LPC*%
D12*
X70224000Y-129540000D03*
X85224000Y-129540000D03*
D13*
X128000000Y-126125000D03*
D14*
X128000000Y-128665000D03*
X125460000Y-126125000D03*
X125460000Y-128665000D03*
X122920000Y-126125000D03*
X122920000Y-128665000D03*
X120380000Y-126125000D03*
X120380000Y-128665000D03*
X117840000Y-126125000D03*
X117840000Y-128665000D03*
X115300000Y-126125000D03*
X115300000Y-128665000D03*
X112760000Y-126125000D03*
X112760000Y-128665000D03*
X110220000Y-126125000D03*
X110220000Y-128665000D03*
X107680000Y-126125000D03*
X107680000Y-128665000D03*
X105140000Y-126125000D03*
X105140000Y-128665000D03*
D15*
X65828000Y-139524000D03*
X127000000Y-90214000D03*
X65828000Y-90500000D03*
D13*
X101400000Y-136875000D03*
D14*
X101400000Y-134335000D03*
D12*
X70224000Y-118872000D03*
X85224000Y-118872000D03*
X70200000Y-108204000D03*
X85200000Y-108204000D03*
D15*
X107250000Y-137125000D03*
D12*
X70224000Y-97536000D03*
X85224000Y-97536000D03*
D16*
X81000000Y-140520000D03*
D17*
X78460000Y-140520000D03*
X75920000Y-140520000D03*
X73380000Y-140520000D03*
D18*
X81000000Y-89500000D03*
X74000000Y-89500000D03*
M02*
