M48
; DRILL file {KiCad 6.0.0-rc2} date Mon 03 Jan 2022 07:22:13 PM PST
; FORMAT={-:-/ absolute / metric / decimal}
; #@! TF.CreationDate,2022-01-03T19:22:13-08:00
; #@! TF.GenerationSoftware,Kicad,Pcbnew,6.0.0-rc2
; #@! TF.FileFunction,Plated,1,2,PTH
FMAT,2
METRIC
; #@! TA.AperFunction,Plated,PTH,ViaDrill
T1C0.400
; #@! TA.AperFunction,Plated,PTH,ComponentDrill
T2C1.000
; #@! TA.AperFunction,Plated,PTH,ComponentDrill
T3C1.190
; #@! TA.AperFunction,Plated,PTH,ComponentDrill
T4C3.000
; #@! TA.AperFunction,Plated,PTH,ComponentDrill
T5C4.000
%
G90
G05
T1
X83.9Y-137.2
X86.5Y-91.75
X87.25Y-141.75
X88.75Y-142.0
X89.5Y-139.0
X91.75Y-135.0
X92.25Y-137.5
X92.964Y-94.488
X93.0Y-93.0
X93.0Y-134.5
X93.5Y-137.25
X94.03Y-99.83
X96.4Y-96.8
X96.4Y-97.6
X96.53Y-141.732
X100.457Y-101.854
X101.0Y-140.0
X101.092Y-108.204
X101.5Y-97.75
X102.108Y-95.8
X113.538Y-108.204
X118.75Y-132.5
X120.75Y-133.5
X121.6Y-136.4
X122.4Y-135.6
X123.698Y-108.204
X126.25Y-133.0
X128.524Y-98.552
T2
X101.4Y-134.335
X101.4Y-136.875
X105.14Y-126.125
X105.14Y-128.665
X107.68Y-126.125
X107.68Y-128.665
X110.22Y-126.125
X110.22Y-128.665
X112.76Y-126.125
X112.76Y-128.665
X115.3Y-126.125
X115.3Y-128.665
X117.84Y-126.125
X117.84Y-128.665
X120.38Y-126.125
X120.38Y-128.665
X122.92Y-126.125
X122.92Y-128.665
X125.46Y-126.125
X125.46Y-128.665
X128.0Y-126.125
X128.0Y-128.665
T3
X73.38Y-140.52
X75.92Y-140.52
X78.46Y-140.52
X81.0Y-140.52
T4
X74.0Y-89.5
X81.0Y-89.5
T5
X70.2Y-108.204
X70.224Y-97.536
X70.224Y-118.872
X70.224Y-129.54
X85.2Y-108.204
X85.224Y-97.536
X85.224Y-118.872
X85.224Y-129.54
T0
M30
