%FSLAX45Y45*%
G04 Gerber Fmt 4.5, Leading zero omitted, Abs format (unit mm)*
G04 Created by KiCad (PCBNEW 5.99.0-unknown-47cb7f53fd~143~ubuntu20.04.1) date 2021-11-23 21:16:03*
%MOMM*%
%LPD*%
G01*
G04 APERTURE LIST*
%TA.AperFunction,Profile*%
%ADD10C,0.100000*%
%TD*%
%ADD11C,0.200000*%
%ADD12C,0.040000*%
%ADD13C,0.060000*%
%ADD14C,0.088900*%
%ADD15C,0.089000*%
%ADD16C,0.100000*%
%ADD17C,0.119000*%
%ADD18C,0.157000*%
%ADD19C,0.165100*%
G04 APERTURE END LIST*
D10*
X18721000Y-6454000D02*
G75*
G03*
X18221000Y-5954000I-500000J0D01*
G01*
X11347800Y-5954000D02*
G75*
G03*
X10847800Y-6454000I0J-500000D01*
G01*
X18221000Y-12888600D02*
X11347800Y-12888600D01*
X10847800Y-12388600D02*
X10847800Y-6454000D01*
X18221000Y-12888600D02*
G75*
G03*
X18721000Y-12388600I0J500000D01*
G01*
X10847800Y-12388600D02*
G75*
G03*
X11347800Y-12888600I500000J0D01*
G01*
X11347800Y-5954000D02*
X18221000Y-5954000D01*
X18721000Y-6454000D02*
X18721000Y-12388600D01*
D11*
D12*
X11181400Y-9354000D02*
X11221400Y-9394000D01*
X11221400Y-9354000D02*
X11181400Y-9394000D01*
X11182000Y-7323600D02*
X11222000Y-7363600D01*
X11222000Y-7323600D02*
X11182000Y-7363600D01*
X11206800Y-8414200D02*
X11246800Y-8454200D01*
X11246800Y-8414200D02*
X11206800Y-8454200D01*
X11206800Y-9252400D02*
X11246800Y-9292400D01*
X11246800Y-9252400D02*
X11206800Y-9292400D01*
X11241100Y-8473900D02*
X11281100Y-8513900D01*
X11281100Y-8473900D02*
X11241100Y-8513900D01*
X11283000Y-9303200D02*
X11323000Y-9343200D01*
X11323000Y-9303200D02*
X11283000Y-9343200D01*
X11308400Y-8490400D02*
X11348400Y-8530400D01*
X11348400Y-8490400D02*
X11308400Y-8530400D01*
X11460800Y-11638600D02*
X11500800Y-11678600D01*
X11500800Y-11638600D02*
X11460800Y-11678600D01*
X11537000Y-10724200D02*
X11577000Y-10764200D01*
X11577000Y-10724200D02*
X11537000Y-10764200D01*
X11920000Y-7890000D02*
X11960000Y-7930000D01*
X11960000Y-7890000D02*
X11920000Y-7930000D01*
X11950000Y-7520000D02*
X11990000Y-7560000D01*
X11990000Y-7520000D02*
X11950000Y-7560000D01*
X11968800Y-9555800D02*
X12008800Y-9595800D01*
X12008800Y-9555800D02*
X11968800Y-9595800D01*
X11972500Y-11532500D02*
X12012500Y-11572500D01*
X12012500Y-11532500D02*
X11972500Y-11572500D01*
X12160000Y-11825000D02*
X12200000Y-11865000D01*
X12200000Y-11825000D02*
X12160000Y-11865000D01*
X12200000Y-7280000D02*
X12240000Y-7320000D01*
X12240000Y-7280000D02*
X12200000Y-7320000D01*
X12230000Y-11317500D02*
X12270000Y-11357500D01*
X12270000Y-11317500D02*
X12230000Y-11357500D01*
X12250000Y-7520000D02*
X12290000Y-7560000D01*
X12290000Y-7520000D02*
X12250000Y-7560000D01*
X12250150Y-7604932D02*
X12290150Y-7644932D01*
X12290150Y-7604932D02*
X12250150Y-7644932D01*
X12315000Y-11607500D02*
X12355000Y-11647500D01*
X12355000Y-11607500D02*
X12315000Y-11647500D01*
X12370000Y-7840000D02*
X12410000Y-7880000D01*
X12410000Y-7840000D02*
X12370000Y-7880000D01*
X12510000Y-11220000D02*
X12550000Y-11260000D01*
X12550000Y-11220000D02*
X12510000Y-11260000D01*
X12620000Y-8200000D02*
X12660000Y-8240000D01*
X12660000Y-8200000D02*
X12620000Y-8240000D01*
X12660000Y-7629950D02*
X12700000Y-7669950D01*
X12700000Y-7629950D02*
X12660000Y-7669950D01*
X12730800Y-11257600D02*
X12770800Y-11297600D01*
X12770800Y-11257600D02*
X12730800Y-11297600D01*
X12780000Y-7680000D02*
X12820000Y-7720000D01*
X12820000Y-7680000D02*
X12780000Y-7720000D01*
X12832400Y-10902000D02*
X12872400Y-10942000D01*
X12872400Y-10902000D02*
X12832400Y-10942000D01*
X12837500Y-12627500D02*
X12877500Y-12667500D01*
X12877500Y-12627500D02*
X12837500Y-12667500D01*
X12842500Y-12330000D02*
X12882500Y-12370000D01*
X12882500Y-12330000D02*
X12842500Y-12370000D01*
X12857800Y-11562400D02*
X12897800Y-11602400D01*
X12897800Y-11562400D02*
X12857800Y-11602400D01*
X12860000Y-8170000D02*
X12900000Y-8210000D01*
X12900000Y-8170000D02*
X12860000Y-8210000D01*
X13010200Y-11003600D02*
X13050200Y-11043600D01*
X13050200Y-11003600D02*
X13010200Y-11043600D01*
X13111800Y-11613200D02*
X13151800Y-11653200D01*
X13151800Y-11613200D02*
X13111800Y-11653200D01*
X13210000Y-10542500D02*
X13250000Y-10582500D01*
X13250000Y-10542500D02*
X13210000Y-10582500D01*
X13238800Y-9047800D02*
X13278800Y-9087800D01*
X13278800Y-9047800D02*
X13238800Y-9087800D01*
X13340400Y-9682800D02*
X13380400Y-9722800D01*
X13380400Y-9682800D02*
X13340400Y-9722800D01*
X13340400Y-10546400D02*
X13380400Y-10586400D01*
X13380400Y-10546400D02*
X13340400Y-10586400D01*
X13490000Y-11500000D02*
X13530000Y-11540000D01*
X13530000Y-11500000D02*
X13490000Y-11540000D01*
X13492800Y-9276400D02*
X13532800Y-9316400D01*
X13532800Y-9276400D02*
X13492800Y-9316400D01*
X13550000Y-7630000D02*
X13590000Y-7670000D01*
X13590000Y-7630000D02*
X13550000Y-7670000D01*
X13610000Y-7330000D02*
X13650000Y-7370000D01*
X13650000Y-7330000D02*
X13610000Y-7370000D01*
X13620000Y-8090000D02*
X13660000Y-8130000D01*
X13660000Y-8090000D02*
X13620000Y-8130000D01*
X13640000Y-6980000D02*
X13680000Y-7020000D01*
X13680000Y-6980000D02*
X13640000Y-7020000D01*
X13715000Y-11580000D02*
X13755000Y-11620000D01*
X13755000Y-11580000D02*
X13715000Y-11620000D01*
X13720000Y-7640000D02*
X13760000Y-7680000D01*
X13760000Y-7640000D02*
X13720000Y-7680000D01*
X13747609Y-7337609D02*
X13787609Y-7377609D01*
X13787609Y-7337609D02*
X13747609Y-7377609D01*
X13972500Y-10365000D02*
X14012500Y-10405000D01*
X14012500Y-10365000D02*
X13972500Y-10405000D01*
X14077500Y-10487500D02*
X14117500Y-10527500D01*
X14117500Y-10487500D02*
X14077500Y-10527500D01*
X14120000Y-8220000D02*
X14160000Y-8260000D01*
X14160000Y-8220000D02*
X14120000Y-8260000D01*
X14120000Y-10950000D02*
X14160000Y-10990000D01*
X14160000Y-10950000D02*
X14120000Y-10990000D01*
X14160000Y-8090000D02*
X14200000Y-8130000D01*
X14200000Y-8090000D02*
X14160000Y-8130000D01*
X14300000Y-7500000D02*
X14340000Y-7540000D01*
X14340000Y-7500000D02*
X14300000Y-7540000D01*
X14300000Y-7650000D02*
X14340000Y-7690000D01*
X14340000Y-7650000D02*
X14300000Y-7690000D01*
X14359950Y-7730000D02*
X14399950Y-7770000D01*
X14399950Y-7730000D02*
X14359950Y-7770000D01*
X14370000Y-7280000D02*
X14410000Y-7320000D01*
X14410000Y-7280000D02*
X14370000Y-7320000D01*
X14430000Y-8170000D02*
X14470000Y-8210000D01*
X14470000Y-8170000D02*
X14430000Y-8210000D01*
X14483400Y-10825800D02*
X14523400Y-10865800D01*
X14523400Y-10825800D02*
X14483400Y-10865800D01*
X14585000Y-11029000D02*
X14625000Y-11069000D01*
X14625000Y-11029000D02*
X14585000Y-11069000D01*
X14661200Y-11283000D02*
X14701200Y-11323000D01*
X14701200Y-11283000D02*
X14661200Y-11323000D01*
X14690000Y-7580000D02*
X14730000Y-7620000D01*
X14730000Y-7580000D02*
X14690000Y-7620000D01*
X14737400Y-10267000D02*
X14777400Y-10307000D01*
X14777400Y-10267000D02*
X14737400Y-10307000D01*
X14762800Y-9657400D02*
X14802800Y-9697400D01*
X14802800Y-9657400D02*
X14762800Y-9697400D01*
X14889800Y-9220000D02*
X14929800Y-9260000D01*
X14929800Y-9220000D02*
X14889800Y-9260000D01*
X14910000Y-7640000D02*
X14950000Y-7680000D01*
X14950000Y-7640000D02*
X14910000Y-7680000D01*
X14966000Y-11460800D02*
X15006000Y-11500800D01*
X15006000Y-11460800D02*
X14966000Y-11500800D01*
X14991400Y-10775000D02*
X15031400Y-10815000D01*
X15031400Y-10775000D02*
X14991400Y-10815000D01*
X15040000Y-7650000D02*
X15080000Y-7690000D01*
X15080000Y-7650000D02*
X15040000Y-7690000D01*
X15100000Y-8220000D02*
X15140000Y-8260000D01*
X15140000Y-8220000D02*
X15100000Y-8260000D01*
X15169200Y-11613200D02*
X15209200Y-11653200D01*
X15209200Y-11613200D02*
X15169200Y-11653200D01*
X15190000Y-7810000D02*
X15230000Y-7850000D01*
X15230000Y-7810000D02*
X15190000Y-7850000D01*
X15220000Y-12197400D02*
X15260000Y-12237400D01*
X15260000Y-12197400D02*
X15220000Y-12237400D01*
X15240000Y-7370000D02*
X15280000Y-7410000D01*
X15280000Y-7370000D02*
X15240000Y-7410000D01*
X15330000Y-8240000D02*
X15370000Y-8280000D01*
X15370000Y-8240000D02*
X15330000Y-8280000D01*
X15372400Y-10343200D02*
X15412400Y-10383200D01*
X15412400Y-10343200D02*
X15372400Y-10383200D01*
X15423200Y-11003600D02*
X15463200Y-11043600D01*
X15463200Y-11003600D02*
X15423200Y-11043600D01*
X15482500Y-11750000D02*
X15522500Y-11790000D01*
X15522500Y-11750000D02*
X15482500Y-11790000D01*
X15680000Y-6670000D02*
X15720000Y-6710000D01*
X15720000Y-6670000D02*
X15680000Y-6710000D01*
X15730000Y-8110000D02*
X15770000Y-8150000D01*
X15770000Y-8110000D02*
X15730000Y-8150000D01*
X15770000Y-7900000D02*
X15810000Y-7940000D01*
X15810000Y-7900000D02*
X15770000Y-7940000D01*
X15780000Y-6840000D02*
X15820000Y-6880000D01*
X15820000Y-6840000D02*
X15780000Y-6880000D01*
X15812500Y-10955000D02*
X15852500Y-10995000D01*
X15852500Y-10955000D02*
X15812500Y-10995000D01*
X15817500Y-10425000D02*
X15857500Y-10465000D01*
X15857500Y-10425000D02*
X15817500Y-10465000D01*
X15860000Y-11370000D02*
X15900000Y-11410000D01*
X15900000Y-11370000D02*
X15860000Y-11410000D01*
X15870000Y-7470050D02*
X15910000Y-7510050D01*
X15910000Y-7470050D02*
X15870000Y-7510050D01*
X15905800Y-8920800D02*
X15945800Y-8960800D01*
X15945800Y-8920800D02*
X15905800Y-8960800D01*
X15942391Y-7812391D02*
X15982391Y-7852391D01*
X15982391Y-7812391D02*
X15942391Y-7852391D01*
X15956600Y-10851200D02*
X15996600Y-10891200D01*
X15996600Y-10851200D02*
X15956600Y-10891200D01*
X16032800Y-11308400D02*
X16072800Y-11348400D01*
X16072800Y-11308400D02*
X16032800Y-11348400D01*
X16083600Y-9835200D02*
X16123600Y-9875200D01*
X16123600Y-9835200D02*
X16083600Y-9875200D01*
X16130000Y-10870000D02*
X16170000Y-10910000D01*
X16170000Y-10870000D02*
X16130000Y-10910000D01*
X16159800Y-9047800D02*
X16199800Y-9087800D01*
X16199800Y-9047800D02*
X16159800Y-9087800D01*
X16180000Y-7250000D02*
X16220000Y-7290000D01*
X16220000Y-7250000D02*
X16180000Y-7290000D01*
X16190000Y-7600000D02*
X16230000Y-7640000D01*
X16230000Y-7600000D02*
X16190000Y-7640000D01*
X16280000Y-7220000D02*
X16320000Y-7260000D01*
X16320000Y-7220000D02*
X16280000Y-7260000D01*
X16286800Y-10470200D02*
X16326800Y-10510200D01*
X16326800Y-10470200D02*
X16286800Y-10510200D01*
X16300000Y-7770000D02*
X16340000Y-7810000D01*
X16340000Y-7770000D02*
X16300000Y-7810000D01*
X16337600Y-11181400D02*
X16377600Y-11221400D01*
X16377600Y-11181400D02*
X16337600Y-11221400D01*
X16413800Y-9276400D02*
X16453800Y-9316400D01*
X16453800Y-9276400D02*
X16413800Y-9316400D01*
X16452609Y-7702609D02*
X16492609Y-7742609D01*
X16492609Y-7702609D02*
X16452609Y-7742609D01*
X16480000Y-11410000D02*
X16520000Y-11450000D01*
X16520000Y-11410000D02*
X16480000Y-11450000D01*
X16617000Y-10920000D02*
X16657000Y-10960000D01*
X16657000Y-10920000D02*
X16617000Y-10960000D01*
X16702500Y-10385000D02*
X16742500Y-10425000D01*
X16742500Y-10385000D02*
X16702500Y-10425000D01*
X16720000Y-8240000D02*
X16760000Y-8280000D01*
X16760000Y-8240000D02*
X16720000Y-8280000D01*
X16742901Y-6780000D02*
X16782901Y-6820000D01*
X16782901Y-6780000D02*
X16742901Y-6820000D01*
X16920000Y-6720000D02*
X16960000Y-6760000D01*
X16960000Y-6720000D02*
X16920000Y-6760000D01*
X16950000Y-7580000D02*
X16990000Y-7620000D01*
X16990000Y-7580000D02*
X16950000Y-7620000D01*
X17023400Y-11613200D02*
X17063400Y-11653200D01*
X17063400Y-11613200D02*
X17023400Y-11653200D01*
X17074200Y-11410000D02*
X17114200Y-11450000D01*
X17114200Y-11410000D02*
X17074200Y-11450000D01*
X17125000Y-9022400D02*
X17165000Y-9062400D01*
X17165000Y-9022400D02*
X17125000Y-9062400D01*
X17300000Y-6930000D02*
X17340000Y-6970000D01*
X17340000Y-6930000D02*
X17300000Y-6970000D01*
X17353600Y-10013000D02*
X17393600Y-10053000D01*
X17393600Y-10013000D02*
X17353600Y-10053000D01*
X17404400Y-9530400D02*
X17444400Y-9570400D01*
X17444400Y-9530400D02*
X17404400Y-9570400D01*
X17413859Y-10478641D02*
X17453859Y-10518641D01*
X17453859Y-10478641D02*
X17413859Y-10518641D01*
X17420000Y-11230000D02*
X17460000Y-11270000D01*
X17460000Y-11230000D02*
X17420000Y-11270000D01*
X17452500Y-11705000D02*
X17492500Y-11745000D01*
X17492500Y-11705000D02*
X17452500Y-11745000D01*
X17610000Y-8630000D02*
X17650000Y-8670000D01*
X17650000Y-8630000D02*
X17610000Y-8670000D01*
X17620000Y-10210000D02*
X17660000Y-10250000D01*
X17660000Y-10210000D02*
X17620000Y-10250000D01*
X17645000Y-11935000D02*
X17685000Y-11975000D01*
X17685000Y-11935000D02*
X17645000Y-11975000D01*
X17670000Y-10750000D02*
X17710000Y-10790000D01*
X17710000Y-10750000D02*
X17670000Y-10790000D01*
X17712500Y-9472500D02*
X17752500Y-9512500D01*
X17752500Y-9472500D02*
X17712500Y-9512500D01*
X17742900Y-8299950D02*
X17782900Y-8339950D01*
X17782900Y-8299950D02*
X17742900Y-8339950D01*
X17830000Y-6950000D02*
X17870000Y-6990000D01*
X17870000Y-6950000D02*
X17830000Y-6990000D01*
X17842500Y-9725000D02*
X17882500Y-9765000D01*
X17882500Y-9725000D02*
X17842500Y-9765000D01*
X17900000Y-10980000D02*
X17940000Y-11020000D01*
X17940000Y-10980000D02*
X17900000Y-11020000D01*
X17920000Y-11220000D02*
X17960000Y-11260000D01*
X17960000Y-11220000D02*
X17920000Y-11260000D01*
X17982500Y-11600000D02*
X18022500Y-11640000D01*
X18022500Y-11600000D02*
X17982500Y-11640000D01*
X18000000Y-11440000D02*
X18040000Y-11480000D01*
X18040000Y-11440000D02*
X18000000Y-11480000D01*
D13*
X11340000Y-8730000D02*
G75*
G03*
X11340000Y-8730000I-30000J0D01*
G01*
X11409200Y-11176000D02*
G75*
G03*
X11409200Y-11176000I-30000J0D01*
G01*
X11990000Y-7340000D02*
G75*
G03*
X11990000Y-7340000I-30000J0D01*
G01*
X12002500Y-11930000D02*
G75*
G03*
X12002500Y-11930000I-30000J0D01*
G01*
X12150000Y-6940000D02*
G75*
G03*
X12150000Y-6940000I-30000J0D01*
G01*
X12375538Y-7285538D02*
G75*
G03*
X12375538Y-7285538I-30000J0D01*
G01*
X12440000Y-9055000D02*
G75*
G03*
X12440000Y-9055000I-30000J0D01*
G01*
X12470000Y-8440000D02*
G75*
G03*
X12470000Y-8440000I-30000J0D01*
G01*
X12510000Y-8120000D02*
G75*
G03*
X12510000Y-8120000I-30000J0D01*
G01*
X12712500Y-10665000D02*
G75*
G03*
X12712500Y-10665000I-30000J0D01*
G01*
X12810000Y-7140000D02*
G75*
G03*
X12810000Y-7140000I-30000J0D01*
G01*
X13120000Y-10707500D02*
G75*
G03*
X13120000Y-10707500I-30000J0D01*
G01*
X13707500Y-8522500D02*
G75*
G03*
X13707500Y-8522500I-30000J0D01*
G01*
X13720600Y-9017000D02*
G75*
G03*
X13720600Y-9017000I-30000J0D01*
G01*
X13757500Y-10665000D02*
G75*
G03*
X13757500Y-10665000I-30000J0D01*
G01*
X14100000Y-11475000D02*
G75*
G03*
X14100000Y-11475000I-30000J0D01*
G01*
X14204021Y-7394947D02*
G75*
G03*
X14204021Y-7394947I-30000J0D01*
G01*
X14365000Y-10677500D02*
G75*
G03*
X14365000Y-10677500I-30000J0D01*
G01*
X14430000Y-6940000D02*
G75*
G03*
X14430000Y-6940000I-30000J0D01*
G01*
X14580000Y-7560000D02*
G75*
G03*
X14580000Y-7560000I-30000J0D01*
G01*
X14700000Y-8140000D02*
G75*
G03*
X14700000Y-8140000I-30000J0D01*
G01*
X15110000Y-7140000D02*
G75*
G03*
X15110000Y-7140000I-30000J0D01*
G01*
X15132500Y-8432500D02*
G75*
G03*
X15132500Y-8432500I-30000J0D01*
G01*
X15185000Y-10677500D02*
G75*
G03*
X15185000Y-10677500I-30000J0D01*
G01*
X15202500Y-9195000D02*
G75*
G03*
X15202500Y-9195000I-30000J0D01*
G01*
X15742500Y-10677500D02*
G75*
G03*
X15742500Y-10677500I-30000J0D01*
G01*
X16090000Y-7410000D02*
G75*
G03*
X16090000Y-7410000I-30000J0D01*
G01*
X16170000Y-9247500D02*
G75*
G03*
X16170000Y-9247500I-30000J0D01*
G01*
X16399950Y-6935275D02*
G75*
G03*
X16399950Y-6935275I-30000J0D01*
G01*
X16450050Y-7600000D02*
G75*
G03*
X16450050Y-7600000I-30000J0D01*
G01*
X16457500Y-10675000D02*
G75*
G03*
X16457500Y-10675000I-30000J0D01*
G01*
X16480000Y-8487500D02*
G75*
G03*
X16480000Y-8487500I-30000J0D01*
G01*
X16555000Y-9155000D02*
G75*
G03*
X16555000Y-9155000I-30000J0D01*
G01*
X16610000Y-7840000D02*
G75*
G03*
X16610000Y-7840000I-30000J0D01*
G01*
X16990000Y-7140000D02*
G75*
G03*
X16990000Y-7140000I-30000J0D01*
G01*
X17050000Y-6040000D02*
G75*
G03*
X17050000Y-6040000I-30000J0D01*
G01*
X17050000Y-10672500D02*
G75*
G03*
X17050000Y-10672500I-30000J0D01*
G01*
X17130000Y-8200000D02*
G75*
G03*
X17130000Y-8200000I-30000J0D01*
G01*
X17175000Y-10820400D02*
G75*
G03*
X17175000Y-10820400I-30000J0D01*
G01*
X17290000Y-7890000D02*
G75*
G03*
X17290000Y-7890000I-30000J0D01*
G01*
X17330000Y-6840000D02*
G75*
G03*
X17330000Y-6840000I-30000J0D01*
G01*
X17450000Y-7420000D02*
G75*
G03*
X17450000Y-7420000I-30000J0D01*
G01*
X17452500Y-9122500D02*
G75*
G03*
X17452500Y-9122500I-30000J0D01*
G01*
X17455000Y-8490000D02*
G75*
G03*
X17455000Y-8490000I-30000J0D01*
G01*
X17542500Y-9837500D02*
G75*
G03*
X17542500Y-9837500I-30000J0D01*
G01*
X18090000Y-9660000D02*
G75*
G03*
X18090000Y-9660000I-30000J0D01*
G01*
X18140000Y-10120000D02*
G75*
G03*
X18140000Y-10120000I-30000J0D01*
G01*
X18180000Y-8997500D02*
G75*
G03*
X18180000Y-8997500I-30000J0D01*
G01*
X18362500Y-8717500D02*
G75*
G03*
X18362500Y-8717500I-30000J0D01*
G01*
X18470000Y-8290000D02*
G75*
G03*
X18470000Y-8290000I-30000J0D01*
G01*
X18640000Y-6750000D02*
G75*
G03*
X18640000Y-6750000I-30000J0D01*
G01*
D14*
X11558900Y-12425150D02*
X11558900Y-12514050D01*
X11514450Y-12469600D02*
X11603350Y-12469600D01*
X11660900Y-12171150D02*
X11660900Y-12260050D01*
X11616450Y-12215600D02*
X11705350Y-12215600D01*
X11761900Y-12425150D02*
X11761900Y-12514050D01*
X11717450Y-12469600D02*
X11806350Y-12469600D01*
X11863900Y-12171150D02*
X11863900Y-12260050D01*
X11819450Y-12215600D02*
X11908350Y-12215600D01*
X11964900Y-12425150D02*
X11964900Y-12514050D01*
X11920450Y-12469600D02*
X12009350Y-12469600D01*
X12066900Y-12171150D02*
X12066900Y-12260050D01*
X12022450Y-12215600D02*
X12111350Y-12215600D01*
X12167900Y-12425150D02*
X12167900Y-12514050D01*
X12123450Y-12469600D02*
X12212350Y-12469600D01*
X12269900Y-12171150D02*
X12269900Y-12260050D01*
X12225450Y-12215600D02*
X12314350Y-12215600D01*
X13463900Y-12425150D02*
X13463900Y-12514050D01*
X13419450Y-12469600D02*
X13508350Y-12469600D01*
X13565900Y-12171150D02*
X13565900Y-12260050D01*
X13521450Y-12215600D02*
X13610350Y-12215600D01*
X13666900Y-12425150D02*
X13666900Y-12514050D01*
X13622450Y-12469600D02*
X13711350Y-12469600D01*
X13768900Y-12171150D02*
X13768900Y-12260050D01*
X13724450Y-12215600D02*
X13813350Y-12215600D01*
X13869900Y-12425150D02*
X13869900Y-12514050D01*
X13825450Y-12469600D02*
X13914350Y-12469600D01*
X13971900Y-12171150D02*
X13971900Y-12260050D01*
X13927450Y-12215600D02*
X14016350Y-12215600D01*
X14072900Y-12425150D02*
X14072900Y-12514050D01*
X14028450Y-12469600D02*
X14117350Y-12469600D01*
X14174900Y-12171150D02*
X14174900Y-12260050D01*
X14130450Y-12215600D02*
X14219350Y-12215600D01*
X15368900Y-12425150D02*
X15368900Y-12514050D01*
X15324450Y-12469600D02*
X15413350Y-12469600D01*
X15470900Y-12171150D02*
X15470900Y-12260050D01*
X15426450Y-12215600D02*
X15515350Y-12215600D01*
X15571900Y-12425150D02*
X15571900Y-12514050D01*
X15527450Y-12469600D02*
X15616350Y-12469600D01*
X15673900Y-12171150D02*
X15673900Y-12260050D01*
X15629450Y-12215600D02*
X15718350Y-12215600D01*
X15774900Y-12425150D02*
X15774900Y-12514050D01*
X15730450Y-12469600D02*
X15819350Y-12469600D01*
X15876900Y-12171150D02*
X15876900Y-12260050D01*
X15832450Y-12215600D02*
X15921350Y-12215600D01*
X15977900Y-12425150D02*
X15977900Y-12514050D01*
X15933450Y-12469600D02*
X16022350Y-12469600D01*
X16079900Y-12171150D02*
X16079900Y-12260050D01*
X16035450Y-12215600D02*
X16124350Y-12215600D01*
X17273900Y-12425150D02*
X17273900Y-12514050D01*
X17229450Y-12469600D02*
X17318350Y-12469600D01*
X17375900Y-12171150D02*
X17375900Y-12260050D01*
X17331450Y-12215600D02*
X17420350Y-12215600D01*
X17476900Y-12425150D02*
X17476900Y-12514050D01*
X17432450Y-12469600D02*
X17521350Y-12469600D01*
X17578900Y-12171150D02*
X17578900Y-12260050D01*
X17534450Y-12215600D02*
X17623350Y-12215600D01*
X17679900Y-12425150D02*
X17679900Y-12514050D01*
X17635450Y-12469600D02*
X17724350Y-12469600D01*
X17781900Y-12171150D02*
X17781900Y-12260050D01*
X17737450Y-12215600D02*
X17826350Y-12215600D01*
X17882900Y-12425150D02*
X17882900Y-12514050D01*
X17838450Y-12469600D02*
X17927350Y-12469600D01*
X17984900Y-12171150D02*
X17984900Y-12260050D01*
X17940450Y-12215600D02*
X18029350Y-12215600D01*
D15*
X11266367Y-12006067D02*
X11266367Y-11943133D01*
X11203433Y-11943133D01*
X11203433Y-12006067D01*
X11266367Y-12006067D01*
X11495367Y-12006067D02*
X11495367Y-11943133D01*
X11432433Y-11943133D01*
X11432433Y-12006067D01*
X11495367Y-12006067D01*
X12396367Y-12006067D02*
X12396367Y-11943133D01*
X12333433Y-11943133D01*
X12333433Y-12006067D01*
X12396367Y-12006067D01*
X12625367Y-12006067D02*
X12625367Y-11943133D01*
X12562433Y-11943133D01*
X12562433Y-12006067D01*
X12625367Y-12006067D01*
X13171367Y-12006067D02*
X13171367Y-11943133D01*
X13108433Y-11943133D01*
X13108433Y-12006067D01*
X13171367Y-12006067D01*
X13400367Y-12006067D02*
X13400367Y-11943133D01*
X13337433Y-11943133D01*
X13337433Y-12006067D01*
X13400367Y-12006067D01*
X14301367Y-12006067D02*
X14301367Y-11943133D01*
X14238433Y-11943133D01*
X14238433Y-12006067D01*
X14301367Y-12006067D01*
X14530367Y-12006067D02*
X14530367Y-11943133D01*
X14467433Y-11943133D01*
X14467433Y-12006067D01*
X14530367Y-12006067D01*
X15076367Y-12006067D02*
X15076367Y-11943133D01*
X15013433Y-11943133D01*
X15013433Y-12006067D01*
X15076367Y-12006067D01*
X15305367Y-12006067D02*
X15305367Y-11943133D01*
X15242433Y-11943133D01*
X15242433Y-12006067D01*
X15305367Y-12006067D01*
X16206367Y-12006067D02*
X16206367Y-11943133D01*
X16143433Y-11943133D01*
X16143433Y-12006067D01*
X16206367Y-12006067D01*
X16435367Y-12006067D02*
X16435367Y-11943133D01*
X16372433Y-11943133D01*
X16372433Y-12006067D01*
X16435367Y-12006067D01*
X16981367Y-12006067D02*
X16981367Y-11943133D01*
X16918433Y-11943133D01*
X16918433Y-12006067D01*
X16981367Y-12006067D01*
X17210367Y-12006067D02*
X17210367Y-11943133D01*
X17147433Y-11943133D01*
X17147433Y-12006067D01*
X17210367Y-12006067D01*
X18111367Y-12006067D02*
X18111367Y-11943133D01*
X18048433Y-11943133D01*
X18048433Y-12006067D01*
X18111367Y-12006067D01*
X18340367Y-12006067D02*
X18340367Y-11943133D01*
X18277433Y-11943133D01*
X18277433Y-12006067D01*
X18340367Y-12006067D01*
D16*
X11703100Y-7588200D02*
X11753100Y-7538200D01*
X11703100Y-7488200D01*
X11653100Y-7538200D01*
X11703100Y-7588200D01*
X11703100Y-7842200D02*
X11753100Y-7792200D01*
X11703100Y-7742200D01*
X11653100Y-7792200D01*
X11703100Y-7842200D01*
X12016000Y-6296600D02*
X12066000Y-6246600D01*
X12016000Y-6196600D01*
X11966000Y-6246600D01*
X12016000Y-6296600D01*
X12016000Y-6550600D02*
X12066000Y-6500600D01*
X12016000Y-6450600D01*
X11966000Y-6500600D01*
X12016000Y-6550600D01*
X12270000Y-6296600D02*
X12320000Y-6246600D01*
X12270000Y-6196600D01*
X12220000Y-6246600D01*
X12270000Y-6296600D01*
X12270000Y-6550600D02*
X12320000Y-6500600D01*
X12270000Y-6450600D01*
X12220000Y-6500600D01*
X12270000Y-6550600D01*
X12524000Y-6296600D02*
X12574000Y-6246600D01*
X12524000Y-6196600D01*
X12474000Y-6246600D01*
X12524000Y-6296600D01*
X12524000Y-6550600D02*
X12574000Y-6500600D01*
X12524000Y-6450600D01*
X12474000Y-6500600D01*
X12524000Y-6550600D01*
X12778000Y-6296600D02*
X12828000Y-6246600D01*
X12778000Y-6196600D01*
X12728000Y-6246600D01*
X12778000Y-6296600D01*
X12778000Y-6550600D02*
X12828000Y-6500600D01*
X12778000Y-6450600D01*
X12728000Y-6500600D01*
X12778000Y-6550600D01*
X13032000Y-6296600D02*
X13082000Y-6246600D01*
X13032000Y-6196600D01*
X12982000Y-6246600D01*
X13032000Y-6296600D01*
X13032000Y-6550600D02*
X13082000Y-6500600D01*
X13032000Y-6450600D01*
X12982000Y-6500600D01*
X13032000Y-6550600D01*
X13175000Y-7550000D02*
X13225000Y-7500000D01*
X13175000Y-7450000D01*
X13125000Y-7500000D01*
X13175000Y-7550000D01*
X13175000Y-7804000D02*
X13225000Y-7754000D01*
X13175000Y-7704000D01*
X13125000Y-7754000D01*
X13175000Y-7804000D01*
X13286000Y-6296600D02*
X13336000Y-6246600D01*
X13286000Y-6196600D01*
X13236000Y-6246600D01*
X13286000Y-6296600D01*
X13286000Y-6550600D02*
X13336000Y-6500600D01*
X13286000Y-6450600D01*
X13236000Y-6500600D01*
X13286000Y-6550600D01*
X13540000Y-6296600D02*
X13590000Y-6246600D01*
X13540000Y-6196600D01*
X13490000Y-6246600D01*
X13540000Y-6296600D01*
X13540000Y-6550600D02*
X13590000Y-6500600D01*
X13540000Y-6450600D01*
X13490000Y-6500600D01*
X13540000Y-6550600D01*
X13794000Y-6296600D02*
X13844000Y-6246600D01*
X13794000Y-6196600D01*
X13744000Y-6246600D01*
X13794000Y-6296600D01*
X13794000Y-6550600D02*
X13844000Y-6500600D01*
X13794000Y-6450600D01*
X13744000Y-6500600D01*
X13794000Y-6550600D01*
X13960000Y-7550000D02*
X14010000Y-7500000D01*
X13960000Y-7450000D01*
X13910000Y-7500000D01*
X13960000Y-7550000D01*
X13960000Y-7804000D02*
X14010000Y-7754000D01*
X13960000Y-7704000D01*
X13910000Y-7754000D01*
X13960000Y-7804000D01*
X14048000Y-6296600D02*
X14098000Y-6246600D01*
X14048000Y-6196600D01*
X13998000Y-6246600D01*
X14048000Y-6296600D01*
X14048000Y-6550600D02*
X14098000Y-6500600D01*
X14048000Y-6450600D01*
X13998000Y-6500600D01*
X14048000Y-6550600D01*
X14302000Y-6296600D02*
X14352000Y-6246600D01*
X14302000Y-6196600D01*
X14252000Y-6246600D01*
X14302000Y-6296600D01*
X14302000Y-6550600D02*
X14352000Y-6500600D01*
X14302000Y-6450600D01*
X14252000Y-6500600D01*
X14302000Y-6550600D01*
X14556000Y-6296600D02*
X14606000Y-6246600D01*
X14556000Y-6196600D01*
X14506000Y-6246600D01*
X14556000Y-6296600D01*
X14556000Y-6550600D02*
X14606000Y-6500600D01*
X14556000Y-6450600D01*
X14506000Y-6500600D01*
X14556000Y-6550600D01*
X14810000Y-6296600D02*
X14860000Y-6246600D01*
X14810000Y-6196600D01*
X14760000Y-6246600D01*
X14810000Y-6296600D01*
X14810000Y-6550600D02*
X14860000Y-6500600D01*
X14810000Y-6450600D01*
X14760000Y-6500600D01*
X14810000Y-6550600D01*
X15064000Y-6296600D02*
X15114000Y-6246600D01*
X15064000Y-6196600D01*
X15014000Y-6246600D01*
X15064000Y-6296600D01*
X15064000Y-6550600D02*
X15114000Y-6500600D01*
X15064000Y-6450600D01*
X15014000Y-6500600D01*
X15064000Y-6550600D01*
X15318000Y-6296600D02*
X15368000Y-6246600D01*
X15318000Y-6196600D01*
X15268000Y-6246600D01*
X15318000Y-6296600D01*
X15318000Y-6550600D02*
X15368000Y-6500600D01*
X15318000Y-6450600D01*
X15268000Y-6500600D01*
X15318000Y-6550600D01*
X15430000Y-7550000D02*
X15480000Y-7500000D01*
X15430000Y-7450000D01*
X15380000Y-7500000D01*
X15430000Y-7550000D01*
X15430000Y-7804000D02*
X15480000Y-7754000D01*
X15430000Y-7704000D01*
X15380000Y-7754000D01*
X15430000Y-7804000D01*
X15572000Y-6296600D02*
X15622000Y-6246600D01*
X15572000Y-6196600D01*
X15522000Y-6246600D01*
X15572000Y-6296600D01*
X15572000Y-6550600D02*
X15622000Y-6500600D01*
X15572000Y-6450600D01*
X15522000Y-6500600D01*
X15572000Y-6550600D01*
X15826000Y-6296600D02*
X15876000Y-6246600D01*
X15826000Y-6196600D01*
X15776000Y-6246600D01*
X15826000Y-6296600D01*
X15826000Y-6550600D02*
X15876000Y-6500600D01*
X15826000Y-6450600D01*
X15776000Y-6500600D01*
X15826000Y-6550600D01*
X16080000Y-6296600D02*
X16130000Y-6246600D01*
X16080000Y-6196600D01*
X16030000Y-6246600D01*
X16080000Y-6296600D01*
X16080000Y-6550600D02*
X16130000Y-6500600D01*
X16080000Y-6450600D01*
X16030000Y-6500600D01*
X16080000Y-6550600D01*
X16334000Y-6296600D02*
X16384000Y-6246600D01*
X16334000Y-6196600D01*
X16284000Y-6246600D01*
X16334000Y-6296600D01*
X16334000Y-6550600D02*
X16384000Y-6500600D01*
X16334000Y-6450600D01*
X16284000Y-6500600D01*
X16334000Y-6550600D01*
X16588000Y-6296600D02*
X16638000Y-6246600D01*
X16588000Y-6196600D01*
X16538000Y-6246600D01*
X16588000Y-6296600D01*
X16588000Y-6550600D02*
X16638000Y-6500600D01*
X16588000Y-6450600D01*
X16538000Y-6500600D01*
X16588000Y-6550600D01*
X16842000Y-6296600D02*
X16892000Y-6246600D01*
X16842000Y-6196600D01*
X16792000Y-6246600D01*
X16842000Y-6296600D01*
X16842000Y-6550600D02*
X16892000Y-6500600D01*
X16842000Y-6450600D01*
X16792000Y-6500600D01*
X16842000Y-6550600D01*
D17*
X17609500Y-7872500D02*
X17728500Y-7991500D01*
X17728500Y-7872500D02*
X17609500Y-7991500D01*
X17728500Y-7932000D02*
G75*
G03*
X17728500Y-7932000I-59500J0D01*
G01*
X17611500Y-7142500D02*
X17730500Y-7261500D01*
X17730500Y-7142500D02*
X17611500Y-7261500D01*
X17730500Y-7202000D02*
G75*
G03*
X17730500Y-7202000I-59500J0D01*
G01*
X17863500Y-7872500D02*
X17982500Y-7991500D01*
X17982500Y-7872500D02*
X17863500Y-7991500D01*
X17982500Y-7932000D02*
G75*
G03*
X17982500Y-7932000I-59500J0D01*
G01*
X17865500Y-7142500D02*
X17984500Y-7261500D01*
X17984500Y-7142500D02*
X17865500Y-7261500D01*
X17984500Y-7202000D02*
G75*
G03*
X17984500Y-7202000I-59500J0D01*
G01*
X18117500Y-7872500D02*
X18236500Y-7991500D01*
X18236500Y-7872500D02*
X18117500Y-7991500D01*
X18236500Y-7932000D02*
G75*
G03*
X18236500Y-7932000I-59500J0D01*
G01*
X18119500Y-7142500D02*
X18238500Y-7261500D01*
X18238500Y-7142500D02*
X18119500Y-7261500D01*
X18238500Y-7202000D02*
G75*
G03*
X18238500Y-7202000I-59500J0D01*
G01*
X18371500Y-7872500D02*
X18490500Y-7991500D01*
X18490500Y-7872500D02*
X18371500Y-7991500D01*
X18490500Y-7932000D02*
G75*
G03*
X18490500Y-7932000I-59500J0D01*
G01*
X18373500Y-7142500D02*
X18492500Y-7261500D01*
X18492500Y-7142500D02*
X18373500Y-7261500D01*
X18492500Y-7202000D02*
G75*
G03*
X18492500Y-7202000I-59500J0D01*
G01*
D18*
X12648900Y-12056100D02*
X12805900Y-12213100D01*
X12805900Y-12056100D02*
X12648900Y-12213100D01*
X12727400Y-12056100D02*
X12727400Y-12213100D01*
X12648900Y-12134600D02*
X12805900Y-12134600D01*
X14553900Y-12056100D02*
X14710900Y-12213100D01*
X14710900Y-12056100D02*
X14553900Y-12213100D01*
X14632400Y-12056100D02*
X14632400Y-12213100D01*
X14553900Y-12134600D02*
X14710900Y-12134600D01*
X16458900Y-12056100D02*
X16615900Y-12213100D01*
X16615900Y-12056100D02*
X16458900Y-12213100D01*
X16537400Y-12056100D02*
X16537400Y-12213100D01*
X16458900Y-12134600D02*
X16615900Y-12134600D01*
X18363900Y-12056100D02*
X18520900Y-12213100D01*
X18520900Y-12056100D02*
X18363900Y-12213100D01*
X18442400Y-12056100D02*
X18442400Y-12213100D01*
X18363900Y-12134600D02*
X18520900Y-12134600D01*
D19*
X11018850Y-12052050D02*
X11183950Y-12217150D01*
X11183950Y-12052050D02*
X11018850Y-12217150D01*
X11159772Y-12192972D02*
X11159772Y-12076228D01*
X11043028Y-12076228D01*
X11043028Y-12192972D01*
X11159772Y-12192972D01*
X12923850Y-12052050D02*
X13088950Y-12217150D01*
X13088950Y-12052050D02*
X12923850Y-12217150D01*
X13064772Y-12192972D02*
X13064772Y-12076228D01*
X12948028Y-12076228D01*
X12948028Y-12192972D01*
X13064772Y-12192972D01*
X14828850Y-12052050D02*
X14993950Y-12217150D01*
X14993950Y-12052050D02*
X14828850Y-12217150D01*
X14969772Y-12192972D02*
X14969772Y-12076228D01*
X14853028Y-12076228D01*
X14853028Y-12192972D01*
X14969772Y-12192972D01*
X16733850Y-12052050D02*
X16898950Y-12217150D01*
X16898950Y-12052050D02*
X16733850Y-12217150D01*
X16874772Y-12192972D02*
X16874772Y-12076228D01*
X16758028Y-12076228D01*
X16758028Y-12192972D01*
X16874772Y-12192972D01*
D11*
X11100419Y-13204076D02*
X11100419Y-13004076D01*
X11148038Y-13004076D01*
X11176610Y-13013600D01*
X11195657Y-13032648D01*
X11205181Y-13051695D01*
X11214705Y-13089790D01*
X11214705Y-13118362D01*
X11205181Y-13156457D01*
X11195657Y-13175505D01*
X11176610Y-13194552D01*
X11148038Y-13204076D01*
X11100419Y-13204076D01*
X11300419Y-13204076D02*
X11300419Y-13070743D01*
X11300419Y-13108838D02*
X11309943Y-13089790D01*
X11319467Y-13080267D01*
X11338514Y-13070743D01*
X11357562Y-13070743D01*
X11424228Y-13204076D02*
X11424228Y-13070743D01*
X11424228Y-13004076D02*
X11414705Y-13013600D01*
X11424228Y-13023124D01*
X11433752Y-13013600D01*
X11424228Y-13004076D01*
X11424228Y-13023124D01*
X11548038Y-13204076D02*
X11528990Y-13194552D01*
X11519467Y-13175505D01*
X11519467Y-13004076D01*
X11652800Y-13204076D02*
X11633752Y-13194552D01*
X11624228Y-13175505D01*
X11624228Y-13004076D01*
X11881371Y-13204076D02*
X11881371Y-13004076D01*
X11948038Y-13146933D01*
X12014705Y-13004076D01*
X12014705Y-13204076D01*
X12195657Y-13204076D02*
X12195657Y-13099314D01*
X12186133Y-13080267D01*
X12167086Y-13070743D01*
X12128990Y-13070743D01*
X12109943Y-13080267D01*
X12195657Y-13194552D02*
X12176609Y-13204076D01*
X12128990Y-13204076D01*
X12109943Y-13194552D01*
X12100419Y-13175505D01*
X12100419Y-13156457D01*
X12109943Y-13137409D01*
X12128990Y-13127886D01*
X12176609Y-13127886D01*
X12195657Y-13118362D01*
X12290895Y-13070743D02*
X12290895Y-13270743D01*
X12290895Y-13080267D02*
X12309943Y-13070743D01*
X12348038Y-13070743D01*
X12367086Y-13080267D01*
X12376609Y-13089790D01*
X12386133Y-13108838D01*
X12386133Y-13165981D01*
X12376609Y-13185028D01*
X12367086Y-13194552D01*
X12348038Y-13204076D01*
X12309943Y-13204076D01*
X12290895Y-13194552D01*
X12471848Y-13185028D02*
X12481371Y-13194552D01*
X12471848Y-13204076D01*
X12462324Y-13194552D01*
X12471848Y-13185028D01*
X12471848Y-13204076D01*
X12471848Y-13080267D02*
X12481371Y-13089790D01*
X12471848Y-13099314D01*
X12462324Y-13089790D01*
X12471848Y-13080267D01*
X12471848Y-13099314D01*
D12*
X10802800Y-13513600D02*
X10842800Y-13553600D01*
X10842800Y-13513600D02*
X10802800Y-13553600D01*
D11*
X11138514Y-13424076D02*
X11157562Y-13424076D01*
X11176610Y-13433600D01*
X11186133Y-13443124D01*
X11195657Y-13462171D01*
X11205181Y-13500267D01*
X11205181Y-13547886D01*
X11195657Y-13585981D01*
X11186133Y-13605028D01*
X11176610Y-13614552D01*
X11157562Y-13624076D01*
X11138514Y-13624076D01*
X11119467Y-13614552D01*
X11109943Y-13605028D01*
X11100419Y-13585981D01*
X11090895Y-13547886D01*
X11090895Y-13500267D01*
X11100419Y-13462171D01*
X11109943Y-13443124D01*
X11119467Y-13433600D01*
X11138514Y-13424076D01*
X11290895Y-13605028D02*
X11300419Y-13614552D01*
X11290895Y-13624076D01*
X11281371Y-13614552D01*
X11290895Y-13605028D01*
X11290895Y-13624076D01*
X11471848Y-13490743D02*
X11471848Y-13624076D01*
X11424228Y-13414552D02*
X11376609Y-13557409D01*
X11500419Y-13557409D01*
X11614705Y-13424076D02*
X11633752Y-13424076D01*
X11652800Y-13433600D01*
X11662324Y-13443124D01*
X11671848Y-13462171D01*
X11681371Y-13500267D01*
X11681371Y-13547886D01*
X11671848Y-13585981D01*
X11662324Y-13605028D01*
X11652800Y-13614552D01*
X11633752Y-13624076D01*
X11614705Y-13624076D01*
X11595657Y-13614552D01*
X11586133Y-13605028D01*
X11576609Y-13585981D01*
X11567086Y-13547886D01*
X11567086Y-13500267D01*
X11576609Y-13462171D01*
X11586133Y-13443124D01*
X11595657Y-13433600D01*
X11614705Y-13424076D01*
X11805181Y-13424076D02*
X11824228Y-13424076D01*
X11843276Y-13433600D01*
X11852800Y-13443124D01*
X11862324Y-13462171D01*
X11871848Y-13500267D01*
X11871848Y-13547886D01*
X11862324Y-13585981D01*
X11852800Y-13605028D01*
X11843276Y-13614552D01*
X11824228Y-13624076D01*
X11805181Y-13624076D01*
X11786133Y-13614552D01*
X11776609Y-13605028D01*
X11767086Y-13585981D01*
X11757562Y-13547886D01*
X11757562Y-13500267D01*
X11767086Y-13462171D01*
X11776609Y-13443124D01*
X11786133Y-13433600D01*
X11805181Y-13424076D01*
X11957562Y-13624076D02*
X11957562Y-13490743D01*
X11957562Y-13509790D02*
X11967086Y-13500267D01*
X11986133Y-13490743D01*
X12014705Y-13490743D01*
X12033752Y-13500267D01*
X12043276Y-13519314D01*
X12043276Y-13624076D01*
X12043276Y-13519314D02*
X12052800Y-13500267D01*
X12071848Y-13490743D01*
X12100419Y-13490743D01*
X12119467Y-13500267D01*
X12128990Y-13519314D01*
X12128990Y-13624076D01*
X12224228Y-13624076D02*
X12224228Y-13490743D01*
X12224228Y-13509790D02*
X12233752Y-13500267D01*
X12252800Y-13490743D01*
X12281371Y-13490743D01*
X12300419Y-13500267D01*
X12309943Y-13519314D01*
X12309943Y-13624076D01*
X12309943Y-13519314D02*
X12319467Y-13500267D01*
X12338514Y-13490743D01*
X12367086Y-13490743D01*
X12386133Y-13500267D01*
X12395657Y-13519314D01*
X12395657Y-13624076D01*
X12786133Y-13414552D02*
X12614705Y-13671695D01*
X13043276Y-13424076D02*
X13062324Y-13424076D01*
X13081371Y-13433600D01*
X13090895Y-13443124D01*
X13100419Y-13462171D01*
X13109943Y-13500267D01*
X13109943Y-13547886D01*
X13100419Y-13585981D01*
X13090895Y-13605028D01*
X13081371Y-13614552D01*
X13062324Y-13624076D01*
X13043276Y-13624076D01*
X13024228Y-13614552D01*
X13014705Y-13605028D01*
X13005181Y-13585981D01*
X12995657Y-13547886D01*
X12995657Y-13500267D01*
X13005181Y-13462171D01*
X13014705Y-13443124D01*
X13024228Y-13433600D01*
X13043276Y-13424076D01*
X13195657Y-13605028D02*
X13205181Y-13614552D01*
X13195657Y-13624076D01*
X13186133Y-13614552D01*
X13195657Y-13605028D01*
X13195657Y-13624076D01*
X13328990Y-13424076D02*
X13348038Y-13424076D01*
X13367086Y-13433600D01*
X13376609Y-13443124D01*
X13386133Y-13462171D01*
X13395657Y-13500267D01*
X13395657Y-13547886D01*
X13386133Y-13585981D01*
X13376609Y-13605028D01*
X13367086Y-13614552D01*
X13348038Y-13624076D01*
X13328990Y-13624076D01*
X13309943Y-13614552D01*
X13300419Y-13605028D01*
X13290895Y-13585981D01*
X13281371Y-13547886D01*
X13281371Y-13500267D01*
X13290895Y-13462171D01*
X13300419Y-13443124D01*
X13309943Y-13433600D01*
X13328990Y-13424076D01*
X13586133Y-13624076D02*
X13471848Y-13624076D01*
X13528990Y-13624076D02*
X13528990Y-13424076D01*
X13509943Y-13452648D01*
X13490895Y-13471695D01*
X13471848Y-13481219D01*
X13767086Y-13424076D02*
X13671848Y-13424076D01*
X13662324Y-13519314D01*
X13671848Y-13509790D01*
X13690895Y-13500267D01*
X13738514Y-13500267D01*
X13757562Y-13509790D01*
X13767086Y-13519314D01*
X13776609Y-13538362D01*
X13776609Y-13585981D01*
X13767086Y-13605028D01*
X13757562Y-13614552D01*
X13738514Y-13624076D01*
X13690895Y-13624076D01*
X13671848Y-13614552D01*
X13662324Y-13605028D01*
X13843276Y-13424076D02*
X13976609Y-13424076D01*
X13890895Y-13624076D01*
X14043276Y-13424076D02*
X14043276Y-13462171D01*
X14119467Y-13424076D02*
X14119467Y-13462171D01*
X14414705Y-13700267D02*
X14405181Y-13690743D01*
X14386133Y-13662171D01*
X14376609Y-13643124D01*
X14367086Y-13614552D01*
X14357562Y-13566933D01*
X14357562Y-13528838D01*
X14367086Y-13481219D01*
X14376609Y-13452648D01*
X14386133Y-13433600D01*
X14405181Y-13405028D01*
X14414705Y-13395505D01*
X14595657Y-13624076D02*
X14481371Y-13624076D01*
X14538514Y-13624076D02*
X14538514Y-13424076D01*
X14519467Y-13452648D01*
X14500419Y-13471695D01*
X14481371Y-13481219D01*
X14671848Y-13443124D02*
X14681371Y-13433600D01*
X14700419Y-13424076D01*
X14748038Y-13424076D01*
X14767086Y-13433600D01*
X14776609Y-13443124D01*
X14786133Y-13462171D01*
X14786133Y-13481219D01*
X14776609Y-13509790D01*
X14662324Y-13624076D01*
X14786133Y-13624076D01*
X14957562Y-13424076D02*
X14919467Y-13424076D01*
X14900419Y-13433600D01*
X14890895Y-13443124D01*
X14871848Y-13471695D01*
X14862324Y-13509790D01*
X14862324Y-13585981D01*
X14871848Y-13605028D01*
X14881371Y-13614552D01*
X14900419Y-13624076D01*
X14938514Y-13624076D01*
X14957562Y-13614552D01*
X14967086Y-13605028D01*
X14976609Y-13585981D01*
X14976609Y-13538362D01*
X14967086Y-13519314D01*
X14957562Y-13509790D01*
X14938514Y-13500267D01*
X14900419Y-13500267D01*
X14881371Y-13509790D01*
X14871848Y-13519314D01*
X14862324Y-13538362D01*
X15214705Y-13624076D02*
X15214705Y-13424076D01*
X15300419Y-13624076D02*
X15300419Y-13519314D01*
X15290895Y-13500267D01*
X15271848Y-13490743D01*
X15243276Y-13490743D01*
X15224228Y-13500267D01*
X15214705Y-13509790D01*
X15424228Y-13624076D02*
X15405181Y-13614552D01*
X15395657Y-13605028D01*
X15386133Y-13585981D01*
X15386133Y-13528838D01*
X15395657Y-13509790D01*
X15405181Y-13500267D01*
X15424228Y-13490743D01*
X15452800Y-13490743D01*
X15471848Y-13500267D01*
X15481371Y-13509790D01*
X15490895Y-13528838D01*
X15490895Y-13585981D01*
X15481371Y-13605028D01*
X15471848Y-13614552D01*
X15452800Y-13624076D01*
X15424228Y-13624076D01*
X15605181Y-13624076D02*
X15586133Y-13614552D01*
X15576609Y-13595505D01*
X15576609Y-13424076D01*
X15757562Y-13614552D02*
X15738514Y-13624076D01*
X15700419Y-13624076D01*
X15681371Y-13614552D01*
X15671848Y-13595505D01*
X15671848Y-13519314D01*
X15681371Y-13500267D01*
X15700419Y-13490743D01*
X15738514Y-13490743D01*
X15757562Y-13500267D01*
X15767086Y-13519314D01*
X15767086Y-13538362D01*
X15671848Y-13557409D01*
X15843276Y-13614552D02*
X15862324Y-13624076D01*
X15900419Y-13624076D01*
X15919467Y-13614552D01*
X15928990Y-13595505D01*
X15928990Y-13585981D01*
X15919467Y-13566933D01*
X15900419Y-13557409D01*
X15871848Y-13557409D01*
X15852800Y-13547886D01*
X15843276Y-13528838D01*
X15843276Y-13519314D01*
X15852800Y-13500267D01*
X15871848Y-13490743D01*
X15900419Y-13490743D01*
X15919467Y-13500267D01*
X15995657Y-13700267D02*
X16005181Y-13690743D01*
X16024228Y-13662171D01*
X16033752Y-13643124D01*
X16043276Y-13614552D01*
X16052800Y-13566933D01*
X16052800Y-13528838D01*
X16043276Y-13481219D01*
X16033752Y-13452648D01*
X16024228Y-13433600D01*
X16005181Y-13405028D01*
X15995657Y-13395505D01*
D13*
X10842800Y-13797600D02*
G75*
G03*
X10842800Y-13797600I-30000J0D01*
G01*
D11*
X11138514Y-13688076D02*
X11157562Y-13688076D01*
X11176610Y-13697600D01*
X11186133Y-13707124D01*
X11195657Y-13726171D01*
X11205181Y-13764267D01*
X11205181Y-13811886D01*
X11195657Y-13849981D01*
X11186133Y-13869028D01*
X11176610Y-13878552D01*
X11157562Y-13888076D01*
X11138514Y-13888076D01*
X11119467Y-13878552D01*
X11109943Y-13869028D01*
X11100419Y-13849981D01*
X11090895Y-13811886D01*
X11090895Y-13764267D01*
X11100419Y-13726171D01*
X11109943Y-13707124D01*
X11119467Y-13697600D01*
X11138514Y-13688076D01*
X11290895Y-13869028D02*
X11300419Y-13878552D01*
X11290895Y-13888076D01*
X11281371Y-13878552D01*
X11290895Y-13869028D01*
X11290895Y-13888076D01*
X11471848Y-13688076D02*
X11433752Y-13688076D01*
X11414705Y-13697600D01*
X11405181Y-13707124D01*
X11386133Y-13735695D01*
X11376609Y-13773790D01*
X11376609Y-13849981D01*
X11386133Y-13869028D01*
X11395657Y-13878552D01*
X11414705Y-13888076D01*
X11452800Y-13888076D01*
X11471848Y-13878552D01*
X11481371Y-13869028D01*
X11490895Y-13849981D01*
X11490895Y-13802362D01*
X11481371Y-13783314D01*
X11471848Y-13773790D01*
X11452800Y-13764267D01*
X11414705Y-13764267D01*
X11395657Y-13773790D01*
X11386133Y-13783314D01*
X11376609Y-13802362D01*
X11614705Y-13688076D02*
X11633752Y-13688076D01*
X11652800Y-13697600D01*
X11662324Y-13707124D01*
X11671848Y-13726171D01*
X11681371Y-13764267D01*
X11681371Y-13811886D01*
X11671848Y-13849981D01*
X11662324Y-13869028D01*
X11652800Y-13878552D01*
X11633752Y-13888076D01*
X11614705Y-13888076D01*
X11595657Y-13878552D01*
X11586133Y-13869028D01*
X11576609Y-13849981D01*
X11567086Y-13811886D01*
X11567086Y-13764267D01*
X11576609Y-13726171D01*
X11586133Y-13707124D01*
X11595657Y-13697600D01*
X11614705Y-13688076D01*
X11805181Y-13688076D02*
X11824228Y-13688076D01*
X11843276Y-13697600D01*
X11852800Y-13707124D01*
X11862324Y-13726171D01*
X11871848Y-13764267D01*
X11871848Y-13811886D01*
X11862324Y-13849981D01*
X11852800Y-13869028D01*
X11843276Y-13878552D01*
X11824228Y-13888076D01*
X11805181Y-13888076D01*
X11786133Y-13878552D01*
X11776609Y-13869028D01*
X11767086Y-13849981D01*
X11757562Y-13811886D01*
X11757562Y-13764267D01*
X11767086Y-13726171D01*
X11776609Y-13707124D01*
X11786133Y-13697600D01*
X11805181Y-13688076D01*
X11957562Y-13888076D02*
X11957562Y-13754743D01*
X11957562Y-13773790D02*
X11967086Y-13764267D01*
X11986133Y-13754743D01*
X12014705Y-13754743D01*
X12033752Y-13764267D01*
X12043276Y-13783314D01*
X12043276Y-13888076D01*
X12043276Y-13783314D02*
X12052800Y-13764267D01*
X12071848Y-13754743D01*
X12100419Y-13754743D01*
X12119467Y-13764267D01*
X12128990Y-13783314D01*
X12128990Y-13888076D01*
X12224228Y-13888076D02*
X12224228Y-13754743D01*
X12224228Y-13773790D02*
X12233752Y-13764267D01*
X12252800Y-13754743D01*
X12281371Y-13754743D01*
X12300419Y-13764267D01*
X12309943Y-13783314D01*
X12309943Y-13888076D01*
X12309943Y-13783314D02*
X12319467Y-13764267D01*
X12338514Y-13754743D01*
X12367086Y-13754743D01*
X12386133Y-13764267D01*
X12395657Y-13783314D01*
X12395657Y-13888076D01*
X12786133Y-13678552D02*
X12614705Y-13935695D01*
X13043276Y-13688076D02*
X13062324Y-13688076D01*
X13081371Y-13697600D01*
X13090895Y-13707124D01*
X13100419Y-13726171D01*
X13109943Y-13764267D01*
X13109943Y-13811886D01*
X13100419Y-13849981D01*
X13090895Y-13869028D01*
X13081371Y-13878552D01*
X13062324Y-13888076D01*
X13043276Y-13888076D01*
X13024228Y-13878552D01*
X13014705Y-13869028D01*
X13005181Y-13849981D01*
X12995657Y-13811886D01*
X12995657Y-13764267D01*
X13005181Y-13726171D01*
X13014705Y-13707124D01*
X13024228Y-13697600D01*
X13043276Y-13688076D01*
X13195657Y-13869028D02*
X13205181Y-13878552D01*
X13195657Y-13888076D01*
X13186133Y-13878552D01*
X13195657Y-13869028D01*
X13195657Y-13888076D01*
X13328990Y-13688076D02*
X13348038Y-13688076D01*
X13367086Y-13697600D01*
X13376609Y-13707124D01*
X13386133Y-13726171D01*
X13395657Y-13764267D01*
X13395657Y-13811886D01*
X13386133Y-13849981D01*
X13376609Y-13869028D01*
X13367086Y-13878552D01*
X13348038Y-13888076D01*
X13328990Y-13888076D01*
X13309943Y-13878552D01*
X13300419Y-13869028D01*
X13290895Y-13849981D01*
X13281371Y-13811886D01*
X13281371Y-13764267D01*
X13290895Y-13726171D01*
X13300419Y-13707124D01*
X13309943Y-13697600D01*
X13328990Y-13688076D01*
X13471848Y-13707124D02*
X13481371Y-13697600D01*
X13500419Y-13688076D01*
X13548038Y-13688076D01*
X13567086Y-13697600D01*
X13576609Y-13707124D01*
X13586133Y-13726171D01*
X13586133Y-13745219D01*
X13576609Y-13773790D01*
X13462324Y-13888076D01*
X13586133Y-13888076D01*
X13652800Y-13688076D02*
X13776609Y-13688076D01*
X13709943Y-13764267D01*
X13738514Y-13764267D01*
X13757562Y-13773790D01*
X13767086Y-13783314D01*
X13776609Y-13802362D01*
X13776609Y-13849981D01*
X13767086Y-13869028D01*
X13757562Y-13878552D01*
X13738514Y-13888076D01*
X13681371Y-13888076D01*
X13662324Y-13878552D01*
X13652800Y-13869028D01*
X13948038Y-13688076D02*
X13909943Y-13688076D01*
X13890895Y-13697600D01*
X13881371Y-13707124D01*
X13862324Y-13735695D01*
X13852800Y-13773790D01*
X13852800Y-13849981D01*
X13862324Y-13869028D01*
X13871848Y-13878552D01*
X13890895Y-13888076D01*
X13928990Y-13888076D01*
X13948038Y-13878552D01*
X13957562Y-13869028D01*
X13967086Y-13849981D01*
X13967086Y-13802362D01*
X13957562Y-13783314D01*
X13948038Y-13773790D01*
X13928990Y-13764267D01*
X13890895Y-13764267D01*
X13871848Y-13773790D01*
X13862324Y-13783314D01*
X13852800Y-13802362D01*
X14043276Y-13688076D02*
X14043276Y-13726171D01*
X14119467Y-13688076D02*
X14119467Y-13726171D01*
X14414705Y-13964267D02*
X14405181Y-13954743D01*
X14386133Y-13926171D01*
X14376609Y-13907124D01*
X14367086Y-13878552D01*
X14357562Y-13830933D01*
X14357562Y-13792838D01*
X14367086Y-13745219D01*
X14376609Y-13716648D01*
X14386133Y-13697600D01*
X14405181Y-13669028D01*
X14414705Y-13659505D01*
X14586133Y-13688076D02*
X14490895Y-13688076D01*
X14481371Y-13783314D01*
X14490895Y-13773790D01*
X14509943Y-13764267D01*
X14557562Y-13764267D01*
X14576609Y-13773790D01*
X14586133Y-13783314D01*
X14595657Y-13802362D01*
X14595657Y-13849981D01*
X14586133Y-13869028D01*
X14576609Y-13878552D01*
X14557562Y-13888076D01*
X14509943Y-13888076D01*
X14490895Y-13878552D01*
X14481371Y-13869028D01*
X14786133Y-13888076D02*
X14671848Y-13888076D01*
X14728990Y-13888076D02*
X14728990Y-13688076D01*
X14709943Y-13716648D01*
X14690895Y-13735695D01*
X14671848Y-13745219D01*
X15024228Y-13888076D02*
X15024228Y-13688076D01*
X15109943Y-13888076D02*
X15109943Y-13783314D01*
X15100419Y-13764267D01*
X15081371Y-13754743D01*
X15052800Y-13754743D01*
X15033752Y-13764267D01*
X15024228Y-13773790D01*
X15233752Y-13888076D02*
X15214705Y-13878552D01*
X15205181Y-13869028D01*
X15195657Y-13849981D01*
X15195657Y-13792838D01*
X15205181Y-13773790D01*
X15214705Y-13764267D01*
X15233752Y-13754743D01*
X15262324Y-13754743D01*
X15281371Y-13764267D01*
X15290895Y-13773790D01*
X15300419Y-13792838D01*
X15300419Y-13849981D01*
X15290895Y-13869028D01*
X15281371Y-13878552D01*
X15262324Y-13888076D01*
X15233752Y-13888076D01*
X15414705Y-13888076D02*
X15395657Y-13878552D01*
X15386133Y-13859505D01*
X15386133Y-13688076D01*
X15567086Y-13878552D02*
X15548038Y-13888076D01*
X15509943Y-13888076D01*
X15490895Y-13878552D01*
X15481371Y-13859505D01*
X15481371Y-13783314D01*
X15490895Y-13764267D01*
X15509943Y-13754743D01*
X15548038Y-13754743D01*
X15567086Y-13764267D01*
X15576609Y-13783314D01*
X15576609Y-13802362D01*
X15481371Y-13821409D01*
X15652800Y-13878552D02*
X15671848Y-13888076D01*
X15709943Y-13888076D01*
X15728990Y-13878552D01*
X15738514Y-13859505D01*
X15738514Y-13849981D01*
X15728990Y-13830933D01*
X15709943Y-13821409D01*
X15681371Y-13821409D01*
X15662324Y-13811886D01*
X15652800Y-13792838D01*
X15652800Y-13783314D01*
X15662324Y-13764267D01*
X15681371Y-13754743D01*
X15709943Y-13754743D01*
X15728990Y-13764267D01*
X15805181Y-13964267D02*
X15814705Y-13954743D01*
X15833752Y-13926171D01*
X15843276Y-13907124D01*
X15852800Y-13878552D01*
X15862324Y-13830933D01*
X15862324Y-13792838D01*
X15852800Y-13745219D01*
X15843276Y-13716648D01*
X15833752Y-13697600D01*
X15814705Y-13669028D01*
X15805181Y-13659505D01*
D14*
X10798350Y-14017150D02*
X10798350Y-14106050D01*
X10753900Y-14061600D02*
X10842800Y-14061600D01*
D11*
X11138514Y-13952076D02*
X11157562Y-13952076D01*
X11176610Y-13961600D01*
X11186133Y-13971124D01*
X11195657Y-13990171D01*
X11205181Y-14028267D01*
X11205181Y-14075886D01*
X11195657Y-14113981D01*
X11186133Y-14133028D01*
X11176610Y-14142552D01*
X11157562Y-14152076D01*
X11138514Y-14152076D01*
X11119467Y-14142552D01*
X11109943Y-14133028D01*
X11100419Y-14113981D01*
X11090895Y-14075886D01*
X11090895Y-14028267D01*
X11100419Y-13990171D01*
X11109943Y-13971124D01*
X11119467Y-13961600D01*
X11138514Y-13952076D01*
X11290895Y-14133028D02*
X11300419Y-14142552D01*
X11290895Y-14152076D01*
X11281371Y-14142552D01*
X11290895Y-14133028D01*
X11290895Y-14152076D01*
X11414705Y-14037790D02*
X11395657Y-14028267D01*
X11386133Y-14018743D01*
X11376609Y-13999695D01*
X11376609Y-13990171D01*
X11386133Y-13971124D01*
X11395657Y-13961600D01*
X11414705Y-13952076D01*
X11452800Y-13952076D01*
X11471848Y-13961600D01*
X11481371Y-13971124D01*
X11490895Y-13990171D01*
X11490895Y-13999695D01*
X11481371Y-14018743D01*
X11471848Y-14028267D01*
X11452800Y-14037790D01*
X11414705Y-14037790D01*
X11395657Y-14047314D01*
X11386133Y-14056838D01*
X11376609Y-14075886D01*
X11376609Y-14113981D01*
X11386133Y-14133028D01*
X11395657Y-14142552D01*
X11414705Y-14152076D01*
X11452800Y-14152076D01*
X11471848Y-14142552D01*
X11481371Y-14133028D01*
X11490895Y-14113981D01*
X11490895Y-14075886D01*
X11481371Y-14056838D01*
X11471848Y-14047314D01*
X11452800Y-14037790D01*
X11605181Y-14037790D02*
X11586133Y-14028267D01*
X11576609Y-14018743D01*
X11567086Y-13999695D01*
X11567086Y-13990171D01*
X11576609Y-13971124D01*
X11586133Y-13961600D01*
X11605181Y-13952076D01*
X11643276Y-13952076D01*
X11662324Y-13961600D01*
X11671848Y-13971124D01*
X11681371Y-13990171D01*
X11681371Y-13999695D01*
X11671848Y-14018743D01*
X11662324Y-14028267D01*
X11643276Y-14037790D01*
X11605181Y-14037790D01*
X11586133Y-14047314D01*
X11576609Y-14056838D01*
X11567086Y-14075886D01*
X11567086Y-14113981D01*
X11576609Y-14133028D01*
X11586133Y-14142552D01*
X11605181Y-14152076D01*
X11643276Y-14152076D01*
X11662324Y-14142552D01*
X11671848Y-14133028D01*
X11681371Y-14113981D01*
X11681371Y-14075886D01*
X11671848Y-14056838D01*
X11662324Y-14047314D01*
X11643276Y-14037790D01*
X11776609Y-14152076D02*
X11814705Y-14152076D01*
X11833752Y-14142552D01*
X11843276Y-14133028D01*
X11862324Y-14104457D01*
X11871848Y-14066362D01*
X11871848Y-13990171D01*
X11862324Y-13971124D01*
X11852800Y-13961600D01*
X11833752Y-13952076D01*
X11795657Y-13952076D01*
X11776609Y-13961600D01*
X11767086Y-13971124D01*
X11757562Y-13990171D01*
X11757562Y-14037790D01*
X11767086Y-14056838D01*
X11776609Y-14066362D01*
X11795657Y-14075886D01*
X11833752Y-14075886D01*
X11852800Y-14066362D01*
X11862324Y-14056838D01*
X11871848Y-14037790D01*
X11957562Y-14152076D02*
X11957562Y-14018743D01*
X11957562Y-14037790D02*
X11967086Y-14028267D01*
X11986133Y-14018743D01*
X12014705Y-14018743D01*
X12033752Y-14028267D01*
X12043276Y-14047314D01*
X12043276Y-14152076D01*
X12043276Y-14047314D02*
X12052800Y-14028267D01*
X12071848Y-14018743D01*
X12100419Y-14018743D01*
X12119467Y-14028267D01*
X12128990Y-14047314D01*
X12128990Y-14152076D01*
X12224228Y-14152076D02*
X12224228Y-14018743D01*
X12224228Y-14037790D02*
X12233752Y-14028267D01*
X12252800Y-14018743D01*
X12281371Y-14018743D01*
X12300419Y-14028267D01*
X12309943Y-14047314D01*
X12309943Y-14152076D01*
X12309943Y-14047314D02*
X12319467Y-14028267D01*
X12338514Y-14018743D01*
X12367086Y-14018743D01*
X12386133Y-14028267D01*
X12395657Y-14047314D01*
X12395657Y-14152076D01*
X12786133Y-13942552D02*
X12614705Y-14199695D01*
X13043276Y-13952076D02*
X13062324Y-13952076D01*
X13081371Y-13961600D01*
X13090895Y-13971124D01*
X13100419Y-13990171D01*
X13109943Y-14028267D01*
X13109943Y-14075886D01*
X13100419Y-14113981D01*
X13090895Y-14133028D01*
X13081371Y-14142552D01*
X13062324Y-14152076D01*
X13043276Y-14152076D01*
X13024228Y-14142552D01*
X13014705Y-14133028D01*
X13005181Y-14113981D01*
X12995657Y-14075886D01*
X12995657Y-14028267D01*
X13005181Y-13990171D01*
X13014705Y-13971124D01*
X13024228Y-13961600D01*
X13043276Y-13952076D01*
X13195657Y-14133028D02*
X13205181Y-14142552D01*
X13195657Y-14152076D01*
X13186133Y-14142552D01*
X13195657Y-14133028D01*
X13195657Y-14152076D01*
X13328990Y-13952076D02*
X13348038Y-13952076D01*
X13367086Y-13961600D01*
X13376609Y-13971124D01*
X13386133Y-13990171D01*
X13395657Y-14028267D01*
X13395657Y-14075886D01*
X13386133Y-14113981D01*
X13376609Y-14133028D01*
X13367086Y-14142552D01*
X13348038Y-14152076D01*
X13328990Y-14152076D01*
X13309943Y-14142552D01*
X13300419Y-14133028D01*
X13290895Y-14113981D01*
X13281371Y-14075886D01*
X13281371Y-14028267D01*
X13290895Y-13990171D01*
X13300419Y-13971124D01*
X13309943Y-13961600D01*
X13328990Y-13952076D01*
X13462324Y-13952076D02*
X13586133Y-13952076D01*
X13519467Y-14028267D01*
X13548038Y-14028267D01*
X13567086Y-14037790D01*
X13576609Y-14047314D01*
X13586133Y-14066362D01*
X13586133Y-14113981D01*
X13576609Y-14133028D01*
X13567086Y-14142552D01*
X13548038Y-14152076D01*
X13490895Y-14152076D01*
X13471848Y-14142552D01*
X13462324Y-14133028D01*
X13767086Y-13952076D02*
X13671848Y-13952076D01*
X13662324Y-14047314D01*
X13671848Y-14037790D01*
X13690895Y-14028267D01*
X13738514Y-14028267D01*
X13757562Y-14037790D01*
X13767086Y-14047314D01*
X13776609Y-14066362D01*
X13776609Y-14113981D01*
X13767086Y-14133028D01*
X13757562Y-14142552D01*
X13738514Y-14152076D01*
X13690895Y-14152076D01*
X13671848Y-14142552D01*
X13662324Y-14133028D01*
X13900419Y-13952076D02*
X13919467Y-13952076D01*
X13938514Y-13961600D01*
X13948038Y-13971124D01*
X13957562Y-13990171D01*
X13967086Y-14028267D01*
X13967086Y-14075886D01*
X13957562Y-14113981D01*
X13948038Y-14133028D01*
X13938514Y-14142552D01*
X13919467Y-14152076D01*
X13900419Y-14152076D01*
X13881371Y-14142552D01*
X13871848Y-14133028D01*
X13862324Y-14113981D01*
X13852800Y-14075886D01*
X13852800Y-14028267D01*
X13862324Y-13990171D01*
X13871848Y-13971124D01*
X13881371Y-13961600D01*
X13900419Y-13952076D01*
X14043276Y-13952076D02*
X14043276Y-13990171D01*
X14119467Y-13952076D02*
X14119467Y-13990171D01*
X14414705Y-14228267D02*
X14405181Y-14218743D01*
X14386133Y-14190171D01*
X14376609Y-14171124D01*
X14367086Y-14142552D01*
X14357562Y-14094933D01*
X14357562Y-14056838D01*
X14367086Y-14009219D01*
X14376609Y-13980648D01*
X14386133Y-13961600D01*
X14405181Y-13933028D01*
X14414705Y-13923505D01*
X14471848Y-13952076D02*
X14595657Y-13952076D01*
X14528990Y-14028267D01*
X14557562Y-14028267D01*
X14576609Y-14037790D01*
X14586133Y-14047314D01*
X14595657Y-14066362D01*
X14595657Y-14113981D01*
X14586133Y-14133028D01*
X14576609Y-14142552D01*
X14557562Y-14152076D01*
X14500419Y-14152076D01*
X14481371Y-14142552D01*
X14471848Y-14133028D01*
X14671848Y-13971124D02*
X14681371Y-13961600D01*
X14700419Y-13952076D01*
X14748038Y-13952076D01*
X14767086Y-13961600D01*
X14776609Y-13971124D01*
X14786133Y-13990171D01*
X14786133Y-14009219D01*
X14776609Y-14037790D01*
X14662324Y-14152076D01*
X14786133Y-14152076D01*
X15024228Y-14152076D02*
X15024228Y-13952076D01*
X15109943Y-14152076D02*
X15109943Y-14047314D01*
X15100419Y-14028267D01*
X15081371Y-14018743D01*
X15052800Y-14018743D01*
X15033752Y-14028267D01*
X15024228Y-14037790D01*
X15233752Y-14152076D02*
X15214705Y-14142552D01*
X15205181Y-14133028D01*
X15195657Y-14113981D01*
X15195657Y-14056838D01*
X15205181Y-14037790D01*
X15214705Y-14028267D01*
X15233752Y-14018743D01*
X15262324Y-14018743D01*
X15281371Y-14028267D01*
X15290895Y-14037790D01*
X15300419Y-14056838D01*
X15300419Y-14113981D01*
X15290895Y-14133028D01*
X15281371Y-14142552D01*
X15262324Y-14152076D01*
X15233752Y-14152076D01*
X15414705Y-14152076D02*
X15395657Y-14142552D01*
X15386133Y-14123505D01*
X15386133Y-13952076D01*
X15567086Y-14142552D02*
X15548038Y-14152076D01*
X15509943Y-14152076D01*
X15490895Y-14142552D01*
X15481371Y-14123505D01*
X15481371Y-14047314D01*
X15490895Y-14028267D01*
X15509943Y-14018743D01*
X15548038Y-14018743D01*
X15567086Y-14028267D01*
X15576609Y-14047314D01*
X15576609Y-14066362D01*
X15481371Y-14085409D01*
X15652800Y-14142552D02*
X15671848Y-14152076D01*
X15709943Y-14152076D01*
X15728990Y-14142552D01*
X15738514Y-14123505D01*
X15738514Y-14113981D01*
X15728990Y-14094933D01*
X15709943Y-14085409D01*
X15681371Y-14085409D01*
X15662324Y-14075886D01*
X15652800Y-14056838D01*
X15652800Y-14047314D01*
X15662324Y-14028267D01*
X15681371Y-14018743D01*
X15709943Y-14018743D01*
X15728990Y-14028267D01*
X15805181Y-14228267D02*
X15814705Y-14218743D01*
X15833752Y-14190171D01*
X15843276Y-14171124D01*
X15852800Y-14142552D01*
X15862324Y-14094933D01*
X15862324Y-14056838D01*
X15852800Y-14009219D01*
X15843276Y-13980648D01*
X15833752Y-13961600D01*
X15814705Y-13933028D01*
X15805181Y-13923505D01*
D15*
X10829767Y-14357067D02*
X10829767Y-14294133D01*
X10766833Y-14294133D01*
X10766833Y-14357067D01*
X10829767Y-14357067D01*
D11*
X11138514Y-14216076D02*
X11157562Y-14216076D01*
X11176610Y-14225600D01*
X11186133Y-14235124D01*
X11195657Y-14254171D01*
X11205181Y-14292267D01*
X11205181Y-14339886D01*
X11195657Y-14377981D01*
X11186133Y-14397028D01*
X11176610Y-14406552D01*
X11157562Y-14416076D01*
X11138514Y-14416076D01*
X11119467Y-14406552D01*
X11109943Y-14397028D01*
X11100419Y-14377981D01*
X11090895Y-14339886D01*
X11090895Y-14292267D01*
X11100419Y-14254171D01*
X11109943Y-14235124D01*
X11119467Y-14225600D01*
X11138514Y-14216076D01*
X11290895Y-14397028D02*
X11300419Y-14406552D01*
X11290895Y-14416076D01*
X11281371Y-14406552D01*
X11290895Y-14397028D01*
X11290895Y-14416076D01*
X11414705Y-14301790D02*
X11395657Y-14292267D01*
X11386133Y-14282743D01*
X11376609Y-14263695D01*
X11376609Y-14254171D01*
X11386133Y-14235124D01*
X11395657Y-14225600D01*
X11414705Y-14216076D01*
X11452800Y-14216076D01*
X11471848Y-14225600D01*
X11481371Y-14235124D01*
X11490895Y-14254171D01*
X11490895Y-14263695D01*
X11481371Y-14282743D01*
X11471848Y-14292267D01*
X11452800Y-14301790D01*
X11414705Y-14301790D01*
X11395657Y-14311314D01*
X11386133Y-14320838D01*
X11376609Y-14339886D01*
X11376609Y-14377981D01*
X11386133Y-14397028D01*
X11395657Y-14406552D01*
X11414705Y-14416076D01*
X11452800Y-14416076D01*
X11471848Y-14406552D01*
X11481371Y-14397028D01*
X11490895Y-14377981D01*
X11490895Y-14339886D01*
X11481371Y-14320838D01*
X11471848Y-14311314D01*
X11452800Y-14301790D01*
X11586133Y-14416076D02*
X11624228Y-14416076D01*
X11643276Y-14406552D01*
X11652800Y-14397028D01*
X11671848Y-14368457D01*
X11681371Y-14330362D01*
X11681371Y-14254171D01*
X11671848Y-14235124D01*
X11662324Y-14225600D01*
X11643276Y-14216076D01*
X11605181Y-14216076D01*
X11586133Y-14225600D01*
X11576609Y-14235124D01*
X11567086Y-14254171D01*
X11567086Y-14301790D01*
X11576609Y-14320838D01*
X11586133Y-14330362D01*
X11605181Y-14339886D01*
X11643276Y-14339886D01*
X11662324Y-14330362D01*
X11671848Y-14320838D01*
X11681371Y-14301790D01*
X11805181Y-14216076D02*
X11824228Y-14216076D01*
X11843276Y-14225600D01*
X11852800Y-14235124D01*
X11862324Y-14254171D01*
X11871848Y-14292267D01*
X11871848Y-14339886D01*
X11862324Y-14377981D01*
X11852800Y-14397028D01*
X11843276Y-14406552D01*
X11824228Y-14416076D01*
X11805181Y-14416076D01*
X11786133Y-14406552D01*
X11776609Y-14397028D01*
X11767086Y-14377981D01*
X11757562Y-14339886D01*
X11757562Y-14292267D01*
X11767086Y-14254171D01*
X11776609Y-14235124D01*
X11786133Y-14225600D01*
X11805181Y-14216076D01*
X11957562Y-14416076D02*
X11957562Y-14282743D01*
X11957562Y-14301790D02*
X11967086Y-14292267D01*
X11986133Y-14282743D01*
X12014705Y-14282743D01*
X12033752Y-14292267D01*
X12043276Y-14311314D01*
X12043276Y-14416076D01*
X12043276Y-14311314D02*
X12052800Y-14292267D01*
X12071848Y-14282743D01*
X12100419Y-14282743D01*
X12119467Y-14292267D01*
X12128990Y-14311314D01*
X12128990Y-14416076D01*
X12224228Y-14416076D02*
X12224228Y-14282743D01*
X12224228Y-14301790D02*
X12233752Y-14292267D01*
X12252800Y-14282743D01*
X12281371Y-14282743D01*
X12300419Y-14292267D01*
X12309943Y-14311314D01*
X12309943Y-14416076D01*
X12309943Y-14311314D02*
X12319467Y-14292267D01*
X12338514Y-14282743D01*
X12367086Y-14282743D01*
X12386133Y-14292267D01*
X12395657Y-14311314D01*
X12395657Y-14416076D01*
X12786133Y-14206552D02*
X12614705Y-14463695D01*
X13043276Y-14216076D02*
X13062324Y-14216076D01*
X13081371Y-14225600D01*
X13090895Y-14235124D01*
X13100419Y-14254171D01*
X13109943Y-14292267D01*
X13109943Y-14339886D01*
X13100419Y-14377981D01*
X13090895Y-14397028D01*
X13081371Y-14406552D01*
X13062324Y-14416076D01*
X13043276Y-14416076D01*
X13024228Y-14406552D01*
X13014705Y-14397028D01*
X13005181Y-14377981D01*
X12995657Y-14339886D01*
X12995657Y-14292267D01*
X13005181Y-14254171D01*
X13014705Y-14235124D01*
X13024228Y-14225600D01*
X13043276Y-14216076D01*
X13195657Y-14397028D02*
X13205181Y-14406552D01*
X13195657Y-14416076D01*
X13186133Y-14406552D01*
X13195657Y-14397028D01*
X13195657Y-14416076D01*
X13328990Y-14216076D02*
X13348038Y-14216076D01*
X13367086Y-14225600D01*
X13376609Y-14235124D01*
X13386133Y-14254171D01*
X13395657Y-14292267D01*
X13395657Y-14339886D01*
X13386133Y-14377981D01*
X13376609Y-14397028D01*
X13367086Y-14406552D01*
X13348038Y-14416076D01*
X13328990Y-14416076D01*
X13309943Y-14406552D01*
X13300419Y-14397028D01*
X13290895Y-14377981D01*
X13281371Y-14339886D01*
X13281371Y-14292267D01*
X13290895Y-14254171D01*
X13300419Y-14235124D01*
X13309943Y-14225600D01*
X13328990Y-14216076D01*
X13462324Y-14216076D02*
X13586133Y-14216076D01*
X13519467Y-14292267D01*
X13548038Y-14292267D01*
X13567086Y-14301790D01*
X13576609Y-14311314D01*
X13586133Y-14330362D01*
X13586133Y-14377981D01*
X13576609Y-14397028D01*
X13567086Y-14406552D01*
X13548038Y-14416076D01*
X13490895Y-14416076D01*
X13471848Y-14406552D01*
X13462324Y-14397028D01*
X13767086Y-14216076D02*
X13671848Y-14216076D01*
X13662324Y-14311314D01*
X13671848Y-14301790D01*
X13690895Y-14292267D01*
X13738514Y-14292267D01*
X13757562Y-14301790D01*
X13767086Y-14311314D01*
X13776609Y-14330362D01*
X13776609Y-14377981D01*
X13767086Y-14397028D01*
X13757562Y-14406552D01*
X13738514Y-14416076D01*
X13690895Y-14416076D01*
X13671848Y-14406552D01*
X13662324Y-14397028D01*
X13900419Y-14216076D02*
X13919467Y-14216076D01*
X13938514Y-14225600D01*
X13948038Y-14235124D01*
X13957562Y-14254171D01*
X13967086Y-14292267D01*
X13967086Y-14339886D01*
X13957562Y-14377981D01*
X13948038Y-14397028D01*
X13938514Y-14406552D01*
X13919467Y-14416076D01*
X13900419Y-14416076D01*
X13881371Y-14406552D01*
X13871848Y-14397028D01*
X13862324Y-14377981D01*
X13852800Y-14339886D01*
X13852800Y-14292267D01*
X13862324Y-14254171D01*
X13871848Y-14235124D01*
X13881371Y-14225600D01*
X13900419Y-14216076D01*
X14043276Y-14216076D02*
X14043276Y-14254171D01*
X14119467Y-14216076D02*
X14119467Y-14254171D01*
X14414705Y-14492267D02*
X14405181Y-14482743D01*
X14386133Y-14454171D01*
X14376609Y-14435124D01*
X14367086Y-14406552D01*
X14357562Y-14358933D01*
X14357562Y-14320838D01*
X14367086Y-14273219D01*
X14376609Y-14244648D01*
X14386133Y-14225600D01*
X14405181Y-14197028D01*
X14414705Y-14187505D01*
X14595657Y-14416076D02*
X14481371Y-14416076D01*
X14538514Y-14416076D02*
X14538514Y-14216076D01*
X14519467Y-14244648D01*
X14500419Y-14263695D01*
X14481371Y-14273219D01*
X14767086Y-14216076D02*
X14728990Y-14216076D01*
X14709943Y-14225600D01*
X14700419Y-14235124D01*
X14681371Y-14263695D01*
X14671848Y-14301790D01*
X14671848Y-14377981D01*
X14681371Y-14397028D01*
X14690895Y-14406552D01*
X14709943Y-14416076D01*
X14748038Y-14416076D01*
X14767086Y-14406552D01*
X14776609Y-14397028D01*
X14786133Y-14377981D01*
X14786133Y-14330362D01*
X14776609Y-14311314D01*
X14767086Y-14301790D01*
X14748038Y-14292267D01*
X14709943Y-14292267D01*
X14690895Y-14301790D01*
X14681371Y-14311314D01*
X14671848Y-14330362D01*
X15024228Y-14416076D02*
X15024228Y-14216076D01*
X15109943Y-14416076D02*
X15109943Y-14311314D01*
X15100419Y-14292267D01*
X15081371Y-14282743D01*
X15052800Y-14282743D01*
X15033752Y-14292267D01*
X15024228Y-14301790D01*
X15233752Y-14416076D02*
X15214705Y-14406552D01*
X15205181Y-14397028D01*
X15195657Y-14377981D01*
X15195657Y-14320838D01*
X15205181Y-14301790D01*
X15214705Y-14292267D01*
X15233752Y-14282743D01*
X15262324Y-14282743D01*
X15281371Y-14292267D01*
X15290895Y-14301790D01*
X15300419Y-14320838D01*
X15300419Y-14377981D01*
X15290895Y-14397028D01*
X15281371Y-14406552D01*
X15262324Y-14416076D01*
X15233752Y-14416076D01*
X15414705Y-14416076D02*
X15395657Y-14406552D01*
X15386133Y-14387505D01*
X15386133Y-14216076D01*
X15567086Y-14406552D02*
X15548038Y-14416076D01*
X15509943Y-14416076D01*
X15490895Y-14406552D01*
X15481371Y-14387505D01*
X15481371Y-14311314D01*
X15490895Y-14292267D01*
X15509943Y-14282743D01*
X15548038Y-14282743D01*
X15567086Y-14292267D01*
X15576609Y-14311314D01*
X15576609Y-14330362D01*
X15481371Y-14349409D01*
X15652800Y-14406552D02*
X15671848Y-14416076D01*
X15709943Y-14416076D01*
X15728990Y-14406552D01*
X15738514Y-14387505D01*
X15738514Y-14377981D01*
X15728990Y-14358933D01*
X15709943Y-14349409D01*
X15681371Y-14349409D01*
X15662324Y-14339886D01*
X15652800Y-14320838D01*
X15652800Y-14311314D01*
X15662324Y-14292267D01*
X15681371Y-14282743D01*
X15709943Y-14282743D01*
X15728990Y-14292267D01*
X15805181Y-14492267D02*
X15814705Y-14482743D01*
X15833752Y-14454171D01*
X15843276Y-14435124D01*
X15852800Y-14406552D01*
X15862324Y-14358933D01*
X15862324Y-14320838D01*
X15852800Y-14273219D01*
X15843276Y-14244648D01*
X15833752Y-14225600D01*
X15814705Y-14197028D01*
X15805181Y-14187505D01*
D16*
X10792800Y-14639600D02*
X10842800Y-14589600D01*
X10792800Y-14539600D01*
X10742800Y-14589600D01*
X10792800Y-14639600D01*
D11*
X11205181Y-14680076D02*
X11090895Y-14680076D01*
X11148038Y-14680076D02*
X11148038Y-14480076D01*
X11128990Y-14508648D01*
X11109943Y-14527695D01*
X11090895Y-14537219D01*
X11290895Y-14661028D02*
X11300419Y-14670552D01*
X11290895Y-14680076D01*
X11281371Y-14670552D01*
X11290895Y-14661028D01*
X11290895Y-14680076D01*
X11424228Y-14480076D02*
X11443276Y-14480076D01*
X11462324Y-14489600D01*
X11471848Y-14499124D01*
X11481371Y-14518171D01*
X11490895Y-14556267D01*
X11490895Y-14603886D01*
X11481371Y-14641981D01*
X11471848Y-14661028D01*
X11462324Y-14670552D01*
X11443276Y-14680076D01*
X11424228Y-14680076D01*
X11405181Y-14670552D01*
X11395657Y-14661028D01*
X11386133Y-14641981D01*
X11376609Y-14603886D01*
X11376609Y-14556267D01*
X11386133Y-14518171D01*
X11395657Y-14499124D01*
X11405181Y-14489600D01*
X11424228Y-14480076D01*
X11614705Y-14480076D02*
X11633752Y-14480076D01*
X11652800Y-14489600D01*
X11662324Y-14499124D01*
X11671848Y-14518171D01*
X11681371Y-14556267D01*
X11681371Y-14603886D01*
X11671848Y-14641981D01*
X11662324Y-14661028D01*
X11652800Y-14670552D01*
X11633752Y-14680076D01*
X11614705Y-14680076D01*
X11595657Y-14670552D01*
X11586133Y-14661028D01*
X11576609Y-14641981D01*
X11567086Y-14603886D01*
X11567086Y-14556267D01*
X11576609Y-14518171D01*
X11586133Y-14499124D01*
X11595657Y-14489600D01*
X11614705Y-14480076D01*
X11805181Y-14480076D02*
X11824228Y-14480076D01*
X11843276Y-14489600D01*
X11852800Y-14499124D01*
X11862324Y-14518171D01*
X11871848Y-14556267D01*
X11871848Y-14603886D01*
X11862324Y-14641981D01*
X11852800Y-14661028D01*
X11843276Y-14670552D01*
X11824228Y-14680076D01*
X11805181Y-14680076D01*
X11786133Y-14670552D01*
X11776609Y-14661028D01*
X11767086Y-14641981D01*
X11757562Y-14603886D01*
X11757562Y-14556267D01*
X11767086Y-14518171D01*
X11776609Y-14499124D01*
X11786133Y-14489600D01*
X11805181Y-14480076D01*
X11957562Y-14680076D02*
X11957562Y-14546743D01*
X11957562Y-14565790D02*
X11967086Y-14556267D01*
X11986133Y-14546743D01*
X12014705Y-14546743D01*
X12033752Y-14556267D01*
X12043276Y-14575314D01*
X12043276Y-14680076D01*
X12043276Y-14575314D02*
X12052800Y-14556267D01*
X12071848Y-14546743D01*
X12100419Y-14546743D01*
X12119467Y-14556267D01*
X12128990Y-14575314D01*
X12128990Y-14680076D01*
X12224228Y-14680076D02*
X12224228Y-14546743D01*
X12224228Y-14565790D02*
X12233752Y-14556267D01*
X12252800Y-14546743D01*
X12281371Y-14546743D01*
X12300419Y-14556267D01*
X12309943Y-14575314D01*
X12309943Y-14680076D01*
X12309943Y-14575314D02*
X12319467Y-14556267D01*
X12338514Y-14546743D01*
X12367086Y-14546743D01*
X12386133Y-14556267D01*
X12395657Y-14575314D01*
X12395657Y-14680076D01*
X12786133Y-14470552D02*
X12614705Y-14727695D01*
X13043276Y-14480076D02*
X13062324Y-14480076D01*
X13081371Y-14489600D01*
X13090895Y-14499124D01*
X13100419Y-14518171D01*
X13109943Y-14556267D01*
X13109943Y-14603886D01*
X13100419Y-14641981D01*
X13090895Y-14661028D01*
X13081371Y-14670552D01*
X13062324Y-14680076D01*
X13043276Y-14680076D01*
X13024228Y-14670552D01*
X13014705Y-14661028D01*
X13005181Y-14641981D01*
X12995657Y-14603886D01*
X12995657Y-14556267D01*
X13005181Y-14518171D01*
X13014705Y-14499124D01*
X13024228Y-14489600D01*
X13043276Y-14480076D01*
X13195657Y-14661028D02*
X13205181Y-14670552D01*
X13195657Y-14680076D01*
X13186133Y-14670552D01*
X13195657Y-14661028D01*
X13195657Y-14680076D01*
X13328990Y-14480076D02*
X13348038Y-14480076D01*
X13367086Y-14489600D01*
X13376609Y-14499124D01*
X13386133Y-14518171D01*
X13395657Y-14556267D01*
X13395657Y-14603886D01*
X13386133Y-14641981D01*
X13376609Y-14661028D01*
X13367086Y-14670552D01*
X13348038Y-14680076D01*
X13328990Y-14680076D01*
X13309943Y-14670552D01*
X13300419Y-14661028D01*
X13290895Y-14641981D01*
X13281371Y-14603886D01*
X13281371Y-14556267D01*
X13290895Y-14518171D01*
X13300419Y-14499124D01*
X13309943Y-14489600D01*
X13328990Y-14480076D01*
X13462324Y-14480076D02*
X13586133Y-14480076D01*
X13519467Y-14556267D01*
X13548038Y-14556267D01*
X13567086Y-14565790D01*
X13576609Y-14575314D01*
X13586133Y-14594362D01*
X13586133Y-14641981D01*
X13576609Y-14661028D01*
X13567086Y-14670552D01*
X13548038Y-14680076D01*
X13490895Y-14680076D01*
X13471848Y-14670552D01*
X13462324Y-14661028D01*
X13681371Y-14680076D02*
X13719467Y-14680076D01*
X13738514Y-14670552D01*
X13748038Y-14661028D01*
X13767086Y-14632457D01*
X13776609Y-14594362D01*
X13776609Y-14518171D01*
X13767086Y-14499124D01*
X13757562Y-14489600D01*
X13738514Y-14480076D01*
X13700419Y-14480076D01*
X13681371Y-14489600D01*
X13671848Y-14499124D01*
X13662324Y-14518171D01*
X13662324Y-14565790D01*
X13671848Y-14584838D01*
X13681371Y-14594362D01*
X13700419Y-14603886D01*
X13738514Y-14603886D01*
X13757562Y-14594362D01*
X13767086Y-14584838D01*
X13776609Y-14565790D01*
X13948038Y-14546743D02*
X13948038Y-14680076D01*
X13900419Y-14470552D02*
X13852800Y-14613409D01*
X13976609Y-14613409D01*
X14043276Y-14480076D02*
X14043276Y-14518171D01*
X14119467Y-14480076D02*
X14119467Y-14518171D01*
X14414705Y-14756267D02*
X14405181Y-14746743D01*
X14386133Y-14718171D01*
X14376609Y-14699124D01*
X14367086Y-14670552D01*
X14357562Y-14622933D01*
X14357562Y-14584838D01*
X14367086Y-14537219D01*
X14376609Y-14508648D01*
X14386133Y-14489600D01*
X14405181Y-14461028D01*
X14414705Y-14451505D01*
X14576609Y-14546743D02*
X14576609Y-14680076D01*
X14528990Y-14470552D02*
X14481371Y-14613409D01*
X14605181Y-14613409D01*
X14709943Y-14565790D02*
X14690895Y-14556267D01*
X14681371Y-14546743D01*
X14671848Y-14527695D01*
X14671848Y-14518171D01*
X14681371Y-14499124D01*
X14690895Y-14489600D01*
X14709943Y-14480076D01*
X14748038Y-14480076D01*
X14767086Y-14489600D01*
X14776609Y-14499124D01*
X14786133Y-14518171D01*
X14786133Y-14527695D01*
X14776609Y-14546743D01*
X14767086Y-14556267D01*
X14748038Y-14565790D01*
X14709943Y-14565790D01*
X14690895Y-14575314D01*
X14681371Y-14584838D01*
X14671848Y-14603886D01*
X14671848Y-14641981D01*
X14681371Y-14661028D01*
X14690895Y-14670552D01*
X14709943Y-14680076D01*
X14748038Y-14680076D01*
X14767086Y-14670552D01*
X14776609Y-14661028D01*
X14786133Y-14641981D01*
X14786133Y-14603886D01*
X14776609Y-14584838D01*
X14767086Y-14575314D01*
X14748038Y-14565790D01*
X15024228Y-14680076D02*
X15024228Y-14480076D01*
X15109943Y-14680076D02*
X15109943Y-14575314D01*
X15100419Y-14556267D01*
X15081371Y-14546743D01*
X15052800Y-14546743D01*
X15033752Y-14556267D01*
X15024228Y-14565790D01*
X15233752Y-14680076D02*
X15214705Y-14670552D01*
X15205181Y-14661028D01*
X15195657Y-14641981D01*
X15195657Y-14584838D01*
X15205181Y-14565790D01*
X15214705Y-14556267D01*
X15233752Y-14546743D01*
X15262324Y-14546743D01*
X15281371Y-14556267D01*
X15290895Y-14565790D01*
X15300419Y-14584838D01*
X15300419Y-14641981D01*
X15290895Y-14661028D01*
X15281371Y-14670552D01*
X15262324Y-14680076D01*
X15233752Y-14680076D01*
X15414705Y-14680076D02*
X15395657Y-14670552D01*
X15386133Y-14651505D01*
X15386133Y-14480076D01*
X15567086Y-14670552D02*
X15548038Y-14680076D01*
X15509943Y-14680076D01*
X15490895Y-14670552D01*
X15481371Y-14651505D01*
X15481371Y-14575314D01*
X15490895Y-14556267D01*
X15509943Y-14546743D01*
X15548038Y-14546743D01*
X15567086Y-14556267D01*
X15576609Y-14575314D01*
X15576609Y-14594362D01*
X15481371Y-14613409D01*
X15652800Y-14670552D02*
X15671848Y-14680076D01*
X15709943Y-14680076D01*
X15728990Y-14670552D01*
X15738514Y-14651505D01*
X15738514Y-14641981D01*
X15728990Y-14622933D01*
X15709943Y-14613409D01*
X15681371Y-14613409D01*
X15662324Y-14603886D01*
X15652800Y-14584838D01*
X15652800Y-14575314D01*
X15662324Y-14556267D01*
X15681371Y-14546743D01*
X15709943Y-14546743D01*
X15728990Y-14556267D01*
X15805181Y-14756267D02*
X15814705Y-14746743D01*
X15833752Y-14718171D01*
X15843276Y-14699124D01*
X15852800Y-14670552D01*
X15862324Y-14622933D01*
X15862324Y-14584838D01*
X15852800Y-14537219D01*
X15843276Y-14508648D01*
X15833752Y-14489600D01*
X15814705Y-14461028D01*
X15805181Y-14451505D01*
D17*
X10723800Y-14794100D02*
X10842800Y-14913100D01*
X10842800Y-14794100D02*
X10723800Y-14913100D01*
X10842800Y-14853600D02*
G75*
G03*
X10842800Y-14853600I-59500J0D01*
G01*
D11*
X11205181Y-14944076D02*
X11090895Y-14944076D01*
X11148038Y-14944076D02*
X11148038Y-14744076D01*
X11128990Y-14772648D01*
X11109943Y-14791695D01*
X11090895Y-14801219D01*
X11290895Y-14925028D02*
X11300419Y-14934552D01*
X11290895Y-14944076D01*
X11281371Y-14934552D01*
X11290895Y-14925028D01*
X11290895Y-14944076D01*
X11490895Y-14944076D02*
X11376609Y-14944076D01*
X11433752Y-14944076D02*
X11433752Y-14744076D01*
X11414705Y-14772648D01*
X11395657Y-14791695D01*
X11376609Y-14801219D01*
X11586133Y-14944076D02*
X11624228Y-14944076D01*
X11643276Y-14934552D01*
X11652800Y-14925028D01*
X11671848Y-14896457D01*
X11681371Y-14858362D01*
X11681371Y-14782171D01*
X11671848Y-14763124D01*
X11662324Y-14753600D01*
X11643276Y-14744076D01*
X11605181Y-14744076D01*
X11586133Y-14753600D01*
X11576609Y-14763124D01*
X11567086Y-14782171D01*
X11567086Y-14829790D01*
X11576609Y-14848838D01*
X11586133Y-14858362D01*
X11605181Y-14867886D01*
X11643276Y-14867886D01*
X11662324Y-14858362D01*
X11671848Y-14848838D01*
X11681371Y-14829790D01*
X11805181Y-14744076D02*
X11824228Y-14744076D01*
X11843276Y-14753600D01*
X11852800Y-14763124D01*
X11862324Y-14782171D01*
X11871848Y-14820267D01*
X11871848Y-14867886D01*
X11862324Y-14905981D01*
X11852800Y-14925028D01*
X11843276Y-14934552D01*
X11824228Y-14944076D01*
X11805181Y-14944076D01*
X11786133Y-14934552D01*
X11776609Y-14925028D01*
X11767086Y-14905981D01*
X11757562Y-14867886D01*
X11757562Y-14820267D01*
X11767086Y-14782171D01*
X11776609Y-14763124D01*
X11786133Y-14753600D01*
X11805181Y-14744076D01*
X11957562Y-14944076D02*
X11957562Y-14810743D01*
X11957562Y-14829790D02*
X11967086Y-14820267D01*
X11986133Y-14810743D01*
X12014705Y-14810743D01*
X12033752Y-14820267D01*
X12043276Y-14839314D01*
X12043276Y-14944076D01*
X12043276Y-14839314D02*
X12052800Y-14820267D01*
X12071848Y-14810743D01*
X12100419Y-14810743D01*
X12119467Y-14820267D01*
X12128990Y-14839314D01*
X12128990Y-14944076D01*
X12224228Y-14944076D02*
X12224228Y-14810743D01*
X12224228Y-14829790D02*
X12233752Y-14820267D01*
X12252800Y-14810743D01*
X12281371Y-14810743D01*
X12300419Y-14820267D01*
X12309943Y-14839314D01*
X12309943Y-14944076D01*
X12309943Y-14839314D02*
X12319467Y-14820267D01*
X12338514Y-14810743D01*
X12367086Y-14810743D01*
X12386133Y-14820267D01*
X12395657Y-14839314D01*
X12395657Y-14944076D01*
X12786133Y-14734552D02*
X12614705Y-14991695D01*
X13043276Y-14744076D02*
X13062324Y-14744076D01*
X13081371Y-14753600D01*
X13090895Y-14763124D01*
X13100419Y-14782171D01*
X13109943Y-14820267D01*
X13109943Y-14867886D01*
X13100419Y-14905981D01*
X13090895Y-14925028D01*
X13081371Y-14934552D01*
X13062324Y-14944076D01*
X13043276Y-14944076D01*
X13024228Y-14934552D01*
X13014705Y-14925028D01*
X13005181Y-14905981D01*
X12995657Y-14867886D01*
X12995657Y-14820267D01*
X13005181Y-14782171D01*
X13014705Y-14763124D01*
X13024228Y-14753600D01*
X13043276Y-14744076D01*
X13195657Y-14925028D02*
X13205181Y-14934552D01*
X13195657Y-14944076D01*
X13186133Y-14934552D01*
X13195657Y-14925028D01*
X13195657Y-14944076D01*
X13328990Y-14744076D02*
X13348038Y-14744076D01*
X13367086Y-14753600D01*
X13376609Y-14763124D01*
X13386133Y-14782171D01*
X13395657Y-14820267D01*
X13395657Y-14867886D01*
X13386133Y-14905981D01*
X13376609Y-14925028D01*
X13367086Y-14934552D01*
X13348038Y-14944076D01*
X13328990Y-14944076D01*
X13309943Y-14934552D01*
X13300419Y-14925028D01*
X13290895Y-14905981D01*
X13281371Y-14867886D01*
X13281371Y-14820267D01*
X13290895Y-14782171D01*
X13300419Y-14763124D01*
X13309943Y-14753600D01*
X13328990Y-14744076D01*
X13567086Y-14810743D02*
X13567086Y-14944076D01*
X13519467Y-14734552D02*
X13471848Y-14877409D01*
X13595657Y-14877409D01*
X13757562Y-14744076D02*
X13719467Y-14744076D01*
X13700419Y-14753600D01*
X13690895Y-14763124D01*
X13671848Y-14791695D01*
X13662324Y-14829790D01*
X13662324Y-14905981D01*
X13671848Y-14925028D01*
X13681371Y-14934552D01*
X13700419Y-14944076D01*
X13738514Y-14944076D01*
X13757562Y-14934552D01*
X13767086Y-14925028D01*
X13776609Y-14905981D01*
X13776609Y-14858362D01*
X13767086Y-14839314D01*
X13757562Y-14829790D01*
X13738514Y-14820267D01*
X13700419Y-14820267D01*
X13681371Y-14829790D01*
X13671848Y-14839314D01*
X13662324Y-14858362D01*
X13871848Y-14944076D02*
X13909943Y-14944076D01*
X13928990Y-14934552D01*
X13938514Y-14925028D01*
X13957562Y-14896457D01*
X13967086Y-14858362D01*
X13967086Y-14782171D01*
X13957562Y-14763124D01*
X13948038Y-14753600D01*
X13928990Y-14744076D01*
X13890895Y-14744076D01*
X13871848Y-14753600D01*
X13862324Y-14763124D01*
X13852800Y-14782171D01*
X13852800Y-14829790D01*
X13862324Y-14848838D01*
X13871848Y-14858362D01*
X13890895Y-14867886D01*
X13928990Y-14867886D01*
X13948038Y-14858362D01*
X13957562Y-14848838D01*
X13967086Y-14829790D01*
X14043276Y-14744076D02*
X14043276Y-14782171D01*
X14119467Y-14744076D02*
X14119467Y-14782171D01*
X14414705Y-15020267D02*
X14405181Y-15010743D01*
X14386133Y-14982171D01*
X14376609Y-14963124D01*
X14367086Y-14934552D01*
X14357562Y-14886933D01*
X14357562Y-14848838D01*
X14367086Y-14801219D01*
X14376609Y-14772648D01*
X14386133Y-14753600D01*
X14405181Y-14725028D01*
X14414705Y-14715505D01*
X14519467Y-14829790D02*
X14500419Y-14820267D01*
X14490895Y-14810743D01*
X14481371Y-14791695D01*
X14481371Y-14782171D01*
X14490895Y-14763124D01*
X14500419Y-14753600D01*
X14519467Y-14744076D01*
X14557562Y-14744076D01*
X14576609Y-14753600D01*
X14586133Y-14763124D01*
X14595657Y-14782171D01*
X14595657Y-14791695D01*
X14586133Y-14810743D01*
X14576609Y-14820267D01*
X14557562Y-14829790D01*
X14519467Y-14829790D01*
X14500419Y-14839314D01*
X14490895Y-14848838D01*
X14481371Y-14867886D01*
X14481371Y-14905981D01*
X14490895Y-14925028D01*
X14500419Y-14934552D01*
X14519467Y-14944076D01*
X14557562Y-14944076D01*
X14576609Y-14934552D01*
X14586133Y-14925028D01*
X14595657Y-14905981D01*
X14595657Y-14867886D01*
X14586133Y-14848838D01*
X14576609Y-14839314D01*
X14557562Y-14829790D01*
X14833752Y-14944076D02*
X14833752Y-14744076D01*
X14919467Y-14944076D02*
X14919467Y-14839314D01*
X14909943Y-14820267D01*
X14890895Y-14810743D01*
X14862324Y-14810743D01*
X14843276Y-14820267D01*
X14833752Y-14829790D01*
X15043276Y-14944076D02*
X15024228Y-14934552D01*
X15014705Y-14925028D01*
X15005181Y-14905981D01*
X15005181Y-14848838D01*
X15014705Y-14829790D01*
X15024228Y-14820267D01*
X15043276Y-14810743D01*
X15071848Y-14810743D01*
X15090895Y-14820267D01*
X15100419Y-14829790D01*
X15109943Y-14848838D01*
X15109943Y-14905981D01*
X15100419Y-14925028D01*
X15090895Y-14934552D01*
X15071848Y-14944076D01*
X15043276Y-14944076D01*
X15224228Y-14944076D02*
X15205181Y-14934552D01*
X15195657Y-14915505D01*
X15195657Y-14744076D01*
X15376609Y-14934552D02*
X15357562Y-14944076D01*
X15319467Y-14944076D01*
X15300419Y-14934552D01*
X15290895Y-14915505D01*
X15290895Y-14839314D01*
X15300419Y-14820267D01*
X15319467Y-14810743D01*
X15357562Y-14810743D01*
X15376609Y-14820267D01*
X15386133Y-14839314D01*
X15386133Y-14858362D01*
X15290895Y-14877409D01*
X15462324Y-14934552D02*
X15481371Y-14944076D01*
X15519467Y-14944076D01*
X15538514Y-14934552D01*
X15548038Y-14915505D01*
X15548038Y-14905981D01*
X15538514Y-14886933D01*
X15519467Y-14877409D01*
X15490895Y-14877409D01*
X15471848Y-14867886D01*
X15462324Y-14848838D01*
X15462324Y-14839314D01*
X15471848Y-14820267D01*
X15490895Y-14810743D01*
X15519467Y-14810743D01*
X15538514Y-14820267D01*
X15614705Y-15020267D02*
X15624228Y-15010743D01*
X15643276Y-14982171D01*
X15652800Y-14963124D01*
X15662324Y-14934552D01*
X15671848Y-14886933D01*
X15671848Y-14848838D01*
X15662324Y-14801219D01*
X15652800Y-14772648D01*
X15643276Y-14753600D01*
X15624228Y-14725028D01*
X15614705Y-14715505D01*
D18*
X10685800Y-15039100D02*
X10842800Y-15196100D01*
X10842800Y-15039100D02*
X10685800Y-15196100D01*
X10764300Y-15039100D02*
X10764300Y-15196100D01*
X10685800Y-15117600D02*
X10842800Y-15117600D01*
D11*
X11205181Y-15208076D02*
X11090895Y-15208076D01*
X11148038Y-15208076D02*
X11148038Y-15008076D01*
X11128990Y-15036648D01*
X11109943Y-15055695D01*
X11090895Y-15065219D01*
X11290895Y-15189028D02*
X11300419Y-15198552D01*
X11290895Y-15208076D01*
X11281371Y-15198552D01*
X11290895Y-15189028D01*
X11290895Y-15208076D01*
X11481371Y-15008076D02*
X11386133Y-15008076D01*
X11376609Y-15103314D01*
X11386133Y-15093790D01*
X11405181Y-15084267D01*
X11452800Y-15084267D01*
X11471848Y-15093790D01*
X11481371Y-15103314D01*
X11490895Y-15122362D01*
X11490895Y-15169981D01*
X11481371Y-15189028D01*
X11471848Y-15198552D01*
X11452800Y-15208076D01*
X11405181Y-15208076D01*
X11386133Y-15198552D01*
X11376609Y-15189028D01*
X11557562Y-15008076D02*
X11690895Y-15008076D01*
X11605181Y-15208076D01*
X11805181Y-15008076D02*
X11824228Y-15008076D01*
X11843276Y-15017600D01*
X11852800Y-15027124D01*
X11862324Y-15046171D01*
X11871848Y-15084267D01*
X11871848Y-15131886D01*
X11862324Y-15169981D01*
X11852800Y-15189028D01*
X11843276Y-15198552D01*
X11824228Y-15208076D01*
X11805181Y-15208076D01*
X11786133Y-15198552D01*
X11776609Y-15189028D01*
X11767086Y-15169981D01*
X11757562Y-15131886D01*
X11757562Y-15084267D01*
X11767086Y-15046171D01*
X11776609Y-15027124D01*
X11786133Y-15017600D01*
X11805181Y-15008076D01*
X11957562Y-15208076D02*
X11957562Y-15074743D01*
X11957562Y-15093790D02*
X11967086Y-15084267D01*
X11986133Y-15074743D01*
X12014705Y-15074743D01*
X12033752Y-15084267D01*
X12043276Y-15103314D01*
X12043276Y-15208076D01*
X12043276Y-15103314D02*
X12052800Y-15084267D01*
X12071848Y-15074743D01*
X12100419Y-15074743D01*
X12119467Y-15084267D01*
X12128990Y-15103314D01*
X12128990Y-15208076D01*
X12224228Y-15208076D02*
X12224228Y-15074743D01*
X12224228Y-15093790D02*
X12233752Y-15084267D01*
X12252800Y-15074743D01*
X12281371Y-15074743D01*
X12300419Y-15084267D01*
X12309943Y-15103314D01*
X12309943Y-15208076D01*
X12309943Y-15103314D02*
X12319467Y-15084267D01*
X12338514Y-15074743D01*
X12367086Y-15074743D01*
X12386133Y-15084267D01*
X12395657Y-15103314D01*
X12395657Y-15208076D01*
X12786133Y-14998552D02*
X12614705Y-15255695D01*
X13043276Y-15008076D02*
X13062324Y-15008076D01*
X13081371Y-15017600D01*
X13090895Y-15027124D01*
X13100419Y-15046171D01*
X13109943Y-15084267D01*
X13109943Y-15131886D01*
X13100419Y-15169981D01*
X13090895Y-15189028D01*
X13081371Y-15198552D01*
X13062324Y-15208076D01*
X13043276Y-15208076D01*
X13024228Y-15198552D01*
X13014705Y-15189028D01*
X13005181Y-15169981D01*
X12995657Y-15131886D01*
X12995657Y-15084267D01*
X13005181Y-15046171D01*
X13014705Y-15027124D01*
X13024228Y-15017600D01*
X13043276Y-15008076D01*
X13195657Y-15189028D02*
X13205181Y-15198552D01*
X13195657Y-15208076D01*
X13186133Y-15198552D01*
X13195657Y-15189028D01*
X13195657Y-15208076D01*
X13328990Y-15008076D02*
X13348038Y-15008076D01*
X13367086Y-15017600D01*
X13376609Y-15027124D01*
X13386133Y-15046171D01*
X13395657Y-15084267D01*
X13395657Y-15131886D01*
X13386133Y-15169981D01*
X13376609Y-15189028D01*
X13367086Y-15198552D01*
X13348038Y-15208076D01*
X13328990Y-15208076D01*
X13309943Y-15198552D01*
X13300419Y-15189028D01*
X13290895Y-15169981D01*
X13281371Y-15131886D01*
X13281371Y-15084267D01*
X13290895Y-15046171D01*
X13300419Y-15027124D01*
X13309943Y-15017600D01*
X13328990Y-15008076D01*
X13567086Y-15008076D02*
X13528990Y-15008076D01*
X13509943Y-15017600D01*
X13500419Y-15027124D01*
X13481371Y-15055695D01*
X13471848Y-15093790D01*
X13471848Y-15169981D01*
X13481371Y-15189028D01*
X13490895Y-15198552D01*
X13509943Y-15208076D01*
X13548038Y-15208076D01*
X13567086Y-15198552D01*
X13576609Y-15189028D01*
X13586133Y-15169981D01*
X13586133Y-15122362D01*
X13576609Y-15103314D01*
X13567086Y-15093790D01*
X13548038Y-15084267D01*
X13509943Y-15084267D01*
X13490895Y-15093790D01*
X13481371Y-15103314D01*
X13471848Y-15122362D01*
X13776609Y-15208076D02*
X13662324Y-15208076D01*
X13719467Y-15208076D02*
X13719467Y-15008076D01*
X13700419Y-15036648D01*
X13681371Y-15055695D01*
X13662324Y-15065219D01*
X13890895Y-15093790D02*
X13871848Y-15084267D01*
X13862324Y-15074743D01*
X13852800Y-15055695D01*
X13852800Y-15046171D01*
X13862324Y-15027124D01*
X13871848Y-15017600D01*
X13890895Y-15008076D01*
X13928990Y-15008076D01*
X13948038Y-15017600D01*
X13957562Y-15027124D01*
X13967086Y-15046171D01*
X13967086Y-15055695D01*
X13957562Y-15074743D01*
X13948038Y-15084267D01*
X13928990Y-15093790D01*
X13890895Y-15093790D01*
X13871848Y-15103314D01*
X13862324Y-15112838D01*
X13852800Y-15131886D01*
X13852800Y-15169981D01*
X13862324Y-15189028D01*
X13871848Y-15198552D01*
X13890895Y-15208076D01*
X13928990Y-15208076D01*
X13948038Y-15198552D01*
X13957562Y-15189028D01*
X13967086Y-15169981D01*
X13967086Y-15131886D01*
X13957562Y-15112838D01*
X13948038Y-15103314D01*
X13928990Y-15093790D01*
X14043276Y-15008076D02*
X14043276Y-15046171D01*
X14119467Y-15008076D02*
X14119467Y-15046171D01*
X14414705Y-15284267D02*
X14405181Y-15274743D01*
X14386133Y-15246171D01*
X14376609Y-15227124D01*
X14367086Y-15198552D01*
X14357562Y-15150933D01*
X14357562Y-15112838D01*
X14367086Y-15065219D01*
X14376609Y-15036648D01*
X14386133Y-15017600D01*
X14405181Y-14989028D01*
X14414705Y-14979505D01*
X14576609Y-15074743D02*
X14576609Y-15208076D01*
X14528990Y-14998552D02*
X14481371Y-15141409D01*
X14605181Y-15141409D01*
X14833752Y-15208076D02*
X14833752Y-15008076D01*
X14919467Y-15208076D02*
X14919467Y-15103314D01*
X14909943Y-15084267D01*
X14890895Y-15074743D01*
X14862324Y-15074743D01*
X14843276Y-15084267D01*
X14833752Y-15093790D01*
X15043276Y-15208076D02*
X15024228Y-15198552D01*
X15014705Y-15189028D01*
X15005181Y-15169981D01*
X15005181Y-15112838D01*
X15014705Y-15093790D01*
X15024228Y-15084267D01*
X15043276Y-15074743D01*
X15071848Y-15074743D01*
X15090895Y-15084267D01*
X15100419Y-15093790D01*
X15109943Y-15112838D01*
X15109943Y-15169981D01*
X15100419Y-15189028D01*
X15090895Y-15198552D01*
X15071848Y-15208076D01*
X15043276Y-15208076D01*
X15224228Y-15208076D02*
X15205181Y-15198552D01*
X15195657Y-15179505D01*
X15195657Y-15008076D01*
X15376609Y-15198552D02*
X15357562Y-15208076D01*
X15319467Y-15208076D01*
X15300419Y-15198552D01*
X15290895Y-15179505D01*
X15290895Y-15103314D01*
X15300419Y-15084267D01*
X15319467Y-15074743D01*
X15357562Y-15074743D01*
X15376609Y-15084267D01*
X15386133Y-15103314D01*
X15386133Y-15122362D01*
X15290895Y-15141409D01*
X15462324Y-15198552D02*
X15481371Y-15208076D01*
X15519467Y-15208076D01*
X15538514Y-15198552D01*
X15548038Y-15179505D01*
X15548038Y-15169981D01*
X15538514Y-15150933D01*
X15519467Y-15141409D01*
X15490895Y-15141409D01*
X15471848Y-15131886D01*
X15462324Y-15112838D01*
X15462324Y-15103314D01*
X15471848Y-15084267D01*
X15490895Y-15074743D01*
X15519467Y-15074743D01*
X15538514Y-15084267D01*
X15614705Y-15284267D02*
X15624228Y-15274743D01*
X15643276Y-15246171D01*
X15652800Y-15227124D01*
X15662324Y-15198552D01*
X15671848Y-15150933D01*
X15671848Y-15112838D01*
X15662324Y-15065219D01*
X15652800Y-15036648D01*
X15643276Y-15017600D01*
X15624228Y-14989028D01*
X15614705Y-14979505D01*
D19*
X10677700Y-15312050D02*
X10842800Y-15477150D01*
X10842800Y-15312050D02*
X10677700Y-15477150D01*
X10818622Y-15452972D02*
X10818622Y-15336228D01*
X10701878Y-15336228D01*
X10701878Y-15452972D01*
X10818622Y-15452972D01*
D11*
X11205181Y-15485076D02*
X11090895Y-15485076D01*
X11148038Y-15485076D02*
X11148038Y-15285076D01*
X11128990Y-15313648D01*
X11109943Y-15332695D01*
X11090895Y-15342219D01*
X11290895Y-15466028D02*
X11300419Y-15475552D01*
X11290895Y-15485076D01*
X11281371Y-15475552D01*
X11290895Y-15466028D01*
X11290895Y-15485076D01*
X11471848Y-15285076D02*
X11433752Y-15285076D01*
X11414705Y-15294600D01*
X11405181Y-15304124D01*
X11386133Y-15332695D01*
X11376609Y-15370790D01*
X11376609Y-15446981D01*
X11386133Y-15466028D01*
X11395657Y-15475552D01*
X11414705Y-15485076D01*
X11452800Y-15485076D01*
X11471848Y-15475552D01*
X11481371Y-15466028D01*
X11490895Y-15446981D01*
X11490895Y-15399362D01*
X11481371Y-15380314D01*
X11471848Y-15370790D01*
X11452800Y-15361267D01*
X11414705Y-15361267D01*
X11395657Y-15370790D01*
X11386133Y-15380314D01*
X11376609Y-15399362D01*
X11671848Y-15285076D02*
X11576609Y-15285076D01*
X11567086Y-15380314D01*
X11576609Y-15370790D01*
X11595657Y-15361267D01*
X11643276Y-15361267D01*
X11662324Y-15370790D01*
X11671848Y-15380314D01*
X11681371Y-15399362D01*
X11681371Y-15446981D01*
X11671848Y-15466028D01*
X11662324Y-15475552D01*
X11643276Y-15485076D01*
X11595657Y-15485076D01*
X11576609Y-15475552D01*
X11567086Y-15466028D01*
X11871848Y-15485076D02*
X11757562Y-15485076D01*
X11814705Y-15485076D02*
X11814705Y-15285076D01*
X11795657Y-15313648D01*
X11776609Y-15332695D01*
X11757562Y-15342219D01*
X11957562Y-15485076D02*
X11957562Y-15351743D01*
X11957562Y-15370790D02*
X11967086Y-15361267D01*
X11986133Y-15351743D01*
X12014705Y-15351743D01*
X12033752Y-15361267D01*
X12043276Y-15380314D01*
X12043276Y-15485076D01*
X12043276Y-15380314D02*
X12052800Y-15361267D01*
X12071848Y-15351743D01*
X12100419Y-15351743D01*
X12119467Y-15361267D01*
X12128990Y-15380314D01*
X12128990Y-15485076D01*
X12224228Y-15485076D02*
X12224228Y-15351743D01*
X12224228Y-15370790D02*
X12233752Y-15361267D01*
X12252800Y-15351743D01*
X12281371Y-15351743D01*
X12300419Y-15361267D01*
X12309943Y-15380314D01*
X12309943Y-15485076D01*
X12309943Y-15380314D02*
X12319467Y-15361267D01*
X12338514Y-15351743D01*
X12367086Y-15351743D01*
X12386133Y-15361267D01*
X12395657Y-15380314D01*
X12395657Y-15485076D01*
X12786133Y-15275552D02*
X12614705Y-15532695D01*
X13043276Y-15285076D02*
X13062324Y-15285076D01*
X13081371Y-15294600D01*
X13090895Y-15304124D01*
X13100419Y-15323171D01*
X13109943Y-15361267D01*
X13109943Y-15408886D01*
X13100419Y-15446981D01*
X13090895Y-15466028D01*
X13081371Y-15475552D01*
X13062324Y-15485076D01*
X13043276Y-15485076D01*
X13024228Y-15475552D01*
X13014705Y-15466028D01*
X13005181Y-15446981D01*
X12995657Y-15408886D01*
X12995657Y-15361267D01*
X13005181Y-15323171D01*
X13014705Y-15304124D01*
X13024228Y-15294600D01*
X13043276Y-15285076D01*
X13195657Y-15466028D02*
X13205181Y-15475552D01*
X13195657Y-15485076D01*
X13186133Y-15475552D01*
X13195657Y-15466028D01*
X13195657Y-15485076D01*
X13328990Y-15285076D02*
X13348038Y-15285076D01*
X13367086Y-15294600D01*
X13376609Y-15304124D01*
X13386133Y-15323171D01*
X13395657Y-15361267D01*
X13395657Y-15408886D01*
X13386133Y-15446981D01*
X13376609Y-15466028D01*
X13367086Y-15475552D01*
X13348038Y-15485076D01*
X13328990Y-15485076D01*
X13309943Y-15475552D01*
X13300419Y-15466028D01*
X13290895Y-15446981D01*
X13281371Y-15408886D01*
X13281371Y-15361267D01*
X13290895Y-15323171D01*
X13300419Y-15304124D01*
X13309943Y-15294600D01*
X13328990Y-15285076D01*
X13567086Y-15285076D02*
X13528990Y-15285076D01*
X13509943Y-15294600D01*
X13500419Y-15304124D01*
X13481371Y-15332695D01*
X13471848Y-15370790D01*
X13471848Y-15446981D01*
X13481371Y-15466028D01*
X13490895Y-15475552D01*
X13509943Y-15485076D01*
X13548038Y-15485076D01*
X13567086Y-15475552D01*
X13576609Y-15466028D01*
X13586133Y-15446981D01*
X13586133Y-15399362D01*
X13576609Y-15380314D01*
X13567086Y-15370790D01*
X13548038Y-15361267D01*
X13509943Y-15361267D01*
X13490895Y-15370790D01*
X13481371Y-15380314D01*
X13471848Y-15399362D01*
X13767086Y-15285076D02*
X13671848Y-15285076D01*
X13662324Y-15380314D01*
X13671848Y-15370790D01*
X13690895Y-15361267D01*
X13738514Y-15361267D01*
X13757562Y-15370790D01*
X13767086Y-15380314D01*
X13776609Y-15399362D01*
X13776609Y-15446981D01*
X13767086Y-15466028D01*
X13757562Y-15475552D01*
X13738514Y-15485076D01*
X13690895Y-15485076D01*
X13671848Y-15475552D01*
X13662324Y-15466028D01*
X13900419Y-15285076D02*
X13919467Y-15285076D01*
X13938514Y-15294600D01*
X13948038Y-15304124D01*
X13957562Y-15323171D01*
X13967086Y-15361267D01*
X13967086Y-15408886D01*
X13957562Y-15446981D01*
X13948038Y-15466028D01*
X13938514Y-15475552D01*
X13919467Y-15485076D01*
X13900419Y-15485076D01*
X13881371Y-15475552D01*
X13871848Y-15466028D01*
X13862324Y-15446981D01*
X13852800Y-15408886D01*
X13852800Y-15361267D01*
X13862324Y-15323171D01*
X13871848Y-15304124D01*
X13881371Y-15294600D01*
X13900419Y-15285076D01*
X14043276Y-15285076D02*
X14043276Y-15323171D01*
X14119467Y-15285076D02*
X14119467Y-15323171D01*
X14414705Y-15561267D02*
X14405181Y-15551743D01*
X14386133Y-15523171D01*
X14376609Y-15504124D01*
X14367086Y-15475552D01*
X14357562Y-15427933D01*
X14357562Y-15389838D01*
X14367086Y-15342219D01*
X14376609Y-15313648D01*
X14386133Y-15294600D01*
X14405181Y-15266028D01*
X14414705Y-15256505D01*
X14576609Y-15351743D02*
X14576609Y-15485076D01*
X14528990Y-15275552D02*
X14481371Y-15418409D01*
X14605181Y-15418409D01*
X14833752Y-15485076D02*
X14833752Y-15285076D01*
X14919467Y-15485076D02*
X14919467Y-15380314D01*
X14909943Y-15361267D01*
X14890895Y-15351743D01*
X14862324Y-15351743D01*
X14843276Y-15361267D01*
X14833752Y-15370790D01*
X15043276Y-15485076D02*
X15024228Y-15475552D01*
X15014705Y-15466028D01*
X15005181Y-15446981D01*
X15005181Y-15389838D01*
X15014705Y-15370790D01*
X15024228Y-15361267D01*
X15043276Y-15351743D01*
X15071848Y-15351743D01*
X15090895Y-15361267D01*
X15100419Y-15370790D01*
X15109943Y-15389838D01*
X15109943Y-15446981D01*
X15100419Y-15466028D01*
X15090895Y-15475552D01*
X15071848Y-15485076D01*
X15043276Y-15485076D01*
X15224228Y-15485076D02*
X15205181Y-15475552D01*
X15195657Y-15456505D01*
X15195657Y-15285076D01*
X15376609Y-15475552D02*
X15357562Y-15485076D01*
X15319467Y-15485076D01*
X15300419Y-15475552D01*
X15290895Y-15456505D01*
X15290895Y-15380314D01*
X15300419Y-15361267D01*
X15319467Y-15351743D01*
X15357562Y-15351743D01*
X15376609Y-15361267D01*
X15386133Y-15380314D01*
X15386133Y-15399362D01*
X15290895Y-15418409D01*
X15462324Y-15475552D02*
X15481371Y-15485076D01*
X15519467Y-15485076D01*
X15538514Y-15475552D01*
X15548038Y-15456505D01*
X15548038Y-15446981D01*
X15538514Y-15427933D01*
X15519467Y-15418409D01*
X15490895Y-15418409D01*
X15471848Y-15408886D01*
X15462324Y-15389838D01*
X15462324Y-15380314D01*
X15471848Y-15361267D01*
X15490895Y-15351743D01*
X15519467Y-15351743D01*
X15538514Y-15361267D01*
X15614705Y-15561267D02*
X15624228Y-15551743D01*
X15643276Y-15523171D01*
X15652800Y-15504124D01*
X15662324Y-15475552D01*
X15671848Y-15427933D01*
X15671848Y-15389838D01*
X15662324Y-15342219D01*
X15652800Y-15313648D01*
X15643276Y-15294600D01*
X15624228Y-15266028D01*
X15614705Y-15256505D01*
M02*
