M48
; DRILL file {KiCad 5.99.0-unknown-47cb7f53fd~143~ubuntu20.04.1} date Tue 23 Nov 2021 09:16:02 PM PST
; FORMAT={-:-/ absolute / metric / decimal}
; #@! TF.CreationDate,2021-11-23T21:16:02-08:00
; #@! TF.GenerationSoftware,Kicad,Pcbnew,5.99.0-unknown-47cb7f53fd~143~ubuntu20.04.1
; #@! TF.FileFunction,Plated,1,2,PTH
FMAT,2
METRIC
; #@! TA.AperFunction,Plated,PTH,ViaDrill
T1C0.400
; #@! TA.AperFunction,Plated,PTH,ViaDrill
T2C0.600
; #@! TA.AperFunction,Plated,PTH,ComponentDrill
T3C0.889
; #@! TA.AperFunction,Plated,PTH,ComponentDrill
T4C0.890
; #@! TA.AperFunction,Plated,PTH,ComponentDrill
T5C1.000
; #@! TA.AperFunction,Plated,PTH,ComponentDrill
T6C1.190
; #@! TA.AperFunction,Plated,PTH,ComponentDrill
T7C1.570
; #@! TA.AperFunction,Plated,PTH,ComponentDrill
T8C1.651
%
G90
G05
T1
X112.014Y-93.74
X112.02Y-73.436
X112.268Y-84.342
X112.268Y-92.724
X112.611Y-84.939
X113.03Y-93.232
X113.284Y-85.104
X114.808Y-116.586
X115.57Y-107.442
X119.4Y-79.1
X119.7Y-75.4
X119.888Y-95.758
X119.925Y-115.525
X121.8Y-118.45
X122.2Y-73.0
X122.5Y-113.375
X122.7Y-75.4
X122.701Y-76.249
X123.35Y-116.275
X123.9Y-78.6
X125.3Y-112.4
X126.4Y-82.2
X126.8Y-76.499
X127.508Y-112.776
X128.0Y-77.0
X128.524Y-109.22
X128.575Y-126.475
X128.625Y-123.5
X128.778Y-115.824
X128.8Y-81.9
X130.302Y-110.236
X131.318Y-116.332
X132.3Y-105.625
X132.588Y-90.678
X133.604Y-97.028
X133.604Y-105.664
X135.1Y-115.2
X135.128Y-92.964
X135.7Y-76.5
X136.3Y-73.5
X136.4Y-81.1
X136.6Y-70.0
X137.35Y-116.0
X137.4Y-76.6
X137.676Y-73.576
X139.925Y-103.85
X140.975Y-105.075
X141.4Y-82.4
X141.4Y-109.7
X141.8Y-81.1
X143.2Y-75.2
X143.2Y-76.7
X143.799Y-77.5
X143.9Y-73.0
X144.5Y-81.9
X145.034Y-108.458
X146.05Y-110.49
X146.812Y-113.03
X147.1Y-76.0
X147.574Y-102.87
X147.828Y-96.774
X149.098Y-92.4
X149.3Y-76.6
X149.86Y-114.808
X150.114Y-107.95
X150.6Y-76.7
X151.2Y-82.4
X151.892Y-116.332
X152.1Y-78.3
X152.4Y-122.174
X152.6Y-73.9
X153.5Y-82.6
X153.924Y-103.632
X154.432Y-110.236
X155.025Y-117.7
X157.0Y-66.9
X157.5Y-81.3
X157.9Y-79.2
X158.0Y-68.6
X158.325Y-109.75
X158.375Y-104.45
X158.8Y-113.9
X158.9Y-74.9
X159.258Y-89.408
X159.624Y-78.324
X159.766Y-108.712
X160.528Y-113.284
X161.036Y-98.552
X161.5Y-108.9
X161.798Y-90.678
X162.0Y-72.7
X162.1Y-76.2
X163.0Y-72.4
X163.068Y-104.902
X163.2Y-77.9
X163.576Y-112.014
X164.338Y-92.964
X164.726Y-77.226
X165.0Y-114.3
X166.37Y-109.4
X167.225Y-104.05
X167.4Y-82.6
X167.629Y-68.0
X169.4Y-67.4
X169.7Y-76.0
X170.434Y-116.332
X170.942Y-114.3
X171.45Y-90.424
X173.2Y-69.5
X173.736Y-100.33
X174.244Y-95.504
X174.339Y-104.986
X174.4Y-112.5
X174.725Y-117.25
X176.3Y-86.5
X176.4Y-102.3
X176.65Y-119.55
X176.9Y-107.7
X177.325Y-94.925
X177.629Y-83.2
X178.5Y-69.7
X178.625Y-97.45
X179.2Y-110.0
X179.4Y-112.4
X180.025Y-116.2
X180.2Y-114.6
T2
X113.1Y-87.3
X113.792Y-111.76
X119.6Y-73.4
X119.725Y-119.3
X121.2Y-69.4
X123.455Y-72.855
X124.1Y-90.55
X124.4Y-84.4
X124.8Y-81.2
X126.825Y-106.65
X127.8Y-71.4
X130.9Y-107.075
X136.775Y-85.225
X136.906Y-90.17
X137.275Y-106.65
X140.7Y-114.75
X141.74Y-73.949
X143.35Y-106.775
X144.0Y-69.4
X145.5Y-75.6
X146.7Y-81.4
X150.8Y-71.4
X151.025Y-84.325
X151.55Y-106.775
X151.725Y-91.95
X157.125Y-106.775
X160.6Y-74.1
X161.4Y-92.475
X163.7Y-69.353
X164.201Y-76.0
X164.275Y-106.75
X164.5Y-84.875
X165.25Y-91.55
X165.8Y-78.4
X169.6Y-71.4
X170.2Y-60.4
X170.2Y-106.725
X171.0Y-82.0
X171.45Y-108.204
X172.6Y-78.9
X173.0Y-68.4
X174.2Y-74.2
X174.225Y-91.225
X174.25Y-84.9
X175.125Y-98.375
X180.6Y-96.6
X181.1Y-101.2
X181.5Y-89.975
X183.325Y-87.175
X184.4Y-82.9
X186.1Y-67.5
T3
X115.589Y-124.696
X116.609Y-122.156
X117.619Y-124.696
X118.639Y-122.156
X119.649Y-124.696
X120.669Y-122.156
X121.679Y-124.696
X122.699Y-122.156
X134.639Y-124.696
X135.659Y-122.156
X136.669Y-124.696
X137.689Y-122.156
X138.699Y-124.696
X139.719Y-122.156
X140.729Y-124.696
X141.749Y-122.156
X153.689Y-124.696
X154.709Y-122.156
X155.719Y-124.696
X156.739Y-122.156
X157.749Y-124.696
X158.769Y-122.156
X159.779Y-124.696
X160.799Y-122.156
X172.739Y-124.696
X173.759Y-122.156
X174.769Y-124.696
X175.789Y-122.156
X176.799Y-124.696
X177.819Y-122.156
X178.829Y-124.696
X179.849Y-122.156
T4
X112.349Y-119.746
X114.639Y-119.746
X123.649Y-119.746
X125.939Y-119.746
X131.399Y-119.746
X133.689Y-119.746
X142.699Y-119.746
X144.989Y-119.746
X150.449Y-119.746
X152.739Y-119.746
X161.749Y-119.746
X164.039Y-119.746
X169.499Y-119.746
X171.789Y-119.746
X180.799Y-119.746
X183.089Y-119.746
T5
X117.031Y-75.382
X117.031Y-77.922
X120.16Y-62.466
X120.16Y-65.006
X122.7Y-62.466
X122.7Y-65.006
X125.24Y-62.466
X125.24Y-65.006
X127.78Y-62.466
X127.78Y-65.006
X130.32Y-62.466
X130.32Y-65.006
X131.75Y-75.0
X131.75Y-77.54
X132.86Y-62.466
X132.86Y-65.006
X135.4Y-62.466
X135.4Y-65.006
X137.94Y-62.466
X137.94Y-65.006
X139.6Y-75.0
X139.6Y-77.54
X140.48Y-62.466
X140.48Y-65.006
X143.02Y-62.466
X143.02Y-65.006
X145.56Y-62.466
X145.56Y-65.006
X148.1Y-62.466
X148.1Y-65.006
X150.64Y-62.466
X150.64Y-65.006
X153.18Y-62.466
X153.18Y-65.006
X154.3Y-75.0
X154.3Y-77.54
X155.72Y-62.466
X155.72Y-65.006
X158.26Y-62.466
X158.26Y-65.006
X160.8Y-62.466
X160.8Y-65.006
X163.34Y-62.466
X163.34Y-65.006
X165.88Y-62.466
X165.88Y-65.006
X168.42Y-62.466
X168.42Y-65.006
T6
X176.69Y-79.32
X176.71Y-72.02
X179.23Y-79.32
X179.25Y-72.02
X181.77Y-79.32
X181.79Y-72.02
X184.31Y-79.32
X184.33Y-72.02
T7
X127.274Y-121.346
X146.324Y-121.346
X165.374Y-121.346
X184.424Y-121.346
T8
X111.014Y-121.346
X130.064Y-121.346
X149.114Y-121.346
X168.164Y-121.346
T0
M30
