G04 #@! TF.GenerationSoftware,KiCad,Pcbnew,6.0.2+dfsg-1*
G04 #@! TF.CreationDate,2022-12-16T18:51:45-08:00*
G04 #@! TF.ProjectId,mag_sensor,6d61675f-7365-46e7-936f-722e6b696361,rev?*
G04 #@! TF.SameCoordinates,Original*
G04 #@! TF.FileFunction,Legend,Bot*
G04 #@! TF.FilePolarity,Positive*
%FSLAX46Y46*%
G04 Gerber Fmt 4.6, Leading zero omitted, Abs format (unit mm)*
G04 Created by KiCad (PCBNEW 6.0.2+dfsg-1) date 2022-12-16 18:51:45*
%MOMM*%
%LPD*%
G01*
G04 APERTURE LIST*
G04 Aperture macros list*
%AMRoundRect*
0 Rectangle with rounded corners*
0 $1 Rounding radius*
0 $2 $3 $4 $5 $6 $7 $8 $9 X,Y pos of 4 corners*
0 Add a 4 corners polygon primitive as box body*
4,1,4,$2,$3,$4,$5,$6,$7,$8,$9,$2,$3,0*
0 Add four circle primitives for the rounded corners*
1,1,$1+$1,$2,$3*
1,1,$1+$1,$4,$5*
1,1,$1+$1,$6,$7*
1,1,$1+$1,$8,$9*
0 Add four rect primitives between the rounded corners*
20,1,$1+$1,$2,$3,$4,$5,0*
20,1,$1+$1,$4,$5,$6,$7,0*
20,1,$1+$1,$6,$7,$8,$9,0*
20,1,$1+$1,$8,$9,$2,$3,0*%
G04 Aperture macros list end*
%ADD10C,0.200000*%
%ADD11C,0.150000*%
%ADD12C,0.120000*%
%ADD13C,3.900000*%
%ADD14RoundRect,0.250000X-0.620000X-0.845000X0.620000X-0.845000X0.620000X0.845000X-0.620000X0.845000X0*%
%ADD15O,1.740000X2.190000*%
G04 APERTURE END LIST*
D10*
X155600000Y-100844857D02*
X155142857Y-100844857D01*
X155428571Y-100444857D02*
X155428571Y-101473428D01*
X155371428Y-101587714D01*
X155257142Y-101644857D01*
X155142857Y-101644857D01*
X154742857Y-101644857D02*
X154742857Y-100444857D01*
X154228571Y-101644857D02*
X154228571Y-101016285D01*
X154285714Y-100902000D01*
X154400000Y-100844857D01*
X154571428Y-100844857D01*
X154685714Y-100902000D01*
X154742857Y-100959142D01*
X153200000Y-101587714D02*
X153314285Y-101644857D01*
X153542857Y-101644857D01*
X153657142Y-101587714D01*
X153714285Y-101473428D01*
X153714285Y-101016285D01*
X153657142Y-100902000D01*
X153542857Y-100844857D01*
X153314285Y-100844857D01*
X153200000Y-100902000D01*
X153142857Y-101016285D01*
X153142857Y-101130571D01*
X153714285Y-101244857D01*
X151200000Y-101587714D02*
X151314285Y-101644857D01*
X151542857Y-101644857D01*
X151657142Y-101587714D01*
X151714285Y-101530571D01*
X151771428Y-101416285D01*
X151771428Y-101073428D01*
X151714285Y-100959142D01*
X151657142Y-100902000D01*
X151542857Y-100844857D01*
X151314285Y-100844857D01*
X151200000Y-100902000D01*
X150685714Y-101644857D02*
X150685714Y-100844857D01*
X150685714Y-101073428D02*
X150628571Y-100959142D01*
X150571428Y-100902000D01*
X150457142Y-100844857D01*
X150342857Y-100844857D01*
X149942857Y-101644857D02*
X149942857Y-100844857D01*
X149942857Y-100444857D02*
X150000000Y-100502000D01*
X149942857Y-100559142D01*
X149885714Y-100502000D01*
X149942857Y-100444857D01*
X149942857Y-100559142D01*
X149428571Y-101587714D02*
X149314285Y-101644857D01*
X149085714Y-101644857D01*
X148971428Y-101587714D01*
X148914285Y-101473428D01*
X148914285Y-101416285D01*
X148971428Y-101302000D01*
X149085714Y-101244857D01*
X149257142Y-101244857D01*
X149371428Y-101187714D01*
X149428571Y-101073428D01*
X149428571Y-101016285D01*
X149371428Y-100902000D01*
X149257142Y-100844857D01*
X149085714Y-100844857D01*
X148971428Y-100902000D01*
X148400000Y-100844857D02*
X148400000Y-102044857D01*
X148400000Y-100902000D02*
X148285714Y-100844857D01*
X148057142Y-100844857D01*
X147942857Y-100902000D01*
X147885714Y-100959142D01*
X147828571Y-101073428D01*
X147828571Y-101416285D01*
X147885714Y-101530571D01*
X147942857Y-101587714D01*
X148057142Y-101644857D01*
X148285714Y-101644857D01*
X148400000Y-101587714D01*
X145885714Y-101644857D02*
X145885714Y-101016285D01*
X145942857Y-100902000D01*
X146057142Y-100844857D01*
X146285714Y-100844857D01*
X146400000Y-100902000D01*
X145885714Y-101587714D02*
X146000000Y-101644857D01*
X146285714Y-101644857D01*
X146400000Y-101587714D01*
X146457142Y-101473428D01*
X146457142Y-101359142D01*
X146400000Y-101244857D01*
X146285714Y-101187714D01*
X146000000Y-101187714D01*
X145885714Y-101130571D01*
X145314285Y-101644857D02*
X145314285Y-100844857D01*
X145314285Y-100444857D02*
X145371428Y-100502000D01*
X145314285Y-100559142D01*
X145257142Y-100502000D01*
X145314285Y-100444857D01*
X145314285Y-100559142D01*
X144742857Y-101644857D02*
X144742857Y-100844857D01*
X144742857Y-101073428D02*
X144685714Y-100959142D01*
X144628571Y-100902000D01*
X144514285Y-100844857D01*
X144400000Y-100844857D01*
X157057142Y-103576857D02*
X157057142Y-102948285D01*
X157114285Y-102834000D01*
X157228571Y-102776857D01*
X157457142Y-102776857D01*
X157571428Y-102834000D01*
X157057142Y-103519714D02*
X157171428Y-103576857D01*
X157457142Y-103576857D01*
X157571428Y-103519714D01*
X157628571Y-103405428D01*
X157628571Y-103291142D01*
X157571428Y-103176857D01*
X157457142Y-103119714D01*
X157171428Y-103119714D01*
X157057142Y-103062571D01*
X156485714Y-102776857D02*
X156485714Y-103576857D01*
X156485714Y-102891142D02*
X156428571Y-102834000D01*
X156314285Y-102776857D01*
X156142857Y-102776857D01*
X156028571Y-102834000D01*
X155971428Y-102948285D01*
X155971428Y-103576857D01*
X154885714Y-103576857D02*
X154885714Y-102376857D01*
X154885714Y-103519714D02*
X155000000Y-103576857D01*
X155228571Y-103576857D01*
X155342857Y-103519714D01*
X155400000Y-103462571D01*
X155457142Y-103348285D01*
X155457142Y-103005428D01*
X155400000Y-102891142D01*
X155342857Y-102834000D01*
X155228571Y-102776857D01*
X155000000Y-102776857D01*
X154885714Y-102834000D01*
X152885714Y-103576857D02*
X152885714Y-102376857D01*
X152885714Y-103519714D02*
X153000000Y-103576857D01*
X153228571Y-103576857D01*
X153342857Y-103519714D01*
X153400000Y-103462571D01*
X153457142Y-103348285D01*
X153457142Y-103005428D01*
X153400000Y-102891142D01*
X153342857Y-102834000D01*
X153228571Y-102776857D01*
X153000000Y-102776857D01*
X152885714Y-102834000D01*
X152314285Y-103576857D02*
X152314285Y-102776857D01*
X152314285Y-102376857D02*
X152371428Y-102434000D01*
X152314285Y-102491142D01*
X152257142Y-102434000D01*
X152314285Y-102376857D01*
X152314285Y-102491142D01*
X151800000Y-103519714D02*
X151685714Y-103576857D01*
X151457142Y-103576857D01*
X151342857Y-103519714D01*
X151285714Y-103405428D01*
X151285714Y-103348285D01*
X151342857Y-103234000D01*
X151457142Y-103176857D01*
X151628571Y-103176857D01*
X151742857Y-103119714D01*
X151800000Y-103005428D01*
X151800000Y-102948285D01*
X151742857Y-102834000D01*
X151628571Y-102776857D01*
X151457142Y-102776857D01*
X151342857Y-102834000D01*
X150942857Y-102776857D02*
X150485714Y-102776857D01*
X150771428Y-102376857D02*
X150771428Y-103405428D01*
X150714285Y-103519714D01*
X150600000Y-103576857D01*
X150485714Y-103576857D01*
X149571428Y-103576857D02*
X149571428Y-102948285D01*
X149628571Y-102834000D01*
X149742857Y-102776857D01*
X149971428Y-102776857D01*
X150085714Y-102834000D01*
X149571428Y-103519714D02*
X149685714Y-103576857D01*
X149971428Y-103576857D01*
X150085714Y-103519714D01*
X150142857Y-103405428D01*
X150142857Y-103291142D01*
X150085714Y-103176857D01*
X149971428Y-103119714D01*
X149685714Y-103119714D01*
X149571428Y-103062571D01*
X149000000Y-102776857D02*
X149000000Y-103576857D01*
X149000000Y-102891142D02*
X148942857Y-102834000D01*
X148828571Y-102776857D01*
X148657142Y-102776857D01*
X148542857Y-102834000D01*
X148485714Y-102948285D01*
X148485714Y-103576857D01*
X148085714Y-102776857D02*
X147628571Y-102776857D01*
X147914285Y-102376857D02*
X147914285Y-103405428D01*
X147857142Y-103519714D01*
X147742857Y-103576857D01*
X147628571Y-103576857D01*
X146314285Y-103576857D02*
X146314285Y-102376857D01*
X146314285Y-102834000D02*
X146200000Y-102776857D01*
X145971428Y-102776857D01*
X145857142Y-102834000D01*
X145800000Y-102891142D01*
X145742857Y-103005428D01*
X145742857Y-103348285D01*
X145800000Y-103462571D01*
X145857142Y-103519714D01*
X145971428Y-103576857D01*
X146200000Y-103576857D01*
X146314285Y-103519714D01*
X145228571Y-103576857D02*
X145228571Y-102776857D01*
X145228571Y-102376857D02*
X145285714Y-102434000D01*
X145228571Y-102491142D01*
X145171428Y-102434000D01*
X145228571Y-102376857D01*
X145228571Y-102491142D01*
X144657142Y-103576857D02*
X144657142Y-102776857D01*
X144657142Y-103005428D02*
X144600000Y-102891142D01*
X144542857Y-102834000D01*
X144428571Y-102776857D01*
X144314285Y-102776857D01*
X143400000Y-103576857D02*
X143400000Y-102376857D01*
X143400000Y-103519714D02*
X143514285Y-103576857D01*
X143742857Y-103576857D01*
X143857142Y-103519714D01*
X143914285Y-103462571D01*
X143971428Y-103348285D01*
X143971428Y-103005428D01*
X143914285Y-102891142D01*
X143857142Y-102834000D01*
X143742857Y-102776857D01*
X143514285Y-102776857D01*
X143400000Y-102834000D01*
X142885714Y-103519714D02*
X142771428Y-103576857D01*
X142542857Y-103576857D01*
X142428571Y-103519714D01*
X142371428Y-103405428D01*
X142371428Y-103348285D01*
X142428571Y-103234000D01*
X142542857Y-103176857D01*
X142714285Y-103176857D01*
X142828571Y-103119714D01*
X142885714Y-103005428D01*
X142885714Y-102948285D01*
X142828571Y-102834000D01*
X142714285Y-102776857D01*
X142542857Y-102776857D01*
X142428571Y-102834000D01*
X156457142Y-105508857D02*
X156457142Y-104880285D01*
X156514285Y-104766000D01*
X156628571Y-104708857D01*
X156857142Y-104708857D01*
X156971428Y-104766000D01*
X156457142Y-105451714D02*
X156571428Y-105508857D01*
X156857142Y-105508857D01*
X156971428Y-105451714D01*
X157028571Y-105337428D01*
X157028571Y-105223142D01*
X156971428Y-105108857D01*
X156857142Y-105051714D01*
X156571428Y-105051714D01*
X156457142Y-104994571D01*
X154971428Y-104708857D02*
X154971428Y-105908857D01*
X154971428Y-104766000D02*
X154857142Y-104708857D01*
X154628571Y-104708857D01*
X154514285Y-104766000D01*
X154457142Y-104823142D01*
X154400000Y-104937428D01*
X154400000Y-105280285D01*
X154457142Y-105394571D01*
X154514285Y-105451714D01*
X154628571Y-105508857D01*
X154857142Y-105508857D01*
X154971428Y-105451714D01*
X153428571Y-105451714D02*
X153542857Y-105508857D01*
X153771428Y-105508857D01*
X153885714Y-105451714D01*
X153942857Y-105337428D01*
X153942857Y-104880285D01*
X153885714Y-104766000D01*
X153771428Y-104708857D01*
X153542857Y-104708857D01*
X153428571Y-104766000D01*
X153371428Y-104880285D01*
X153371428Y-104994571D01*
X153942857Y-105108857D01*
X152342857Y-105508857D02*
X152342857Y-104880285D01*
X152400000Y-104766000D01*
X152514285Y-104708857D01*
X152742857Y-104708857D01*
X152857142Y-104766000D01*
X152342857Y-105451714D02*
X152457142Y-105508857D01*
X152742857Y-105508857D01*
X152857142Y-105451714D01*
X152914285Y-105337428D01*
X152914285Y-105223142D01*
X152857142Y-105108857D01*
X152742857Y-105051714D01*
X152457142Y-105051714D01*
X152342857Y-104994571D01*
X151257142Y-105451714D02*
X151371428Y-105508857D01*
X151600000Y-105508857D01*
X151714285Y-105451714D01*
X151771428Y-105394571D01*
X151828571Y-105280285D01*
X151828571Y-104937428D01*
X151771428Y-104823142D01*
X151714285Y-104766000D01*
X151600000Y-104708857D01*
X151371428Y-104708857D01*
X151257142Y-104766000D01*
X150285714Y-105451714D02*
X150400000Y-105508857D01*
X150628571Y-105508857D01*
X150742857Y-105451714D01*
X150800000Y-105337428D01*
X150800000Y-104880285D01*
X150742857Y-104766000D01*
X150628571Y-104708857D01*
X150400000Y-104708857D01*
X150285714Y-104766000D01*
X150228571Y-104880285D01*
X150228571Y-104994571D01*
X150800000Y-105108857D01*
X149885714Y-104708857D02*
X149428571Y-104708857D01*
X149714285Y-105508857D02*
X149714285Y-104480285D01*
X149657142Y-104366000D01*
X149542857Y-104308857D01*
X149428571Y-104308857D01*
X148514285Y-104708857D02*
X148514285Y-105508857D01*
X149028571Y-104708857D02*
X149028571Y-105337428D01*
X148971428Y-105451714D01*
X148857142Y-105508857D01*
X148685714Y-105508857D01*
X148571428Y-105451714D01*
X148514285Y-105394571D01*
X147771428Y-105508857D02*
X147885714Y-105451714D01*
X147942857Y-105337428D01*
X147942857Y-104308857D01*
X146514285Y-104708857D02*
X146285714Y-105508857D01*
X146057142Y-104937428D01*
X145828571Y-105508857D01*
X145600000Y-104708857D01*
X144628571Y-105508857D02*
X144628571Y-104880285D01*
X144685714Y-104766000D01*
X144800000Y-104708857D01*
X145028571Y-104708857D01*
X145142857Y-104766000D01*
X144628571Y-105451714D02*
X144742857Y-105508857D01*
X145028571Y-105508857D01*
X145142857Y-105451714D01*
X145200000Y-105337428D01*
X145200000Y-105223142D01*
X145142857Y-105108857D01*
X145028571Y-105051714D01*
X144742857Y-105051714D01*
X144628571Y-104994571D01*
X143885714Y-105508857D02*
X144000000Y-105451714D01*
X144057142Y-105337428D01*
X144057142Y-104308857D01*
X143428571Y-105508857D02*
X143428571Y-104308857D01*
X143314285Y-105051714D02*
X142971428Y-105508857D01*
X142971428Y-104708857D02*
X143428571Y-105166000D01*
X156714285Y-107440857D02*
X156714285Y-106812285D01*
X156771428Y-106698000D01*
X156885714Y-106640857D01*
X157114285Y-106640857D01*
X157228571Y-106698000D01*
X156714285Y-107383714D02*
X156828571Y-107440857D01*
X157114285Y-107440857D01*
X157228571Y-107383714D01*
X157285714Y-107269428D01*
X157285714Y-107155142D01*
X157228571Y-107040857D01*
X157114285Y-106983714D01*
X156828571Y-106983714D01*
X156714285Y-106926571D01*
X156142857Y-107440857D02*
X156142857Y-106640857D01*
X156142857Y-106755142D02*
X156085714Y-106698000D01*
X155971428Y-106640857D01*
X155800000Y-106640857D01*
X155685714Y-106698000D01*
X155628571Y-106812285D01*
X155628571Y-107440857D01*
X155628571Y-106812285D02*
X155571428Y-106698000D01*
X155457142Y-106640857D01*
X155285714Y-106640857D01*
X155171428Y-106698000D01*
X155114285Y-106812285D01*
X155114285Y-107440857D01*
X154371428Y-107440857D02*
X154485714Y-107383714D01*
X154542857Y-107326571D01*
X154600000Y-107212285D01*
X154600000Y-106869428D01*
X154542857Y-106755142D01*
X154485714Y-106698000D01*
X154371428Y-106640857D01*
X154200000Y-106640857D01*
X154085714Y-106698000D01*
X154028571Y-106755142D01*
X153971428Y-106869428D01*
X153971428Y-107212285D01*
X154028571Y-107326571D01*
X154085714Y-107383714D01*
X154200000Y-107440857D01*
X154371428Y-107440857D01*
X153457142Y-106640857D02*
X153457142Y-107440857D01*
X153457142Y-106755142D02*
X153400000Y-106698000D01*
X153285714Y-106640857D01*
X153114285Y-106640857D01*
X153000000Y-106698000D01*
X152942857Y-106812285D01*
X152942857Y-107440857D01*
X151857142Y-106640857D02*
X151857142Y-107612285D01*
X151914285Y-107726571D01*
X151971428Y-107783714D01*
X152085714Y-107840857D01*
X152257142Y-107840857D01*
X152371428Y-107783714D01*
X151857142Y-107383714D02*
X151971428Y-107440857D01*
X152200000Y-107440857D01*
X152314285Y-107383714D01*
X152371428Y-107326571D01*
X152428571Y-107212285D01*
X152428571Y-106869428D01*
X152371428Y-106755142D01*
X152314285Y-106698000D01*
X152200000Y-106640857D01*
X151971428Y-106640857D01*
X151857142Y-106698000D01*
X150542857Y-106640857D02*
X150085714Y-106640857D01*
X150371428Y-106240857D02*
X150371428Y-107269428D01*
X150314285Y-107383714D01*
X150200000Y-107440857D01*
X150085714Y-107440857D01*
X149685714Y-107440857D02*
X149685714Y-106240857D01*
X149171428Y-107440857D02*
X149171428Y-106812285D01*
X149228571Y-106698000D01*
X149342857Y-106640857D01*
X149514285Y-106640857D01*
X149628571Y-106698000D01*
X149685714Y-106755142D01*
X148142857Y-107383714D02*
X148257142Y-107440857D01*
X148485714Y-107440857D01*
X148600000Y-107383714D01*
X148657142Y-107269428D01*
X148657142Y-106812285D01*
X148600000Y-106698000D01*
X148485714Y-106640857D01*
X148257142Y-106640857D01*
X148142857Y-106698000D01*
X148085714Y-106812285D01*
X148085714Y-106926571D01*
X148657142Y-107040857D01*
X146828571Y-106640857D02*
X146371428Y-106640857D01*
X146657142Y-106240857D02*
X146657142Y-107269428D01*
X146600000Y-107383714D01*
X146485714Y-107440857D01*
X146371428Y-107440857D01*
X145971428Y-107440857D02*
X145971428Y-106640857D01*
X145971428Y-106869428D02*
X145914285Y-106755142D01*
X145857142Y-106698000D01*
X145742857Y-106640857D01*
X145628571Y-106640857D01*
X144771428Y-107383714D02*
X144885714Y-107440857D01*
X145114285Y-107440857D01*
X145228571Y-107383714D01*
X145285714Y-107269428D01*
X145285714Y-106812285D01*
X145228571Y-106698000D01*
X145114285Y-106640857D01*
X144885714Y-106640857D01*
X144771428Y-106698000D01*
X144714285Y-106812285D01*
X144714285Y-106926571D01*
X145285714Y-107040857D01*
X143742857Y-107383714D02*
X143857142Y-107440857D01*
X144085714Y-107440857D01*
X144200000Y-107383714D01*
X144257142Y-107269428D01*
X144257142Y-106812285D01*
X144200000Y-106698000D01*
X144085714Y-106640857D01*
X143857142Y-106640857D01*
X143742857Y-106698000D01*
X143685714Y-106812285D01*
X143685714Y-106926571D01*
X144257142Y-107040857D01*
X143228571Y-107383714D02*
X143114285Y-107440857D01*
X142885714Y-107440857D01*
X142771428Y-107383714D01*
X142714285Y-107269428D01*
X142714285Y-107212285D01*
X142771428Y-107098000D01*
X142885714Y-107040857D01*
X143057142Y-107040857D01*
X143171428Y-106983714D01*
X143228571Y-106869428D01*
X143228571Y-106812285D01*
X143171428Y-106698000D01*
X143057142Y-106640857D01*
X142885714Y-106640857D01*
X142771428Y-106698000D01*
D11*
X150123333Y-91322380D02*
X150123333Y-92036666D01*
X150170952Y-92179523D01*
X150266190Y-92274761D01*
X150409047Y-92322380D01*
X150504285Y-92322380D01*
X149123333Y-92322380D02*
X149694761Y-92322380D01*
X149409047Y-92322380D02*
X149409047Y-91322380D01*
X149504285Y-91465238D01*
X149599523Y-91560476D01*
X149694761Y-91608095D01*
D12*
X152580000Y-94010000D02*
X152580000Y-93010000D01*
X151780000Y-98430000D02*
X153380000Y-98430000D01*
X149240000Y-98430000D02*
X150840000Y-98430000D01*
X147500000Y-94010000D02*
X152580000Y-94010000D01*
X145830000Y-98000000D02*
X145830000Y-94000000D01*
X151780000Y-99030000D02*
X151780000Y-98430000D01*
X146120000Y-99030000D02*
X146120000Y-93010000D01*
X147500000Y-94010000D02*
X147750000Y-94540000D01*
X147750000Y-94540000D02*
X152330000Y-94540000D01*
X153380000Y-98430000D02*
X153380000Y-99030000D01*
X149240000Y-99030000D02*
X149240000Y-98430000D01*
X152330000Y-93010000D02*
X152330000Y-94010000D01*
X153960000Y-99030000D02*
X146120000Y-99030000D01*
X152330000Y-94540000D02*
X152580000Y-94010000D01*
X147750000Y-93010000D02*
X147750000Y-94010000D01*
X146700000Y-98430000D02*
X148300000Y-98430000D01*
X146120000Y-93010000D02*
X153960000Y-93010000D01*
X146700000Y-99030000D02*
X146700000Y-98430000D01*
X150840000Y-98430000D02*
X150840000Y-99030000D01*
X148300000Y-98430000D02*
X148300000Y-99030000D01*
X153960000Y-93010000D02*
X153960000Y-99030000D01*
X147500000Y-93010000D02*
X147500000Y-94010000D01*
%LPC*%
D13*
X136000000Y-93000000D03*
X164000000Y-93000000D03*
X136000000Y-107000000D03*
X164000000Y-107000000D03*
D14*
X147500000Y-96000000D03*
D15*
X150040000Y-96000000D03*
X152580000Y-96000000D03*
M02*
