%FSLAX45Y45*%
G04 Gerber Fmt 4.5, Leading zero omitted, Abs format (unit mm)*
G04 Created by KiCad (PCBNEW 6.0.2+dfsg-1) date 2022-12-16 18:51:56*
%MOMM*%
%LPD*%
G01*
G04 APERTURE LIST*
%TA.AperFunction,Profile*%
%ADD10C,0.100000*%
%TD*%
%ADD11C,0.200000*%
%ADD12C,0.119000*%
%ADD13C,0.390000*%
G04 APERTURE END LIST*
D10*
X16500000Y-8900000D02*
X13500000Y-8900000D01*
X16800000Y-10800000D02*
X16800000Y-9200000D01*
X13500000Y-11100000D02*
X16500000Y-11100000D01*
X13200000Y-9200000D02*
X13200000Y-10800000D01*
X13200000Y-10800000D02*
G75*
G03*
X13500000Y-11100000I300000J0D01*
G01*
X16500000Y-11100000D02*
G75*
G03*
X16800000Y-10800000I0J300000D01*
G01*
X16800000Y-9200000D02*
G75*
G03*
X16500000Y-8900000I-300000J0D01*
G01*
X13500000Y-8900000D02*
G75*
G03*
X13200000Y-9200000I0J-300000D01*
G01*
D11*
D12*
X14690500Y-9540500D02*
X14809500Y-9659500D01*
X14809500Y-9540500D02*
X14690500Y-9659500D01*
X14944500Y-9540500D02*
X15063500Y-9659500D01*
X15063500Y-9540500D02*
X14944500Y-9659500D01*
X15198500Y-9540500D02*
X15317500Y-9659500D01*
X15317500Y-9540500D02*
X15198500Y-9659500D01*
D13*
X13795000Y-9300000D02*
G75*
G03*
X13795000Y-9300000I-195000J0D01*
G01*
X13795000Y-10700000D02*
G75*
G03*
X13795000Y-10700000I-195000J0D01*
G01*
X16595000Y-9300000D02*
G75*
G03*
X16595000Y-9300000I-195000J0D01*
G01*
X16595000Y-10700000D02*
G75*
G03*
X16595000Y-10700000I-195000J0D01*
G01*
D11*
X13452619Y-11415476D02*
X13452619Y-11215476D01*
X13500238Y-11215476D01*
X13528809Y-11225000D01*
X13547857Y-11244048D01*
X13557381Y-11263095D01*
X13566905Y-11301190D01*
X13566905Y-11329762D01*
X13557381Y-11367857D01*
X13547857Y-11386905D01*
X13528809Y-11405952D01*
X13500238Y-11415476D01*
X13452619Y-11415476D01*
X13652619Y-11415476D02*
X13652619Y-11282143D01*
X13652619Y-11320238D02*
X13662143Y-11301190D01*
X13671667Y-11291667D01*
X13690714Y-11282143D01*
X13709762Y-11282143D01*
X13776428Y-11415476D02*
X13776428Y-11282143D01*
X13776428Y-11215476D02*
X13766905Y-11225000D01*
X13776428Y-11234524D01*
X13785952Y-11225000D01*
X13776428Y-11215476D01*
X13776428Y-11234524D01*
X13900238Y-11415476D02*
X13881190Y-11405952D01*
X13871667Y-11386905D01*
X13871667Y-11215476D01*
X14005000Y-11415476D02*
X13985952Y-11405952D01*
X13976428Y-11386905D01*
X13976428Y-11215476D01*
X14233571Y-11415476D02*
X14233571Y-11215476D01*
X14300238Y-11358333D01*
X14366905Y-11215476D01*
X14366905Y-11415476D01*
X14547857Y-11415476D02*
X14547857Y-11310714D01*
X14538333Y-11291667D01*
X14519286Y-11282143D01*
X14481190Y-11282143D01*
X14462143Y-11291667D01*
X14547857Y-11405952D02*
X14528809Y-11415476D01*
X14481190Y-11415476D01*
X14462143Y-11405952D01*
X14452619Y-11386905D01*
X14452619Y-11367857D01*
X14462143Y-11348809D01*
X14481190Y-11339286D01*
X14528809Y-11339286D01*
X14547857Y-11329762D01*
X14643095Y-11282143D02*
X14643095Y-11482143D01*
X14643095Y-11291667D02*
X14662143Y-11282143D01*
X14700238Y-11282143D01*
X14719286Y-11291667D01*
X14728809Y-11301190D01*
X14738333Y-11320238D01*
X14738333Y-11377381D01*
X14728809Y-11396428D01*
X14719286Y-11405952D01*
X14700238Y-11415476D01*
X14662143Y-11415476D01*
X14643095Y-11405952D01*
X14824048Y-11396428D02*
X14833571Y-11405952D01*
X14824048Y-11415476D01*
X14814524Y-11405952D01*
X14824048Y-11396428D01*
X14824048Y-11415476D01*
X14824048Y-11291667D02*
X14833571Y-11301190D01*
X14824048Y-11310714D01*
X14814524Y-11301190D01*
X14824048Y-11291667D01*
X14824048Y-11310714D01*
D12*
X13076000Y-11685500D02*
X13195000Y-11804500D01*
X13195000Y-11685500D02*
X13076000Y-11804500D01*
D11*
X13557381Y-11835476D02*
X13443095Y-11835476D01*
X13500238Y-11835476D02*
X13500238Y-11635476D01*
X13481190Y-11664048D01*
X13462143Y-11683095D01*
X13443095Y-11692619D01*
X13643095Y-11816428D02*
X13652619Y-11825952D01*
X13643095Y-11835476D01*
X13633571Y-11825952D01*
X13643095Y-11816428D01*
X13643095Y-11835476D01*
X13843095Y-11835476D02*
X13728809Y-11835476D01*
X13785952Y-11835476D02*
X13785952Y-11635476D01*
X13766905Y-11664048D01*
X13747857Y-11683095D01*
X13728809Y-11692619D01*
X13938333Y-11835476D02*
X13976428Y-11835476D01*
X13995476Y-11825952D01*
X14005000Y-11816428D01*
X14024048Y-11787857D01*
X14033571Y-11749762D01*
X14033571Y-11673571D01*
X14024048Y-11654524D01*
X14014524Y-11645000D01*
X13995476Y-11635476D01*
X13957381Y-11635476D01*
X13938333Y-11645000D01*
X13928809Y-11654524D01*
X13919286Y-11673571D01*
X13919286Y-11721190D01*
X13928809Y-11740238D01*
X13938333Y-11749762D01*
X13957381Y-11759286D01*
X13995476Y-11759286D01*
X14014524Y-11749762D01*
X14024048Y-11740238D01*
X14033571Y-11721190D01*
X14157381Y-11635476D02*
X14176428Y-11635476D01*
X14195476Y-11645000D01*
X14205000Y-11654524D01*
X14214524Y-11673571D01*
X14224048Y-11711667D01*
X14224048Y-11759286D01*
X14214524Y-11797381D01*
X14205000Y-11816428D01*
X14195476Y-11825952D01*
X14176428Y-11835476D01*
X14157381Y-11835476D01*
X14138333Y-11825952D01*
X14128809Y-11816428D01*
X14119286Y-11797381D01*
X14109762Y-11759286D01*
X14109762Y-11711667D01*
X14119286Y-11673571D01*
X14128809Y-11654524D01*
X14138333Y-11645000D01*
X14157381Y-11635476D01*
X14309762Y-11835476D02*
X14309762Y-11702143D01*
X14309762Y-11721190D02*
X14319286Y-11711667D01*
X14338333Y-11702143D01*
X14366905Y-11702143D01*
X14385952Y-11711667D01*
X14395476Y-11730714D01*
X14395476Y-11835476D01*
X14395476Y-11730714D02*
X14405000Y-11711667D01*
X14424048Y-11702143D01*
X14452619Y-11702143D01*
X14471667Y-11711667D01*
X14481190Y-11730714D01*
X14481190Y-11835476D01*
X14576428Y-11835476D02*
X14576428Y-11702143D01*
X14576428Y-11721190D02*
X14585952Y-11711667D01*
X14605000Y-11702143D01*
X14633571Y-11702143D01*
X14652619Y-11711667D01*
X14662143Y-11730714D01*
X14662143Y-11835476D01*
X14662143Y-11730714D02*
X14671667Y-11711667D01*
X14690714Y-11702143D01*
X14719286Y-11702143D01*
X14738333Y-11711667D01*
X14747857Y-11730714D01*
X14747857Y-11835476D01*
X15138333Y-11625952D02*
X14966905Y-11883095D01*
X15395476Y-11635476D02*
X15414524Y-11635476D01*
X15433571Y-11645000D01*
X15443095Y-11654524D01*
X15452619Y-11673571D01*
X15462143Y-11711667D01*
X15462143Y-11759286D01*
X15452619Y-11797381D01*
X15443095Y-11816428D01*
X15433571Y-11825952D01*
X15414524Y-11835476D01*
X15395476Y-11835476D01*
X15376428Y-11825952D01*
X15366905Y-11816428D01*
X15357381Y-11797381D01*
X15347857Y-11759286D01*
X15347857Y-11711667D01*
X15357381Y-11673571D01*
X15366905Y-11654524D01*
X15376428Y-11645000D01*
X15395476Y-11635476D01*
X15547857Y-11816428D02*
X15557381Y-11825952D01*
X15547857Y-11835476D01*
X15538333Y-11825952D01*
X15547857Y-11816428D01*
X15547857Y-11835476D01*
X15681190Y-11635476D02*
X15700238Y-11635476D01*
X15719286Y-11645000D01*
X15728809Y-11654524D01*
X15738333Y-11673571D01*
X15747857Y-11711667D01*
X15747857Y-11759286D01*
X15738333Y-11797381D01*
X15728809Y-11816428D01*
X15719286Y-11825952D01*
X15700238Y-11835476D01*
X15681190Y-11835476D01*
X15662143Y-11825952D01*
X15652619Y-11816428D01*
X15643095Y-11797381D01*
X15633571Y-11759286D01*
X15633571Y-11711667D01*
X15643095Y-11673571D01*
X15652619Y-11654524D01*
X15662143Y-11645000D01*
X15681190Y-11635476D01*
X15919286Y-11702143D02*
X15919286Y-11835476D01*
X15871667Y-11625952D02*
X15824048Y-11768809D01*
X15947857Y-11768809D01*
X16109762Y-11635476D02*
X16071667Y-11635476D01*
X16052619Y-11645000D01*
X16043095Y-11654524D01*
X16024048Y-11683095D01*
X16014524Y-11721190D01*
X16014524Y-11797381D01*
X16024048Y-11816428D01*
X16033571Y-11825952D01*
X16052619Y-11835476D01*
X16090714Y-11835476D01*
X16109762Y-11825952D01*
X16119286Y-11816428D01*
X16128809Y-11797381D01*
X16128809Y-11749762D01*
X16119286Y-11730714D01*
X16109762Y-11721190D01*
X16090714Y-11711667D01*
X16052619Y-11711667D01*
X16033571Y-11721190D01*
X16024048Y-11730714D01*
X16014524Y-11749762D01*
X16224048Y-11835476D02*
X16262143Y-11835476D01*
X16281190Y-11825952D01*
X16290714Y-11816428D01*
X16309762Y-11787857D01*
X16319286Y-11749762D01*
X16319286Y-11673571D01*
X16309762Y-11654524D01*
X16300238Y-11645000D01*
X16281190Y-11635476D01*
X16243095Y-11635476D01*
X16224048Y-11645000D01*
X16214524Y-11654524D01*
X16205000Y-11673571D01*
X16205000Y-11721190D01*
X16214524Y-11740238D01*
X16224048Y-11749762D01*
X16243095Y-11759286D01*
X16281190Y-11759286D01*
X16300238Y-11749762D01*
X16309762Y-11740238D01*
X16319286Y-11721190D01*
X16395476Y-11635476D02*
X16395476Y-11673571D01*
X16471667Y-11635476D02*
X16471667Y-11673571D01*
X16766905Y-11911667D02*
X16757381Y-11902143D01*
X16738333Y-11873571D01*
X16728809Y-11854524D01*
X16719286Y-11825952D01*
X16709762Y-11778333D01*
X16709762Y-11740238D01*
X16719286Y-11692619D01*
X16728809Y-11664048D01*
X16738333Y-11645000D01*
X16757381Y-11616428D01*
X16766905Y-11606905D01*
X16824048Y-11635476D02*
X16947857Y-11635476D01*
X16881190Y-11711667D01*
X16909762Y-11711667D01*
X16928810Y-11721190D01*
X16938333Y-11730714D01*
X16947857Y-11749762D01*
X16947857Y-11797381D01*
X16938333Y-11816428D01*
X16928810Y-11825952D01*
X16909762Y-11835476D01*
X16852619Y-11835476D01*
X16833571Y-11825952D01*
X16824048Y-11816428D01*
X17185952Y-11835476D02*
X17185952Y-11635476D01*
X17271667Y-11835476D02*
X17271667Y-11730714D01*
X17262143Y-11711667D01*
X17243095Y-11702143D01*
X17214524Y-11702143D01*
X17195476Y-11711667D01*
X17185952Y-11721190D01*
X17395476Y-11835476D02*
X17376429Y-11825952D01*
X17366905Y-11816428D01*
X17357381Y-11797381D01*
X17357381Y-11740238D01*
X17366905Y-11721190D01*
X17376429Y-11711667D01*
X17395476Y-11702143D01*
X17424048Y-11702143D01*
X17443095Y-11711667D01*
X17452619Y-11721190D01*
X17462143Y-11740238D01*
X17462143Y-11797381D01*
X17452619Y-11816428D01*
X17443095Y-11825952D01*
X17424048Y-11835476D01*
X17395476Y-11835476D01*
X17576429Y-11835476D02*
X17557381Y-11825952D01*
X17547857Y-11806905D01*
X17547857Y-11635476D01*
X17728810Y-11825952D02*
X17709762Y-11835476D01*
X17671667Y-11835476D01*
X17652619Y-11825952D01*
X17643095Y-11806905D01*
X17643095Y-11730714D01*
X17652619Y-11711667D01*
X17671667Y-11702143D01*
X17709762Y-11702143D01*
X17728810Y-11711667D01*
X17738333Y-11730714D01*
X17738333Y-11749762D01*
X17643095Y-11768809D01*
X17814524Y-11825952D02*
X17833571Y-11835476D01*
X17871667Y-11835476D01*
X17890714Y-11825952D01*
X17900238Y-11806905D01*
X17900238Y-11797381D01*
X17890714Y-11778333D01*
X17871667Y-11768809D01*
X17843095Y-11768809D01*
X17824048Y-11759286D01*
X17814524Y-11740238D01*
X17814524Y-11730714D01*
X17824048Y-11711667D01*
X17843095Y-11702143D01*
X17871667Y-11702143D01*
X17890714Y-11711667D01*
X17966905Y-11911667D02*
X17976429Y-11902143D01*
X17995476Y-11873571D01*
X18005000Y-11854524D01*
X18014524Y-11825952D01*
X18024048Y-11778333D01*
X18024048Y-11740238D01*
X18014524Y-11692619D01*
X18005000Y-11664048D01*
X17995476Y-11645000D01*
X17976429Y-11616428D01*
X17966905Y-11606905D01*
X13195000Y-12009000D02*
G75*
G03*
X13195000Y-12009000I-100000J0D01*
G01*
X13433571Y-11899476D02*
X13557381Y-11899476D01*
X13490714Y-11975667D01*
X13519286Y-11975667D01*
X13538333Y-11985190D01*
X13547857Y-11994714D01*
X13557381Y-12013762D01*
X13557381Y-12061381D01*
X13547857Y-12080428D01*
X13538333Y-12089952D01*
X13519286Y-12099476D01*
X13462143Y-12099476D01*
X13443095Y-12089952D01*
X13433571Y-12080428D01*
X13643095Y-12080428D02*
X13652619Y-12089952D01*
X13643095Y-12099476D01*
X13633571Y-12089952D01*
X13643095Y-12080428D01*
X13643095Y-12099476D01*
X13747857Y-12099476D02*
X13785952Y-12099476D01*
X13805000Y-12089952D01*
X13814524Y-12080428D01*
X13833571Y-12051857D01*
X13843095Y-12013762D01*
X13843095Y-11937571D01*
X13833571Y-11918524D01*
X13824048Y-11909000D01*
X13805000Y-11899476D01*
X13766905Y-11899476D01*
X13747857Y-11909000D01*
X13738333Y-11918524D01*
X13728809Y-11937571D01*
X13728809Y-11985190D01*
X13738333Y-12004238D01*
X13747857Y-12013762D01*
X13766905Y-12023286D01*
X13805000Y-12023286D01*
X13824048Y-12013762D01*
X13833571Y-12004238D01*
X13843095Y-11985190D01*
X13966905Y-11899476D02*
X13985952Y-11899476D01*
X14005000Y-11909000D01*
X14014524Y-11918524D01*
X14024048Y-11937571D01*
X14033571Y-11975667D01*
X14033571Y-12023286D01*
X14024048Y-12061381D01*
X14014524Y-12080428D01*
X14005000Y-12089952D01*
X13985952Y-12099476D01*
X13966905Y-12099476D01*
X13947857Y-12089952D01*
X13938333Y-12080428D01*
X13928809Y-12061381D01*
X13919286Y-12023286D01*
X13919286Y-11975667D01*
X13928809Y-11937571D01*
X13938333Y-11918524D01*
X13947857Y-11909000D01*
X13966905Y-11899476D01*
X14157381Y-11899476D02*
X14176428Y-11899476D01*
X14195476Y-11909000D01*
X14205000Y-11918524D01*
X14214524Y-11937571D01*
X14224048Y-11975667D01*
X14224048Y-12023286D01*
X14214524Y-12061381D01*
X14205000Y-12080428D01*
X14195476Y-12089952D01*
X14176428Y-12099476D01*
X14157381Y-12099476D01*
X14138333Y-12089952D01*
X14128809Y-12080428D01*
X14119286Y-12061381D01*
X14109762Y-12023286D01*
X14109762Y-11975667D01*
X14119286Y-11937571D01*
X14128809Y-11918524D01*
X14138333Y-11909000D01*
X14157381Y-11899476D01*
X14309762Y-12099476D02*
X14309762Y-11966143D01*
X14309762Y-11985190D02*
X14319286Y-11975667D01*
X14338333Y-11966143D01*
X14366905Y-11966143D01*
X14385952Y-11975667D01*
X14395476Y-11994714D01*
X14395476Y-12099476D01*
X14395476Y-11994714D02*
X14405000Y-11975667D01*
X14424048Y-11966143D01*
X14452619Y-11966143D01*
X14471667Y-11975667D01*
X14481190Y-11994714D01*
X14481190Y-12099476D01*
X14576428Y-12099476D02*
X14576428Y-11966143D01*
X14576428Y-11985190D02*
X14585952Y-11975667D01*
X14605000Y-11966143D01*
X14633571Y-11966143D01*
X14652619Y-11975667D01*
X14662143Y-11994714D01*
X14662143Y-12099476D01*
X14662143Y-11994714D02*
X14671667Y-11975667D01*
X14690714Y-11966143D01*
X14719286Y-11966143D01*
X14738333Y-11975667D01*
X14747857Y-11994714D01*
X14747857Y-12099476D01*
X15138333Y-11889952D02*
X14966905Y-12147095D01*
X15395476Y-11899476D02*
X15414524Y-11899476D01*
X15433571Y-11909000D01*
X15443095Y-11918524D01*
X15452619Y-11937571D01*
X15462143Y-11975667D01*
X15462143Y-12023286D01*
X15452619Y-12061381D01*
X15443095Y-12080428D01*
X15433571Y-12089952D01*
X15414524Y-12099476D01*
X15395476Y-12099476D01*
X15376428Y-12089952D01*
X15366905Y-12080428D01*
X15357381Y-12061381D01*
X15347857Y-12023286D01*
X15347857Y-11975667D01*
X15357381Y-11937571D01*
X15366905Y-11918524D01*
X15376428Y-11909000D01*
X15395476Y-11899476D01*
X15547857Y-12080428D02*
X15557381Y-12089952D01*
X15547857Y-12099476D01*
X15538333Y-12089952D01*
X15547857Y-12080428D01*
X15547857Y-12099476D01*
X15747857Y-12099476D02*
X15633571Y-12099476D01*
X15690714Y-12099476D02*
X15690714Y-11899476D01*
X15671667Y-11928048D01*
X15652619Y-11947095D01*
X15633571Y-11956619D01*
X15928809Y-11899476D02*
X15833571Y-11899476D01*
X15824048Y-11994714D01*
X15833571Y-11985190D01*
X15852619Y-11975667D01*
X15900238Y-11975667D01*
X15919286Y-11985190D01*
X15928809Y-11994714D01*
X15938333Y-12013762D01*
X15938333Y-12061381D01*
X15928809Y-12080428D01*
X15919286Y-12089952D01*
X15900238Y-12099476D01*
X15852619Y-12099476D01*
X15833571Y-12089952D01*
X15824048Y-12080428D01*
X16005000Y-11899476D02*
X16128809Y-11899476D01*
X16062143Y-11975667D01*
X16090714Y-11975667D01*
X16109762Y-11985190D01*
X16119286Y-11994714D01*
X16128809Y-12013762D01*
X16128809Y-12061381D01*
X16119286Y-12080428D01*
X16109762Y-12089952D01*
X16090714Y-12099476D01*
X16033571Y-12099476D01*
X16014524Y-12089952D01*
X16005000Y-12080428D01*
X16309762Y-11899476D02*
X16214524Y-11899476D01*
X16205000Y-11994714D01*
X16214524Y-11985190D01*
X16233571Y-11975667D01*
X16281190Y-11975667D01*
X16300238Y-11985190D01*
X16309762Y-11994714D01*
X16319286Y-12013762D01*
X16319286Y-12061381D01*
X16309762Y-12080428D01*
X16300238Y-12089952D01*
X16281190Y-12099476D01*
X16233571Y-12099476D01*
X16214524Y-12089952D01*
X16205000Y-12080428D01*
X16395476Y-11899476D02*
X16395476Y-11937571D01*
X16471667Y-11899476D02*
X16471667Y-11937571D01*
X16766905Y-12175667D02*
X16757381Y-12166143D01*
X16738333Y-12137571D01*
X16728809Y-12118524D01*
X16719286Y-12089952D01*
X16709762Y-12042333D01*
X16709762Y-12004238D01*
X16719286Y-11956619D01*
X16728809Y-11928048D01*
X16738333Y-11909000D01*
X16757381Y-11880428D01*
X16766905Y-11870905D01*
X16928810Y-11966143D02*
X16928810Y-12099476D01*
X16881190Y-11889952D02*
X16833571Y-12032809D01*
X16957381Y-12032809D01*
X17185952Y-12099476D02*
X17185952Y-11899476D01*
X17271667Y-12099476D02*
X17271667Y-11994714D01*
X17262143Y-11975667D01*
X17243095Y-11966143D01*
X17214524Y-11966143D01*
X17195476Y-11975667D01*
X17185952Y-11985190D01*
X17395476Y-12099476D02*
X17376429Y-12089952D01*
X17366905Y-12080428D01*
X17357381Y-12061381D01*
X17357381Y-12004238D01*
X17366905Y-11985190D01*
X17376429Y-11975667D01*
X17395476Y-11966143D01*
X17424048Y-11966143D01*
X17443095Y-11975667D01*
X17452619Y-11985190D01*
X17462143Y-12004238D01*
X17462143Y-12061381D01*
X17452619Y-12080428D01*
X17443095Y-12089952D01*
X17424048Y-12099476D01*
X17395476Y-12099476D01*
X17576429Y-12099476D02*
X17557381Y-12089952D01*
X17547857Y-12070905D01*
X17547857Y-11899476D01*
X17728810Y-12089952D02*
X17709762Y-12099476D01*
X17671667Y-12099476D01*
X17652619Y-12089952D01*
X17643095Y-12070905D01*
X17643095Y-11994714D01*
X17652619Y-11975667D01*
X17671667Y-11966143D01*
X17709762Y-11966143D01*
X17728810Y-11975667D01*
X17738333Y-11994714D01*
X17738333Y-12013762D01*
X17643095Y-12032809D01*
X17814524Y-12089952D02*
X17833571Y-12099476D01*
X17871667Y-12099476D01*
X17890714Y-12089952D01*
X17900238Y-12070905D01*
X17900238Y-12061381D01*
X17890714Y-12042333D01*
X17871667Y-12032809D01*
X17843095Y-12032809D01*
X17824048Y-12023286D01*
X17814524Y-12004238D01*
X17814524Y-11994714D01*
X17824048Y-11975667D01*
X17843095Y-11966143D01*
X17871667Y-11966143D01*
X17890714Y-11975667D01*
X17966905Y-12175667D02*
X17976429Y-12166143D01*
X17995476Y-12137571D01*
X18005000Y-12118524D01*
X18014524Y-12089952D01*
X18024048Y-12042333D01*
X18024048Y-12004238D01*
X18014524Y-11956619D01*
X18005000Y-11928048D01*
X17995476Y-11909000D01*
X17976429Y-11880428D01*
X17966905Y-11870905D01*
M02*
