G04 #@! TF.GenerationSoftware,KiCad,Pcbnew,6.0.2+dfsg-1*
G04 #@! TF.CreationDate,2022-12-16T18:51:45-08:00*
G04 #@! TF.ProjectId,mag_sensor,6d61675f-7365-46e7-936f-722e6b696361,rev?*
G04 #@! TF.SameCoordinates,Original*
G04 #@! TF.FileFunction,Legend,Top*
G04 #@! TF.FilePolarity,Positive*
%FSLAX46Y46*%
G04 Gerber Fmt 4.6, Leading zero omitted, Abs format (unit mm)*
G04 Created by KiCad (PCBNEW 6.0.2+dfsg-1) date 2022-12-16 18:51:45*
%MOMM*%
%LPD*%
G01*
G04 APERTURE LIST*
G04 Aperture macros list*
%AMRoundRect*
0 Rectangle with rounded corners*
0 $1 Rounding radius*
0 $2 $3 $4 $5 $6 $7 $8 $9 X,Y pos of 4 corners*
0 Add a 4 corners polygon primitive as box body*
4,1,4,$2,$3,$4,$5,$6,$7,$8,$9,$2,$3,0*
0 Add four circle primitives for the rounded corners*
1,1,$1+$1,$2,$3*
1,1,$1+$1,$4,$5*
1,1,$1+$1,$6,$7*
1,1,$1+$1,$8,$9*
0 Add four rect primitives between the rounded corners*
20,1,$1+$1,$2,$3,$4,$5,0*
20,1,$1+$1,$4,$5,$6,$7,0*
20,1,$1+$1,$6,$7,$8,$9,0*
20,1,$1+$1,$8,$9,$2,$3,0*%
G04 Aperture macros list end*
%ADD10C,0.150000*%
%ADD11C,0.200000*%
%ADD12C,0.120000*%
%ADD13C,3.900000*%
%ADD14RoundRect,0.250000X0.475000X-0.250000X0.475000X0.250000X-0.475000X0.250000X-0.475000X-0.250000X0*%
%ADD15RoundRect,0.225000X0.225000X0.250000X-0.225000X0.250000X-0.225000X-0.250000X0.225000X-0.250000X0*%
%ADD16RoundRect,0.150000X-0.587500X-0.150000X0.587500X-0.150000X0.587500X0.150000X-0.587500X0.150000X0*%
%ADD17RoundRect,0.250000X-0.620000X-0.845000X0.620000X-0.845000X0.620000X0.845000X-0.620000X0.845000X0*%
%ADD18O,1.740000X2.190000*%
G04 APERTURE END LIST*
D10*
X156263515Y-97630236D02*
X156822456Y-97749043D01*
X156335074Y-98667787D02*
X156542986Y-97689640D01*
X156986045Y-98124595D02*
X157033751Y-98816296D01*
X157319070Y-98390113D01*
X157406378Y-98895500D01*
X157731300Y-98283004D01*
X157965320Y-99014307D02*
X158103928Y-98362208D01*
X158173232Y-98036159D02*
X158116753Y-98072837D01*
X158153430Y-98129316D01*
X158209909Y-98092638D01*
X158173232Y-98036159D01*
X158153430Y-98129316D01*
X158394427Y-99056833D02*
X158477683Y-99123213D01*
X158663997Y-99162815D01*
X158767054Y-99136038D01*
X158833434Y-99052781D01*
X158843334Y-99006203D01*
X158816557Y-98903145D01*
X158733301Y-98836766D01*
X158593565Y-98807064D01*
X158510309Y-98740685D01*
X158483532Y-98637627D01*
X158493432Y-98591049D01*
X158559812Y-98507792D01*
X158662869Y-98481015D01*
X158802605Y-98510717D01*
X158885861Y-98577096D01*
X159221811Y-98599822D02*
X159594438Y-98679026D01*
X159430850Y-98303474D02*
X159252640Y-99141886D01*
X159279417Y-99244944D01*
X159362674Y-99311323D01*
X159455831Y-99331125D01*
X160164408Y-99433054D02*
X160061350Y-99459832D01*
X159875037Y-99420230D01*
X159791780Y-99353850D01*
X159765003Y-99250792D01*
X159844207Y-98878165D01*
X159910587Y-98794908D01*
X160013644Y-98768131D01*
X160199958Y-98807733D01*
X160283215Y-98874113D01*
X160309992Y-98977170D01*
X160290191Y-99070327D01*
X159804605Y-99064479D01*
X161039498Y-99667743D02*
X161247410Y-98689596D01*
X161049399Y-99621165D02*
X160946341Y-99647942D01*
X160760027Y-99608340D01*
X160676771Y-99541961D01*
X160640093Y-99485482D01*
X160613316Y-99382424D01*
X160672719Y-99102953D01*
X160739099Y-99019697D01*
X160795578Y-98983019D01*
X160898635Y-98956242D01*
X161084949Y-98995844D01*
X161168205Y-99062224D01*
X162685493Y-99482099D02*
X162359444Y-99412795D01*
X162250538Y-99925158D02*
X162458450Y-98947010D01*
X162924234Y-99046016D01*
X163088950Y-100103368D02*
X163227558Y-99451270D01*
X163296862Y-99125220D02*
X163240383Y-99161898D01*
X163277061Y-99218377D01*
X163333540Y-99181699D01*
X163296862Y-99125220D01*
X163277061Y-99218377D01*
X163937263Y-100235000D02*
X163834205Y-100261777D01*
X163647892Y-100222175D01*
X163564635Y-100155795D01*
X163537858Y-100052738D01*
X163617062Y-99680110D01*
X163683442Y-99596854D01*
X163786499Y-99570076D01*
X163972813Y-99609678D01*
X164056070Y-99676058D01*
X164082847Y-99779115D01*
X164063046Y-99872272D01*
X163577460Y-99866424D01*
X164532882Y-100410285D02*
X164449626Y-100343906D01*
X164422849Y-100240848D01*
X164601059Y-99402436D01*
X165324716Y-100578595D02*
X165532628Y-99600447D01*
X165334617Y-100532016D02*
X165231559Y-100558794D01*
X165045245Y-100519191D01*
X164961989Y-100452812D01*
X164925311Y-100396333D01*
X164898534Y-100293275D01*
X164957937Y-100013805D01*
X165024317Y-99930548D01*
X165080796Y-99893870D01*
X165183853Y-99867093D01*
X165370167Y-99906695D01*
X165453423Y-99973075D01*
X165753823Y-100621121D02*
X165837079Y-100687501D01*
X166023393Y-100727103D01*
X166126450Y-100700326D01*
X166192830Y-100617069D01*
X166202731Y-100570491D01*
X166175953Y-100467433D01*
X166092697Y-100401054D01*
X165952962Y-100371352D01*
X165869705Y-100304973D01*
X165842928Y-100201915D01*
X165852828Y-100155337D01*
X165919208Y-100072080D01*
X166022265Y-100045303D01*
X166162001Y-100075005D01*
X166245257Y-100141384D01*
X155869289Y-96568782D02*
X156007897Y-95916683D01*
X155988096Y-96009840D02*
X156044575Y-95973162D01*
X156147632Y-95946385D01*
X156287368Y-95976087D01*
X156370624Y-96042466D01*
X156397402Y-96145524D01*
X156288495Y-96657887D01*
X156397402Y-96145524D02*
X156463781Y-96062267D01*
X156566839Y-96035490D01*
X156706574Y-96065192D01*
X156789830Y-96131571D01*
X156816608Y-96234629D01*
X156707702Y-96746992D01*
X157592692Y-96935102D02*
X157701598Y-96422739D01*
X157674821Y-96319682D01*
X157591565Y-96253302D01*
X157405251Y-96213700D01*
X157302193Y-96240477D01*
X157602593Y-96888524D02*
X157499535Y-96915301D01*
X157266643Y-96865798D01*
X157183387Y-96799419D01*
X157156609Y-96696361D01*
X157176410Y-96603204D01*
X157242790Y-96519948D01*
X157345847Y-96493171D01*
X157578740Y-96542673D01*
X157681797Y-96515896D01*
X158616291Y-96471114D02*
X158447981Y-97262948D01*
X158381602Y-97346205D01*
X158325123Y-97382882D01*
X158222065Y-97409660D01*
X158082330Y-97379958D01*
X157999073Y-97313579D01*
X158487583Y-97076634D02*
X158384526Y-97103412D01*
X158198212Y-97063809D01*
X158114956Y-96997430D01*
X158078278Y-96940951D01*
X158051501Y-96837893D01*
X158110904Y-96558423D01*
X158177283Y-96475166D01*
X158233763Y-96438488D01*
X158336820Y-96411711D01*
X158523134Y-96451313D01*
X158606390Y-96517693D01*
X159652045Y-97324148D02*
X159735301Y-97390528D01*
X159921615Y-97430130D01*
X160024673Y-97403353D01*
X160091052Y-97320096D01*
X160100953Y-97273518D01*
X160074175Y-97170460D01*
X159990919Y-97104081D01*
X159851184Y-97074379D01*
X159767927Y-97008000D01*
X159741150Y-96904942D01*
X159751050Y-96858364D01*
X159817430Y-96775107D01*
X159920488Y-96748330D01*
X160060223Y-96778032D01*
X160143479Y-96844411D01*
X160863085Y-97581563D02*
X160760027Y-97608340D01*
X160573713Y-97568738D01*
X160490457Y-97502358D01*
X160463680Y-97399301D01*
X160542884Y-97026673D01*
X160609264Y-96943417D01*
X160712321Y-96916639D01*
X160898635Y-96956242D01*
X160981891Y-97022621D01*
X161008669Y-97125679D01*
X160988868Y-97218836D01*
X160503282Y-97212987D01*
X161457577Y-97075048D02*
X161318969Y-97727147D01*
X161437775Y-97168205D02*
X161494255Y-97131527D01*
X161597312Y-97104750D01*
X161737047Y-97134452D01*
X161820304Y-97200831D01*
X161847081Y-97303889D01*
X161738175Y-97816252D01*
X162167282Y-97858778D02*
X162250538Y-97925158D01*
X162436852Y-97964760D01*
X162539909Y-97937983D01*
X162606289Y-97854726D01*
X162616189Y-97808148D01*
X162589412Y-97705091D01*
X162506156Y-97638711D01*
X162366420Y-97609009D01*
X162283164Y-97542630D01*
X162256387Y-97439572D01*
X162266287Y-97392994D01*
X162332667Y-97309737D01*
X162435724Y-97282960D01*
X162575460Y-97312662D01*
X162658716Y-97379041D01*
X163135529Y-98113269D02*
X163052272Y-98046889D01*
X163015594Y-97990410D01*
X162988817Y-97887352D01*
X163048220Y-97607882D01*
X163114600Y-97524625D01*
X163171079Y-97487947D01*
X163274136Y-97461170D01*
X163413872Y-97490872D01*
X163497128Y-97557251D01*
X163533806Y-97613730D01*
X163560583Y-97716788D01*
X163501180Y-97996259D01*
X163434800Y-98079515D01*
X163378321Y-98116193D01*
X163275264Y-98142970D01*
X163135529Y-98113269D01*
X163880784Y-98271677D02*
X164019392Y-97619579D01*
X163979790Y-97805893D02*
X164046169Y-97722636D01*
X164102648Y-97685959D01*
X164205706Y-97659181D01*
X164298862Y-97678982D01*
X165277010Y-97886894D02*
X165371295Y-98588495D01*
X165742795Y-97985900D01*
X166489178Y-98826109D02*
X165930236Y-98707302D01*
X166209707Y-98766705D02*
X166417619Y-97788558D01*
X166294760Y-97908492D01*
X166181802Y-97981848D01*
X166078744Y-98008625D01*
D11*
X141000000Y-96894857D02*
X141000000Y-95694857D01*
X138800000Y-97626857D02*
X139485714Y-97626857D01*
X139142857Y-98826857D02*
X139142857Y-97626857D01*
X139885714Y-98826857D02*
X139885714Y-97626857D01*
X140400000Y-98826857D02*
X140400000Y-98198285D01*
X140342857Y-98084000D01*
X140228571Y-98026857D01*
X140057142Y-98026857D01*
X139942857Y-98084000D01*
X139885714Y-98141142D01*
X140971428Y-98826857D02*
X140971428Y-98026857D01*
X140971428Y-97626857D02*
X140914285Y-97684000D01*
X140971428Y-97741142D01*
X141028571Y-97684000D01*
X140971428Y-97626857D01*
X140971428Y-97741142D01*
X141542857Y-98026857D02*
X141542857Y-98826857D01*
X141542857Y-98141142D02*
X141600000Y-98084000D01*
X141714285Y-98026857D01*
X141885714Y-98026857D01*
X142000000Y-98084000D01*
X142057142Y-98198285D01*
X142057142Y-98826857D01*
X142628571Y-98826857D02*
X142628571Y-97626857D01*
X142742857Y-98369714D02*
X143085714Y-98826857D01*
X143085714Y-98026857D02*
X142628571Y-98484000D01*
X138742857Y-100187428D02*
X138742857Y-100758857D01*
X138342857Y-99558857D02*
X138742857Y-100187428D01*
X139142857Y-99558857D01*
X139714285Y-100758857D02*
X139600000Y-100701714D01*
X139542857Y-100644571D01*
X139485714Y-100530285D01*
X139485714Y-100187428D01*
X139542857Y-100073142D01*
X139600000Y-100016000D01*
X139714285Y-99958857D01*
X139885714Y-99958857D01*
X140000000Y-100016000D01*
X140057142Y-100073142D01*
X140114285Y-100187428D01*
X140114285Y-100530285D01*
X140057142Y-100644571D01*
X140000000Y-100701714D01*
X139885714Y-100758857D01*
X139714285Y-100758857D01*
X141142857Y-99958857D02*
X141142857Y-100758857D01*
X140628571Y-99958857D02*
X140628571Y-100587428D01*
X140685714Y-100701714D01*
X140800000Y-100758857D01*
X140971428Y-100758857D01*
X141085714Y-100701714D01*
X141142857Y-100644571D01*
X141771428Y-99558857D02*
X141657142Y-99787428D01*
X142285714Y-100758857D02*
X142285714Y-99958857D01*
X142285714Y-100187428D02*
X142342857Y-100073142D01*
X142400000Y-100016000D01*
X142514285Y-99958857D01*
X142628571Y-99958857D01*
X143485714Y-100701714D02*
X143371428Y-100758857D01*
X143142857Y-100758857D01*
X143028571Y-100701714D01*
X142971428Y-100587428D01*
X142971428Y-100130285D01*
X143028571Y-100016000D01*
X143142857Y-99958857D01*
X143371428Y-99958857D01*
X143485714Y-100016000D01*
X143542857Y-100130285D01*
X143542857Y-100244571D01*
X142971428Y-100358857D01*
X138885714Y-102633714D02*
X139057142Y-102690857D01*
X139342857Y-102690857D01*
X139457142Y-102633714D01*
X139514285Y-102576571D01*
X139571428Y-102462285D01*
X139571428Y-102348000D01*
X139514285Y-102233714D01*
X139457142Y-102176571D01*
X139342857Y-102119428D01*
X139114285Y-102062285D01*
X139000000Y-102005142D01*
X138942857Y-101948000D01*
X138885714Y-101833714D01*
X138885714Y-101719428D01*
X138942857Y-101605142D01*
X139000000Y-101548000D01*
X139114285Y-101490857D01*
X139400000Y-101490857D01*
X139571428Y-101548000D01*
X139971428Y-101890857D02*
X140200000Y-102690857D01*
X140428571Y-102119428D01*
X140657142Y-102690857D01*
X140885714Y-101890857D01*
X141800000Y-102633714D02*
X141685714Y-102690857D01*
X141457142Y-102690857D01*
X141342857Y-102633714D01*
X141285714Y-102519428D01*
X141285714Y-102062285D01*
X141342857Y-101948000D01*
X141457142Y-101890857D01*
X141685714Y-101890857D01*
X141800000Y-101948000D01*
X141857142Y-102062285D01*
X141857142Y-102176571D01*
X141285714Y-102290857D01*
X142542857Y-102690857D02*
X142428571Y-102633714D01*
X142371428Y-102519428D01*
X142371428Y-101490857D01*
X143171428Y-102690857D02*
X143057142Y-102633714D01*
X143000000Y-102519428D01*
X143000000Y-101490857D01*
X142671428Y-108042857D02*
X142100000Y-108042857D01*
X142100000Y-106842857D01*
X143528571Y-107985714D02*
X143414285Y-108042857D01*
X143185714Y-108042857D01*
X143071428Y-107985714D01*
X143014285Y-107871428D01*
X143014285Y-107414285D01*
X143071428Y-107300000D01*
X143185714Y-107242857D01*
X143414285Y-107242857D01*
X143528571Y-107300000D01*
X143585714Y-107414285D01*
X143585714Y-107528571D01*
X143014285Y-107642857D01*
X143928571Y-107242857D02*
X144385714Y-107242857D01*
X144100000Y-106842857D02*
X144100000Y-107871428D01*
X144157142Y-107985714D01*
X144271428Y-108042857D01*
X144385714Y-108042857D01*
X144842857Y-106842857D02*
X144728571Y-107071428D01*
X145300000Y-107985714D02*
X145414285Y-108042857D01*
X145642857Y-108042857D01*
X145757142Y-107985714D01*
X145814285Y-107871428D01*
X145814285Y-107814285D01*
X145757142Y-107700000D01*
X145642857Y-107642857D01*
X145471428Y-107642857D01*
X145357142Y-107585714D01*
X145300000Y-107471428D01*
X145300000Y-107414285D01*
X145357142Y-107300000D01*
X145471428Y-107242857D01*
X145642857Y-107242857D01*
X145757142Y-107300000D01*
X147642857Y-107414285D02*
X147814285Y-107471428D01*
X147871428Y-107528571D01*
X147928571Y-107642857D01*
X147928571Y-107814285D01*
X147871428Y-107928571D01*
X147814285Y-107985714D01*
X147700000Y-108042857D01*
X147242857Y-108042857D01*
X147242857Y-106842857D01*
X147642857Y-106842857D01*
X147757142Y-106900000D01*
X147814285Y-106957142D01*
X147871428Y-107071428D01*
X147871428Y-107185714D01*
X147814285Y-107300000D01*
X147757142Y-107357142D01*
X147642857Y-107414285D01*
X147242857Y-107414285D01*
X148900000Y-107985714D02*
X148785714Y-108042857D01*
X148557142Y-108042857D01*
X148442857Y-107985714D01*
X148385714Y-107871428D01*
X148385714Y-107414285D01*
X148442857Y-107300000D01*
X148557142Y-107242857D01*
X148785714Y-107242857D01*
X148900000Y-107300000D01*
X148957142Y-107414285D01*
X148957142Y-107528571D01*
X148385714Y-107642857D01*
X150785714Y-107414285D02*
X150385714Y-107414285D01*
X150385714Y-108042857D02*
X150385714Y-106842857D01*
X150957142Y-106842857D01*
X151414285Y-108042857D02*
X151414285Y-107242857D01*
X151414285Y-107471428D02*
X151471428Y-107357142D01*
X151528571Y-107300000D01*
X151642857Y-107242857D01*
X151757142Y-107242857D01*
X152157142Y-108042857D02*
X152157142Y-107242857D01*
X152157142Y-106842857D02*
X152100000Y-106900000D01*
X152157142Y-106957142D01*
X152214285Y-106900000D01*
X152157142Y-106842857D01*
X152157142Y-106957142D01*
X153185714Y-107985714D02*
X153071428Y-108042857D01*
X152842857Y-108042857D01*
X152728571Y-107985714D01*
X152671428Y-107871428D01*
X152671428Y-107414285D01*
X152728571Y-107300000D01*
X152842857Y-107242857D01*
X153071428Y-107242857D01*
X153185714Y-107300000D01*
X153242857Y-107414285D01*
X153242857Y-107528571D01*
X152671428Y-107642857D01*
X153757142Y-107242857D02*
X153757142Y-108042857D01*
X153757142Y-107357142D02*
X153814285Y-107300000D01*
X153928571Y-107242857D01*
X154100000Y-107242857D01*
X154214285Y-107300000D01*
X154271428Y-107414285D01*
X154271428Y-108042857D01*
X155357142Y-108042857D02*
X155357142Y-106842857D01*
X155357142Y-107985714D02*
X155242857Y-108042857D01*
X155014285Y-108042857D01*
X154900000Y-107985714D01*
X154842857Y-107928571D01*
X154785714Y-107814285D01*
X154785714Y-107471428D01*
X154842857Y-107357142D01*
X154900000Y-107300000D01*
X155014285Y-107242857D01*
X155242857Y-107242857D01*
X155357142Y-107300000D01*
X155871428Y-107985714D02*
X155985714Y-108042857D01*
X156214285Y-108042857D01*
X156328571Y-107985714D01*
X156385714Y-107871428D01*
X156385714Y-107814285D01*
X156328571Y-107700000D01*
X156214285Y-107642857D01*
X156042857Y-107642857D01*
X155928571Y-107585714D01*
X155871428Y-107471428D01*
X155871428Y-107414285D01*
X155928571Y-107300000D01*
X156042857Y-107242857D01*
X156214285Y-107242857D01*
X156328571Y-107300000D01*
X156900000Y-107928571D02*
X156957142Y-107985714D01*
X156900000Y-108042857D01*
X156842857Y-107985714D01*
X156900000Y-107928571D01*
X156900000Y-108042857D01*
X156900000Y-107585714D02*
X156842857Y-106900000D01*
X156900000Y-106842857D01*
X156957142Y-106900000D01*
X156900000Y-107585714D01*
X156900000Y-106842857D01*
D10*
X150083333Y-104787142D02*
X150035714Y-104834761D01*
X149892857Y-104882380D01*
X149797619Y-104882380D01*
X149654761Y-104834761D01*
X149559523Y-104739523D01*
X149511904Y-104644285D01*
X149464285Y-104453809D01*
X149464285Y-104310952D01*
X149511904Y-104120476D01*
X149559523Y-104025238D01*
X149654761Y-103930000D01*
X149797619Y-103882380D01*
X149892857Y-103882380D01*
X150035714Y-103930000D01*
X150083333Y-103977619D01*
X151035714Y-104882380D02*
X150464285Y-104882380D01*
X150750000Y-104882380D02*
X150750000Y-103882380D01*
X150654761Y-104025238D01*
X150559523Y-104120476D01*
X150464285Y-104168095D01*
X153333333Y-103037142D02*
X153285714Y-103084761D01*
X153142857Y-103132380D01*
X153047619Y-103132380D01*
X152904761Y-103084761D01*
X152809523Y-102989523D01*
X152761904Y-102894285D01*
X152714285Y-102703809D01*
X152714285Y-102560952D01*
X152761904Y-102370476D01*
X152809523Y-102275238D01*
X152904761Y-102180000D01*
X153047619Y-102132380D01*
X153142857Y-102132380D01*
X153285714Y-102180000D01*
X153333333Y-102227619D01*
X153666666Y-102132380D02*
X154285714Y-102132380D01*
X153952380Y-102513333D01*
X154095238Y-102513333D01*
X154190476Y-102560952D01*
X154238095Y-102608571D01*
X154285714Y-102703809D01*
X154285714Y-102941904D01*
X154238095Y-103037142D01*
X154190476Y-103084761D01*
X154095238Y-103132380D01*
X153809523Y-103132380D01*
X153714285Y-103084761D01*
X153666666Y-103037142D01*
X146333333Y-102037142D02*
X146285714Y-102084761D01*
X146142857Y-102132380D01*
X146047619Y-102132380D01*
X145904761Y-102084761D01*
X145809523Y-101989523D01*
X145761904Y-101894285D01*
X145714285Y-101703809D01*
X145714285Y-101560952D01*
X145761904Y-101370476D01*
X145809523Y-101275238D01*
X145904761Y-101180000D01*
X146047619Y-101132380D01*
X146142857Y-101132380D01*
X146285714Y-101180000D01*
X146333333Y-101227619D01*
X146714285Y-101227619D02*
X146761904Y-101180000D01*
X146857142Y-101132380D01*
X147095238Y-101132380D01*
X147190476Y-101180000D01*
X147238095Y-101227619D01*
X147285714Y-101322857D01*
X147285714Y-101418095D01*
X147238095Y-101560952D01*
X146666666Y-102132380D01*
X147285714Y-102132380D01*
X152488095Y-99802380D02*
X152488095Y-100611904D01*
X152535714Y-100707142D01*
X152583333Y-100754761D01*
X152678571Y-100802380D01*
X152869047Y-100802380D01*
X152964285Y-100754761D01*
X153011904Y-100707142D01*
X153059523Y-100611904D01*
X153059523Y-99802380D01*
X154059523Y-100802380D02*
X153488095Y-100802380D01*
X153773809Y-100802380D02*
X153773809Y-99802380D01*
X153678571Y-99945238D01*
X153583333Y-100040476D01*
X153488095Y-100088095D01*
X139350000Y-93000000D02*
G75*
G03*
X139350000Y-93000000I-3350000J0D01*
G01*
D12*
X148985000Y-103761252D02*
X148985000Y-103238748D01*
X147515000Y-103761252D02*
X147515000Y-103238748D01*
X151140580Y-101990000D02*
X150859420Y-101990000D01*
X151140580Y-103010000D02*
X150859420Y-103010000D01*
X146640580Y-99740000D02*
X146359420Y-99740000D01*
X146640580Y-100760000D02*
X146359420Y-100760000D01*
D10*
X167350000Y-93000000D02*
G75*
G03*
X167350000Y-93000000I-3350000J0D01*
G01*
X139350000Y-107000000D02*
G75*
G03*
X139350000Y-107000000I-3350000J0D01*
G01*
X167350000Y-107000000D02*
G75*
G03*
X167350000Y-107000000I-3350000J0D01*
G01*
D12*
X150000000Y-98440000D02*
X150650000Y-98440000D01*
X150000000Y-101560000D02*
X150650000Y-101560000D01*
X150000000Y-98440000D02*
X148325000Y-98440000D01*
X150000000Y-101560000D02*
X149350000Y-101560000D01*
%LPC*%
D13*
X136000000Y-93000000D03*
D14*
X148250000Y-104450000D03*
X148250000Y-102550000D03*
D15*
X151775000Y-102500000D03*
X150225000Y-102500000D03*
X147275000Y-100250000D03*
X145725000Y-100250000D03*
D13*
X164000000Y-93000000D03*
X136000000Y-107000000D03*
X164000000Y-107000000D03*
D16*
X149062500Y-99050000D03*
X149062500Y-100950000D03*
X150937500Y-100000000D03*
D17*
X147500000Y-96000000D03*
D18*
X150040000Y-96000000D03*
X152580000Y-96000000D03*
M02*
