%FSLAX45Y45*%
G04 Gerber Fmt 4.5, Leading zero omitted, Abs format (unit mm)*
G04 Created by KiCad (PCBNEW 6.0.2+dfsg-1) date 2022-12-16 18:51:56*
%MOMM*%
%LPD*%
G01*
G04 APERTURE LIST*
%TA.AperFunction,Profile*%
%ADD10C,0.100000*%
%TD*%
%ADD11C,0.200000*%
G04 APERTURE END LIST*
D10*
X16500000Y-8900000D02*
X13500000Y-8900000D01*
X16800000Y-10800000D02*
X16800000Y-9200000D01*
X13500000Y-11100000D02*
X16500000Y-11100000D01*
X13200000Y-9200000D02*
X13200000Y-10800000D01*
X13200000Y-10800000D02*
G75*
G03*
X13500000Y-11100000I300000J0D01*
G01*
X16500000Y-11100000D02*
G75*
G03*
X16800000Y-10800000I0J300000D01*
G01*
X16800000Y-9200000D02*
G75*
G03*
X16500000Y-8900000I-300000J0D01*
G01*
X13500000Y-8900000D02*
G75*
G03*
X13200000Y-9200000I0J-300000D01*
G01*
D11*
X13452619Y-11415476D02*
X13452619Y-11215476D01*
X13500238Y-11215476D01*
X13528809Y-11225000D01*
X13547857Y-11244048D01*
X13557381Y-11263095D01*
X13566905Y-11301190D01*
X13566905Y-11329762D01*
X13557381Y-11367857D01*
X13547857Y-11386905D01*
X13528809Y-11405952D01*
X13500238Y-11415476D01*
X13452619Y-11415476D01*
X13652619Y-11415476D02*
X13652619Y-11282143D01*
X13652619Y-11320238D02*
X13662143Y-11301190D01*
X13671667Y-11291667D01*
X13690714Y-11282143D01*
X13709762Y-11282143D01*
X13776428Y-11415476D02*
X13776428Y-11282143D01*
X13776428Y-11215476D02*
X13766905Y-11225000D01*
X13776428Y-11234524D01*
X13785952Y-11225000D01*
X13776428Y-11215476D01*
X13776428Y-11234524D01*
X13900238Y-11415476D02*
X13881190Y-11405952D01*
X13871667Y-11386905D01*
X13871667Y-11215476D01*
X14005000Y-11415476D02*
X13985952Y-11405952D01*
X13976428Y-11386905D01*
X13976428Y-11215476D01*
X14233571Y-11415476D02*
X14233571Y-11215476D01*
X14300238Y-11358333D01*
X14366905Y-11215476D01*
X14366905Y-11415476D01*
X14547857Y-11415476D02*
X14547857Y-11310714D01*
X14538333Y-11291667D01*
X14519286Y-11282143D01*
X14481190Y-11282143D01*
X14462143Y-11291667D01*
X14547857Y-11405952D02*
X14528809Y-11415476D01*
X14481190Y-11415476D01*
X14462143Y-11405952D01*
X14452619Y-11386905D01*
X14452619Y-11367857D01*
X14462143Y-11348809D01*
X14481190Y-11339286D01*
X14528809Y-11339286D01*
X14547857Y-11329762D01*
X14643095Y-11282143D02*
X14643095Y-11482143D01*
X14643095Y-11291667D02*
X14662143Y-11282143D01*
X14700238Y-11282143D01*
X14719286Y-11291667D01*
X14728809Y-11301190D01*
X14738333Y-11320238D01*
X14738333Y-11377381D01*
X14728809Y-11396428D01*
X14719286Y-11405952D01*
X14700238Y-11415476D01*
X14662143Y-11415476D01*
X14643095Y-11405952D01*
X14824048Y-11396428D02*
X14833571Y-11405952D01*
X14824048Y-11415476D01*
X14814524Y-11405952D01*
X14824048Y-11396428D01*
X14824048Y-11415476D01*
X14824048Y-11291667D02*
X14833571Y-11301190D01*
X14824048Y-11310714D01*
X14814524Y-11301190D01*
X14824048Y-11291667D01*
X14824048Y-11310714D01*
M02*
